<?xml version="1.0" encoding="UTF-8"?>
<svg width="254px" height="132px" viewBox="0 0 254 132" version="1.1" xmlns="http://www.w3.org/2000/svg" xmlns:xlink="http://www.w3.org/1999/xlink">
    <!-- Generator: Sketch 50.2 (55047) - http://www.bohemiancoding.com/sketch -->
    <title>BE@2x</title>
    <desc>Created with Sketch.</desc>
    <defs>
        <polygon id="path-1" points="34.8755818 0.213095833 69.0056196 0.213095833 69.0056196 6.7351625 34.8755818 6.7351625"></polygon>
        <polygon id="path-3" points="30.5836525 0.186871403 60.5135106 0.186871403 60.5135106 5.90630632 30.5836525 5.90630632"></polygon>
        <linearGradient x1="341.024434%" y1="-254.206861%" x2="50%" y2="100%" id="linearGradient-5">
            <stop stop-color="#00D7F7" offset="0%"></stop>
            <stop stop-color="#0027EC" offset="100%"></stop>
        </linearGradient>
    </defs>
    <g id="Official-Landing-page" stroke="none" stroke-width="1" fill="none" fill-rule="evenodd">
        <g id="Landing-Page-1366" transform="translate(-902.000000, -1121.000000)">
            <g id="Products" transform="translate(192.000000, 937.000000)">
                <g id="products">
                    <g id="app">
                        <g id="Group-8">
                            <g id="Group-33" transform="translate(0.000000, 0.937500)">
                                <g id="BE" transform="translate(699.936741, 172.862844)">
                                    <g transform="translate(10.000000, 10.000000)">
                                        <g id="Group-29-Copy-2" transform="translate(0.169531, 0.261719)">
                                            <path d="M0.0765625,17.2309986 C0.0765625,18.9904909 1.5004004,20.4166846 3.25698641,20.4166846 L16.456618,20.4166846 C17.8617622,20.4166846 19.0008325,21.5582637 19.0008325,22.9657328 C19.0008325,24.3732018 17.8617622,25.5141568 16.456618,25.5141568 L11.6859821,25.5141568 C9.92939612,25.5141568 8.5049351,26.9409746 8.5049351,28.6998428 L8.5049351,28.8596264 C8.5049351,30.6191188 9.92939612,32.0453125 11.6859821,32.0453125 L51.6967617,32.0453125 C53.4527246,32.0453125 54.8765625,30.6191188 54.8765625,28.8596264 L54.8765625,28.6998428 C54.8765625,26.9409746 53.4527246,25.5141568 51.6967617,25.5141568 L36.9318431,25.5141568 C35.526699,25.5141568 34.3876286,24.3732018 34.3876286,22.9657328 C34.3876286,21.5582637 35.526699,20.4166846 36.9318431,20.4166846 L41.672569,20.4166846 C43.4285319,20.4166846 44.852993,18.9904909 44.852993,17.2309986 C44.852993,15.4715062 43.4285319,14.0453125 41.672569,14.0453125 L3.25698641,14.0453125 C1.5004004,14.0453125 0.0765625,15.4715062 0.0765625,17.2309986" id="Fill-1" fill-opacity="0.1" fill="#324C9A"></path>
                                            <path d="M57.2565271,20.4453125 L50.495967,20.4453125 C48.718134,20.4453125 47.2765625,19.0127106 47.2765625,17.2453125 C47.2765625,15.4779144 48.718134,14.0453125 50.495967,14.0453125 L57.2565271,14.0453125 C59.034991,14.0453125 60.4765625,15.4779144 60.4765625,17.2453125 C60.4765625,19.0127106 59.034991,20.4453125 57.2565271,20.4453125" id="Fill-3" fill-opacity="0.1" fill="#324C9A"></path>
                                            <mask id="mask-2" fill="white">
                                                <use xlink:href="#path-1"></use>
                                            </mask>
                                            <g id="Clip-6"></g>
                                            <path d="M65.8059461,6.7351625 L38.0746961,6.7351625 C36.3073532,6.7351625 34.8755818,5.27532917 34.8755818,3.47412917 C34.8755818,1.67292917 36.3073532,0.213095833 38.0746961,0.213095833 L65.8059461,0.213095833 C67.5732889,0.213095833 69.0056818,1.67292917 69.0056818,3.47412917 C69.0056818,5.27532917 67.5732889,6.7351625 65.8059461,6.7351625" id="Fill-5" fill-opacity="0.1" fill="#324C9A" mask="url(#mask-2)"></path>
                                        </g>
                                        <g id="Group-29-Copy-3" transform="translate(193.179688, 103.464835)">
                                            <path d="M0.0671404109,15.1104826 C0.0671404109,16.6534447 1.31575509,17.9041253 2.85616856,17.9041253 L14.4314004,17.9041253 C15.6636219,17.9041253 16.6625136,18.9052171 16.6625136,20.1394773 C16.6625136,21.3737376 15.6636219,22.374282 14.4314004,22.374282 L10.2478582,22.374282 C8.70744471,22.374282 7.45828359,23.62551 7.45828359,25.1679248 L7.45828359,25.3080448 C7.45828359,26.8510069 8.70744471,28.1016875 10.2478582,28.1016875 L45.3347503,28.1016875 C46.8746174,28.1016875 48.1232321,26.8510069 48.1232321,25.3080448 L48.1232321,25.1679248 C48.1232321,23.62551 46.8746174,22.374282 45.3347503,22.374282 L32.386862,22.374282 C31.1546405,22.374282 30.1557488,21.3737376 30.1557488,20.1394773 C30.1557488,18.9052171 31.1546405,17.9041253 32.386862,17.9041253 L36.5441751,17.9041253 C38.0840422,17.9041253 39.3332033,16.6534447 39.3332033,15.1104826 C39.3332033,13.5675204 38.0840422,12.3168399 36.5441751,12.3168399 L2.85616856,12.3168399 C1.31575509,12.3168399 0.0671404109,13.5675204 0.0671404109,15.1104826" id="Fill-1" fill-opacity="0.1" fill="#324C9A"></path>
                                            <path d="M50.2103087,17.9292301 L44.2817302,17.9292301 C42.7226845,17.9292301 41.4585186,16.67293 41.4585186,15.123035 C41.4585186,13.57314 42.7226845,12.3168399 44.2817302,12.3168399 L50.2103087,12.3168399 C51.7699076,12.3168399 53.0340735,13.57314 53.0340735,15.123035 C53.0340735,16.67293 51.7699076,17.9292301 50.2103087,17.9292301" id="Fill-3" fill-opacity="0.1" fill="#324C9A"></path>
                                            <mask id="mask-4" fill="white">
                                                <use xlink:href="#path-3"></use>
                                            </mask>
                                            <g id="Clip-6"></g>
                                            <path d="M57.7076017,5.90630632 L33.3890709,5.90630632 C31.8392243,5.90630632 30.5836525,4.62612595 30.5836525,3.04658886 C30.5836525,1.46705178 31.8392243,0.186871403 33.3890709,0.186871403 L57.7076017,0.186871403 C59.2574483,0.186871403 60.5135651,1.46705178 60.5135651,3.04658886 C60.5135651,4.62612595 59.2574483,5.90630632 57.7076017,5.90630632" id="Fill-5" fill-opacity="0.1" fill="#324C9A" mask="url(#mask-4)"></path>
                                        </g>
                                        <g id="Group-3" transform="translate(62.393656, 12.242739)" fill-rule="nonzero">
                                            <path d="M59.529001,36.1777846 L65.8511137,36.1777846 C66.9377001,36.1777846 67.8186169,35.2968678 67.8186169,34.2102813 L67.8186169,15.2435497 C67.8186169,14.1569632 66.9377001,13.2760464 65.8511137,13.2760464 L48.8518854,13.2760464 L48.8518854,8.92130586 C48.8518854,4.35027109 45.1330418,0.631558726 40.5621382,0.631558726 C35.9912346,0.631558726 32.2723911,4.35040225 32.2723911,8.92130586 L32.2723911,13.2760464 L15.2731628,13.2760464 C14.1865763,13.2760464 13.3056595,14.1569632 13.3056595,15.2435497 L13.3056595,32.242778 L8.95091891,32.242778 C4.3800153,32.242778 0.661171774,35.9616216 0.661171774,40.5325252 C0.661171774,45.1034288 4.3800153,48.8222723 8.95091891,48.8222723 L13.3056595,48.8222723 L13.3056595,65.8215006 C13.3056595,66.9080871 14.1865763,67.7890039 15.2731628,67.7890039 L34.2398944,67.7890039 C35.3264808,67.7890039 36.2073976,66.9080871 36.2073976,65.8215006 L36.2073976,59.4992568 C36.2073976,57.0979846 38.1609972,55.1445162 40.5621382,55.1445162 C42.9632792,55.1445162 44.9168788,57.0981158 44.9168788,59.4992568 L44.9168788,65.8215006 C44.9168788,66.9080871 45.7977956,67.7890039 46.8843821,67.7890039 L65.8511137,67.7890039 C66.9377001,67.7890039 67.8186169,66.9080871 67.8186169,65.8215006 L67.8186169,46.854769 C67.8186169,45.7681826 66.9377001,44.8872658 65.8511137,44.8872658 L59.529001,44.8872658 C57.1275976,44.8872658 55.1741292,42.9336662 55.1741292,40.5325252 C55.1741292,38.1313842 57.1275976,36.1777846 59.529001,36.1777846 Z M59.529001,48.8222723 L63.8836104,48.8222723 L63.8836104,63.8539973 L48.8518854,63.8539973 L48.8518854,59.4992568 C48.8518854,54.928222 45.1330418,51.2095096 40.5621382,51.2095096 C35.9912346,51.2095096 32.2723911,54.928222 32.2723911,59.4992568 L32.2723911,63.8539973 L17.240666,63.8539973 L17.240666,46.854769 C17.240666,45.7681826 16.3597492,44.8872658 15.2731628,44.8872658 L8.95091891,44.8872658 C6.54964675,44.8872658 4.59617833,42.9336662 4.59617833,40.5325252 C4.59617833,38.1313842 6.54977791,36.1777846 8.95091891,36.1777846 L15.2731628,36.1777846 C16.3597492,36.1777846 17.240666,35.2968678 17.240666,34.2102813 L17.240666,17.211053 L34.2398944,17.211053 C35.3264808,17.211053 36.2073976,16.3301362 36.2073976,15.2435497 L36.2073976,8.92130586 C36.2073976,6.5200337 38.1609972,4.56656528 40.5621382,4.56656528 C42.9632792,4.56656528 44.9168788,6.52016487 44.9168788,8.92130586 L44.9168788,15.2435497 C44.9168788,16.3301362 45.7977956,17.211053 46.8843821,17.211053 L63.8836104,17.211053 L63.8836104,32.242778 L59.529001,32.242778 C54.957835,32.242778 51.2391227,35.9616216 51.2391227,40.5325252 C51.2391227,45.1034288 54.957835,48.8222723 59.529001,48.8222723 Z" id="Shape" fill="#23D6A3"></path>
                                            <path d="M59.529001,87.0418511 L65.8511137,87.0418511 C66.9377001,87.0418511 67.8186169,86.1609343 67.8186169,85.0743478 L67.8186169,66.1076162 C67.8186169,65.0210298 66.9377001,64.140113 65.8511137,64.140113 L48.8518854,64.140113 L48.8518854,59.7853724 C48.8518854,55.2143376 45.1330418,51.4956252 40.5621382,51.4956252 C35.9912346,51.4956252 32.2723911,55.2144688 32.2723911,59.7853724 L32.2723911,64.140113 L15.2731628,64.140113 C14.1865763,64.140113 13.3056595,65.0210298 13.3056595,66.1076162 L13.3056595,83.1068445 L8.95091891,83.1068445 C4.3800153,83.1068445 0.661171774,86.8256881 0.661171774,91.3965917 C0.661171774,95.9674953 4.3800153,99.6863388 8.95091891,99.6863388 L13.3056595,99.6863388 L13.3056595,116.685567 C13.3056595,117.772154 14.1865763,118.65307 15.2731628,118.65307 L34.2398944,118.65307 C35.3264808,118.65307 36.2073976,117.772154 36.2073976,116.685567 L36.2073976,110.363323 C36.2073976,107.962051 38.1609972,106.008583 40.5621382,106.008583 C42.9632792,106.008583 44.9168788,107.962182 44.9168788,110.363323 L44.9168788,116.685567 C44.9168788,117.772154 45.7977956,118.65307 46.8843821,118.65307 L65.8511137,118.65307 C66.9377001,118.65307 67.8186169,117.772154 67.8186169,116.685567 L67.8186169,97.7188355 C67.8186169,96.6322491 66.9377001,95.7513323 65.8511137,95.7513323 L59.529001,95.7513323 C57.1275976,95.7513323 55.1741292,93.7977327 55.1741292,91.3965917 C55.1741292,88.9954507 57.1275976,87.0418511 59.529001,87.0418511 Z M59.529001,99.6863388 L63.8836104,99.6863388 L63.8836104,114.718064 L48.8518854,114.718064 L48.8518854,110.363323 C48.8518854,105.792288 45.1330418,102.073576 40.5621382,102.073576 C35.9912346,102.073576 32.2723911,105.792288 32.2723911,110.363323 L32.2723911,114.718064 L17.240666,114.718064 L17.240666,97.7188355 C17.240666,96.6322491 16.3597492,95.7513323 15.2731628,95.7513323 L8.95091891,95.7513323 C6.54964675,95.7513323 4.59617833,93.7977327 4.59617833,91.3965917 C4.59617833,88.9954507 6.54977791,87.0418511 8.95091891,87.0418511 L15.2731628,87.0418511 C16.3597492,87.0418511 17.240666,86.1609343 17.240666,85.0743478 L17.240666,68.0751195 L34.2398944,68.0751195 C35.3264808,68.0751195 36.2073976,67.1942027 36.2073976,66.1076162 L36.2073976,59.7853724 C36.2073976,57.3841002 38.1609972,55.4306318 40.5621382,55.4306318 C42.9632792,55.4306318 44.9168788,57.3842314 44.9168788,59.7853724 L44.9168788,66.1076162 C44.9168788,67.1942027 45.7977956,68.0751195 46.8843821,68.0751195 L63.8836104,68.0751195 L63.8836104,83.1068445 L59.529001,83.1068445 C54.957835,83.1068445 51.2391227,86.8256881 51.2391227,91.3965917 C51.2391227,95.9674953 54.957835,99.6863388 59.529001,99.6863388 Z" id="Shape" fill="url(#linearGradient-5)"></path>
                                            <path d="M110.677232,36.1777846 L116.999344,36.1777846 C118.085931,36.1777846 118.966847,35.2968678 118.966847,34.2102813 L118.966847,15.2435497 C118.966847,14.1569632 118.085931,13.2760464 116.999344,13.2760464 L100.000116,13.2760464 L100.000116,8.92130586 C100.000116,4.35027109 96.2812724,0.631558726 91.7103688,0.631558726 C87.1394652,0.631558726 83.4206216,4.35040225 83.4206216,8.92130586 L83.4206216,13.2760464 L66.4213933,13.2760464 C65.3348068,13.2760464 64.45389,14.1569632 64.45389,15.2435497 L64.45389,32.242778 L60.0991495,32.242778 C55.5282458,32.242778 51.8094023,35.9616216 51.8094023,40.5325252 C51.8094023,45.1034288 55.5282458,48.8222723 60.0991495,48.8222723 L64.45389,48.8222723 L64.45389,65.8215006 C64.45389,66.9080871 65.3348068,67.7890039 66.4213933,67.7890039 L85.3881249,67.7890039 C86.4747114,67.7890039 87.3556282,66.9080871 87.3556282,65.8215006 L87.3556282,59.4992568 C87.3556282,57.0979846 89.3092278,55.1445162 91.7103688,55.1445162 C94.1115098,55.1445162 96.0651094,57.0981158 96.0651094,59.4992568 L96.0651094,65.8215006 C96.0651094,66.9080871 96.9460262,67.7890039 98.0326126,67.7890039 L116.999344,67.7890039 C118.085931,67.7890039 118.966847,66.9080871 118.966847,65.8215006 L118.966847,46.854769 C118.966847,45.7681826 118.085931,44.8872658 116.999344,44.8872658 L110.677232,44.8872658 C108.275828,44.8872658 106.32236,42.9336662 106.32236,40.5325252 C106.32236,38.1313842 108.275828,36.1777846 110.677232,36.1777846 Z M110.677232,48.8222723 L115.031841,48.8222723 L115.031841,63.8539973 L100.000116,63.8539973 L100.000116,59.4992568 C100.000116,54.928222 96.2812724,51.2095096 91.7103688,51.2095096 C87.1394652,51.2095096 83.4206216,54.928222 83.4206216,59.4992568 L83.4206216,63.8539973 L68.3888966,63.8539973 L68.3888966,46.854769 C68.3888966,45.7681826 67.5079798,44.8872658 66.4213933,44.8872658 L60.0991495,44.8872658 C57.6978773,44.8872658 55.7444089,42.9336662 55.7444089,40.5325252 C55.7444089,38.1313842 57.6980085,36.1777846 60.0991495,36.1777846 L66.4213933,36.1777846 C67.5079798,36.1777846 68.3888966,35.2968678 68.3888966,34.2102813 L68.3888966,17.211053 L85.3881249,17.211053 C86.4747114,17.211053 87.3556282,16.3301362 87.3556282,15.2435497 L87.3556282,8.92130586 C87.3556282,6.5200337 89.3092278,4.56656528 91.7103688,4.56656528 C94.1115098,4.56656528 96.0651094,6.52016487 96.0651094,8.92130586 L96.0651094,15.2435497 C96.0651094,16.3301362 96.9460262,17.211053 98.0326126,17.211053 L115.031841,17.211053 L115.031841,32.242778 L110.677232,32.242778 C106.106066,32.242778 102.387353,35.9616216 102.387353,40.5325252 C102.387353,45.1034288 106.106066,48.8222723 110.677232,48.8222723 Z" id="Shape" fill="url(#linearGradient-5)"></path>
                                            <path d="M110.677232,87.3880966 L116.999344,87.3880966 C118.085931,87.3880966 118.966847,86.5071798 118.966847,85.4205934 L118.966847,66.4538618 C118.966847,65.3672753 118.085931,64.4863585 116.999344,64.4863585 L100.000116,64.4863585 L100.000116,60.1316179 C100.000116,55.5605831 96.2812724,51.8418708 91.7103688,51.8418708 C87.1394652,51.8418708 83.4206216,55.5607143 83.4206216,60.1316179 L83.4206216,64.4863585 L66.4213933,64.4863585 C65.3348068,64.4863585 64.45389,65.3672753 64.45389,66.4538618 L64.45389,83.4530901 L60.0991495,83.4530901 C55.5282458,83.4530901 51.8094023,87.1719336 51.8094023,91.7428372 C51.8094023,96.3137408 55.5282458,100.032584 60.0991495,100.032584 L64.45389,100.032584 L64.45389,117.031813 C64.45389,118.118399 65.3348068,118.999316 66.4213933,118.999316 L85.3881249,118.999316 C86.4747114,118.999316 87.3556282,118.118399 87.3556282,117.031813 L87.3556282,110.709569 C87.3556282,108.308297 89.3092278,106.354828 91.7103688,106.354828 C94.1115098,106.354828 96.0651094,108.308428 96.0651094,110.709569 L96.0651094,117.031813 C96.0651094,118.118399 96.9460262,118.999316 98.0326126,118.999316 L116.999344,118.999316 C118.085931,118.999316 118.966847,118.118399 118.966847,117.031813 L118.966847,98.0650811 C118.966847,96.9784946 118.085931,96.0975778 116.999344,96.0975778 L110.677232,96.0975778 C108.275828,96.0975778 106.32236,94.1439782 106.32236,91.7428372 C106.32236,89.3416962 108.275828,87.3880966 110.677232,87.3880966 Z M110.677232,100.032584 L115.031841,100.032584 L115.031841,115.064309 L100.000116,115.064309 L100.000116,110.709569 C100.000116,106.138534 96.2812724,102.419822 91.7103688,102.419822 C87.1394652,102.419822 83.4206216,106.138534 83.4206216,110.709569 L83.4206216,115.064309 L68.3888966,115.064309 L68.3888966,98.0650811 C68.3888966,96.9784946 67.5079798,96.0975778 66.4213933,96.0975778 L60.0991495,96.0975778 C57.6978773,96.0975778 55.7444089,94.1439782 55.7444089,91.7428372 C55.7444089,89.3416962 57.6980085,87.3880966 60.0991495,87.3880966 L66.4213933,87.3880966 C67.5079798,87.3880966 68.3888966,86.5071798 68.3888966,85.4205934 L68.3888966,68.4213651 L85.3881249,68.4213651 C86.4747114,68.4213651 87.3556282,67.5404483 87.3556282,66.4538618 L87.3556282,60.1316179 C87.3556282,57.7303457 89.3092278,55.7768773 91.7103688,55.7768773 C94.1115098,55.7768773 96.0651094,57.7304769 96.0651094,60.1316179 L96.0651094,66.4538618 C96.0651094,67.5404483 96.9460262,68.4213651 98.0326126,68.4213651 L115.031841,68.4213651 L115.031841,83.4530901 L110.677232,83.4530901 C106.106066,83.4530901 102.387353,87.1719336 102.387353,91.7428372 C102.387353,96.3137408 106.106066,100.032584 110.677232,100.032584 Z" id="Shape" fill="url(#linearGradient-5)"></path>
                                        </g>
                                    </g>
                                </g>
                            </g>
                        </g>
                    </g>
                </g>
            </g>
        </g>
    </g>
</svg>