<?xml version="1.0" encoding="UTF-8"?>
<svg width="208px" height="145px" viewBox="0 0 208 145" version="1.1" xmlns="http://www.w3.org/2000/svg" xmlns:xlink="http://www.w3.org/1999/xlink">
    <!-- Generator: Sketch 50.2 (55047) - http://www.bohemiancoding.com/sketch -->
    <title>MP@2x</title>
    <desc>Created with Sketch.</desc>
    <defs>
        <polygon id="path-1" points="34.8755818 0.213095833 69.0056196 0.213095833 69.0056196 6.7351625 34.8755818 6.7351625"></polygon>
        <polygon id="path-3" points="34.8755818 0.213095833 69.0056196 0.213095833 69.0056196 6.7351625 34.8755818 6.7351625"></polygon>
        <linearGradient x1="141.87246%" y1="-74.4652265%" x2="-53.1129951%" y2="175.498966%" id="linearGradient-5">
            <stop stop-color="#00D7F7" offset="0%"></stop>
            <stop stop-color="#0027EC" offset="100%"></stop>
        </linearGradient>
    </defs>
    <g id="Official-Landing-page" stroke="none" stroke-width="1" fill="none" fill-rule="evenodd">
        <g id="(Final)-LP-1920" transform="translate(-520.000000, -1184.000000)">
            <g id="Products" transform="translate(384.000000, 994.000000)">
                <g id="products" transform="translate(84.000000, 0.000000)">
                    <g id="app">
                        <g id="Group-8">
                            <g id="Group-33" transform="translate(0.000000, 0.937500)">
                                <g id="MP" transform="translate(6.500000, 173.167969)">
                                    <g id="Group-28" transform="translate(0.804688, 0.000000)">
                                        <rect id="Rectangle-2" x="0.630371094" y="0" width="276" height="160"></rect>
                                        <g id="Group-29" transform="translate(182.763281, 128.483594)">
                                            <path d="M0.0765625,17.2309986 C0.0765625,18.9904909 1.5004004,20.4166846 3.25698641,20.4166846 L16.456618,20.4166846 C17.8617622,20.4166846 19.0008325,21.5582637 19.0008325,22.9657328 C19.0008325,24.3732018 17.8617622,25.5141568 16.456618,25.5141568 L11.6859821,25.5141568 C9.92939612,25.5141568 8.5049351,26.9409746 8.5049351,28.6998428 L8.5049351,28.8596264 C8.5049351,30.6191188 9.92939612,32.0453125 11.6859821,32.0453125 L51.6967617,32.0453125 C53.4527246,32.0453125 54.8765625,30.6191188 54.8765625,28.8596264 L54.8765625,28.6998428 C54.8765625,26.9409746 53.4527246,25.5141568 51.6967617,25.5141568 L36.9318431,25.5141568 C35.526699,25.5141568 34.3876286,24.3732018 34.3876286,22.9657328 C34.3876286,21.5582637 35.526699,20.4166846 36.9318431,20.4166846 L41.672569,20.4166846 C43.4285319,20.4166846 44.852993,18.9904909 44.852993,17.2309986 C44.852993,15.4715062 43.4285319,14.0453125 41.672569,14.0453125 L3.25698641,14.0453125 C1.5004004,14.0453125 0.0765625,15.4715062 0.0765625,17.2309986" id="Fill-1" fill-opacity="0.1" fill="#324C9A"></path>
                                            <path d="M57.2565271,20.4453125 L50.495967,20.4453125 C48.718134,20.4453125 47.2765625,19.0127106 47.2765625,17.2453125 C47.2765625,15.4779144 48.718134,14.0453125 50.495967,14.0453125 L57.2565271,14.0453125 C59.034991,14.0453125 60.4765625,15.4779144 60.4765625,17.2453125 C60.4765625,19.0127106 59.034991,20.4453125 57.2565271,20.4453125" id="Fill-3" fill-opacity="0.1" fill="#324C9A"></path>
                                            <mask id="mask-2" fill="white">
                                                <use xlink:href="#path-1"></use>
                                            </mask>
                                            <g id="Clip-6"></g>
                                            <path d="M65.8059461,6.7351625 L38.0746961,6.7351625 C36.3073532,6.7351625 34.8755818,5.27532917 34.8755818,3.47412917 C34.8755818,1.67292917 36.3073532,0.213095833 38.0746961,0.213095833 L65.8059461,0.213095833 C67.5732889,0.213095833 69.0056818,1.67292917 69.0056818,3.47412917 C69.0056818,5.27532917 67.5732889,6.7351625 65.8059461,6.7351625" id="Fill-5" fill-opacity="0.1" fill="#324C9A" mask="url(#mask-2)"></path>
                                        </g>
                                        <g id="Group-29-Copy" transform="translate(45.204688, 16.542188)">
                                            <path d="M0.0765625,17.2309986 C0.0765625,18.9904909 1.5004004,20.4166846 3.25698641,20.4166846 L16.456618,20.4166846 C17.8617622,20.4166846 19.0008325,21.5582637 19.0008325,22.9657328 C19.0008325,24.3732018 17.8617622,25.5141568 16.456618,25.5141568 L11.6859821,25.5141568 C9.92939612,25.5141568 8.5049351,26.9409746 8.5049351,28.6998428 L8.5049351,28.8596264 C8.5049351,30.6191188 9.92939612,32.0453125 11.6859821,32.0453125 L51.6967617,32.0453125 C53.4527246,32.0453125 54.8765625,30.6191188 54.8765625,28.8596264 L54.8765625,28.6998428 C54.8765625,26.9409746 53.4527246,25.5141568 51.6967617,25.5141568 L36.9318431,25.5141568 C35.526699,25.5141568 34.3876286,24.3732018 34.3876286,22.9657328 C34.3876286,21.5582637 35.526699,20.4166846 36.9318431,20.4166846 L41.672569,20.4166846 C43.4285319,20.4166846 44.852993,18.9904909 44.852993,17.2309986 C44.852993,15.4715062 43.4285319,14.0453125 41.672569,14.0453125 L3.25698641,14.0453125 C1.5004004,14.0453125 0.0765625,15.4715062 0.0765625,17.2309986" id="Fill-1" fill-opacity="0.1" fill="#324C9A"></path>
                                            <path d="M57.2565271,20.4453125 L50.495967,20.4453125 C48.718134,20.4453125 47.2765625,19.0127106 47.2765625,17.2453125 C47.2765625,15.4779144 48.718134,14.0453125 50.495967,14.0453125 L57.2565271,14.0453125 C59.034991,14.0453125 60.4765625,15.4779144 60.4765625,17.2453125 C60.4765625,19.0127106 59.034991,20.4453125 57.2565271,20.4453125" id="Fill-3" fill-opacity="0.1" fill="#324C9A"></path>
                                            <mask id="mask-4" fill="white">
                                                <use xlink:href="#path-3"></use>
                                            </mask>
                                            <g id="Clip-6"></g>
                                            <path d="M65.8059461,6.7351625 L38.0746961,6.7351625 C36.3073532,6.7351625 34.8755818,5.27532917 34.8755818,3.47412917 C34.8755818,1.67292917 36.3073532,0.213095833 38.0746961,0.213095833 L65.8059461,0.213095833 C67.5732889,0.213095833 69.0056818,1.67292917 69.0056818,3.47412917 C69.0056818,5.27532917 67.5732889,6.7351625 65.8059461,6.7351625" id="Fill-5" fill-opacity="0.1" fill="#324C9A" mask="url(#mask-4)"></path>
                                        </g>
                                        <path d="M202.079515,69.1598257 L202.079515,66.9147348 C202.068606,57.2792803 194.260424,49.4710985 184.624969,49.4601894 L168.261333,49.4601894 C161.633788,49.4601894 156.261333,44.0877348 156.261333,37.4601894 C156.261333,30.8326439 161.633788,25.4601894 168.261333,25.4601894 L191.170424,25.4601894 L191.170424,21.096553 L168.261333,21.096553 C159.223969,21.096553 151.897697,28.4228257 151.897697,37.4601894 C151.897697,46.497553 159.223969,53.8238257 168.261333,53.8238257 L184.624969,53.8238257 C191.851969,53.8309166 197.708788,59.6877348 197.715878,66.9147348 L197.715878,69.1598257 C197.733606,75.5290985 195.202151,81.6409166 190.68606,86.1321894 L188.960242,87.8580075 L166.487515,65.3721894 C166.077333,64.9620075 165.520697,64.7318257 164.940606,64.7329166 L77.7158785,64.7329166 C74.1008785,64.7329166 71.1704239,67.6633712 71.1704239,71.2783712 L71.1704239,134.551098 C71.1704239,138.166098 74.1008785,141.096553 77.7158785,141.096553 L164.940606,141.096553 C165.542242,141.09628 166.116878,140.847553 166.528969,140.40928 L197.074424,107.941644 C200.326424,104.514826 200.24406,99.1172803 196.888969,95.7910985 L192.043151,90.9452803 L193.771151,89.2172803 C199.108969,83.9100075 202.100788,76.6870985 202.079515,69.1598257 Z M193.803878,98.8761894 C195.480606,100.540098 195.521515,103.238735 193.895515,104.952553 L163.995878,136.732917 L77.7158785,136.732917 C76.5109694,136.732917 75.5340603,135.756008 75.5340603,134.551098 L75.5340603,71.2783712 C75.5340603,70.0734621 76.5109694,69.096553 77.7158785,69.096553 L164.035151,69.096553 L185.875151,90.9430985 L182.484606,94.3336439 C181.154788,93.531553 179.632697,93.1041894 178.079515,93.096553 C173.259606,93.096553 169.352242,97.0039166 169.352242,101.823826 C169.352242,106.643735 173.259606,110.551098 178.079515,110.551098 C182.899424,110.551098 186.806788,106.643735 186.806788,101.823826 C186.799151,100.270644 186.371788,98.748553 185.569697,97.4187348 L188.95806,94.0303712 L193.803878,98.8761894 Z M179.62206,103.366371 L182.279515,100.708917 C182.382878,101.071644 182.437969,101.446644 182.443151,101.823826 C182.443151,104.233917 180.489606,106.187462 178.079515,106.187462 C175.669424,106.187462 173.715878,104.233917 173.715878,101.823826 C173.715878,99.4137348 175.669424,97.4601894 178.079515,97.4601894 C178.456697,97.4653712 178.831697,97.5204621 179.194424,97.6238257 L176.536969,100.28128 L179.62206,103.366371 Z M88.8068412,91.8416216 L155.596078,91.8416216 L155.596078,96.205258 L88.8068412,96.205258 L88.8068412,91.8416216 Z M88.8068412,112.209975 L143.352352,112.209975 L143.352352,116.573611 L88.8068412,116.573611 L88.8068412,112.209975 Z" id="Combined-Shape" fill="url(#linearGradient-5)" fill-rule="nonzero"></path>
                                    </g>
                                </g>
                            </g>
                        </g>
                    </g>
                </g>
            </g>
        </g>
    </g>
</svg>