<?xml version="1.0" encoding="UTF-8"?>
<svg width="247px" height="131px" viewBox="0 0 247 131" version="1.1" xmlns="http://www.w3.org/2000/svg" xmlns:xlink="http://www.w3.org/1999/xlink">
    <!-- Generator: Sketch 50.2 (55047) - http://www.bohemiancoding.com/sketch -->
    <title>WB@2x</title>
    <desc>Created with Sketch.</desc>
    <defs>
        <polygon id="path-1" points="34.8755818 0.213095833 69.0056196 0.213095833 69.0056196 6.7351625 34.8755818 6.7351625"></polygon>
        <polygon id="path-3" points="27.3211931 0.166937213 54.0583343 0.166937213 54.0583343 5.27626109 27.3211931 5.27626109"></polygon>
        <linearGradient x1="142.465105%" y1="-80.7328636%" x2="-60.8211851%" y2="168.586376%" id="linearGradient-5">
            <stop stop-color="#00D7F7" offset="0%"></stop>
            <stop stop-color="#0027EC" offset="100%"></stop>
        </linearGradient>
    </defs>
    <g id="Official-Landing-page" stroke="none" stroke-width="1" fill="none" fill-rule="evenodd">
        <g id="(Final)-LP-1920" transform="translate(-833.000000, -1188.000000)">
            <g id="Products" transform="translate(384.000000, 994.000000)">
                <g id="products" transform="translate(84.000000, 0.000000)">
                    <g id="app">
                        <g id="Group-8">
                            <g id="Group-33" transform="translate(0.000000, 0.937500)">
                                <g id="WB" transform="translate(353.500000, 172.671875)">
                                    <rect id="Rectangle-2" x="0.224121094" y="0" width="276" height="160"></rect>
                                    <g transform="translate(11.000000, 20.000000)">
                                        <g id="Group-29" transform="translate(178.329688, 99.097656)">
                                            <path d="M0.0765625,17.2309986 C0.0765625,18.9904909 1.5004004,20.4166846 3.25698641,20.4166846 L16.456618,20.4166846 C17.8617622,20.4166846 19.0008325,21.5582637 19.0008325,22.9657328 C19.0008325,24.3732018 17.8617622,25.5141568 16.456618,25.5141568 L11.6859821,25.5141568 C9.92939612,25.5141568 8.5049351,26.9409746 8.5049351,28.6998428 L8.5049351,28.8596264 C8.5049351,30.6191188 9.92939612,32.0453125 11.6859821,32.0453125 L51.6967617,32.0453125 C53.4527246,32.0453125 54.8765625,30.6191188 54.8765625,28.8596264 L54.8765625,28.6998428 C54.8765625,26.9409746 53.4527246,25.5141568 51.6967617,25.5141568 L36.9318431,25.5141568 C35.526699,25.5141568 34.3876286,24.3732018 34.3876286,22.9657328 C34.3876286,21.5582637 35.526699,20.4166846 36.9318431,20.4166846 L41.672569,20.4166846 C43.4285319,20.4166846 44.852993,18.9904909 44.852993,17.2309986 C44.852993,15.4715062 43.4285319,14.0453125 41.672569,14.0453125 L3.25698641,14.0453125 C1.5004004,14.0453125 0.0765625,15.4715062 0.0765625,17.2309986" id="Fill-1" fill-opacity="0.1" fill="#324C9A"></path>
                                            <path d="M57.2565271,20.4453125 L50.495967,20.4453125 C48.718134,20.4453125 47.2765625,19.0127106 47.2765625,17.2453125 C47.2765625,15.4779144 48.718134,14.0453125 50.495967,14.0453125 L57.2565271,14.0453125 C59.034991,14.0453125 60.4765625,15.4779144 60.4765625,17.2453125 C60.4765625,19.0127106 59.034991,20.4453125 57.2565271,20.4453125" id="Fill-3" fill-opacity="0.1" fill="#324C9A"></path>
                                            <mask id="mask-2" fill="white">
                                                <use xlink:href="#path-1"></use>
                                            </mask>
                                            <g id="Clip-6"></g>
                                            <path d="M65.8059461,6.7351625 L38.0746961,6.7351625 C36.3073532,6.7351625 34.8755818,5.27532917 34.8755818,3.47412917 C34.8755818,1.67292917 36.3073532,0.213095833 38.0746961,0.213095833 L65.8059461,0.213095833 C67.5732889,0.213095833 69.0056818,1.67292917 69.0056818,3.47412917 C69.0056818,5.27532917 67.5732889,6.7351625 65.8059461,6.7351625" id="Fill-5" fill-opacity="0.1" fill="#324C9A" mask="url(#mask-2)"></path>
                                        </g>
                                        <g id="Group-29-Copy" transform="translate(0.414062, 96.543527)">
                                            <path d="M0.0599783212,13.4985974 C0.0599783212,14.8769667 1.17539914,15.994233 2.55149162,15.994233 L12.8919552,15.994233 C13.9927315,15.994233 14.8850682,16.8885351 14.8850682,17.9911327 C14.8850682,19.0937303 13.9927315,19.9875434 12.8919552,19.9875434 L9.15468526,19.9875434 C7.77859279,19.9875434 6.66268381,21.1052987 6.66268381,22.483179 L6.66268381,22.6083519 C6.66268381,23.9867212 7.77859279,25.1039876 9.15468526,25.1039876 L40.4987426,25.1039876 C41.8743469,25.1039876 42.9897678,23.9867212 42.9897678,22.6083519 L42.9897678,22.483179 C42.9897678,21.1052987 41.8743469,19.9875434 40.4987426,19.9875434 L28.9320483,19.9875434 C27.831272,19.9875434 26.9389353,19.0937303 26.9389353,17.9911327 C26.9389353,16.8885351 27.831272,15.994233 28.9320483,15.994233 L32.6458871,15.994233 C34.0214914,15.994233 35.1374004,14.8769667 35.1374004,13.4985974 C35.1374004,12.1202282 34.0214914,11.0029618 32.6458871,11.0029618 L2.55149162,11.0029618 C1.17539914,11.0029618 0.0599783212,12.1202282 0.0599783212,13.4985974" id="Fill-1" fill-opacity="0.1" fill="#324C9A"></path>
                                            <path d="M44.854209,16.0166599 L39.5580516,16.0166599 C38.1653145,16.0166599 37.0360013,14.8943734 37.0360013,13.5098108 C37.0360013,12.1252483 38.1653145,11.0029618 39.5580516,11.0029618 L44.854209,11.0029618 C46.2474404,11.0029618 47.3767535,12.1252483 47.3767535,13.5098108 C47.3767535,14.8943734 46.2474404,16.0166599 44.854209,16.0166599" id="Fill-3" fill-opacity="0.1" fill="#324C9A"></path>
                                            <mask id="mask-4" fill="white">
                                                <use xlink:href="#path-3"></use>
                                            </mask>
                                            <g id="Clip-6"></g>
                                            <path d="M51.551741,5.27626109 L29.8273483,5.27626109 C28.442829,5.27626109 27.3211931,4.13264179 27.3211931,2.72159915 C27.3211931,1.31055651 28.442829,0.166937213 29.8273483,0.166937213 L51.551741,0.166937213 C52.9362603,0.166937213 54.058383,1.31055651 54.058383,2.72159915 C54.058383,4.13264179 52.9362603,5.27626109 51.551741,5.27626109" id="Fill-5" fill-opacity="0.1" fill="#324C9A" mask="url(#mask-4)"></path>
                                        </g>
                                        <g id="Group-2" transform="translate(60.369953, 0.529206)" fill="url(#linearGradient-5)" fill-rule="nonzero">
                                            <path d="M132.809675,14.7846224 L132.596311,14.7846224 C132.596311,6.89017868 126.408774,0.702641706 118.514331,0.702641706 L14.3930189,0.702641706 C6.49857513,0.702641706 0.311038161,6.89017868 0.311038161,14.7846224 L0.311038161,80.5005323 C0.311038161,88.394976 6.49857513,94.582513 14.3930189,94.582513 L52.1583307,94.582513 L48.9578806,109.517947 L34.4491732,109.517947 C33.1689931,109.517947 32.3155397,110.3714 32.3155397,111.651581 L32.3155397,120.186114 C32.3155397,121.466294 33.1689931,122.319748 34.4491732,122.319748 L98.4581763,122.319748 C99.7383564,122.319748 100.59181,121.466294 100.59181,120.186114 L100.59181,111.651581 C100.59181,110.3714 99.7383564,109.517947 98.4581763,109.517947 L84.1628323,109.517947 L80.9623821,94.582513 L118.727694,94.582513 C126.408774,94.582513 132.809675,88.394976 132.809675,80.5005323 L132.809675,14.7846224 Z M96.3245429,113.785214 L96.3245429,118.052481 L36.5828066,118.052481 L36.5828066,113.785214 L96.3245429,113.785214 Z M53.2251474,109.517947 L56.4255976,94.582513 L76.4817519,94.582513 L79.6822021,109.517947 L53.2251474,109.517947 Z M128.329044,80.5005323 C128.329044,85.8346159 123.848414,90.3152461 118.514331,90.3152461 L14.3930189,90.3152461 C9.05893526,90.3152461 4.57830504,85.8346159 4.57830504,80.5005323 L4.57830504,73.2461786 L128.329044,73.2461786 L128.329044,80.5005323 Z M128.329044,68.9789117 L4.57830504,68.9789117 L4.57830504,14.7846224 C4.57830504,9.4505388 9.05893526,4.96990858 14.3930189,4.96990858 L118.514331,4.96990858 C123.848414,4.96990858 128.329044,9.4505388 128.329044,14.7846224 L128.329044,68.9789117 Z" id="Shape"></path>
                                            <path d="M66.8015008,86.2798633 C64.4447544,86.2798633 62.534234,84.3693429 62.534234,82.0125964 C62.534234,79.65585 64.4447544,77.7453296 66.8015008,77.7453296 C69.1582473,77.7453296 71.0687677,79.65585 71.0687677,82.0125964 C71.0687677,84.3693429 69.1582473,86.2798633 66.8015008,86.2798633 Z M98.8060024,13.7363264 L103.073269,13.7363264 L103.073269,18.0035933 L98.8060024,18.0035933 L98.8060024,13.7363264 Z M107.340536,13.7363264 L111.607803,13.7363264 L111.607803,18.0035933 L107.340536,18.0035933 L107.340536,13.7363264 Z M115.87507,13.7363264 L120.142337,13.7363264 L120.142337,18.0035933 L115.87507,18.0035933 L115.87507,13.7363264 Z M107.340536,22.2708602 L111.607803,22.2708602 L111.607803,26.538127 L107.340536,26.538127 L107.340536,22.2708602 Z M115.87507,22.2708602 L120.142337,22.2708602 L120.142337,26.538127 L115.87507,26.538127 L115.87507,22.2708602 Z" id="Combined-Shape"></path>
                                            <path d="M77.469668,56.4089952 L120.142337,56.4089952 L120.142337,60.676262 L77.469668,60.676262 L77.469668,56.4089952 Z M83.8705684,47.8744614 L120.142337,47.8744614 L120.142337,52.1417283 L83.8705684,52.1417283 L83.8705684,47.8744614 Z M90.2714687,39.3399277 L120.142337,39.3399277 L120.142337,43.6071945 L90.2714687,43.6071945 L90.2714687,39.3399277 Z" id="Combined-Shape"></path>
                                            <path d="M67.8683176,31.0187573 C67.2282275,30.5920306 66.3747742,30.5920306 65.7346841,31.0187573 L56.1333337,35.9261142 L56.1333337,32.9390273 C56.1333337,31.6588473 55.2798803,30.8053939 53.9997002,30.8053939 L43.1181697,30.8053939 C43.331533,30.1653039 43.331533,29.3118505 43.331533,28.6717605 C43.331533,20.3505901 36.7172694,13.7363264 28.396099,13.7363264 C20.0749285,13.7363264 13.4606649,20.3505901 13.4606649,28.6717605 C13.4606649,36.1394775 19.0081118,42.3270145 26.2624655,43.3938312 L26.2624655,58.5426286 C26.2624655,59.8228087 27.1159189,60.676262 28.396099,60.676262 L53.9997002,60.676262 C55.2798803,60.676262 56.1333337,59.8228087 56.1333337,58.5426286 L56.1333337,55.5555418 L65.7346841,60.4628987 C66.1614108,60.676262 66.3747742,60.676262 66.8015008,60.676262 C68.0816809,60.676262 68.9351343,59.8228087 68.9351343,58.5426286 L68.9351343,32.9390273 C68.9351343,32.2989373 68.5084076,31.4454839 67.8683176,31.0187573 Z M26.2624655,32.9390273 L26.2624655,39.1265643 C20.5016552,38.0597476 16.661115,32.2989373 17.9412951,26.538127 C19.0081118,21.6307701 23.2753787,18.0035933 28.396099,18.0035933 C34.3702726,18.0035933 39.0642661,22.6975868 39.0642661,28.6717605 C39.0642661,29.3118505 39.0642661,30.1653039 38.8509028,30.8053939 L28.396099,30.8053939 C27.1159189,30.8053939 26.2624655,31.6588473 26.2624655,32.9390273 Z M36.9306327,35.0726608 C35.4370893,37.2062942 33.0900925,38.6998376 30.5297324,39.1265643 L30.5297324,35.0726608 L36.9306327,35.0726608 Z M51.8660668,48.7279148 L45.8918931,45.740828 L51.8660668,42.7537412 L51.8660668,48.7279148 Z M51.8660668,38.0597476 L40.1310829,43.8205579 C39.4909928,44.2472846 39.0642661,44.8873746 39.0642661,45.740828 C39.0642661,46.5942814 39.4909928,47.2343714 40.1310829,47.6610981 L51.8660668,53.4219084 L51.8660668,56.4089952 L30.5297324,56.4089952 L30.5297324,43.3938312 C35.4370893,42.7537412 39.7043562,39.553291 41.8379896,35.0726608 L51.8660668,35.0726608 L51.8660668,38.0597476 Z M64.6678674,55.1288151 L56.1333337,50.8615482 L56.1333337,40.6201077 L64.6678674,36.3528408 L64.6678674,55.1288151 Z" id="Shape"></path>
                                        </g>
                                    </g>
                                </g>
                            </g>
                        </g>
                    </g>
                </g>
            </g>
        </g>
    </g>
</svg>