<?xml version="1.0" encoding="UTF-8"?>
<svg width="70px" height="70px" viewBox="0 0 70 70" version="1.1" xmlns="http://www.w3.org/2000/svg" xmlns:xlink="http://www.w3.org/1999/xlink">
    <!-- Generator: Sketch 52.2 (67145) - http://www.bohemiancoding.com/sketch -->
    <title>bns_explorer</title>
    <desc>Created with Sketch.</desc>
    <defs>
        <linearGradient x1="75.8471582%" y1="110.276463%" x2="13.1671557%" y2="-8.74905244%" id="linearGradient-1">
            <stop stop-color="#0084F2" offset="0%"></stop>
            <stop stop-color="#0027EC" offset="100%"></stop>
        </linearGradient>
        <polygon id="path-2" points="0.000173650167 0.282355171 30.752229 0.282355171 30.752229 31.0345842 0.000173650167 31.0345842"></polygon>
    </defs>
    <g id="Landing-page-2018-Aug" stroke="none" stroke-width="1" fill="none" fill-rule="evenodd">
        <g id="Landing-Page-V3" transform="translate(-853.000000, -4708.000000)">
            <g id="Solution" transform="translate(273.000000, 4126.000000)">
                <g id="bns_explorer" transform="translate(580.000000, 582.304098)">
                    <path d="M48.2357235,69.3915689 L20.8471761,69.3915689 C9.37448198,69.3915689 0.0736676564,60.0912515 0.0736676564,48.6180604 L0.0736676564,21.2295131 C0.0736676564,9.75632193 9.37448198,0.455507611 20.8471761,0.455507611 L48.2357235,0.455507611 C59.7089146,0.455507611 69.0092319,9.75632193 69.0092319,21.2295131 L69.0092319,48.6180604 C69.0092319,60.0912515 59.7089146,69.3915689 48.2357235,69.3915689" id="Fill-1" fill="url(#linearGradient-1)" fill-rule="nonzero"></path>
                    <g id="Group-14" transform="translate(20.463956, 9.144828)">
                        <path d="M21.3040624,50.2811005 C19.4807356,51.0451612 17.4768127,51.4653946 15.3756457,51.4653946 L0.000659870635,51.4653946 L0.000659870635,27.3870625 L21.3040624,50.2811005 Z" id="Fill-1" fill="#2238C3" fill-rule="nonzero"></path>
                        <path d="M5.82512958,44.0473026 C5.82512958,43.4773827 5.75046001,43.0519398 5.60181546,42.7706266 C5.45317092,42.4896605 5.21700669,42.3486566 4.89401738,42.3486566 C4.57832138,42.3486566 4.34875586,42.4792415 4.20532083,42.7407587 C4.06188579,43.0019286 3.98478511,43.3978509 3.9740188,43.9274839 L3.9740188,45.9529395 C3.9740188,46.5447393 4.04834107,46.9778228 4.19733292,47.2518427 C4.34597746,47.5258627 4.58179439,47.662699 4.905131,47.662699 C5.21700669,47.662699 5.44761412,47.5293357 5.59660596,47.262609 C5.7452505,46.9958824 5.82130927,46.5773855 5.82512958,46.0078129 L5.82512958,44.0473026 Z M7.65991721,45.7299726 C7.65991721,46.8006996 7.41958542,47.6265798 6.93857445,48.2072659 C6.45756349,48.7879521 5.77963324,49.0782952 4.905131,49.0782952 C4.02298815,49.0782952 3.34054299,48.7865629 2.85779553,48.2017091 C2.37470076,47.6172027 2.13367433,46.7934063 2.13367433,45.7299726 L2.13367433,44.2817303 C2.13367433,43.2110034 2.37365886,42.3851231 2.85501712,41.8040897 C3.33602809,41.2234035 4.01569484,40.9330605 4.89401738,40.9330605 C5.77268723,40.9330605 6.45304858,41.22514 6.93579605,41.8096465 C7.4185435,42.394153 7.65991721,43.2196858 7.65991721,44.2869398 L7.65991721,45.7299726 Z" id="Fill-3" fill="#22E7D9" fill-rule="nonzero"></path>
                        <polygon id="Fill-5" fill="#22E7D9" fill-rule="nonzero" points="11.0305364 44.700887 11.8852426 43.0782999 13.7908795 43.0782999 12.2391416 45.9476953 13.8672856 48.9695555 11.950535 48.9695555 11.0249796 47.2271497 10.1157474 48.9695555 8.1882305 48.9695555 9.8219313 45.9476953 8.27505557 43.0782999 10.2025725 43.0782999"></polygon>
                        <g id="Group-9" transform="translate(0.000000, 0.064945)">
                            <g id="Fill-7-Clipped">
                                <mask id="mask-3" fill="white">
                                    <use xlink:href="#path-2"></use>
                                </mask>
                                <g id="path-4"></g>
                                <path d="M15.3762013,31.0345842 L0.000173650167,31.0345842 L0.000173650167,0.282181521 L15.3762013,0.282181521 C23.8683891,0.282181521 30.752229,7.16636877 30.752229,15.6585565 C30.752229,24.1507442 23.8683891,31.0345842 15.3762013,31.0345842" id="Fill-7" fill="#22E7D9" fill-rule="nonzero" mask="url(#mask-3)"></path>
                            </g>
                        </g>
                        <path d="M30.7541045,36.0902698 C30.7541045,40.3346273 29.0314948,44.1788947 26.2496191,46.9611177 C24.8430528,48.367684 23.1655921,49.5030088 21.3040624,50.2809615 L3.96335668,38.7300997 C3.3660001,38.330357 2.82421159,37.8684476 2.35188313,37.3513174 C0.855018693,35.7290775 0.000659870635,33.5827615 0.000659870635,31.3253093 L0.000659870635,20.7121584 L15.3756457,20.7121584 C22.0889611,20.7121584 27.8020516,25.0183353 29.8962726,31.019685 C30.4519531,32.6071948 30.7541045,34.3159125 30.7541045,36.0902698" id="Fill-10" fill="#22E7D9" fill-rule="nonzero"></path>
                        <path d="M20.1895756,39.6735064 C20.1895756,39.6735064 20.3736448,46.4347492 21.3040624,50.2811005 L3.96335668,38.7298914 C3.3660001,38.330496 2.82421159,37.8685865 2.35188313,37.351109 L2.35188313,37.347636 C2.35188313,37.347636 7.02029419,40.7661132 20.1895756,39.6735064" id="Fill-12" fill="#20275C" fill-rule="nonzero"></path>
                    </g>
                </g>
            </g>
        </g>
    </g>
</svg>