<?xml version="1.0" encoding="UTF-8"?>
<svg width="71px" height="71px" viewBox="0 0 71 71" version="1.1" xmlns="http://www.w3.org/2000/svg" xmlns:xlink="http://www.w3.org/1999/xlink">
    <!-- Generator: Sketch 52.2 (67145) - http://www.bohemiancoding.com/sketch -->
    <title>API</title>
    <desc>Created with Sketch.</desc>
    <defs>
        <polygon id="path-1" points="0 0.286853225 61.720657 0.286853225 61.720657 68.6438652 0 68.6438652"></polygon>
    </defs>
    <g id="API" stroke="none" stroke-width="1" fill="none" fill-rule="evenodd" transform="translate(0.084977, 0.589781)">
        <g id="api" transform="translate(3.716814, 0.000000)">
            <g id="Group-3" transform="translate(0.300452, 0.399798)">
                <g id="Fill-1-Clipped">
                    <mask id="mask-2" fill="white">
                        <use xlink:href="#path-1"></use>
                    </mask>
                    <g id="path-1"></g>
                    <path d="M26.1547636,1.54777964 L4.70550905,13.9310213 C1.79400463,15.612517 -0.000223232081,18.7193495 -0.000223232081,22.0817827 L-0.000223232081,46.8488241 C-0.000223232081,50.2112573 1.79400463,53.3180898 4.70550905,54.9995854 L26.1547636,67.382827 C29.0668261,69.064323 32.6541657,69.064323 35.5662282,67.382827 L57.0149247,54.9995854 C59.9269872,53.3180898 61.720657,50.2112573 61.720657,46.8488241 L61.720657,22.0817827 C61.720657,18.7193495 59.9269872,15.612517 57.0149247,13.9310213 L35.5662282,1.54777964 C32.6541657,-0.133716017 29.0668261,-0.133716017 26.1547636,1.54777964" id="Fill-1" fill="#FF6A73" mask="url(#mask-2)"></path>
                </g>
            </g>
            <polyline id="Fill-4" fill="#262262" points="25.201712 45.3592971 12.8474906 23.9613859 0.49382718 45.3592971 25.2033863 45.2460068"></polyline>
            <polygon id="Fill-6" fill="#262262" points="49.4740712 17.3517072 49.4740712 45.8824415 61.8282926 38.7496184 61.8282926 24.4845303"></polygon>
            <polygon id="Fill-8" fill="#262262" points="25.2036095 30.9805281 25.2036095 45.2461742 37.557831 38.1133512 49.9114944 30.9805281 37.557831 23.847705"></polygon>
            <polygon id="Fill-10" fill="#262262" points="37.5576636 23.8478724 37.5576636 52.3786067 25.2034421 45.2457836 25.2034421 30.9806955"></polygon>
        </g>
    </g>
</svg>