<?xml version="1.0" encoding="UTF-8"?>
<svg width="201px" height="26px" viewBox="0 0 201 26" version="1.1" xmlns="http://www.w3.org/2000/svg" xmlns:xlink="http://www.w3.org/1999/xlink">
    <!-- Generator: Sketch 50.2 (55047) - http://www.bohemiancoding.com/sketch -->
    <title>logo@3x</title>
    <desc>Created with Sketch.</desc>
    <defs>
        <polygon id="path-1" points="0 25.1228571 199.425806 25.1228571 199.425806 0.000276497696 0 0.000276497696"></polygon>
    </defs>
    <g id="Showcase" stroke="none" stroke-width="1" fill="none" fill-rule="evenodd">
        <g id="Showcase-375" transform="translate(-23.000000, -32.000000)">
            <g id="logo" transform="translate(23.700000, 31.941406)">
                <path d="M38.7828571,7.40276498 L45.6436866,7.40276498 C46.002212,7.40276498 46.3441475,7.48663594 46.6685714,7.65437788 C46.9920737,7.82304147 47.2759447,8.04884793 47.5192627,8.33179724 C47.7625806,8.6156682 47.956129,8.95483871 48.1008295,9.3483871 C48.2464516,9.74193548 48.318341,10.164977 48.318341,10.6156682 C48.318341,11.0211982 48.2492166,11.4064516 48.1100461,11.7714286 C47.9708756,12.1354839 47.7800922,12.4599078 47.5367742,12.7437788 C47.2934562,13.0276498 47.0123502,13.2534562 46.6943779,13.4211982 C46.3754839,13.5889401 46.037235,13.6728111 45.677788,13.6728111 L43.8547465,13.6728111 L43.8547465,12.5788018 L45.4694931,12.5788018 C45.7478341,12.5788018 45.9847005,12.5152074 46.1819355,12.3880184 C46.3791705,12.2608295 46.5432258,12.0986175 46.6768664,11.9013825 C46.8095853,11.7041475 46.9054378,11.4903226 46.9635023,11.2589862 C47.0215668,11.0276498 47.0501382,10.8073733 47.0501382,10.5990783 C47.0501382,10.3668203 47.0123502,10.1271889 46.9376959,9.87834101 C46.8621198,9.62949309 46.7552074,9.40276498 46.6160369,9.20092166 C46.477788,8.99815668 46.3063594,8.83041475 46.1035945,8.69677419 C45.9008295,8.5640553 45.6722581,8.49677419 45.4178802,8.49677419 L39.9985253,8.49677419 L39.9985253,18.2414747 L38.7828571,18.2414747 L38.7828571,7.40276498 Z" id="Fill-1" fill="#000000"></path>
                <path d="M51.6356682,14.4808295 C51.8670046,14.9960369 52.179447,15.4504147 52.5739171,15.8439631 C52.9674654,16.2375115 53.4273733,16.5508756 53.9545622,16.782212 C54.4808295,17.01447 55.0402765,17.1296774 55.6301382,17.1296774 C56.2218433,17.1296774 56.7803687,17.01447 57.3066359,16.782212 C57.8338249,16.5508756 58.2974194,16.2375115 58.6964977,15.8439631 C59.095576,15.4504147 59.4117051,14.9960369 59.6430415,14.4808295 C59.8743779,13.9656221 59.9905069,13.4181567 59.9905069,12.8393548 C59.9905069,12.2725346 59.8743779,11.7250691 59.6430415,11.1978802 C59.4117051,10.6716129 59.098341,10.2107834 58.7047926,9.81723502 C58.3112442,9.42368664 57.8513364,9.1075576 57.3241475,8.87069124 C56.7969585,8.63290323 56.2384332,8.51400922 55.6485714,8.51400922 C55.057788,8.51400922 54.495576,8.63290323 53.9628571,8.87069124 C53.4301382,9.1075576 52.9674654,9.42368664 52.5739171,9.81723502 C52.179447,10.2107834 51.8670046,10.6716129 51.6356682,11.1978802 C51.4043318,11.7250691 51.2882028,12.2725346 51.2882028,12.8393548 C51.2882028,13.4181567 51.4043318,13.9656221 51.6356682,14.4808295 M50.5591705,10.6946544 C50.8485714,10.0282949 51.2393548,9.44949309 51.7315207,8.95732719 C52.2236866,8.46516129 52.8052535,8.07437788 53.4771429,7.78497696 C54.1481106,7.49557604 54.8660829,7.35087558 55.6301382,7.35087558 C56.3951152,7.35087558 57.1130876,7.49557604 57.7840553,7.78497696 C58.4559447,8.07437788 59.0375115,8.46516129 59.5296774,8.95732719 C60.0218433,9.44949309 60.4126267,10.0282949 60.7020276,10.6946544 C60.9914286,11.3600922 61.1370507,12.0697696 61.1370507,12.8218433 C61.1370507,13.5748387 60.9914286,14.2835945 60.7020276,14.9499539 C60.4126267,15.6153917 60.0218433,16.1941935 59.5296774,16.6863594 C59.0375115,17.1785253 58.4559447,17.5702304 57.7840553,17.8587097 C57.1130876,18.1481106 56.3951152,18.2928111 55.6301382,18.2928111 C54.8660829,18.2928111 54.1481106,18.1481106 53.4771429,17.8587097 C52.8052535,17.5702304 52.2236866,17.1785253 51.7315207,16.6863594 C51.2393548,16.1941935 50.8485714,15.6153917 50.5591705,14.9499539 C50.2697696,14.2835945 50.1250691,13.5748387 50.1250691,12.8218433 C50.1250691,12.0697696 50.2697696,11.3600922 50.5591705,10.6946544" id="Fill-3" fill="#000000"></path>
                <path d="M68.3619355,12.5790783 L70.0292166,12.5790783 C70.3075576,12.5790783 70.544424,12.5154839 70.741659,12.3873733 C70.9379724,12.2601843 71.1029493,12.098894 71.2365899,11.901659 C71.3693088,11.704424 71.4651613,11.4905991 71.5232258,11.258341 C71.5812903,11.0270046 71.6098618,10.8076498 71.6098618,10.5993548 C71.6098618,10.3670968 71.5720737,10.1274654 71.4964977,9.87769585 C71.4218433,9.62884793 71.3149309,9.40304147 71.1757604,9.2002765 C71.0365899,8.99843318 70.8660829,8.83069124 70.663318,8.69705069 C70.460553,8.5643318 70.2319816,8.49705069 69.976682,8.49705069 L64.5582488,8.49705069 L64.5582488,18.2417512 L63.3425806,18.2417512 L63.3425806,7.40304147 L70.2034101,7.40304147 C70.5619355,7.40304147 70.9029493,7.48691244 71.2273733,7.65465438 C71.5517972,7.82239631 71.8356682,8.04820276 72.0789862,8.33207373 C72.3223041,8.6159447 72.5158525,8.95419355 72.660553,9.34866359 C72.8052535,9.74221198 72.8780645,10.1643318 72.8780645,10.6159447 C72.8780645,11.0214747 72.8080184,11.4067281 72.6688479,11.7717051 C72.5305991,12.1357604 72.341659,12.4601843 72.1047926,12.7440553 C71.8670046,13.0279263 71.5895853,13.2537327 71.2716129,13.4214747 C70.9527189,13.5892166 70.6135484,13.6730876 70.255023,13.6730876 L72.5656221,18.2417512 L71.2623963,18.2417512 L68.3619355,12.5790783 Z" id="Fill-5" fill="#000000"></path>
                <polygon id="Fill-7" fill="#000000" points="84.3239631 7.40276498 84.3239631 8.49677419 80.1903226 8.49677419 80.1903226 18.2414747 78.9737327 18.2414747 78.9737327 8.49677419 74.8576037 8.49677419 74.8576037 7.40276498"></polygon>
                <polygon id="Fill-9" fill="#000000" points="95.0229493 18.2412903 93.6681106 18.2412903 89.2911521 9.43483871 85.5215668 17.1472811 90.6284793 17.1472811 91.375023 18.2412903 83.6118894 18.2412903 89.2911521 6.83023041"></polygon>
                <polygon id="Fill-11" fill="#000000" points="96.9684793 18.2412903 96.9684793 7.40258065 98.1841475 7.40258065 98.1841475 17.1472811 105.218249 17.1472811 105.218249 18.2412903"></polygon>
                <polygon id="Fill-13" fill="#000000" points="113.746452 18.2412903 113.746452 7.40258065 115.77871 7.40258065 122.638618 17.2164055 122.638618 7.40258065 123.855207 7.40258065 123.855207 18.2412903 121.944608 18.2412903 114.96212 8.40995392 114.96212 18.2412903"></polygon>
                <mask id="mask-2" fill="white">
                    <use xlink:href="#path-1"></use>
                </mask>
                <g id="Clip-16"></g>
                <path d="M129.203687,13.6730876 L134.397235,13.6730876 L134.397235,12.5790783 L129.203687,12.5790783 L129.203687,13.6730876 Z M126.286636,18.2417512 L126.286636,7.40304147 L134.537327,7.40304147 L134.537327,8.49705069 L127.502304,8.49705069 L127.502304,17.1468203 L134.537327,17.1468203 L134.537327,18.2417512 L126.286636,18.2417512 Z" id="Fill-15" fill="#000000" mask="url(#mask-2)"></path>
                <polygon id="Fill-17" fill="#000000" mask="url(#mask-2)" points="146.382488 7.40276498 146.382488 8.49677419 142.248848 8.49677419 142.248848 18.2414747 141.032258 18.2414747 141.032258 8.49677419 136.916129 8.49677419 136.916129 7.40276498"></polygon>
                <polygon id="Fill-18" fill="#000000" mask="url(#mask-2)" points="149.977327 7.40276498 149.977327 17.2516129 155.170876 6.82949309 160.450138 17.3382488 160.450138 7.40276498 161.666728 7.40276498 161.666728 18.2414747 159.547834 18.2414747 155.170876 9.38248848 150.84553 18.2414747 148.761659 18.2414747 148.761659 7.40276498"></polygon>
                <path d="M165.383687,14.4808295 C165.615023,14.9960369 165.927465,15.4504147 166.321935,15.8439631 C166.714562,16.2375115 167.17447,16.5508756 167.702581,16.782212 C168.228848,17.01447 168.787373,17.1296774 169.378157,17.1296774 C169.96894,17.1296774 170.527465,17.01447 171.053733,16.782212 C171.581843,16.5508756 172.044516,16.2375115 172.443594,15.8439631 C172.843594,15.4504147 173.158802,14.9960369 173.39106,14.4808295 C173.621475,13.9656221 173.737604,13.4181567 173.737604,12.8393548 C173.737604,12.2725346 173.621475,11.7250691 173.39106,11.1978802 C173.158802,10.6716129 172.846359,10.2107834 172.452811,9.81723502 C172.058341,9.42368664 171.598433,9.1075576 171.072166,8.87069124 C170.544977,8.63290323 169.986452,8.51400922 169.39659,8.51400922 C168.804885,8.51400922 168.243594,8.63290323 167.710876,8.87069124 C167.178157,9.1075576 166.714562,9.42368664 166.321935,9.81723502 C165.927465,10.2107834 165.615023,10.6716129 165.383687,11.1978802 C165.151429,11.7250691 165.036221,12.2725346 165.036221,12.8393548 C165.036221,13.4181567 165.151429,13.9656221 165.383687,14.4808295 M164.306267,10.6946544 C164.59659,10.0282949 164.986452,9.44949309 165.479539,8.95732719 C165.971705,8.46516129 166.553272,8.07437788 167.22424,7.78497696 C167.896129,7.49557604 168.614101,7.35087558 169.378157,7.35087558 C170.142212,7.35087558 170.860184,7.49557604 171.532074,7.78497696 C172.203041,8.07437788 172.78553,8.46516129 173.277696,8.95732719 C173.769862,9.44949309 174.159724,10.0282949 174.450046,10.6946544 C174.739447,11.3600922 174.885069,12.0697696 174.885069,12.8218433 C174.885069,13.5748387 174.739447,14.2835945 174.450046,14.9499539 C174.159724,15.6153917 173.769862,16.1941935 173.277696,16.6863594 C172.78553,17.1785253 172.203041,17.5702304 171.532074,17.8587097 C170.860184,18.1481106 170.142212,18.2928111 169.378157,18.2928111 C168.614101,18.2928111 167.896129,18.1481106 167.22424,17.8587097 C166.553272,17.5702304 165.971705,17.1785253 165.479539,16.6863594 C164.986452,16.1941935 164.59659,15.6153917 164.306267,14.9499539 C164.017788,14.2835945 163.872166,13.5748387 163.872166,12.8218433 C163.872166,12.0697696 164.017788,11.3600922 164.306267,10.6946544" id="Fill-19" fill="#000000" mask="url(#mask-2)"></path>
                <path d="M182.109401,12.5790783 L183.776682,12.5790783 C184.054101,12.5790783 184.291889,12.5154839 184.489124,12.3873733 C184.685438,12.2601843 184.851336,12.098894 184.984055,11.901659 C185.116774,11.704424 185.212627,11.4905991 185.270691,11.258341 C185.327834,11.0270046 185.357327,10.8076498 185.357327,10.5993548 C185.357327,10.3670968 185.319539,10.1274654 185.243963,9.87769585 C185.168387,9.62884793 185.062396,9.40304147 184.923226,9.2002765 C184.784055,8.99843318 184.613548,8.83069124 184.410783,8.69705069 C184.208018,8.5643318 183.978525,8.49705069 183.725069,8.49705069 L178.305714,8.49705069 L178.305714,18.2417512 L177.090046,18.2417512 L177.090046,7.40304147 L183.950876,7.40304147 C184.309401,7.40304147 184.651336,7.48691244 184.974839,7.65465438 C185.299263,7.82239631 185.583134,8.04820276 185.826452,8.33207373 C186.06977,8.6159447 186.263318,8.95419355 186.408018,9.34866359 C186.552719,9.74221198 186.624608,10.1643318 186.624608,10.6159447 C186.624608,11.0214747 186.555484,11.4067281 186.417235,11.7717051 C186.277143,12.1357604 186.089124,12.4601843 185.85318,12.7440553 C185.615392,13.0279263 185.337051,13.2537327 185.018157,13.4214747 C184.700184,13.5892166 184.361014,13.6730876 184.002488,13.6730876 L186.313088,18.2417512 L185.009862,18.2417512 L182.109401,12.5790783 Z" id="Fill-20" fill="#000000" mask="url(#mask-2)"></path>
                <path d="M199.426544,7.40276498 L196.768479,12.8746544 L199.426544,18.2414747 L198.105806,18.2414747 L195.413641,12.8746544 L198.105806,7.40276498 L199.426544,7.40276498 Z M188.91871,18.2414747 L188.91871,7.40276498 L190.133456,7.40276498 L190.133456,12.3179724 L193.816406,12.3179724 L193.816406,13.4129032 L190.133456,13.4129032 L190.133456,18.2414747 L188.91871,18.2414747 Z" id="Fill-21" fill="#000000" mask="url(#mask-2)"></path>
                <path d="M19.9456221,21.9360369 C21.9732719,21.9360369 23.6046083,21.2991705 24.6617512,20.0936406 C25.6986175,18.9120737 26.0958525,17.2936406 25.8129032,15.4143779 C25.7834101,15.2208295 25.5797235,15.0143779 25.3585253,14.9526267 C25.1354839,14.8908756 24.9788018,14.997788 25.0082949,15.1913364 C25.2700461,16.9231336 24.9023041,18.4143779 23.9465438,19.5037788 C22.9723502,20.6143779 21.4691244,21.2014747 19.6,21.2014747 C17.3447005,21.2014747 14.8036866,20.3378802 12.4470046,18.7682949 C12.2341014,18.6272811 12.0036866,18.6318894 11.9317972,18.7765899 C11.8589862,18.922212 11.9714286,19.1553917 12.1834101,19.2964055 C14.7419355,20.9987097 17.4976959,21.9360369 19.9456221,21.9360369" id="Fill-22" fill="#000000" mask="url(#mask-2)"></path>
                <path d="M25.1470046,14.1000922 C25.1645161,14.1019355 25.1801843,14.1028571 25.1967742,14.1028571 C25.3774194,14.1028571 25.4723502,13.9682949 25.4096774,13.7839631 C25.2732719,13.3811982 25.1064516,12.9701382 24.9147465,12.5618433 C24.818894,12.3581567 24.5774194,12.1941014 24.3746544,12.1941014 C24.1718894,12.1941014 24.0843318,12.3581567 24.1801843,12.5618433 C24.3571429,12.9388018 24.5110599,13.3176037 24.6373272,13.6890323 C24.70553,13.8899539 24.9341014,14.0742857 25.1470046,14.1000922" id="Fill-23" fill="#000000" mask="url(#mask-2)"></path>
                <path d="M6.08691244,10.0336406 C5.80211982,8.30184332 6.16341014,6.74516129 7.10442396,5.65023041 C8.07861751,4.51935484 9.59105991,3.92119816 11.4786175,3.92119816 C13.8389862,3.92119816 16.4823041,4.85483871 18.9219355,6.55069124 C19.1320737,6.69631336 19.3661751,6.7 19.4454378,6.55898618 C19.5247005,6.41797235 19.4187097,6.18571429 19.2094931,6.04009217 C16.5624885,4.19953917 13.6942857,3.18663594 11.1339171,3.18663594 C9.08506912,3.18663594 7.44451613,3.83548387 6.38829493,5.06313364 C5.36617512,6.25023041 4.97447005,7.93963134 5.28322581,9.81889401 C5.31548387,10.0133641 5.52101382,10.2179724 5.74313364,10.2778802 C5.78368664,10.2880184 5.82239631,10.2935484 5.85741935,10.2935484 C6.01502304,10.2935484 6.11271889,10.1921659 6.08691244,10.0336406" id="Fill-24" fill="#000000" mask="url(#mask-2)"></path>
                <path d="M5.9321659,11.0223963 C5.71926267,10.9965899 5.60129032,11.1376037 5.66949309,11.339447 C5.80589862,11.7412903 5.97271889,12.1532719 6.16442396,12.5615668 C6.2602765,12.7643318 6.50175115,12.9283871 6.70451613,12.9283871 C6.90728111,12.9283871 6.99483871,12.7643318 6.89898618,12.5615668 C6.72202765,12.1846083 6.5681106,11.8048848 6.44184332,11.4334562 C6.37364055,11.2325346 6.14506912,11.0482028 5.9321659,11.0223963" id="Fill-25" fill="#000000" mask="url(#mask-2)"></path>
                <path d="M9.22995392,2.46958525 C9.2483871,2.46958525 9.26589862,2.46866359 9.28248848,2.46589862 C9.74516129,2.3921659 10.2364055,2.35437788 10.7423963,2.35437788 C10.9451613,2.35437788 11.0327189,2.19032258 10.937788,1.9875576 C10.8419355,1.78479263 10.6004608,1.61981567 10.3976959,1.61981567 C9.85483871,1.61981567 9.32857143,1.66036866 8.83271889,1.73963134 C8.64654378,1.76912442 8.59585253,1.9562212 8.7202765,2.1562212 C8.83271889,2.33870968 9.05115207,2.46958525 9.22995392,2.46958525" id="Fill-26" fill="#000000" mask="url(#mask-2)"></path>
                <path d="M3.73013825,5.8956682 C3.15410138,7.82101382 3.45364055,10.1260829 4.59834101,12.561106 C5.98082949,15.5030415 8.42967742,18.2643318 11.4932719,20.3352995 C11.598341,20.4053456 11.7080184,20.4412903 11.8020276,20.4412903 C11.8960369,20.4412903 11.9734562,20.404424 12.0112442,20.3325346 C12.0858986,20.1878341 11.9762212,19.955576 11.7651613,19.8136406 C8.90709677,17.8809217 6.62230415,15.3058065 5.33290323,12.561106 C4.26562212,10.2892166 3.98451613,8.13990783 4.52276498,6.34359447 C5.0435023,4.6035023 6.33474654,3.32147465 8.15870968,2.73253456 C8.32829493,2.67723502 8.34672811,2.47539171 8.20110599,2.28 C8.05364055,2.08460829 7.79834101,1.97032258 7.6278341,2.02562212 C5.67207373,2.65695853 4.28774194,4.03115207 3.73013825,5.8956682" id="Fill-27" fill="#000000" mask="url(#mask-2)"></path>
                <path d="M21.7969585,22.6569585 C21.3342857,22.7306912 20.8430415,22.7684793 20.3370507,22.7684793 C20.1333641,22.7684793 20.0467281,22.9325346 20.141659,23.1352995 C20.2375115,23.3380645 20.4789862,23.5021198 20.6817512,23.5021198 C21.2236866,23.5021198 21.7508756,23.4624885 22.2458065,23.3832258 C22.4319816,23.3528111 22.4835945,23.1666359 22.3591705,22.9657143 C22.2356682,22.7657143 21.9831336,22.6265438 21.7969585,22.6569585" id="Fill-28" fill="#000000" mask="url(#mask-2)"></path>
                <path d="M27.3823041,19.1125346 C27.9122581,17.2102304 27.6007373,14.9447926 26.48,12.5613825 C25.0975115,9.619447 22.6495853,6.85907834 19.5869124,4.7881106 C19.3758525,4.64617512 19.1435945,4.64709677 19.0689401,4.79087558 C18.9933641,4.93465438 19.1039631,5.1678341 19.315023,5.30976959 C22.1730876,7.24156682 24.4569585,9.81668203 25.7463594,12.5613825 C26.7915207,14.784424 27.0818433,16.897788 26.5878341,18.6719816 C26.1094931,20.3890323 24.8864516,21.6821198 23.1463594,22.3125346 C22.9813825,22.3724424 22.9694009,22.5779724 23.120553,22.7724424 C23.2431336,22.9300461 23.4357604,23.0305069 23.5924424,23.0305069 C23.6283871,23.0305069 23.6624885,23.024977 23.6938249,23.0139171 C25.5592627,22.3374194 26.8689401,20.9521659 27.3823041,19.1125346" id="Fill-29" fill="#000000" mask="url(#mask-2)"></path>
                <path d="M3.76700461,12.5614747 C3.67115207,12.3587097 3.42967742,12.1946544 3.2278341,12.1946544 C3.02414747,12.1946544 2.93751152,12.3587097 3.0324424,12.5614747 C4.26654378,15.1854378 6.24995392,17.6969585 8.77069124,19.8250691 C8.88958525,19.92553 9.0278341,19.9780645 9.14211982,19.9780645 C9.21585253,19.9780645 9.279447,19.9559447 9.32276498,19.9098618 C9.4324424,19.7918894 9.36239631,19.563318 9.16700461,19.3974194 C6.79557604,17.395576 4.92829493,15.0315207 3.76700461,12.5614747" id="Fill-30" fill="#000000" mask="url(#mask-2)"></path>
                <path d="M12.698341,21.8653456 C11.9527189,21.4413825 11.2181567,20.9658065 10.5130876,20.4533641 C10.3066359,20.3031336 10.0679263,20.2911521 9.98221198,20.4266359 C9.89557604,20.5630415 9.99235023,20.7952995 10.1997235,20.94553 C10.9481106,21.4902304 11.7287558,21.9952995 12.5204608,22.4450691 C12.6117051,22.4976037 12.7029493,22.5224885 12.782212,22.5224885 C12.8909677,22.5224885 12.976682,22.4736406 13.0052535,22.380553 C13.0541014,22.2201843 12.9167742,21.9897696 12.698341,21.8653456" id="Fill-31" fill="#000000" mask="url(#mask-2)"></path>
                <path d="M21.0724424,24.3338249 C18.924977,24.3338249 16.5498618,23.7504147 14.203318,22.6471889 C13.9811982,22.5421198 13.7811982,22.598341 13.7581567,22.7716129 C13.7351152,22.9448848 13.8964055,23.1706912 14.119447,23.2757604 C16.6134562,24.4481106 19.1369585,25.0683871 21.4180645,25.0683871 C21.6199078,25.0683871 21.7074654,24.9043318 21.6116129,24.7006452 C21.516682,24.4978802 21.2752074,24.3338249 21.0724424,24.3338249" id="Fill-32" fill="#000000" mask="url(#mask-2)"></path>
                <path d="M23.9823041,7.70248848 C25.3952074,9.2324424 26.5159447,10.8674654 27.3122581,12.5614747 C27.4071889,12.7642396 27.6495853,12.9282949 27.8514286,12.9282949 C28.0541935,12.9282949 28.1417512,12.7642396 28.0468203,12.5614747 C27.2007373,10.7614747 26.0099539,9.02506912 24.5085714,7.39834101 C23.0578802,5.8278341 21.3933641,4.44258065 19.563871,3.28129032 C19.3491244,3.14580645 19.1223963,3.15686636 19.0569585,3.30709677 C18.9915207,3.45824885 19.1122581,3.68958525 19.3270046,3.82599078 C21.0505069,4.91907834 22.6164055,6.22414747 23.9823041,7.70248848" id="Fill-33" fill="#000000" mask="url(#mask-2)"></path>
                <path d="M15.917788,2.05465438 C16.5703226,2.32193548 17.2274654,2.6316129 17.8707834,2.97631336 C17.9574194,3.02239631 18.042212,3.04451613 18.1168664,3.04451613 C18.2311521,3.04451613 18.3187097,2.99105991 18.3435945,2.89059908 C18.3832258,2.72562212 18.2376037,2.49612903 18.0173272,2.37907834 C17.3334562,2.01317972 16.6348387,1.68322581 15.9417512,1.39935484 C15.717788,1.3081106 15.5316129,1.38 15.5242396,1.56064516 C15.517788,1.74221198 15.6938249,1.96248848 15.917788,2.05465438" id="Fill-34" fill="#000000" mask="url(#mask-2)"></path>
                <path d="M10.0067281,0.78875576 C11.3081106,0.78875576 12.6841475,0.999815668 14.098894,1.41456221 C14.1440553,1.4283871 14.1873733,1.43483871 14.2270046,1.43483871 C14.38,1.43483871 14.4767742,1.33806452 14.4574194,1.18599078 C14.4325346,0.993364055 14.2316129,0.785069124 14.0085714,0.719631336 C12.5053456,0.278156682 11.0435945,0.0551152074 9.66202765,0.0551152074 C9.45926267,0.0551152074 9.37170507,0.219170507 9.4675576,0.421935484 C9.56248848,0.624700461 9.80396313,0.78875576 10.0067281,0.78875576" id="Fill-35" fill="#000000" mask="url(#mask-2)"></path>
                <path d="M0.732534562,4.23096774 C0.826543779,4.28626728 0.920552995,4.31299539 1.00165899,4.31299539 C1.10857143,4.31299539 1.19336406,4.26599078 1.22285714,4.17658986 C1.71686636,2.72036866 2.60534562,1.54801843 3.8643318,0.693640553 C4.00073733,0.600552995 3.9675576,0.379354839 3.78967742,0.198709677 C3.61271889,0.0189861751 3.35834101,-0.0519815668 3.22101382,0.0411059908 C1.89382488,0.942488479 0.956497696,2.17843318 0.43483871,3.71391705 C0.382304147,3.8724424 0.515023041,4.10285714 0.732534562,4.23096774" id="Fill-36" fill="#000000" mask="url(#mask-2)"></path>
                <path d="M0.387741935,6.51714286 C0.4559447,6.54571429 0.520460829,6.55953917 0.578525346,6.55953917 C0.710322581,6.55953917 0.804331797,6.48857143 0.81078341,6.36322581 C0.830138249,6.0083871 0.870691244,5.65723502 0.930599078,5.31990783 C0.961013825,5.14940092 0.806175115,4.92267281 0.5840553,4.81207373 C0.361935484,4.70147465 0.157327189,4.75032258 0.126912442,4.92082949 C0.0633179724,5.27658986 0.021843318,5.64709677 0.00064516129,6.02129032 C-0.00949308756,6.20101382 0.163778802,6.42313364 0.387741935,6.51714286" id="Fill-37" fill="#000000" mask="url(#mask-2)"></path>
                <path d="M30.3466359,20.8919816 C30.1291244,20.763871 29.9097696,20.7887558 29.8563134,20.9463594 C29.3623041,22.4025806 28.4738249,23.5740092 27.2148387,24.4293088 C27.0784332,24.5214747 27.1116129,24.7435945 27.2894931,24.9242396 C27.4129954,25.0505069 27.576129,25.1223963 27.7097696,25.1223963 C27.7659908,25.1223963 27.816682,25.1094931 27.8581567,25.0818433 C29.1853456,24.1804608 30.1226728,22.9445161 30.6443318,21.4081106 C30.6968664,21.2505069 30.5641475,21.0191705 30.3466359,20.8919816" id="Fill-38" fill="#000000" mask="url(#mask-2)"></path>
                <path d="M30.6931797,18.5009217 C30.4692166,18.4078341 30.2811982,18.4788018 30.2729032,18.659447 C30.2553917,19.0493088 30.2129954,19.4336406 30.1484793,19.8023041 C30.1171429,19.9728111 30.2729032,20.2004608 30.495023,20.3101382 C30.576129,20.3497696 30.65447,20.3691244 30.7226728,20.3691244 C30.8424885,20.3691244 30.9328111,20.3101382 30.9521659,20.2013825 C31.0212903,19.8124424 31.06553,19.4069124 31.0839631,18.9958525 C31.0922581,18.8152074 30.9171429,18.5940092 30.6931797,18.5009217" id="Fill-39" fill="#000000" mask="url(#mask-2)"></path>
                <path d="M12.215023,5.48746544 C16.1154839,5.48746544 20.78,8.66073733 22.6131797,12.5611982 C24.4463594,16.461659 22.7643318,19.6349309 18.863871,19.6349309 C14.9634101,19.6349309 10.298894,16.461659 8.46571429,12.5611982 C6.63253456,8.66073733 8.31456221,5.48746544 12.215023,5.48746544 M19.2094931,20.3694931 C23.5145622,20.3694931 25.3707834,16.8671889 23.3477419,12.5611982 C21.3247005,8.25612903 16.1753917,4.75290323 11.8703226,4.75290323 C7.56525346,4.75290323 5.7081106,8.25612903 7.73115207,12.5611982 C9.75511521,16.8671889 14.9035023,20.3694931 19.2094931,20.3694931" id="Fill-40" fill="#000000" mask="url(#mask-2)"></path>
                <path d="M2.54746544,5.75032258 C2.66082949,5.75032258 2.74746544,5.69778802 2.77327189,5.60009217 C3.02949309,4.63050691 3.48110599,3.77797235 4.11612903,3.06645161 C4.22304147,2.94663594 4.15023041,2.7162212 3.95391705,2.55308756 C3.75668203,2.38995392 3.51059908,2.35400922 3.40368664,2.47474654 C2.72903226,3.23050691 2.24976959,4.1364977 1.97695853,5.16599078 C1.93364055,5.32912442 2.07741935,5.55861751 2.29677419,5.67843318 C2.38525346,5.72728111 2.4718894,5.75032258 2.54746544,5.75032258" id="Fill-41" fill="#000000" mask="url(#mask-2)"></path>
                <path d="M28.3061751,19.5224885 C28.0379724,20.53447 27.5587097,21.4174194 26.8803687,22.1473733 C26.7706912,22.2653456 26.8407373,22.4939171 27.036129,22.658894 C27.1541014,22.7593548 27.2923502,22.8128111 27.4066359,22.8128111 C27.4803687,22.8128111 27.5448848,22.7906912 27.5882028,22.7446083 C28.3080184,21.9694931 28.8176959,21.0321659 29.1024885,19.9575115 C29.1458065,19.7934562 29.0020276,19.5639631 28.7826728,19.4441475 C28.5623963,19.3234101 28.3494931,19.3593548 28.3061751,19.5224885" id="Fill-42" fill="#000000" mask="url(#mask-2)"></path>
            </g>
        </g>
    </g>
</svg>