<?xml version="1.0" encoding="UTF-8"?>
<svg width="41px" height="38px" viewBox="0 0 41 38" version="1.1" xmlns="http://www.w3.org/2000/svg" xmlns:xlink="http://www.w3.org/1999/xlink">
    <!-- Generator: Sketch 50.2 (55047) - http://www.bohemiancoding.com/sketch -->
    <title>menu_marketplace@2x</title>
    <desc>Created with Sketch.</desc>
    <defs></defs>
    <g id="Showcase" stroke="none" stroke-width="1" fill="none" fill-rule="evenodd">
        <g id="Showcase-375-Menu" transform="translate(-56.000000, -395.000000)" fill="#000000" fill-rule="nonzero">
            <g id="menu_marketplace" transform="translate(56.571575, 395.899250)">
                <path d="M39.524343,14.567391 L39.524343,13.8869313 C39.5210493,10.9665427 37.1635869,8.59997819 34.2544306,8.59667177 L29.3138877,8.59667177 C27.3128855,8.59667177 25.690823,6.96834642 25.690823,4.95961833 C25.690823,2.95089025 27.3128855,1.32256489 29.3138877,1.32256489 L36.2306478,1.32256489 L36.2306478,0 L29.3138877,0 C26.5853082,0 24.3733449,2.22050379 24.3733449,4.95961833 C24.3733449,7.69873287 26.5853082,9.91923666 29.3138877,9.91923666 L34.2544306,9.91923666 C36.4364214,9.92138583 38.204724,11.6965159 38.2068649,13.8869313 L38.2068649,14.567391 C38.2122172,16.4978397 37.4479152,18.3502572 36.0844077,19.7115071 L35.5633451,20.2345815 L28.7783329,13.4194046 C28.6544899,13.2950835 28.4864291,13.2253182 28.3112869,13.2256489 L1.97621715,13.2256489 C0.884768887,13.2256489 0,14.1138339 0,15.2094962 L0,34.3866871 C0,35.4823494 0.884768887,36.3705344 1.97621715,36.3705344 L28.3112869,36.3705344 C28.4929342,36.3704518 28.6664296,36.2950656 28.7908489,36.1622305 L38.0131956,26.3216864 C38.9950462,25.2830597 38.9701788,23.6471296 37.9572028,22.6390045 L36.4941434,21.1702962 L37.0158647,20.6465605 C38.6274698,19.0379909 39.5307657,16.8488154 39.524343,14.567391 Z M37.0257458,23.5740579 C37.5319868,24.0783684 37.5443381,24.8962921 37.0534128,25.4157295 L28.0260529,35.0479695 L1.97621715,35.0479695 C1.61242851,35.0479695 1.3174781,34.7518803 1.3174781,34.3866871 L1.3174781,15.2094962 C1.3174781,14.844303 1.61242851,14.5482138 1.97621715,14.5482138 L28.0379102,14.5482138 L34.6318881,21.1696349 L33.6082076,22.1972678 C33.2067061,21.9541638 32.7471533,21.8246351 32.2782135,21.8223207 C30.8229766,21.8223207 29.6432573,23.0065949 29.6432573,24.4674504 C29.6432573,25.928306 30.8229766,27.1125802 32.2782135,27.1125802 C33.7334504,27.1125802 34.9131697,25.928306 34.9131697,24.4674504 C34.9108641,23.9967 34.7818336,23.5353728 34.5396646,23.1323212 L35.5626864,22.1053495 L37.0257458,23.5740579 Z M32.743942,24.9349771 L33.5462861,24.1295351 C33.5774939,24.2394733 33.5941271,24.3531312 33.5956916,24.4674504 C33.5956916,25.1979196 33.0058731,25.7900153 32.2782135,25.7900153 C31.5505538,25.7900153 30.9607354,25.1979196 30.9607354,24.4674504 C30.9607354,23.7369813 31.5505538,23.1448855 32.2782135,23.1448855 C32.392093,23.1464561 32.5053137,23.1631535 32.6148291,23.1944817 L31.8124849,23.9999237 L32.743942,24.9349771 Z" id="Shape"></path>
                <rect id="Rectangle-path" x="5.32482351" y="21.4419663" width="20.1651442" height="1.32256489"></rect>
                <rect id="Rectangle-path" x="5.32482351" y="27.6153654" width="16.4684933" height="1.32256489"></rect>
            </g>
        </g>
    </g>
</svg>