<?xml version="1.0" encoding="UTF-8"?>
<svg width="41px" height="37px" viewBox="0 0 41 37" version="1.1" xmlns="http://www.w3.org/2000/svg" xmlns:xlink="http://www.w3.org/1999/xlink">
    <!-- Generator: Sketch 50.2 (55047) - http://www.bohemiancoding.com/sketch -->
    <title>menu_webbuilder@2x</title>
    <desc>Created with Sketch.</desc>
    <defs></defs>
    <g id="Showcase" stroke="none" stroke-width="1" fill="none" fill-rule="evenodd">
        <g id="Showcase-375-Menu" transform="translate(-280.000000, -396.000000)" fill="#000000" fill-rule="nonzero">
            <g id="menu_webbuilder" transform="translate(280.568447, 395.899250)">
                <path d="M39.7057287,4.42316124 L39.6420094,4.42316124 C39.6420094,2.05644506 37.7941502,0.201451304 35.4365368,0.201451304 L4.34152738,0.201451304 C1.98391396,0.201451304 0.13605479,2.05644506 0.13605479,4.42316124 L0.13605479,24.1244743 C0.13605479,26.4911904 1.98391396,28.3461842 4.34152738,28.3461842 L15.6198402,28.3461842 L14.664051,32.8237553 L10.3311399,32.8237553 C9.94882416,32.8237553 9.69394704,33.0796166 9.69394704,33.4634084 L9.69394704,36.0220204 C9.69394704,36.4058123 9.94882416,36.6616735 10.3311399,36.6616735 L29.4469243,36.6616735 C29.82924,36.6616735 30.0841172,36.4058123 30.0841172,36.0220204 L30.0841172,33.4634084 C30.0841172,33.0796166 29.82924,32.8237553 29.4469243,32.8237553 L25.1777325,32.8237553 L24.2219433,28.3461842 L35.5002561,28.3461842 C37.7941502,28.3461842 39.7057287,26.4911904 39.7057287,24.1244743 L39.7057287,4.42316124 Z M28.8097315,34.1030614 L28.8097315,35.3823674 L10.9683327,35.3823674 L10.9683327,34.1030614 L28.8097315,34.1030614 Z M15.9384366,32.8237553 L16.8942259,28.3461842 L22.8838383,28.3461842 L23.8396276,32.8237553 L15.9384366,32.8237553 Z M38.3676238,24.1244743 C38.3676238,25.7236068 37.0295189,27.0668782 35.4365368,27.0668782 L4.34152738,27.0668782 C2.74854534,27.0668782 1.41044042,25.7236068 1.41044042,24.1244743 L1.41044042,21.949654 L38.3676238,21.949654 L38.3676238,24.1244743 Z M38.3676238,20.670348 L1.41044042,20.670348 L1.41044042,4.42316124 C1.41044042,2.82402869 2.74854534,1.48075735 4.34152738,1.48075735 L35.4365368,1.48075735 C37.0295189,1.48075735 38.3676238,2.82402869 38.3676238,4.42316124 L38.3676238,20.670348 Z" id="Shape"></path>
                <ellipse id="Oval" cx="19.8890321" cy="24.5082661" rx="1.27438563" ry="1.27930604"></ellipse>
                <rect id="Rectangle-path" x="29.4469243" y="4.03936943" width="1.27438563" height="1.27930604"></rect>
                <rect id="Rectangle-path" x="31.9956956" y="4.03936943" width="1.27438563" height="1.27930604"></rect>
                <rect id="Rectangle-path" x="34.5444669" y="4.03936943" width="1.27438563" height="1.27930604"></rect>
                <rect id="Rectangle-path" x="31.9956956" y="6.59798151" width="1.27438563" height="1.27930604"></rect>
                <rect id="Rectangle-path" x="34.5444669" y="6.59798151" width="1.27438563" height="1.27930604"></rect>
                <rect id="Rectangle-path" x="23.0749962" y="16.8324298" width="12.7438563" height="1.27930604"></rect>
                <rect id="Rectangle-path" x="24.9865746" y="14.2738178" width="10.8322779" height="1.27930604"></rect>
                <rect id="Rectangle-path" x="26.8981531" y="11.7152057" width="8.92069943" height="1.27930604"></rect>
                <rect id="Rectangle-path" x="34.5444669" y="9.15659359" width="1.27438563" height="1.27930604"></rect>
                <path d="M20.2076285,9.22055889 C20.0164707,9.09262829 19.7615935,9.09262829 19.5704357,9.22055889 L16.703068,10.6917608 L16.703068,9.79624661 C16.703068,9.4124548 16.4481909,9.15659359 16.0658752,9.15659359 L12.8161918,9.15659359 C12.8799111,8.96469768 12.8799111,8.70883648 12.8799111,8.51694057 C12.8799111,6.02229379 10.9046134,4.03936943 8.4195614,4.03936943 C5.93450942,4.03936943 3.95921169,6.02229379 3.95921169,8.51694057 C3.95921169,10.7557261 5.61591301,12.6107199 7.78236859,12.9305464 L7.78236859,17.4720829 C7.78236859,17.8558747 8.03724571,18.1117359 8.4195614,18.1117359 L16.0658752,18.1117359 C16.4481909,18.1117359 16.703068,17.8558747 16.703068,17.4720829 L16.703068,16.5765686 L19.5704357,18.0477706 C19.6978743,18.1117359 19.7615935,18.1117359 19.8890321,18.1117359 C20.2713478,18.1117359 20.5262249,17.8558747 20.5262249,17.4720829 L20.5262249,9.79624661 C20.5262249,9.6043507 20.3987864,9.3484895 20.2076285,9.22055889 Z M7.78236859,9.79624661 L7.78236859,11.6512404 C6.06194798,11.3314139 4.91500091,9.6043507 5.2973166,7.87728755 C5.61591301,6.4060856 6.89029864,5.31867547 8.4195614,5.31867547 C10.2037013,5.31867547 11.6055255,6.72591211 11.6055255,8.51694057 C11.6055255,8.70883648 11.6055255,8.96469768 11.5418062,9.15659359 L8.4195614,9.15659359 C8.03724571,9.15659359 7.78236859,9.4124548 7.78236859,9.79624661 Z M10.9683327,10.4358996 C10.5222977,11.0755527 9.8213856,11.5233098 9.05675422,11.6512404 L9.05675422,10.4358996 L10.9683327,10.4358996 Z M15.4286824,14.529679 L13.6445425,13.6341647 L15.4286824,12.7386505 L15.4286824,14.529679 Z M15.4286824,11.3314139 L11.9241219,13.058477 C11.732964,13.1864076 11.6055255,13.3783035 11.6055255,13.6341647 C11.6055255,13.8900259 11.732964,14.0819218 11.9241219,14.2098525 L15.4286824,15.9369156 L15.4286824,16.8324298 L9.05675422,16.8324298 L9.05675422,12.9305464 C10.5222977,12.7386505 11.7966833,11.779171 12.4338761,10.4358996 L15.4286824,10.4358996 L15.4286824,11.3314139 Z M19.2518393,16.448638 L16.703068,15.169332 L16.703068,12.0989975 L19.2518393,10.8196914 L19.2518393,16.448638 Z" id="Shape"></path>
            </g>
        </g>
    </g>
</svg>