<?xml version="1.0" encoding="UTF-8"?>
<svg width="37px" height="37px" viewBox="0 0 37 37" version="1.1" xmlns="http://www.w3.org/2000/svg" xmlns:xlink="http://www.w3.org/1999/xlink">
    <!-- Generator: Sketch 50.2 (55047) - http://www.bohemiancoding.com/sketch -->
    <title>menu_extension@2x</title>
    <desc>Created with Sketch.</desc>
    <defs></defs>
    <g id="Showcase" stroke="none" stroke-width="1" fill="none" fill-rule="evenodd">
        <g id="Showcase-375-Menu" transform="translate(-172.000000, -396.000000)">
            <g id="menu_extension" transform="translate(171.411998, 395.853978)">
                <g id="Group-3" transform="translate(1.428571, 0.227364)" fill="#000000" fill-rule="nonzero">
                    <g id="plugin" transform="translate(0.019128, 0.224759)">
                        <path d="M17.9625977,10.8463751 L19.8916916,10.8463751 C20.2232464,10.8463751 20.4920444,10.5775771 20.4920444,10.2460222 L20.4920444,4.45862061 C20.4920444,4.12706573 20.2232464,3.85826774 19.8916916,3.85826774 L14.7046428,3.85826774 L14.7046428,2.52948674 C14.7046428,1.13470694 13.5698959,0 12.1751561,0 C10.7804163,0 9.64566935,1.13474696 9.64566935,2.52948674 L9.64566935,3.85826774 L4.45862061,3.85826774 C4.12706573,3.85826774 3.85826774,4.12706573 3.85826774,4.45862061 L3.85826774,9.64566935 L2.52948674,9.64566935 C1.13474696,9.64566935 0,10.7804163 0,12.1751561 C0,13.5698959 1.13474696,14.7046428 2.52948674,14.7046428 L3.85826774,14.7046428 L3.85826774,19.8916916 C3.85826774,20.2232464 4.12706573,20.4920444 4.45862061,20.4920444 L10.2460222,20.4920444 C10.5775771,20.4920444 10.8463751,20.2232464 10.8463751,19.8916916 L10.8463751,17.9625577 C10.8463751,17.229847 11.4424855,16.6337767 12.1751561,16.6337767 C12.9078267,16.6337767 13.5039371,17.2298871 13.5039371,17.9625577 L13.5039371,19.8916916 C13.5039371,20.2232464 13.7727351,20.4920444 14.10429,20.4920444 L19.8916916,20.4920444 C20.2232464,20.4920444 20.4920444,20.2232464 20.4920444,19.8916916 L20.4920444,14.10429 C20.4920444,13.7727351 20.2232464,13.5039371 19.8916916,13.5039371 L17.9625977,13.5039371 C17.229847,13.5039371 16.6337767,12.9078267 16.6337767,12.1751561 C16.6337767,11.4424855 17.229847,10.8463751 17.9625977,10.8463751 Z M17.9625977,14.7046428 L19.2913387,14.7046428 L19.2913387,19.2913387 L14.7046428,19.2913387 L14.7046428,17.9625577 C14.7046428,16.5677779 13.5698959,15.433071 12.1751561,15.433071 C10.7804163,15.433071 9.64566935,16.5677779 9.64566935,17.9625577 L9.64566935,19.2913387 L5.05897347,19.2913387 L5.05897347,14.10429 C5.05897347,13.7727351 4.79017548,13.5039371 4.45862061,13.5039371 L2.52948674,13.5039371 C1.79677608,13.5039371 1.20070573,12.9078267 1.20070573,12.1751561 C1.20070573,11.4424855 1.7968161,10.8463751 2.52948674,10.8463751 L4.45862061,10.8463751 C4.79017548,10.8463751 5.05897347,10.5775771 5.05897347,10.2460222 L5.05897347,5.05897347 L10.2460222,5.05897347 C10.5775771,5.05897347 10.8463751,4.79017548 10.8463751,4.45862061 L10.8463751,2.52948674 C10.8463751,1.79677608 11.4424855,1.20070573 12.1751561,1.20070573 C12.9078267,1.20070573 13.5039371,1.7968161 13.5039371,2.52948674 L13.5039371,4.45862061 C13.5039371,4.79017548 13.7727351,5.05897347 14.10429,5.05897347 L19.2913387,5.05897347 L19.2913387,9.64566935 L17.9625977,9.64566935 C16.5677779,9.64566935 15.433071,10.7804163 15.433071,12.1751561 C15.433071,13.5698959 16.5677779,14.7046428 17.9625977,14.7046428 Z" id="Shape"></path>
                    </g>
                    <g id="plugin-copy-2" transform="translate(0.019128, 15.745134)">
                        <path d="M17.9625977,10.8463751 L19.8916916,10.8463751 C20.2232464,10.8463751 20.4920444,10.5775771 20.4920444,10.2460222 L20.4920444,4.45862061 C20.4920444,4.12706573 20.2232464,3.85826774 19.8916916,3.85826774 L14.7046428,3.85826774 L14.7046428,2.52948674 C14.7046428,1.13470694 13.5698959,0 12.1751561,0 C10.7804163,0 9.64566935,1.13474696 9.64566935,2.52948674 L9.64566935,3.85826774 L4.45862061,3.85826774 C4.12706573,3.85826774 3.85826774,4.12706573 3.85826774,4.45862061 L3.85826774,9.64566935 L2.52948674,9.64566935 C1.13474696,9.64566935 0,10.7804163 0,12.1751561 C0,13.5698959 1.13474696,14.7046428 2.52948674,14.7046428 L3.85826774,14.7046428 L3.85826774,19.8916916 C3.85826774,20.2232464 4.12706573,20.4920444 4.45862061,20.4920444 L10.2460222,20.4920444 C10.5775771,20.4920444 10.8463751,20.2232464 10.8463751,19.8916916 L10.8463751,17.9625577 C10.8463751,17.229847 11.4424855,16.6337767 12.1751561,16.6337767 C12.9078267,16.6337767 13.5039371,17.2298871 13.5039371,17.9625577 L13.5039371,19.8916916 C13.5039371,20.2232464 13.7727351,20.4920444 14.10429,20.4920444 L19.8916916,20.4920444 C20.2232464,20.4920444 20.4920444,20.2232464 20.4920444,19.8916916 L20.4920444,14.10429 C20.4920444,13.7727351 20.2232464,13.5039371 19.8916916,13.5039371 L17.9625977,13.5039371 C17.229847,13.5039371 16.6337767,12.9078267 16.6337767,12.1751561 C16.6337767,11.4424855 17.229847,10.8463751 17.9625977,10.8463751 Z M17.9625977,14.7046428 L19.2913387,14.7046428 L19.2913387,19.2913387 L14.7046428,19.2913387 L14.7046428,17.9625577 C14.7046428,16.5677779 13.5698959,15.433071 12.1751561,15.433071 C10.7804163,15.433071 9.64566935,16.5677779 9.64566935,17.9625577 L9.64566935,19.2913387 L5.05897347,19.2913387 L5.05897347,14.10429 C5.05897347,13.7727351 4.79017548,13.5039371 4.45862061,13.5039371 L2.52948674,13.5039371 C1.79677608,13.5039371 1.20070573,12.9078267 1.20070573,12.1751561 C1.20070573,11.4424855 1.7968161,10.8463751 2.52948674,10.8463751 L4.45862061,10.8463751 C4.79017548,10.8463751 5.05897347,10.5775771 5.05897347,10.2460222 L5.05897347,5.05897347 L10.2460222,5.05897347 C10.5775771,5.05897347 10.8463751,4.79017548 10.8463751,4.45862061 L10.8463751,2.52948674 C10.8463751,1.79677608 11.4424855,1.20070573 12.1751561,1.20070573 C12.9078267,1.20070573 13.5039371,1.7968161 13.5039371,2.52948674 L13.5039371,4.45862061 C13.5039371,4.79017548 13.7727351,5.05897347 14.10429,5.05897347 L19.2913387,5.05897347 L19.2913387,9.64566935 L17.9625977,9.64566935 C16.5677779,9.64566935 15.433071,10.7804163 15.433071,12.1751561 C15.433071,13.5698959 16.5677779,14.7046428 17.9625977,14.7046428 Z" id="Shape"></path>
                    </g>
                    <g id="plugin-copy" transform="translate(15.499430, 0.224759)">
                        <path d="M17.9625977,10.8463751 L19.8916916,10.8463751 C20.2232464,10.8463751 20.4920444,10.5775771 20.4920444,10.2460222 L20.4920444,4.45862061 C20.4920444,4.12706573 20.2232464,3.85826774 19.8916916,3.85826774 L14.7046428,3.85826774 L14.7046428,2.52948674 C14.7046428,1.13470694 13.5698959,0 12.1751561,0 C10.7804163,0 9.64566935,1.13474696 9.64566935,2.52948674 L9.64566935,3.85826774 L4.45862061,3.85826774 C4.12706573,3.85826774 3.85826774,4.12706573 3.85826774,4.45862061 L3.85826774,9.64566935 L2.52948674,9.64566935 C1.13474696,9.64566935 0,10.7804163 0,12.1751561 C0,13.5698959 1.13474696,14.7046428 2.52948674,14.7046428 L3.85826774,14.7046428 L3.85826774,19.8916916 C3.85826774,20.2232464 4.12706573,20.4920444 4.45862061,20.4920444 L10.2460222,20.4920444 C10.5775771,20.4920444 10.8463751,20.2232464 10.8463751,19.8916916 L10.8463751,17.9625577 C10.8463751,17.229847 11.4424855,16.6337767 12.1751561,16.6337767 C12.9078267,16.6337767 13.5039371,17.2298871 13.5039371,17.9625577 L13.5039371,19.8916916 C13.5039371,20.2232464 13.7727351,20.4920444 14.10429,20.4920444 L19.8916916,20.4920444 C20.2232464,20.4920444 20.4920444,20.2232464 20.4920444,19.8916916 L20.4920444,14.10429 C20.4920444,13.7727351 20.2232464,13.5039371 19.8916916,13.5039371 L17.9625977,13.5039371 C17.229847,13.5039371 16.6337767,12.9078267 16.6337767,12.1751561 C16.6337767,11.4424855 17.229847,10.8463751 17.9625977,10.8463751 Z M17.9625977,14.7046428 L19.2913387,14.7046428 L19.2913387,19.2913387 L14.7046428,19.2913387 L14.7046428,17.9625577 C14.7046428,16.5677779 13.5698959,15.433071 12.1751561,15.433071 C10.7804163,15.433071 9.64566935,16.5677779 9.64566935,17.9625577 L9.64566935,19.2913387 L5.05897347,19.2913387 L5.05897347,14.10429 C5.05897347,13.7727351 4.79017548,13.5039371 4.45862061,13.5039371 L2.52948674,13.5039371 C1.79677608,13.5039371 1.20070573,12.9078267 1.20070573,12.1751561 C1.20070573,11.4424855 1.7968161,10.8463751 2.52948674,10.8463751 L4.45862061,10.8463751 C4.79017548,10.8463751 5.05897347,10.5775771 5.05897347,10.2460222 L5.05897347,5.05897347 L10.2460222,5.05897347 C10.5775771,5.05897347 10.8463751,4.79017548 10.8463751,4.45862061 L10.8463751,2.52948674 C10.8463751,1.79677608 11.4424855,1.20070573 12.1751561,1.20070573 C12.9078267,1.20070573 13.5039371,1.7968161 13.5039371,2.52948674 L13.5039371,4.45862061 C13.5039371,4.79017548 13.7727351,5.05897347 14.10429,5.05897347 L19.2913387,5.05897347 L19.2913387,9.64566935 L17.9625977,9.64566935 C16.5677779,9.64566935 15.433071,10.7804163 15.433071,12.1751561 C15.433071,13.5698959 16.5677779,14.7046428 17.9625977,14.7046428 Z" id="Shape"></path>
                    </g>
                    <g id="plugin-copy-3" transform="translate(15.499430, 15.745134)">
                        <path d="M17.9625977,10.8463751 L19.8916916,10.8463751 C20.2232464,10.8463751 20.4920444,10.5775771 20.4920444,10.2460222 L20.4920444,4.45862061 C20.4920444,4.12706573 20.2232464,3.85826774 19.8916916,3.85826774 L14.7046428,3.85826774 L14.7046428,2.52948674 C14.7046428,1.13470694 13.5698959,0 12.1751561,0 C10.7804163,0 9.64566935,1.13474696 9.64566935,2.52948674 L9.64566935,3.85826774 L4.45862061,3.85826774 C4.12706573,3.85826774 3.85826774,4.12706573 3.85826774,4.45862061 L3.85826774,9.64566935 L2.52948674,9.64566935 C1.13474696,9.64566935 0,10.7804163 0,12.1751561 C0,13.5698959 1.13474696,14.7046428 2.52948674,14.7046428 L3.85826774,14.7046428 L3.85826774,19.8916916 C3.85826774,20.2232464 4.12706573,20.4920444 4.45862061,20.4920444 L10.2460222,20.4920444 C10.5775771,20.4920444 10.8463751,20.2232464 10.8463751,19.8916916 L10.8463751,17.9625577 C10.8463751,17.229847 11.4424855,16.6337767 12.1751561,16.6337767 C12.9078267,16.6337767 13.5039371,17.2298871 13.5039371,17.9625577 L13.5039371,19.8916916 C13.5039371,20.2232464 13.7727351,20.4920444 14.10429,20.4920444 L19.8916916,20.4920444 C20.2232464,20.4920444 20.4920444,20.2232464 20.4920444,19.8916916 L20.4920444,14.10429 C20.4920444,13.7727351 20.2232464,13.5039371 19.8916916,13.5039371 L17.9625977,13.5039371 C17.229847,13.5039371 16.6337767,12.9078267 16.6337767,12.1751561 C16.6337767,11.4424855 17.229847,10.8463751 17.9625977,10.8463751 Z M17.9625977,14.7046428 L19.2913387,14.7046428 L19.2913387,19.2913387 L14.7046428,19.2913387 L14.7046428,17.9625577 C14.7046428,16.5677779 13.5698959,15.433071 12.1751561,15.433071 C10.7804163,15.433071 9.64566935,16.5677779 9.64566935,17.9625577 L9.64566935,19.2913387 L5.05897347,19.2913387 L5.05897347,14.10429 C5.05897347,13.7727351 4.79017548,13.5039371 4.45862061,13.5039371 L2.52948674,13.5039371 C1.79677608,13.5039371 1.20070573,12.9078267 1.20070573,12.1751561 C1.20070573,11.4424855 1.7968161,10.8463751 2.52948674,10.8463751 L4.45862061,10.8463751 C4.79017548,10.8463751 5.05897347,10.5775771 5.05897347,10.2460222 L5.05897347,5.05897347 L10.2460222,5.05897347 C10.5775771,5.05897347 10.8463751,4.79017548 10.8463751,4.45862061 L10.8463751,2.52948674 C10.8463751,1.79677608 11.4424855,1.20070573 12.1751561,1.20070573 C12.9078267,1.20070573 13.5039371,1.7968161 13.5039371,2.52948674 L13.5039371,4.45862061 C13.5039371,4.79017548 13.7727351,5.05897347 14.10429,5.05897347 L19.2913387,5.05897347 L19.2913387,9.64566935 L17.9625977,9.64566935 C16.5677779,9.64566935 15.433071,10.7804163 15.433071,12.1751561 C15.433071,13.5698959 16.5677779,14.7046428 17.9625977,14.7046428 Z" id="Shape"></path>
                    </g>
                </g>
                <rect id="Rectangle-2" x="0" y="0.227364185" width="40" height="37.1428571"></rect>
            </g>
        </g>
    </g>
</svg>