<?xml version="1.0" encoding="UTF-8"?>
<svg width="18px" height="21px" viewBox="0 0 18 21" version="1.1" xmlns="http://www.w3.org/2000/svg" xmlns:xlink="http://www.w3.org/1999/xlink">
    <!-- Generator: Sketch 50.2 (55047) - http://www.bohemiancoding.com/sketch -->
    <title>sm_github@2x</title>
    <desc>Created with Sketch.</desc>
    <defs></defs>
    <g id="Showcase" stroke="none" stroke-width="1" fill="none" fill-rule="evenodd">
        <g id="Showcase-375-Menu" transform="translate(-110.000000, -544.000000)">
            <g id="sm_github" transform="translate(106.139642, 543.974734)">
                <g id="g" transform="translate(3.469286, 0.000000)" fill="#000000">
                    <path d="M18.2693475,7.48457422 C18.2750288,8.33109127 18.1630256,9.17436184 17.9365843,9.99003743 C17.7564052,10.619041 17.4609765,11.2090869 17.0640955,11.7293337 C16.6899398,12.1822163 16.2289411,12.5563719 15.7086943,12.8290754 C15.2209122,13.1139532 14.6957957,13.3290318 14.1487655,13.46863 C13.5846913,13.606605 13.012501,13.7096804 12.4354409,13.7754214 C13.0685026,14.3971204 13.3874683,15.2704209 13.3046833,16.1542723 L13.3046833,19.6783155 C13.3046833,19.823595 13.3493222,19.9656281 13.4329188,20.0841242 C12.2934079,20.4055247 11.1149393,20.5686599 9.92997773,20.5710947 C8.85133808,20.5800225 7.77675652,20.4436708 6.73382803,20.165286 C6.86287522,20.0362388 6.93673241,19.8609294 6.93835564,19.6783155 L6.93835564,17.3002762 L6.55446057,17.3773799 C6.25010401,17.4228304 5.94250098,17.440686 5.63408633,17.4285118 C5.2477564,17.4236421 4.86142647,17.3806263 4.48321272,17.3002762 C4.07172265,17.2272306 3.68458111,17.0511096 3.35831087,16.7889572 C3.02067799,16.5243699 2.76420687,16.169693 2.61649248,15.7663191 L2.43712501,15.3824241 C2.30320813,15.0805024 2.13114522,14.7972479 1.92580599,14.5383419 C1.74238044,14.2705081 1.49646034,14.0513714 1.20995936,13.8987873 L1.0817238,13.8224952 C1.00137367,13.7664936 0.932386179,13.6975061 0.877196189,13.6179676 C0.809020319,13.5538498 0.756265182,13.4743113 0.723800482,13.3866566 C0.700263575,13.3087414 0.735163127,13.2243331 0.806585467,13.1853755 C0.960792791,13.1212577 1.12717438,13.0944743 1.29355596,13.1082718 L1.62631914,13.1594037 C1.92255952,13.2413771 2.20013271,13.3793521 2.44442957,13.5652125 C2.77394628,13.7965235 3.05151946,14.0927639 3.26254001,14.4344548 C3.48573482,14.8491914 3.80064241,15.2087379 4.18291425,15.4830646 C4.50674963,15.7078827 4.88902147,15.8320602 5.28265595,15.8409879 C5.59999839,15.845046 5.91652922,15.8198859 6.22900195,15.7638843 C6.48790793,15.7176221 6.73788612,15.6315906 6.97082034,15.5082248 C7.02844519,14.8573075 7.31900425,14.249406 7.78893078,13.7949002 C7.20213133,13.7437683 6.62020159,13.6406929 6.0504461,13.4881088 C5.507474,13.337148 4.98398071,13.1220693 4.49051728,12.8485542 C3.9767634,12.566923 3.52469246,12.1838395 3.16108782,11.724464 C2.77151142,11.2017823 2.47770589,10.6141713 2.2926571,9.99003743 C2.05404156,9.1767967 1.94203834,8.33190288 1.95989393,7.48457422 C1.92661761,6.21195799 2.40466032,4.97748778 3.28607691,4.05873677 C2.87052876,2.95412536 2.91679095,1.72858294 3.41431248,0.658059465 C3.90371783,0.578520951 4.40610906,0.6596827 4.84600574,0.888558834 C5.32242521,1.06386821 5.78423557,1.27813523 6.22575548,1.52811342 C6.5325469,1.70748089 6.76304626,1.86087659 6.94160211,1.98911216 C7.98290736,1.70261118 9.05748892,1.55570841 10.1377518,1.55327356 C11.2172031,1.55327356 12.290973,1.69855309 13.330655,1.98586569 L13.9702096,1.58005694 C14.4612382,1.29193273 14.9741805,1.04357778 15.5041667,0.838238549 C15.9237729,0.629652853 16.4001924,0.567158306 16.8595679,0.658059465 C17.3570894,1.72858294 17.4041632,2.95412536 16.9878035,4.05873677 C17.827016,5.00102468 18.2839566,6.22250901 18.2693475,7.48457422" id="Fill-16"></path>
                </g>
                <rect id="Rectangle-4" x="0.226742311" y="0" width="25.4414303" height="20.8157157"></rect>
            </g>
        </g>
    </g>
</svg>