<?xml version="1.0" encoding="UTF-8"?>
<svg width="26px" height="21px" viewBox="0 0 26 21" version="1.1" xmlns="http://www.w3.org/2000/svg" xmlns:xlink="http://www.w3.org/1999/xlink">
    <!-- Generator: Sketch 50.2 (55047) - http://www.bohemiancoding.com/sketch -->
    <title>sm_medium@3x</title>
    <desc>Created with Sketch.</desc>
    <defs></defs>
    <g id="Showcase" stroke="none" stroke-width="1" fill="none" fill-rule="evenodd">
        <g id="Showcase-375-Menu" transform="translate(-175.000000, -543.000000)">
            <g id="sm_medium" transform="translate(174.779285, 543.974734)">
                <path d="M4.02770938,4.04140315 C4.05783854,3.73510214 3.94450222,3.43228347 3.72247565,3.2260998 L1.46166238,0.419332032 L1.46166238,0 L8.48147493,0 L13.9073986,12.2637933 L18.6776611,0 L25.3695727,0 L25.3695727,0.419332032 L23.4365196,2.32939669 C23.2699645,2.46027472 23.1873205,2.67545444 23.2218142,2.88831261 L23.2218142,16.9224416 C23.1873205,17.1354449 23.2699645,17.3504795 23.4365196,17.4813575 L25.324379,19.3915673 L25.324379,19.8107542 L15.8290477,19.8107542 L15.8290477,19.3915673 L17.7846272,17.4347812 C17.9768062,17.2368681 17.9768062,17.178684 17.9768062,16.8758653 L17.9768062,5.53213578 L12.5396193,19.7641779 L11.8048338,19.7641779 L5.47461298,5.53213578 L5.47461298,15.0705611 C5.42181656,15.4716108 5.5510622,15.8754174 5.82504045,16.1653224 L8.36842019,19.3448459 L8.36842019,19.7641779 L1.15642865,19.7641779 L1.15642865,19.3448459 L3.69994918,16.1653224 C3.97195636,15.874837 4.09359932,15.4684187 4.02770938,15.0705611 L4.02770938,4.04140315 Z" id="Fill-1" fill="#000000"></path>
                <rect id="Rectangle-4" x="0.542285515" y="0" width="25.4414303" height="20.8157157"></rect>
            </g>
        </g>
    </g>
</svg>