<?xml version="1.0" encoding="UTF-8"?>
<svg width="23px" height="21px" viewBox="0 0 23 21" version="1.1" xmlns="http://www.w3.org/2000/svg" xmlns:xlink="http://www.w3.org/1999/xlink">
    <!-- Generator: Sketch 50.2 (55047) - http://www.bohemiancoding.com/sketch -->
    <title>sm_telegtam@2x</title>
    <desc>Created with Sketch.</desc>
    <defs></defs>
    <g id="Showcase" stroke="none" stroke-width="1" fill="none" fill-rule="evenodd">
        <g id="Showcase-375-Menu" transform="translate(-40.000000, -544.000000)">
            <g id="sm_telegtam" transform="translate(37.500000, 543.974734)">
                <g id="Te" transform="translate(2.312857, 0.000000)" fill="#000000">
                    <path d="M3.51298853,9.71134565 L7.1745263,11.1052995 C7.43870303,11.2064736 7.63944524,11.4288959 7.7125154,11.7019053 L8.17743434,13.4628159 C8.19750856,13.2580589 8.29065294,13.0669523 8.43920217,12.9248268 L17.5930466,4.10501744 L3.51298853,9.71134565 Z M8.32277169,14.0562099 L8.9763883,16.5550488 L10.400052,15.5384903 L8.54037624,14.2746174 C8.45365561,14.2168036 8.38058545,14.1437335 8.32277169,14.0570128 L8.32277169,14.0562099 Z M12.434775,14.7973501 L17.3609886,18.1393063 L20.0204213,4.17487572 L10.4153084,13.4323031 L12.4058681,14.7828966 C12.4203215,14.7828966 12.4203215,14.798153 12.434775,14.798153 L12.434775,14.7973501 Z M17.9712449,20.4791574 C17.7953947,20.4823692 17.6235594,20.4317822 17.4774191,20.33382 L11.9409491,16.5847586 L8.9763883,18.7206557 C8.58694843,19.0016948 8.04253558,18.9149741 7.76149649,18.5255343 C7.69806196,18.4388136 7.65229274,18.3416544 7.6249918,18.2388744 L6.12906091,12.5739294 L0.796545057,10.5392065 C0.346882525,10.3609474 0.12767204,9.85106222 0.306734085,9.40139969 C0.395863622,9.17817436 0.573319729,9.00071826 0.796545057,8.91239169 L21.0514332,0.848175952 C21.1437746,0.80883048 21.2417368,0.784741416 21.3421079,0.775908759 L21.442479,0.775908759 C21.649645,0.791165166 21.8455694,0.877885797 21.9949216,1.02322315 L22.0382819,1.0657805 C22.165151,1.20630004 22.242236,1.38536208 22.2558864,1.57486272 L22.2558864,1.72020008 C22.2558864,1.74910695 22.241433,1.79246727 22.241433,1.82217712 L18.8288156,19.7813775 C18.7742137,20.0696433 18.5782893,20.3113369 18.3060829,20.4237525 C18.200091,20.4655069 18.0860694,20.4847781 17.9720479,20.4815663 L17.9712449,20.4791574 Z" id="Fill-27"></path>
                </g>
                <rect id="Rectangle-4" x="0.6674559" y="0" width="25.4414303" height="20.8157157"></rect>
            </g>
        </g>
    </g>
</svg>