<?xml version="1.0" encoding="UTF-8"?>
<svg width="20px" height="18px" viewBox="0 0 20 18" version="1.1" xmlns="http://www.w3.org/2000/svg" xmlns:xlink="http://www.w3.org/1999/xlink">
    <!-- Generator: Sketch 50.2 (55047) - http://www.bohemiancoding.com/sketch -->
    <title>sm_telegtam@2x</title>
    <desc>Created with Sketch.</desc>
    <defs></defs>
    <g id="Showcase" stroke="none" stroke-width="1" fill="none" fill-rule="evenodd">
        <g id="popup-menu" transform="translate(-72.000000, -160.000000)">
            <g id="menu" transform="translate(11.500000, 43.000000)">
                <g id="socialm" transform="translate(58.000000, 115.892857)">
                    <g id="Group-15" transform="translate(0.000000, 0.037243)">
                        <g id="Group" transform="translate(0.384766, 0.000000)">
                            <g id="sm_telegtam" transform="translate(0.422830, 0.779489)">
                                <g id="Te" transform="translate(2.000000, 0.000000)" fill="#000000">
                                    <path d="M3.03779099,8.39770412 L6.20403714,9.60309959 C6.43247902,9.69058797 6.60606707,9.88292353 6.66925313,10.1190033 L7.07128307,11.6417177 C7.08864187,11.4646579 7.16918673,11.2994021 7.29764189,11.1765017 L15.2132573,3.54973688 L3.03779099,8.39770412 Z M7.19696082,12.154844 L7.76216353,14.3156681 L8.99325003,13.4366182 L7.38513027,12.3437078 C7.31014023,12.2937145 7.24695418,12.2305284 7.19696082,12.1555384 L7.19696082,12.154844 Z M10.7527386,12.7957311 L15.0125895,15.6856251 L17.312284,3.61014553 L9.00644272,11.6153323 L10.7277419,12.7832328 C10.7402402,12.7832328 10.7402402,12.7964255 10.7527386,12.7964255 L10.7527386,12.7957311 Z M15.5402972,17.7089675 C15.388234,17.7117449 15.2396426,17.6680007 15.1132705,17.5832897 L10.3257119,14.3413592 L7.76216353,16.1883361 C7.4254027,16.4313594 6.95463189,16.3563693 6.71160861,16.0196085 C6.65675479,15.9446185 6.61717671,15.8606018 6.59356873,15.7717248 L5.29999054,10.8730698 L0.688797408,9.11358127 C0.299960161,8.95943507 0.110402004,8.51852141 0.26524255,8.12968416 C0.342315647,7.93665424 0.495767489,7.7832024 0.688797408,7.70682366 L18.2038323,0.733444256 C18.2836828,0.699420997 18.3683938,0.67859043 18.4551878,0.670952556 L18.5419818,0.670952556 C18.7211247,0.684145248 18.8905466,0.759135288 19.0196962,0.884813041 L19.0571912,0.921613709 C19.1668988,1.04312535 19.2335566,1.19796589 19.2453606,1.36183302 L19.2453606,1.48751077 C19.2453606,1.51250745 19.2328623,1.55000247 19.2328623,1.57569351 L16.2818653,17.1055754 C16.2346494,17.3548478 16.0652274,17.5638479 15.829842,17.6610572 C15.7381875,17.6971635 15.6395895,17.7138279 15.5409915,17.7110505 L15.5402972,17.7089675 Z" id="Fill-27"></path>
                                </g>
                                <rect id="Rectangle-4" x="0.577169979" y="0" width="22" height="18"></rect>
                            </g>
                        </g>
                    </g>
                </g>
            </g>
        </g>
    </g>
</svg>