<?xml version="1.0" encoding="UTF-8"?>
<svg width="24px" height="20px" viewBox="0 0 24 20" version="1.1" xmlns="http://www.w3.org/2000/svg" xmlns:xlink="http://www.w3.org/1999/xlink">
    <!-- Generator: Sketch 50.2 (55047) - http://www.bohemiancoding.com/sketch -->
    <title>sm_twitter@2x</title>
    <desc>Created with Sketch.</desc>
    <defs></defs>
    <g id="Showcase" stroke="none" stroke-width="1" fill="none" fill-rule="evenodd">
        <g id="Showcase-375-Menu" transform="translate(-247.000000, -544.000000)">
            <g id="sm_twitter" transform="translate(245.731785, 543.974734)">
                <g id="t">
                    <path d="M9.32016271,19.4857729 C16.6988942,19.5343673 22.7188871,13.5925066 22.7674815,6.21377516 C22.7684344,6.15660524 22.7684344,6.09752965 22.7674815,6.03940689 C22.7674815,5.83645366 22.7674815,5.63350044 22.7579532,5.43150004 C23.684106,4.76070627 24.4825792,3.93078955 25.1171654,2.97986316 C24.2529467,3.36099598 23.3363223,3.61254364 22.3987355,3.72593066 C23.3858695,3.13422195 24.1243144,2.20330503 24.4768622,1.10850099 C23.5488038,1.65923792 22.532132,2.04608774 21.4725828,2.25189946 C19.6869755,0.347188181 16.6960357,0.250952143 14.7913244,2.03751225 C13.8365867,2.93222155 13.2953781,4.18233721 13.2972837,5.49152846 C13.3030007,5.85265181 13.3449253,6.2118695 13.4240104,6.56441736 C9.6231633,6.37289811 6.08243937,4.57776252 3.68225542,1.62398314 C2.43309259,3.78595908 3.07434857,6.54631355 5.14771113,7.93744835 C4.39878513,7.91172189 3.66605728,7.70972149 3.00955599,7.34764531 L3.00955599,7.41243789 C3.01146165,9.66112154 4.59506853,11.5982291 6.79801625,12.0479658 C6.10435451,12.2366266 5.37639082,12.2652116 4.66938943,12.1308622 C5.28777744,14.0565358 7.06195073,15.3752554 9.08386036,15.411463 C7.41068726,16.7273241 5.34208887,17.4409953 3.21250922,17.4390896 C2.83709339,17.4409953 2.46167756,17.4190802 2.08816739,17.3742971 C4.2491905,18.753045 6.75990297,19.4857729 9.3230212,19.4848201" id="Fill-11" fill="#000000"></path>
                    <rect id="Rectangle-4-Copy" x="0.998690336" y="0" width="25.4414303" height="20.8157157"></rect>
                </g>
                <rect id="Rectangle-4" x="0.488631824" y="0" width="25.4414303" height="20.8157157"></rect>
            </g>
        </g>
    </g>
</svg>