<?xml version="1.0" encoding="UTF-8"?>
<svg width="41px" height="41px" viewBox="0 0 41 41" version="1.1" xmlns="http://www.w3.org/2000/svg" xmlns:xlink="http://www.w3.org/1999/xlink">
    <!-- Generator: Sketch 50.2 (55047) - http://www.bohemiancoding.com/sketch -->
    <title>user_icon@1x</title>
    <desc>Created with Sketch.</desc>
    <defs></defs>
    <g id="Showcase" stroke="none" stroke-width="1" fill="none" fill-rule="evenodd">
        <g id="Showcase-1366" transform="translate(-78.000000, -1138.000000)" fill="#B8B8B8" fill-rule="nonzero">
            <g id="Group-6" transform="translate(72.261719, 910.000000)">
                <g id="user_icon" transform="translate(6.013995, 228.496094)">
                    <path d="M20.1867563,0 C9.03812097,0 0.000134581964,9.03825555 0.000134581964,20.1868909 C0.000134581964,31.3352571 9.03812097,40.3741855 20.1867563,40.3741855 C31.3353916,40.3741855 40.3740509,31.3352571 40.3740509,20.1868909 C40.3740509,9.03798639 31.3353916,0 20.1867563,0 Z M20.2346081,29.7107182 L20.2346081,29.710449 L20.0868635,29.710449 L9.75248204,29.710449 C9.75248204,23.4044765 16.3900221,23.4059569 17.8629521,21.7570587 L18.0315036,21.0051492 C15.9621111,20.1300973 14.5012781,18.0203904 14.5012781,15.5529647 C14.5012781,12.3022719 17.0355177,9.66661874 20.1608971,9.66661874 C23.2862765,9.66661874 25.8205162,12.3022719 25.8205162,15.5529647 C25.8205162,17.9993956 24.3856514,20.0959135 22.3438401,20.9848274 L22.535779,21.8392882 C24.1517762,23.4082448 30.5685058,23.5105271 30.5685058,29.7107182 L20.2346081,29.7107182 Z" id="Shape"></path>
                </g>
            </g>
        </g>
    </g>
</svg>