<?xml version="1.0" encoding="UTF-8"?>
<svg width="25px" height="24px" viewBox="0 0 25 24" version="1.1" xmlns="http://www.w3.org/2000/svg" xmlns:xlink="http://www.w3.org/1999/xlink">
    <!-- Generator: Sketch 50.2 (55047) - http://www.bohemiancoding.com/sketch -->
    <title>user_icon@2x</title>
    <desc>Created with Sketch.</desc>
    <defs></defs>
    <g id="Showcase" stroke="none" stroke-width="1" fill="none" fill-rule="evenodd">
        <g id="Showcase-375" transform="translate(-31.000000, -907.000000)" fill="#B8B8B8" fill-rule="nonzero">
            <g id="Group" transform="translate(28.758472, 791.000000)">
                <g id="user_icon" transform="translate(2.801376, 116.510830)">
                    <path d="M11.8272751,0 C5.29536996,0 7.88506033e-05,5.16354966 7.88506033e-05,11.532758 C7.88506033e-05,17.9018125 5.29536996,23.0657466 11.8272751,23.0657466 C18.3591802,23.0657466 23.6548656,17.9018125 23.6548656,11.532758 C23.6548656,5.16339589 18.3591802,0 11.8272751,0 Z M11.8553111,16.9737144 L11.8553111,16.9735607 L11.7687486,16.9735607 L5.71390897,16.9735607 C5.71390897,13.3709626 9.60279587,13.3718083 10.465775,12.4297938 L10.564528,12.0002284 C9.35208589,11.5003118 8.49619435,10.2950376 8.49619435,8.88539886 C8.49619435,7.02828015 9.9809871,5.52253315 11.8121244,5.52253315 C13.6432617,5.52253315 15.1280544,7.02828015 15.1280544,8.88539886 C15.1280544,10.2830433 14.2873775,11.4807826 13.0910949,11.9886186 L13.2035506,12.4767715 C14.1503517,13.3731154 17.9098673,13.4315492 17.9098673,16.9737144 L11.8553111,16.9737144 Z" id="Shape"></path>
                </g>
            </g>
        </g>
    </g>
</svg>