<?xml version="1.0" encoding="UTF-8"?>
<svg width="47px" height="50px" viewBox="0 0 47 50" version="1.1" xmlns="http://www.w3.org/2000/svg" xmlns:xlink="http://www.w3.org/1999/xlink">
    <!-- Generator: Sketch 50.2 (55047) - http://www.bohemiancoding.com/sketch -->
    <title>Documentation@3x</title>
    <desc>Created with Sketch.</desc>
    <defs></defs>
    <g id="Page-1" stroke="none" stroke-width="1" fill="none" fill-rule="evenodd">
        <g id="Roadmap" transform="translate(-484.000000, -1259.000000)" fill="#FFFFFF" fill-rule="nonzero">
            <g id="Documentation" transform="translate(484.400000, 1259.250000)">
                <path d="M34.3162669,30.2266639 C34.3162669,29.7757525 33.9502724,29.4097581 33.4993611,29.4097581 L28.5977347,29.4097581 C28.1468234,29.4097581 27.7808289,29.7757525 27.7808289,30.2266639 C27.7808289,30.6775752 28.1468234,31.0435697 28.5977347,31.0435697 L33.4993611,31.0435697 C33.9502724,31.0436654 34.3162669,30.6776709 34.3162669,30.2266639 Z" id="Shape"></path>
                <path d="M31.0484522,8.98634687 L31.0484522,4.90162634 C31.0484522,4.45071501 30.6824577,4.08472053 30.2315463,4.08472053 C29.780635,4.08472053 29.4146405,4.45071501 29.4146405,4.90162634 L29.4146405,8.98634687 C29.4146405,11.2386059 31.2470063,13.0710674 33.4993611,13.0710674 L40.8518006,13.0710674 L40.8518006,28.5928522 C40.8518006,29.0437636 41.2177951,29.4097581 41.6687064,29.4097581 C42.1196177,29.4097581 42.4856122,29.0437636 42.4856122,28.5928522 L42.4856122,12.2540659 C42.4856122,11.8031545 42.1196177,11.43716 41.6687064,11.43716 L33.4993611,11.43716 C32.1480631,11.43716 31.0484522,10.3375491 31.0484522,8.98634687 Z" id="Shape"></path>
                <path d="M33.4992653,19.6065054 L26.9637316,19.6065054 C26.5128203,19.6065054 26.1468258,19.9724999 26.1468258,20.4234112 C26.1468258,20.8743225 26.5128203,21.240317 26.9637316,21.240317 L33.4992653,21.240317 C33.9501767,21.240317 34.3161711,20.8743225 34.3161711,20.4234112 C34.3162669,19.9724999 33.9502724,19.6065054 33.4992653,19.6065054 Z" id="Shape"></path>
                <path d="M24.5130142,20.4234112 C24.5130142,19.9724999 24.1470197,19.6065054 23.6961084,19.6065054 L18.794482,19.6065054 C18.3435707,19.6065054 17.9775762,19.9724999 17.9775762,20.4234112 C17.9775762,20.8743225 18.3435707,21.240317 18.794482,21.240317 L23.6961084,21.240317 C24.1470197,21.2404127 24.5130142,20.8744182 24.5130142,20.4234112 Z" id="Shape"></path>
                <path d="M18.7943863,24.5081317 C18.343475,24.5081317 17.9774805,24.8741262 17.9774805,25.3250375 C17.9774805,25.7759489 18.343475,26.1419433 18.7943863,26.1419433 L20.4282937,26.1419433 C20.879205,26.1419433 21.2451995,25.7759489 21.2451995,25.3250375 C21.2451995,24.8741262 20.879205,24.5081317 20.4282937,24.5081317 L18.7943863,24.5081317 Z" id="Shape"></path>
                <path d="M18.7943863,16.3387864 L26.9637316,16.3387864 C27.414643,16.3387864 27.7806374,15.9727919 27.7806374,15.5218806 C27.7806374,15.0709692 27.414643,14.7049748 26.9637316,14.7049748 L18.7943863,14.7049748 C18.343475,14.7049748 17.9774805,15.0709692 17.9774805,15.5218806 C17.9774805,15.9727919 18.343475,16.3387864 18.7943863,16.3387864 Z" id="Shape"></path>
                <path d="M23.6960126,26.1420391 L31.865358,26.1420391 C32.3162693,26.1420391 32.6822638,25.7760446 32.6822638,25.3251333 C32.6822638,24.8742219 32.3162693,24.5082274 31.865358,24.5082274 L23.6960126,24.5082274 C23.2451013,24.5082274 22.8791068,24.8742219 22.8791068,25.3251333 C22.8791068,25.7760446 23.2451013,26.1420391 23.6960126,26.1420391 Z" id="Shape"></path>
                <path d="M28.597639,34.3113844 C28.1467277,34.3113844 27.7807332,34.6773789 27.7807332,35.1282902 C27.7807332,35.5792015 28.1467277,35.945196 28.597639,35.945196 L30.2315463,35.945196 C30.6824577,35.945196 31.0484522,35.5792015 31.0484522,35.1282902 C31.0484522,34.6773789 30.6824577,34.3113844 30.2315463,34.3113844 L28.597639,34.3113844 Z" id="Shape"></path>
                <path d="M25.32992,29.4097581 L18.7943863,29.4097581 C18.343475,29.4097581 17.9774805,29.7757525 17.9774805,30.2266639 C17.9774805,30.6775752 18.343475,31.0435697 18.7943863,31.0435697 L25.32992,31.0435697 C25.7808313,31.0435697 26.1468258,30.6775752 26.1468258,30.2266639 C26.1468258,29.7757525 25.7808313,29.4097581 25.32992,29.4097581 Z" id="Shape"></path>
                <path d="M25.32992,34.3113844 L18.7943863,34.3113844 C18.343475,34.3113844 17.9774805,34.6773789 17.9774805,35.1282902 C17.9774805,35.5792015 18.343475,35.945196 18.7943863,35.945196 L25.32992,35.945196 C25.7808313,35.945196 26.1468258,35.5792015 26.1468258,35.1282902 C26.1468258,34.6773789 25.7808313,34.3113844 25.32992,34.3113844 Z" id="Shape"></path>
                <path d="M44.7803775,33.6505265 L43.1464701,32.0166191 C41.8908113,30.7609603 39.9775496,30.7634494 38.723614,32.0166191 L28.0200704,42.7201627 C27.8672775,42.8729556 27.7807332,43.0812747 27.7807332,43.2977313 L27.7807332,48.1993576 C27.7807332,48.6502689 28.1467277,49.0162634 28.597639,49.0162634 L33.4992653,49.0162634 C33.7157219,49.0162634 33.924041,48.9297191 34.0768339,48.7769262 L44.7803775,38.0733826 C46.0817976,36.7719625 46.0817976,34.9527124 44.7803775,33.6505265 Z M37.6672752,35.3832322 L38.9629512,36.6789082 L31.865358,43.7765015 L30.569682,42.4808255 L37.6672752,35.3832322 Z M29.4146405,47.3823561 L29.4146405,43.6358669 L33.1611297,47.3823561 L29.4146405,47.3823561 Z M34.3162669,46.2272189 L33.0205909,44.9315429 L40.1181841,37.8339497 L41.4138601,39.1296257 L34.3162669,46.2272189 Z M43.6252403,36.9182454 L42.5689016,37.9745842 L38.8224124,34.228095 L39.8787512,33.1717563 C40.5241001,32.5271733 41.3427291,32.5239183 41.991333,33.1717563 L43.6252403,34.8056636 C44.2860983,35.4673832 44.2860983,36.2572918 43.6252403,36.9182454 Z" id="Shape"></path>
                <path d="M25.32992,47.3823561 L4.08950728,47.3823561 C2.73830504,47.3823561 1.6386941,46.2827451 1.6386941,44.9315429 L1.6386941,4.08472053 C1.6386941,2.7335183 2.73830504,1.63390736 4.08950728,1.63390736 L29.893315,1.63390736 L37.8233231,9.56391546 C38.1426947,9.88338279 38.6590887,9.88338279 38.9784603,9.56391546 C39.2979276,9.24454387 39.2979276,8.72814988 38.9784603,8.40877828 L30.8091149,0.239337224 C30.6563221,0.085778461 30.4480029,0 30.2315463,0 L4.08950728,0 C1.83724826,0 0.00488247936,1.83236579 0.00488247936,4.08472053 L0.00488247936,44.9316386 C0.00488247936,47.1838976 1.83724826,49.0163592 4.08960301,49.0163592 L25.3300157,49.0163592 C25.7809271,49.0163592 26.1469216,48.6503647 26.1469216,48.1994534 C26.1469216,47.748542 25.7808313,47.3823561 25.32992,47.3823561 Z" id="Shape"></path>
                <path d="M25.32992,39.2130107 L18.7943863,39.2130107 C18.343475,39.2130107 17.9774805,39.5790052 17.9774805,40.0299166 C17.9774805,40.4808279 18.343475,40.8468224 18.7943863,40.8468224 L25.32992,40.8468224 C25.7808313,40.8468224 26.1468258,40.4808279 26.1468258,40.0299166 C26.1468258,39.5790052 25.7808313,39.2130107 25.32992,39.2130107 Z" id="Shape"></path>
                <path d="M14.7097615,15.5217848 C14.7097615,15.0708735 14.343767,14.704879 13.8928557,14.704879 L8.99122935,14.704879 C8.54031802,14.704879 8.17432354,15.0708735 8.17432354,15.5217848 L8.17432354,20.4234112 C8.17432354,20.8743225 8.54031802,21.240317 8.99122935,21.240317 L13.8928557,21.240317 C14.343767,21.240317 14.7097615,20.8743225 14.7097615,20.4234112 L14.7097615,15.5217848 Z M13.0758541,19.6065054 L9.80813516,19.6065054 L9.80813516,16.3387864 L13.0758541,16.3387864 L13.0758541,19.6065054 Z" id="Shape"></path>
                <path d="M8.99113362,40.8469181 L13.89276,40.8469181 C14.3436713,40.8469181 14.7096658,40.4809236 14.7096658,40.0300123 L14.7096658,35.1283859 C14.7096658,34.6774746 14.3436713,34.3114801 13.89276,34.3114801 L8.99113362,34.3114801 C8.54022229,34.3114801 8.17422781,34.6774746 8.17422781,35.1283859 L8.17422781,40.0300123 C8.17422781,40.4809236 8.54022229,40.8469181 8.99113362,40.8469181 Z M9.80813516,35.9452918 L13.0758541,35.9452918 L13.0758541,39.2130107 L9.80813516,39.2130107 L9.80813516,35.9452918 Z" id="Shape"></path>
                <path d="M10.0474724,30.8042325 C10.2010312,30.9577912 10.4093503,31.0435697 10.625041,31.0435697 C10.6520382,31.0435697 10.6781738,31.0428038 10.705937,31.0394531 C10.9493908,31.0158066 11.1691024,30.8834052 11.3047587,30.6799686 L14.5724777,25.7783422 C14.8224415,25.4025828 14.721154,24.8951879 14.3461604,24.6452241 C13.9695393,24.3943987 13.4638677,24.4965478 13.2130422,24.8715414 L10.4983837,28.9440078 L9.56870221,28.0151879 C9.24933061,27.6957206 8.73293662,27.6957206 8.41356503,28.0151879 C8.09419344,28.3346552 8.0940977,28.8509535 8.41356503,29.1703251 L10.0474724,30.8042325 Z" id="Shape"></path>
            </g>
        </g>
    </g>
</svg>