<?xml version="1.0" encoding="UTF-8"?>
<svg width="56px" height="39px" viewBox="0 0 56 39" version="1.1" xmlns="http://www.w3.org/2000/svg" xmlns:xlink="http://www.w3.org/1999/xlink">
    <!-- Generator: Sketch 50.2 (55047) - http://www.bohemiancoding.com/sketch -->
    <title>education icon@3x</title>
    <desc>Created with Sketch.</desc>
    <defs></defs>
    <g id="Page-1" stroke="none" stroke-width="1" fill="none" fill-rule="evenodd">
        <g id="Roadmap" transform="translate(-477.000000, -292.000000)" fill="#FFFFFF">
            <g id="Group-14" transform="translate(360.000000, 193.000000)">
                <g id="education-icon" transform="translate(117.570387, 98.531250)">
                    <path d="M33.5133326,33.5565307 L53.0876368,33.5565307 L51.6947181,35.0944673 L31.916891,35.0963345 C31.7507117,35.0857538 30.7853779,35.0409414 29.7434897,35.305459 C30.6515632,34.2374302 32.0034038,33.5565307 33.5133326,33.5565307 Z M23.6303318,35.0944673 L3.80022356,35.0944673 L2.40668248,33.5565307 L21.981609,33.5565307 C23.4902931,33.5565307 24.8421337,34.2368078 25.7502072,35.305459 C24.7139205,35.0409414 23.7629018,35.0857538 23.6303318,35.0944673 Z M55.4122799,0.512989142 L33.5133326,0.512989142 C31.0330909,0.512989142 28.8702704,1.89283755 27.7468484,3.9237105 C26.6246713,1.89283755 24.4612284,0.512989142 21.981609,0.512989142 L0.0826617574,0.512989142 L0.0826617574,28.8586977 L1.72142624,28.8586977 L1.72142624,2.15175362 L21.981609,2.15175362 C24.7089413,2.15175362 26.9283998,4.37058969 26.9283998,7.09854438 L26.9283998,34.1596309 C25.7203322,32.7866288 23.9508649,31.9177662 21.981609,31.9177662 L0.0826617574,31.9177662 L0.0826617574,33.5565307 L0.195315145,33.5565307 L3.07451168,36.7332318 L23.6807458,36.7313646 C24.2203617,36.6977553 25.7775925,36.7680859 26.5157523,37.4639228 C26.797697,37.7290628 26.9283998,38.0576871 26.9283998,38.4977199 L28.5671643,38.4977199 C28.5671643,38.0576871 28.6978671,37.7290628 28.9798118,37.4633004 C29.7173491,36.7680859 31.2758247,36.7002449 31.8646099,36.7332318 L52.42043,36.7332318 L55.2990041,33.5565307 L55.4122799,33.5565307 L55.4122799,4.37307927 L53.7735154,4.37307927 L53.7735154,31.9177662 L33.5133326,31.9177662 C31.5440767,31.9177662 29.7746094,32.7860064 28.5671643,34.1596309 L28.5671643,7.09854438 C28.5671643,4.37058969 30.7860003,2.15175362 33.5133326,2.15175362 L55.4122799,2.15175362 L55.4122799,0.512989142 Z" id="Fill-1"></path>
                    <polygon id="Fill-4" points="21.4732995 7.34974277 21.4732995 5.71097829 7.17627755 5.71097829 7.17627755 14.6971088 21.4732995 14.6971088 21.4732995 9.38497248 19.834535 9.38497248 19.834535 13.0583443 8.81504203 13.0583443 8.81504203 7.34974277"></polygon>
                    <polygon id="Fill-6" points="7.17652651 18.8575042 21.4735485 18.8575042 21.4735485 17.2187397 7.17652651 17.2187397"></polygon>
                    <polygon id="Fill-8" points="14.7249259 23.1918589 21.4735485 23.1918589 21.4735485 21.5530944 14.7249259 21.5530944"></polygon>
                    <polygon id="Fill-9" points="7.17652651 23.1918589 11.8513309 23.1918589 11.8513309 21.5530944 7.17652651 21.5530944"></polygon>
                    <polygon id="Fill-10" points="7.17652651 27.5255911 14.4628979 27.5255911 14.4628979 25.8868266 7.17652651 25.8868266"></polygon>
                    <polygon id="Fill-11" points="33.6824372 18.8575042 47.9794592 18.8575042 47.9794592 17.2187397 33.6824372 17.2187397"></polygon>
                    <polygon id="Fill-12" points="44.6944615 14.5225271 47.9794592 14.5225271 47.9794592 12.8837627 44.6944615 12.8837627"></polygon>
                    <polygon id="Fill-13" points="33.6824372 14.5225271 41.8202441 14.5225271 41.8202441 12.8837627 33.6824372 12.8837627"></polygon>
                    <polygon id="Fill-14" points="33.6824372 23.1918589 38.3298563 23.1918589 38.3298563 21.5530944 33.6824372 21.5530944"></polygon>
                    <polygon id="Fill-15" points="41.2034512 23.1918589 47.9794592 23.1918589 47.9794592 21.5530944 41.2034512 21.5530944"></polygon>
                    <polygon id="Fill-16" points="33.6824372 10.1881725 47.9794592 10.1881725 47.9794592 8.54940799 33.6824372 8.54940799"></polygon>
                    <polygon id="Fill-17" points="33.6824372 27.5255911 42.3312299 27.5255911 42.3312299 25.8868266 33.6824372 25.8868266"></polygon>
                </g>
            </g>
        </g>
    </g>
</svg>