<?xml version="1.0" encoding="UTF-8"?>
<svg width="40px" height="43px" viewBox="0 0 40 43" version="1.1" xmlns="http://www.w3.org/2000/svg" xmlns:xlink="http://www.w3.org/1999/xlink">
    <!-- Generator: Sketch 50.2 (55047) - http://www.bohemiancoding.com/sketch -->
    <title>calendar@3x</title>
    <desc>Created with Sketch.</desc>
    <defs></defs>
    <g id="Page-1" stroke="none" stroke-width="1" fill="none" fill-rule="evenodd">
        <g id="Roadmap" transform="translate(-485.000000, -779.000000)" fill="#FFFFFF" fill-rule="nonzero">
            <g id="Event" transform="translate(360.000000, 694.000000)">
                <g id="calendar" transform="translate(125.844974, 85.833984)">
                    <path d="M38.0713973,2.76882889 L33.2259467,2.76882889 L33.2259467,0.692207224 C33.2259467,0.309416629 32.9165301,0 32.5337395,0 L27.6882889,0 C27.3054984,0 26.9960817,0.309416629 26.9960817,0.692207224 L26.9960817,2.76882889 L11.7675228,2.76882889 L11.7675228,0.692207224 C11.7675228,0.309416629 11.4581062,0 11.0753156,0 L6.22986501,0 C5.84707442,0 5.53765779,0.309416629 5.53765779,0.692207224 L5.53765779,2.76882889 L0.692207224,2.76882889 C0.309416629,2.76882889 0,3.07824552 0,3.46103612 L0,11.0753156 L0,40.8402262 C0,41.2230168 0.309416629,41.5324334 0.692207224,41.5324334 L38.0713973,41.5324334 C38.4541879,41.5324334 38.7636045,41.2230168 38.7636045,40.8402262 L38.7636045,11.0753156 L38.7636045,3.46103612 C38.7636045,3.07824552 38.4541879,2.76882889 38.0713973,2.76882889 Z M28.3804962,1.38441445 L31.8415323,1.38441445 L31.8415323,3.46103612 L31.8415323,5.53765779 L28.3804962,5.53765779 L28.3804962,3.46103612 L28.3804962,1.38441445 Z M6.92207224,1.38441445 L10.3831084,1.38441445 L10.3831084,3.46103612 L10.3831084,5.53765779 L6.92207224,5.53765779 L6.92207224,3.46103612 L6.92207224,1.38441445 Z M1.38441445,4.15324334 L5.53765779,4.15324334 L5.53765779,6.22986501 C5.53765779,6.61265561 5.84707442,6.92207224 6.22986501,6.92207224 L11.0753156,6.92207224 C11.4581062,6.92207224 11.7675228,6.61265561 11.7675228,6.22986501 L11.7675228,4.15324334 L26.9960817,4.15324334 L26.9960817,6.22986501 C26.9960817,6.61265561 27.3054984,6.92207224 27.6882889,6.92207224 L32.5337395,6.92207224 C32.9165301,6.92207224 33.2259467,6.61265561 33.2259467,6.22986501 L33.2259467,4.15324334 L37.3791901,4.15324334 L37.3791901,10.3831084 L1.38441445,10.3831084 L1.38441445,4.15324334 Z M1.38441445,40.148019 L1.38441445,11.7675228 L37.3791901,11.7675228 L37.3791901,40.148019 L1.38441445,40.148019 Z" id="Shape"></path>
                    <path d="M24.9194601,15.9207661 L20.0740095,15.9207661 L18.689595,15.9207661 L13.8441445,15.9207661 L12.45973,15.9207661 L6.22986501,15.9207661 L6.22986501,22.1506312 L6.22986501,23.5350456 L6.22986501,28.3804962 L6.22986501,29.7649106 L6.22986501,35.9947756 L12.45973,35.9947756 L13.8441445,35.9947756 L18.689595,35.9947756 L20.0740095,35.9947756 L24.9194601,35.9947756 L26.3038745,35.9947756 L32.5337395,35.9947756 L32.5337395,29.7649106 L32.5337395,28.3804962 L32.5337395,23.5350456 L32.5337395,22.1506312 L32.5337395,15.9207661 L26.3038745,15.9207661 L24.9194601,15.9207661 Z M20.0740095,17.3051806 L24.9194601,17.3051806 L24.9194601,22.1506312 L20.0740095,22.1506312 L20.0740095,17.3051806 Z M24.9194601,28.3804962 L20.0740095,28.3804962 L20.0740095,23.5350456 L24.9194601,23.5350456 L24.9194601,28.3804962 Z M13.8441445,23.5350456 L18.689595,23.5350456 L18.689595,28.3804962 L13.8441445,28.3804962 L13.8441445,23.5350456 Z M13.8441445,17.3051806 L18.689595,17.3051806 L18.689595,22.1506312 L13.8441445,22.1506312 L13.8441445,17.3051806 Z M7.61427946,17.3051806 L12.45973,17.3051806 L12.45973,22.1506312 L7.61427946,22.1506312 L7.61427946,17.3051806 Z M7.61427946,23.5350456 L12.45973,23.5350456 L12.45973,28.3804962 L7.61427946,28.3804962 L7.61427946,23.5350456 Z M12.45973,34.6103612 L7.61427946,34.6103612 L7.61427946,29.7649106 L12.45973,29.7649106 L12.45973,34.6103612 Z M18.689595,34.6103612 L13.8441445,34.6103612 L13.8441445,29.7649106 L18.689595,29.7649106 L18.689595,34.6103612 Z M24.9194601,34.6103612 L20.0740095,34.6103612 L20.0740095,29.7649106 L24.9194601,29.7649106 L24.9194601,34.6103612 Z M31.1493251,34.6103612 L26.3038745,34.6103612 L26.3038745,29.7649106 L31.1493251,29.7649106 L31.1493251,34.6103612 Z M31.1493251,28.3804962 L26.3038745,28.3804962 L26.3038745,23.5350456 L31.1493251,23.5350456 L31.1493251,28.3804962 Z M31.1493251,17.3051806 L31.1493251,22.1506312 L26.3038745,22.1506312 L26.3038745,17.3051806 L31.1493251,17.3051806 Z" id="Shape"></path>
                </g>
            </g>
        </g>
    </g>
</svg>