<?xml version="1.0" encoding="UTF-8"?>
<svg width="18px" height="22px" viewBox="0 0 18 22" version="1.1" xmlns="http://www.w3.org/2000/svg" xmlns:xlink="http://www.w3.org/1999/xlink">
    <!-- Generator: Sketch 50.2 (55047) - http://www.bohemiancoding.com/sketch -->
    <title>github@3x</title>
    <desc>Created with Sketch.</desc>
    <defs></defs>
    <g id="Page-1" stroke="none" stroke-width="1" fill="none" fill-rule="evenodd">
        <g id="Hover" transform="translate(-194.000000, -579.000000)" fill="#000000" fill-rule="nonzero">
            <g id="Group-14" transform="translate(186.531250, 571.125000)">
                <g id="github" transform="translate(8.000000, 8.000000)">
                    <path d="M16.8595012,8.80583861 C16.9383902,8.31275101 16.987607,7.77210094 17,7.16585503 C16.9952471,4.56632947 15.7354667,3.64649599 15.4930697,3.21527469 C15.8500689,1.24564463 15.4339474,0.349724016 15.2404118,0.0430251048 C14.5265911,-0.207248227 12.7569197,0.688979522 11.7899968,1.31988419 C10.2135056,0.864047999 6.88191267,0.908539086 5.63252644,1.43786894 C3.32733401,-0.192593372 2.10810859,0.0560126409 2.10810859,0.0560126409 C2.10810859,0.0560126409 1.31988522,1.45217278 1.89973689,3.49468223 C1.14127456,4.44939776 0.575948062,5.12439863 0.575948062,6.9148358 C0.575948062,7.34364387 0.602910676,7.74884623 0.648662723,8.1386917 C1.30185092,11.531159 4.02320931,12.9947139 6.69637258,13.2470933 C6.29410992,13.5490097 5.81118152,14.1203735 5.74437465,14.7824307 C5.23892559,15.1052324 4.2222085,15.2119408 3.43158648,14.9664062 C2.3238095,14.6206569 1.89973689,12.4537567 0.240803216,12.7628688 C-0.118150463,12.8292106 -0.0468128057,13.063074 0.264034595,13.2624502 C0.769439242,13.5862611 1.24543821,13.988787 1.61234297,14.8501326 C1.89414004,15.5114439 2.48682893,16.6921689 4.36070839,16.6921689 C5.10460113,16.6921689 5.62564143,16.6053367 5.62564143,16.6053367 C5.62564143,16.6053367 5.63981124,18.2904695 5.63981124,18.9477003 C5.63981124,19.7040488 4.60643686,19.9164125 4.60643686,20.2792738 C4.60643686,20.4235846 4.94846672,20.4372742 5.22333435,20.4372742 C5.76653996,20.4372742 6.89674877,19.990345 6.89674877,19.2042041 C6.89674877,18.57953 6.90683199,16.4802878 6.90683199,16.112644 C6.90683199,15.3093912 7.34263134,15.0536333 7.34263134,15.0536333 C7.34263134,15.0536333 7.39597912,19.3415824 7.23775699,19.9164564 C7.05221689,20.5925103 6.71609482,20.496464 6.71609482,20.7973273 C6.71609482,21.2463187 8.07484177,20.9071071 8.52552164,19.9243104 C8.87417,19.1566856 8.71803559,14.9517075 8.71803559,14.9517075 L9.08152005,14.9438974 C9.08152005,14.9438974 9.08569548,16.8697384 9.07316919,17.7495562 C9.06006545,18.6608337 8.96487454,19.8128633 9.51283303,20.3565847 C9.87249742,20.7141807 10.9743666,21.341663 10.9743666,20.768237 C10.9743666,20.435914 10.2027561,20.161289 10.2027561,19.2609369 L10.2027561,15.1133496 C10.6715147,15.1133496 10.7683936,16.4766899 10.7683936,16.4766899 L10.9373652,19.0095666 C10.9373652,19.0095666 10.8251616,19.9338316 11.9481745,20.3195527 C12.3446182,20.4567116 13.192719,20.4940069 13.2324744,20.2637853 C13.2723187,20.0329932 12.211271,19.6917194 12.2011878,18.9763519 C12.1957242,18.5406551 12.2209544,18.2856431 12.2209544,16.3905159 C12.2209544,14.4964417 11.963366,13.7957729 11.0657375,13.2373966 C13.6687624,12.9735214 16.3724418,11.8252214 16.8595012,8.80583861 Z" id="Shape"></path>
                </g>
            </g>
        </g>
    </g>
</svg>