<?xml version="1.0" encoding="UTF-8"?>
<svg width="18px" height="17px" viewBox="0 0 18 17" version="1.1" xmlns="http://www.w3.org/2000/svg" xmlns:xlink="http://www.w3.org/1999/xlink">
    <!-- Generator: Sketch 50.2 (55047) - http://www.bohemiancoding.com/sketch -->
    <title>link-symbol@3x</title>
    <desc>Created with Sketch.</desc>
    <defs></defs>
    <g id="Page-1" stroke="none" stroke-width="1" fill="none" fill-rule="evenodd">
        <g id="Hover" transform="translate(-195.000000, -409.000000)" fill="#000000" fill-rule="nonzero">
            <g id="Group-7" transform="translate(186.531250, 400.125000)">
                <g id="link-symbol" transform="translate(9.000000, 9.000000)">
                    <path d="M15.6788525,7.24938448 L12.4875508,10.2519691 C10.7262067,11.9106777 7.86885822,11.9106777 6.10721657,10.2519691 C5.82972825,9.99153995 5.61264758,9.69809766 5.42201385,9.39548312 L6.90482809,8.00000438 C6.97531608,7.9331029 7.06235665,7.89476845 7.14552875,7.84960733 C7.2480432,8.17924853 7.42699713,8.4913154 7.70243962,8.75058927 C8.58207015,9.57913836 10.013404,9.57798308 10.8925138,8.75058927 L14.0828111,5.74807466 C14.9631111,4.91963059 14.9631111,3.57281383 14.0828111,2.74499992 C13.2036641,1.91718601 11.7727022,1.91718601 10.8925138,2.74499992 L9.75804778,3.81388322 C8.83742635,3.47650511 7.845573,3.38579777 6.88001781,3.51897057 L9.29747669,1.24379513 C11.0598623,-0.414598377 13.9164669,-0.414598377 15.6788525,1.24379513 C17.4403825,2.90211862 17.4403825,5.59109599 15.6788525,7.24938448 Z M7.24246368,12.1866507 L6.10717937,13.255534 C5.22762324,14.0829278 3.796215,14.0829278 2.91651008,13.255534 C2.03687956,12.4269849 2.03687956,11.0801681 2.91651008,10.2519691 L6.10717937,7.24938448 C6.98744224,6.42101043 8.41788336,6.42101043 9.29743949,7.24938448 C9.57224964,7.50809821 9.75138955,7.82009506 9.85487112,8.14931616 C9.93852678,8.10355988 10.0244886,8.06638073 10.0949394,7.99996937 L11.5776421,6.60505076 C11.3882358,6.30124592 11.1700393,6.0088539 10.8924394,5.74814468 C9.13124408,4.08975117 6.27363516,4.08975117 4.51158435,5.74814468 L1.32139862,8.75076431 C-0.440466208,10.4096479 -0.440466208,13.0978551 1.32139862,14.7565987 C3.08344944,16.4144671 5.94038881,16.4144671 7.70240242,14.7565987 L10.1204936,12.4809332 C9.1544177,12.6148761 8.16230397,12.5233986 7.24246368,12.1866507 Z" id="Shape"></path>
                </g>
            </g>
        </g>
    </g>
</svg>