<?xml version="1.0" encoding="UTF-8"?>
<svg width="236px" height="68px" viewBox="0 0 236 68" version="1.1" xmlns="http://www.w3.org/2000/svg" xmlns:xlink="http://www.w3.org/1999/xlink">
    <!-- Generator: Sketch 50 (54983) - http://www.bohemiancoding.com/sketch -->
    <title>Page 1@3x</title>
    <desc>Created with Sketch.</desc>
    <defs>
        <polygon id="path-1" points="0 67.5297422 235.98 67.5297422 235.98 -0.000302222222 0 -0.000302222222"></polygon>
    </defs>
    <g id="LP3" stroke="none" stroke-width="1" fill="none" fill-rule="evenodd">
        <g id="LP3-1366" transform="translate(-200.000000, -79.000000)">
            <g id="Nav" transform="translate(200.000000, 79.000000)">
                <g id="Page-1">
                    <path d="M95.3931,11.2115378 L106.6506,11.2115378 C107.2401,11.2115378 107.7996,11.35056 108.3321,11.6270933 C108.8646,11.9051378 109.3296,12.2798933 109.7286,12.7483378 C110.1276,13.2167822 110.4456,13.7774044 110.6841,14.4271822 C110.9211,15.0784711 111.0396,15.7766044 111.0396,16.5230933 C111.0396,17.1925156 110.9256,17.8286933 110.6976,18.4316267 C110.4696,19.0360711 110.1561,19.5710044 109.7571,20.04096 C109.3581,20.5094044 108.8976,20.8826489 108.3756,21.1591822 C107.8521,21.4372267 107.2971,21.5762489 106.7076,21.5762489 L103.7151,21.5762489 L103.7151,19.7674489 L106.3656,19.7674489 C106.8216,19.7674489 107.2116,19.6631822 107.5341,19.4516267 C107.8581,19.2415822 108.1281,18.9741156 108.3471,18.6477156 C108.5646,18.3228267 108.7221,17.9692267 108.8166,17.5854044 C108.9126,17.2030933 108.9591,16.8389156 108.9591,16.4943822 C108.9591,16.1120711 108.8976,15.7146489 108.7746,15.3036267 C108.6501,14.8910933 108.4746,14.5178489 108.2466,14.1823822 C108.0186,13.8484267 107.7381,13.5718933 107.4066,13.3512711 C107.0736,13.1306489 106.6986,13.0203378 106.2801,13.0203378 L97.3881,13.0203378 L97.3881,29.1272711 L95.3931,29.1272711 L95.3931,11.2115378 Z" id="Fill-1" fill="#000000"></path>
                    <path d="M116.4831,22.9116178 C116.8626,23.7623733 117.3756,24.5149067 118.0221,25.1646844 C118.6686,25.8159733 119.4231,26.3327733 120.2886,26.7165956 C121.1526,27.0989067 122.0691,27.2893067 123.0381,27.2893067 C124.0071,27.2893067 124.9236,27.0989067 125.7891,26.7165956 C126.6531,26.3327733 127.4136,25.8159733 128.0691,25.1646844 C128.7246,24.5149067 129.2421,23.7623733 129.6216,22.9116178 C130.0026,22.0608622 130.1916,21.1557067 130.1916,20.1991733 C130.1916,19.2607733 130.0026,18.3556178 129.6216,17.4852178 C129.2421,16.6148178 128.7291,15.8532178 128.0826,15.2019289 C127.4376,14.5521511 126.6816,14.0308178 125.8176,13.6379289 C124.9521,13.2465511 124.0356,13.0485956 123.0666,13.0485956 C122.0976,13.0485956 121.1766,13.2465511 120.3021,13.6379289 C119.4276,14.0308178 118.6686,14.5521511 118.0221,15.2019289 C117.3756,15.8532178 116.8626,16.6148178 116.4831,17.4852178 C116.1036,18.3556178 115.9131,19.2607733 115.9131,20.1991733 C115.9131,21.1557067 116.1036,22.0608622 116.4831,22.9116178 M114.7161,16.6525956 C115.1916,15.5509956 115.8321,14.5959733 116.6406,13.7814844 C117.4476,12.9669956 118.4016,12.3217511 119.5041,11.8427289 C120.6066,11.3652178 121.7841,11.1249511 123.0381,11.1249511 C124.2921,11.1249511 125.4711,11.3652178 126.5721,11.8427289 C127.6746,12.3217511 128.6286,12.9669956 129.4371,13.7814844 C130.2441,14.5959733 130.8861,15.5509956 131.3601,16.6525956 C131.8356,17.7526844 132.0741,18.9253067 132.0741,20.1704622 C132.0741,21.4141067 131.8356,22.5867289 131.3601,23.6868178 C130.8861,24.7869067 130.2441,25.7449511 129.4371,26.5579289 C128.6286,27.3724178 127.6746,28.0176622 126.5721,28.4951733 C125.4711,28.9741956 124.2921,29.2129511 123.0381,29.2129511 C121.7841,29.2129511 120.6066,28.9741956 119.5041,28.4951733 C118.4016,28.0176622 117.4476,27.3724178 116.6406,26.5579289 C115.8321,25.7449511 115.1916,24.7869067 114.7161,23.6868178 C114.2406,22.5867289 114.0036,21.4141067 114.0036,20.1704622 C114.0036,18.9253067 114.2406,17.7526844 114.7161,16.6525956" id="Fill-3" fill="#000000"></path>
                    <path d="M143.92845,19.7676 L146.66445,19.7676 C147.12045,19.7676 147.51045,19.6633333 147.83295,19.4517778 C148.15545,19.2417333 148.42695,18.9742667 148.64595,18.6478667 C148.86345,18.3214667 149.02095,17.9693778 149.11545,17.5855556 C149.20995,17.2032444 149.25795,16.8390667 149.25795,16.4945333 C149.25795,16.1122222 149.19645,15.7148 149.07345,15.3022667 C148.94895,14.8912444 148.77345,14.518 148.54545,14.1825333 C148.31745,13.8485778 148.03695,13.5705333 147.70545,13.3499111 C147.37245,13.1308 146.99745,13.0204889 146.57895,13.0204889 L137.68695,13.0204889 L137.68695,29.1274222 L135.69195,29.1274222 L135.69195,11.2116889 L146.94945,11.2116889 C147.53895,11.2116889 148.09845,11.3507111 148.63095,11.6272444 C149.16345,11.9052889 149.62845,12.2785333 150.02745,12.7469778 C150.42645,13.2169333 150.74445,13.7775556 150.98295,14.4273333 C151.21995,15.0771111 151.33845,15.7767556 151.33845,16.5232444 C151.33845,17.1926667 151.22445,17.8288444 150.99645,18.4317778 C150.76845,19.0362222 150.45945,19.5711556 150.07095,20.0411111 C149.68095,20.5095556 149.22495,20.8828 148.70295,21.1593333 C148.17945,21.4373778 147.62445,21.5764 147.03495,21.5764 L150.82545,29.1274222 L148.68795,29.1274222 L143.92845,19.7676 Z" id="Fill-5" fill="#000000"></path>
                    <polygon id="Fill-7" fill="#000000" points="170.12055 11.2115378 170.12055 13.0203378 163.33755 13.0203378 163.33755 29.1272711 161.34255 29.1272711 161.34255 13.0203378 154.58805 13.0203378 154.58805 11.2115378"></polygon>
                    <polygon id="Fill-9" fill="#000000" points="187.6761 29.1272711 185.4531 29.1272711 178.2711 14.5707378 172.0866 27.3184711 180.4656 27.3184711 181.6911 29.1272711 168.9516 29.1272711 178.2711 10.2640711"></polygon>
                    <polygon id="Fill-11" fill="#000000" points="190.86795 29.1272711 190.86795 11.2115378 192.86295 11.2115378 192.86295 27.3184711 204.40545 27.3184711 204.40545 29.1272711"></polygon>
                    <polygon id="Fill-13" fill="#000000" points="95.38935 56.2275378 95.38935 38.3118044 98.72385 38.3118044 109.98135 54.5335822 109.98135 38.3118044 111.97635 38.3118044 111.97635 56.2275378 108.84135 56.2275378 97.38435 39.9770489 97.38435 56.2275378"></polygon>
                    <mask id="mask-2" fill="white">
                        <use xlink:href="#path-1"></use>
                    </mask>
                    <g id="Clip-16"></g>
                    <path d="M120.7545,48.67712 L129.276,48.67712 L129.276,46.86832 L120.7545,46.86832 L120.7545,48.67712 Z M115.9665,56.2281422 L115.9665,38.3124089 L129.504,38.3124089 L129.504,40.1196978 L117.9615,40.1196978 L117.9615,54.4193422 L129.504,54.4193422 L129.504,56.2281422 L115.9665,56.2281422 Z" id="Fill-15" fill="#000000" mask="url(#mask-2)"></path>
                    <polygon id="Fill-17" fill="#000000" mask="url(#mask-2)" points="148.9404 38.3119556 148.9404 40.1207556 142.1574 40.1207556 142.1574 56.2276889 140.1624 56.2276889 140.1624 40.1207556 133.4079 40.1207556 133.4079 38.3119556"></polygon>
                    <polygon id="Fill-18" fill="#000000" mask="url(#mask-2)" points="154.84005 38.3119556 154.84005 54.5911556 163.36155 37.3644889 172.02555 54.7347111 172.02555 38.3119556 174.02055 38.3119556 174.02055 56.2276889 170.54355 56.2276889 163.36155 41.5850222 156.26505 56.2276889 152.84505 56.2276889 152.84505 38.3119556"></polygon>
                    <path d="M180.1197,50.0120356 C180.4992,50.8627911 181.0122,51.6153244 181.6587,52.2651022 C182.3052,52.9163911 183.0597,53.4331911 183.9237,53.8170133 C184.7892,54.1993244 185.7057,54.3897244 186.6747,54.3897244 C187.6437,54.3897244 188.5587,54.1993244 189.4257,53.8170133 C190.2897,53.4331911 191.0502,52.9163911 191.7042,52.2651022 C192.3612,51.6153244 192.8772,50.8627911 193.2582,50.0120356 C193.6377,49.16128 193.8282,48.2561244 193.8282,47.29808 C193.8282,46.3611911 193.6377,45.4560356 193.2582,44.5856356 C192.8772,43.7152356 192.3657,42.9536356 191.7192,42.3023467 C191.0727,41.6525689 190.3167,41.1312356 189.4527,40.7383467 C188.5887,40.3469689 187.6722,40.1490133 186.7032,40.1490133 C185.7342,40.1490133 184.8117,40.3469689 183.9387,40.7383467 C183.0642,41.1312356 182.3052,41.6525689 181.6587,42.3023467 C181.0122,42.9536356 180.4992,43.7152356 180.1197,44.5856356 C179.7387,45.4560356 179.5497,46.3611911 179.5497,47.29808 C179.5497,48.2561244 179.7387,49.16128 180.1197,50.0120356 M178.3527,43.7530133 C178.8267,42.6514133 179.4687,41.69488 180.2757,40.8819022 C181.0842,40.0674133 182.0382,39.4221689 183.1407,38.9431467 C184.2432,38.4656356 185.4207,38.2253689 186.6747,38.2253689 C187.9287,38.2253689 189.1062,38.4656356 190.2087,38.9431467 C191.3097,39.4221689 192.2652,40.0674133 193.0722,40.8819022 C193.8792,41.69488 194.5212,42.6514133 194.9952,43.7530133 C195.4722,44.8531022 195.7092,46.0257244 195.7092,47.2693689 C195.7092,48.5145244 195.4722,49.6871467 194.9952,50.7872356 C194.5212,51.8873244 193.8792,52.8453689 193.0722,53.6583467 C192.2652,54.4713244 191.3097,55.11808 190.2087,55.5955911 C189.1062,56.0746133 187.9287,56.3133689 186.6747,56.3133689 C185.4207,56.3133689 184.2432,56.0746133 183.1407,55.5955911 C182.0382,55.11808 181.0842,54.4713244 180.2757,53.6583467 C179.4687,52.8453689 178.8267,51.8873244 178.3527,50.7872356 C177.8772,49.6871467 177.6402,48.5145244 177.6402,47.2693689 C177.6402,46.0257244 177.8772,44.8531022 178.3527,43.7530133" id="Fill-19" fill="#000000" mask="url(#mask-2)"></path>
                    <path d="M207.56415,46.8680178 L210.30015,46.8680178 C210.75615,46.8680178 211.14615,46.76224 211.47015,46.5521956 C211.79115,46.3421511 212.06265,46.0746844 212.28165,45.7482844 C212.49915,45.4218844 212.65665,45.0697956 212.75115,44.6859733 C212.84565,44.3036622 212.89515,43.9394844 212.89515,43.5949511 C212.89515,43.21264 212.83215,42.8152178 212.70915,42.4026844 C212.58615,41.9916622 212.40915,41.6184178 212.18115,41.2829511 C211.95315,40.9489956 211.67265,40.6709511 211.34115,40.4503289 C211.00815,40.2312178 210.63315,40.1209067 210.21615,40.1209067 L201.32265,40.1209067 L201.32265,56.22784 L199.32765,56.22784 L199.32765,38.3121067 L210.58665,38.3121067 C211.17465,38.3121067 211.73415,38.4511289 212.26815,38.7276622 C212.79915,39.0057067 213.26415,39.3789511 213.66315,39.8473956 C214.06215,40.3173511 214.38015,40.8764622 214.61865,41.5277511 C214.85565,42.1775289 214.97415,42.8771733 214.97415,43.6236622 C214.97415,44.2930844 214.86015,44.9292622 214.63215,45.5321956 C214.40565,46.1351289 214.09515,46.6715733 213.70665,47.1400178 C213.31665,47.6099733 212.86065,47.9832178 212.33865,48.2597511 C211.81515,48.5377956 211.26015,48.6768178 210.67065,48.6768178 L214.46265,56.22784 L212.32365,56.22784 L207.56415,46.8680178 Z" id="Fill-20" fill="#000000" mask="url(#mask-2)"></path>
                    <path d="M235.97925,38.3119556 L231.61875,47.3559556 L235.97925,56.2276889 L233.81325,56.2276889 L229.39575,47.3559556 L233.81325,38.3119556 L235.97925,38.3119556 Z M218.73675,56.2276889 L218.73675,38.3119556 L220.73175,38.3119556 L220.73175,46.4372 L226.77375,46.4372 L226.77375,48.246 L220.73175,48.246 L220.73175,56.2276889 L218.73675,56.2276889 Z" id="Fill-21" fill="#000000" mask="url(#mask-2)"></path>
                    <path d="M53.2188,58.9635556 C58.6293,58.9635556 62.9808,57.2514667 65.8023,54.0101333 C68.5683,50.8352889 69.6303,46.4848 68.8743,41.4331556 C68.7963,40.9148444 68.2533,40.3587556 67.6608,40.1940444 C67.0683,40.0278222 66.6513,40.3149333 66.7278,40.8332444 C67.4253,45.4889778 66.4458,49.4979556 63.8958,52.4264889 C61.2963,55.4109333 57.2853,56.9900444 52.2978,56.9900444 C46.2798,56.9900444 39.4998,54.6674667 33.2103,50.4499556 C32.6448,50.0706667 32.0298,50.0812444 31.8363,50.4726222 C31.6413,50.864 31.9428,51.4880889 32.5083,51.8673778 C39.3333,56.4430222 46.6878,58.9635556 53.2188,58.9635556" id="Fill-22" fill="#000000" mask="url(#mask-2)"></path>
                    <path d="M67.0974,37.9016889 C67.1439,37.9062222 67.1874,37.9092444 67.2294,37.9092444 C67.7139,37.9092444 67.9659,37.5480889 67.7979,37.0509333 C67.4334,35.9689778 66.9894,34.8628444 66.4764,33.7642667 C66.2229,33.2187556 65.5779,32.7775111 65.0364,32.7775111 C64.4964,32.7775111 64.2624,33.2187556 64.5174,33.7642667 C64.9899,34.7782222 65.4009,35.7982222 65.7369,36.7955556 C65.9184,37.3350222 66.5289,37.8306667 67.0974,37.9016889" id="Fill-23" fill="#000000" mask="url(#mask-2)"></path>
                    <path d="M16.24095,26.9704622 C15.48045,22.3132178 16.44495,18.1289511 18.95745,15.1883289 C21.55395,12.1464622 25.59045,10.53864 30.62895,10.53864 C36.92745,10.53864 43.98045,13.0501067 50.48895,17.6091289 C51.04845,18.0005067 51.67245,18.0095733 51.88395,17.6317956 C52.09545,17.2525067 51.81495,16.6269067 51.25545,16.2355289 C44.19345,11.2896622 36.54045,8.56512889 29.70795,8.56512889 C24.24045,8.56512889 19.86195,10.3104622 17.04495,13.6092178 C14.31945,16.8006844 13.27245,21.3400622 14.09745,26.3947289 C14.18295,26.9145511 14.73195,27.4676178 15.32445,27.6262844 C15.43245,27.6549956 15.53595,27.6685956 15.63045,27.6685956 C16.05045,27.6685956 16.30995,27.3950844 16.24095,26.9704622" id="Fill-24" fill="#000000" mask="url(#mask-2)"></path>
                    <path d="M15.8286,29.6274489 C15.2586,29.5579378 14.9451,29.9387378 15.1281,30.4782044 C15.4926,31.56016 15.9366,32.6662933 16.4496,33.7648711 C16.7031,34.3103822 17.3481,34.7516267 17.8896,34.7516267 C18.4311,34.7516267 18.6636,34.3103822 18.4086,33.7648711 C17.9361,32.7509156 17.5251,31.7324267 17.1891,30.7335822 C17.0076,30.1941156 16.3971,29.6984711 15.8286,29.6274489" id="Fill-25" fill="#000000" mask="url(#mask-2)"></path>
                    <path d="M24.62715,6.63831111 C24.67515,6.63831111 24.72165,6.63528889 24.76665,6.62773333 C26.00115,6.42977778 27.31215,6.32853333 28.66365,6.32853333 C29.20515,6.32853333 29.43765,5.88577778 29.18265,5.34177778 C28.92915,4.79626667 28.28415,4.35502222 27.74265,4.35502222 C26.29515,4.35502222 24.89115,4.46231111 23.56815,4.67537778 C23.07015,4.75546667 22.93515,5.25715556 23.26665,5.79662222 C23.56665,6.28622222 24.15015,6.63831111 24.62715,6.63831111" id="Fill-26" fill="#000000" mask="url(#mask-2)"></path>
                    <path d="M9.95235,15.8474756 C8.41485,21.0230311 9.21585,27.2185867 12.26985,33.76472 C15.95835,41.6723644 22.49235,49.0934311 30.66735,54.6603644 C30.94635,54.8507644 31.24035,54.9459644 31.48935,54.9459644 C31.74135,54.9459644 31.94835,54.8477422 32.04885,54.6528089 C32.24985,54.2659644 31.95435,53.6403644 31.39035,53.2565422 C23.76585,48.0643644 17.67135,41.1419644 14.22885,33.76472 C11.38035,27.65832 10.63335,21.87832 12.06735,17.0518311 C13.45635,12.3749422 16.90185,8.92809778 21.76935,7.34445333 C22.22235,7.19636444 22.27185,6.65236444 21.88185,6.12800889 C21.49035,5.60365333 20.80635,5.29689778 20.35485,5.44347556 C15.13635,7.14196444 11.44185,10.8366311 9.95235,15.8474756" id="Fill-27" fill="#000000" mask="url(#mask-2)"></path>
                    <path d="M58.1589,60.9011022 C56.9244,61.0990578 55.6134,61.2003022 54.2619,61.2003022 C53.7219,61.2003022 53.4894,61.6415467 53.7429,62.1870578 C53.9979,62.7325689 54.6414,63.1738133 55.1829,63.1738133 C56.6304,63.1738133 58.0344,63.0665244 59.3574,62.8534578 C59.8554,62.7733689 59.9904,62.27168 59.6589,61.7322133 C59.3289,61.1927467 58.6569,60.8210133 58.1589,60.9011022" id="Fill-28" fill="#000000" mask="url(#mask-2)"></path>
                    <path d="M73.06155,51.374 C74.47605,46.2604 73.64505,40.1706222 70.65555,33.7650222 C66.96705,25.8573778 60.43455,18.4378222 52.26255,12.8724 C51.69855,12.4885778 51.07905,12.4916 50.87955,12.8784444 C50.68005,13.2652889 50.97405,13.8893778 51.53655,14.2732 C59.16105,19.4653778 65.25555,26.3877778 68.69655,33.7650222 C71.48505,39.7414667 72.26055,45.4217333 70.94055,50.1908 C69.66405,54.8057333 66.40455,58.2797778 61.76055,59.9752444 C61.31805,60.1369333 61.28805,60.69 61.69005,61.2113333 C62.01855,61.6344444 62.53155,61.9064444 62.95005,61.9064444 C63.04605,61.9064444 63.13755,61.8913333 63.22005,61.8611111 C68.19855,60.0432444 71.69355,56.3183556 73.06155,51.374" id="Fill-29" fill="#000000" mask="url(#mask-2)"></path>
                    <path d="M10.0512,33.7645689 C9.7977,33.2190578 9.1527,32.7778133 8.6112,32.7778133 C8.0697,32.7778133 7.8372,33.2190578 8.0922,33.7645689 C11.3832,40.8169244 16.6767,47.5685689 23.4012,53.2881244 C23.7192,53.5586133 24.0867,53.7021689 24.3927,53.7021689 C24.5892,53.7021689 24.7617,53.6417244 24.8757,53.5178133 C25.1682,53.20048 24.9822,52.5854578 24.4602,52.1411911 C18.1317,46.7586133 13.1487,40.4043911 10.0512,33.7645689" id="Fill-30" fill="#000000" mask="url(#mask-2)"></path>
                    <path d="M33.882,58.7739111 C31.893,57.6345333 29.931,56.3561333 28.05,54.978 C27.4995,54.5730222 26.865,54.5412889 26.634,54.9069778 C26.403,55.2726667 26.664,55.8967556 27.2145,56.3017333 C29.2125,57.766 31.296,59.1214667 33.408,60.3333778 C33.6525,60.4724 33.894,60.5404 34.104,60.5404 C34.3965,60.5404 34.6245,60.4089333 34.701,60.1580889 C34.8315,59.7274222 34.4655,59.1078667 33.882,58.7739111" id="Fill-31" fill="#000000" mask="url(#mask-2)"></path>
                    <path d="M56.2254,65.4085956 C50.4969,65.4085956 44.1594,63.8400622 37.8984,60.8752622 C37.3044,60.5926844 36.7719,60.7422844 36.7104,61.2092178 C36.6474,61.6761511 37.0794,62.2821067 37.6749,62.5646844 C44.3274,65.7168622 51.0609,67.3821067 57.1464,67.3821067 C57.6879,67.3821067 57.9204,66.9408622 57.6654,66.3953511 C57.4119,65.84984 56.7669,65.4085956 56.2254,65.4085956" id="Fill-32" fill="#000000" mask="url(#mask-2)"></path>
                    <path d="M63.9897,20.7038844 C67.7607,24.8171289 70.7502,29.2099289 72.8742,33.7644178 C73.1292,34.3084178 73.7727,34.7511733 74.3142,34.7511733 C74.8557,34.7511733 75.0882,34.3084178 74.8332,33.7644178 C72.5772,28.9273511 69.4002,24.2595289 65.3937,19.8878844 C61.5222,15.66584 57.0837,11.9424622 52.1997,8.82050667 C51.6282,8.45481778 51.0222,8.48655111 50.8482,8.89152889 C50.6742,9.29499556 50.9967,9.91908444 51.5682,10.2847733 C56.1672,13.2238844 60.3462,16.7296622 63.9897,20.7038844" id="Fill-33" fill="#000000" mask="url(#mask-2)"></path>
                    <path d="M42.4719,5.52280889 C44.2134,6.24058667 45.9669,7.07320889 47.6844,7.99952 C47.9139,8.12343111 48.1419,8.18387556 48.3384,8.18387556 C48.6444,8.18387556 48.8784,8.04032 48.9429,7.76983111 C49.0509,7.32707556 48.6624,6.71054222 48.0744,6.39320889 C46.2504,5.41098667 44.3859,4.52547556 42.5364,3.76236444 C41.9394,3.51605333 41.4399,3.70947556 41.4219,4.19605333 C41.4054,4.68263111 41.8749,5.27649778 42.4719,5.52280889" id="Fill-34" fill="#000000" mask="url(#mask-2)"></path>
                    <path d="M26.7006,2.12054222 C30.1701,2.12054222 33.8451,2.68720889 37.6191,3.80240889 C37.7406,3.83867556 37.8546,3.85529778 37.9596,3.85529778 C38.3676,3.85529778 38.6271,3.59840889 38.5746,3.18738667 C38.5086,2.67058667 37.9731,2.10996444 37.3791,1.93467556 C33.3681,0.748453333 29.4651,0.147031111 25.7796,0.147031111 C25.2381,0.147031111 25.0056,0.588275556 25.2606,1.13378667 C25.5141,1.67929778 26.1591,2.12054222 26.7006,2.12054222" id="Fill-35" fill="#000000" mask="url(#mask-2)"></path>
                    <path d="M1.95435,11.3724711 C2.20485,11.52056 2.45535,11.5930933 2.67285,11.5930933 C2.95785,11.5930933 3.18285,11.4676711 3.26385,11.2258933 C4.58085,7.31211556 6.95235,4.16296 10.30935,1.86456 C10.67385,1.61522667 10.58535,1.01984889 10.11135,0.534782222 C9.63885,0.0512266667 8.95935,-0.139173333 8.59485,0.11016 C5.05185,2.53398222 2.55135,5.85691556 1.16085,9.98527111 C1.01835,10.4083822 1.37385,11.0294489 1.95435,11.3724711" id="Fill-36" fill="#000000" mask="url(#mask-2)"></path>
                    <path d="M1.0344,17.5186133 C1.2159,17.59568 1.3884,17.6319467 1.5414,17.6319467 C1.8939,17.6319467 2.1459,17.4400356 2.1639,17.1045689 C2.2164,16.1495467 2.3244,15.2066133 2.4849,14.2999467 C2.5659,13.84208 2.1504,13.2315911 1.5579,12.9339022 C0.9654,12.6392356 0.4194,12.7691911 0.3399,13.2270578 C0.1704,14.18208 0.0564,15.1779022 0.0009,16.1858133 C-0.0261,16.6678578 0.4374,17.2647467 1.0344,17.5186133" id="Fill-37" fill="#000000" mask="url(#mask-2)"></path>
                    <path d="M80.97165,56.1568178 C80.39115,55.8137956 79.80465,55.8787733 79.66215,56.3033956 C78.34515,60.2171733 75.97365,63.3663289 72.61515,65.6647289 C72.25065,65.9155733 72.33915,66.50944 72.81315,66.9945067 C73.14615,67.3345067 73.57965,67.52944 73.93515,67.52944 C74.08515,67.52944 74.22165,67.4946844 74.33115,67.42064 C77.87415,64.9968178 80.37465,61.6738844 81.76515,57.5440178 C81.90765,57.1209067 81.55215,56.49984 80.97165,56.1568178" id="Fill-38" fill="#000000" mask="url(#mask-2)"></path>
                    <path d="M81.8967,49.7300622 C81.2997,49.4807289 80.7972,49.6711289 80.7747,50.1561956 C80.7282,51.2049067 80.6157,52.2385067 80.4417,53.2282844 C80.3607,53.6861511 80.7747,54.29664 81.3672,54.5943289 C81.5832,54.7016178 81.7917,54.7529956 81.9732,54.7529956 C82.2942,54.7529956 82.5357,54.5943289 82.5867,54.3011733 C82.7712,53.2569956 82.8897,52.1659733 82.9392,51.05984 C82.9602,50.5747733 82.4937,49.9793956 81.8967,49.7300622" id="Fill-39" fill="#000000" mask="url(#mask-2)"></path>
                    <path d="M32.59305,14.7502578 C43.00005,14.7502578 55.44555,23.28048 60.33705,33.7645689 C65.22855,44.2486578 60.74055,52.77888 50.33355,52.77888 C39.92655,52.77888 27.47955,44.2486578 22.58955,33.7645689 C17.69805,23.28048 22.18605,14.7502578 32.59305,14.7502578 M51.25455,54.7523911 C62.74305,54.7523911 67.69605,45.3381689 62.29755,33.7645689 C56.89755,22.1909689 43.15905,12.7767467 31.67205,12.7767467 C20.18505,12.7767467 15.23055,22.1909689 20.62905,33.7645689 C26.02905,45.3381689 39.76605,54.7523911 51.25455,54.7523911" id="Fill-40" fill="#000000" mask="url(#mask-2)"></path>
                    <path d="M6.7971,15.4564 C7.0986,15.4564 7.3296,15.3173778 7.3986,15.0529333 C8.0826,12.4477778 9.2901,10.1554222 10.9836,8.24235556 C11.2686,7.92048889 11.0751,7.30244444 10.5486,6.86271111 C10.0236,6.42297778 9.3666,6.32928889 9.0816,6.65115556 C7.2831,8.6836 6.0021,11.118 5.2746,13.8848444 C5.1606,14.3245778 5.5416,14.9426222 6.1281,15.2644889 C6.3636,15.3929333 6.5961,15.4564 6.7971,15.4564" id="Fill-41" fill="#000000" mask="url(#mask-2)"></path>
                    <path d="M75.5268,52.4756 C74.8128,55.1956 73.5318,57.5695556 71.7228,59.5294667 C71.4303,59.8468 71.6163,60.4633333 72.1368,60.9076 C72.4548,61.1765778 72.8223,61.3201333 73.1283,61.3201333 C73.3248,61.3201333 73.4958,61.2596889 73.6113,61.1357778 C75.5328,59.0534667 76.8933,56.5329333 77.6508,53.6436889 C77.7663,53.2039556 77.3838,52.5874222 76.7973,52.2640444 C76.2108,51.9421778 75.6423,52.0358667 75.5268,52.4756" id="Fill-42" fill="#000000" mask="url(#mask-2)"></path>
                </g>
            </g>
        </g>
    </g>
</svg>