<?xml version="1.0" encoding="UTF-8"?>
<svg width="20px" height="20px" viewBox="0 0 20 20" version="1.1" xmlns="http://www.w3.org/2000/svg" xmlns:xlink="http://www.w3.org/1999/xlink">
    <!-- Generator: Sketch 51.2 (57519) - http://www.bohemiancoding.com/sketch -->
    <title>github_icon</title>
    <desc>Created with Sketch.</desc>
    <defs></defs>
    <g id="Landing-page-2018-Aug" stroke="none" stroke-width="1" fill="none" fill-rule="evenodd">
        <g id="Landing-Page-0.2-x1366" transform="translate(-863.000000, -2763.000000)" fill="#15DACB" fill-rule="nonzero">
            <g id="Group-3" transform="translate(-4.000000, 2200.056594)">
                <g id="Group-29" transform="translate(0.000000, 0.943406)">
                    <g id="github_icon" transform="translate(867.051246, 562.046875)">
                        <path d="M9.91673739,0.58427449 C4.63281394,0.58427449 0.347977416,4.86858071 0.347977416,10.1542067 C0.347977416,14.3817107 3.08962813,17.9684172 6.89257869,19.2339675 C7.37106352,19.3217346 7.54571264,19.026304 7.54571264,18.7726995 C7.54571264,18.5455304 7.53743118,17.9437402 7.53279002,17.1451557 C4.87091601,17.7234451 4.30925333,15.8623885 4.30925333,15.8623885 C3.87412175,14.756914 3.24677725,14.4625999 3.24677725,14.4625999 C2.37792957,13.8688598 3.3125149,13.8809013 3.3125149,13.8809013 C4.27282988,13.9485767 4.77827247,14.8670615 4.77827247,14.8670615 C5.63190487,16.329414 7.0179455,15.9071493 7.56322065,15.6621812 C7.65016243,15.0437681 7.89736736,14.6220935 8.1707685,14.3828789 C6.04582829,14.1413758 3.81191282,13.3204069 3.81191282,9.6533973 C3.81191282,8.60872424 4.18477167,7.75450973 4.79689687,7.08557431 C4.69849974,6.84348502 4.37011058,5.87054245 4.89071266,4.55305838 C4.89071266,4.55305838 5.69417357,4.29575376 7.52221586,5.53405122 C8.28549732,5.32180238 9.10411378,5.21565008 9.91791762,5.21194994 C10.7305452,5.21565008 11.5492214,5.32180238 12.3136194,5.53405122 C14.1405452,4.29575376 14.9425388,4.55305838 14.9425388,4.55305838 C15.4646082,5.87054245 15.1361632,6.84348502 15.0377661,7.08557431 C15.6510675,7.75450973 16.0213985,8.60872822 16.0213985,9.6533973 C16.0213985,13.3295735 13.7840181,14.138497 11.6522039,14.3754188 C11.9958043,14.6708495 12.301869,15.2548965 12.301869,16.147536 C12.301869,17.4268343 12.2901186,18.4589356 12.2901186,18.7726955 C12.2901186,19.0285887 12.462479,19.3263119 12.9481289,19.232847 C16.7473673,17.9649483 19.4867334,14.3805943 19.4867334,10.1542067 C19.4867334,4.86858071 15.2018371,0.58427449 9.91673739,0.58427449 Z" id="Shape"></path>
                    </g>
                </g>
            </g>
        </g>
    </g>
</svg>