<?xml version="1.0" encoding="UTF-8"?>
<svg width="97px" height="90px" viewBox="0 0 97 90" version="1.1" xmlns="http://www.w3.org/2000/svg" xmlns:xlink="http://www.w3.org/1999/xlink">
    <!-- Generator: Sketch 51.2 (57519) - http://www.bohemiancoding.com/sketch -->
    <title>Mumei_logo</title>
    <desc>Created with Sketch.</desc>
    <defs>
        <polygon id="path-1" points="48.144 28.077 0.0465 28.017 0.0465 0.321 48.249 0.267"></polygon>
        <linearGradient x1="162.330398%" y1="50.0016974%" x2="47.8523239%" y2="50.0016974%" id="linearGradient-3">
            <stop stop-color="#231F20" offset="0%"></stop>
            <stop stop-color="#231F20" offset="100%"></stop>
        </linearGradient>
    </defs>
    <g id="Landing-page-2018-Aug" stroke="none" stroke-width="1" fill="none" fill-rule="evenodd">
        <g id="Landing-Page-0.2-x1366-Copy" transform="translate(-401.000000, -2650.000000)">
            <g id="Solution" transform="translate(-1.000000, 2480.000000)">
                <g id="Mumei_logo" transform="translate(402.236154, 170.239018)">
                    <polygon id="Fill-1" fill="#B94943" points="0 55.5615 48.2955 55.5615 48.2955 27.8835 0 27.8835"></polygon>
                    <g id="Group-4" transform="translate(0.000000, 27.549000)">
                        <mask id="mask-2" fill="white">
                            <use xlink:href="#path-1"></use>
                        </mask>
                        <g id="Clip-3"></g>
                        <polygon id="Fill-2" fill="url(#linearGradient-3)" mask="url(#mask-2)" points="48.144 28.077 0.0465 28.017 0.0465 0.321 48.249 0.267"></polygon>
                    </g>
                    <polygon id="Fill-5" fill="#F06158" points="48.249 55.65945 96.4515 27.82995 48.2475 0.00195"></polygon>
                    <polygon id="Fill-6" fill="#F06158" points="48.2949 0.0003 0.0939 27.8298 96.4974 27.8298"></polygon>
                    <polygon id="Fill-7" fill="#B94943" points="48.249 55.65945 48.249 89.04945 48.252 89.04945 96.4515 61.21845 96.4515 27.82995"></polygon>
                </g>
            </g>
        </g>
    </g>
</svg>