<?xml version="1.0" encoding="utf-8"?>
<!-- Generator: Adobe Illustrator 22.0.1, SVG Export Plug-In . SVG Version: 6.00 Build 0)  -->
<svg version="1.1" id="圖層_1" xmlns="http://www.w3.org/2000/svg" xmlns:xlink="http://www.w3.org/1999/xlink" x="0px" y="0px"
	 viewBox="0 0 202 202" style="enable-background:new 0 0 202 202;" xml:space="preserve">
<style type="text/css">
	.st0{fill:#2C479D;}
</style>
<title>NKN</title>
<desc>Created with Sketch.</desc>
<g id="NKN">
	<g>
		<g id="Group_8_" transform="translate(10.000000, 8.500000)">
			<path class="st0" d="M83,84.1c-19.7,0-38.4-10-49.4-27.1c-2.3-3.6-0.5-5.8,1.1-7.1c24.7-21.7,59.5-19.8,82.8,4.6
				c2,2.1,3.8,4.3,5.7,6.6c0.9,1.1,1.7,2.1,2.7,3.2c0.4,0.5,0.6,1.1,0.5,1.7c-0.1,0.6-0.3,1.2-0.8,1.5c-10.4,8.6-21,13.8-32.4,15.8
				C89.7,83.8,86.3,84.1,83,84.1z M37,53.9c0,0,0.1,0.2,0.4,0.6c11.9,18.5,33.5,28,54.9,24.2c10-1.8,19.4-6.2,28.5-13.4
				c-0.4-0.5-0.8-1-1.2-1.5c-1.8-2.2-3.6-4.4-5.4-6.3C92.6,35,60.4,33.2,37.6,53.2C37.2,53.6,37.1,53.8,37,53.9z"/>
			<path class="st0" d="M108.5,133.1c-0.1,0-0.2,0-0.2,0l-2.5-0.3c-2.8-0.3-5.8-0.6-8.8-0.9c-1.3-0.1-2.3-0.6-3-1.4
				c-1-1.2-0.9-2.8-0.8-3.3c3.7-34.5,29-57.8,61.6-56.5c2.7,0.1,5.3,0.5,7.9,0.9c1.1,0.2,2.1,0.3,3.2,0.4c2.6,0.3,4,2.1,3.8,4.7
				c-1.9,29.3-22.2,51.6-50.5,55.5c-2.3,0.3-4.5,0.5-6.9,0.7c-1.1,0.1-2.3,0.2-3.5,0.3C108.7,133.1,108.6,133.1,108.5,133.1z
				 M97.8,127.4c3,0.3,5.8,0.6,8.5,0.9l2.3,0.2c1.1-0.1,2.3-0.2,3.4-0.3c2.3-0.2,4.5-0.3,6.6-0.6c26.1-3.6,44.8-24.2,46.6-51.2
				c-1.2-0.2-2.1-0.3-3.1-0.4c-2.6-0.4-5-0.7-7.4-0.8C124.7,74.1,101.3,95.6,97.8,127.4z"/>
			<path class="st0" d="M59.8,190.7c-1.4,0-2.7-0.7-4-2.2c-21.4-24.4-19.3-60.1,4.9-83c2.1-2,4.3-3.8,6.5-5.5c1-0.8,2-1.6,3-2.5
				c1-0.8,2.4-0.7,3.2,0.3c5.3,6.1,9.4,12.8,12.4,20.4c10.6,26.4,1.2,55.8-22.7,71.4C61.9,190.3,60.8,190.7,59.8,190.7z M59.9,186.2
				L59.9,186.2L59.9,186.2z M71.4,102.4c-0.4,0.4-0.9,0.7-1.3,1.1c-2.2,1.8-4.3,3.5-6.2,5.3c-22.7,21.5-24.7,53.8-4.6,76.7
				c0.4,0.5,0.6,0.6,0.7,0.7c0,0,0.3-0.1,0.7-0.4c22.4-14.6,30.8-41.1,20.9-65.9C79,113.4,75.7,107.7,71.4,102.4z"/>
			<path class="st0" d="M24.8,119.8c-7.3,0-14.7-2-21.6-5.8c-3.5-2-2.3-4.9-1.8-6.2C10.3,86.5,33,76.7,55.3,84.4
				c1.9,0.7,3.8,1.5,5.7,2.4c0.9,0.4,1.7,0.8,2.6,1.2c1.1,0.5,1.7,1.8,1.2,3c-5.3,13-14.8,22.5-26.7,26.7
				C33.8,119.1,29.3,119.8,24.8,119.8z M5.4,110c10.2,5.7,21.2,6.7,31.2,3.2c10.1-3.5,18.2-11.3,23.1-22c-0.2-0.1-0.4-0.2-0.6-0.3
				c-1.8-0.8-3.5-1.6-5.3-2.2c-20-6.9-40.3,1.8-48.2,20.8C5.6,109.7,5.5,109.8,5.4,110z"/>
			<path class="st0" d="M132.5,58.7c-0.9,0-1.7-0.4-2-0.5c-13.2-6.1-27.3-19.4-27.1-38.7c0-7.8,1.7-14.8,5.5-21.9
				c1.5-2.7,3.6-3.5,6.5-2.2c21.5,9,31.2,31.8,23.2,54.3c-0.5,1.5-1.2,2.9-1.8,4.4c-0.3,0.8-0.7,1.5-1,2.3c-0.5,1.1-1.2,1.9-2.1,2.2
				C133.3,58.7,132.9,58.7,132.5,58.7z M113.2-0.7c0,0.1-0.1,0.2-0.2,0.4c-3.4,6.5-5,12.8-5,19.8c0,0,0,0,0,0
				c-0.2,16.9,12.2,28.8,23.9,34.3c0.3-0.6,0.5-1.2,0.8-1.7c0.6-1.3,1.2-2.6,1.7-4c7.2-20.2-1.5-40.6-20.7-48.6
				C113.4-0.6,113.3-0.6,113.2-0.7z"/>
			<path class="st0" d="M134.7,176.5c-13.6,0-26.6-6.7-34.8-18.7c-3.3-4.9-5.5-9.8-6.8-14.9c-0.3-1.1,0.3-2.2,1.3-2.7
				c12.6-5.3,26.2-5.3,37.5,0.1c10.8,5.2,18.7,14.9,22.3,27.3c1.1,3.8-1.9,5.1-3,5.5C145.8,175.4,140.2,176.5,134.7,176.5z
				 M98,143.7c1.2,3.9,3.1,7.8,5.7,11.6c10.3,15.3,28.7,20.8,45.7,13.7c0.1-0.1,0.2-0.1,0.3-0.1c-3.3-11.3-10.3-19.8-19.8-24.4
				C120.4,139.8,108.9,139.6,98,143.7z"/>
			<path class="st0" d="M93.2,35.4c-8.3,0-15.9-2.6-21.6-7.5C65.3,22.6,61.5,14.8,61,6c-0.1-2.2-0.2-3.7,0.9-5
				c1.1-1.2,2.6-1.3,4.8-1.4c0.6,0,1.1,0,1.7,0l0.7,0c0,0,0.1,0,0.1,0c17.3,0.8,29.8,13.4,30.4,30.8c0.1,1.2,0.2,2.6-0.8,3.7
				c-0.7,0.8-1.6,1.2-2.9,1.3C94.9,35.4,94,35.4,93.2,35.4z M65.4,4.3c0,0.4,0,1,0.1,1.5c0.5,7.5,3.7,14.2,9,18.7
				c5.3,4.5,12.5,6.8,20.4,6.4c0-0.1,0-0.3,0-0.3c-0.5-14.9-11.2-25.7-26-26.4l-0.7,0c-0.4,0-0.9,0-1.3,0
				C66.4,4.2,65.8,4.2,65.4,4.3z"/>
			<path class="st0" d="M159.6,146c-8.7,0-16.9-3.7-23.6-10.7c-0.8-0.8-0.8-2.1-0.2-3c6.5-8.4,15.4-13.1,25.1-13.3
				c0.1,0,0.3,0,0.4,0c9,0,17.6,4,23.2,10.9c0.6,0.8,0.7,1.8,0.2,2.7c-4.7,7.4-12.9,12.3-22,13.2C161.6,146,160.6,146,159.6,146z
				 M140.7,133.6c6.2,5.8,13.8,8.5,21.5,7.8c7.1-0.7,13.6-4.3,17.7-9.8c-4.7-5-11.5-7.9-18.5-7.9c-0.1,0-0.2,0-0.3,0
				C153.3,123.8,146.2,127.3,140.7,133.6z"/>
			<path class="st0" d="M10.1,162.3c-1.1,0-2-0.3-2.7-0.9c-1.4-1.2-1.6-3-1.7-3.6c-1.3-15.2,8-28.6,22.7-32.6
				c1.6-0.4,3.2-0.7,4.9-0.9c0.8-0.1,1.7-0.3,2.5-0.4c1.8-0.4,3.3-0.1,4.3,0.9c1,0.9,1.5,2.2,1.3,4c0,0.6,0,1.2,0,1.8l0,0.8
				c0,0.1,0,0.1,0,0.2c-1.1,15.6-9.3,26.1-22.9,29.7c-1.8,0.5-3.5,0.6-5.2,0.8c-0.8,0.1-1.5,0.2-2.3,0.3
				C10.7,162.3,10.4,162.3,10.1,162.3z M36.9,128.3c-0.1,0-0.2,0-0.3,0c-0.9,0.2-1.8,0.3-2.7,0.4c-1.5,0.2-2.9,0.4-4.3,0.8
				c-12.5,3.4-20.5,14.8-19.3,27.8c0,0.1,0,0.2,0,0.3c1-0.1,1.8-0.2,2.5-0.3c1.6-0.2,3.1-0.3,4.5-0.7c11.6-3,18.5-12.1,19.5-25.5
				l0-0.6c0-0.7,0-1.4,0-2.2C36.9,128.4,36.9,128.3,36.9,128.3z M39.1,131.3L39.1,131.3L39.1,131.3z M36.9,127.8L36.9,127.8
				L36.9,127.8z"/>
		</g>
	</g>
</g>
</svg>
