<?xml version="1.0" encoding="utf-8"?>
<!-- Generator: Adobe Illustrator 22.0.1, SVG Export Plug-In . SVG Version: 6.00 Build 0)  -->
<svg version="1.1" id="圖層_1" xmlns="http://www.w3.org/2000/svg" xmlns:xlink="http://www.w3.org/1999/xlink" x="0px" y="0px"
	 viewBox="0 0 60 60" style="enable-background:new 0 0 60 60;" xml:space="preserve">
<style type="text/css">
	.st0{fill:none;stroke:#2C479D;stroke-width:0.5;stroke-linecap:round;stroke-linejoin:round;stroke-miterlimit:10;}
	.st1{filter:url(#Adobe_OpacityMaskFilter);}
	.st2{fill:#FFFFFF;}
	.st3{mask:url(#mask-2_1_);fill:#2C479D;}
	.st4{filter:url(#Adobe_OpacityMaskFilter_1_);}
	.st5{mask:url(#mask-4_1_);fill:#2C479D;}
	.st6{filter:url(#Adobe_OpacityMaskFilter_2_);}
	.st7{mask:url(#mask-6_1_);fill:#2C479D;}
	.st8{filter:url(#Adobe_OpacityMaskFilter_3_);}
	.st9{mask:url(#mask-8_1_);fill:#2C479D;}
	.st10{filter:url(#Adobe_OpacityMaskFilter_4_);}
	.st11{mask:url(#mask-10_1_);fill:#2C479D;}
	.st12{filter:url(#Adobe_OpacityMaskFilter_5_);}
	.st13{mask:url(#mask-12_1_);fill:#2C479D;}
</style>
<title>quark</title>
<desc>Created with Sketch.</desc>
<g id="quark">
	<g id="Group-28" transform="translate(7.000000, 10.000000)">
		<g id="Group-10" transform="translate(0.463672, 0.507617)">
			<polygon id="Fill-1" class="st0" points="14.6,21 4.2,34.2 4.3,29.3 12.6,18.5 			"/>
			<polygon id="Fill-3" class="st0" points="40.7,34.5 30.2,21.1 32.1,18.6 40.6,29.3 			"/>
			<path id="Fill-5" class="st0" d="M30.2,16.1c-0.7,0.9-1.3,1.7-2,2.5l-5-6.3c0,0-0.4-0.6-0.8-0.6s-0.8,0.6-0.8,0.6l-4.9,6.2
				l-2-2.5l6-7.7c0,0,0.7-0.8,1.7-0.8c1,0,1.5,0.6,1.5,0.6L30.2,16.1z"/>
			<g id="Group-9" transform="translate(0.000000, 1.026953)">
				<path id="Fill-7" class="st0" d="M44.9,1.9l-0.1,31.7c0,0-0.7,1.2-2,1.1c-1.2-0.1-2.2-1.2-2.2-1.2l0-5.2L40.5,6.9l-8.3,10.6
					l-2,2.5L24,27.9c0,0-0.7,0.6-1.6,0.6c-0.9,0-1.5-0.6-1.5-0.6l-6.3-8l-2-2.5L4.3,6.9l0,21.3l0,4.9c0,0-0.6,1.7-2.4,1.5
					c-1.8-0.1-1.8-1.3-1.8-1.3L0,1.7c0,0,0.5-1.2,1.5-1.4c1-0.2,2.1,0.5,2.1,0.5l11.1,14.1l2,2.5l5.2,6.7c0,0,0.3,0.3,0.6,0.3
					c0.3,0,0.4-0.3,0.6-0.3c0.2-0.1,2.3-2.9,5.1-6.5c0.6-0.8,1.3-1.7,2-2.5c5.1-6.6,11-14.3,11-14.3s1.3-0.9,2.3-0.4
					C44.5,0.8,44.9,1.9,44.9,1.9"/>
			</g>
			<g id="Group-9-Copy-3" transform="translate(41.253659, 33.685490)">
				<g id="Clip-8">
				</g>
				<defs>
					<filter id="Adobe_OpacityMaskFilter" filterUnits="userSpaceOnUse" x="0" y="0.1" width="3.7" height="3.7">
						<feColorMatrix  type="matrix" values="1 0 0 0 0  0 1 0 0 0  0 0 1 0 0  0 0 0 1 0"/>
					</filter>
				</defs>
				<mask maskUnits="userSpaceOnUse" x="0" y="0.1" width="3.7" height="3.7" id="mask-2_1_">
					<g class="st1">
						<polygon id="path-1_1_" class="st2" points="0,0.1 3.7,0.1 3.7,3.8 0,3.8 						"/>
					</g>
				</mask>
				<path id="Fill-7_1_" class="st3" d="M1.8,0.1c1,0,1.8,0.8,1.8,1.8c0,1-0.8,1.8-1.8,1.8C0.8,3.8,0,2.9,0,1.9
					C0,0.9,0.8,0.1,1.8,0.1"/>
			</g>
			<g id="Group-9-Copy-12" transform="translate(0.000000, 33.685490)">
				<g id="Clip-8_1_">
				</g>
				<defs>
					<filter id="Adobe_OpacityMaskFilter_1_" filterUnits="userSpaceOnUse" x="0" y="0.1" width="3.7" height="3.7">
						<feColorMatrix  type="matrix" values="1 0 0 0 0  0 1 0 0 0  0 0 1 0 0  0 0 0 1 0"/>
					</filter>
				</defs>
				<mask maskUnits="userSpaceOnUse" x="0" y="0.1" width="3.7" height="3.7" id="mask-4_1_">
					<g class="st4">
						<polygon id="path-3_1_" class="st2" points="0,0.1 3.7,0.1 3.7,3.8 0,3.8 						"/>
					</g>
				</mask>
				<path id="Fill-7_2_" class="st5" d="M1.8,0.1c1,0,1.8,0.8,1.8,1.8c0,1-0.8,1.8-1.8,1.8C0.8,3.8,0,2.9,0,1.9
					C0,0.9,0.8,0.1,1.8,0.1"/>
			</g>
			<g id="Group-9-Copy-11" transform="translate(41.253659, 0.301568)">
				<g id="Clip-8_2_">
				</g>
				<defs>
					<filter id="Adobe_OpacityMaskFilter_2_" filterUnits="userSpaceOnUse" x="0" y="0.1" width="3.7" height="3.7">
						<feColorMatrix  type="matrix" values="1 0 0 0 0  0 1 0 0 0  0 0 1 0 0  0 0 0 1 0"/>
					</filter>
				</defs>
				<mask maskUnits="userSpaceOnUse" x="0" y="0.1" width="3.7" height="3.7" id="mask-6_1_">
					<g class="st6">
						<polygon id="path-5_1_" class="st2" points="0,0.1 3.7,0.1 3.7,3.8 0,3.8 						"/>
					</g>
				</mask>
				<path id="Fill-7_3_" class="st7" d="M1.8,0.1c1,0,1.8,0.8,1.8,1.8c0,1-0.8,1.8-1.8,1.8C0.8,3.8,0,2.9,0,1.9
					C0,0.9,0.8,0.1,1.8,0.1"/>
			</g>
			<g id="Group-9-Copy-13" transform="translate(0.000000, 0.301568)">
				<g id="Clip-8_3_">
				</g>
				<defs>
					<filter id="Adobe_OpacityMaskFilter_3_" filterUnits="userSpaceOnUse" x="0" y="0.1" width="3.7" height="3.7">
						<feColorMatrix  type="matrix" values="1 0 0 0 0  0 1 0 0 0  0 0 1 0 0  0 0 0 1 0"/>
					</filter>
				</defs>
				<mask maskUnits="userSpaceOnUse" x="0" y="0.1" width="3.7" height="3.7" id="mask-8_1_">
					<g class="st8">
						<polygon id="path-7_1_" class="st2" points="0,0.1 3.7,0.1 3.7,3.8 0,3.8 						"/>
					</g>
				</mask>
				<path id="Fill-7_4_" class="st9" d="M1.8,0.1c1,0,1.8,0.8,1.8,1.8c0,1-0.8,1.8-1.8,1.8C0.8,3.8,0,2.9,0,1.9
					C0,0.9,0.8,0.1,1.8,0.1"/>
			</g>
			<g id="Group-9-Copy-14" transform="translate(20.545946, 5.909966)">
				<g id="Clip-8_4_">
				</g>
				<defs>
					<filter id="Adobe_OpacityMaskFilter_4_" filterUnits="userSpaceOnUse" x="0" y="0.1" width="3.7" height="3.7">
						<feColorMatrix  type="matrix" values="1 0 0 0 0  0 1 0 0 0  0 0 1 0 0  0 0 0 1 0"/>
					</filter>
				</defs>
				<mask maskUnits="userSpaceOnUse" x="0" y="0.1" width="3.7" height="3.7" id="mask-10_1_">
					<g class="st10">
						<polygon id="path-9_1_" class="st2" points="0,0.1 3.7,0.1 3.7,3.8 0,3.8 						"/>
					</g>
				</mask>
				<path id="Fill-7_5_" class="st11" d="M1.8,0.1c1,0,1.8,0.8,1.8,1.8c0,1-0.8,1.8-1.8,1.8C0.8,3.8,0,2.9,0,1.9
					C0,0.9,0.8,0.1,1.8,0.1"/>
			</g>
			<g id="Group-9-Copy-15" transform="translate(20.545946, 27.451470)">
				<g id="Clip-8_5_">
				</g>
				<defs>
					<filter id="Adobe_OpacityMaskFilter_5_" filterUnits="userSpaceOnUse" x="0" y="0.1" width="3.7" height="3.7">
						<feColorMatrix  type="matrix" values="1 0 0 0 0  0 1 0 0 0  0 0 1 0 0  0 0 0 1 0"/>
					</filter>
				</defs>
				<mask maskUnits="userSpaceOnUse" x="0" y="0.1" width="3.7" height="3.7" id="mask-12_1_">
					<g class="st12">
						<polygon id="path-11_1_" class="st2" points="0,0.1 3.7,0.1 3.7,3.8 0,3.8 						"/>
					</g>
				</mask>
				<path id="Fill-7_6_" class="st13" d="M1.8,0.1c1,0,1.8,0.8,1.8,1.8c0,1-0.8,1.8-1.8,1.8C0.8,3.8,0,2.9,0,1.9
					C0,0.9,0.8,0.1,1.8,0.1"/>
			</g>
		</g>
	</g>
</g>
</svg>
