<?xml version="1.0" encoding="utf-8"?>
<!-- Generator: Adobe Illustrator 22.0.1, SVG Export Plug-In . SVG Version: 6.00 Build 0)  -->
<svg version="1.1" id="圖層_1" xmlns="http://www.w3.org/2000/svg" xmlns:xlink="http://www.w3.org/1999/xlink" x="0px" y="0px"
	 viewBox="0 0 202 202" style="enable-background:new 0 0 202 202;" xml:space="preserve">
<style type="text/css">
	.st0{fill:#2C479D;}
</style>
<title>tomo</title>
<desc>Created with Sketch.</desc>
<g id="tomo">
	<g>
		<g id="Group_8_" transform="translate(10.000000, 10.000000)">
			<path class="st0" d="M93.4,182.2c-9.3,0-18.5-1.4-27.3-4.1l1.4-4.4c8.3,2.6,17.1,3.9,25.9,3.9c47.8,0,86.7-38.9,86.7-86.7
				c0-47.8-38.9-86.7-86.7-86.7C45.6,4.2,6.7,43.1,6.7,90.9c0,9.1,1.4,18,4.1,26.6l-4.4,1.4c-2.9-9-4.4-18.4-4.4-28
				c0-50.4,41-91.3,91.3-91.3c50.4,0,91.3,41,91.3,91.3S143.8,182.2,93.4,182.2z"/>
			<path class="st0" d="M92.6,156.7c-11.6,0-23-3.1-33.3-9.1c-31.3-18.4-41.9-58.9-23.5-90.2C54.3,26.1,94.8,15.6,126.1,34
				c5.8,3.4,11,7.6,15.5,12.6l-3.4,3.1c-4.2-4.6-9-8.5-14.4-11.7C94.7,20.9,57,30.7,39.9,59.8c-17.1,29.1-7.3,66.8,21.8,83.9
				c14.1,8.3,30.6,10.6,46.5,6.5c15.8-4.1,29.1-14.2,37.4-28.3c3.2-5.5,5.6-11.5,7-17.7l4.5,1c-1.5,6.7-4,13.1-7.5,19
				c-8.9,15.2-23.2,26-40.2,30.4C103.8,156,98.2,156.7,92.6,156.7z"/>
			<path class="st0" d="M93,124.8c-6.9,0-11.8-3.2-13.9-4.8c-5.4-4.2-8.7-11-8.7-17.6V55.2H75v47.2c0,5.2,2.7,10.6,7,14
				c3.8,3,14.2,8.6,27.8-4l3.2,3.4C105.4,122.6,98.5,124.8,93,124.8z"/>
			<path id="Fill-7_8_" class="st0" d="M139.8,37.6c4.5,0,8.1,3.6,8.1,8.1c0,4.5-3.6,8.1-8.1,8.1c-4.4,0-8.1-3.6-8.1-8.1
				C131.7,41.2,135.3,37.6,139.8,37.6"/>
			<path id="Fill-9_8_" class="st0" d="M154.8,98.9c4.4,0,8.1,3.6,8.1,8.1c0,4.5-3.6,8.1-8.1,8.1c-4.5,0-8.1-3.6-8.1-8.1
				C146.8,102.5,150.4,98.9,154.8,98.9"/>
			<path id="Fill-11_8_" class="st0" d="M111.3,105.8c4.4,0,8.1,3.6,8.1,8.1c0,4.5-3.6,8.1-8.1,8.1c-4.5,0-8.1-3.6-8.1-8.1
				C103.2,109.4,106.8,105.8,111.3,105.8"/>
			<rect x="57.5" y="68" class="st0" width="53.8" height="4.6"/>
			<path id="Fill-15_8_" class="st0" d="M111.3,62.3c4.4,0,8.1,3.6,8.1,8.1c0,4.4-3.6,8.1-8.1,8.1c-4.5,0-8.1-3.6-8.1-8.1
				C103.2,65.9,106.8,62.3,111.3,62.3"/>
			<path id="Fill-17_8_" class="st0" d="M57.5,62.3c4.4,0,8.1,3.6,8.1,8.1c0,4.4-3.6,8.1-8.1,8.1c-4.5,0-8.1-3.6-8.1-8.1
				C49.4,65.9,53,62.3,57.5,62.3"/>
			<path id="Fill-19_8_" class="st0" d="M72.6,47.5c4.4,0,8.1,3.6,8.1,8.1c0,4.4-3.6,8.1-8.1,8.1c-4.5,0-8.1-3.6-8.1-8.1
				C64.6,51.1,68.2,47.5,72.6,47.5"/>
			<path id="Fill-21_8_" class="st0" d="M8.7,111.4c4.4,0,8.1,3.6,8.1,8.1c0,4.4-3.6,8.1-8.1,8.1c-4.5,0-8.1-3.6-8.1-8.1
				C0.6,115,4.2,111.4,8.7,111.4"/>
			<path id="Fill-23_8_" class="st0" d="M67.5,167.5c4.5,0,8.1,3.6,8.1,8.1c0,4.5-3.6,8.1-8.1,8.1c-4.4,0-8.1-3.6-8.1-8.1
				C59.4,171.1,63,167.5,67.5,167.5"/>
		</g>
	</g>
</g>
</svg>
