<?xml version="1.0" encoding="UTF-8"?>
<svg width="108px" height="107px" viewBox="0 0 108 107" version="1.1" xmlns="http://www.w3.org/2000/svg" xmlns:xlink="http://www.w3.org/1999/xlink">
    <!-- Generator: Sketch 50.2 (55047) - http://www.bohemiancoding.com/sketch -->
    <title>play_btn@2x</title>
    <desc>Created with Sketch.</desc>
    <defs>
        <linearGradient x1="100%" y1="-55.4980927%" x2="7.12294601%" y2="121.167107%" id="linearGradient-1">
            <stop stop-color="#00F7CB" offset="0%"></stop>
            <stop stop-color="#00D7EC" offset="100%"></stop>
        </linearGradient>
    </defs>
    <g id="Official-Landing-page" stroke="none" stroke-width="1" fill="none" fill-rule="evenodd">
        <g id="Landing-Page-1366" transform="translate(-636.000000, -3313.000000)">
            <g id="Whats-portal" transform="translate(391.000000, 3166.000000)">
                <g id="play_btn" transform="translate(245.019531, 147.078015)">
                    <circle id="Oval-5" fill="url(#linearGradient-1)" cx="53.7189725" cy="53.3666399" r="53.3666399"></circle>
                    <path d="M38.995386,61.8947139 L54.8799561,39.1187674 C56.4596156,36.8537869 59.5763122,36.2982245 61.8412928,37.8778841 C62.3248401,38.2151233 62.7449369,38.6352201 63.0821761,39.1187674 L78.9667462,61.8947139 C80.5464058,64.1596944 79.9908434,67.276391 77.7258628,68.8560505 C76.8868484,69.4412023 75.8885476,69.7549405 74.8656362,69.7549405 L43.096496,69.7549405 C40.3350723,69.7549405 38.096496,67.5163643 38.096496,64.7549405 C38.096496,63.7320291 38.4102343,62.7337283 38.995386,61.8947139 Z" id="Combined-Shape" fill="#FFFFFF" transform="translate(58.981285, 53.366749) rotate(-270.000000) translate(-58.981285, -53.366749) "></path>
                </g>
            </g>
        </g>
    </g>
</svg>