<?xml version="1.0" encoding="UTF-8"?>
<svg width="45px" height="45px" viewBox="0 0 45 45" version="1.1" xmlns="http://www.w3.org/2000/svg" xmlns:xlink="http://www.w3.org/1999/xlink">
    <!-- Generator: Sketch 50 (54983) - http://www.bohemiancoding.com/sketch -->
    <title>fb@3x</title>
    <desc>Created with Sketch.</desc>
    <defs>
        <polygon id="path-1" points="0.8992 0.9 44.999 0.9 44.999 45 0.8992 45"></polygon>
    </defs>
    <g id="LP3" stroke="none" stroke-width="1" fill="none" fill-rule="evenodd">
        <g id="LP3-1366" transform="translate(-772.000000, -4681.000000)">
            <g id="Footer" transform="translate(476.000000, 4588.000000)">
                <g id="socialmedia" transform="translate(0.000000, 93.000000)">
                    <g id="fb" transform="translate(296.000000, 0.000000)">
                        <g id="Group-27">
                            <g id="Group-20">
                                <mask id="mask-2" fill="white">
                                    <use xlink:href="#path-1"></use>
                                </mask>
                                <g id="Clip-19"></g>
                                <path d="M22.9492,0.8996 C35.1272,0.8996 44.9992,10.7726 44.9992,22.9506 C44.9992,35.1286 35.1272,45.0006 22.9492,45.0006 C10.7712,45.0006 0.8992,35.1286 0.8992,22.9506 C0.8992,10.7726 10.7712,0.8996 22.9492,0.8996" id="Fill-18" fill="#324C9A" mask="url(#mask-2)"></path>
                            </g>
                            <path d="M25.1602,36.5158 L25.1602,24.3248 L29.2512,24.3248 L29.8642,19.5728 L25.1642,19.5728 L25.1642,16.5418 C25.1642,15.1618 25.5412,14.2308 27.5222,14.2308 L30.0342,14.2308 L30.0342,9.9868 C28.8162,9.8558 27.5922,9.7918 26.3672,9.7968 C22.7352,9.7968 20.2592,12.0138 20.2592,16.0708 L20.2592,19.5708 L16.1592,19.5708 L16.1592,24.3228 L20.2592,24.3228 L20.2592,36.5158 L25.1602,36.5158 Z" id="Fill-21" fill="#FFFFFF"></path>
                        </g>
                    </g>
                </g>
            </g>
        </g>
    </g>
</svg>