<?xml version="1.0" encoding="UTF-8"?>
<svg width="45px" height="45px" viewBox="0 0 45 45" version="1.1" xmlns="http://www.w3.org/2000/svg" xmlns:xlink="http://www.w3.org/1999/xlink">
    <!-- Generator: Sketch 50.2 (55047) - http://www.bohemiancoding.com/sketch -->
    <title>reddit@3x</title>
    <desc>Created with Sketch.</desc>
    <defs>
        <polygon id="path-1" points="0.698 0.9 44.798 0.9 44.798 45 0.698 45"></polygon>
        <polygon id="path-3" points="0.27602449 0.0179658537 30.2328 0.0179658537 30.2328 20.5121951 0.27602449 20.5121951"></polygon>
        <polygon id="path-5" points="0 0.460463415 6.55533878 0.460463415 6.55533878 7.79887805 0 7.79887805"></polygon>
        <polygon id="path-7" points="0.415077551 0.460463415 6.97069388 0.460463415 6.97069388 7.79887805 0.415077551 7.79887805"></polygon>
    </defs>
    <g id="LP3" stroke="none" stroke-width="1" fill="none" fill-rule="evenodd">
        <g id="(Final)-LP3-1366" transform="translate(-549.000000, -4828.000000)">
            <g id="Group-5" transform="translate(247.000000, 4082.000000)">
                <g id="reddit" transform="translate(302.000000, 746.000000)">
                    <g id="Group-3">
                        <mask id="mask-2" fill="white">
                            <use xlink:href="#path-1"></use>
                        </mask>
                        <g id="Clip-2"></g>
                        <path d="M44.798,22.9506 C44.798,35.1286 34.926,45.0006 22.748,45.0006 C10.57,45.0006 0.698,35.1286 0.698,22.9506 C0.698,10.7726 10.57,0.8996 22.748,0.8996 C34.926,0.8996 44.798,10.7726 44.798,22.9506 Z" id="Fill-1" fill="#324C9A" mask="url(#mask-2)"></path>
                    </g>
                    <g transform="translate(6.000000, 8.000000)">
                        <path d="M14.2406571,16.6198293 C14.2406571,17.9524146 13.1866571,19.0268293 11.8793918,19.0268293 C10.5783714,19.0268293 9.52437143,17.9524146 9.52437143,16.6198293 C9.52437143,15.2936098 10.5783714,14.2191951 11.8793918,14.2191951 C13.1866571,14.2191951 14.2406571,15.2936098 14.2406571,16.6198293" id="Fill-1" fill="#FFFFFF"></path>
                        <path d="M22.2063714,23.1306829 C22.1321265,23.2 20.4369837,24.9590976 16.6144122,24.9590976 C12.7668612,24.9590976 11.2257592,23.1809024 11.1640041,23.1052195 C10.9482082,22.8413902 10.9794327,22.4580244 11.2320041,22.2380488 C11.4845755,22.0180732 11.8606571,22.0435366 12.0764531,22.301 C12.1139224,22.3384878 13.3962082,23.7276585 16.6144122,23.7276585 C19.8881265,23.7276585 21.3182082,22.2882683 21.3369429,22.2762439 C21.5652286,22.0308049 21.9475551,22.024439 22.1876367,22.2635122 C22.4221673,22.501878 22.4346571,22.8852439 22.2063714,23.1306829" id="Fill-3" fill="#FFFFFF"></path>
                        <path d="M24.0928163,16.6198293 C24.0928163,17.9524146 23.0381224,19.0268293 21.731551,19.0268293 C20.4305306,19.0268293 19.3765306,17.9524146 19.3765306,16.6198293 C19.3765306,15.2936098 20.4305306,14.2191951 21.731551,14.2191951 C23.0381224,14.2191951 24.0928163,15.2936098 24.0928163,16.6198293" id="Fill-5" fill="#FFFFFF"></path>
                        <path d="M16.6390449,27.4481463 C9.04316735,27.4481463 2.86557551,23.400878 2.86557551,18.4298537 C2.86557551,13.4588293 9.04316735,9.41156098 16.6390449,9.41156098 C24.2349224,9.41156098 30.4125143,13.4588293 30.4125143,18.4298537 C30.4125143,23.400878 24.2349224,27.4481463 16.6390449,27.4481463 M17.2801878,8.81387805 L17.2739429,8.81387805 C17.0643918,8.8075122 16.8548408,8.80185366 16.6390449,8.80185366 C16.491249,8.80185366 16.3427592,8.80185366 16.2012082,8.8075122 C8.46377959,8.95887805 2.26814694,13.2133902 2.26814694,18.4298537 C2.26814694,23.7524146 8.6983102,28.0642195 16.6390449,28.0642195 C24.5797796,28.0642195 31.0161878,23.7524146 31.0161878,18.4298537 C31.0161878,13.2572439 24.9253306,9.03385366 17.2801878,8.81387805" id="Fill-7" fill="#FFFFFF"></path>
                        <g id="Group-11" transform="translate(1.387755, 8.167815)">
                            <mask id="mask-4" fill="white">
                                <use xlink:href="#path-3"></use>
                            </mask>
                            <g id="Clip-10"></g>
                            <path d="M15.2512898,19.2803317 C7.65541224,19.2803317 1.47782041,15.2330634 1.47782041,10.262039 C1.47782041,5.29101463 7.65541224,1.24374634 15.2512898,1.24374634 C22.8471673,1.24374634 29.0247592,5.29101463 29.0247592,10.262039 C29.0247592,15.2330634 22.8471673,19.2803317 15.2512898,19.2803317 M30.1342694,9.11194146 C30.0662694,8.6783561 29.955249,8.25113659 29.8074531,7.83594146 C29.2405551,6.23952683 28.1241061,4.79447805 26.6079837,3.5870878 C26.2811673,3.32962439 25.9356163,3.07852683 25.5782694,2.84581951 C23.0810041,1.22464878 19.7705143,0.174990244 16.1082286,0.0363560976 C15.8244327,0.0243317073 15.5406367,0.0179658537 15.2512898,0.0179658537 C15.1090449,0.0179658537 14.9674939,0.0179658537 14.8259429,0.0243317073 C11.0096163,0.0936487805 7.55063673,1.14896585 4.96108571,2.82742927 L4.95553469,2.82742927 C4.59124898,3.05942927 4.25888163,3.30486829 3.93206531,3.56869756 C2.40900408,4.76901463 1.28700408,6.21477073 0.720106122,7.80481951 C0.559820408,8.21930732 0.4488,8.64652683 0.3808,9.08081951 C0.306555102,9.4698439 0.27602449,9.85957561 0.27602449,10.262039 C0.27602449,15.9120878 6.99622857,20.512478 15.2512898,20.512478 C23.5125959,20.512478 30.2328,15.9120878 30.2328,10.262039 C30.2328,9.87230732 30.2022694,9.48894146 30.1342694,9.11194146" id="Fill-9" fill="#FFFFFF" mask="url(#mask-4)"></path>
                        </g>
                        <path d="M28.2679469,1.2298122 C27.2035388,1.2298122 26.3382735,2.1125439 26.3382735,3.19756829 C26.3382735,4.28188537 27.2035388,5.16461707 28.2679469,5.16461707 C29.3323551,5.16461707 30.1983143,4.28188537 30.1983143,3.19756829 C30.1983143,2.1125439 29.3323551,1.2298122 28.2679469,1.2298122 M28.2679469,6.39464146 C26.5381102,6.39464146 25.1316204,4.96020244 25.1316204,3.19756829 C25.1316204,1.43422683 26.5381102,-0.000212195122 28.2679469,-0.000212195122 C29.9970898,-0.000212195122 31.4049673,1.43422683 31.4049673,3.19756829 C31.4049673,4.96020244 29.9970898,6.39464146 28.2679469,6.39464146" id="Fill-12" fill="#FFFFFF"></path>
                        <g id="Group-16" transform="translate(0.000000, 9.582449)">
                            <mask id="mask-6" fill="white">
                                <use xlink:href="#path-5"></use>
                            </mask>
                            <g id="Clip-15"></g>
                            <path d="M1.97852245,7.79887805 C0.758685714,7.10782927 -0.000416326531,5.79646341 -0.000416326531,4.3747561 C-0.000416326531,2.21602439 1.72248163,0.460463415 3.84019592,0.460463415 C4.86574694,0.460463415 5.82954286,0.867170732 6.55533878,1.60631707 L5.70256327,2.47631707 C5.20435918,1.96917073 4.54309388,1.68978049 3.84019592,1.68978049 C2.3879102,1.68978049 1.20623673,2.89363415 1.20623673,4.3747561 C1.20623673,5.35014634 1.7266449,6.24985366 2.5641551,6.7237561 L1.97852245,7.79887805 Z" id="Fill-14" fill="#FFFFFF" mask="url(#mask-6)"></path>
                        </g>
                        <g id="Group-19" transform="translate(26.367347, 9.582449)">
                            <mask id="mask-8" fill="white">
                                <use xlink:href="#path-7"></use>
                            </mask>
                            <g id="Clip-18"></g>
                            <path d="M4.99258776,7.79887805 L4.40626122,6.7237561 C5.24377143,6.24985366 5.76417959,5.35014634 5.76417959,4.3747561 C5.76417959,2.89363415 4.5832,1.68978049 3.13022041,1.68978049 C2.42732245,1.68978049 1.76605714,1.96917073 1.26785306,2.47631707 L0.415077551,1.60631707 C1.14087347,0.867170732 2.10466939,0.460463415 3.13022041,0.460463415 C5.24793469,0.460463415 6.97083265,2.21602439 6.97083265,4.3747561 C6.97083265,5.79646341 6.21173061,7.10782927 4.99258776,7.79887805" id="Fill-17" fill="#FFFFFF" mask="url(#mask-8)"></path>
                        </g>
                        <path d="M14.2406571,16.6198293 C14.2406571,17.9524146 13.1866571,19.0268293 11.8793918,19.0268293 C10.5783714,19.0268293 9.52437143,17.9524146 9.52437143,16.6198293 C9.52437143,15.2936098 10.5783714,14.2191951 11.8793918,14.2191951 C13.1866571,14.2191951 14.2406571,15.2936098 14.2406571,16.6198293" id="Fill-20" fill="#FFFFFF"></path>
                        <path d="M24.0928163,16.6198293 C24.0928163,17.9524146 23.0381224,19.0268293 21.731551,19.0268293 C20.4305306,19.0268293 19.3765306,17.9524146 19.3765306,16.6198293 C19.3765306,15.2936098 20.4305306,14.2191951 21.731551,14.2191951 C23.0381224,14.2191951 24.0928163,15.2936098 24.0928163,16.6198293" id="Fill-22" fill="#FFFFFF"></path>
                        <path d="M16.740698,9.1408 C16.6740857,9.1408 16.6067796,9.12877561 16.5401673,9.10543415 C16.2265347,8.99297073 16.0613918,8.64143415 16.1717184,8.32172683 L18.899351,0.420995122 L25.5931878,2.05206829 C25.9179224,2.13058049 26.1177592,2.46301951 26.0400449,2.79262927 C25.9623306,3.12365366 25.6362082,3.32665366 25.3128612,3.24814146 L19.6758,1.87453171 L17.3096776,8.72914146 C17.2229429,8.98236098 16.9898,9.1408 16.740698,9.1408" id="Fill-24" fill="#FFFFFF"></path>
                        <path d="M22.2063714,23.1306829 C22.1321265,23.2 20.4369837,24.9590976 16.6144122,24.9590976 C12.7668612,24.9590976 11.2257592,23.1809024 11.1640041,23.1052195 C10.9482082,22.8413902 10.9794327,22.4580244 11.2320041,22.2380488 C11.4845755,22.0180732 11.8606571,22.0435366 12.0764531,22.301 C12.1139224,22.3384878 13.3962082,23.7276585 16.6144122,23.7276585 C19.8881265,23.7276585 21.3182082,22.2882683 21.3369429,22.2762439 C21.5652286,22.0308049 21.9475551,22.024439 22.1876367,22.2635122 C22.4221673,22.501878 22.4346571,22.8852439 22.2063714,23.1306829" id="Fill-26" fill="#FFFFFF"></path>
                    </g>
                </g>
            </g>
        </g>
    </g>
</svg>