<?xml version="1.0" encoding="UTF-8"?>
<svg width="45px" height="45px" viewBox="0 0 45 45" version="1.1" xmlns="http://www.w3.org/2000/svg" xmlns:xlink="http://www.w3.org/1999/xlink">
    <!-- Generator: Sketch 50 (54983) - http://www.bohemiancoding.com/sketch -->
    <title>t@3x</title>
    <desc>Created with Sketch.</desc>
    <defs>
        <polygon id="path-1" points="0.1482 0.9 44.2482 0.9 44.2482 45 0.1482 45"></polygon>
    </defs>
    <g id="LP3" stroke="none" stroke-width="1" fill="none" fill-rule="evenodd">
        <g id="LP3-1366" transform="translate(-698.000000, -4681.000000)">
            <g id="Footer" transform="translate(476.000000, 4588.000000)">
                <g id="socialmedia" transform="translate(0.000000, 93.000000)">
                    <g id="t" transform="translate(222.000000, 0.000000)">
                        <g id="Group-10">
                            <mask id="mask-2" fill="white">
                                <use xlink:href="#path-1"></use>
                            </mask>
                            <g id="Clip-9"></g>
                            <path d="M22.1982,0.8996 C34.3762,0.8996 44.2482,10.7726 44.2482,22.9506 C44.2482,35.1286 34.3762,45.0006 22.1982,45.0006 C10.0202,45.0006 0.1482,35.1286 0.1482,22.9506 C0.1482,10.7726 10.0202,0.8996 22.1982,0.8996" id="Fill-8" fill="#324C9A" mask="url(#mask-2)"></path>
                        </g>
                        <path d="M18.5288,33.591 C26.2728,33.642 32.5908,27.406 32.6418,19.662 C32.6428,19.602 32.6428,19.54 32.6418,19.479 C32.6418,19.266 32.6418,19.053 32.6318,18.841 C33.6038,18.137 34.4418,17.266 35.1078,16.268 C34.2008,16.668 33.2388,16.932 32.2548,17.051 C33.2908,16.43 34.0658,15.453 34.4358,14.304 C33.4618,14.882 32.3948,15.288 31.2828,15.504 C29.4088,13.505 26.2698,13.404 24.2708,15.279 C23.2688,16.218 22.7008,17.53 22.7028,18.904 C22.7088,19.283 22.7528,19.66 22.8358,20.03 C18.8468,19.829 15.1308,17.945 12.6118,14.845 C11.3008,17.114 11.9738,20.011 14.1498,21.471 C13.3638,21.444 12.5948,21.232 11.9058,20.852 L11.9058,20.92 C11.9078,23.28 13.5698,25.313 15.8818,25.785 C15.1538,25.983 14.3898,26.013 13.6478,25.872 C14.2968,27.893 16.1588,29.277 18.2808,29.315 C16.5248,30.696 14.3538,31.445 12.1188,31.443 C11.7248,31.445 11.3308,31.422 10.9388,31.375 C13.2068,32.822 15.8418,33.591 18.5318,33.59" id="Fill-11" fill="#FFFFFF"></path>
                    </g>
                </g>
            </g>
        </g>
    </g>
</svg>