<?xml version="1.0" encoding="UTF-8"?>
<svg width="45px" height="45px" viewBox="0 0 45 45" version="1.1" xmlns="http://www.w3.org/2000/svg" xmlns:xlink="http://www.w3.org/1999/xlink">
    <!-- Generator: Sketch 50 (54983) - http://www.bohemiancoding.com/sketch -->
    <title>Te@3x</title>
    <desc>Created with Sketch.</desc>
    <defs>
        <polygon id="path-1" points="0 0.9 44.0998 0.9 44.0998 45 0 45"></polygon>
        <polygon id="path-3" points="6.305 11.9663 33.717 11.9663 33.717 36.5077286 6.305 36.5077286"></polygon>
    </defs>
    <g id="LP3" stroke="none" stroke-width="1" fill="none" fill-rule="evenodd">
        <g id="LP3-1366" transform="translate(-476.000000, -4682.000000)">
            <g id="Footer" transform="translate(476.000000, 4588.000000)">
                <g id="socialmedia" transform="translate(0.000000, 93.000000)">
                    <g id="Te">
                        <g id="Group-25" transform="translate(0.000000, 0.100000)">
                            <mask id="mask-2" fill="white">
                                <use xlink:href="#path-1"></use>
                            </mask>
                            <g id="Clip-24"></g>
                            <path d="M22.0498,0.8996 C34.2278,0.8996 44.0998,10.7726 44.0998,22.9506 C44.0998,35.1286 34.2278,45.0006 22.0498,45.0006 C9.8718,45.0006 -0.0002,35.1286 -0.0002,22.9506 C-0.0002,10.7726 9.8718,0.8996 22.0498,0.8996" id="Fill-23" fill="#324C9A" mask="url(#mask-2)"></path>
                        </g>
                        <mask id="mask-4" fill="white">
                            <use xlink:href="#path-3"></use>
                        </mask>
                        <g id="Clip-28"></g>
                        <path d="M10.375,23.0943 L14.935,24.8303 C15.264,24.9563 15.514,25.2333 15.605,25.5733 L16.184,27.7663 C16.209,27.5113 16.325,27.2733 16.51,27.0963 L27.91,16.1123 L10.375,23.0943 Z M16.365,28.5053 L17.179,31.6173 L18.952,30.3513 L16.636,28.7773 C16.528,28.7053 16.437,28.6143 16.365,28.5063 L16.365,28.5053 Z M21.486,29.4283 L27.621,33.5903 L30.933,16.1993 L18.971,27.7283 L21.45,29.4103 C21.468,29.4103 21.468,29.4293 21.486,29.4293 L21.486,29.4283 Z M28.381,36.5043 C28.162,36.5083 27.948,36.4453 27.766,36.3233 L20.871,31.6543 L17.179,34.3143 C16.694,34.6643 16.016,34.5563 15.666,34.0713 C15.587,33.9633 15.53,33.8423 15.496,33.7143 L13.633,26.6593 L6.992,24.1253 C6.432,23.9033 6.159,23.2683 6.382,22.7083 C6.493,22.4303 6.714,22.2093 6.992,22.0993 L32.217,12.0563 C32.332,12.0073 32.454,11.9773 32.579,11.9663 L32.704,11.9663 C32.962,11.9853 33.206,12.0933 33.392,12.2743 L33.446,12.3273 C33.604,12.5023 33.7,12.7253 33.717,12.9613 L33.717,13.1423 C33.717,13.1783 33.699,13.2323 33.699,13.2693 L29.449,35.6353 C29.381,35.9943 29.137,36.2953 28.798,36.4353 C28.666,36.4873 28.524,36.5113 28.382,36.5073 L28.381,36.5043 Z" id="Fill-27" fill="#FFFFFF" mask="url(#mask-4)"></path>
                    </g>
                </g>
            </g>
        </g>
    </g>
</svg>