<?xml version="1.0" encoding="UTF-8"?>
<svg width="22px" height="26px" viewBox="0 0 22 26" version="1.1" xmlns="http://www.w3.org/2000/svg" xmlns:xlink="http://www.w3.org/1999/xlink">
    <!-- Generator: Sketch 50.2 (55047) - http://www.bohemiancoding.com/sketch -->
    <title>g@2x</title>
    <desc>Created with Sketch.</desc>
    <defs></defs>
    <g id="Official-Landing-page" stroke="none" stroke-width="1" fill="none" fill-rule="evenodd">
        <g id="Landing-Page-1366" transform="translate(-219.000000, -6628.000000)" fill="#FFFFFF">
            <g id="Footer" transform="translate(-1.500000, 3072.898023)">
                <g id="contact-us" transform="translate(134.000000, 3545.308262)">
                    <g id="g" transform="translate(74.791667, 0.000000)">
                        <path d="M33.283012,22.2962446 C33.0571875,23.08431 32.6869166,23.8235663 32.1894924,24.4753727 C31.7205505,25.0427798 31.1427652,25.5115516 30.4907224,25.8532161 C29.8793687,26.2101335 29.2212224,26.479601 28.5356111,26.6545007 C27.828638,26.8273667 27.1114926,26.9565077 26.3882438,27.0388733 C27.1816813,27.817787 27.5814517,28.9119269 27.4776945,30.019286 L27.4776945,34.4344862 C27.4776945,34.6165039 27.533642,34.7944542 27.6384164,34.9429155 C26.210229,35.3455915 24.7332146,35.5499801 23.2480624,35.5530307 C21.896167,35.5642161 20.5493578,35.3933839 19.2422204,35.0446014 C19.4039596,34.8829209 19.4965273,34.6632794 19.4985617,34.4344862 L19.4985617,31.4550904 L19.0174131,31.5516919 C18.6359528,31.608636 18.2504236,31.6310069 17.8638771,31.615754 C17.3796768,31.6096529 16.8954765,31.5557594 16.4214485,31.4550904 C15.9057141,31.3635731 15.4204966,31.1429148 15.0115711,30.8144694 C14.5884045,30.4829735 14.2669606,30.0386063 14.0818251,29.5332275 L13.8570179,29.0522534 C13.6891753,28.673982 13.4735231,28.3190983 13.2161645,27.9947204 C12.9862711,27.6591571 12.6780512,27.3846052 12.3189698,27.1934358 L12.1582479,27.0978511 C12.0575424,27.0276878 11.971078,26.9412549 11.9019066,26.8416027 C11.8164594,26.7612709 11.7503396,26.6616187 11.7096505,26.551798 C11.6801509,26.4541796 11.7238917,26.3484263 11.8134078,26.2996171 C12.006681,26.2192852 12.2152126,26.1857289 12.4237443,26.2030155 L12.8408076,26.2670776 C13.2120956,26.3697803 13.5599874,26.5426463 13.8661729,26.7755069 C14.2791673,27.0653116 14.6270591,27.436465 14.8915383,27.8645625 C15.1712758,28.3841773 15.5659601,28.8346457 16.0450743,29.1783439 C16.4509481,29.4600137 16.9300622,29.6155931 17.4234176,29.6267785 C17.8211535,29.6318628 18.2178723,29.6003402 18.6095049,29.530177 C18.9340005,29.472216 19.2473065,29.364429 19.5392508,29.2098665 C19.611474,28.3943459 19.9756414,27.6327187 20.5646162,27.0632779 C19.8291607,26.9992158 19.0998085,26.8700748 18.3857148,26.6789053 C17.7051896,26.4897696 17.0490778,26.2203021 16.4306035,25.8776207 C15.7866985,25.5247708 15.2201027,25.0448135 14.7643848,24.4692715 C14.2761156,23.8144145 13.9078792,23.0782089 13.6759514,22.2962446 C13.3768865,21.2773522 13.2365091,20.2188024 13.2588881,19.157202 C13.2171817,17.5627676 13.8163288,16.0161256 14.9210379,14.8650416 C14.4002174,13.481097 14.4581993,11.9456405 15.0817598,10.6044039 C15.695148,10.5047518 16.3248118,10.6064376 16.8761492,10.8931918 C17.4732617,11.1128332 18.0520642,11.3812839 18.605436,11.6944764 C18.989948,11.9192021 19.2788406,12.1113884 19.5026306,12.2720521 C20.8077336,11.913101 22.1545428,11.7290496 23.5084726,11.725999 C24.8613853,11.725999 26.2071773,11.9080167 27.5102457,12.2679847 L28.311821,11.7595553 C28.9272437,11.3985705 29.5701315,11.0874118 30.2343811,10.8301465 C30.7602877,10.5688139 31.3574003,10.4905158 31.933151,10.6044039 C32.5567115,11.9456405 32.6157107,13.481097 32.093873,14.8650416 C33.1456863,16.0456145 33.7183853,17.5759868 33.7000753,19.157202 C33.7071958,20.2177855 33.5668184,21.2743017 33.283012,22.2962446 Z"></path>
                    </g>
                </g>
            </g>
        </g>
    </g>
</svg>