<?xml version="1.0" encoding="UTF-8"?>
<svg width="23px" height="19px" viewBox="0 0 23 19" version="1.1" xmlns="http://www.w3.org/2000/svg" xmlns:xlink="http://www.w3.org/1999/xlink">
    <!-- Generator: Sketch 50.2 (55047) - http://www.bohemiancoding.com/sketch -->
    <title>M@2x</title>
    <desc>Created with Sketch.</desc>
    <defs></defs>
    <g id="Official-Landing-page" stroke="none" stroke-width="1" fill="none" fill-rule="evenodd">
        <g id="Landing-Page-1366" transform="translate(-441.000000, -6632.000000)" fill="#FFFFFF">
            <g id="Footer" transform="translate(-1.500000, 3072.898023)">
                <g id="contact-us" transform="translate(134.000000, 3545.308262)">
                    <g id="M" transform="translate(296.791667, 0.000000)">
                        <g id="Page-1">
                            <path d="M14.6088382,17.6720084 C14.6362135,17.3937041 14.5332364,17.1185639 14.3315037,16.9312259 L12.2773346,14.381004 L12.2773346,14 L18.6555181,14 L23.5854983,25.1428509 L27.9197465,14 L34,14 L34,14.381004 L32.243633,16.1164838 C32.0923014,16.2353992 32.0172113,16.430911 32.0485522,16.6243134 L32.0485522,29.3756866 C32.0172113,29.5692209 32.0923014,29.7646008 32.243633,29.8835162 L33.9589371,31.6191278 L33.9589371,32 L25.3315037,32 L25.3315037,31.6191278 L27.1083382,29.8411971 C27.2829515,29.6613737 27.2829515,29.6085078 27.2829515,29.3333675 L27.2829515,19.0264842 L22.3427375,31.9576809 L21.6751134,31.9576809 L15.9234911,19.0264842 L15.9234911,27.6930728 C15.8755204,28.0574655 15.9929527,28.4243632 16.2418886,28.6877701 L18.5527968,31.5766769 L18.5527968,31.9576809 L12,31.9576809 L12,31.5766769 L14.3110362,28.6877701 C14.5581812,28.4238358 14.6687057,28.0545652 14.6088382,27.6930728 L14.6088382,17.6720084 Z" id="M"></path>
                        </g>
                    </g>
                </g>
            </g>
        </g>
    </g>
</svg>