<?xml version="1.0" encoding="UTF-8"?>
<svg width="25px" height="21px" viewBox="0 0 25 21" version="1.1" xmlns="http://www.w3.org/2000/svg" xmlns:xlink="http://www.w3.org/1999/xlink">
    <!-- Generator: Sketch 50.2 (55047) - http://www.bohemiancoding.com/sketch -->
    <title>t@2x</title>
    <desc>Created with Sketch.</desc>
    <defs></defs>
    <g id="Official-Landing-page" stroke="none" stroke-width="1" fill="none" fill-rule="evenodd">
        <g id="Landing-Page-1366" transform="translate(-291.000000, -6632.000000)" fill="#FFFFFF">
            <g id="Footer" transform="translate(-1.500000, 3072.898023)">
                <g id="contact-us" transform="translate(134.000000, 3545.308262)">
                    <g id="t" transform="translate(148.154948, 0.000000)">
                        <path d="M18.4757275,33.9358628 C26.1655781,33.9877577 32.4393999,27.642341 32.4900433,19.7624651 C32.4910363,19.7014123 32.4910363,19.6383245 32.4900433,19.5762541 C32.4900433,19.3595169 32.4900433,19.1427796 32.4801133,18.9270598 C33.4453166,18.2107075 34.277457,17.3244249 34.9388,16.3089141 C34.0381421,16.7159324 33.0828688,16.9845646 32.1057494,17.1056525 C33.1345052,16.4737565 33.9040861,15.4796141 34.2714989,14.3104538 C33.3043095,14.8985953 32.2447705,15.311719 31.140546,15.5315089 C29.2796498,13.4974346 26.1625991,13.3946624 24.1775769,15.3025611 C23.1825834,16.2580368 22.6185551,17.5930571 22.6205411,18.9911652 C22.6264991,19.3768151 22.6701915,19.76043 22.7526111,20.136922 C18.7915039,19.9323952 15.1014877,18.0153386 12.6001017,14.8609461 C11.2982687,17.1697579 11.9665628,20.1175886 14.1273473,21.6032057 C13.3468434,21.575732 12.5832205,21.3600122 11.8990383,20.9733448 L11.8990383,21.0425379 C11.9010243,23.4439464 13.5514029,25.5126173 15.8472364,25.992899 C15.1243269,26.1943731 14.3656691,26.2248995 13.6288575,26.0814255 C14.2733194,28.1378859 16.1222995,29.5461695 18.2294616,29.5848363 C16.4857403,30.9900672 14.3299209,31.7522092 12.1105489,31.7501741 C11.719304,31.7522092 11.328059,31.7288056 10.9388,31.680981 C13.1909412,33.15337 15.8075161,33.9358628 18.4787065,33.9348453"></path>
                    </g>
                </g>
            </g>
        </g>
    </g>
</svg>