<?xml version="1.0" encoding="UTF-8"?>
<svg width="28px" height="25px" viewBox="0 0 28 25" version="1.1" xmlns="http://www.w3.org/2000/svg" xmlns:xlink="http://www.w3.org/1999/xlink">
    <!-- Generator: Sketch 50.2 (55047) - http://www.bohemiancoding.com/sketch -->
    <title>Te@2x</title>
    <desc>Created with Sketch.</desc>
    <defs></defs>
    <g id="Official-Landing-page" stroke="none" stroke-width="1" fill="none" fill-rule="evenodd">
        <g id="Landing-Page-1366" transform="translate(-139.000000, -6630.000000)" fill="#FFFFFF">
            <g id="Footer" transform="translate(-1.500000, 3072.898023)">
                <g id="contact-us" transform="translate(134.000000, 3545.308262)">
                    <g id="Te" transform="translate(0.791667, 0.000000)">
                        <path d="M10.3137063,22.8487961 L14.805046,24.5464968 C15.1290923,24.669717 15.375328,24.9406058 15.4649578,25.2731048 L16.0352398,27.4177232 C16.0598633,27.168349 16.1741167,26.9355997 16.3563311,26.7625047 L27.5846805,16.0208317 L10.3137063,22.8487961 Z M16.2135144,28.1404196 L17.015258,31.1837632 L18.7615618,29.9456934 L16.480434,28.4064187 C16.3740601,28.3360072 16.2844303,28.2470148 16.2135144,28.1413975 L16.2135144,28.1404196 Z M21.2574071,29.0430565 L27.300032,33.1132352 L30.5621629,16.1059123 L18.7802757,27.3805616 L21.2219492,29.0254536 C21.2396782,29.0254536 21.2396782,29.0440344 21.2574071,29.0440344 L21.2574071,29.0430565 Z M28.0485886,35.9629471 C27.8328861,35.9668588 27.6221083,35.9052487 27.4428487,35.7859403 L20.6516672,31.2199469 L17.015258,33.8212625 C16.5375606,34.1635408 15.8697693,34.0579235 15.5250393,33.5836235 C15.4472288,33.4780062 15.3910871,33.3596756 15.357599,33.2344995 L13.5226504,26.3351457 L6.98164441,23.8570503 C6.43007637,23.6399481 6.16118695,23.0189573 6.38082922,22.4713119 C6.49015789,22.1994451 6.70783027,21.9833208 6.98164441,21.8757476 L31.8268296,12.0543144 C31.9400981,12.0063955 32.0602611,11.9770573 32.183379,11.9663 L32.3064968,11.9663 C32.5606121,11.9848808 32.8009382,12.0904981 32.9841376,12.267505 L33.0373245,12.3193357 C33.1929455,12.4904749 33.2875,12.7085551 33.304244,12.9393485 L33.304244,13.1163553 C33.304244,13.1515611 33.2865151,13.2043697 33.2865151,13.2405534 L29.1005076,35.1131188 C29.0335315,35.4641986 28.7932054,35.758558 28.4593098,35.8954693 C28.3292973,35.9463221 28.1894354,35.9697926 28.0495735,35.9658809 L28.0485886,35.9629471 Z"></path>
                    </g>
                </g>
            </g>
        </g>
    </g>
</svg>