<?xml version="1.0" encoding="UTF-8"?>
<svg width="60px" height="60px" viewBox="0 0 60 60" version="1.1" xmlns="http://www.w3.org/2000/svg" xmlns:xlink="http://www.w3.org/1999/xlink">
    <!-- Generator: Sketch 51.2 (57519) - http://www.bohemiancoding.com/sketch -->
    <title>etc</title>
    <desc>Created with Sketch.</desc>
    <defs></defs>
    <g id="etc" stroke="none" stroke-width="1" fill="none" fill-rule="evenodd">
        <g transform="translate(14.000000, 7.000000)" id="Group-10">
            <g transform="translate(0.634146, 0.317073)">
                <polygon id="Stroke-3" stroke="#FFFFFF" stroke-width="0.936585366" stroke-linejoin="round" points="2.55865199 25.0121673 15.516022 42.922738 15.516022 32.7545349"></polygon>
                <polygon id="Stroke-5" stroke="#FFFFFF" stroke-width="0.936585366" stroke-linejoin="round" points="28.4736095 25.0121673 15.5162395 42.922738 15.5162395 32.7545349"></polygon>
                <polygon id="Stroke-16" stroke="#FFFFFF" stroke-width="0.936585366" points="15.5218237 14.8124174 2.53907126 22.3024111 15.4964412 29.8069091 28.4298792 22.3169154"></polygon>
                <polygon id="Stroke-20" stroke="#FFFFFF" stroke-width="0.936585366" stroke-linejoin="round" points="28.4736095 19.5426153 15.5162395 1.63204462 15.5162395 11.8002477"></polygon>
                <polygon id="Stroke-22" stroke="#FFFFFF" stroke-width="0.936585366" stroke-linejoin="round" points="2.55865199 19.5426153 15.516022 1.63204462 15.516022 11.8002477"></polygon>
                <path d="M15.5160945,3.78405952 C14.4818679,3.78405952 13.6429238,2.94511543 13.6429238,1.91088879 C13.6429238,0.875377399 14.4818679,0.0377180599 15.5160945,0.0377180599 C16.5516059,0.0377180599 17.3892652,0.875377399 17.3892652,1.91088879 C17.3892652,2.94511543 16.5516059,3.78405952 15.5160945,3.78405952" id="Fill-26" fill="#FEFEFE"></path>
                <path d="M15.5160945,44.2086022 C14.4818679,44.2086022 13.6429238,43.3696581 13.6429238,42.3354315 C13.6429238,41.2999201 14.4818679,40.4622607 15.5160945,40.4622607 C16.5516059,40.4622607 17.3892652,41.2999201 17.3892652,42.3354315 C17.3892652,43.3696581 16.5516059,44.2086022 15.5160945,44.2086022" id="Fill-26-Copy" fill="#FEFEFE"></path>
                <path d="M28.4298792,24.182834 C27.3956526,24.182834 26.5567085,23.3438899 26.5567085,22.3096632 C26.5567085,21.2741518 27.3956526,20.4364925 28.4298792,20.4364925 C29.4653906,20.4364925 30.30305,21.2741518 30.30305,22.3096632 C30.30305,23.3438899 29.4653906,24.182834 28.4298792,24.182834" id="Fill-26-Copy-2" fill="#FEFEFE"></path>
                <path d="M2.55865199,24.182834 C1.52442535,24.182834 0.685481259,23.3438899 0.685481259,22.3096632 C0.685481259,21.2741518 1.52442535,20.4364925 2.55865199,20.4364925 C3.59416338,20.4364925 4.43182272,21.2741518 4.43182272,22.3096632 C4.43182272,23.3438899 3.59416338,24.182834 2.55865199,24.182834" id="Fill-26-Copy-3" fill="#FEFEFE"></path>
            </g>
        </g>
    </g>
</svg>