<?xml version="1.0" encoding="UTF-8"?>
<svg width="60px" height="60px" viewBox="0 0 60 60" version="1.1" xmlns="http://www.w3.org/2000/svg" xmlns:xlink="http://www.w3.org/1999/xlink">
    <!-- Generator: Sketch 51.2 (57519) - http://www.bohemiancoding.com/sketch -->
    <title>icon</title>
    <desc>Created with Sketch.</desc>
    <defs></defs>
    <g id="icon" stroke="none" stroke-width="1" fill="none" fill-rule="evenodd">
        <g transform="translate(11.000000, 10.000000)">
            <g transform="translate(0.452729, 0.015434)">
                <path d="M18.3083327,34.8762494 C15.1225662,34.8762494 12.0701146,33.9035103 9.47920838,32.064684 L12.674169,27.5669149 C14.325435,28.7400861 16.2736715,29.3597706 18.3083327,29.3597706 C23.6823025,29.3597706 28.054112,24.9870417 28.054112,19.6130719 C28.054112,17.4735975 27.3746657,15.4444527 26.0902455,13.7453773 L30.4914762,10.4189405 C32.504991,13.0852386 33.5705908,16.2645693 33.5705908,19.6130719 C33.5705908,28.0293798 26.7237212,34.8762494 18.3083327,34.8762494 Z" id="Stroke-1" stroke="#FFFFFF" stroke-width="0.731707317"></path>
                <path d="M5.50752751,27.9286121 C3.8967157,25.4535519 3.04533913,22.5776276 3.04533913,19.6134397 C3.04533913,11.1980512 9.89312817,4.3502622 18.3085166,4.3502622 C21.2377669,4.3502622 24.0861088,5.18416991 26.5437001,6.76096344 L23.5648015,11.4039998 C21.9981215,10.3990812 20.1804418,9.86674101 18.3085166,9.86674101 C12.9345468,9.86674101 8.56181795,14.2394699 8.56181795,19.6134397 C8.56181795,21.5074307 9.1042717,23.3425793 10.1312562,24.9212117 L5.50752751,27.9286121 Z" id="Stroke-3" stroke="#FFFFFF" stroke-width="0.731707317"></path>
                <path d="M23.7134706,9.85460476 C24.4545176,9.85460476 25.053975,10.4540621 25.053975,11.1951091 C25.053975,11.9352367 24.4545176,12.5356135 23.7134706,12.5356135 C22.9724236,12.5356135 22.3729663,11.9352367 22.3729663,11.1951091 C22.3729663,10.4540621 22.9724236,9.85460476 23.7134706,9.85460476" id="Fill-5" fill="#FEFEFE"></path>
                <path d="M26.5436081,12.6873166 C27.2846551,12.6873166 27.8841125,13.286774 27.8841125,14.027821 C27.8841125,14.7679486 27.2846551,15.3683253 26.5436081,15.3683253 C25.8025611,15.3683253 25.2031038,14.7679486 25.2031038,14.027821 C25.2031038,13.286774 25.8025611,12.6873166 26.5436081,12.6873166" id="Fill-7" fill="#FEFEFE"></path>
                <path d="M26.951184,5.17672267 C27.692231,5.17672267 28.2916883,5.77618003 28.2916883,6.51722702 C28.2916883,7.25827401 27.692231,7.85773137 26.951184,7.85773137 C26.210137,7.85773137 25.6106796,7.25827401 25.6106796,6.51722702 C25.6106796,5.77618003 26.210137,5.17672267 26.951184,5.17672267" id="Fill-9" fill="#FEFEFE"></path>
                <path d="M30.585716,9.07880396 C31.326763,9.07880396 31.9262204,9.67826132 31.9262204,10.4193083 C31.9262204,11.1603553 31.326763,11.7598127 30.585716,11.7598127 C29.844669,11.7598127 29.2452117,11.1603553 29.2452117,10.4193083 C29.2452117,9.67826132 29.844669,9.07880396 30.585716,9.07880396" id="Fill-11" fill="#FEFEFE"></path>
                <path d="M5.92144731,26.4641708 C6.66157488,26.4641708 7.26195166,27.0636282 7.26195166,27.8046752 C7.26195166,28.5457222 6.66157488,29.1451795 5.92144731,29.1451795 C5.18040032,29.1451795 4.58094295,28.5457222 4.58094295,27.8046752 C4.58094295,27.0636282 5.18040032,26.4641708 5.92144731,26.4641708" id="Fill-13" fill="#FEFEFE"></path>
                <path d="M9.55597937,30.3663441 C10.2961069,30.3663441 10.8964837,30.9658014 10.8964837,31.7068484 C10.8964837,32.4478954 10.2961069,33.0473528 9.55597937,33.0473528 C8.81493239,33.0473528 8.21547502,32.4478954 8.21547502,31.7068484 C8.21547502,30.9658014 8.81493239,30.3663441 9.55597937,30.3663441" id="Fill-15" fill="#FEFEFE"></path>
                <path d="M10.419768,23.6045202 C11.1598956,23.6045202 11.7602724,24.2039775 11.7602724,24.9450245 C11.7602724,25.6851521 11.1598956,26.2855289 10.419768,26.2855289 C9.67872103,26.2855289 9.07926366,25.6851521 9.07926366,24.9450245 C9.07926366,24.2039775 9.67872103,23.6045202 10.419768,23.6045202" id="Fill-17" fill="#FEFEFE"></path>
                <path d="M12.6571599,25.9901214 C13.3972875,25.9901214 13.9976642,26.5895788 13.9976642,27.3306258 C13.9976642,28.0707533 13.3972875,28.6711301 12.6571599,28.6711301 C11.9161129,28.6711301 11.3166555,28.0707533 11.3166555,27.3306258 C11.3166555,26.5895788 11.9161129,25.9901214 12.6571599,25.9901214" id="Fill-19" fill="#FEFEFE"></path>
                <path d="M37.3367828,3.89726735 C37.3367828,6.01927286 35.6165608,7.73857543 33.4954747,7.73857543 C31.3743886,7.73857543 29.6541666,6.01927286 29.6541666,3.89726735 C29.6541666,1.77526183 31.3743886,0.0559592644 33.4954747,0.0559592644 C35.6165608,0.0559592644 37.3367828,1.77526183 37.3367828,3.89726735 Z" id="Stroke-21" stroke="#FFFFFF" stroke-width="0.731707317"></path>
                <path d="M7.73866737,34.623043 C7.73866737,36.7441291 6.01844539,38.4643511 3.89643987,38.4643511 C1.77627318,38.4643511 0.0560512058,36.7441291 0.0560512058,34.623043 C0.0560512058,32.5010375 1.77627318,30.7808155 3.89643987,30.7808155 C6.01844539,30.7808155 7.73866737,32.5010375 7.73866737,34.623043 Z" id="Stroke-23" stroke="#FFFFFF" stroke-width="0.731707317"></path>
            </g>
        </g>
    </g>
</svg>