<?xml version="1.0" encoding="UTF-8"?>
<svg width="60px" height="60px" viewBox="0 0 60 60" version="1.1" xmlns="http://www.w3.org/2000/svg" xmlns:xlink="http://www.w3.org/1999/xlink">
    <!-- Generator: Sketch 51.3 (57544) - http://www.bohemiancoding.com/sketch -->
    <title>NKN</title>
    <desc>Created with Sketch.</desc>
    <defs></defs>
    <g id="NKN" stroke="none" stroke-width="1" fill="none" fill-rule="evenodd">
        <g id="Group" transform="translate(10.000000, 8.500000)" stroke="#FFFFFF">
            <path d="M26.8372821,15.3325641 C26.2070256,14.5848718 25.6572821,13.8561538 25.0311282,13.2017949 C20.1290769,8.08179487 12.7065128,7.68076923 7.53010256,12.2274359 C7.18805128,12.5279487 7.12138462,12.7417949 7.38446154,13.1505128 C10.1152308,17.3864103 14.9870256,19.57 19.9454872,18.6992308 C22.5054872,18.2489744 24.7398462,17.0802564 26.8372821,15.3325641 Z" id="Stroke-1"></path>
            <path d="M23.436359,29.6609744 C24.247641,29.5902051 24.9825128,29.5584103 25.707641,29.4584103 C32.087641,28.5794359 36.0066154,23.4927692 36.382,17.7266154 C36.4030256,17.4009744 36.2727692,17.2589231 35.9814872,17.2225128 C35.1840513,17.1214872 34.3881538,16.967641 33.5881538,16.9384103 C26.7584103,16.6871282 21.3614872,21.5009744 20.5702051,28.9055897 C20.5368718,29.2230256 20.6312308,29.3702051 20.9517436,29.4009744 C21.8050769,29.4830256 22.6573846,29.5784103 23.436359,29.6609744 Z" id="Stroke-3"></path>
            <path d="M15.3353846,22.714359 C14.6266667,23.3076923 13.9133333,23.8441026 13.2692308,24.4538462 C8.10153846,29.3487179 7.66871795,36.794359 12.2189744,41.9876923 C12.5384615,42.3523077 12.754359,42.4112821 13.18,42.1333333 C18.2635897,38.814359 20.2220513,32.6841026 17.9723077,27.045641 C17.3512821,25.4897436 16.5082051,24.0666667 15.3353846,22.714359 Z" id="Stroke-5"></path>
            <path d="M13.3852821,20.6853333 C12.7647692,20.4217436 12.1888718,20.1366154 11.5868205,19.9278974 C6.90066667,18.3043077 2.21758974,20.3335385 0.369384615,24.7694359 C0.245794872,25.0658462 0.138615385,25.2925128 0.533487179,25.5135385 C5.46476923,28.2735385 11.1386154,26.1996923 13.3852821,20.6853333 Z" id="Stroke-7"></path>
            <path d="M22.8138462,5.19948718 C22.7707692,9.13641026 25.585641,11.9287179 28.465641,13.2507692 C28.7148718,13.3651282 28.8646154,13.3358974 28.9733333,13.0815385 C29.1758974,12.6046154 29.4133333,12.1410256 29.5871795,11.654359 C31.2635897,6.95487179 29.2297436,2.21230769 24.7641026,0.346153846 C24.3687179,0.181025641 24.1682051,0.22974359 23.9651282,0.612307692 C23.2333333,1.99692308 22.8046154,3.45333333 22.8138462,5.19948718 Z" id="Stroke-9"></path>
            <path d="M20.5292308,32.1740513 C20.8189744,33.3232821 21.3179487,34.3443077 21.9605128,35.2971282 C24.354359,38.8443077 28.6871795,40.1371282 32.6138462,38.4909744 C32.9117949,38.366359 33.0892308,38.2555897 32.9794872,37.8714872 C31.3661538,32.2094359 25.7420513,29.9689231 20.5292308,32.1740513 Z" id="Stroke-11"></path>
            <path d="M14.7399487,1.32702564 C14.5799487,1.32702564 14.4184103,1.31882051 14.2589231,1.3285641 C13.4471282,1.37779487 13.4307179,1.38035897 13.4830256,2.206 C13.7137949,5.87112821 16.6199487,8.43215385 20.5902051,8.17830769 C21.0245641,8.15061538 20.9414872,7.8634359 20.9322564,7.60651282 C20.8112308,4.0634359 18.2717436,1.486 14.7399487,1.32702564 Z" id="Stroke-13"></path>
            <path d="M29.8275897,30.3014359 C33.2275897,33.8419487 37.8952821,32.6778462 39.7363077,29.784 C37.4968205,27.029641 32.7547692,26.4993846 29.8275897,30.3014359 Z" id="Stroke-15"></path>
            <path d="M8.18897436,29.7574359 C8.18897436,29.5846154 8.17666667,29.3692308 8.19153846,29.1564103 C8.22692308,28.6661538 7.98641026,28.5282051 7.54179487,28.6117949 C7.01615385,28.7102564 6.47666667,28.7569231 5.96230769,28.8969231 C2.94846154,29.7164103 1.07512821,32.4302564 1.34435897,35.5261538 C1.38025641,35.9353846 1.53615385,36.1092308 1.94179487,36.0533333 C2.47205128,35.9810256 3.01564103,35.9646154 3.52897436,35.8307692 C6.30435897,35.1082051 7.95666667,32.9512821 8.18897436,29.7574359 Z" id="Stroke-17"></path>
        </g>
    </g>
</svg>