<?xml version="1.0" encoding="UTF-8"?>
<svg width="60px" height="60px" viewBox="0 0 60 60" version="1.1" xmlns="http://www.w3.org/2000/svg" xmlns:xlink="http://www.w3.org/1999/xlink">
    <!-- Generator: Sketch 51.2 (57519) - http://www.bohemiancoding.com/sketch -->
    <title>quark</title>
    <desc>Created with Sketch.</desc>
    <defs>
        <polygon id="path-1" points="0.000446780385 0.0928852313 3.66188218 0.0928852313 3.66188218 3.75243782 0.000446780385 3.75243782"></polygon>
        <polygon id="path-3" points="0.000446780385 0.0928852313 3.66188218 0.0928852313 3.66188218 3.75243782 0.000446780385 3.75243782"></polygon>
        <polygon id="path-5" points="0.000446780385 0.0928852313 3.66188218 0.0928852313 3.66188218 3.75243782 0.000446780385 3.75243782"></polygon>
        <polygon id="path-7" points="0.000446780385 0.0928852313 3.66188218 0.0928852313 3.66188218 3.75243782 0.000446780385 3.75243782"></polygon>
        <polygon id="path-9" points="0.000446780385 0.0928852313 3.66188218 0.0928852313 3.66188218 3.75243782 0.000446780385 3.75243782"></polygon>
        <polygon id="path-11" points="0.000446780385 0.0928852313 3.66188218 0.0928852313 3.66188218 3.75243782 0.000446780385 3.75243782"></polygon>
    </defs>
    <g id="quark" stroke="none" stroke-width="1" fill="none" fill-rule="evenodd">
        <g id="Group-28" transform="translate(7.000000, 10.000000)">
            <g id="Group-10" transform="translate(0.463672, 0.507617)">
                <polygon id="Fill-1" stroke="#FFFFFF" stroke-width="0.5" points="14.6132578 21.0429766 4.24919531 34.1703203 4.26091406 29.2695391 12.6374766 18.5304766"></polygon>
                <polygon id="Fill-3" stroke="#FFFFFF" stroke-width="0.5" points="40.6968516 34.4774453 30.1548984 21.0899453 32.1374766 18.5586953 40.6476328 29.2672891"></polygon>
                <path d="M30.1641563,16.0790078 C29.4889219,16.9529922 28.8326719,17.8037734 28.2068906,18.6147109 L23.2430625,12.3126016 C23.2430625,12.3126016 22.8118125,11.6680703 22.4110313,11.6680703 C22.01025,11.6680703 21.5787656,12.2211953 21.5787656,12.2211953 L16.6594688,18.4508828 L14.6740781,15.9193984 L20.6555625,8.25088281 C20.6555625,8.25088281 21.3631406,7.44932031 22.3193906,7.44932031 C23.2735313,7.44932031 23.7959531,8.06572656 23.7959531,8.06572656 L30.1641563,16.0790078 Z" id="Fill-5" stroke="#FFFFFF" stroke-width="0.5"></path>
                <g id="Group-9" transform="translate(0.000000, 1.026953)" stroke="#FFFFFF" stroke-width="0.5">
                    <path d="M44.8828594,1.86592969 L44.8219219,33.5745234 C44.8219219,33.5745234 44.0812969,34.7440547 42.8508281,34.6810078 C41.6203594,34.6198359 40.6969219,33.4505391 40.6969219,33.4505391 L40.6477031,28.2401484 L40.4508281,6.91436719 L32.1375469,17.5317891 L30.1547344,20.0630391 L24.0117656,27.9096797 C24.0117656,27.9096797 23.2734844,28.5260859 22.4109844,28.5260859 C21.54825,28.5260859 20.8711406,27.9708516 20.8711406,27.9708516 L14.6133281,20.0159297 L12.6375469,17.5036641 L4.31020312,6.91436719 L4.26098438,28.2424922 L4.24926563,33.1432734 C4.24926563,33.1432734 3.63285938,34.8049922 1.84692188,34.6810078 C0.063328125,34.5588984 0.063328125,33.3893672 0.063328125,33.3893672 L4.6875e-05,1.68335156 C4.6875e-05,1.68335156 0.49434375,0.511476563 1.47895313,0.265148437 C2.46332812,0.0190546875 3.57192188,0.757570312 3.57192188,0.757570312 L14.6740313,14.8924922 L16.6594219,17.4239766 L21.9023906,24.0987422 C21.9023906,24.0987422 22.1578594,24.4010859 22.5492656,24.4221797 C22.8959063,24.4432734 22.9898906,24.1622578 23.1047344,24.0778828 C23.2617656,23.9583516 25.4273906,21.1856953 28.2070781,17.5878047 C28.8328594,16.7768672 29.488875,15.9260859 30.1641094,15.0521016 C35.2172344,8.49194531 41.1279375,0.757570312 41.1279375,0.757570312 C41.1279375,0.757570312 42.4195781,-0.102585937 43.4672344,0.328429688 C44.5125469,0.757570312 44.8828594,1.86592969 44.8828594,1.86592969" id="Fill-7"></path>
                </g>
                <g id="Group-9-Copy-3" transform="translate(41.253659, 33.685490)">
                    <mask id="mask-2" fill="white">
                        <use xlink:href="#path-1"></use>
                    </mask>
                    <g id="Clip-8"></g>
                    <path d="M1.83053688,0.0922576283 C2.84223277,0.0922576283 3.66188218,0.911907034 3.66188218,1.92234773 C3.66188218,2.93404362 2.84223277,3.75243782 1.83053688,3.75243782 C0.820096186,3.75243782 0.000446780385,2.93404362 0.000446780385,1.92234773 C0.000446780385,0.911907034 0.820096186,0.0922576283 1.83053688,0.0922576283" id="Fill-7" fill="#FEFEFE" mask="url(#mask-2)"></path>
                </g>
                <g id="Group-9-Copy-12" transform="translate(0.000000, 33.685490)">
                    <mask id="mask-4" fill="white">
                        <use xlink:href="#path-3"></use>
                    </mask>
                    <g id="Clip-8"></g>
                    <path d="M1.83053688,0.0922576283 C2.84223277,0.0922576283 3.66188218,0.911907034 3.66188218,1.92234773 C3.66188218,2.93404362 2.84223277,3.75243782 1.83053688,3.75243782 C0.820096186,3.75243782 0.000446780385,2.93404362 0.000446780385,1.92234773 C0.000446780385,0.911907034 0.820096186,0.0922576283 1.83053688,0.0922576283" id="Fill-7" fill="#FEFEFE" mask="url(#mask-4)"></path>
                </g>
                <g id="Group-9-Copy-11" transform="translate(41.253659, 0.301568)">
                    <mask id="mask-6" fill="white">
                        <use xlink:href="#path-5"></use>
                    </mask>
                    <g id="Clip-8"></g>
                    <path d="M1.83053688,0.0922576283 C2.84223277,0.0922576283 3.66188218,0.911907034 3.66188218,1.92234773 C3.66188218,2.93404362 2.84223277,3.75243782 1.83053688,3.75243782 C0.820096186,3.75243782 0.000446780385,2.93404362 0.000446780385,1.92234773 C0.000446780385,0.911907034 0.820096186,0.0922576283 1.83053688,0.0922576283" id="Fill-7" fill="#FEFEFE" mask="url(#mask-6)"></path>
                </g>
                <g id="Group-9-Copy-13" transform="translate(0.000000, 0.301568)">
                    <mask id="mask-8" fill="white">
                        <use xlink:href="#path-7"></use>
                    </mask>
                    <g id="Clip-8"></g>
                    <path d="M1.83053688,0.0922576283 C2.84223277,0.0922576283 3.66188218,0.911907034 3.66188218,1.92234773 C3.66188218,2.93404362 2.84223277,3.75243782 1.83053688,3.75243782 C0.820096186,3.75243782 0.000446780385,2.93404362 0.000446780385,1.92234773 C0.000446780385,0.911907034 0.820096186,0.0922576283 1.83053688,0.0922576283" id="Fill-7" fill="#FEFEFE" mask="url(#mask-8)"></path>
                </g>
                <g id="Group-9-Copy-14" transform="translate(20.545946, 5.909966)">
                    <mask id="mask-10" fill="white">
                        <use xlink:href="#path-9"></use>
                    </mask>
                    <g id="Clip-8"></g>
                    <path d="M1.83053688,0.0922576283 C2.84223277,0.0922576283 3.66188218,0.911907034 3.66188218,1.92234773 C3.66188218,2.93404362 2.84223277,3.75243782 1.83053688,3.75243782 C0.820096186,3.75243782 0.000446780385,2.93404362 0.000446780385,1.92234773 C0.000446780385,0.911907034 0.820096186,0.0922576283 1.83053688,0.0922576283" id="Fill-7" fill="#FEFEFE" mask="url(#mask-10)"></path>
                </g>
                <g id="Group-9-Copy-15" transform="translate(20.545946, 27.451470)">
                    <mask id="mask-12" fill="white">
                        <use xlink:href="#path-11"></use>
                    </mask>
                    <g id="Clip-8"></g>
                    <path d="M1.83053688,0.0922576283 C2.84223277,0.0922576283 3.66188218,0.911907034 3.66188218,1.92234773 C3.66188218,2.93404362 2.84223277,3.75243782 1.83053688,3.75243782 C0.820096186,3.75243782 0.000446780385,2.93404362 0.000446780385,1.92234773 C0.000446780385,0.911907034 0.820096186,0.0922576283 1.83053688,0.0922576283" id="Fill-7" fill="#FEFEFE" mask="url(#mask-12)"></path>
                </g>
            </g>
        </g>
    </g>
</svg>