<?xml version="1.0" encoding="UTF-8"?>
<svg width="60px" height="60px" viewBox="0 0 60 60" version="1.1" xmlns="http://www.w3.org/2000/svg" xmlns:xlink="http://www.w3.org/1999/xlink">
    <!-- Generator: Sketch 51.2 (57519) - http://www.bohemiancoding.com/sketch -->
    <title>wan</title>
    <desc>Created with Sketch.</desc>
    <defs>
        <polygon id="path-1" points="0.000446780385 0.0928852313 3.66188218 0.0928852313 3.66188218 3.75243782 0.000446780385 3.75243782"></polygon>
        <polygon id="path-3" points="0.000446780385 0.0928852313 3.66188218 0.0928852313 3.66188218 3.75243782 0.000446780385 3.75243782"></polygon>
        <polygon id="path-5" points="0.000446780385 0.0928852313 3.66188218 0.0928852313 3.66188218 3.75243782 0.000446780385 3.75243782"></polygon>
        <polygon id="path-7" points="0.000446780385 0.0928852313 3.66188218 0.0928852313 3.66188218 3.75243782 0.000446780385 3.75243782"></polygon>
        <polygon id="path-9" points="0.000446780385 0.0928852313 3.66188218 0.0928852313 3.66188218 3.75243782 0.000446780385 3.75243782"></polygon>
        <polygon id="path-11" points="0.000446780385 0.0928852313 3.66188218 0.0928852313 3.66188218 3.75243782 0.000446780385 3.75243782"></polygon>
        <polygon id="path-13" points="0.000446780385 0.0928852313 3.66188218 0.0928852313 3.66188218 3.75243782 0.000446780385 3.75243782"></polygon>
        <polygon id="path-15" points="0.000446780385 0.0928852313 3.66188218 0.0928852313 3.66188218 3.75243782 0.000446780385 3.75243782"></polygon>
        <polygon id="path-17" points="0.000446780385 0.0928852313 3.66188218 0.0928852313 3.66188218 3.75243782 0.000446780385 3.75243782"></polygon>
    </defs>
    <g id="wan" stroke="none" stroke-width="1" fill="none" fill-rule="evenodd">
        <g transform="translate(10.000000, 6.000000)">
            <g transform="translate(0.798490, 0.760556)">
                <polygon id="Stroke-1" stroke="#FFFFFF" stroke-width="0.936585366" stroke-linejoin="round" points="2.66590477 13.522017 7.63467169 15.4330101 7.63467169 27.470973 19.6717105 20.4008529 31.9018817 27.470973 32.0931658 15.4330101 36.8697245 13.3307328 36.8697245 35.6869497 19.6717105 25.751264 2.28426059 36.069518"></polygon>
                <polygon id="Stroke-3" stroke="#FFFFFF" stroke-width="0.936585366" stroke-linejoin="round" points="3.04856543 12.184599 7.6347641 14.094668 19.8630871 7.02547203 31.9019741 14.094668 36.2959646 12.184599 19.4814429 2.43927336"></polygon>
                <polygon id="Stroke-5" stroke="#FFFFFF" stroke-width="0.936585366" stroke-linejoin="round" points="10.3094152 32.6307468 6.67871309 34.9224601 19.6721726 42.1847884 32.8569162 34.9224601 29.035854 32.6307468 19.8634567 37.7898738"></polygon>
                <g id="Group-9" transform="translate(17.734562, 0.509402)">
                    <mask id="mask-2" fill="white">
                        <use xlink:href="#path-1"></use>
                    </mask>
                    <g id="Clip-8"></g>
                    <path d="M1.83053688,0.0922576283 C2.84223277,0.0922576283 3.66188218,0.911907034 3.66188218,1.92234773 C3.66188218,2.93404362 2.84223277,3.75243782 1.83053688,3.75243782 C0.820096186,3.75243782 0.000446780385,2.93404362 0.000446780385,1.92234773 C0.000446780385,0.911907034 0.820096186,0.0922576283 1.83053688,0.0922576283" id="Fill-7" fill="#FEFEFE" mask="url(#mask-2)"></path>
                </g>
                <g id="Group-9-Copy" transform="translate(17.734562, 5.925507)">
                    <mask id="mask-4" fill="white">
                        <use xlink:href="#path-3"></use>
                    </mask>
                    <g id="Clip-8"></g>
                    <path d="M1.83053688,0.0922576283 C2.84223277,0.0922576283 3.66188218,0.911907034 3.66188218,1.92234773 C3.66188218,2.93404362 2.84223277,3.75243782 1.83053688,3.75243782 C0.820096186,3.75243782 0.000446780385,2.93404362 0.000446780385,1.92234773 C0.000446780385,0.911907034 0.820096186,0.0922576283 1.83053688,0.0922576283" id="Fill-7" fill="#FEFEFE" mask="url(#mask-4)"></path>
                </g>
                <g id="Group-9-Copy-2" transform="translate(17.734562, 18.430843)">
                    <mask id="mask-6" fill="white">
                        <use xlink:href="#path-5"></use>
                    </mask>
                    <g id="Clip-8"></g>
                    <path d="M1.83053688,0.0922576283 C2.84223277,0.0922576283 3.66188218,0.911907034 3.66188218,1.92234773 C3.66188218,2.93404362 2.84223277,3.75243782 1.83053688,3.75243782 C0.820096186,3.75243782 0.000446780385,2.93404362 0.000446780385,1.92234773 C0.000446780385,0.911907034 0.820096186,0.0922576283 1.83053688,0.0922576283" id="Fill-7" fill="#FEFEFE" mask="url(#mask-6)"></path>
                </g>
                <g id="Group-9-Copy-3" transform="translate(17.734562, 23.846948)">
                    <mask id="mask-8" fill="white">
                        <use xlink:href="#path-7"></use>
                    </mask>
                    <g id="Clip-8"></g>
                    <path d="M1.83053688,0.0922576283 C2.84223277,0.0922576283 3.66188218,0.911907034 3.66188218,1.92234773 C3.66188218,2.93404362 2.84223277,3.75243782 1.83053688,3.75243782 C0.820096186,3.75243782 0.000446780385,2.93404362 0.000446780385,1.92234773 C0.000446780385,0.911907034 0.820096186,0.0922576283 1.83053688,0.0922576283" id="Fill-7" fill="#FEFEFE" mask="url(#mask-8)"></path>
                </g>
                <g id="Group-9-Copy-4" transform="translate(17.734562, 39.843325)">
                    <mask id="mask-10" fill="white">
                        <use xlink:href="#path-9"></use>
                    </mask>
                    <g id="Clip-8"></g>
                    <path d="M1.83053688,0.0922576283 C2.84223277,0.0922576283 3.66188218,0.911907034 3.66188218,1.92234773 C3.66188218,2.93404362 2.84223277,3.75243782 1.83053688,3.75243782 C0.820096186,3.75243782 0.000446780385,2.93404362 0.000446780385,1.92234773 C0.000446780385,0.911907034 0.820096186,0.0922576283 1.83053688,0.0922576283" id="Fill-7" fill="#FEFEFE" mask="url(#mask-10)"></path>
                </g>
                <g id="Group-9-Copy-5" transform="translate(0.411090, 33.728055)">
                    <mask id="mask-12" fill="white">
                        <use xlink:href="#path-11"></use>
                    </mask>
                    <g id="Clip-8"></g>
                    <path d="M1.83053688,0.0922576283 C2.84223277,0.0922576283 3.66188218,0.911907034 3.66188218,1.92234773 C3.66188218,2.93404362 2.84223277,3.75243782 1.83053688,3.75243782 C0.820096186,3.75243782 0.000446780385,2.93404362 0.000446780385,1.92234773 C0.000446780385,0.911907034 0.820096186,0.0922576283 1.83053688,0.0922576283" id="Fill-7" fill="#FEFEFE" mask="url(#mask-12)"></path>
                </g>
                <g id="Group-9-Copy-6" transform="translate(34.996554, 33.728055)">
                    <mask id="mask-14" fill="white">
                        <use xlink:href="#path-13"></use>
                    </mask>
                    <g id="Clip-8"></g>
                    <path d="M1.83053688,0.0922576283 C2.84223277,0.0922576283 3.66188218,0.911907034 3.66188218,1.92234773 C3.66188218,2.93404362 2.84223277,3.75243782 1.83053688,3.75243782 C0.820096186,3.75243782 0.000446780385,2.93404362 0.000446780385,1.92234773 C0.000446780385,0.911907034 0.820096186,0.0922576283 1.83053688,0.0922576283" id="Fill-7" fill="#FEFEFE" mask="url(#mask-14)"></path>
                </g>
                <g id="Group-9-Copy-7" transform="translate(34.996554, 10.608434)">
                    <mask id="mask-16" fill="white">
                        <use xlink:href="#path-15"></use>
                    </mask>
                    <g id="Clip-8"></g>
                    <path d="M1.83053688,0.0922576283 C2.84223277,0.0922576283 3.66188218,0.911907034 3.66188218,1.92234773 C3.66188218,2.93404362 2.84223277,3.75243782 1.83053688,3.75243782 C0.820096186,3.75243782 0.000446780385,2.93404362 0.000446780385,1.92234773 C0.000446780385,0.911907034 0.820096186,0.0922576283 1.83053688,0.0922576283" id="Fill-7" fill="#FEFEFE" mask="url(#mask-16)"></path>
                </g>
                <g id="Group-9-Copy-8" transform="translate(1.175395, 10.608434)">
                    <mask id="mask-18" fill="white">
                        <use xlink:href="#path-17"></use>
                    </mask>
                    <g id="Clip-8"></g>
                    <path d="M1.83053688,0.0922576283 C2.84223277,0.0922576283 3.66188218,0.911907034 3.66188218,1.92234773 C3.66188218,2.93404362 2.84223277,3.75243782 1.83053688,3.75243782 C0.820096186,3.75243782 0.000446780385,2.93404362 0.000446780385,1.92234773 C0.000446780385,0.911907034 0.820096186,0.0922576283 1.83053688,0.0922576283" id="Fill-7" fill="#FEFEFE" mask="url(#mask-18)"></path>
                </g>
            </g>
        </g>
    </g>
</svg>