<?xml version="1.0" encoding="UTF-8"?>
<svg width="188px" height="129px" viewBox="0 0 188 129" version="1.1" xmlns="http://www.w3.org/2000/svg" xmlns:xlink="http://www.w3.org/1999/xlink">
    <!-- Generator: Sketch 50 (54983) - http://www.bohemiancoding.com/sketch -->
    <title>ethereum@3x</title>
    <desc>Created with Sketch.</desc>
    <defs></defs>
    <g id="LP3" stroke="none" stroke-width="1" fill="none" fill-rule="evenodd">
        <g id="(Final)-LP3-1366" transform="translate(-366.000000, -4200.000000)" fill-rule="nonzero">
            <g id="ethereum" transform="translate(366.000000, 4200.000000)">
                <path d="M17.0296977,119.554446 C17.0296977,119.968396 16.6831352,120.305332 16.2691855,120.305332 L1.61729181,120.305332 C1.98310782,123.924985 4.70747438,127.226956 8.53891569,127.226956 C11.1573881,127.226956 13.101989,126.225775 14.565253,124.136773 C14.7770412,123.847971 15.0947236,123.665063 15.4990465,123.838344 C15.7204615,123.934612 15.8744893,124.136773 15.9129962,124.367815 C15.9515032,124.608483 15.884116,124.743258 15.8167288,124.878032 C14.3438381,127.448371 11.4076833,128.709473 8.52928895,128.709473 C3.60039963,128.709473 0.0866406327,124.300428 0.0866406327,119.583327 C0.0866406327,114.866226 3.60039963,110.45718 8.52928895,110.45718 C13.4581783,110.447553 17.020071,114.846972 17.0296977,119.554446 Z M15.4605396,118.842068 C15.1428573,115.222415 12.370357,111.920444 8.53891569,111.920444 C4.70747438,111.920444 1.98310782,115.222415 1.61729181,118.842068 L15.4605396,118.842068 Z M34.8102809,110.813369 C35.2338573,110.813369 35.5419129,111.179185 35.5419129,111.545001 C35.5419129,111.968578 35.2242306,112.276633 34.8102809,112.276633 L30.8825722,112.276633 L30.8825722,127.689039 C30.8825722,128.054855 30.5648899,128.420671 30.1509402,128.420671 C29.7273638,128.420671 29.4193082,128.054855 29.4193082,127.689039 L29.4193082,112.276633 L25.6456273,112.276633 C25.2220509,112.276633 24.9139953,111.958951 24.9139953,111.545001 C24.9139953,111.179185 25.2316776,110.813369 25.6456273,110.813369 L29.4193082,110.813369 L29.4193082,105.172101 C29.4193082,104.815912 29.6599766,104.488603 30.0065391,104.430843 C30.4975027,104.353829 30.8825722,104.690765 30.8825722,105.152848 L30.8825722,110.813369 L34.8102809,110.813369 Z M58.7712292,118.264464 L58.7712292,127.602399 C58.7712292,128.025975 58.4054132,128.334031 58.0395972,128.334031 C57.6160208,128.334031 57.3079652,128.016348 57.3079652,127.602399 L57.3079652,118.264464 C57.3079652,115.116521 55.5270188,111.968578 52.0132598,111.968578 C47.5079469,111.968578 45.5633461,115.905913 45.823268,119.939516 C45.823268,120.04541 45.8714017,120.51712 45.8714017,120.565254 L45.8714017,127.573518 C45.8714017,127.929708 45.6307332,128.257017 45.2841707,128.314777 C44.7932071,128.391791 44.4081376,128.054855 44.4081376,127.592772 L44.4081376,96.9219878 C44.4081376,96.5561718 44.72582,96.1903558 45.1397696,96.1903558 C45.5633461,96.1903558 45.8714017,96.5561718 45.8714017,96.9219878 L45.8714017,114.278995 C47.1325042,112.026338 49.3851607,110.505314 52.0036331,110.505314 C56.3067845,110.505314 58.7712292,114.278995 58.7712292,118.264464 Z M85.0425944,119.554446 C85.0425944,119.968396 84.6960319,120.305332 84.2820822,120.305332 L69.6205618,120.305332 C69.9863778,123.924985 72.7107443,127.226956 76.5421856,127.226956 C79.1606581,127.226956 81.105259,126.225775 82.568523,124.136773 C82.7803112,123.847971 83.0979935,123.665063 83.5023165,123.838344 C83.7237314,123.934612 83.8777592,124.136773 83.9162662,124.367815 C83.9547731,124.608483 83.8873859,124.743258 83.8199988,124.878032 C82.347108,127.448371 79.4109533,128.709473 76.5325589,128.709473 C71.6036696,128.709473 68.0899106,124.300428 68.0899106,119.583327 C68.0899106,114.866226 71.6036696,110.45718 76.5325589,110.45718 C81.471075,110.447553 85.0329676,114.846972 85.0425944,119.554446 Z M83.4638095,118.842068 C83.1461272,115.222415 80.373627,111.920444 76.5421856,111.920444 C72.7107443,111.920444 69.9863778,115.222415 69.6205618,118.842068 L83.4638095,118.842068 Z M103.025339,111.496868 C103.025339,111.968578 102.765417,112.2285 102.341841,112.28626 C98.0386893,112.911998 96.1037152,116.425757 96.1037152,120.51712 L96.1037152,127.525385 C96.1037152,127.881574 95.8630467,128.208883 95.5164842,128.266643 C95.0255206,128.343657 94.6404511,128.006721 94.6404511,127.544638 L94.6404511,111.573881 C94.6404511,111.217692 94.8811196,110.890383 95.2276821,110.832623 C95.7186457,110.755609 96.1037152,111.092545 96.1037152,111.554628 L96.1037152,114.808465 C97.3070573,112.767597 99.7233683,110.822996 102.235947,110.822996 C102.601763,110.813369 103.025339,111.082918 103.025339,111.496868 Z M127.092181,119.554446 C127.092181,119.968396 126.745619,120.305332 126.331669,120.305332 L111.679776,120.305332 C112.045592,123.924985 114.769958,127.226956 118.601399,127.226956 C121.219872,127.226956 123.164473,126.225775 124.627737,124.136773 C124.839525,123.847971 125.157207,123.665063 125.56153,123.838344 C125.782945,123.934612 125.936973,124.136773 125.97548,124.367815 C126.013987,124.608483 125.9466,124.743258 125.879213,124.878032 C124.406322,127.448371 121.470167,128.709473 118.591773,128.709473 C113.662883,128.709473 110.149124,124.300428 110.149124,119.583327 C110.149124,114.866226 113.662883,110.45718 118.591773,110.45718 C123.520662,110.447553 127.082555,114.846972 127.092181,119.554446 Z M125.523023,118.842068 C125.205341,115.222415 122.432841,111.920444 118.601399,111.920444 C114.769958,111.920444 112.045592,115.222415 111.679776,118.842068 L125.523023,118.842068 Z M150.745074,111.679776 L150.745074,127.689039 C150.745074,128.112616 150.379258,128.420671 150.013442,128.420671 C149.589866,128.420671 149.28181,128.102989 149.28181,127.689039 L149.28181,124.64699 C148.078468,127.063301 145.922079,128.786487 143.197712,128.786487 C138.846427,128.786487 136.430116,125.012806 136.430116,121.027337 L136.430116,111.641269 C136.430116,111.275453 136.747799,110.909637 137.161748,110.909637 C137.585325,110.909637 137.89338,111.275453 137.89338,111.641269 L137.89338,121.027337 C137.89338,124.17528 139.674327,127.323223 143.188086,127.323223 C148.116975,127.323223 149.272183,122.712016 149.272183,117.619472 L149.272183,111.641269 C149.272183,111.217692 149.69576,110.784489 150.215604,110.938517 C150.533286,111.044411 150.745074,111.352467 150.745074,111.679776 Z M187.808012,118.206703 L187.808012,127.592772 C187.808012,128.016348 187.442196,128.324404 187.07638,128.324404 C186.652803,128.324404 186.344748,128.006721 186.344748,127.592772 L186.344748,118.206703 C186.344748,115.05876 184.563801,111.968578 181.050042,111.968578 C176.640997,111.968578 174.965944,116.685679 174.965944,120.353466 L174.965944,127.592772 C174.965944,128.016348 174.600128,128.324404 174.234312,128.324404 C173.810736,128.324404 173.50268,128.006721 173.50268,127.592772 L173.50268,118.206703 C173.50268,115.05876 171.721734,111.968578 168.207975,111.968578 C163.750796,111.968578 161.912089,115.482337 162.075744,120.151304 C162.075744,120.257198 162.123877,120.468986 162.075744,120.51712 L162.075744,127.573518 C162.075744,127.929708 161.835075,128.257017 161.478886,128.314777 C160.987922,128.391791 160.602853,128.054855 160.602853,127.592772 L160.602853,111.573881 C160.602853,111.217692 160.843521,110.890383 161.190084,110.832623 C161.681047,110.755609 162.066117,111.092545 162.066117,111.554628 L162.066117,114.230861 C163.327219,111.978204 165.579876,110.505314 168.198348,110.505314 C171.182637,110.505314 173.493054,112.392154 174.436474,115.174281 C175.639816,112.449915 177.998367,110.505314 181.040415,110.505314 C185.343567,110.505314 187.808012,114.221234 187.808012,118.206703 Z" id="Shape" fill="#3C3C3B"></path>
                <g id="Group" opacity="0.6" transform="translate(69.408774, 29.457815)" fill="#010101">
                    <polygon id="Shape" points="24.5481793 0.0385069479 0.0577604218 11.1766416 24.5481793 25.6456273 49.0289714 11.1766416"></polygon>
                </g>
                <g id="Group" opacity="0.45" transform="translate(69.408774, 0.000000)" fill="#010101">
                    <polygon id="Shape" points="0.0577604218 40.6344567 24.5481793 55.1034424 24.5481793 0"></polygon>
                </g>
                <g id="Group" opacity="0.8" transform="translate(93.956953, 0.000000)" fill="#010101">
                    <polygon id="Shape" points="0 0 0 55.1034424 24.4807921 40.6344567"></polygon>
                </g>
                <g id="Group" opacity="0.45" transform="translate(69.408774, 45.245664)" fill="#010101">
                    <polygon id="Shape" points="0.0577604218 0.0288802109 24.5481793 34.5311055 24.5481793 14.4978659"></polygon>
                </g>
                <g id="Group" opacity="0.8" transform="translate(93.956953, 45.245664)" fill="#010101">
                    <polygon id="Shape" points="0 14.4978659 0 34.5311055 24.5000456 0.0288802109"></polygon>
                </g>
            </g>
        </g>
    </g>
</svg>