<?xml version="1.0" encoding="UTF-8"?>
<svg width="45px" height="45px" viewBox="0 0 45 45" version="1.1" xmlns="http://www.w3.org/2000/svg" xmlns:xlink="http://www.w3.org/1999/xlink">
    <!-- Generator: Sketch 50.2 (55047) - http://www.bohemiancoding.com/sketch -->
    <title>g@3x</title>
    <desc>Created with Sketch.</desc>
    <defs>
        <polygon id="path-1" points="0.449 0.9 44.549 0.9 44.549 45 0.449 45"></polygon>
    </defs>
    <g id="Showcase" stroke="none" stroke-width="1" fill="none" fill-rule="evenodd">
        <g transform="translate(-870.000000, -2412.000000)" id="Group-18">
            <g transform="translate(870.291667, 2411.750000)">
                <g id="g">
                    <g id="Group-15">
                        <mask id="mask-2" fill="white">
                            <use xlink:href="#path-1"></use>
                        </mask>
                        <g id="Clip-14"></g>
                        <path d="M22.499,0.8996 C34.677,0.8996 44.549,10.7726 44.549,22.9506 C44.549,35.1286 34.677,45.0006 22.499,45.0006 C10.321,45.0006 0.449,35.1286 0.449,22.9506 C0.449,10.7726 10.321,0.8996 22.499,0.8996 L24.5,4" id="Fill-13" fill="#324C9A" mask="url(#mask-2)"></path>
                    </g>
                    <path d="M33.5098,19.2218 C33.5168,20.2648 33.3788,21.3038 33.0998,22.3088 C32.8778,23.0838 32.5138,23.8108 32.0248,24.4518 C31.5638,25.0098 30.9958,25.4708 30.3548,25.8068 C29.7538,26.1578 29.1068,26.4228 28.4328,26.5948 C27.7378,26.7648 27.0328,26.8918 26.3218,26.9728 C27.1018,27.7388 27.4948,28.8148 27.3928,29.9038 L27.3928,34.2458 C27.3928,34.4248 27.4478,34.5998 27.5508,34.7458 C26.1468,35.1418 24.6948,35.3428 23.2348,35.3458 C21.9058,35.3568 20.5818,35.1888 19.2968,34.8458 C19.4558,34.6868 19.5468,34.4708 19.5488,34.2458 L19.5488,31.3158 L19.0758,31.4108 C18.7008,31.4668 18.3218,31.4888 17.9418,31.4738 C17.4658,31.4678 16.9898,31.4148 16.5238,31.3158 C16.0168,31.2258 15.5398,31.0088 15.1378,30.6858 C14.7218,30.3598 14.4058,29.9228 14.2238,29.4258 L14.0028,28.9528 C13.8378,28.5808 13.6258,28.2318 13.3728,27.9128 C13.1468,27.5828 12.8438,27.3128 12.4908,27.1248 L12.3328,27.0308 C12.2338,26.9618 12.1488,26.8768 12.0808,26.7788 C11.9968,26.6998 11.9318,26.6018 11.8918,26.4938 C11.8628,26.3978 11.9058,26.2938 11.9938,26.2458 C12.1838,26.1668 12.3888,26.1338 12.5938,26.1508 L13.0038,26.2138 C13.3688,26.3148 13.7108,26.4848 14.0118,26.7138 C14.4178,26.9988 14.7598,27.3638 15.0198,27.7848 C15.2948,28.2958 15.6828,28.7388 16.1538,29.0768 C16.5528,29.3538 17.0238,29.5068 17.5088,29.5178 C17.8998,29.5228 18.2898,29.4918 18.6748,29.4228 C18.9938,29.3658 19.3018,29.2598 19.5888,29.1078 C19.6598,28.3058 20.0178,27.5568 20.5968,26.9968 C19.8738,26.9338 19.1568,26.8068 18.4548,26.6188 C17.7858,26.4328 17.1408,26.1678 16.5328,25.8308 C15.8998,25.4838 15.3428,25.0118 14.8948,24.4458 C14.4148,23.8018 14.0528,23.0778 13.8248,22.3088 C13.5308,21.3068 13.3928,20.2658 13.4148,19.2218 C13.3738,17.6538 13.9628,16.1328 15.0488,15.0008 C14.5368,13.6398 14.5938,12.1298 15.2068,10.8108 C15.8098,10.7128 16.4288,10.8128 16.9708,11.0948 C17.5578,11.3108 18.1268,11.5748 18.6708,11.8828 C19.0488,12.1038 19.3328,12.2928 19.5528,12.4508 C20.8358,12.0978 22.1598,11.9168 23.4908,11.9138 C24.8208,11.9138 26.1438,12.0928 27.4248,12.4468 L28.2128,11.9468 C28.8178,11.5918 29.4498,11.2858 30.1028,11.0328 C30.6198,10.7758 31.2068,10.6988 31.7728,10.8108 C32.3858,12.1298 32.4438,13.6398 31.9308,15.0008 C32.9648,16.1618 33.5278,17.6668 33.5098,19.2218" id="Fill-16" fill="#FFFFFF"></path>
                </g>
            </g>
        </g>
    </g>
</svg>