<?xml version="1.0" encoding="UTF-8"?>
<svg width="15px" height="15px" viewBox="0 0 15 15" version="1.1" xmlns="http://www.w3.org/2000/svg" xmlns:xlink="http://www.w3.org/1999/xlink">
    <!-- Generator: Sketch 50.2 (55047) - http://www.bohemiancoding.com/sketch -->
    <title>magnifier_icon@1x</title>
    <desc>Created with Sketch.</desc>
    <defs></defs>
    <g id="Showcase" stroke="none" stroke-width="1" fill="none" fill-rule="evenodd">
        <g id="Showcase-1920" transform="translate(-1619.000000, -798.000000)" fill="#000000" fill-rule="nonzero">
            <g id="Search-bar" transform="translate(0.000000, 766.000000)">
                <g id="Group-5">
                    <g id="Group-7" transform="translate(1336.218750, 27.000000)">
                        <g id="magnifier_icon" transform="translate(282.862745, 5.189389)">
                            <path d="M5.92160436,11.0744811 C7.26470571,11.0744811 8.48570693,10.5982906 9.43808788,9.79242979 L13.7115922,14.0659341 C13.8092723,14.1636142 13.9313724,14.2124542 14.0656825,14.2124542 C14.1999926,14.2124542 14.3220928,14.1636142 14.4197729,14.0659341 C14.6151331,13.8705739 14.6151331,13.5531136 14.4197729,13.3577534 L10.1462686,9.08424908 C10.9399194,8.13186813 11.4283199,6.8986569 11.4283199,5.56776557 C11.4283199,2.52747253 8.9618974,0.0610500611 5.92160436,0.0610500611 C2.89352134,0.0610500611 0.414888857,2.53968254 0.414888857,5.56776557 C0.414888857,8.60805861 2.89352134,11.0744811 5.92160436,11.0744811 Z M5.92160436,1.06227106 C8.41244685,1.06227106 10.4270989,3.08913309 10.4270989,5.56776557 C10.4270989,8.05860806 8.41244685,10.0732601 5.92160436,10.0732601 C3.43076187,10.0732601 1.41610986,8.04639805 1.41610986,5.56776557 C1.41610986,3.08913309 3.44297189,1.06227106 5.92160436,1.06227106 Z" id="Shape"></path>
                        </g>
                    </g>
                </g>
            </g>
        </g>
    </g>
</svg>