<?xml version="1.0" encoding="UTF-8"?>
<svg width="26px" height="26px" viewBox="0 0 26 26" version="1.1" xmlns="http://www.w3.org/2000/svg" xmlns:xlink="http://www.w3.org/1999/xlink">
    <!-- Generator: Sketch 50.2 (55047) - http://www.bohemiancoding.com/sketch -->
    <title>menu_extension@2x</title>
    <desc>Created with Sketch.</desc>
    <defs></defs>
    <g id="Showcase" stroke="none" stroke-width="1" fill="none" fill-rule="evenodd">
        <g id="popup-menu" transform="translate(-191.000000, -72.000000)">
            <g id="menu" transform="translate(11.500000, 43.000000)">
                <g id="Group-13" transform="translate(40.757812, 28.000000)">
                    <g id="Group-4" transform="translate(0.000000, 0.429688)">
                        <g id="menu_extension" transform="translate(138.000000, 0.000000)">
                            <g id="Group-3" transform="translate(1.000000, 0.859155)" fill="#000000" fill-rule="nonzero">
                                <g id="plugin" transform="translate(0.013390, 0.157331)">
                                    <path d="M12.5738184,7.59246256 L13.9241841,7.59246256 C14.1562725,7.59246256 14.3444311,7.40430397 14.3444311,7.17221555 L14.3444311,3.12103442 C14.3444311,2.88894601 14.1562725,2.70078742 13.9241841,2.70078742 L10.29325,2.70078742 L10.29325,1.77064071 C10.29325,0.794294856 9.4989271,0 8.52260926,0 C7.54629142,0 6.75196855,0.794322872 6.75196855,1.77064071 L6.75196855,2.70078742 L3.12103442,2.70078742 C2.88894601,2.70078742 2.70078742,2.88894601 2.70078742,3.12103442 L2.70078742,6.75196855 L1.77064071,6.75196855 C0.794322872,6.75196855 0,7.54629142 0,8.52260926 C0,9.4989271 0.794322872,10.29325 1.77064071,10.29325 L2.70078742,10.29325 L2.70078742,13.9241841 C2.70078742,14.1562725 2.88894601,14.3444311 3.12103442,14.3444311 L7.17221555,14.3444311 C7.40430397,14.3444311 7.59246256,14.1562725 7.59246256,13.9241841 L7.59246256,12.5737904 C7.59246256,12.0608929 8.00973982,11.6436437 8.52260926,11.6436437 C9.03547871,11.6436437 9.45275597,12.0609209 9.45275597,12.5737904 L9.45275597,13.9241841 C9.45275597,14.1562725 9.64091456,14.3444311 9.87300297,14.3444311 L13.9241841,14.3444311 C14.1562725,14.3444311 14.3444311,14.1562725 14.3444311,13.9241841 L14.3444311,9.87300297 C14.3444311,9.64091456 14.1562725,9.45275597 13.9241841,9.45275597 L12.5738184,9.45275597 C12.0608929,9.45275597 11.6436437,9.03547871 11.6436437,8.52260926 C11.6436437,8.00973982 12.0608929,7.59246256 12.5738184,7.59246256 Z M12.5738184,10.29325 L13.5039371,10.29325 L13.5039371,13.5039371 L10.29325,13.5039371 L10.29325,12.5737904 C10.29325,11.5974445 9.4989271,10.8031497 8.52260926,10.8031497 C7.54629142,10.8031497 6.75196855,11.5974445 6.75196855,12.5737904 L6.75196855,13.5039371 L3.54128143,13.5039371 L3.54128143,9.87300297 C3.54128143,9.64091456 3.35312284,9.45275597 3.12103442,9.45275597 L1.77064071,9.45275597 C1.25774325,9.45275597 0.84049401,9.03547871 0.84049401,8.52260926 C0.84049401,8.00973982 1.25777127,7.59246256 1.77064071,7.59246256 L3.12103442,7.59246256 C3.35312284,7.59246256 3.54128143,7.40430397 3.54128143,7.17221555 L3.54128143,3.54128143 L7.17221555,3.54128143 C7.40430397,3.54128143 7.59246256,3.35312284 7.59246256,3.12103442 L7.59246256,1.77064071 C7.59246256,1.25774325 8.00973982,0.84049401 8.52260926,0.84049401 C9.03547871,0.84049401 9.45275597,1.25777127 9.45275597,1.77064071 L9.45275597,3.12103442 C9.45275597,3.35312284 9.64091456,3.54128143 9.87300297,3.54128143 L13.5039371,3.54128143 L13.5039371,6.75196855 L12.5738184,6.75196855 C11.5974445,6.75196855 10.8031497,7.54629142 10.8031497,8.52260926 C10.8031497,9.4989271 11.5974445,10.29325 12.5738184,10.29325 Z" id="Shape"></path>
                                </g>
                                <g id="plugin-copy-2" transform="translate(0.013390, 11.021594)">
                                    <path d="M12.5738184,7.59246256 L13.9241841,7.59246256 C14.1562725,7.59246256 14.3444311,7.40430397 14.3444311,7.17221555 L14.3444311,3.12103442 C14.3444311,2.88894601 14.1562725,2.70078742 13.9241841,2.70078742 L10.29325,2.70078742 L10.29325,1.77064071 C10.29325,0.794294856 9.4989271,0 8.52260926,0 C7.54629142,0 6.75196855,0.794322872 6.75196855,1.77064071 L6.75196855,2.70078742 L3.12103442,2.70078742 C2.88894601,2.70078742 2.70078742,2.88894601 2.70078742,3.12103442 L2.70078742,6.75196855 L1.77064071,6.75196855 C0.794322872,6.75196855 0,7.54629142 0,8.52260926 C0,9.4989271 0.794322872,10.29325 1.77064071,10.29325 L2.70078742,10.29325 L2.70078742,13.9241841 C2.70078742,14.1562725 2.88894601,14.3444311 3.12103442,14.3444311 L7.17221555,14.3444311 C7.40430397,14.3444311 7.59246256,14.1562725 7.59246256,13.9241841 L7.59246256,12.5737904 C7.59246256,12.0608929 8.00973982,11.6436437 8.52260926,11.6436437 C9.03547871,11.6436437 9.45275597,12.0609209 9.45275597,12.5737904 L9.45275597,13.9241841 C9.45275597,14.1562725 9.64091456,14.3444311 9.87300297,14.3444311 L13.9241841,14.3444311 C14.1562725,14.3444311 14.3444311,14.1562725 14.3444311,13.9241841 L14.3444311,9.87300297 C14.3444311,9.64091456 14.1562725,9.45275597 13.9241841,9.45275597 L12.5738184,9.45275597 C12.0608929,9.45275597 11.6436437,9.03547871 11.6436437,8.52260926 C11.6436437,8.00973982 12.0608929,7.59246256 12.5738184,7.59246256 Z M12.5738184,10.29325 L13.5039371,10.29325 L13.5039371,13.5039371 L10.29325,13.5039371 L10.29325,12.5737904 C10.29325,11.5974445 9.4989271,10.8031497 8.52260926,10.8031497 C7.54629142,10.8031497 6.75196855,11.5974445 6.75196855,12.5737904 L6.75196855,13.5039371 L3.54128143,13.5039371 L3.54128143,9.87300297 C3.54128143,9.64091456 3.35312284,9.45275597 3.12103442,9.45275597 L1.77064071,9.45275597 C1.25774325,9.45275597 0.84049401,9.03547871 0.84049401,8.52260926 C0.84049401,8.00973982 1.25777127,7.59246256 1.77064071,7.59246256 L3.12103442,7.59246256 C3.35312284,7.59246256 3.54128143,7.40430397 3.54128143,7.17221555 L3.54128143,3.54128143 L7.17221555,3.54128143 C7.40430397,3.54128143 7.59246256,3.35312284 7.59246256,3.12103442 L7.59246256,1.77064071 C7.59246256,1.25774325 8.00973982,0.84049401 8.52260926,0.84049401 C9.03547871,0.84049401 9.45275597,1.25777127 9.45275597,1.77064071 L9.45275597,3.12103442 C9.45275597,3.35312284 9.64091456,3.54128143 9.87300297,3.54128143 L13.5039371,3.54128143 L13.5039371,6.75196855 L12.5738184,6.75196855 C11.5974445,6.75196855 10.8031497,7.54629142 10.8031497,8.52260926 C10.8031497,9.4989271 11.5974445,10.29325 12.5738184,10.29325 Z" id="Shape"></path>
                                </g>
                                <g id="plugin-copy" transform="translate(10.849601, 0.157331)">
                                    <path d="M12.5738184,7.59246256 L13.9241841,7.59246256 C14.1562725,7.59246256 14.3444311,7.40430397 14.3444311,7.17221555 L14.3444311,3.12103442 C14.3444311,2.88894601 14.1562725,2.70078742 13.9241841,2.70078742 L10.29325,2.70078742 L10.29325,1.77064071 C10.29325,0.794294856 9.4989271,0 8.52260926,0 C7.54629142,0 6.75196855,0.794322872 6.75196855,1.77064071 L6.75196855,2.70078742 L3.12103442,2.70078742 C2.88894601,2.70078742 2.70078742,2.88894601 2.70078742,3.12103442 L2.70078742,6.75196855 L1.77064071,6.75196855 C0.794322872,6.75196855 0,7.54629142 0,8.52260926 C0,9.4989271 0.794322872,10.29325 1.77064071,10.29325 L2.70078742,10.29325 L2.70078742,13.9241841 C2.70078742,14.1562725 2.88894601,14.3444311 3.12103442,14.3444311 L7.17221555,14.3444311 C7.40430397,14.3444311 7.59246256,14.1562725 7.59246256,13.9241841 L7.59246256,12.5737904 C7.59246256,12.0608929 8.00973982,11.6436437 8.52260926,11.6436437 C9.03547871,11.6436437 9.45275597,12.0609209 9.45275597,12.5737904 L9.45275597,13.9241841 C9.45275597,14.1562725 9.64091456,14.3444311 9.87300297,14.3444311 L13.9241841,14.3444311 C14.1562725,14.3444311 14.3444311,14.1562725 14.3444311,13.9241841 L14.3444311,9.87300297 C14.3444311,9.64091456 14.1562725,9.45275597 13.9241841,9.45275597 L12.5738184,9.45275597 C12.0608929,9.45275597 11.6436437,9.03547871 11.6436437,8.52260926 C11.6436437,8.00973982 12.0608929,7.59246256 12.5738184,7.59246256 Z M12.5738184,10.29325 L13.5039371,10.29325 L13.5039371,13.5039371 L10.29325,13.5039371 L10.29325,12.5737904 C10.29325,11.5974445 9.4989271,10.8031497 8.52260926,10.8031497 C7.54629142,10.8031497 6.75196855,11.5974445 6.75196855,12.5737904 L6.75196855,13.5039371 L3.54128143,13.5039371 L3.54128143,9.87300297 C3.54128143,9.64091456 3.35312284,9.45275597 3.12103442,9.45275597 L1.77064071,9.45275597 C1.25774325,9.45275597 0.84049401,9.03547871 0.84049401,8.52260926 C0.84049401,8.00973982 1.25777127,7.59246256 1.77064071,7.59246256 L3.12103442,7.59246256 C3.35312284,7.59246256 3.54128143,7.40430397 3.54128143,7.17221555 L3.54128143,3.54128143 L7.17221555,3.54128143 C7.40430397,3.54128143 7.59246256,3.35312284 7.59246256,3.12103442 L7.59246256,1.77064071 C7.59246256,1.25774325 8.00973982,0.84049401 8.52260926,0.84049401 C9.03547871,0.84049401 9.45275597,1.25777127 9.45275597,1.77064071 L9.45275597,3.12103442 C9.45275597,3.35312284 9.64091456,3.54128143 9.87300297,3.54128143 L13.5039371,3.54128143 L13.5039371,6.75196855 L12.5738184,6.75196855 C11.5974445,6.75196855 10.8031497,7.54629142 10.8031497,8.52260926 C10.8031497,9.4989271 11.5974445,10.29325 12.5738184,10.29325 Z" id="Shape"></path>
                                </g>
                                <g id="plugin-copy-3" transform="translate(10.849601, 11.021594)">
                                    <path d="M12.5738184,7.59246256 L13.9241841,7.59246256 C14.1562725,7.59246256 14.3444311,7.40430397 14.3444311,7.17221555 L14.3444311,3.12103442 C14.3444311,2.88894601 14.1562725,2.70078742 13.9241841,2.70078742 L10.29325,2.70078742 L10.29325,1.77064071 C10.29325,0.794294856 9.4989271,0 8.52260926,0 C7.54629142,0 6.75196855,0.794322872 6.75196855,1.77064071 L6.75196855,2.70078742 L3.12103442,2.70078742 C2.88894601,2.70078742 2.70078742,2.88894601 2.70078742,3.12103442 L2.70078742,6.75196855 L1.77064071,6.75196855 C0.794322872,6.75196855 0,7.54629142 0,8.52260926 C0,9.4989271 0.794322872,10.29325 1.77064071,10.29325 L2.70078742,10.29325 L2.70078742,13.9241841 C2.70078742,14.1562725 2.88894601,14.3444311 3.12103442,14.3444311 L7.17221555,14.3444311 C7.40430397,14.3444311 7.59246256,14.1562725 7.59246256,13.9241841 L7.59246256,12.5737904 C7.59246256,12.0608929 8.00973982,11.6436437 8.52260926,11.6436437 C9.03547871,11.6436437 9.45275597,12.0609209 9.45275597,12.5737904 L9.45275597,13.9241841 C9.45275597,14.1562725 9.64091456,14.3444311 9.87300297,14.3444311 L13.9241841,14.3444311 C14.1562725,14.3444311 14.3444311,14.1562725 14.3444311,13.9241841 L14.3444311,9.87300297 C14.3444311,9.64091456 14.1562725,9.45275597 13.9241841,9.45275597 L12.5738184,9.45275597 C12.0608929,9.45275597 11.6436437,9.03547871 11.6436437,8.52260926 C11.6436437,8.00973982 12.0608929,7.59246256 12.5738184,7.59246256 Z M12.5738184,10.29325 L13.5039371,10.29325 L13.5039371,13.5039371 L10.29325,13.5039371 L10.29325,12.5737904 C10.29325,11.5974445 9.4989271,10.8031497 8.52260926,10.8031497 C7.54629142,10.8031497 6.75196855,11.5974445 6.75196855,12.5737904 L6.75196855,13.5039371 L3.54128143,13.5039371 L3.54128143,9.87300297 C3.54128143,9.64091456 3.35312284,9.45275597 3.12103442,9.45275597 L1.77064071,9.45275597 C1.25774325,9.45275597 0.84049401,9.03547871 0.84049401,8.52260926 C0.84049401,8.00973982 1.25777127,7.59246256 1.77064071,7.59246256 L3.12103442,7.59246256 C3.35312284,7.59246256 3.54128143,7.40430397 3.54128143,7.17221555 L3.54128143,3.54128143 L7.17221555,3.54128143 C7.40430397,3.54128143 7.59246256,3.35312284 7.59246256,3.12103442 L7.59246256,1.77064071 C7.59246256,1.25774325 8.00973982,0.84049401 8.52260926,0.84049401 C9.03547871,0.84049401 9.45275597,1.25777127 9.45275597,1.77064071 L9.45275597,3.12103442 C9.45275597,3.35312284 9.64091456,3.54128143 9.87300297,3.54128143 L13.5039371,3.54128143 L13.5039371,6.75196855 L12.5738184,6.75196855 C11.5974445,6.75196855 10.8031497,7.54629142 10.8031497,8.52260926 C10.8031497,9.4989271 11.5974445,10.29325 12.5738184,10.29325 Z" id="Shape"></path>
                                </g>
                            </g>
                            <rect id="Rectangle-2" x="0" y="0.85915493" width="28" height="26"></rect>
                        </g>
                    </g>
                </g>
            </g>
        </g>
    </g>
</svg>