<?xml version="1.0" encoding="UTF-8"?>
<svg width="29px" height="26px" viewBox="0 0 29 26" version="1.1" xmlns="http://www.w3.org/2000/svg" xmlns:xlink="http://www.w3.org/1999/xlink">
    <!-- Generator: Sketch 50.2 (55047) - http://www.bohemiancoding.com/sketch -->
    <title>menu_marketplace@2x</title>
    <desc>Created with Sketch.</desc>
    <defs></defs>
    <g id="Showcase" stroke="none" stroke-width="1" fill="none" fill-rule="evenodd">
        <g id="popup-menu" transform="translate(-75.000000, -72.000000)" fill="#000000" fill-rule="nonzero">
            <g id="menu" transform="translate(11.500000, 43.000000)">
                <g id="Group-13" transform="translate(40.757812, 28.000000)">
                    <g id="Group-4" transform="translate(0.000000, 0.429688)">
                        <g id="menu_marketplace" transform="translate(23.159577, 0.830986)">
                            <path d="M27.6670401,10.1971737 L27.6670401,9.72085193 C27.6647345,7.67657991 26.0145109,6.01998473 23.9781014,6.01767024 L20.5197214,6.01767024 C19.1190199,6.01767024 17.9835761,4.87784249 17.9835761,3.47173283 C17.9835761,2.06562317 19.1190199,0.925795422 20.5197214,0.925795422 L25.3614534,0.925795422 L25.3614534,0 L20.5197214,0 C18.6097158,0 17.0613414,1.55435265 17.0613414,3.47173283 C17.0613414,5.38911301 18.6097158,6.94346566 20.5197214,6.94346566 L23.9781014,6.94346566 C25.505495,6.94497008 26.7433068,8.18756112 26.7448054,9.72085193 L26.7448054,10.1971737 C26.748552,11.5484878 26.2135406,12.84518 25.2590854,13.798055 L24.8943416,14.1642071 L20.144833,9.39358325 C20.058143,9.30655848 19.9405004,9.25772277 19.8179008,9.25795422 L1.38335201,9.25795422 C0.619338221,9.25795422 0,9.87968371 0,10.6466474 L0,24.070681 C0,24.8376446 0.619338221,25.4593741 1.38335201,25.4593741 L19.8179008,25.4593741 C19.9450539,25.4593162 20.0665007,25.4065459 20.1535942,25.3135613 L26.6092369,18.4251805 C27.2965323,17.6981418 27.2791251,16.5529907 26.570042,15.8473031 L25.5459004,14.8192073 L25.9111053,14.4525923 C27.0392289,13.3265936 27.671536,11.7941708 27.6670401,10.1971737 Z M25.9180221,16.5018405 C26.2723907,16.8548579 26.2810367,17.4274045 25.937389,17.7910106 L19.618237,24.5335787 L1.38335201,24.5335787 C1.12869996,24.5335787 0.92223467,24.3263162 0.92223467,24.070681 L0.92223467,10.6466474 C0.92223467,10.3910121 1.12869996,10.1837496 1.38335201,10.1837496 L19.6265371,10.1837496 L24.2423217,14.8187444 L23.5257453,15.5380875 C23.2446943,15.3679147 22.9230073,15.2772446 22.5947494,15.2756245 C21.5760836,15.2756245 20.7502801,16.1046164 20.7502801,17.1272153 C20.7502801,18.1498142 21.5760836,18.9788061 22.5947494,18.9788061 C23.6134153,18.9788061 24.4392188,18.1498142 24.4392188,17.1272153 C24.4376048,16.79769 24.3472835,16.474761 24.1777652,16.1926248 L24.8938805,15.4737447 L25.9180221,16.5018405 Z M22.9207594,17.454484 L23.4824003,16.8906746 C23.5042457,16.9676313 23.5158889,17.0471919 23.5169841,17.1272153 C23.5169841,17.6385437 23.1041112,18.0530107 22.5947494,18.0530107 C22.0853877,18.0530107 21.6725147,17.6385437 21.6725147,17.1272153 C21.6725147,16.6158869 22.0853877,16.2014199 22.5947494,16.2014199 C22.6744651,16.2025193 22.7537196,16.2142074 22.8303804,16.2361372 L22.2687395,16.7999466 L22.9207594,17.454484 Z" id="Shape"></path>
                            <rect id="Rectangle-path" x="3.72737645" y="15.0093764" width="14.115601" height="1"></rect>
                            <rect id="Rectangle-path" x="3.72737645" y="19.3307558" width="11.5279453" height="1"></rect>
                        </g>
                    </g>
                </g>
            </g>
        </g>
    </g>
</svg>