<?xml version="1.0" encoding="UTF-8"?>
<svg width="29px" height="26px" viewBox="0 0 29 26" version="1.1" xmlns="http://www.w3.org/2000/svg" xmlns:xlink="http://www.w3.org/1999/xlink">
    <!-- Generator: Sketch 50.2 (55047) - http://www.bohemiancoding.com/sketch -->
    <title>menu_webbuilder@2x</title>
    <desc>Created with Sketch.</desc>
    <defs></defs>
    <g id="Showcase" stroke="none" stroke-width="1" fill="none" fill-rule="evenodd">
        <g id="popup-menu" transform="translate(-299.000000, -72.000000)" fill="#000000" fill-rule="nonzero">
            <g id="menu" transform="translate(11.500000, 43.000000)">
                <g id="Group-13" transform="translate(40.757812, 28.000000)">
                    <g id="Group-4" transform="translate(0.000000, 0.429688)">
                        <g id="menu_webbuilder" transform="translate(247.156449, 0.830986)">
                            <path d="M27.7940101,3.09621287 L27.7494066,3.09621287 C27.7494066,1.43951154 26.4559052,0.141015913 24.8055758,0.141015913 L3.03906917,0.141015913 C1.38873977,0.141015913 0.0952383531,1.43951154 0.0952383531,3.09621287 L0.0952383531,16.887132 C0.0952383531,18.5438333 1.38873977,19.8423289 3.03906917,19.8423289 L10.9338882,19.8423289 L10.2648357,22.9766287 L7.2317979,22.9766287 C6.96417691,22.9766287 6.78576293,23.1557316 6.78576293,23.4243859 L6.78576293,25.2154143 C6.78576293,25.4840686 6.96417691,25.6631714 7.2317979,25.6631714 L20.612847,25.6631714 C20.880468,25.6631714 21.058882,25.4840686 21.058882,25.2154143 L21.058882,23.4243859 C21.058882,23.1557316 20.880468,22.9766287 20.612847,22.9766287 L17.6244127,22.9766287 L16.9553603,19.8423289 L24.8501793,19.8423289 C26.4559052,19.8423289 27.7940101,18.5438333 27.7940101,16.887132 L27.7940101,3.09621287 Z M20.1668121,23.872143 L20.1668121,24.7676572 L7.67783287,24.7676572 L7.67783287,23.872143 L20.1668121,23.872143 Z M11.1569056,22.9766287 L11.8259581,19.8423289 L16.0186868,19.8423289 L16.6877393,22.9766287 L11.1569056,22.9766287 Z M26.8573366,16.887132 C26.8573366,18.0065248 25.9206632,18.9468147 24.8055758,18.9468147 L3.03906917,18.9468147 C1.92398174,18.9468147 0.987308296,18.0065248 0.987308296,16.887132 L0.987308296,15.3647578 L26.8573366,15.3647578 L26.8573366,16.887132 Z M26.8573366,14.4692436 L0.987308296,14.4692436 L0.987308296,3.09621287 C0.987308296,1.97682008 1.92398174,1.03653014 3.03906917,1.03653014 L24.8055758,1.03653014 C25.9206632,1.03653014 26.8573366,1.97682008 26.8573366,3.09621287 L26.8573366,14.4692436 Z" id="Shape"></path>
                            <ellipse id="Oval" cx="13.9223225" cy="17.1557863" rx="1" ry="1"></ellipse>
                            <rect id="Rectangle-path" x="20.612847" y="2.8275586" width="1" height="1"></rect>
                            <rect id="Rectangle-path" x="22.3969869" y="2.8275586" width="1" height="1"></rect>
                            <rect id="Rectangle-path" x="24.1811268" y="2.8275586" width="1" height="1"></rect>
                            <rect id="Rectangle-path" x="22.3969869" y="4.61858706" width="1" height="1"></rect>
                            <rect id="Rectangle-path" x="24.1811268" y="4.61858706" width="1" height="1"></rect>
                            <rect id="Rectangle-path" x="16.1524973" y="11.7827009" width="8.92069943" height="1"></rect>
                            <rect id="Rectangle-path" x="17.4906022" y="9.99167243" width="7.58259452" height="1"></rect>
                            <rect id="Rectangle-path" x="18.8287072" y="8.20064397" width="6.2444896" height="1"></rect>
                            <rect id="Rectangle-path" x="24.1811268" y="6.40961551" width="1" height="1"></rect>
                            <path d="M14.14534,6.45439122 C14.0115295,6.3648398 13.8331155,6.3648398 13.699305,6.45439122 L11.6921476,7.48423259 L11.6921476,6.85737263 C11.6921476,6.58871836 11.5137336,6.40961551 11.2461126,6.40961551 L8.97133429,6.40961551 C9.01593778,6.27528838 9.01593778,6.09618553 9.01593778,5.9618584 C9.01593778,4.21560565 7.63322937,2.8275586 5.89369298,2.8275586 C4.15415659,2.8275586 2.77144818,4.21560565 2.77144818,5.9618584 C2.77144818,7.5290083 3.93113911,8.82750393 5.44765801,9.05138249 L5.44765801,12.230458 C5.44765801,12.4991123 5.626072,12.6782151 5.89369298,12.6782151 L11.2461126,12.6782151 C11.5137336,12.6782151 11.6921476,12.4991123 11.6921476,12.230458 L11.6921476,11.603598 L13.699305,12.6334394 C13.788512,12.6782151 13.8331155,12.6782151 13.9223225,12.6782151 C14.1899435,12.6782151 14.3683574,12.4991123 14.3683574,12.230458 L14.3683574,6.85737263 C14.3683574,6.72304549 14.2791504,6.54394265 14.14534,6.45439122 Z M5.44765801,6.85737263 L5.44765801,8.15586826 C4.24336359,7.9319897 3.44050064,6.72304549 3.70812162,5.51410128 C3.93113911,4.48425992 4.82320905,3.72307283 5.89369298,3.72307283 C7.1425909,3.72307283 8.12386784,4.70813848 8.12386784,5.9618584 C8.12386784,6.09618553 8.12386784,6.27528838 8.07926434,6.40961551 L5.89369298,6.40961551 C5.626072,6.40961551 5.44765801,6.58871836 5.44765801,6.85737263 Z M7.67783287,7.30512974 C7.36560839,7.75288686 6.87496992,8.06631684 6.33972795,8.15586826 L6.33972795,7.30512974 L7.67783287,7.30512974 Z M10.8000777,10.1707753 L9.55117975,9.54391531 L10.8000777,8.91705535 L10.8000777,10.1707753 Z M10.8000777,7.9319897 L8.34688533,9.14093391 C8.21307483,9.23048533 8.12386784,9.36481247 8.12386784,9.54391531 C8.12386784,9.72301816 8.21307483,9.85734529 8.34688533,9.94689672 L10.8000777,11.1558409 L10.8000777,11.7827009 L6.33972795,11.7827009 L6.33972795,9.05138249 C7.36560839,8.91705535 8.25767833,8.24541968 8.7037133,7.30512974 L10.8000777,7.30512974 L10.8000777,7.9319897 Z M13.4762875,11.5140466 L11.6921476,10.6185324 L11.6921476,8.46929824 L13.4762875,7.57378401 L13.4762875,11.5140466 Z" id="Shape"></path>
                        </g>
                    </g>
                </g>
            </g>
        </g>
    </g>
</svg>