<?xml version="1.0" encoding="UTF-8"?>
<svg width="10px" height="18px" viewBox="0 0 10 18" version="1.1" xmlns="http://www.w3.org/2000/svg" xmlns:xlink="http://www.w3.org/1999/xlink">
    <!-- Generator: Sketch 50.2 (55047) - http://www.bohemiancoding.com/sketch -->
    <title>sm_facebook@2x</title>
    <desc>Created with Sketch.</desc>
    <defs></defs>
    <g id="Showcase" stroke="none" stroke-width="1" fill="none" fill-rule="evenodd">
        <g id="popup-menu" transform="translate(-313.000000, -160.000000)">
            <g id="menu" transform="translate(11.500000, 43.000000)">
                <g id="socialm" transform="translate(58.000000, 115.892857)">
                    <g id="Group-15" transform="translate(0.000000, 0.037243)">
                        <g id="Group" transform="translate(0.384766, 0.000000)">
                            <g id="sm_facebook" transform="translate(236.842207, 0.779489)">
                                <g id="fb" transform="translate(7.000000, 0.000000)" fill="#000000">
                                    <path d="M5.87597657,17.6505094 L5.87597657,9.83037114 L8.50022278,9.83037114 L8.89344275,6.78211448 L5.87854244,6.78211448 L5.87854244,4.83782451 C5.87854244,3.95259846 6.12037593,3.35539161 7.39112434,3.35539161 L9.00249234,3.35539161 L9.00249234,0.633000772 C8.22118413,0.548968444 7.43602711,0.507914483 6.65022863,0.511121823 C4.3204163,0.511121823 2.73214115,1.93325672 2.73214115,4.53569301 L2.73214115,6.78083154 L0.10212173,6.78083154 L0.10212173,9.8290882 L2.73214115,9.8290882 L2.73214115,17.6505094 L5.87597657,17.6505094 Z" id="Fill-21"></path>
                                </g>
                                <rect id="Rectangle-4" x="0.683469236" y="0" width="22" height="18"></rect>
                            </g>
                        </g>
                    </g>
                </g>
            </g>
        </g>
    </g>
</svg>