<?xml version="1.0" encoding="UTF-8"?>
<svg width="23px" height="19px" viewBox="0 0 23 19" version="1.1" xmlns="http://www.w3.org/2000/svg" xmlns:xlink="http://www.w3.org/1999/xlink">
    <!-- Generator: Sketch 50.2 (55047) - http://www.bohemiancoding.com/sketch -->
    <title>sm_github@2x</title>
    <desc>Created with Sketch.</desc>
    <defs></defs>
    <g id="Showcase" stroke="none" stroke-width="1" fill="none" fill-rule="evenodd">
        <g id="popup-menu" transform="translate(-129.000000, -244.000000)">
            <g id="menu" transform="translate(11.500000, 71.000000)">
                <g id="socialm" transform="translate(58.000000, 172.892857)">
                    <g id="Group-15" transform="translate(0.000000, 0.037243)">
                        <g id="Group" transform="translate(0.384766, 0.000000)">
                            <g id="sm_github" transform="translate(59.777674, 0.482614)">
                                <g id="g">
                                    <rect id="Rectangle-4" fill="#FFFFFF" x="0.196071164" y="0" width="22" height="18"></rect>
                                    <path d="M18.7980758,6.47214526 C18.8029886,7.20415501 18.7061359,7.93335744 18.5103251,8.63869761 C18.3545186,9.18261665 18.0990521,9.6928478 17.7558567,10.1427215 C17.4323126,10.5343432 17.0336726,10.8578873 16.583799,11.0937025 C16.1619985,11.3400452 15.7079138,11.5260304 15.2348797,11.6467453 C14.7471072,11.7660566 14.2523163,11.8551892 13.7533145,11.9120375 C14.3007427,12.44964 14.5765622,13.2048102 14.5049755,13.9691042 L14.5049755,17.0164545 C14.5049755,17.1420822 14.5435762,17.2649026 14.6158648,17.36737 C13.630494,17.645295 12.6114354,17.7863631 11.5867621,17.7884686 C10.6540287,17.7961887 9.72480443,17.6782811 8.82295157,17.4375531 C8.93454271,17.3259619 8.99840933,17.1743664 8.99981299,17.0164545 L8.99981299,14.9600896 L8.66784692,15.0267635 C8.40466029,15.0660661 8.13866633,15.0815063 7.87197055,15.0709789 C7.53789898,15.0667679 7.20382742,15.0295708 6.87677417,14.9600896 C6.52094584,14.8969248 6.18617245,14.7446275 5.90403638,14.517936 C5.61207468,14.2891391 5.39029607,13.982439 5.26256283,13.633629 L5.10745818,13.3016629 C4.99165606,13.0405817 4.84286788,12.7956427 4.66530464,12.5717586 C4.50669083,12.3401544 4.29403603,12.15066 4.04628968,12.0187158 L3.93540038,11.9527437 C3.86591911,11.9043173 3.80626347,11.8446617 3.75853896,11.7758823 C3.69958516,11.7204376 3.65396614,11.6516582 3.6258929,11.5758604 C3.6055398,11.5084846 3.63571853,11.4354942 3.69747966,11.4018063 C3.83082756,11.3463617 3.97470292,11.3232012 4.11857827,11.3351324 L4.40632899,11.3793477 C4.66249731,11.4502327 4.90252352,11.5695439 5.11377465,11.7302632 C5.39871805,11.9302851 5.63874425,12.1864534 5.82122032,12.4819243 C6.01422385,12.8405599 6.28653428,13.151471 6.61709669,13.3886899 C6.89712727,13.5830971 7.22768967,13.6904773 7.56807772,13.6981974 C7.84249365,13.7017066 8.11620774,13.6799498 8.38641268,13.6315235 C8.61029678,13.5915191 8.82646073,13.517125 9.02788623,13.4104467 C9.07771623,12.8475782 9.32897174,12.3219068 9.7353319,11.9288814 C9.22790807,11.8846661 8.72469523,11.7955335 8.23200986,11.6635893 C7.76248491,11.5330487 7.3098039,11.3470635 6.88309065,11.1105465 C6.43883161,10.8670111 6.04791174,10.5357468 5.73349144,10.1385105 C5.39661255,9.68653132 5.14254973,9.17840566 4.98253225,8.63869761 C4.77619394,7.93546293 4.67934126,7.20485685 4.69478154,6.47214526 C4.66600647,5.37167423 5.07938493,4.30418926 5.84157342,3.50971655 C5.48223594,2.55452453 5.52224031,1.4947597 5.95246272,0.569044588 C6.37566682,0.500265148 6.81010022,0.57044825 7.19049263,0.768364596 C7.60246744,0.919960096 8.00180929,1.10524348 8.38360536,1.32140744 C8.64889748,1.47651209 8.84821749,1.60915815 9.00262031,1.72004745 C9.90306951,1.47230111 10.8322938,1.34526969 11.7664309,1.3431642 C12.6998661,1.3431642 13.6283885,1.46879195 14.5274341,1.71724013 L15.0804769,1.36632462 C15.5050847,1.11717461 15.9486419,0.902414321 16.4069375,0.724851073 C16.7697842,0.544480502 17.181759,0.490439514 17.5789953,0.569044588 C18.0092177,1.4947597 18.0499239,2.55452453 17.6898846,3.50971655 C18.4155779,4.32454236 18.8107088,5.38079803 18.7980758,6.47214526" id="Fill-16" fill="#000000"></path>
                                </g>
                            </g>
                        </g>
                    </g>
                </g>
            </g>
        </g>
    </g>
</svg>