<?xml version="1.0" encoding="UTF-8"?>
<svg width="16px" height="18px" viewBox="0 0 16 18" version="1.1" xmlns="http://www.w3.org/2000/svg" xmlns:xlink="http://www.w3.org/1999/xlink">
    <!-- Generator: Sketch 50.2 (55047) - http://www.bohemiancoding.com/sketch -->
    <title>sm_github@2x</title>
    <desc>Created with Sketch.</desc>
    <defs></defs>
    <g id="Showcase" stroke="none" stroke-width="1" fill="none" fill-rule="evenodd">
        <g id="popup-menu" transform="translate(-133.000000, -160.000000)">
            <g id="menu" transform="translate(11.500000, 43.000000)">
                <g id="socialm" transform="translate(58.000000, 115.892857)">
                    <g id="Group-15" transform="translate(0.000000, 0.037243)">
                        <g id="Group" transform="translate(0.384766, 0.000000)">
                            <g id="sm_github" transform="translate(59.777674, 0.779489)">
                                <g id="g" transform="translate(3.000000, 0.000000)" fill="#000000">
                                    <path d="M15.7980758,6.47214526 C15.8029886,7.20415501 15.7061359,7.93335744 15.5103251,8.63869761 C15.3545186,9.18261665 15.0990521,9.6928478 14.7558567,10.1427215 C14.4323126,10.5343432 14.0336726,10.8578873 13.583799,11.0937025 C13.1619985,11.3400452 12.7079138,11.5260304 12.2348797,11.6467453 C11.7471072,11.7660566 11.2523163,11.8551892 10.7533145,11.9120375 C11.3007427,12.44964 11.5765622,13.2048102 11.5049755,13.9691042 L11.5049755,17.0164545 C11.5049755,17.1420822 11.5435762,17.2649026 11.6158648,17.36737 C10.630494,17.645295 9.6114354,17.7863631 8.58676212,17.7884686 C7.6540287,17.7961887 6.72480443,17.6782811 5.82295157,17.4375531 C5.93454271,17.3259619 5.99840933,17.1743664 5.99981299,17.0164545 L5.99981299,14.9600896 L5.66784692,15.0267635 C5.40466029,15.0660661 5.13866633,15.0815063 4.87197055,15.0709789 C4.53789898,15.0667679 4.20382742,15.0295708 3.87677417,14.9600896 C3.52094584,14.8969248 3.18617245,14.7446275 2.90403638,14.517936 C2.61207468,14.2891391 2.39029607,13.982439 2.26256283,13.633629 L2.10745818,13.3016629 C1.99165606,13.0405817 1.84286788,12.7956427 1.66530464,12.5717586 C1.50669083,12.3401544 1.29403603,12.15066 1.04628968,12.0187158 L0.935400378,11.9527437 C0.865919108,11.9043173 0.806263471,11.8446617 0.758538962,11.7758823 C0.699585157,11.7204376 0.653966141,11.6516582 0.6258929,11.5758604 C0.605539801,11.5084846 0.635718534,11.4354942 0.697479664,11.4018063 C0.830827557,11.3463617 0.974702915,11.3232012 1.11857827,11.3351324 L1.40632899,11.3793477 C1.66249731,11.4502327 1.90252352,11.5695439 2.11377465,11.7302632 C2.39871805,11.9302851 2.63874425,12.1864534 2.82122032,12.4819243 C3.01422385,12.8405599 3.28653428,13.151471 3.61709669,13.3886899 C3.89712727,13.5830971 4.22768967,13.6904773 4.56807772,13.6981974 C4.84249365,13.7017066 5.11620774,13.6799498 5.38641268,13.6315235 C5.61029678,13.5915191 5.82646073,13.517125 6.02788623,13.4104467 C6.07771623,12.8475782 6.32897174,12.3219068 6.7353319,11.9288814 C6.22790807,11.8846661 5.72469523,11.7955335 5.23200986,11.6635893 C4.76248491,11.5330487 4.3098039,11.3470635 3.88309065,11.1105465 C3.43883161,10.8670111 3.04791174,10.5357468 2.73349144,10.1385105 C2.39661255,9.68653132 2.14254973,9.17840566 1.98253225,8.63869761 C1.77619394,7.93546293 1.67934126,7.20485685 1.69478154,6.47214526 C1.66600647,5.37167423 2.07938493,4.30418926 2.84157342,3.50971655 C2.48223594,2.55452453 2.52224031,1.4947597 2.95246272,0.569044588 C3.37566682,0.500265148 3.81010022,0.57044825 4.19049263,0.768364596 C4.60246744,0.919960096 5.00180929,1.10524348 5.38360536,1.32140744 C5.64889748,1.47651209 5.84821749,1.60915815 6.00262031,1.72004745 C6.90306951,1.47230111 7.83229377,1.34526969 8.76643086,1.3431642 C9.69986611,1.3431642 10.6283885,1.46879195 11.5274341,1.71724013 L12.0804769,1.36632462 C12.5050847,1.11717461 12.9486419,0.902414321 13.4069375,0.724851073 C13.7697842,0.544480502 14.181759,0.490439514 14.5789953,0.569044588 C15.0092177,1.4947597 15.0499239,2.55452453 14.6898846,3.50971655 C15.4155779,4.32454236 15.8107088,5.38079803 15.7980758,6.47214526" id="Fill-16"></path>
                                </g>
                                <rect id="Rectangle-4" x="0.196071164" y="0" width="22" height="18"></rect>
                            </g>
                        </g>
                    </g>
                </g>
            </g>
        </g>
    </g>
</svg>