<?xml version="1.0" encoding="UTF-8"?>
<svg width="20px" height="17px" viewBox="0 0 20 17" version="1.1" xmlns="http://www.w3.org/2000/svg" xmlns:xlink="http://www.w3.org/1999/xlink">
    <!-- Generator: Sketch 50.2 (55047) - http://www.bohemiancoding.com/sketch -->
    <title>sm_twitter@2x</title>
    <desc>Created with Sketch.</desc>
    <defs></defs>
    <g id="Showcase" stroke="none" stroke-width="1" fill="none" fill-rule="evenodd">
        <g id="popup-menu" transform="translate(-252.000000, -160.000000)">
            <g id="menu" transform="translate(11.500000, 43.000000)">
                <g id="socialm" transform="translate(58.000000, 115.892857)">
                    <g id="Group-15" transform="translate(0.000000, 0.037243)">
                        <g id="Group" transform="translate(0.384766, 0.000000)">
                            <g id="sm_twitter" transform="translate(180.487363, 0.779489)">
                                <g id="t">
                                    <path d="M8.059436,16.8499569 C14.4400557,16.891978 19.6457318,11.7538653 19.6877529,5.3732456 C19.6885768,5.32380898 19.6885768,5.27272447 19.6877529,5.22246391 C19.6877529,5.04696391 19.6877529,4.87146391 19.6795135,4.69678785 C20.4803867,4.11673151 21.1708515,3.39907658 21.719598,2.57678081 C20.9722811,2.90635827 20.1796473,3.1238794 19.3688867,3.2219287 C20.2224923,2.71025968 20.8610487,1.90526673 21.1659078,0.958555458 C20.3633867,1.43479489 19.4842388,1.76931602 18.5680135,1.94728785 C17.023943,0.300224472 14.4375839,0.217006162 12.7905205,1.76190053 C11.964929,2.53558363 11.496929,3.61659771 11.4985768,4.7486963 C11.5035205,5.06097095 11.539774,5.37159771 11.6081614,5.67645687 C8.32145009,5.51084419 5.25967544,3.95853433 3.18416136,1.40430898 C2.10397121,3.27383715 2.6584853,5.66080194 4.45138671,6.86375968 C3.80376699,6.8415132 3.17015431,6.66683715 2.60245713,6.35373856 L2.60245713,6.40976673 C2.60410502,8.35427377 3.97349938,10.0293512 5.87845713,10.4182526 C5.27862614,10.5813935 4.64913319,10.6061118 4.03776699,10.4899357 C4.57250643,12.1551259 6.10668952,13.2954639 7.85509798,13.3267738 C6.4082529,14.46464 4.61947121,15.0817738 2.77795713,15.0801259 C2.45332333,15.0817738 2.12868952,15.0628231 1.80570361,15.0240977 C3.67440783,16.2163442 5.84549938,16.8499569 8.06190783,16.8491329" id="Fill-11" fill="#000000"></path>
                                    <rect id="Rectangle-4-Copy" x="0.863598749" y="0" width="22" height="18"></rect>
                                </g>
                                <rect id="Rectangle-4" x="0.422535211" y="0" width="22" height="18"></rect>
                            </g>
                        </g>
                    </g>
                </g>
            </g>
        </g>
    </g>
</svg>