<svg xmlns="http://www.w3.org/2000/svg" width="41" height="41" viewBox="0 0 41 41">
    <path fill="#B8B8B8" fill-rule="nonzero" d="M20.462.496C9.314.496.276 9.534.276 20.683c0 11.148 9.038 20.187 20.186 20.187 11.15 0 20.188-9.039 20.188-20.187C40.65 9.534 31.61.496 20.462.496zm.048 29.71H10.028c0-6.305 6.638-6.304 8.11-7.953l.17-.752c-2.07-.875-3.531-2.985-3.531-5.452 0-3.25 2.534-5.886 5.66-5.886 3.125 0 5.66 2.635 5.66 5.886 0 2.446-1.436 4.543-3.477 5.432l.191.854c1.616 1.57 8.033 1.672 8.033 7.872H20.51z"/>
</svg>
