<?xml version="1.0" encoding="UTF-8"?>
<svg width="60px" height="60px" viewBox="0 0 60 60" version="1.1" xmlns="http://www.w3.org/2000/svg" xmlns:xlink="http://www.w3.org/1999/xlink">
    <!-- Generator: Sketch 51.2 (57519) - http://www.bohemiancoding.com/sketch -->
    <title>aelf</title>
    <desc>Created with Sketch.</desc>
    <defs></defs>
    <g id="aelf" stroke="none" stroke-width="1" fill="none" fill-rule="evenodd">
        <g transform="translate(13.000000, 11.000000)" fill-rule="nonzero" stroke="#FFFFFF" stroke-width="0.936585366">
            <g transform="translate(0.198490, 0.888605)">
                <circle id="Oval" cx="29.6165999" cy="18.358937" r="7.84681471"></circle>
                <circle id="Oval" cx="19.7009101" cy="3.78361849" r="3.78361849"></circle>
                <circle id="Oval" cx="19.7009101" cy="32.9528941" r="3.78361849"></circle>
                <path d="M17.9675282,24.0250455 C18.1911904,24.0995996 18.4334911,24.1368766 18.6757918,24.1368766 C19.9804878,24.1368766 21.0428831,23.0744813 21.0428831,21.7697852 C21.0428831,20.4650892 19.9804878,19.4026938 18.6757918,19.4026938 C17.8370586,19.4026938 17.1101565,19.8313797 16.6814707,20.4837277 L16.6814707,20.5023662 C16.6069166,20.5955588 16.5510011,20.7073899 16.5137241,20.819221 C13.904332,25.4229341 8.66690936,22.3475792 8.66690936,22.3475792 C7.80953768,21.8443393 6.8216964,21.546123 5.74066254,21.546123 C2.59075355,21.546123 0.0372770295,24.0995996 0.0372770295,27.2495086 C0.0372770295,30.3994175 2.59075355,32.9528941 5.74066254,32.9528941 C7.94000728,32.9528941 9.8597743,31.7041136 10.7917,29.8775391 L10.7917,29.8589006 C10.9594467,29.5420459 11.0899163,29.2065526 11.2017474,28.8524208 C13.9229705,22.6085184 17.9675282,24.0250455 17.9675282,24.0250455 Z M16.6255552,15.6563524 C16.7373862,15.861376 16.8864944,16.0663997 17.054241,16.2341463 C17.9861667,17.1660721 19.4772479,17.1660721 20.3905351,16.2341463 C21.3224609,15.3022206 21.3224609,13.8111394 20.3905351,12.8978522 C19.7941027,12.3014197 18.974008,12.0963961 18.2284674,12.2641427 L18.2098289,12.2641427 C18.0979978,12.2827812 17.9675282,12.3200582 17.8556971,12.3759738 C12.7487441,13.7925009 11.2203859,7.90273025 11.2203859,7.90273025 C10.9780852,6.93352748 10.4748453,6.02024026 9.7293047,5.27469967 C7.49268293,3.0380779 3.89544958,3.0380779 1.67746633,5.25606116 C-0.540516928,7.47404441 -0.559155442,11.0899163 1.67746633,13.3078995 C3.24310157,14.8735348 5.46108482,15.3394976 7.43676738,14.7057881 L7.4554059,14.7057881 C7.79089916,14.593957 8.12639243,14.4448489 8.46188569,14.2771023 C14.7803422,11.7795413 16.6255552,15.6563524 16.6255552,15.6563524 Z" id="Shape"></path>
            </g>
        </g>
    </g>
</svg>