<?xml version="1.0" encoding="UTF-8"?>
<svg width="60px" height="60px" viewBox="0 0 60 60" version="1.1" xmlns="http://www.w3.org/2000/svg" xmlns:xlink="http://www.w3.org/1999/xlink">
    <!-- Generator: Sketch 51.2 (57519) - http://www.bohemiancoding.com/sketch -->
    <title>bc</title>
    <desc>Created with Sketch.</desc>
    <defs></defs>
    <g id="bc" stroke="none" stroke-width="1" fill="none" fill-rule="evenodd">
        <g transform="translate(4.000000, 13.000000)" id="bitcoincash">
            <g transform="translate(0.938441, 0.797305)">
                <path d="M1.89449066,29.3112404 C2.91213758,29.3112404 3.73664112,30.135744 3.73664112,31.1533909 C3.73664112,32.1719489 2.91213758,32.9964524 1.89449066,32.9964524 C0.877754797,32.9964524 0.052340197,32.1719489 0.052340197,31.1533909 C0.052340197,30.135744 0.877754797,29.3112404 1.89449066,29.3112404" id="Fill-212" fill="#FEFEFE"></path>
                <path d="M1.89449066,0.0518846702 C2.91213758,0.0518846702 3.73664112,0.876388216 3.73664112,1.89403513 C3.73664112,2.91259311 2.91213758,3.73709665 1.89449066,3.73709665 C0.877754797,3.73709665 0.052340197,2.91259311 0.052340197,1.89403513 C0.052340197,0.876388216 0.877754797,0.0518846702 1.89449066,0.0518846702" id="Fill-212-Copy-2" fill="#FEFEFE"></path>
                <path d="M36.3007331,0.0518846702 C37.31838,0.0518846702 38.1428835,0.876388216 38.1428835,1.89403513 C38.1428835,2.91259311 37.31838,3.73709665 36.3007331,3.73709665 C35.2839972,3.73709665 34.4585826,2.91259311 34.4585826,1.89403513 C34.4585826,0.876388216 35.2839972,0.0518846702 36.3007331,0.0518846702" id="Fill-212-Copy-4" fill="#FEFEFE"></path>
                <path d="M36.3007331,29.3112404 C37.31838,29.3112404 38.1428835,30.135744 38.1428835,31.1533909 C38.1428835,32.1719489 37.31838,32.9964524 36.3007331,32.9964524 C35.2839972,32.9964524 34.4585826,32.1719489 34.4585826,31.1533909 C34.4585826,30.135744 35.2839972,29.3112404 36.3007331,29.3112404" id="Fill-212-Copy-6" fill="#FEFEFE"></path>
                <path d="M15.0407703,29.3112404 C16.0584173,29.3112404 16.8829208,30.135744 16.8829208,31.1533909 C16.8829208,32.1719489 16.0584173,32.9964524 15.0407703,32.9964524 C14.0240345,32.9964524 13.1986199,32.1719489 13.1986199,31.1533909 C13.1986199,30.135744 14.0240345,29.3112404 15.0407703,29.3112404" id="Fill-212-Copy" fill="#FEFEFE"></path>
                <path d="M15.0407703,0.0518846702 C16.0584173,0.0518846702 16.8829208,0.876388216 16.8829208,1.89403513 C16.8829208,2.91259311 16.0584173,3.73709665 15.0407703,3.73709665 C14.0240345,3.73709665 13.1986199,2.91259311 13.1986199,1.89403513 C13.1986199,0.876388216 14.0240345,0.0518846702 15.0407703,0.0518846702" id="Fill-212-Copy-3" fill="#FEFEFE"></path>
                <path d="M49.4470128,0.0518846702 C50.4646597,0.0518846702 51.2891632,0.876388216 51.2891632,1.89403513 C51.2891632,2.91259311 50.4646597,3.73709665 49.4470128,3.73709665 C48.4302769,3.73709665 47.6048623,2.91259311 47.6048623,1.89403513 C47.6048623,0.876388216 48.4302769,0.0518846702 49.4470128,0.0518846702" id="Fill-212-Copy-5" fill="#FEFEFE"></path>
                <path d="M49.4470128,29.3112404 C50.4646597,29.3112404 51.2891632,30.135744 51.2891632,31.1533909 C51.2891632,32.1719489 50.4646597,32.9964524 49.4470128,32.9964524 C48.4302769,32.9964524 47.6048623,32.1719489 47.6048623,31.1533909 C47.6048623,30.135744 48.4302769,29.3112404 49.4470128,29.3112404" id="Fill-212-Copy-7" fill="#FEFEFE"></path>
                <path d="M35.7189057,31.057195 C40.3069138,27.8382289 43.3050667,22.5092698 43.3050667,16.4783209 C43.3050667,10.4473719 40.3070119,5.11345677 35.7189057,1.89449066 L49.1001871,1.89449066 L49.1001871,31.057195 L35.7189057,31.057195 Z" id="Shape" stroke="#FFFFFF" stroke-width="0.731707317" fill-rule="nonzero"></path>
                <path d="M7.70433194,16.4734139 C7.70433194,22.5040684 10.7024848,27.8330275 15.2904929,31.0522881 L1.89449066,31.0522881 L1.89449066,1.89449066 L15.2907873,1.89449066 C10.7024848,5.11345677 7.70433194,10.4424159 7.70433194,16.4734139 Z" id="Shape" stroke="#FFFFFF" stroke-width="0.731707317" fill-rule="nonzero"></path>
                <circle id="Oval" stroke="#FFFFFF" stroke-width="0.731707317" fill-rule="nonzero" cx="25.4974615" cy="16.4663479" r="14.5690112"></circle>
                <path d="M32.3306985,17.0717196 L32.322602,17.0566552 L32.3212281,17.0541527 C32.3163211,17.0389902 32.3126409,17.0231407 32.3070469,17.0067514 L32.30636,17.0054756 L32.305673,17.0041998 L32.304986,17.002924 L32.3042991,17.0016482 L32.3036121,17.0003724 L32.3029251,16.9990966 L32.3015512,16.996594 C32.1305278,16.4247042 31.7914809,15.9174588 31.3284518,15.5407479 L31.3277648,15.5394721 C31.3140744,15.5290203 31.299697,15.5173417 31.2859575,15.506939 L31.2670167,15.492856 L31.2533262,15.4824532 L31.2474379,15.4775463 L31.2343854,15.4683702 L31.228497,15.4634633 L31.2154445,15.4542873 L31.2095562,15.4493803 L31.1958657,15.4389775 L31.1887016,15.4347085 L31.1750112,15.4243057 L31.167847,15.4200367 L31.1531261,15.4102228 L31.1459619,15.4059537 L31.1372766,15.3928031 L31.1294746,15.3873073 L31.1147537,15.3774933 L31.1069516,15.3719975 L31.0922307,15.3621836 L31.0844287,15.3566878 L31.0697078,15.3468739 L31.0619057,15.3413781 L31.0462525,15.3303865 L31.0384504,15.3248907 L31.0215705,15.314537 L31.0137684,15.3090412 L30.9968885,15.2986875 L30.9890864,15.2931918 L30.9722065,15.2828381 L30.9644044,15.2773423 L30.9475245,15.2669886 L30.9384466,15.2620816 L30.9215666,15.2517279 L30.9124888,15.246821 L30.894333,15.2370071 L30.8852551,15.2321001 L30.8664124,15.2212066 L30.8573345,15.2162997 L30.8384918,15.2054062 L30.8294139,15.2004993 L30.8105712,15.1896058 L30.8007573,15.1835212 L30.7819145,15.1726277 L30.7721006,15.1665431 L30.7520312,15.1562876 L30.7422172,15.1502029 L30.7221478,15.1399474 L30.7085555,15.1326851 L30.7079176,15.1314093 C30.6981037,15.1253246 30.6878481,15.1211537 30.6780833,15.1150691 C30.2615165,14.9009861 29.8117525,14.7588733 29.3478063,14.6947388 C29.4779,14.554889 29.5970486,14.4052436 29.7041988,14.2471259 L29.721275,14.2217569 L29.7225508,14.2210699 L29.730451,14.2087044 L29.7408047,14.1918245 L29.7463005,14.1840224 L29.7566542,14.1671424 L29.76215,14.1593404 L29.7725037,14.1424604 L29.7779995,14.1346584 L29.7883532,14.1177784 L29.793849,14.1099764 L29.8042027,14.0930964 L29.8096985,14.0852943 L29.8187763,14.0690523 L29.8242721,14.0612502 L29.83335,14.0450082 L29.8376191,14.037844 L29.8466969,14.021602 L29.850966,14.0144378 L29.8600439,13.9981958 L29.8642639,13.9910316 L29.8720659,13.9754766 L29.876335,13.9683124 L29.884137,13.9527573 L29.8884061,13.9455932 L29.8962082,13.9300381 L29.9004772,13.922874 L29.9089172,13.9085947 L29.9131863,13.9014305 L29.9216753,13.8871513 L29.9259443,13.8799871 L29.9332066,13.8663948 L29.9374757,13.8592307 L29.944738,13.8456384 L29.9477313,13.8391612 L29.9549936,13.8255689 L29.9579868,13.8190917 L29.9652491,13.8054995 L29.9682423,13.7990223 L29.9755046,13.78543 L29.9784979,13.7789528 L29.9844844,13.7659984 L29.9874776,13.7595212 L29.9934641,13.7465669 L29.9964574,13.7400897 L30.0024439,13.7271353 L30.0054371,13.7206581 L30.0120124,13.7059372 L30.0209922,13.6863094 C30.0275675,13.6715885 30.032867,13.6572602 30.0394423,13.6421467 L30.0407182,13.6414598 C30.2403399,13.1493991 30.28714,12.608624 30.1750217,12.0895844 L30.1743347,12.0883086 L30.1729607,12.0858061 L30.1722738,12.0845303 L30.1715868,12.0832544 L30.1708998,12.0819786 L30.1702128,12.0807028 L30.1695259,12.079427 L30.1688389,12.0781512 C30.1658456,12.0634303 30.1628524,12.0490039 30.1586324,12.0350681 L30.1586324,12.0322711 L30.1579454,12.0309953 L30.1572585,12.0297195 L30.1565715,12.0284437 L30.1572585,12.0297195 L30.1511738,12.0184335 C30.1467576,11.9981678 30.1422922,11.977902 30.1359132,11.9570474 C30.1314969,11.9367817 30.1251179,11.9159271 30.1194258,11.8962993 L30.1120163,11.8825107 L30.1106423,11.8800081 C30.1063733,11.8661214 30.1021533,11.8521857 30.0978842,11.838299 L30.0971973,11.8370232 L30.0965103,11.8357474 L30.0958233,11.8344715 L30.0951363,11.8331957 L30.0944494,11.8319199 L30.0937624,11.8306441 L30.0931245,11.8293683 C29.9412601,11.3204042 29.6396121,10.8689839 29.2274876,10.5339307 L29.2268497,10.5326549 C29.215073,10.522841 29.2020205,10.5136159 29.1902438,10.503802 L29.1740017,10.4915346 L29.1609492,10.4823586 L29.1550608,10.4774516 L29.1439711,10.4688644 L29.1380828,10.4639575 L29.126944,10.4553703 L29.1211047,10.4504633 L29.1086901,10.4425631 L29.1028017,10.4376562 L29.0897983,10.4284801 L29.0839099,10.4235732 L29.0708574,10.4143972 L29.0649691,10.4094902 L29.0519165,10.4003142 L29.0447524,10.3960451 L29.0316999,10.3868691 L29.0245357,10.3826001 L29.0114832,10.373424 L29.004319,10.369155 L28.9900398,10.360666 L28.9828756,10.3563969 L28.9685963,10.3479079 L28.9614322,10.3436388 L28.9471529,10.3351498 L28.9399888,10.3308807 L28.9257095,10.3223917 L28.9185454,10.3181226 L28.9035791,10.3083087 L28.896415,10.3040396 L28.8814487,10.2942257 L28.8742846,10.2899567 L28.8580425,10.2808788 L28.8508784,10.2766097 L28.8346854,10.2675318 L28.8268833,10.262036 L28.8106413,10.2529582 L28.8028392,10.2474624 L28.7866463,10.2383845 L28.7788442,10.2328887 L28.7619642,10.222535 L28.7528864,10.2176281 L28.7355648,10.2068818 L28.7264869,10.2019748 L28.7083312,10.1921609 L28.6992533,10.187254 L28.6810975,10.17744 L28.6681432,10.1714536 L28.6674562,10.1701777 L28.6402225,10.1554569 C27.844608,9.7419473 26.8338232,9.61745771 25.8168556,9.8783608 L25.5523214,9.94627313 L24.8832082,7.34067709 L23.3326087,7.73814089 L23.9995137,10.3334323 L22.7588869,10.6534152 L22.0915402,8.06641655 L20.5409407,8.46388036 L21.2078457,11.0591718 L18.0101267,11.88202 L18.4356093,13.5356657 L19.724079,13.2047403 C20.1505171,13.0948087 20.5853309,13.3513867 20.6952646,13.7778242 L20.6956572,13.7793944 L22.4840971,20.7382986 C22.5570086,21.0228857 22.3857826,21.3127843 22.1013541,21.3863119 L20.9723607,21.6767549 L21.0387028,23.6434646 L24.2326434,22.8226773 L24.9081356,25.4132581 L26.45795,25.0144694 L25.7906034,22.4179022 L27.0309848,22.0998821 L27.6985768,24.6964002 L29.2483912,24.2976115 L28.5785421,21.690936 C28.8411626,21.6222385 29.067079,21.5639438 29.2233657,21.5235105 C30.3694354,21.2287494 31.2962131,20.5568392 31.8570296,19.7189757 L31.8759705,19.6910061 L31.8772463,19.6903191 L31.8864223,19.6772666 L31.8985916,19.6576387 L31.9046762,19.6478248 L31.9168454,19.628197 L31.9229301,19.618383 L31.9338235,19.5995403 L31.9399082,19.5897264 L31.9508016,19.5708837 L31.9557086,19.5618058 L31.966602,19.5429631 L31.971509,19.5338852 L31.9824024,19.5150425 L31.9873094,19.5059646 L31.9971233,19.4878088 L32.0020303,19.4787309 L32.0118442,19.4605752 L32.0167512,19.4514973 L32.0271048,19.4346174 L32.0320118,19.4255395 L32.0423655,19.4086596 L32.0472725,19.3995817 L32.0563503,19.3833396 L32.0612573,19.3742618 L32.0703352,19.3580688 L32.0752421,19.3489909 L32.08432,19.3327979 L32.0879021,19.324407 L32.09698,19.3082141 L32.100562,19.2998232 L32.1083641,19.2842681 L32.1126332,19.2771039 L32.1204352,19.2615489 L32.1247043,19.2543847 L32.1325064,19.2388296 L32.1367754,19.2316655 L32.1445775,19.2161104 L32.1488465,19.2089463 L32.1566486,19.1933912 L32.1609177,19.186227 L32.1687197,19.170672 L32.1729888,19.1635078 L32.1795641,19.1487869 L32.1838332,19.1416228 L32.1903594,19.1269019 L32.1933527,19.1204247 L32.2005168,19.1036429 L32.2103308,19.0822976 C32.2174949,19.0655158 32.2250516,19.0499607 32.2311853,19.0338168 L32.2317742,19.0319031 C32.4561254,18.4783788 32.508885,17.8701903 32.383203,17.286301 L32.3825651,17.2850252 L32.3818781,17.2837494 L32.3811911,17.2824736 L32.3805041,17.2811977 L32.3798172,17.2799219 L32.3791302,17.2786461 L32.3784432,17.2773703 L32.3777562,17.2760945 C32.374076,17.260245 32.3704449,17.2444446 32.3667647,17.2285951 L32.3667647,17.2254056 L32.3660777,17.2241298 L32.3653907,17.222854 L32.3647037,17.2215782 L32.3640168,17.2203024 L32.3633298,17.2190266 L32.3626428,17.2177507 L32.3619558,17.2164749 L32.3612689,17.2151991 L32.3605819,17.2139233 L32.3598949,17.2126475 L32.3592079,17.2113717 L32.358521,17.2100959 L32.357834,17.2088201 L32.3551352,17.2039131 C32.3493449,17.1811448 32.3448305,17.1576895 32.3377645,17.1355592 C32.334195,17.1144313 32.3318359,17.0931167 32.3306985,17.0717196 Z M23.2203865,12.4164371 C23.4849207,12.3485247 24.5786822,12.0738331 24.9393438,11.9800611 C25.5127222,11.8332939 26.0777587,11.8902637 26.5188944,12.1027351 L26.5336153,12.1093104 L26.5400925,12.1123037 L26.5491704,12.1172106 L26.5536848,12.119615 L26.5627627,12.124522 L26.5672771,12.1269264 L26.5763549,12.1318334 L26.5808694,12.1342378 L26.5899472,12.1391447 L26.5944616,12.1415491 L26.6035395,12.1464561 L26.6080539,12.1488605 L26.6171318,12.1537675 L26.6216462,12.1561719 L26.6307241,12.1610788 L26.6352385,12.1634833 L26.6443164,12.1683902 L26.6488308,12.1707946 L26.6579086,12.1757016 L26.662423,12.178106 L26.6702251,12.1836018 L26.6747395,12.1860062 L26.6825416,12.191502 L26.687056,12.1939064 L26.694858,12.1994022 L26.6993724,12.2018066 L26.7065366,12.2060757 L26.711051,12.2084801 L26.7182152,12.2127491 L26.7227296,12.2151535 L26.7298937,12.2194226 L26.7344081,12.221827 L26.7415723,12.2260961 L26.7460867,12.2285005 L26.7532509,12.2327695 L26.7565385,12.2358609 L26.7637027,12.24013 L26.7663034,12.2419456 L26.7734676,12.2462146 L26.7760682,12.2480302 L26.7832324,12.2522992 L26.7858331,12.2541148 L26.7929973,12.2583839 L26.7955979,12.2601994 L26.8014863,12.2651064 L26.804087,12.266922 L26.8112511,12.271191 L26.8210651,12.2772757 C26.8282292,12.2815447 26.8347555,12.2877275 26.8419197,12.2919965 C27.0677506,12.4624583 27.2336812,12.7001695 27.3158339,12.9709236 L27.3178458,12.974702 C27.3199557,12.9816699 27.3227527,12.9898645 27.3248627,12.9968324 L27.3255497,12.9981082 L27.3296225,13.0056158 C27.3325176,13.017 27.3360015,13.0264704 27.3388966,13.0378546 C27.3420815,13.0494734 27.3441518,13.0613693 27.3450794,13.0733809 L27.3491522,13.0808886 L27.3498391,13.0821644 C27.350927,13.0899435 27.3528688,13.097579 27.3556293,13.1049327 L27.3576412,13.1087111 C27.4156406,13.3854324 27.3847276,13.6734041 27.2693159,13.9315102 L27.2591585,13.9547692 L27.2537608,13.9657608 L27.2494918,13.972925 L27.2483141,13.9768014 L27.2453209,13.9832786 L27.2441432,13.9871551 L27.2398742,13.9943193 L27.2386965,13.9981958 L27.2344274,14.00536 L27.2332498,14.0092365 L27.2289807,14.0164006 L27.227803,14.0202771 L27.223534,14.0274413 L27.2223563,14.0313178 L27.2180872,14.0384819 L27.2169096,14.0423584 L27.2126405,14.0495226 L27.2102361,14.054037 L27.2059671,14.0612012 L27.2035626,14.0657156 L27.1993427,14.0728797 L27.1968892,14.0773941 L27.1926692,14.0845583 L27.1902648,14.0890727 L27.184769,14.0968748 L27.1823155,14.1013892 L27.1768197,14.1091912 L27.1744153,14.1137056 L27.1689195,14.1215077 L27.1665151,14.1260221 L27.1610193,14.1338242 L27.1586149,14.1383386 L27.1531191,14.1461407 L27.1507147,14.1506551 L27.1452189,14.1584571 L27.1428145,14.1629715 L27.1373187,14.1707736 L27.1349143,14.175288 L27.1294185,14.1830901 L27.1270141,14.1876045 L27.1202425,14.1960935 L27.117838,14.2006079 L27.1110664,14.209097 L27.108662,14.2136114 L27.1018904,14.2221004 L27.099486,14.2266148 L27.0927144,14.2351039 L27.0878074,14.2409922 L27.0786314,14.2540447 C26.793488,14.6535694 26.3261981,14.9763493 25.7528198,15.1231165 C25.3914712,15.2156618 24.3003594,15.5017376 24.0360705,15.5696499 L23.2203865,12.4164371 Z M29.2810716,17.7514318 L29.2851444,17.7589394 L29.2858313,17.7602152 C29.2873525,17.7690968 29.2895116,17.7760647 29.2910327,17.78475 L29.2917197,17.7860258 L29.2924067,17.7873017 L29.2930936,17.7885775 L29.2937806,17.7898533 C29.3549348,18.0950514 29.3109885,18.4119633 29.1690948,18.6890047 L29.1552081,18.7142756 L29.1485346,18.7259541 L29.1436276,18.735032 L29.1412232,18.7395464 L29.1369542,18.7467106 L29.1345498,18.751225 L29.1302807,18.7583891 L29.1278763,18.7629035 L29.1223805,18.7707056 L29.1199761,18.77522 L29.1144803,18.7830221 L29.1120759,18.7875365 L29.1065801,18.7953386 L29.1041757,18.799853 L29.0986799,18.807655 L29.0962755,18.8121694 L29.0907797,18.8199715 L29.0883753,18.8244859 L29.0828795,18.832288 L29.080475,18.8368024 L29.0749793,18.8446044 L29.0725748,18.8491188 L29.067079,18.8569209 L29.0646746,18.8614353 L29.0591788,18.8692374 L29.0567744,18.8737518 L29.0500028,18.8822408 L29.0475984,18.8867552 L29.0408268,18.8952443 L29.0384224,18.8997587 L29.0323378,18.9095726 L29.0299334,18.914087 L29.0238487,18.9239009 L29.0214443,18.9284153 L29.0153597,18.9382292 L29.0116795,18.9434306 L29.0055948,18.9532445 L29.0019146,18.9584459 L28.9945542,18.9688487 L28.9908739,18.9740501 L28.9835135,18.9844528 L28.9798333,18.9896542 L28.9724728,19.0000569 L28.9687926,19.0052583 L28.9613831,19.0156611 L28.9577029,19.0208625 L28.9503425,19.0312652 L28.9441597,19.0378405 L28.9324811,19.0522179 C28.5861969,19.4944332 28.0276376,19.8581862 27.3492503,20.0323342 C26.9214124,20.1427899 25.6287227,20.4808795 25.3141866,20.5611574 L24.4341232,17.136835 C24.7481687,17.0552813 26.0442932,16.7298517 26.472082,16.619396 C27.1505184,16.4452479 27.8165892,16.494661 28.3313785,16.7144929 L28.3481603,16.721657 L28.3565512,16.7252391 L28.3688186,16.7301461 L28.3746088,16.7318635 L28.3856004,16.7372612 L28.3913906,16.7389786 L28.4023822,16.7443763 L28.4081724,16.7460937 L28.419164,16.7514914 L28.4236293,16.7538958 L28.4346209,16.7592934 L28.4391353,16.7616978 L28.4501269,16.7670955 L28.4546413,16.7694999 L28.4656329,16.7748976 L28.4701473,16.777302 L28.4792252,16.7822089 L28.4837396,16.7846133 L28.4928175,16.7895203 L28.4973319,16.7919247 L28.5064097,16.7968317 L28.5109241,16.7992361 L28.520002,16.804143 L28.5245164,16.8065475 L28.5335943,16.8114544 L28.5381087,16.8138588 L28.5471866,16.8187658 L28.551701,16.8211702 L28.5607789,16.8260772 L28.5652933,16.8284816 L28.5743711,16.8333885 L28.5788855,16.8357929 L28.5879634,16.8406999 L28.5924778,16.8431043 L28.6002799,16.8486001 L28.6047943,16.8510045 L28.6125964,16.8565003 L28.6171108,16.8589047 L28.6249128,16.8644005 L28.6294272,16.8668049 L28.6372293,16.8723007 L28.6417437,16.8747051 L28.6495458,16.8802009 L28.6540602,16.8826053 L28.6612243,16.8868744 L28.6657387,16.8892788 L28.6735408,16.8947746 L28.6839436,16.902135 C28.6917456,16.9076308 28.7008235,16.9124887 28.7084784,16.9179845 C28.9660113,17.0926551 29.1570865,17.3490991 29.2507956,17.645834 L29.2534945,17.6507409 C29.2562914,17.6589356 29.2584014,17.6659034 29.2611984,17.6740981 L29.2618854,17.6753739 L29.2659582,17.6828815 C29.2688533,17.6942657 29.2717484,17.7056498 29.2753305,17.7183098 C29.2816604,17.7211068 29.2826909,17.7350916 29.280679,17.7523641 L29.2810716,17.7514318 Z" id="Shape" fill="#FFFFFF" fill-rule="nonzero"></path>
            </g>
        </g>
    </g>
</svg>