<?xml version="1.0" encoding="UTF-8"?>
<svg width="60px" height="60px" viewBox="0 0 60 60" version="1.1" xmlns="http://www.w3.org/2000/svg" xmlns:xlink="http://www.w3.org/1999/xlink">
    <!-- Generator: Sketch 51.2 (57519) - http://www.bohemiancoding.com/sketch -->
    <title>eth</title>
    <desc>Created with Sketch.</desc>
    <defs></defs>
    <g id="eth" stroke="none" stroke-width="1" fill="none" fill-rule="evenodd">
        <g transform="translate(16.000000, 6.000000)">
            <g transform="translate(0.841754, 0.082507)">
                <polygon id="Stroke-168" stroke="#FFFFFF" stroke-width="0.936585366" stroke-linejoin="round" points="1.1152768 22.9743976 13.7321117 1.96564089 13.7321117 30.2816684"></polygon>
                <polygon id="Stroke-170" stroke="#FFFFFF" stroke-width="0.936585366" stroke-linejoin="round" points="1.1152768 22.9743976 13.7321117 1.96564089 13.7321117 17.445926"></polygon>
                <polygon id="Stroke-172" stroke="#FFFFFF" stroke-width="0.936585366" stroke-linejoin="round" points="1.1152768 25.5879403 13.7321117 43.0277999 13.7321117 33.1268292"></polygon>
                <polygon id="Stroke-174" stroke="#FFFFFF" stroke-width="0.936585366" stroke-linejoin="round" points="26.3492291 22.9743976 13.7323942 1.96564089 13.7323942 30.2816684"></polygon>
                <polygon id="Stroke-176" stroke="#FFFFFF" stroke-width="0.936585366" stroke-linejoin="round" points="26.3492291 22.9743976 13.7323942 1.96564089 13.7323942 17.445926"></polygon>
                <polygon id="Stroke-178" stroke="#FFFFFF" stroke-width="0.936585366" stroke-linejoin="round" points="26.3492291 25.5879403 13.7323942 43.0277999 13.7323942 33.1268292"></polygon>
                <path d="M13.7322529,0.18003313 C14.7677643,0.18003313 15.6054237,1.01769247 15.6054237,2.05320386 C15.6054237,3.08871525 14.7677643,3.92637459 13.7322529,3.92637459 C12.6980263,3.92637459 11.8590822,3.08871525 11.8590822,2.05320386 C11.8590822,1.01769247 12.6980263,0.18003313 13.7322529,0.18003313" id="Fill-180" fill="#FEFEFE"></path>
                <path d="M13.7322529,41.1546291 C14.7677643,41.1546291 15.6054237,41.9922885 15.6054237,43.0277999 C15.6054237,44.0633113 14.7677643,44.9009706 13.7322529,44.9009706 C12.6980263,44.9009706 11.8590822,44.0633113 11.8590822,43.0277999 C11.8590822,41.9922885 12.6980263,41.1546291 13.7322529,41.1546291" id="Fill-180-Copy-5" fill="#FEFEFE"></path>
                <path d="M13.7322529,27.0256657 C14.7677643,27.0256657 15.6054237,27.8633251 15.6054237,28.8988365 C15.6054237,29.9343479 14.7677643,30.7720072 13.7322529,30.7720072 C12.6980263,30.7720072 11.8590822,29.9343479 11.8590822,28.8988365 C11.8590822,27.8633251 12.6980263,27.0256657 13.7322529,27.0256657" id="Fill-180-Copy-6" fill="#FEFEFE"></path>
                <path d="M13.7322529,31.6909096 C14.7677643,31.6909096 15.6054237,32.528569 15.6054237,33.5640804 C15.6054237,34.5995918 14.7677643,35.4372511 13.7322529,35.4372511 C12.6980263,35.4372511 11.8590822,34.5995918 11.8590822,33.5640804 C11.8590822,32.528569 12.6980263,31.6909096 13.7322529,31.6909096" id="Fill-180-Copy-7" fill="#FEFEFE"></path>
                <path d="M1.9402768,20.1696476 C2.9757882,20.1696476 3.81344754,21.0073069 3.81344754,22.0428183 C3.81344754,23.0783297 2.9757882,23.915989 1.9402768,23.915989 C0.906050166,23.915989 0.0671060733,23.0783297 0.0671060733,22.0428183 C0.0671060733,21.0073069 0.906050166,20.1696476 1.9402768,20.1696476" id="Fill-180-Copy" fill="#FEFEFE"></path>
                <path d="M25.6989242,20.1696476 C26.7344356,20.1696476 27.5720949,21.0073069 27.5720949,22.0428183 C27.5720949,23.0783297 26.7344356,23.915989 25.6989242,23.915989 C24.6646976,23.915989 23.8257535,23.0783297 23.8257535,22.0428183 C23.8257535,21.0073069 24.6646976,20.1696476 25.6989242,20.1696476" id="Fill-180-Copy-3" fill="#FEFEFE"></path>
                <path d="M1.9402768,24.5098915 C2.9757882,24.5098915 3.81344754,25.3475508 3.81344754,26.3830622 C3.81344754,27.4185736 2.9757882,28.2562329 1.9402768,28.2562329 C0.906050166,28.2562329 0.0671060733,27.4185736 0.0671060733,26.3830622 C0.0671060733,25.3475508 0.906050166,24.5098915 1.9402768,24.5098915" id="Fill-180-Copy-2" fill="#FEFEFE"></path>
                <path d="M25.6989242,24.5098915 C26.7344356,24.5098915 27.5720949,25.3475508 27.5720949,26.3830622 C27.5720949,27.4185736 26.7344356,28.2562329 25.6989242,28.2562329 C24.6646976,28.2562329 23.8257535,27.4185736 23.8257535,26.3830622 C23.8257535,25.3475508 24.6646976,24.5098915 25.6989242,24.5098915" id="Fill-180-Copy-4" fill="#FEFEFE"></path>
            </g>
        </g>
    </g>
</svg>