<?xml version="1.0" encoding="UTF-8"?>
<svg width="60px" height="60px" viewBox="0 0 60 60" version="1.1" xmlns="http://www.w3.org/2000/svg" xmlns:xlink="http://www.w3.org/1999/xlink">
    <!-- Generator: Sketch 51.3 (57544) - http://www.bohemiancoding.com/sketch -->
    <title>NEM</title>
    <desc>Created with Sketch.</desc>
    <defs></defs>
    <g id="NEM" stroke="none" stroke-width="1" fill="none" fill-rule="evenodd">
        <g id="Group-9" transform="translate(10.000000, 10.000000)" stroke="#FFFFFF" stroke-width="0.930232558">
            <path d="M28.7040119,3.33349916 C27.7558605,3.30868221 26.6310412,3.50621075 25.5488064,3.94672961 C22.4979759,5.18872809 20.4686686,8.11907049 20.3757309,11.4106614 C20.3513456,12.2743632 20.4969384,13.100444 20.8615677,13.8860263 C21.2406556,14.7027558 21.7910884,15.3922354 22.4394942,16.0078397 C23.2222712,16.7510534 24.103165,17.3632768 25.0252047,17.917594 C25.5471519,18.2313665 26.0664376,18.5475129 26.5162358,18.9625674 C28.2533505,20.5658144 29.1190664,22.5810947 29.3115596,24.9090685 C29.3714081,25.6322848 29.3354415,26.355645 29.2548044,27.0764875 C29.1740953,27.7982651 29.0341853,28.5050807 28.7388995,29.1742032 C28.7079682,29.24441 28.6890498,29.3231049 28.6822162,29.3992822 C28.6783318,29.4433053 28.6976099,29.512505 28.7290447,29.5301286 C28.7621339,29.5486874 28.832053,29.5336534 28.8683073,29.508189 C28.9508866,29.4502828 29.0348327,29.3868377 29.0970549,29.3087902 C30.1159885,28.0290987 31.0654347,26.6999172 31.9355386,25.3144121 C33.4452724,22.910189 34.6984924,20.381018 35.643263,17.7017225 C36.2131177,16.0857433 36.6630598,14.4373223 36.9833783,12.753654 C37.1827771,11.7055875 37.3421091,10.6515504 37.4276377,9.58801818 C37.4821631,8.91098299 37.5153243,8.2322214 37.5545998,7.55396334 C37.5670442,7.3390989 37.5448888,7.12739952 37.4736749,6.92131093 C37.3167887,6.46719669 37.0036635,6.15644531 36.5807682,5.95028478 C35.7448326,5.54271132 34.9129253,5.12600235 34.0674226,4.73921758 C33.1689051,4.32811939 32.241902,3.98478227 31.3033897,3.67568535 C30.531043,3.42132959 29.7304266,3.34867706 28.7040119,3.33349916 Z M28.0947378,27.2248137 C28.097687,26.5747535 28.0260416,25.9339726 27.8709536,25.3057081 C27.3513083,23.2000078 26.1894434,21.5372002 24.4000333,20.3125376 C23.9116069,19.9782641 23.3895158,19.7181537 22.811173,19.5748627 C21.8510087,19.3369077 20.8817809,19.3245352 19.9087407,19.4596977 C18.9345494,19.5949321 17.9968284,19.8659764 17.1145678,20.3029705 C16.6895865,20.513519 16.2860413,20.7673712 15.8725693,21.0014418 C14.8181726,21.5983434 13.6901163,21.9581532 12.4817106,22.0694339 C11.821292,22.1302894 11.1651174,22.1126657 10.5128273,21.9983639 C9.45483388,21.8128482 8.46906143,21.4299478 7.54608666,20.8846223 C6.44184024,20.2321882 5.49656618,19.4002809 4.72011932,18.3766716 C4.63164149,18.2600679 4.5098586,18.1657635 4.39289523,18.074768 C4.32182524,18.0194514 4.26442255,18.0538354 4.27305453,18.1451186 C4.28513931,18.2722965 4.30211554,18.4024237 4.34203847,18.5229837 C5.04252388,20.6367405 5.9419765,22.662595 7.0379506,24.6011225 C8.53833309,27.2551695 10.3590341,29.6677368 12.4991904,31.8385367 C14.2402613,33.6046404 16.1548351,35.1585412 18.2299638,36.5163521 C18.641134,36.7853822 19.0570517,37.0223301 19.5662667,37.0387309 C19.921329,37.0502402 20.2802036,37.0636917 20.6093699,36.9183867 C20.8744437,36.8012794 21.1262818,36.6479898 21.3697038,36.4888736 C22.8110291,35.5471243 24.1967501,34.5297731 25.4529194,33.3493495 C27.21593,31.6927281 28.0547429,29.6280297 28.0947378,27.2248137 Z M2.01334527,7.62503333 C2.04549941,8.13302553 2.06858997,8.64166512 2.11218148,9.14865025 C2.16346984,9.74619927 2.21216861,10.3452589 2.29863231,10.9382761 C2.42228547,11.7861526 2.54572282,12.6365468 2.72850506,13.4728421 C3.15420568,15.4204332 4.18853304,16.996921 5.76128032,18.213599 C7.1558491,19.2923811 8.74758674,19.8571286 10.5056339,19.9476925 C11.0863506,19.9776167 11.6665637,19.9403553 12.2408064,19.8436771 C13.1516964,19.6902436 14.0121612,19.3910734 14.8289626,18.9572444 C16.0692347,18.2984802 16.9447335,17.3191817 17.4625806,16.0158962 C17.8477109,15.0466684 18.0117905,14.0313314 18.0825727,12.9988743 C18.1147988,12.5283593 18.1087564,12.0553266 18.1288977,11.5837326 C18.1415579,11.2891662 18.1548656,10.9930892 18.195364,10.701544 C18.3111764,9.86747863 18.5730132,9.07722059 18.9521731,8.32631001 C19.5662667,7.11020749 20.4110501,6.07717493 21.4595483,5.21217831 C22.9038229,4.020605 24.5315272,3.24106501 26.4123643,3.03950821 C26.5281767,3.0271357 26.6443489,2.98872338 26.7526083,2.9436932 C26.8415897,2.90671954 26.8419493,2.82931943 26.7570682,2.78285058 C26.6837682,2.74263993 26.6022679,2.71142093 26.5206238,2.69322183 C25.5375128,2.47368173 24.546777,2.29579095 23.5458267,2.18249617 C22.8013901,2.09819047 22.0559464,2.01798497 21.3088483,1.96504214 C20.6859788,1.92080322 20.060232,1.91245897 19.4355641,1.90044613 C19.062087,1.89325281 18.6881063,1.90469019 18.3146292,1.9168469 C17.866917,1.93130547 17.4185574,1.94374991 16.9721401,1.97820591 C16.3131601,2.02906268 15.6534608,2.08207744 14.9979336,2.16451288 C14.2721277,2.25593996 13.5474008,2.36455908 12.8277812,2.49626875 C11.5859985,2.7235057 10.3620553,3.02922176 9.15451281,3.39852677 C7.00162433,4.0570032 4.9326819,4.91768383 2.94876449,5.98207925 C2.75030082,6.08854037 2.56248325,6.21118647 2.41480441,6.38526479 C2.11110248,6.74334821 1.98651419,7.15811499 2.01334527,7.62503333 Z M19.9919674,0.0359378222 C20.8686172,0.0406134796 21.9445938,0.0834137282 23.018916,0.172682818 C24.4383737,0.290509385 25.8461062,0.488757259 27.243912,0.761887585 C29.9921196,1.29894079 32.6491158,2.12869015 35.2189291,3.23926668 C36.1852076,3.65691079 37.1291869,4.12066407 38.0618007,4.6088027 C38.725816,4.95631195 39.1953239,5.46092328 39.417022,6.18521858 C39.5339135,6.56703996 39.5267921,6.95806879 39.5007523,7.34787475 C39.4404723,8.24948536 39.3891839,9.15239078 39.2972533,10.0509083 C39.1334614,11.6501989 38.8503324,13.2305711 38.4763517,14.7944706 C37.5456801,18.6864159 36.0535699,22.3501891 34.0008844,25.7845674 C32.2389528,28.7323896 30.1226064,31.4004635 27.6513416,33.7860559 C25.7724466,35.5997794 23.7278896,37.2027386 21.5283164,38.6098237 C20.9180353,39.0002771 20.25179,39.1104068 19.5418814,39.0827845 C18.8450646,39.0557376 18.257802,38.7719611 17.6874437,38.3988437 C14.9718219,36.6224535 12.5105558,34.5475406 10.315011,32.1582797 C7.06003408,28.6161455 4.53999861,24.6107616 2.75447294,20.1439262 C1.85883278,17.9032793 1.18496265,15.5969573 0.724518293,13.228557 C0.520371897,12.1782605 0.361399545,11.1208425 0.245443241,10.0568068 C0.131716866,9.01240879 0.0446057717,7.96563699 0.036045722,6.91534047 C0.0284927369,5.98071252 0.424484953,5.23289507 1.23797741,4.76446613 C1.92227785,4.37048804 2.63599898,4.02513679 3.34943236,3.68496473 C4.74155541,3.02130911 6.17719803,2.46418655 7.64226133,1.98244997 C8.77441782,1.61019571 9.92175222,1.2926826 11.0828259,1.02494726 C12.237929,0.758578658 13.4030309,0.546088012 14.5776999,0.387403393 C16.3074774,0.153692456 18.0453113,0.037376486 19.9919674,0.0359378222 Z" id="Stroke-1"></path>
            <path d="M2.0133165,7.62504772 C1.98648542,7.15812938 2.11107371,6.7433626 2.41484757,6.38527917 C2.56245448,6.21120085 2.75027204,6.08855476 2.94873572,5.98209364 C4.93265312,4.91769821 7.00159556,4.05701758 9.15448403,3.39854115 C10.3620984,3.02923615 11.5860417,2.72352009 12.8278244,2.49628314 C13.5473721,2.36457347 14.272099,2.25595435 14.9979768,2.16452726 C15.653504,2.08201989 16.3131313,2.02907706 16.9721113,1.9782203 C17.4185287,1.9437643 17.8668883,1.93131986 18.3146004,1.91678935 C18.6880776,1.90470458 19.0621302,1.8932672 19.4355353,1.90038858 C20.0602751,1.91240143 20.68595,1.92081761 21.3088195,1.96498459 C22.0559176,2.01799935 22.8014332,2.09820486 23.5457979,2.18243863 C24.5467482,2.29580534 25.5374841,2.47369612 26.520595,2.69316428 C26.6023111,2.71143531 26.6837395,2.74265432 26.7570394,2.78286497 C26.8419925,2.82933381 26.8416328,2.90673393 26.7525795,2.94370759 C26.644392,2.98866583 26.528148,3.02715009 26.4123355,3.0395226 C24.5314984,3.2410794 22.9038661,4.02061939 21.4595195,5.2121927 C20.4110933,6.07711738 19.5663099,7.11022187 18.9521443,8.3263244 C18.5729845,9.07723498 18.3112196,9.86749301 18.1953352,10.7015584 C18.1548368,10.9931036 18.1415292,11.2891806 18.1289409,11.583747 C18.1087276,12.0552691 18.11477,12.5283737 18.082544,12.9988887 C18.0117617,14.0313458 17.8476821,15.0466828 17.4625518,16.0158386 C16.9447047,17.3191961 16.0692059,18.2984227 14.8290057,18.9572588 C14.0122044,19.3910878 13.1516676,19.690258 12.2407776,19.8436195 C11.6665349,19.9403697 11.0863218,19.9776311 10.5056052,19.9477069 C8.74755797,19.857143 7.15589226,19.2923955 5.76132348,18.2136134 C4.18850426,16.9969354 3.15417691,15.4204476 2.72847629,13.4727845 C2.54569405,12.6364893 2.42225669,11.786167 2.29860354,10.9382905 C2.21221177,10.3452013 2.16344107,9.74621365 2.11215271,9.14866464 C2.06863313,8.64167951 2.04547064,8.13303991 2.0133165,7.62504772 Z" id="Stroke-3"></path>
            <path d="M28.0947594,27.2248065 C28.0547645,29.6280225 27.2159516,31.6927209 25.4528691,33.3494142 C24.1967717,34.5297659 22.8109788,35.5471171 21.3697253,36.4888664 C21.1262315,36.6479826 20.8744653,36.8012723 20.6093196,36.9183795 C20.2801533,37.0636845 19.9213505,37.050233 19.5662883,37.0387956 C19.0570733,37.0223229 18.6411555,36.785375 18.2299135,36.5163449 C16.1548567,35.158534 14.2402829,33.6046332 12.499212,31.8386014 C10.3589837,29.6677296 8.53828274,27.2551623 7.03790024,24.6011153 C5.94199808,22.6625878 5.04254546,20.6367333 4.34206005,18.5229765 C4.30206519,18.4024165 4.28508896,18.2722893 4.27307611,18.1451114 C4.2643722,18.0538282 4.32184682,18.0194442 4.39291681,18.0747608 C4.50980825,18.1657563 4.63159114,18.2600607 4.72006896,18.3766644 C5.49658776,19.4002737 6.44186182,20.2321811 7.54610824,20.8846151 C8.46908301,21.4299406 9.45485546,21.812841 10.5128488,21.9983567 C11.1650671,22.1127305 11.8213136,22.1302822 12.4817322,22.0694267 C13.6901379,21.958146 14.8181942,21.5983362 15.8725909,21.0014346 C16.2859909,20.767364 16.6895361,20.5135118 17.1145894,20.3029633 C17.9968499,19.8659692 18.9344991,19.5949968 19.9087622,19.4596905 C20.8818025,19.324528 21.8510303,19.3369006 22.8111946,19.5748556 C23.3895374,19.7181465 23.9116285,19.9782569 24.4000549,20.3125304 C26.1894649,21.5372649 27.3513298,23.2000006 27.8709752,25.3057009 C28.0259912,25.9340374 28.0977086,26.5747463 28.0947594,27.2248065 Z" id="Stroke-5"></path>
            <path d="M28.7040119,3.33349916 C29.7304266,3.34867706 30.531043,3.42132959 31.3033897,3.67568535 C32.241902,3.98478227 33.1689051,4.32811939 34.0674226,4.73921758 C34.9129253,5.12600235 35.7448326,5.54271132 36.5807682,5.95028478 C37.0036635,6.15644531 37.3167887,6.46719669 37.4736749,6.92131093 C37.5448888,7.12739952 37.5670442,7.3390989 37.5545998,7.55396334 C37.5153243,8.2322214 37.4821631,8.91098299 37.4276377,9.58801818 C37.3421091,10.6515504 37.1827771,11.7055875 36.9833783,12.753654 C36.6630598,14.4373223 36.2131177,16.0857433 35.643263,17.7017225 C34.6984924,20.381018 33.4452724,22.910189 31.9355386,25.3144121 C31.0654347,26.6999172 30.1159885,28.0290987 29.0970549,29.3087902 C29.0348327,29.3868377 28.9508866,29.4502828 28.8683073,29.508189 C28.832053,29.5336534 28.7621339,29.5486874 28.7290447,29.5301286 C28.6976099,29.512505 28.6783318,29.4433053 28.6822162,29.3992822 C28.6890498,29.3231049 28.7079682,29.24441 28.7388995,29.1742032 C29.0341853,28.5050807 29.1740953,27.7982651 29.2548044,27.0764875 C29.3354415,26.355645 29.3714081,25.6322848 29.3115596,24.9090685 C29.1190664,22.5810947 28.2533505,20.5658144 26.5162358,18.9625674 C26.0664376,18.5475129 25.5471519,18.2313665 25.0252047,17.917594 C24.103165,17.3632768 23.2222712,16.7510534 22.4394942,16.0078397 C21.7910884,15.3922354 21.2406556,14.7027558 20.8615677,13.8860263 C20.4969384,13.100444 20.3513456,12.2743632 20.3757309,11.4106614 C20.4686686,8.11907049 22.4979759,5.18872809 25.5488064,3.94672961 C26.6310412,3.50621075 27.7558605,3.30868221 28.7040119,3.33349916 Z" id="Stroke-7"></path>
        </g>
    </g>
</svg>