<?xml version="1.0" encoding="UTF-8"?>
<svg width="60px" height="60px" viewBox="0 0 60 60" version="1.1" xmlns="http://www.w3.org/2000/svg" xmlns:xlink="http://www.w3.org/1999/xlink">
    <!-- Generator: Sketch 51.2 (57519) - http://www.bohemiancoding.com/sketch -->
    <title>neo</title>
    <desc>Created with Sketch.</desc>
    <defs></defs>
    <g id="neo" stroke="none" stroke-width="1" fill="none" fill-rule="evenodd">
        <g transform="translate(13.000000, 10.000000)">
            <g transform="translate(0.892724, 0.554570)">
                <polygon id="Stroke-196" stroke="#FFFFFF" stroke-width="0.96" stroke-linejoin="round" points="13.0972742 37.8066834 2.14391814 32.6423082 2.14391814 11.4162646 13.0972742 16.5806398"></polygon>
                <polygon id="Stroke-198" stroke="#FFFFFF" stroke-width="0.96" stroke-linejoin="round" points="18.4324102 26.9741591 29.6271662 32.2730851 29.6271662 11.0028508 18.4324102 14.9780345"></polygon>
                <polygon id="Stroke-200" stroke="#FFFFFF" stroke-width="0.96" stroke-linejoin="round" points="2.7825726 7.98289311 13.5796124 13.0905459 29.3860301 7.42952009 18.5883308 2.32186731"></polygon>
                <path d="M29.0241476,5.70921507 C29.8196372,5.70921507 30.4641476,6.35372545 30.4641476,7.14921507 C30.4641476,7.94470468 29.8196372,8.58992723 29.0241476,8.58992723 C28.2293702,8.58992723 27.5841476,7.94470468 27.5841476,7.14921507 C27.5841476,6.35372545 28.2293702,5.70921507 29.0241476,5.70921507" id="Fill-208" fill="#FEFEFE"></path>
                <path d="M13.0972742,11.0028508 C13.8927639,11.0028508 14.5372742,11.6473611 14.5372742,12.4428508 C14.5372742,13.2383404 13.8927639,13.8835629 13.0972742,13.8835629 C12.3024968,13.8835629 11.6572742,13.2383404 11.6572742,12.4428508 C11.6572742,11.6473611 12.3024968,11.0028508 13.0972742,11.0028508" id="Fill-208-Copy" fill="#FEFEFE"></path>
                <path d="M13.0972742,15.194882 C13.8927639,15.194882 14.5372742,15.8393924 14.5372742,16.634882 C14.5372742,17.4303716 13.8927639,18.0755942 13.0972742,18.0755942 C12.3024968,18.0755942 11.6572742,17.4303716 11.6572742,16.634882 C11.6572742,15.8393924 12.3024968,15.194882 13.0972742,15.194882" id="Fill-208-Copy-2" fill="#FEFEFE"></path>
                <path d="M13.0972742,36.3663273 C13.8927639,36.3663273 14.5372742,37.0108377 14.5372742,37.8063273 C14.5372742,38.6018169 13.8927639,39.2470394 13.0972742,39.2470394 C12.3024968,39.2470394 11.6572742,38.6018169 11.6572742,37.8063273 C11.6572742,37.0108377 12.3024968,36.3663273 13.0972742,36.3663273" id="Fill-208-Copy-6" fill="#FEFEFE"></path>
                <path d="M18.4324102,13.8835629 C19.2278998,13.8835629 19.8724102,14.5280733 19.8724102,15.3235629 C19.8724102,16.1190525 19.2278998,16.7642751 18.4324102,16.7642751 C17.6376327,16.7642751 16.9924102,16.1190525 16.9924102,15.3235629 C16.9924102,14.5280733 17.6376327,13.8835629 18.4324102,13.8835629" id="Fill-208-Copy-8" fill="#FEFEFE"></path>
                <path d="M29.6271662,9.97590851 C30.4226558,9.97590851 31.0671662,10.6204189 31.0671662,11.4159085 C31.0671662,12.2113981 30.4226558,12.8566207 29.6271662,12.8566207 C28.8323887,12.8566207 28.1871662,12.2113981 28.1871662,11.4159085 C28.1871662,10.6204189 28.8323887,9.97590851 29.6271662,9.97590851" id="Fill-208-Copy-10" fill="#FEFEFE"></path>
                <path d="M29.6271662,30.832729 C30.4226558,30.832729 31.0671662,31.4772394 31.0671662,32.272729 C31.0671662,33.0682186 30.4226558,33.7134411 29.6271662,33.7134411 C28.8323887,33.7134411 28.1871662,33.0682186 28.1871662,32.272729 C28.1871662,31.4772394 28.8323887,30.832729 29.6271662,30.832729" id="Fill-208-Copy-11" fill="#FEFEFE"></path>
                <path d="M18.4324102,25.2671567 C19.2278998,25.2671567 19.8724102,25.9116671 19.8724102,26.7071567 C19.8724102,27.5026463 19.2278998,28.1478688 18.4324102,28.1478688 C17.6376327,28.1478688 16.9924102,27.5026463 16.9924102,26.7071567 C16.9924102,25.9116671 17.6376327,25.2671567 18.4324102,25.2671567" id="Fill-208-Copy-9" fill="#FEFEFE"></path>
                <path d="M2.14391814,30.832729 C2.93940775,30.832729 3.58391814,31.4772394 3.58391814,32.272729 C3.58391814,33.0682186 2.93940775,33.7134411 2.14391814,33.7134411 C1.34914069,33.7134411 0.703918137,33.0682186 0.703918137,32.272729 C0.703918137,31.4772394 1.34914069,30.832729 2.14391814,30.832729" id="Fill-208-Copy-7" fill="#FEFEFE"></path>
                <path d="M2.14391814,10.2098337 C2.93940775,10.2098337 3.58391814,10.8543441 3.58391814,11.6498337 C3.58391814,12.4453233 2.93940775,13.0905459 2.14391814,13.0905459 C1.34914069,13.0905459 0.703918137,12.4453233 0.703918137,11.6498337 C0.703918137,10.8543441 1.34914069,10.2098337 2.14391814,10.2098337" id="Fill-208-Copy-3" fill="#FEFEFE"></path>
                <path d="M3.58391814,6.26585051 C4.37940775,6.26585051 5.02391814,6.9103609 5.02391814,7.70585051 C5.02391814,8.50134013 4.37940775,9.14656268 3.58391814,9.14656268 C2.78914069,9.14656268 2.14391814,8.50134013 2.14391814,7.70585051 C2.14391814,6.9103609 2.78914069,6.26585051 3.58391814,6.26585051" id="Fill-208-Copy-4" fill="#FEFEFE"></path>
                <path d="M18.4324102,0.881511226 C19.2278998,0.881511226 19.8724102,1.52602161 19.8724102,2.32151123 C19.8724102,3.11700084 19.2278998,3.76222339 18.4324102,3.76222339 C17.6376327,3.76222339 16.9924102,3.11700084 16.9924102,2.32151123 C16.9924102,1.52602161 17.6376327,0.881511226 18.4324102,0.881511226" id="Fill-208-Copy-5" fill="#FEFEFE"></path>
            </g>
        </g>
    </g>
</svg>