<?xml version="1.0" encoding="UTF-8"?>
<svg width="60px" height="60px" viewBox="0 0 60 60" version="1.1" xmlns="http://www.w3.org/2000/svg" xmlns:xlink="http://www.w3.org/1999/xlink">
    <!-- Generator: Sketch 51.2 (57519) - http://www.bohemiancoding.com/sketch -->
    <title>perlin</title>
    <desc>Created with Sketch.</desc>
    <defs></defs>
    <g id="perlin" stroke="none" stroke-width="1" fill="none" fill-rule="evenodd">
        <path d="M29.1426229,47.7922282 C29.4267235,47.8056919 29.7125667,47.8125 30,47.8125 C39.8375721,47.8125 47.8125,39.8375721 47.8125,30 C47.8125,23.7474311 44.5909278,18.2473008 39.7171165,15.0689422 C42.6830602,17.7583975 44.5666667,21.5974344 44.5666667,25.7645833 C44.5666667,29.6833333 42.9833333,33.325 40.09375,35.9770833 C37.2041667,38.7083333 33.0875,40.33125 28.4958333,40.56875 C25.9229167,40.7270833 24.3791667,42.0333333 24.3791667,44.0916667 C24.3791667,46.1747909 26.7852486,47.5060144 29.1426229,47.7922282 Z M24.3109524,46.8846775 C23.9535819,46.5725694 23.6527235,46.2089269 23.4291667,45.79375 C22.7166667,44.4875 22.99375,43.1416667 23.1916667,42.4291667 C23.94375,40.0145833 26.0020833,39.2625 28.8916667,38.90625 C37.8770833,37.8375 43.0625,32.8895833 43.0625,25.2895833 C43.0625,21.6083333 41.5583333,18.0854167 38.90625,15.63125 C36.9786969,13.8433746 34.5779779,12.7061023 31.9128006,12.2890023 C31.2843927,12.2219116 30.646215,12.1875 30,12.1875 C20.1624279,12.1875 12.1875,20.1624279 12.1875,30 C12.1875,37.8482043 17.2631481,44.5109274 24.3109524,46.8846775 Z M30,49 C19.5065898,49 11,40.4934102 11,30 C11,19.5065898 19.5065898,11 30,11 C40.4934102,11 49,19.5065898 49,30 C49,40.4934102 40.4934102,49 30,49 Z" id="Combined-Shape" fill="#FFFFFF" fill-rule="nonzero"></path>
    </g>
</svg>