<?xml version="1.0" encoding="UTF-8"?>
<svg width="60px" height="60px" viewBox="0 0 60 60" version="1.1" xmlns="http://www.w3.org/2000/svg" xmlns:xlink="http://www.w3.org/1999/xlink">
    <!-- Generator: Sketch 51.2 (57519) - http://www.bohemiancoding.com/sketch -->
    <title>pn</title>
    <desc>Created with Sketch.</desc>
    <defs>
        <polygon id="path-1" points="0.627073488 1.01223686 5.84371926 1.01223686 5.84371926 7.39533157 0.627073488 7.39533157"></polygon>
        <polygon id="path-3" points="0.596301505 0.437416046 5.81304481 0.437416046 5.81304481 6.82100311 0.596301505 6.82100311"></polygon>
        <polygon id="path-5" points="0.963375129 1.0517158 2.35461027 1.0517158 2.35461027 3.87760385 0.963375129 3.87760385"></polygon>
    </defs>
    <g id="pn" stroke="none" stroke-width="1" fill="none" fill-rule="evenodd">
        <g transform="translate(5.000000, 10.000000)">
            <g transform="translate(0.853659, 0.243902)">
                <g transform="translate(0.731707, 0.114329)">
                    <path d="M29.5222564,33.8325847 C32.524862,33.8325847 34.9381329,32.8899221 36.502871,31.1055477 C38.0375967,29.3566425 38.6269314,26.9611062 38.2067576,24.1795011 C38.1644674,23.8943832 37.862979,23.5888022 37.5342067,23.4974008 C37.2054343,23.4059993 36.9735202,23.5642466 37.0171746,23.8493645 C37.4032434,26.4140617 36.8589274,28.6199741 35.4456155,30.2324593 C34.0036555,31.876321 31.7786442,32.746681 29.0106812,32.746681 C25.6724823,32.746681 21.9113811,31.4670608 18.4231201,29.1451914 C18.109354,28.9364687 17.7683038,28.9419255 17.660532,29.1574692 C17.5527601,29.3730129 17.7205568,29.7167914 18.034323,29.9255141 C21.8199797,32.4451927 25.9003038,33.8325847 29.5222564,33.8325847" id="Fill-1" fill="#FFFFFF"></path>
                    <path d="M37.2218047,22.2348331 C37.2477245,22.2375615 37.2709159,22.2389257 37.2941074,22.2389257 C37.5628549,22.2389257 37.7033675,22.0397524 37.6106019,21.7655481 C37.407336,21.1707566 37.1617799,20.5609589 36.876662,19.9566181 C36.7361493,19.6564939 36.3787287,19.4136662 36.0786046,19.4136662 C35.7771163,19.4136662 35.6488814,19.6564939 35.7907583,19.9566181 C36.0526848,20.5145761 36.2805063,21.0766268 36.4660376,21.6263996 C36.5683526,21.9237954 36.9053102,22.1966355 37.2218047,22.2348331" id="Fill-3" fill="#FFFFFF"></path>
                    <path d="M9.00918091,16.2158435 C8.58764292,13.6511464 9.12240956,11.3470115 10.5166226,9.72770538 C11.9572185,8.05246701 14.1958717,7.16846501 16.9911188,7.16846501 C20.4848365,7.16846501 24.3973639,8.55040024 28.008403,11.0605294 C28.3180765,11.2760731 28.6645835,11.2815299 28.7819047,11.0728072 C28.899226,10.8640845 28.7437071,10.5203059 28.4326694,10.3047622 C24.5160494,7.5804536 20.270657,6.08119711 16.4795435,6.08119711 C13.4469255,6.08119711 11.0186484,7.04159435 9.45527451,8.85870958 C7.94374022,10.6158 7.36259076,13.1163797 7.82096217,15.8979848 C7.86870919,16.1858311 8.17292593,16.4886837 8.50033408,16.5773567 C8.56035891,16.5923629 8.61765533,16.6005481 8.67085916,16.6005481 C8.90277326,16.6005481 9.04737853,16.4491218 9.00918091,16.2158435" id="Fill-5" fill="#FFFFFF"></path>
                    <path d="M8.78081373,17.6786759 C8.46431918,17.6404782 8.2910657,17.8492009 8.39201655,18.1479609 C8.59391824,18.7441166 8.84083855,19.35255 9.12459228,19.9568909 C9.26646915,20.257015 9.62388971,20.4998428 9.92401385,20.4998428 C10.224138,20.4998428 10.3523728,20.257015 10.2118602,19.9568909 C9.94993366,19.3989329 9.72211216,18.8382464 9.53521667,18.2884735 C9.43426582,17.9910778 9.09594407,17.7182377 8.78081373,17.6786759" id="Fill-7" fill="#FFFFFF"></path>
                    <path d="M13.66206,5.01984903 C13.6879798,5.01984903 13.7138996,5.01848483 13.7398194,5.01439223 C14.4246481,4.90525618 15.1517671,4.84932395 15.9007132,4.84932395 C16.2008373,4.84932395 16.3304364,4.60649624 16.1885595,4.3063721 C16.0480469,4.00488377 15.6906263,3.76205606 15.3905022,3.76205606 C14.586988,3.76205606 13.8080294,3.82208088 13.0740895,3.93940214 C12.798521,3.98305656 12.7234899,4.25862508 12.9062928,4.55602082 C13.0740895,4.82613254 13.3974051,5.01984903 13.66206,5.01984903" id="Fill-9" fill="#FFFFFF"></path>
                    <path d="M5.5207835,10.090992 C4.66815811,12.9408071 5.11288751,16.3526729 6.80586049,19.9568909 C8.85352562,24.3114193 12.4782067,28.3972002 17.0114453,31.462559 C17.1669642,31.5676024 17.3306683,31.6208062 17.4684525,31.6208062 C17.607601,31.6208062 17.7221939,31.5662382 17.7781261,31.4598306 C17.8899905,31.2456511 17.7262865,30.9018725 17.4138845,30.6904214 C13.1834984,27.8310569 9.80300925,24.0194804 7.89312838,19.9568909 C6.31338406,16.5941364 5.89866707,13.4114563 6.69399603,10.7539935 C7.46476939,8.17838273 9.37601446,6.28077967 12.0771317,5.40769127 C12.3267804,5.32720343 12.3554286,5.02707929 12.1385207,4.73923296 C11.9216128,4.45002243 11.542365,4.28086155 11.2913521,4.36134939 C8.39651841,5.29719102 6.34612488,7.33121414 5.5207835,10.090992" id="Fill-11" fill="#FFFFFF"></path>
                    <path d="M32.2626626,34.8996624 C31.5791981,35.0087985 30.850715,35.0647307 30.1017688,35.0647307 C29.8016447,35.0647307 29.6720456,35.3075584 29.8139225,35.6076825 C29.9544352,35.9078067 30.3118557,36.1506344 30.6119799,36.1506344 C31.415494,36.1506344 32.1944526,36.0919738 32.9270283,35.9746525 C33.203961,35.9309981 33.2789921,35.6540654 33.094825,35.3566696 C32.9120221,35.0606381 32.5395953,34.856008 32.2626626,34.8996624" id="Fill-13" fill="#FFFFFF"></path>
                    <path d="M40.5297184,29.6540382 C41.3154979,26.8383281 40.8530339,23.485123 39.1955302,19.9573002 C37.1492292,15.6027718 33.5259124,11.5169909 28.9913095,8.45163212 C28.6789076,8.24018102 28.3364932,8.24290942 28.2246288,8.45572472 C28.1127643,8.66854001 28.2778326,9.01368277 28.5902345,9.22376967 C32.8192565,12.0831342 36.1997456,15.8947107 38.1082623,19.9573002 C39.6552658,23.2477521 40.0863532,26.3758641 39.3537775,29.0019503 C38.6457573,31.5434561 36.8368273,33.4560653 34.2612165,34.3905428 C34.0156604,34.4792158 33.9979258,34.7834325 34.2216547,35.0699147 C34.4030934,35.303193 34.6882113,35.453255 34.9214896,35.453255 C34.9746935,35.453255 35.0238047,35.4450698 35.0701875,35.4286994 C37.8313296,34.4273762 39.7712228,32.3769826 40.5297184,29.6540382" id="Fill-15" fill="#FFFFFF"></path>
                    <path d="M5.57603362,19.9567545 C5.43415676,19.6566303 5.0767362,19.4138026 4.77661206,19.4138026 C4.47648792,19.4138026 4.34825306,19.6566303 4.48876573,19.9567545 C6.31406616,23.8406337 9.2511901,27.5580804 12.9822788,30.7080196 C13.1582607,30.8567175 13.3628908,30.9358411 13.5320517,30.9358411 C13.6411877,30.9358411 13.7353175,30.9031003 13.799435,30.8348902 C13.9617748,30.6602726 13.8580956,30.3205866 13.5688851,30.0763947 C10.0587969,27.1119867 7.29356221,23.6128122 5.57603362,19.9567545" id="Fill-17" fill="#FFFFFF"></path>
                    <path d="M18.7958198,33.7286326 C17.6921815,33.1011003 16.6049136,32.3971728 15.5599359,31.6386773 C15.2543549,31.4149484 14.9023912,31.3985779 14.7755205,31.5991154 C14.6459215,31.8010171 14.7905267,32.1447957 15.0974719,32.3671604 C16.2052028,33.173403 17.3606807,33.9209849 18.532529,34.5867148 C18.6675849,34.6644742 18.8026408,34.7013077 18.9185978,34.7013077 C19.0809377,34.7013077 19.2078083,34.629005 19.2500986,34.4912208 C19.3224012,34.2538498 19.1191353,33.9127997 18.7958198,33.7286326" id="Fill-19" fill="#FFFFFF"></path>
                    <path d="M31.1901281,37.3822347 C28.0129048,37.3822347 24.4973598,36.5186957 21.0241051,34.8843834 C20.6939685,34.7302287 20.397937,34.8120807 20.363832,35.0699147 C20.3297269,35.3263844 20.5698262,35.6606135 20.8999628,35.8161324 C24.5901255,37.5513956 28.3253068,38.4681384 31.7017033,38.4681384 C32.0018275,38.4681384 32.1300623,38.2253107 31.9895497,37.9251866 C31.8476728,37.6250624 31.4902522,37.3822347 31.1901281,37.3822347" id="Fill-21" fill="#FFFFFF"></path>
                    <path d="M35.4973187,12.7646888 C37.5900025,15.0292618 39.2475062,17.4493537 40.4261756,19.9567545 C40.5666882,20.2568786 40.925473,20.4997063 41.2255971,20.4997063 C41.5243571,20.4997063 41.6539561,20.2568786 41.5134435,19.9567545 C40.2611073,17.2938349 38.4999243,14.7223167 36.2762773,12.3158668 C34.1290255,9.99126894 31.6666434,7.9408754 28.9573409,6.22198262 C28.6394822,6.02008093 28.3038888,6.03781553 28.2070306,6.26018024 C28.1101723,6.48254494 28.2902468,6.82632349 28.6067414,7.02686099 C31.1577965,8.64616712 33.4769376,10.576511 35.4973187,12.7646888" id="Fill-23" fill="#FFFFFF"></path>
                    <path d="M23.5605633,4.40500381 C24.5264173,4.80062199 25.4990924,5.2589934 26.4526686,5.76920443 C26.5795392,5.83741446 26.7064099,5.87015528 26.815546,5.87015528 C26.9847068,5.87015528 27.1143059,5.79103164 27.1511393,5.64233377 C27.2111641,5.39950606 26.9942562,5.05845591 26.6682123,4.88520243 C25.6559754,4.34361478 24.6232756,3.85659516 23.5960325,3.43642137 C23.2658959,3.30000131 22.9889632,3.40777315 22.9780496,3.67515648 C22.9685002,3.9425398 23.2290625,4.26994795 23.5605633,4.40500381" id="Fill-25" fill="#FFFFFF"></path>
                    <path d="M14.8118083,2.53195636 C16.7366953,2.53195636 18.7748111,2.8443583 20.868859,3.45824858 C20.9357049,3.47734739 20.9998223,3.48826099 21.0584829,3.48826099 C21.283576,3.48826099 21.4281813,3.34501993 21.3995331,3.11856262 C21.3626996,2.83480889 21.0653039,2.52649955 20.7351674,2.42964131 C18.5101561,1.77618921 16.346534,1.44468846 14.300233,1.44468846 C14.0014731,1.44468846 13.871874,1.68751617 14.0137509,1.98900451 C14.1542636,2.28912864 14.5116841,2.53195636 14.8118083,2.53195636" id="Fill-27" fill="#FFFFFF"></path>
                    <g id="Group-31" transform="translate(0.000000, 0.352373)">
                        <mask id="mask-2" fill="white">
                            <use xlink:href="#path-1"></use>
                        </mask>
                        <g id="Clip-30"></g>
                        <path d="M1.08385739,7.27391772 C1.22300586,7.35576976 1.36215432,7.39533157 1.48220398,7.39533157 C1.64045125,7.39533157 1.76595771,7.32712154 1.81097633,7.19342988 C2.54082366,5.0379929 3.85727726,3.30409391 5.71941111,2.03811573 C5.9213128,1.90169567 5.87220158,1.57292332 5.60891086,1.30554 C5.34698434,1.03952087 4.97046497,0.934477426 4.76719907,1.07226169 C2.80275018,2.4078141 1.41535815,4.23584293 0.644584794,6.50996537 C0.565461158,6.74324368 0.761906048,7.08565803 1.08385739,7.27391772" id="Fill-29" fill="#FFFFFF" mask="url(#mask-2)"></path>
                    </g>
                    <path d="M0.573646362,11.0108725 C0.674597208,11.0531627 0.770091251,11.0736257 0.856035891,11.0736257 C1.05111658,11.0736257 1.19026504,10.9672181 1.19981445,10.783051 C1.22982686,10.2564695 1.28985169,9.7367091 1.37852473,9.23877588 C1.42354335,8.98639876 1.19299344,8.65080541 0.864221094,8.48710133 C0.535448744,8.32339726 0.232596206,8.39569989 0.187577586,8.64807701 C0.0948119433,9.17465845 0.0320587146,9.7230671 0.000682100311,10.2769325 C-0.0143241065,10.5429517 0.24214561,10.8703598 0.573646362,11.0108725" id="Fill-32" fill="#FFFFFF"></path>
                    <g id="Group-36" transform="translate(39.561818, 31.728987)">
                        <mask id="mask-4" fill="white">
                            <use xlink:href="#path-3"></use>
                        </mask>
                        <g id="Clip-35"></g>
                        <path d="M5.3562609,0.558230895 C5.03430956,0.369971209 4.70826561,0.405440425 4.62914197,0.638718731 C3.89929464,2.79415571 2.58284104,4.52941891 0.720707189,5.79403288 C0.518805497,5.93181715 0.567916719,6.2592253 0.829843239,6.52660862 C1.01401032,6.7135041 1.25547383,6.82127595 1.45191872,6.82127595 C1.53649916,6.82127595 1.6115302,6.80217714 1.67155502,6.75988692 C3.63736812,5.42569872 5.02476015,3.59630568 5.7955335,1.32354744 C5.87465714,1.08890494 5.67821225,0.747854781 5.3562609,0.558230895" id="Fill-34" fill="#FFFFFF" mask="url(#mask-4)"></path>
                    </g>
                    <g id="Group-39" transform="translate(43.654420, 27.636385)">
                        <mask id="mask-6" fill="white">
                            <use xlink:href="#path-5"></use>
                        </mask>
                        <g id="Clip-38"></g>
                        <path d="M1.77659847,1.11236919 C1.44509772,0.974584925 1.16680079,1.07962837 1.15452299,1.34564749 C1.12860317,1.92406856 1.06584995,2.49294022 0.968991702,3.03862047 C0.923973082,3.29099758 1.15452299,3.62659093 1.48329534,3.79029501 C1.60334499,3.84895564 1.71793784,3.87760385 1.81888869,3.87760385 C1.99759897,3.87760385 2.13129063,3.79029501 2.15993885,3.62931934 C2.26088969,3.05362667 2.32773552,2.4533784 2.35501953,1.84358072 C2.36729734,1.5775616 2.10809922,1.25015345 1.77659847,1.11236919" id="Fill-37" fill="#FFFFFF" mask="url(#mask-6)"></path>
                    </g>
                    <path d="M18.0804329,9.48678755 C23.85373,9.48678755 30.7579493,14.1837303 33.4713444,19.9570273 C36.1847394,25.7303244 33.6950733,30.4272671 27.9217762,30.4272671 C22.1484792,30.4272671 15.2442599,25.7303244 12.5308648,19.9570273 C9.81746978,14.1837303 12.3071359,9.48678755 18.0804329,9.48678755 M28.4319873,31.5131708 C34.8055326,31.5131708 37.5530326,26.3292084 34.5586123,19.9570273 C31.5628277,13.583482 23.942403,8.39951965 17.5688577,8.39951965 C11.1966766,8.39951965 8.44917655,13.583482 11.4435969,19.9570273 C14.4393815,26.3292084 22.0598062,31.5131708 28.4319873,31.5131708" id="Fill-40" fill="#FFFFFF"></path>
                    <path d="M3.77024126,9.87517547 C3.93803794,9.87517547 4.0662728,9.79878023 4.10447041,9.65281076 C4.48371819,8.21903591 5.15354069,6.95715033 6.09347492,5.90262325 C6.25035799,5.72527717 6.14395034,5.38422702 5.85201141,5.14276351 C5.56007248,4.9013 5.19583091,4.84946037 5.03758364,5.02680645 C4.04035298,6.14681516 3.32960446,7.48646018 2.92580107,9.01027227 C2.86168365,9.25173578 3.07449894,9.59142174 3.40054289,9.77013202 C3.53014195,9.84107045 3.65837681,9.87517547 3.77024126,9.87517547" id="Fill-42" fill="#FFFFFF"></path>
                    <path d="M41.8973295,30.2601525 C41.5003471,31.7580448 40.7909628,33.064949 39.7869112,34.1453959 C39.6245713,34.3200136 39.7282505,34.6596995 40.0174611,34.9025272 C40.1934429,35.0512251 40.3967088,35.1303487 40.5672339,35.1303487 C40.67637,35.1303487 40.7704998,35.0976079 40.8346172,35.0293979 C41.9014221,33.8821052 42.6558251,32.4947131 43.0759989,30.9040552 C43.1401163,30.6612275 42.927301,30.3215416 42.6026212,30.1441955 C42.2765773,29.9668494 41.9614469,30.018689 41.8973295,30.2601525" id="Fill-44" fill="#FFFFFF"></path>
                </g>
            </g>
        </g>
    </g>
</svg>