<?xml version="1.0" encoding="UTF-8"?>
<svg width="60px" height="60px" viewBox="0 0 60 60" version="1.1" xmlns="http://www.w3.org/2000/svg" xmlns:xlink="http://www.w3.org/1999/xlink">
    <!-- Generator: Sketch 51.2 (57519) - http://www.bohemiancoding.com/sketch -->
    <title>qtum</title>
    <desc>Created with Sketch.</desc>
    <defs></defs>
    <g id="qtum" stroke="none" stroke-width="1" fill="none" fill-rule="evenodd">
        <g transform="translate(11.000000, 12.000000)">
            <g transform="translate(0.683217, 0.853239)">
                <polyline id="Stroke-2" stroke="#FFFFFF" stroke-width="0.936585366" stroke-linejoin="round" points="9.03859042 24.1821279 12.4799377 16.7570088 17.5110421 25.3295042 22.4413212 16.7570088 25.9834938 24.1821279"></polyline>
                <polyline id="Stroke-3" stroke="#FFFFFF" stroke-width="0.936585366" stroke-linejoin="round" points="9.03859042 9.25021339 12.4799377 16.756618 17.5110421 8.10361868 22.4413212 16.756618 25.9834938 9.25021339"></polyline>
                <polyline id="Stroke-4" stroke="#FFFFFF" stroke-width="0.936585366" stroke-linejoin="round" points="35.52188 30.5180212 30.4196508 26.3005535 25.9833375 24.1824406 17.5108858 25.3290353 9.0384341 24.1824406 4.4114125 26.3005535 5.07107572 16.9574089 4.43095229 7.21799737 9.0384341 9.25013523 17.5108858 8.10354052 25.9833375 9.25013523 30.4704542 7.21799737 29.9444432 16.7565399 30.4196508 26.3005535"></polyline>
                <polygon id="Stroke-5" stroke="#FFFFFF" stroke-width="0.936585366" stroke-linejoin="round" points="12.4801722 1.31487136 9.03882489 9.25036971 5.05817946 16.7567743 9.03882489 24.1818935 12.4801722 32.1986773 17.5112766 25.3292698 22.4415557 32.1986773 25.9829467 24.1818935 29.944834 16.7567743 25.9829467 9.25036971 22.4415557 1.31487136 17.5112766 8.103775"></polygon>
                <path d="M1.34171194,16.756618 L33.4893513,16.756618" id="Stroke-6" stroke="#FFFFFF" stroke-width="0.936585366" stroke-linejoin="round"></path>
                <polygon id="Stroke-1" stroke="#FFFFFF" stroke-width="0.936585366" stroke-linejoin="round" points="22.3828582 1.31487136 12.4488304 1.31487136 4.41172514 7.21276071 1.34163378 16.7567743 4.41172514 26.3000064 12.4488304 32.1986773 22.3828582 32.1986773 30.4191818 26.3000064 33.4892732 16.7567743 30.4191818 7.21276071"></polygon>
                <g id="Group-2" fill="#FEFEFE">
                    <path d="M13.7945746,1.31487136 C13.7945746,2.04096985 13.2060362,2.62950824 12.4799377,2.62950824 C11.7546208,2.62950824 11.1653008,2.04096985 11.1653008,1.31487136 C11.1653008,0.588772866 11.7546208,0.000234477446 12.4799377,0.000234477446 C13.2060362,0.000234477446 13.7945746,0.588772866 13.7945746,1.31487136" id="Fill-7"></path>
                    <path d="M23.7560363,1.31487136 C23.7560363,2.04096985 23.1674979,2.62950824 22.4413994,2.62950824 C21.7153009,2.62950824 21.1267625,2.04096985 21.1267625,1.31487136 C21.1267625,0.588772866 21.7153009,0.000234477446 22.4413994,0.000234477446 C23.1674979,0.000234477446 23.7560363,0.588772866 23.7560363,1.31487136" id="Fill-9"></path>
                    <path d="M13.7945746,32.1983647 C13.7945746,32.9244632 13.2060362,33.5130016 12.4799377,33.5130016 C11.7546208,33.5130016 11.1653008,32.9244632 11.1653008,32.1983647 C11.1653008,31.4722662 11.7546208,30.8837278 12.4799377,30.8837278 C13.2060362,30.8837278 13.7945746,31.4722662 13.7945746,32.1983647" id="Fill-11"></path>
                    <path d="M23.7560363,32.1983647 C23.7560363,32.9244632 23.1674979,33.5130016 22.4413994,33.5130016 C21.7153009,33.5130016 21.1267625,32.9244632 21.1267625,32.1983647 C21.1267625,31.4722662 21.7153009,30.8837278 22.4413994,30.8837278 C23.1674979,30.8837278 23.7560363,31.4722662 23.7560363,32.1983647" id="Fill-13"></path>
                    <path d="M2.65689594,16.756618 C2.65689594,17.4827165 2.06757596,18.0712549 1.34147746,18.0712549 C0.616160566,18.0712549 0.0276221774,17.4827165 0.0276221774,16.756618 C0.0276221774,16.0305195 0.616160566,15.4419811 1.34147746,15.4419811 C2.06757596,15.4419811 2.65689594,16.0305195 2.65689594,16.756618" id="Fill-15"></path>
                    <path d="M6.38618155,16.756618 C6.38618155,17.4827165 5.79764316,18.0712549 5.07076308,18.0712549 C4.34544618,18.0712549 3.75690779,17.4827165 3.75690779,16.756618 C3.75690779,16.0305195 4.34544618,15.4419811 5.07076308,15.4419811 C5.79764316,15.4419811 6.38618155,16.0305195 6.38618155,16.756618" id="Fill-17"></path>
                    <path d="M31.2590019,16.756618 C31.2590019,17.4827165 30.6704635,18.0712549 29.944365,18.0712549 C29.2182665,18.0712549 28.6297281,17.4827165 28.6297281,16.756618 C28.6297281,16.0305195 29.2182665,15.4419811 29.944365,15.4419811 C30.6704635,15.4419811 31.2590019,16.0305195 31.2590019,16.756618" id="Fill-19"></path>
                    <path d="M23.7560363,16.756618 C23.7560363,17.4827165 23.1674979,18.0712549 22.4413994,18.0712549 C21.7153009,18.0712549 21.1267625,17.4827165 21.1267625,16.756618 C21.1267625,16.0305195 21.7153009,15.4419811 22.4413994,15.4419811 C23.1674979,15.4419811 23.7560363,16.0305195 23.7560363,16.756618" id="Fill-21"></path>
                    <path d="M13.7945746,16.756618 C13.7945746,17.4827165 13.2060362,18.0712549 12.4799377,18.0712549 C11.7546208,18.0712549 11.1653008,17.4827165 11.1653008,16.756618 C11.1653008,16.0305195 11.7546208,15.4419811 12.4799377,15.4419811 C13.2060362,15.4419811 13.7945746,16.0305195 13.7945746,16.756618" id="Fill-23"></path>
                    <path d="M34.9249786,16.756618 C34.9249786,17.4827165 34.3364402,18.0712549 33.6095601,18.0712549 C32.8842432,18.0712549 32.2957048,17.4827165 32.2957048,16.756618 C32.2957048,16.0305195 32.8842432,15.4419811 33.6095601,15.4419811 C34.3364402,15.4419811 34.9249786,16.0305195 34.9249786,16.756618" id="Fill-25"></path>
                    <path d="M31.7856382,7.21799737 C31.7856382,7.94409586 31.1970998,8.53263425 30.4702198,8.53263425 C29.7449029,8.53263425 29.1563645,7.94409586 29.1563645,7.21799737 C29.1563645,6.49189888 29.7449029,5.90336049 30.4702198,5.90336049 C31.1970998,5.90336049 31.7856382,6.49189888 31.7856382,7.21799737" id="Fill-27"></path>
                    <path d="M5.74504205,7.21799737 C5.74504205,7.94409586 5.15650367,8.53263425 4.43040518,8.53263425 C3.70430669,8.53263425 3.1157683,7.94409586 3.1157683,7.21799737 C3.1157683,6.49189888 3.70430669,5.90336049 4.43040518,5.90336049 C5.15650367,5.90336049 5.74504205,6.49189888 5.74504205,7.21799737" id="Fill-29"></path>
                    <path d="M5.74504205,26.2147348 C5.74504205,26.9408332 5.15650367,27.5293716 4.43040518,27.5293716 C3.70430669,27.5293716 3.1157683,26.9408332 3.1157683,26.2147348 C3.1157683,25.4886363 3.70430669,24.9000979 4.43040518,24.9000979 C5.15650367,24.9000979 5.74504205,25.4886363 5.74504205,26.2147348" id="Fill-31"></path>
                    <path d="M37.4071568,30.5180212 C37.4071568,31.559101 36.563038,32.4032198 35.5219582,32.4032198 C34.4808783,32.4032198 33.6375411,31.559101 33.6375411,30.5180212 C33.6375411,29.4769413 34.4808783,28.6328225 35.5219582,28.6328225 C36.563038,28.6328225 37.4071568,29.4769413 37.4071568,30.5180212" id="Fill-33"></path>
                    <path d="M18.8260698,8.10338421 C18.8260698,8.8294827 18.2375314,9.41802109 17.5106513,9.41802109 C16.7853344,9.41802109 16.196796,8.8294827 16.196796,8.10338421 C16.196796,7.37728572 16.7853344,6.78874733 17.5106513,6.78874733 C18.2375314,6.78874733 18.8260698,7.37728572 18.8260698,8.10338421" id="Fill-35"></path>
                    <path d="M10.3536963,9.25021339 C10.3536963,9.97631188 9.76515786,10.5656319 9.03827778,10.5656319 C8.31296088,10.5656319 7.72442249,9.97631188 7.72442249,9.25021339 C7.72442249,8.5241149 8.31296088,7.93557651 9.03827778,7.93557651 C9.76515786,7.93557651 10.3536963,8.5241149 10.3536963,9.25021339" id="Fill-37"></path>
                    <path d="M27.2975836,9.25021339 C27.2975836,9.97631188 26.7090452,10.5656319 25.9829467,10.5656319 C25.2576298,10.5656319 24.6683098,9.97631188 24.6683098,9.25021339 C24.6683098,8.5241149 25.2576298,7.93557651 25.9829467,7.93557651 C26.7090452,7.93557651 27.2975836,8.5241149 27.2975836,9.25021339" id="Fill-39"></path>
                    <path d="M16.1965616,25.3293479 C16.1965616,24.6032494 16.7851,24.014711 17.5111984,24.014711 C18.2372969,24.014711 18.8258353,24.6032494 18.8258353,25.3293479 C18.8258353,26.0554464 18.2372969,26.6439848 17.5111984,26.6439848 C16.7851,26.6439848 16.1965616,26.0554464 16.1965616,25.3293479" id="Fill-41"></path>
                    <path d="M24.6681535,24.1821279 C24.6681535,23.4560294 25.2574735,22.8674911 25.983572,22.8674911 C26.7088889,22.8674911 27.2974273,23.4560294 27.2974273,24.1821279 C27.2974273,24.9082264 26.7088889,25.4967648 25.983572,25.4967648 C25.2574735,25.4967648 24.6681535,24.9082264 24.6681535,24.1821279" id="Fill-43"></path>
                    <path d="M7.72426617,24.1821279 C7.72426617,23.4560294 8.31280456,22.8674911 9.03890305,22.8674911 C9.76500154,22.8674911 10.3535399,23.4560294 10.3535399,24.1821279 C10.3535399,24.9082264 9.76500154,25.4967648 9.03890305,25.4967648 C8.31280456,25.4967648 7.72426617,24.9082264 7.72426617,24.1821279" id="Fill-45"></path>
                </g>
            </g>
        </g>
    </g>
</svg>