<?xml version="1.0" encoding="UTF-8"?>
<svg width="60px" height="60px" viewBox="0 0 60 60" version="1.1" xmlns="http://www.w3.org/2000/svg" xmlns:xlink="http://www.w3.org/1999/xlink">
    <!-- Generator: Sketch 51.2 (57519) - http://www.bohemiancoding.com/sketch -->
    <title>tomo</title>
    <desc>Created with Sketch.</desc>
    <defs></defs>
    <g id="tomo" stroke="none" stroke-width="1" fill="none" fill-rule="evenodd">
        <g id="Group" transform="translate(10.000000, 10.000000)">
            <path d="M2.36178144,25.1414337 C1.76518149,23.2861409 1.44283331,21.3060021 1.44283331,19.2521837 C1.44283331,8.63823037 10.0469713,0.0351156966 20.6599013,0.0351156966 C31.2738546,0.0351156966 39.8769693,8.63823037 39.8769693,19.2521837 C39.8769693,29.8651137 31.2738546,38.4692517 20.6599013,38.4692517 C18.6592959,38.4692517 16.7293002,38.1643001 14.9169871,37.5963533" id="Stroke-1" stroke="#FFFFFF" stroke-width="0.869565217"></path>
            <path d="M33.9209983,22.2323182 C33.61707,23.5912971 33.1002896,24.9277629 32.3573538,26.1925958 C28.5188522,32.7326821 20.1050531,34.9215797 13.5649668,31.0830781 C7.02692706,27.2445765 4.83700611,18.8318007 8.67550774,12.2917144 C12.5140094,5.75265136 20.9278084,3.56375374 27.4668715,7.40225536 C28.6989578,8.12574794 29.7775451,9.01194959 30.6903532,10.0168572" id="Stroke-3" stroke="#FFFFFF" stroke-width="0.869565217"></path>
            <path d="M16.1727123,11.5483692 L16.1727123,21.7345716 C16.1727123,23.0168011 16.8358286,24.328707 17.8693894,25.141229 C18.9029502,25.9527278 21.4223826,27.1234145 24.5179485,24.2437708" id="Stroke-5" stroke="#FFFFFF" stroke-width="0.869565217"></path>
            <path d="M30.6611884,7.74559649 C31.6226007,7.74559649 32.4003188,8.52450744 32.4003188,9.48472692 C32.4003188,10.4461392 31.6226007,11.2238574 30.6611884,11.2238574 C29.7009689,11.2238574 28.922058,10.4461392 28.922058,9.48472692 C28.922058,8.52450744 29.7009689,7.74559649 30.6611884,7.74559649" id="Fill-7" fill="#FEFEFE"></path>
            <path d="M33.9209983,20.981929 C34.8812178,20.981929 35.6601287,21.7608399 35.6601287,22.7210594 C35.6601287,23.6824717 34.8812178,24.4601898 33.9209983,24.4601898 C32.959586,24.4601898 32.1818679,23.6824717 32.1818679,22.7210594 C32.1818679,21.7608399 32.959586,20.981929 33.9209983,20.981929" id="Fill-9" fill="#FEFEFE"></path>
            <path d="M24.51834,22.4745367 C25.4782303,22.4745367 26.2568742,23.2531807 26.2568742,24.213071 C26.2568742,25.1741537 25.4782303,25.9516052 24.51834,25.9516052 C23.5572573,25.9516052 22.7786134,25.1741537 22.7786134,24.213071 C22.7786134,23.2531807 23.5572573,22.4745367 24.51834,22.4745367" id="Fill-11" fill="#FEFEFE"></path>
            <path d="M12.8928452,14.8182078 L24.5178461,14.8182078" id="Stroke-13" stroke="#FFFFFF" stroke-width="0.869565217"></path>
            <path d="M24.51834,13.0796735 C25.4782303,13.0796735 26.2568742,13.857125 26.2568742,14.8182078 C26.2568742,15.7780981 25.4782303,16.556742 24.51834,16.556742 C23.5572573,16.556742 22.7786134,15.7780981 22.7786134,14.8182078 C22.7786134,13.857125 23.5572573,13.0796735 24.51834,13.0796735" id="Fill-15" fill="#FEFEFE"></path>
            <path d="M12.8928452,13.0790773 C13.8530647,13.0790773 14.6319757,13.8567955 14.6319757,14.8182078 C14.6319757,15.7784272 13.8530647,16.5573382 12.8928452,16.5573382 C11.9314329,16.5573382 11.1537148,15.7784272 11.1537148,14.8182078 C11.1537148,13.8567955 11.9314329,13.0790773 12.8928452,13.0790773" id="Fill-17" fill="#FEFEFE"></path>
            <path d="M16.1727969,9.88373706 C17.1326872,9.88373706 17.9113311,10.662381 17.9113311,11.6234637 C17.9113311,12.583354 17.1326872,13.3619979 16.1727969,13.3619979 C15.2117142,13.3619979 14.4330702,12.583354 14.4330702,11.6234637 C14.4330702,10.662381 15.2117142,9.88373706 16.1727969,9.88373706" id="Fill-19" fill="#FEFEFE"></path>
            <path d="M2.36178144,23.6961006 C3.32200092,23.6961006 4.10091188,24.4738187 4.10091188,25.435231 C4.10091188,26.3954505 3.32200092,27.1743615 2.36178144,27.1743615 C1.40036915,27.1743615 0.62265101,26.3954505 0.62265101,25.435231 C0.62265101,24.4738187 1.40036915,23.6961006 2.36178144,23.6961006" id="Fill-21" fill="#FEFEFE"></path>
            <path d="M15.0554433,35.8051355 C16.0168556,35.8051355 16.7945738,36.5828536 16.7945738,37.5442659 C16.7945738,38.5056782 16.0168556,39.2833963 15.0554433,39.2833963 C14.0952238,39.2833963 13.3163129,38.5056782 13.3163129,37.5442659 C13.3163129,36.5828536 14.0952238,35.8051355 15.0554433,35.8051355" id="Fill-23" fill="#FEFEFE"></path>
        </g>
    </g>
</svg>