<?xml version="1.0" encoding="UTF-8"?>
<svg width="71px" height="71px" viewBox="0 0 71 71" version="1.1" xmlns="http://www.w3.org/2000/svg" xmlns:xlink="http://www.w3.org/1999/xlink">
    <!-- Generator: Sketch 52.2 (67145) - http://www.bohemiancoding.com/sketch -->
    <title>Manager system</title>
    <desc>Created with Sketch.</desc>
    <defs>
        <polygon id="path-1" points="0 0.140636211 61.8530336 0.140636211 61.8530336 68.6438652 0 68.6438652"></polygon>
    </defs>
    <g id="Manager-system" stroke="none" stroke-width="1" fill="none" fill-rule="evenodd" transform="translate(0.084977, 0.589781)">
        <g id="KMS" transform="translate(3.716814, 0.000000)">
            <g id="Group-3" transform="translate(0.430168, 0.546015)">
                <g id="Fill-1-Clipped">
                    <mask id="mask-2" fill="white">
                        <use xlink:href="#path-1"></use>
                    </mask>
                    <g id="path-1"></g>
                    <path d="M26.2106832,1.40424141 L4.71566611,13.8142709 C1.79746472,15.499115 -0.000111616041,18.6126445 -0.000111616041,21.9823328 L-0.000111616041,46.8023918 C-0.000111616041,50.171522 1.79746472,53.2856095 4.71566611,54.9698955 L26.2106832,67.3804829 C29.1288846,69.0653272 32.7240373,69.0653272 35.6422387,67.3804829 L57.1372559,54.9698955 C60.0554572,53.2856095 61.8530336,50.171522 61.8530336,46.8023918 L61.8530336,21.9823328 C61.8530336,18.6126445 60.0554572,15.499115 57.1372559,13.8142709 L35.6422387,1.40424141 C32.7240373,-0.280602727 29.1288846,-0.280602727 26.2106832,1.40424141" id="Fill-1" fill="#2622AD" mask="url(#mask-2)"></path>
                </g>
            </g>
            <polygon id="Fill-4" fill="#00879E" points="11.6490311 10.5751625 17.6522998 14.0408406 17.6522998 62.7299902 11.6490311 59.2637538"></polygon>
            <polygon id="Fill-6" fill="#C2B59B" points="17.6521882 7.14654097 11.7136568 10.5753857 17.6521882 14.0036725 23.5907196 10.5753857"></polygon>
            <polygon id="Fill-8" fill="#FFFFFF" points="17.6521882 62.7297665 17.6521882 14.0411754 23.655457 10.5749393 23.655457 59.2640886"></polygon>
            <polygon id="Fill-10" fill="#C2B59B" points="42.1213264 14.0037283 48.1245951 17.4694063 23.6555686 31.6373884 23.6555686 24.7043581"></polygon>
            <polygon id="Fill-12" fill="#FFFFFF" points="48.1561266 24.4380422 48.1561266 17.506128 23.6552896 31.6372769 23.6552896 38.568633"></polygon>
            <path d="M17.6521882,35.2222167 C18.2889577,34.8728584 23.655457,31.7565386 23.655457,31.7565386 L53.7655582,49.0001007 L47.7628476,52.4657788 L17.6521882,35.2222167 Z" id="Fill-14" fill="#C2B59B"></path>
            <polygon id="Fill-16" fill="#FFFFFF" points="47.7626243 59.3979163 47.7626243 52.4660021 53.7658931 49.000324 53.7658931 55.9322382"></polygon>
            <polygon id="Fill-18" fill="#00879E" points="17.6521882 42.1540751 47.7628476 59.3976372 47.7628476 52.4662811 17.6521882 35.2221609"></polygon>
        </g>
    </g>
</svg>