<?xml version="1.0" encoding="UTF-8"?>
<svg width="70px" height="70px" viewBox="0 0 70 70" version="1.1" xmlns="http://www.w3.org/2000/svg" xmlns:xlink="http://www.w3.org/1999/xlink">
    <!-- Generator: Sketch 52.2 (67145) - http://www.bohemiancoding.com/sketch -->
    <title>hackathon_logo</title>
    <desc>Created with Sketch.</desc>
    <defs>
        <linearGradient x1="10.99307%" y1="105.914703%" x2="89.5362013%" y2="-7.19690003%" id="linearGradient-1">
            <stop stop-color="#E63359" offset="0%"></stop>
            <stop stop-color="#F04362" offset="62%"></stop>
            <stop stop-color="#F85068" offset="100%"></stop>
        </linearGradient>
    </defs>
    <g id="hackathon_logo" stroke="none" stroke-width="1" fill="none" fill-rule="evenodd">
        <g id="Group-25" transform="translate(3.281250, 0.000000)">
            <path d="M27.238435,1.76002069 L5.58293757,14.262332 C2.64343792,15.9599959 0.831957863,19.0967018 0.831957863,22.4914661 L0.831957863,47.4966521 C0.831957863,50.8914164 2.64343792,54.0281223 5.58293757,55.7257861 L27.238435,68.2280974 C30.1784981,69.9257616 33.8003313,69.9257616 36.7403944,68.2280974 L58.3953284,55.7257861 C61.3353915,54.0281223 63.1463081,50.8914164 63.1463081,47.4966521 L63.1463081,22.4914661 C63.1463081,19.0967018 61.3353915,15.9599959 58.3953284,14.262332 L36.7403944,1.76002069 C33.8003313,0.0623568092 30.1784981,0.0623568092 27.238435,1.76002069" id="Fill-1-Copy" fill="#FFFFFF"></path>
            <g id="Hackathon-logo" transform="translate(8.286431, 18.587809)" fill="url(#linearGradient-1)" fill-rule="nonzero" stroke="#FFFFFF" stroke-width="0.546875">
                <path d="M47.0858745,2.54501745 C46.7484129,1.96240296 46.0029246,1.76305992 45.419712,2.09948682 L36.8752889,7.03694275 C36.4342515,6.55707916 35.9241121,6.14567638 35.3617054,5.81631087 L26.921036,0.933783383 C24.8719765,-0.223638336 22.366477,-0.223638336 20.3174175,0.933783383 L11.8767481,5.81631087 C9.82466494,6.99089386 8.55456815,9.17052884 8.54442311,11.5349712 L8.54442311,21.3000262 C8.56079554,21.9434462 8.67184402,22.5809467 8.87399371,23.1920056 L8.75193053,23.246934 L0.689657008,27.9219541 C0.137623073,28.2728808 -0.039646369,28.9965945 0.2877112,29.5629231 C0.615068769,30.1292516 1.33067131,30.3368543 1.91028888,30.0336472 L9.97866556,25.3769366 C10.495348,26.0369134 11.1333798,26.5920839 11.8584386,27.0125833 L20.299108,31.8951108 C22.3422747,33.0747336 24.8595598,33.0747336 26.9027265,31.8951108 L35.3433959,27.0125833 C37.3837322,25.83025 38.6413565,23.6520727 38.6452051,21.293923 L38.6452051,11.528868 C38.6431839,10.6922477 38.4816151,9.8636898 38.1691587,9.08760429 L46.6281375,4.2050768 C47.2115479,3.87197326 47.4161226,3.1300489 47.0858745,2.54501745 Z M36.2161477,21.2817167 C36.2144449,22.768918 35.4216681,24.1429094 34.1349703,24.8886839 L25.7004041,29.7712114 C24.4086452,30.4999609 22.8298083,30.4999609 21.5380494,29.7712114 L13.09738,24.8886839 C11.7989327,24.1506762 10.993675,22.7752217 10.9856869,21.2817167 L10.9856869,11.5166617 C11.002353,10.031907 11.8064362,8.66775442 13.09738,7.93410717 L21.5319462,3.05157968 C22.8197833,2.30804663 24.4064639,2.30804663 25.6943009,3.05157968 L34.1349703,7.93410717 C35.4216681,8.67988162 36.2144449,10.053873 36.2161477,11.5410744 L36.2161477,21.2817167 Z" id="Shape"></path>
            </g>
        </g>
    </g>
</svg>