<?xml version="1.0" encoding="UTF-8"?>
<svg width="71px" height="71px" viewBox="0 0 71 71" version="1.1" xmlns="http://www.w3.org/2000/svg" xmlns:xlink="http://www.w3.org/1999/xlink">
    <!-- Generator: Sketch 52.2 (67145) - http://www.bohemiancoding.com/sketch -->
    <title>Marketplace</title>
    <desc>Created with Sketch.</desc>
    <defs>
        <polygon id="path-1" points="9.83960792e-05 0.145134217 68.2397474 0.145134217 68.2397474 68.3851768 9.83960792e-05 68.3851768"></polygon>
        <linearGradient x1="147.21875%" y1="-41.0446361%" x2="6.08284356%" y2="95.8618789%" id="linearGradient-3">
            <stop stop-color="#FFB54D" offset="0%"></stop>
            <stop stop-color="#FAC5C5" offset="100%"></stop>
            <stop stop-color="#C1FEFF" offset="100%"></stop>
        </linearGradient>
    </defs>
    <g id="Marketplace" stroke="none" stroke-width="1" fill="none" fill-rule="evenodd" transform="translate(0.638627, 0.803000)">
        <g id="marketplace" transform="translate(0.343137, 0.000000)">
            <g id="Group-3" transform="translate(0.581272, 0.669077)">
                <g id="Fill-1-Clipped">
                    <mask id="mask-2" fill="white">
                        <use xlink:href="#path-1"></use>
                    </mask>
                    <g id="path-1"></g>
                    <path d="M47.6759508,68.3851768 L20.5638951,68.3851768 C9.20701957,68.3851768 9.83960792e-05,59.1787476 9.83960792e-05,47.8213801 L9.83960792e-05,20.7093245 C9.83960792e-05,9.35195697 9.20701957,0.145035821 20.5638951,0.145035821 L47.6759508,0.145035821 C59.0333182,0.145035821 68.2397474,9.35195697 68.2397474,20.7093245 L68.2397474,47.8213801 C68.2397474,59.1787476 59.0333182,68.3851768 47.6759508,68.3851768" id="Fill-1" fill="url(#linearGradient-3)" mask="url(#mask-2)"></path>
                </g>
            </g>
            <polygon id="Fill-4" fill="#FFF3F3" points="50.6302549 58.4988791 55.941016 55.4327588 34.6974697 43.1677761 29.3259885 46.2002744"></polygon>
            <path d="M34.6974697,49.2296614 L29.3862068,46.2332941 L29.3259885,46.1996722 L24.0769512,49.2537488 L13.4539235,55.4336621 C13.4800181,55.4482149 13.5161492,55.4672841 13.5593057,55.4933787 C14.1444278,55.8220708 16.2008862,57.0123878 17.5467675,57.7942234 C17.6471314,57.8519327 17.74599,57.9071329 17.8368194,57.9623331 C17.9281507,58.0150243 18.0169728,58.0652062 18.0982676,58.113381 C18.1484497,58.1419847 18.1966244,58.1710902 18.2447991,58.1971849 C18.3356285,58.2503778 18.4174251,58.2980507 18.4871782,58.3386981 C18.6623134,58.439564 18.7651865,58.4997824 18.7651865,58.4997824 L24.0548711,55.4216184 L24.0769512,55.4095748 L34.6347423,49.2657925 L34.6974697,49.2296614 Z" id="Fill-6" fill="#FFF3F3"></path>
            <polygon id="Fill-8" fill="#000064" points="45.3194938 55.4321065 50.6302549 58.4982267 50.6302549 21.704784 45.3194938 18.6381619"></polygon>
            <polygon id="Fill-10" fill="#E96670" points="55.941016 18.6382622 50.6302549 21.7043825 50.6302549 58.498327 55.941016 55.4322069"></polygon>
            <polygon id="Fill-12" fill="#FFFFFF" points="50.6302549 15.5721922 55.941016 18.6383124 50.6302549 21.7044326 45.3194938 18.6383124"></polygon>
            <polygon id="Fill-14" fill="#FFF3F3" points="50.6302549 15.5721922 55.941016 18.6383124 34.6974697 30.9032952 29.3259885 27.8707969"></polygon>
            <polygon id="Fill-16" fill="#E96670" points="50.6302549 27.8270884 50.6302549 21.6948479 34.6974697 30.903245 34.6974697 37.0354855"></polygon>
            <polygon id="Fill-18" fill="#FFFFFF" points="18.7653871 21.7033286 18.7653871 21.727416 13.4541242 18.6372084"></polygon>
            <polygon id="Fill-20" fill="#FFFFFF" points="24.076901 18.6372586 24.076901 24.817172 18.7656381 21.7274662 18.7656381 21.7033789 24.0553227 18.6493023"></polygon>
            <polygon id="Fill-22" fill="#E96670" points="24.076901 30.9036966 24.076901 55.4316548 18.7656381 58.4977751 18.7656381 27.8375764"></polygon>
            <polygon id="Fill-24" fill="#FFFFFF" points="18.7651865 15.5721922 24.0759475 18.6383124 18.7651865 21.7044326 13.4544253 18.6383124"></polygon>
            <path d="M13.4539235,18.6600914 C13.4800181,18.6460405 13.5161492,18.6264695 13.5593057,18.6003748 C14.1444278,18.2716827 16.2008862,17.0813657 17.5467675,16.2995301 C17.6471314,16.2418208 17.74599,16.1866206 17.8368194,16.1314204 C17.9281507,16.0787293 18.0169728,16.0285473 18.0982676,15.9803726 C18.1484497,15.9517689 18.1966244,15.9226633 18.2447991,15.8965687 C18.3361303,15.8438775 18.4174251,15.7957029 18.4871782,15.7550554 C18.6623134,15.6541896 18.7651865,15.594473 18.7651865,15.594473 L24.0548711,18.6721351 L34.6352441,24.8284629 L34.6974697,24.8640922 L29.3259885,28.1018348 L13.4539235,18.6600914 Z" id="Fill-26" fill="#FFF3F3"></path>
            <polygon id="Fill-28" fill="#000064" points="29.3859559 33.9697667 24.0767003 30.9036465 18.7654374 27.8375262 18.7654374 58.4977249 13.4536726 55.4316047 13.4536726 18.6371582 24.0767003 24.8175735 29.3257375 27.8711482"></polygon>
            <polygon id="Fill-30" fill="#000064" points="34.6974697 30.9036966 34.6974697 37.0359371 29.2697846 33.902573 29.1834715 27.791409 29.3862068 27.9048203"></polygon>
        </g>
    </g>
</svg>