<?xml version="1.0" encoding="UTF-8"?>
<svg width="70px" height="70px" viewBox="0 0 70 70" version="1.1" xmlns="http://www.w3.org/2000/svg" xmlns:xlink="http://www.w3.org/1999/xlink">
    <!-- Generator: Sketch 52.2 (67145) - http://www.bohemiancoding.com/sketch -->
    <title>Showcase</title>
    <desc>Created with Sketch.</desc>
    <defs>
        <polygon id="path-1" points="0.0286661474 0.240667282 49.2886594 0.240667282 49.2886594 33.6613305 0.0286661474 33.6613305"></polygon>
        <polygon id="path-3" points="0 0.395336122 51.8599486 0.395336122 51.8599486 35.5808928 0 35.5808928"></polygon>
    </defs>
    <g id="Showcase" stroke="none" stroke-width="1" fill="none" fill-rule="evenodd">
        <g id="SearchEngine_logo" transform="translate(0.000000, 6.237624)">
            <g id="Group-3" transform="translate(0.682684, 20.971659)" fill="#000000">
                <path d="M68.3268319,0.107425298 L68.3268319,15.9341395 C68.3268319,18.8028935 67.4850313,21.5186901 65.9789889,23.9606608 C64.6045113,26.2122369 62.65885,28.2284939 60.2767788,29.9238612 L51.8470061,25.1458135 L49.7965209,23.9606608 L51.8470061,25.1458135 C47.1395541,31.4405999 38.0712108,35.6977368 27.6604791,35.6977368 C16.6004804,35.6977368 7.05615081,30.8950874 2.63429059,23.9606608 C0.950689247,21.3165296 0.00192533826,18.3643443 0.00192533826,15.2452963 L0.00192533826,0.107425298 L68.3268319,0.107425298 Z" id="Fill-1"></path>
            </g>
            <g id="Group-6" transform="translate(19.722140, 0.862571)">
                <g id="Fill-4-Clipped">
                    <mask id="mask-2" fill="white">
                        <use xlink:href="#path-1"></use>
                    </mask>
                    <g id="path-1"></g>
                    <path d="M49.2895151,19.6716088 C49.2895151,25.1737978 46.2068346,30.1283348 41.2394619,33.6613305 L0.0286661474,10.27061 C4.4986598,4.28280799 13.1177574,0.240667282 23.017205,0.240667282 C37.5289073,0.240667282 49.2895151,8.94319619 49.2895151,19.6716088" id="Fill-4" fill="#CD0CB4" mask="url(#mask-2)"></path>
                </g>
            </g>
            <g id="Group-9" transform="translate(0.682684, 4.713248)">
                <g id="Fill-7-Clipped">
                    <mask id="mask-4" fill="white">
                        <use xlink:href="#path-3"></use>
                    </mask>
                    <g id="path-3"></g>
                    <path d="M-0.000106963237,15.1241738 C-0.000106963237,9.33211452 3.24515763,4.11551749 8.47459027,0.395336122 L51.8599486,25.021482 C47.1546359,31.3248256 38.0809445,35.5808928 27.6584467,35.5808928 C12.3808877,35.5808928 -0.000106963237,26.4194916 -0.000106963237,15.1241738" id="Fill-7" fill="#0032BD" mask="url(#mask-4)"></path>
                </g>
            </g>
        </g>
    </g>
</svg>