<?xml version="1.0" encoding="UTF-8"?>
<svg width="71px" height="71px" viewBox="0 0 71 71" version="1.1" xmlns="http://www.w3.org/2000/svg" xmlns:xlink="http://www.w3.org/1999/xlink">
    <!-- Generator: Sketch 52.2 (67145) - http://www.bohemiancoding.com/sketch -->
    <title>Resolver</title>
    <desc>Created with Sketch.</desc>
    <defs>
        <polygon id="path-1" points="0.525357434 0.277369281 49.702645 0.277369281 49.702645 31.2530841 0.525357434 31.2530841"></polygon>
        <polygon id="path-3" points="0.000214460784 0.185365605 38.22356 0.185365605 38.22356 44.3218954 0.000214460784 44.3218954"></polygon>
    </defs>
    <g id="Resolver" stroke="none" stroke-width="1" fill="none" fill-rule="evenodd" transform="translate(0.638627, 0.803000)">
        <g id="bns_resolver" transform="translate(0.000000, 1.029412)">
            <path d="M68.5125993,22.7248709 L68.5125993,44.7914559 C68.5125993,47.5372688 67.1572071,50.2916601 64.4378444,51.8536495 C62.3139677,53.0889436 59.9305935,53.7015866 57.5650911,53.7015866 C55.1824318,53.7015866 52.8169293,53.0889436 50.6844743,51.8536495 L19.3360266,33.7581634 L19.3360266,11.6908635 L38.4509163,22.7248709 L50.6844743,29.7870645 C52.8169293,31.0209289 55.1824318,31.6342868 57.5650911,31.6342868 C59.9305935,31.6342868 62.3139677,31.0209289 64.4378444,29.7870645 C67.1572071,28.2157819 68.5125993,25.4699689 68.5125993,22.7248709" id="Fill-1" fill="#2B3990"></path>
            <g id="Group-5" transform="translate(18.810311, 0.579721)">
                <g id="Fill-3-Clipped">
                    <mask id="mask-2" fill="white">
                        <use xlink:href="#path-1"></use>
                    </mask>
                    <g id="path-1"></g>
                    <path d="M0.525357434,11.3118056 L19.6373877,0.277083333 L45.6236009,15.2807598 C51.0623264,18.4204657 51.0623264,26.2711601 45.6236009,29.410866 C41.3694138,31.8671569 36.1287071,31.8671569 31.87452,29.410866 L0.525357434,11.3118056 Z" id="Fill-3" fill="#231F20" mask="url(#mask-2)"></path>
                </g>
            </g>
            <polygon id="Fill-6" fill="#231F20" points="0.223781879 22.9258922 38.4478423 0.857162579 38.4478423 44.9939069"></polygon>
            <g id="Group-10" transform="translate(0.223710, 22.740669)">
                <g id="Fill-8-Clipped">
                    <mask id="mask-4" fill="white">
                        <use xlink:href="#path-3"></use>
                    </mask>
                    <g id="path-3"></g>
                    <polygon id="Fill-8" fill="#FFD105" mask="url(#mask-4)" points="38.22356 44.3221099 38.22356 22.2533803 0.000214460784 0.185365605 0.000214460784 22.2533803"></polygon>
                </g>
            </g>
        </g>
    </g>
</svg>