<?xml version="1.0" encoding="UTF-8"?>
<svg width="70px" height="70px" viewBox="0 0 70 70" version="1.1" xmlns="http://www.w3.org/2000/svg" xmlns:xlink="http://www.w3.org/1999/xlink">
    <!-- Generator: Sketch 52.2 (67145) - http://www.bohemiancoding.com/sketch -->
    <title>Mobile app</title>
    <desc>Created with Sketch.</desc>
    <defs>
        <path d="M69.5046721,55.6568114 C69.5046721,63.2850614 63.2632971,69.5268739 55.6350471,69.5268739 L14.0257346,69.5268739 C6.39792208,69.5268739 0.15654707,63.2850614 0.15654707,55.6568114 L0.15654707,14.0479363 C0.15654707,6.41924881 6.39792208,0.178311328 14.0257346,0.178311328 L55.6350471,0.178311328 C63.2632971,0.178311328 69.5046721,6.41924881 69.5046721,14.0479363 L69.5046721,55.6568114 Z" id="path-1"></path>
        <linearGradient x1="70.2020702%" y1="82.8686586%" x2="33.6953416%" y2="-10.3227924%" id="linearGradient-3">
            <stop stop-color="#000000" stop-opacity="0" offset="0%"></stop>
            <stop stop-color="#000000" offset="100%"></stop>
        </linearGradient>
        <polygon id="path-4" points="0.0518875 0.37288125 29.218875 0.37288125 29.218875 31.9651938 0.0518875 31.9651938"></polygon>
        <linearGradient x1="63.1469029%" y1="206.114577%" x2="57.8397542%" y2="-11.6823386%" id="linearGradient-6">
            <stop stop-color="#0036FF" offset="0%"></stop>
            <stop stop-color="#00D7EC" offset="100%"></stop>
        </linearGradient>
    </defs>
    <g id="Mobile-app" stroke="none" stroke-width="1" fill="none" fill-rule="evenodd">
        <g id="BNS-Mobile-app">
            <g id="Path-7" transform="translate(0.306976, 0.333252)">
                <g id="Mask" fill="#FFEE62">
                    <path d="M69.5046721,55.6568114 C69.5046721,63.2850614 63.2632971,69.5268739 55.6350471,69.5268739 L14.0257346,69.5268739 C6.39792208,69.5268739 0.15654707,63.2850614 0.15654707,55.6568114 L0.15654707,14.0479363 C0.15654707,6.41924881 6.39792208,0.178311328 14.0257346,0.178311328 L55.6350471,0.178311328 C63.2632971,0.178311328 69.5046721,6.41924881 69.5046721,14.0479363 L69.5046721,55.6568114 Z" id="path-1"></path>
                </g>
                <g id="Clipped">
                    <mask id="mask-2" fill="white">
                        <use xlink:href="#path-1"></use>
                    </mask>
                    <g id="path-1"></g>
                    <polygon id="Path" fill-opacity="0.15" fill="url(#linearGradient-3)" mask="url(#mask-2)" points="8.61947634 44.5550385 33.6637878 80.436447 84.133301 59.1166533 54.012665 37.7968598"></polygon>
                </g>
            </g>
            <g id="Group-16" transform="translate(8.619476, 11.708252)">
                <path d="M34.8372063,34.9166563 L34.8831438,34.8908438 C34.9404563,34.9367813 34.9951438,34.9884063 35.0493938,35.0400313 L34.8372063,34.9166563 Z M36.9354563,24.7176562 L23.6765813,15.2453437 L41.7606438,5.73278125 L32.0385188,0.00021875 L0.00126875,18.4719062 L0.00126875,33.0165937 L19.8243938,44.5932812 C22.0088313,45.8563437 24.4461438,46.4845937 26.8830188,46.4845937 C29.3198938,46.4845937 31.7572063,45.8563437 33.9416438,44.5932812 C36.0770813,43.3590937 37.0732688,41.1344062 36.9183938,38.9784062 L36.9183938,36.0449687 L36.9354563,24.7176562 Z" id="Fill-1" fill="#00009E" fill-rule="nonzero"></path>
                <g id="Group-5" transform="translate(23.625000, 5.359812)">
                    <g id="Fill-3-Clipped">
                        <mask id="mask-5" fill="white">
                            <use xlink:href="#path-4"></use>
                        </mask>
                        <g id="path-4"></g>
                        <path d="M29.2187,9.96288125 L29.2187,24.8146938 C29.24145,26.8556313 28.2426375,28.9083813 26.2248875,30.0738813 C24.04045,31.3338813 21.6031375,31.9651938 19.1662625,31.9651938 C17.1625125,31.9651938 15.1592,31.5373188 13.2932625,30.6850688 L13.310325,19.3581938 L0.0518875,9.88544375 L18.1355125,0.37288125 L18.147325,0.37550625 L27.149325,5.68325625 L27.172075,11.1830688 L29.2187,9.96288125 Z" id="Fill-3" fill="#000060" mask="url(#mask-5)"></path>
                    </g>
                </g>
                <path d="M35.0491313,35.04095 L34.8369438,34.9180125 L34.8828813,34.8917625 C34.9397563,34.9377 34.9944438,34.989325 35.0491313,35.04095" id="Fill-6" fill="#000000"></path>
                <path d="M35.0491313,35.04095 L34.8369438,34.9180125 L34.8828813,34.8917625 C34.9397563,34.9377 34.9944438,34.989325 35.0491313,35.04095" id="Fill-8" fill="#262262"></path>
                <path d="M35.0491313,35.04095 L34.8369438,34.9180125 L34.8828813,34.8917625 C34.9397563,34.9377 34.9944438,34.989325 35.0491313,35.04095" id="Fill-10" fill="#262262"></path>
                <path d="M16.1499387,9.17319638 L32.037425,0.000875 L49.8703625,10.3989375 C53.8433,12.7155 53.83105,18.459875 49.8484875,20.759375 C45.480925,23.281125 40.1001125,23.281125 35.7329875,20.759375 L35.0529968,20.3667766 C37.8920193,23.0105093 37.5181215,27.8546866 33.9408125,29.9203625 C29.5736875,32.441675 24.192875,32.441675 19.8253125,29.9203625 L0,18.47405 L16.12975,9.161425 L16.1499387,9.17319638 Z" id="Combined-Shape" fill="url(#linearGradient-6)"></path>
            </g>
        </g>
    </g>
</svg>