<?xml version="1.0" encoding="UTF-8"?>
<svg width="1920px" height="4038px" viewBox="0 0 1920 4038" version="1.1" xmlns="http://www.w3.org/2000/svg" xmlns:xlink="http://www.w3.org/1999/xlink">
    <!-- Generator: Sketch 50.2 (55047) - http://www.bohemiancoding.com/sketch -->
    <title>bg@3x</title>
    <desc>Created with Sketch.</desc>
    <defs></defs>
    <g id="LP3" stroke="none" stroke-width="1" fill="none" fill-rule="evenodd">
        <g id="(Final)-LP3-1920">
            <g id="bg" transform="translate(-229.000000, -152.000000)">
                <g id="body" transform="translate(0.000000, 1319.000000)">
                    <g id="bg">
                        <g id="bg-copy" transform="translate(642.500000, 2458.000000) scale(-1, 1) translate(-642.500000, -2458.000000) translate(0.000000, 2017.000000)" fill="#23D6A3">
                            <polygon id="Rectangle-4-Copy-2" transform="translate(642.321643, 441.000000) scale(1, -1) rotate(-180.000000) translate(-642.321643, -441.000000) " points="0 0 1284.64329 0 1284.64329 340.096627 0 882"></polygon>
                        </g>
                        <polygon id="Rectangle-4-Copy" fill="#324C9A" transform="translate(1185.750974, 663.000000) scale(1, -1) translate(-1185.750974, -663.000000) " points="220.501948 0 2151 0 2151 511.301732 220.501948 1326"></polygon>
                        <polygon id="Rectangle-4-Copy-2" fill="#324C9A" transform="translate(1185.750974, 1890.247572) scale(1, -1) rotate(-180.000000) translate(-1185.750974, -1890.247572) " points="220.501948 909 2151 909 2151 2056.79688 220.501948 2871.49514"></polygon>
                    </g>
                </g>
                <g id="top" transform="translate(229.000000, 0.000000)" fill="#23D6A3">
                    <polygon id="Rectangle-4" points="0 0 1922 0 1922 511.301732 0 1326"></polygon>
                </g>
            </g>
        </g>
    </g>
</svg>