<?xml version="1.0" encoding="UTF-8"?>
<svg width="200px" height="192px" viewBox="0 0 200 192" version="1.1" xmlns="http://www.w3.org/2000/svg" xmlns:xlink="http://www.w3.org/1999/xlink">
    <!-- Generator: Sketch 50.2 (55047) - http://www.bohemiancoding.com/sketch -->
    <title>app@2x</title>
    <desc>Created with Sketch.</desc>
    <defs>
        <linearGradient x1="105.400826%" y1="-44.1099838%" x2="9.38992057%" y2="88.7035818%" id="linearGradient-1">
            <stop stop-color="#36E5FF" offset="0%"></stop>
            <stop stop-color="#324C9A" offset="100%"></stop>
        </linearGradient>
        <linearGradient x1="136.817152%" y1="-13.4234624%" x2="50%" y2="97.5677887%" id="linearGradient-2">
            <stop stop-color="#00F7CB" offset="0%"></stop>
            <stop stop-color="#00D7EC" offset="100%"></stop>
        </linearGradient>
    </defs>
    <g id="Official-Landing-page" stroke="none" stroke-width="1" fill="none" fill-rule="evenodd">
        <g id="Landing-Page-1366" transform="translate(-908.000000, -2586.000000)">
            <g id="Services" transform="translate(224.500000, 2490.000000)">
                <g id="Group-50" transform="translate(0.000000, 96.000000)">
                    <g id="Group-46" transform="translate(649.000000, 0.000000)">
                        <g id="app" transform="translate(34.000000, 0.000000)">
                            <g id="Group-41" fill="url(#linearGradient-1)">
                                <path d="M16.9169192,36.3737574 C35.6609988,11.3587452 64.7764957,-3.32892881 96.4314557,-3.32892881 C151.26102,-3.32892881 195.867769,41.2778203 195.867769,96.1073841 C195.867769,150.936948 151.26102,195.544392 96.4314557,195.544392 C71.8982306,195.544392 48.3345662,186.533876 30.0826201,170.172365 C29.3683168,169.531787 29.3078062,168.432859 29.9490795,167.717165 C30.5896573,167.002861 31.689281,166.943046 32.4042799,167.583624 C50.0170392,183.372023 72.7558119,192.066771 96.4314557,192.066771 C149.342764,192.066771 192.390148,149.019388 192.390148,96.1073841 C192.390148,43.196076 149.342764,0.148692189 96.4314557,0.148692189 C65.9128952,0.148692189 37.8396699,14.2964137 19.7482021,38.3953797 C21.2072001,39.9575088 22.1001584,42.0549574 22.1001584,44.3607313 C22.1001584,49.1897558 18.1857482,53.104166 13.3574192,53.104166 C8.52909021,53.104166 4.61468001,49.1897558 4.61468001,44.3607313 C4.61468001,39.5330978 8.52909021,35.6186876 13.3574192,35.6186876 C14.6250062,35.6186876 15.8296035,35.8884791 16.9169192,36.3737574 Z" id="Combined-Shape-Copy" transform="translate(100.241224, 96.107732) rotate(-90.000000) translate(-100.241224, -96.107732) "></path>
                            </g>
                            <g transform="translate(53.195623, 53.000000)" stroke="url(#linearGradient-2)" stroke-linecap="square" stroke-width="2.632">
                                <polyline id="Stroke-1" points="10.2236459 85.4458532 6.89583954 86.295421 11.2274389 69.3027349 68.8783938 11.6504505"></polyline>
                                <polyline id="Stroke-2" points="81.5390817 24.3110055 23.8881268 81.9632899 16.717987 83.7913897"></polyline>
                                <path d="M73.1658528,15.9377766 L81.5392146,24.3111384" id="Stroke-3"></path>
                                <path d="M81.5390817,24.3110055 L84.127671,21.7237457 C86.1179731,19.7334436 86.1179731,16.5066813 84.127671,14.5177087 L78.6739507,9.06265895 C76.6836486,7.07235685 73.4582158,7.07235685 71.4679137,9.06265895 L68.8793244,11.6512482" id="Stroke-4"></path>
                                <path d="M75.209469,17.9813928 L23.4961822,69.6946795" id="Stroke-6"></path>
                                <path d="M12.9229848,70.5859945 L18.7835404,76.4452205" id="Stroke-8"></path>
                                <path d="M68.8565895,87.0480663 L44.0874993,62.2789761" id="Stroke-10"></path>
                                <polyline id="Stroke-12" points="67.2219359 48.935842 93.6223559 75.3482277 75.3905506 93.5813626"></polyline>
                                <polyline id="Stroke-14" points="25.2133994 43.4034137 0.0614053862 18.2527492 18.2945403 0.00764860272 48.9560947 30.6838278"></polyline>
                                <path d="M85.1952812,67.4985666 L81.8528501,70.8396683" id="Stroke-16"></path>
                                <path d="M77.812816,60.1159685 L74.4717144,63.4583996" id="Stroke-18"></path>
                                <path d="M70.4315474,52.7348328 L67.0904457,56.0772639" id="Stroke-20"></path>
                                <path d="M40.9067386,23.2100241 L37.5643075,26.5511257" id="Stroke-22"></path>
                                <path d="M33.5241405,15.8274259 L28.1275899,21.225306" id="Stroke-24"></path>
                                <path d="M26.1430048,8.44629017 L22.8019031,11.7887213" id="Stroke-26"></path>
                                <path d="M77.812816,60.1159685 L72.4162654,65.5138486" id="Stroke-28"></path>
                            </g>
                        </g>
                    </g>
                </g>
            </g>
        </g>
    </g>
</svg>