<?xml version="1.0" encoding="UTF-8"?>
<svg width="200px" height="192px" viewBox="0 0 200 192" version="1.1" xmlns="http://www.w3.org/2000/svg" xmlns:xlink="http://www.w3.org/1999/xlink">
    <!-- Generator: Sketch 50.2 (55047) - http://www.bohemiancoding.com/sketch -->
    <title>decentralized@2x</title>
    <desc>Created with Sketch.</desc>
    <defs>
        <linearGradient x1="50%" y1="5.64826645%" x2="50%" y2="97.5677887%" id="linearGradient-1">
            <stop stop-color="#00F7CB" offset="0%"></stop>
            <stop stop-color="#00D7EC" offset="100%"></stop>
        </linearGradient>
        <linearGradient x1="117.522681%" y1="-512.695109%" x2="-61.4083997%" y2="559.991737%" id="linearGradient-2">
            <stop stop-color="#00F7CB" offset="0%"></stop>
            <stop stop-color="#00D7EC" offset="100%"></stop>
        </linearGradient>
        <linearGradient x1="105.400826%" y1="-44.1099838%" x2="9.38992057%" y2="88.7035818%" id="linearGradient-3">
            <stop stop-color="#36E5FF" offset="0%"></stop>
            <stop stop-color="#324C9A" offset="100%"></stop>
        </linearGradient>
    </defs>
    <g id="Official-Landing-page" stroke="none" stroke-width="1" fill="none" fill-rule="evenodd">
        <g id="Landing-Page-1366" transform="translate(-585.000000, -2586.000000)">
            <g id="Services" transform="translate(224.500000, 2490.000000)">
                <g id="Group-50" transform="translate(0.000000, 96.000000)">
                    <g id="Group-47" transform="translate(326.500000, 0.000000)">
                        <g id="decentralized" transform="translate(34.000000, 0.000000)">
                            <g id="archive" transform="translate(54.141916, 50.581095)" fill-rule="nonzero">
                                <path d="M86.8599744,0 L4.64542406,0 C2.08327291,0 0,2.08327291 0,4.64542406 L0,25.9417805 C0,26.7851552 0.681715219,27.4668705 1.52508998,27.4668705 L4.57526993,27.4668705 L4.57526993,79.3046787 L4.57526993,86.9301286 C4.57526993,87.7735033 5.25698514,88.4552186 6.1003599,88.4552186 L85.4050386,88.4552186 C86.2484134,88.4552186 86.9301286,87.7735033 86.9301286,86.9301286 L86.9301286,79.3046787 L86.9301286,27.4668705 L89.9803085,27.4668705 C90.8236833,27.4668705 91.5053985,26.7851552 91.5053985,25.9417805 L91.5053985,4.64542406 C91.5053985,2.08327291 89.4221256,0 86.8599744,0 Z M83.8799486,85.4050386 L7.62544988,85.4050386 L7.62544988,80.8297687 L83.8799486,80.8297687 L83.8799486,85.4050386 Z M83.8799486,77.7795887 L7.62544988,77.7795887 L7.62544988,27.4668705 L83.8799486,27.4668705 L83.8799486,77.7795887 Z M88.4552186,24.4166905 L85.4050386,24.4166905 L6.1003599,24.4166905 L3.05017995,24.4166905 L3.05017995,4.64542406 C3.05017995,3.76544715 3.76544715,3.05017995 4.64542406,3.05017995 L86.8599744,3.05017995 C87.7399514,3.05017995 88.4552186,3.76544715 88.4552186,4.64542406 L88.4552186,24.4166905 Z" id="Shape" fill="url(#linearGradient-1)"></path>
                                <g id="security-on" transform="translate(86.857464, 91.717782) rotate(-360.000000) translate(-86.857464, -91.717782) translate(71.568208, 73.122740)" fill="#11EBD4">
                                    <path d="M30.1338898,5.68240737 C23.9279447,5.68240737 19.1735652,3.90933991 15.1532257,0 C11.1333042,3.90933991 6.37913383,5.68240737 0.173711278,5.68240737 C0.173711278,15.8631216 -1.93287766,30.4469255 15.1531212,36.3697275 C32.2403742,30.44703 30.1338898,15.8632261 30.1338898,5.68240737 Z M13.9122666,23.5976633 L8.92156876,18.6062338 L11.1560895,16.3718176 L13.9122666,19.1286219 L19.1508845,13.8898994 L21.3853007,16.1243156 L13.9122666,23.5976633 Z" id="Shape"></path>
                                </g>
                                <path d="M24.4014396,61.003599 L67.1039589,61.003599 C67.9473337,61.003599 68.6290489,60.3218838 68.6290489,59.478509 L68.6290489,38.1272494 C68.6290489,37.2838746 67.9473337,36.6021594 67.1039589,36.6021594 L24.4014396,36.6021594 C23.5580648,36.6021594 22.8763496,37.2838746 22.8763496,38.1272494 L22.8763496,59.478509 C22.8763496,60.3218838 23.5580648,61.003599 24.4014396,61.003599 Z M25.9265296,39.6523394 L65.5788689,39.6523394 L65.5788689,57.9534191 L25.9265296,57.9534191 L25.9265296,39.6523394 Z" id="Shape" fill="url(#linearGradient-1)"></path>
                                <path d="M30.5017995,47.2777892 L39.6523394,47.2777892 C40.4957141,47.2777892 41.1774293,46.596074 41.1774293,45.7526993 C41.1774293,44.9093245 40.4957141,44.2276093 39.6523394,44.2276093 L30.5017995,44.2276093 C29.6584247,44.2276093 28.9767095,44.9093245 28.9767095,45.7526993 C28.9767095,46.596074 29.6584247,47.2777892 30.5017995,47.2777892 Z" id="Shape" fill="url(#linearGradient-1)"></path>
                                <path d="M45.7526993,47.2777892 C46.1492227,47.2777892 46.545746,47.1100293 46.8355131,46.8355131 C47.1100293,46.545746 47.2777892,46.1492227 47.2777892,45.7526993 C47.2777892,45.3546508 47.1100293,44.9581274 46.8355131,44.6698854 C46.2559789,44.1056021 45.2341687,44.1056021 44.6698854,44.6698854 C44.3938441,44.9581274 44.2276093,45.3546508 44.2276093,45.7526993 C44.2276093,46.1644736 44.3938441,46.545746 44.6698854,46.8355131 C44.9581274,47.1100293 45.3393999,47.2777892 45.7526993,47.2777892 Z" id="Shape" fill="url(#linearGradient-1)"></path>
                                <path d="M61.003599,50.3279692 L36.6021594,50.3279692 C35.7587846,50.3279692 35.0770694,51.0096844 35.0770694,51.8530592 C35.0770694,52.6964339 35.7587846,53.3781491 36.6021594,53.3781491 L61.003599,53.3781491 C61.8469738,53.3781491 62.528689,52.6964339 62.528689,51.8530592 C62.528689,51.0096844 61.8469738,50.3279692 61.003599,50.3279692 Z" id="Shape" fill="url(#linearGradient-1)"></path>
                                <path d="M29.4189856,50.7702453 C29.1429443,51.0584873 28.9767095,51.4550107 28.9767095,51.8530592 C28.9767095,52.2495826 29.1429443,52.6461059 29.4189856,52.935873 C29.7072276,53.2103892 30.0885001,53.3781491 30.5017995,53.3781491 C30.9135738,53.3781491 31.2948463,53.2103892 31.5846134,52.935873 C31.8591296,52.6461059 32.0268895,52.2495826 32.0268895,51.8530592 C32.0268895,51.4550107 31.8591296,51.0584873 31.5846134,50.7702453 C31.0203301,50.205962 29.9985198,50.205962 29.4189856,50.7702453 Z" id="Shape" fill="url(#linearGradient-1)"></path>
                                <path d="M59.478509,18.3163306 L32.0268895,18.3163306 C29.5043907,18.3163306 27.4516196,16.2635595 27.4516196,13.7410607 C27.4516196,11.2185619 29.5043907,9.16579075 32.0268895,9.16579075 L59.478509,9.16579075 C62.0010079,9.16579075 64.053779,11.2185619 64.053779,13.7410607 C64.053779,16.2635595 62.0010079,18.3163306 59.478509,18.3163306 Z" id="Shape" fill="url(#linearGradient-2)"></path>
                            </g>
                            <path d="M16.6853798,36.3737574 C35.4294594,11.3587452 64.5449563,-3.32892881 96.1999163,-3.32892881 C151.02948,-3.32892881 195.636229,41.2778203 195.636229,96.1073841 C195.636229,150.936948 151.02948,195.544392 96.1999163,195.544392 C71.6666912,195.544392 48.1030268,186.533876 29.8510807,170.172365 C29.1367774,169.531787 29.0762668,168.432859 29.7175401,167.717165 C30.3581179,167.002861 31.4577416,166.943046 32.1727405,167.583624 C49.7854998,183.372023 72.5242725,192.066771 96.1999163,192.066771 C149.111224,192.066771 192.158608,149.019388 192.158608,96.1073841 C192.158608,43.196076 149.111224,0.148692189 96.1999163,0.148692189 C65.6813558,0.148692189 37.6081306,14.2964137 19.5166627,38.3953797 C20.9756607,39.9575088 21.868619,42.0549574 21.868619,44.3607313 C21.868619,49.1897558 17.9542088,53.104166 13.1258798,53.104166 C8.29755083,53.104166 4.38314062,49.1897558 4.38314062,44.3607313 C4.38314062,39.5330978 8.29755083,35.6186876 13.1258798,35.6186876 C14.3934668,35.6186876 15.5980641,35.8884791 16.6853798,36.3737574 Z" id="Combined-Shape" fill="url(#linearGradient-3)" transform="translate(100.009685, 96.107732) rotate(-90.000000) translate(-100.009685, -96.107732) "></path>
                        </g>
                    </g>
                </g>
            </g>
        </g>
    </g>
</svg>