<?xml version="1.0" encoding="UTF-8"?>
<svg width="200px" height="192px" viewBox="0 0 200 192" version="1.1" xmlns="http://www.w3.org/2000/svg" xmlns:xlink="http://www.w3.org/1999/xlink">
    <!-- Generator: Sketch 50.2 (55047) - http://www.bohemiancoding.com/sketch -->
    <title>humanreadable@2x</title>
    <desc>Created with Sketch.</desc>
    <defs>
        <linearGradient x1="110.453898%" y1="-28.0207593%" x2="50%" y2="97.5677887%" id="linearGradient-1">
            <stop stop-color="#00F7CB" offset="0%"></stop>
            <stop stop-color="#00D7EC" offset="100%"></stop>
        </linearGradient>
        <linearGradient x1="89.6958586%" y1="-29.2368141%" x2="50%" y2="97.5677887%" id="linearGradient-2">
            <stop stop-color="#00F7CB" offset="0%"></stop>
            <stop stop-color="#00D7EC" offset="100%"></stop>
        </linearGradient>
        <linearGradient x1="100%" y1="-186.183509%" x2="50%" y2="97.5677887%" id="linearGradient-3">
            <stop stop-color="#00F7CB" offset="0%"></stop>
            <stop stop-color="#00D7EC" offset="100%"></stop>
        </linearGradient>
        <linearGradient x1="105.400826%" y1="-44.1099838%" x2="9.38992057%" y2="88.7035818%" id="linearGradient-4">
            <stop stop-color="#36E5FF" offset="0%"></stop>
            <stop stop-color="#324C9A" offset="100%"></stop>
        </linearGradient>
    </defs>
    <g id="Official-Landing-page" stroke="none" stroke-width="1" fill="none" fill-rule="evenodd">
        <g id="Landing-Page-1366" transform="translate(-259.000000, -2586.000000)">
            <g id="Services" transform="translate(224.500000, 2490.000000)">
                <g id="Group-50" transform="translate(0.000000, 96.000000)">
                    <g id="Group-49">
                        <g id="humanreadable" transform="translate(34.500000, 0.000000)">
                            <g id="human" transform="translate(45.553698, 40.867188)">
                                <path d="M64.0764911,56.4026925 L51.3450101,53.8568221 L51.3450101,50.7830454 C53.475793,49.2929874 55.1914883,47.2601226 56.3069031,44.8866731 C60.6685156,44.5226733 64.1169355,40.8975751 64.1169355,36.4444304 L64.1169355,25.8011593 C64.1169355,14.0637598 54.5677926,4.51461694 42.8303931,4.51461694 C31.0929937,4.51461694 21.5438508,14.0637598 21.5438508,25.8011593 L21.5438508,36.4444304 C21.5438508,40.8975751 24.9922707,44.5226733 29.3538832,44.8866731 C30.4714267,47.2601226 32.1849933,49.2929874 34.3157762,50.7830454 L34.3157762,53.8568221 L21.5842952,56.4026925 C16.6266595,57.3946454 13.0292339,61.7839304 13.0292339,66.8394842 L13.0292339,72.6315524 L72.6315524,72.6315524 L72.6315524,66.8394842 C72.6315524,61.7839304 69.0341268,57.3946454 64.0764911,56.4026925 Z M57.643698,40.1568034 C57.699043,39.6352831 57.7309728,39.1073769 57.7309728,38.5730847 L57.7309728,32.7788879 C58.9975221,33.5175309 59.859627,34.8756123 59.859627,36.4444304 C59.859627,38.0494357 58.9570776,39.4309323 57.643698,40.1568034 Z M25.8011593,36.4444304 C25.8011593,34.8756123 26.6632642,33.5175309 27.9298135,32.7788879 L27.9298135,38.5730847 C27.9298135,39.1073769 27.9617433,39.6352831 28.0170883,40.1568034 C26.7037087,39.4309323 25.8011593,38.0494357 25.8011593,36.4444304 Z M30.0584677,25.8011593 L27.9298135,25.8011593 L27.9298135,28.2320824 C27.1720126,28.4300473 26.4610421,28.7280588 25.8011593,29.1133453 L25.8011593,25.8011593 C25.8011593,16.4116654 33.4408993,8.7719254 42.8303931,8.7719254 C52.219887,8.7719254 59.859627,16.4116654 59.859627,25.8011593 L59.859627,29.1133453 C59.1997442,28.7280588 58.4887737,28.4279186 57.7309728,28.2320824 L57.7309728,25.8011593 L55.6023185,25.8011593 C51.8452438,25.8011593 48.2095024,24.6985164 45.084638,22.6166925 L42.8303931,21.1138627 L40.5761483,22.6166925 C37.4512839,24.6985164 33.8155425,25.8011593 30.0584677,25.8011593 Z M32.187122,38.5730847 L32.187122,29.9626783 C35.9825125,29.6157077 39.6246399,28.3427724 42.8303931,26.2311474 C46.0361464,28.3427724 49.6782738,29.6157077 53.4736643,29.9626783 L53.4736643,38.5730847 C53.4736643,44.4417844 48.6990929,49.2163558 42.8303931,49.2163558 C36.9616934,49.2163558 32.187122,44.4417844 32.187122,38.5730847 Z M47.0877016,52.8457113 L47.0877016,54.7210557 L42.8303931,58.9783642 L38.5730847,54.7210557 L38.5730847,52.8457113 C39.9226515,53.2501556 41.3509785,53.4736643 42.8303931,53.4736643 C44.3098078,53.4736643 45.7381348,53.2501556 47.0877016,52.8457113 Z M68.374244,68.374244 L17.2865423,68.374244 L17.2865423,66.8394842 C17.2865423,63.806152 19.4449977,61.1730067 22.4208564,60.5769835 L35.7462319,57.9119084 L42.8303931,64.9981983 L49.9166831,57.9119084 L63.2420586,60.5769835 C66.2157886,61.1730067 68.374244,63.806152 68.374244,66.8394842 L68.374244,68.374244 Z" id="Shape" fill="url(#linearGradient-1)" fill-rule="nonzero"></path>
                                <path d="M42.8303931,85.4034778 C19.3555943,85.4034778 0.257308468,66.305192 0.257308468,42.8303931 C0.257308468,19.3555943 19.3555943,0.257308468 42.8303931,0.257308468 C66.305192,0.257308468 85.4034778,19.3555943 85.4034778,42.8303931 C85.4034778,66.305192 66.305192,85.4034778 42.8303931,85.4034778 Z" id="Path" stroke="url(#linearGradient-2)" stroke-width="5"></path>
                                <path d="M63.0455391,88.4730386 C68.654543,84.8500691 73.4418863,80.0627257 77.0648558,74.4537218 L82.5950995,79.9839655 L68.5757828,94.0032823 L63.0455391,88.4730386 Z" id="Path" fill="url(#linearGradient-3)" transform="translate(72.820319, 84.228502) rotate(8.000000) translate(-72.820319, -84.228502) "></path>
                                <path d="M97.8482738,123.503465 C95.1980993,123.503465 92.7097025,122.473197 90.8386154,120.599981 L68.198249,97.9596144 L82.2175658,83.9402976 L104.857932,106.580664 C106.731148,108.45388 107.761417,110.944405 107.761417,113.590322 C107.761417,119.056707 103.314658,123.503465 97.8482738,123.503465 Z" id="Path" fill="url(#linearGradient-3)" transform="translate(87.979833, 103.721881) rotate(8.000000) translate(-87.979833, -103.721881) "></path>
                            </g>
                            <path d="M16.4344706,36.3737574 C35.1785502,11.3587452 64.2940471,-3.32892881 95.9490071,-3.32892881 C150.778571,-3.32892881 195.38532,41.2778203 195.38532,96.1073841 C195.38532,150.936948 150.778571,195.544392 95.9490071,195.544392 C71.415782,195.544392 47.8521176,186.533876 29.6001715,170.172365 C28.8858682,169.531787 28.8253576,168.432859 29.4666309,167.717165 C30.1072087,167.002861 31.2068324,166.943046 31.9218313,167.583624 C49.5345906,183.372023 72.2733633,192.066771 95.9490071,192.066771 C148.860315,192.066771 191.907699,149.019388 191.907699,96.1073841 C191.907699,43.196076 148.860315,0.148692189 95.9490071,0.148692189 C65.4304466,0.148692189 37.3572213,14.2964137 19.2657535,38.3953797 C20.7247515,39.9575088 21.6177098,42.0549574 21.6177098,44.3607313 C21.6177098,49.1897558 17.7032996,53.104166 12.8749706,53.104166 C8.04664161,53.104166 4.1322314,49.1897558 4.1322314,44.3607313 C4.1322314,39.5330978 8.04664161,35.6186876 12.8749706,35.6186876 C14.1425576,35.6186876 15.3471549,35.8884791 16.4344706,36.3737574 Z" id="Combined-Shape-Copy-2" fill="url(#linearGradient-4)" transform="translate(99.758776, 96.107732) rotate(-90.000000) translate(-99.758776, -96.107732) "></path>
                        </g>
                    </g>
                </g>
            </g>
        </g>
    </g>
</svg>