<?xml version="1.0" encoding="UTF-8"?>
<svg width="70px" height="70px" viewBox="0 0 70 70" version="1.1" xmlns="http://www.w3.org/2000/svg" xmlns:xlink="http://www.w3.org/1999/xlink">
    <!-- Generator: Sketch 52.2 (67145) - http://www.bohemiancoding.com/sketch -->
    <title>Browser Extension</title>
    <desc>Created with Sketch.</desc>
    <defs>
        <polygon id="path-1" points="0.000110431868 0.00966278842 59.8479708 0.00966278842 59.8479708 34.5629521 0.000110431868 34.5629521"></polygon>
        <polygon id="path-3" points="0.0163715243 0.0918655099 3.75689213 0.0918655099 3.75689213 23.8472786 0.0163715243 23.8472786"></polygon>
    </defs>
    <g id="Browser-Extension" stroke="none" stroke-width="1" fill="none" fill-rule="evenodd">
        <g id="extension" transform="translate(3.500251, 0.000000)">
            <path d="M12.752451,39.949546 L12.7331255,39.9110329 C12.7300886,39.9124133 12.7258093,39.9139318 12.7226345,39.9154502 C12.721116,39.9154502 12.721116,39.9169686 12.7197356,39.9169686 L12.752451,39.949546 Z" id="Stroke-1" stroke="#6D6E70" stroke-width="0.5"></path>
            <polygon id="Fill-3" fill="#95C9E4" points="60.0234055 17.3593409 30.0752493 34.7968089 30.0269354 69.2537599 59.9985583 52.2177121"></polygon>
            <polygon id="Fill-5" fill="#648393" points="0.175462293 17.5908062 0.199481224 52.0327111 30.0271286 69.2537325 30.0271286 34.8118277"></polygon>
            <g id="Group-9" transform="translate(0.175393, 0.233898)">
                <g id="Fill-7-Clipped">
                    <mask id="mask-2" fill="white">
                        <use xlink:href="#path-1"></use>
                    </mask>
                    <g id="path-1"></g>
                    <polygon id="Fill-7" fill="#C7DBE6" mask="url(#mask-2)" points="29.9239716 0.00964898442 0.000110431868 17.2863006 29.8998146 34.5629521 59.8479708 17.1254842"></polygon>
                </g>
            </g>
            <polygon id="Fill-10" fill="#648393" points="45.043654 64.9475661 41.325551 62.787933 41.325551 41.192153 45.0660164 43.3517862"></polygon>
            <path d="M41.3256201,43.2145194 L33.8398579,47.5336478 L35.7192702,48.6186409 C36.8710746,49.2838548 38.2901241,49.284545 39.4426187,48.6207115 L41.3256201,47.5364086 L41.3256201,43.2145194 Z" id="Fill-12" fill="#404041"></path>
            <polygon id="Fill-14" fill="#404041" points="58.5594378 33.2661404 52.5424195 36.7357716 52.5424195 41.0549 56.2875783 38.8980276"></polygon>
            <polygon id="Fill-16" fill="#C7DBE6" points="56.2875645 36.8729142 52.546961 34.713419 41.3255648 41.1921806 45.0660302 43.3518138"></polygon>
            <polygon id="Fill-18" fill="#404041" points="37.508087 60.6284377 30.0271562 64.9475661 22.5460874 60.6284377 22.5460874 64.9345906 30.0270182 69.2537185 37.508087 64.9475661"></polygon>
            <polygon id="Fill-20" fill="#404041" points="52.6301852 52.1745746 52.6078228 56.493841 60.003583 52.217505 60.003583 47.8554462"></polygon>
            <polygon id="Fill-22" fill="#404041" points="7.65643448 51.9900154 7.67865891 56.3091437 0.271717469 52.0328077 0.271717469 47.726379"></polygon>
            <polygon id="Fill-24" fill="#C7DBE6" points="26.3404712 36.8971678 26.3348116 54.0845076 7.63234653 43.2866176 3.89174311 36.807856 3.91396752 23.906101"></polygon>
            <polygon id="Fill-26" fill="#C7DBE6" points="26.3404712 36.8971678 30.0810746 34.7933027 7.66036861 21.8486172 3.91396752 23.906101"></polygon>
            <polygon id="Fill-28" fill="#C7DBE6" points="59.9622124 17.3935196 63.7028158 15.2336103 41.2597475 2.27650126 37.446259 4.47809858"></polygon>
            <polygon id="Fill-30" fill="#95C9E4" points="26.3348116 54.1357065 30.075415 56.2942355 30.075277 34.7968779 26.3404712 36.897154"></polygon>
            <g id="Group-34" transform="translate(59.946641, 15.142200)">
                <g id="Fill-32-Clipped">
                    <mask id="mask-4" fill="white">
                        <use xlink:href="#path-3"></use>
                    </mask>
                    <g id="path-3"></g>
                    <polygon id="Fill-32" fill="#95C9E4" mask="url(#mask-4)" points="0.0163715243 23.8472786 3.75697496 17.368379 3.75697496 0.0918655099 0.0163715243 2.25149872"></polygon>
                </g>
            </g>
            <polygon id="Fill-35" fill="#FFFFFF" points="56.2895936 43.3436557 52.5119955 45.5032889 52.5119955 49.8225553 56.228442 49.8225553 59.9929263 49.8225553 56.228442 47.6499463"></polygon>
            <polygon id="Fill-37" fill="#A1B6C2" points="45.066044 43.3517448 45.0436816 64.9475247 56.2875783 58.4687631 56.2875783 36.8728452"></polygon>
            <polygon id="Fill-39" fill="#A1B6C2" points="59.955062 56.3230443 60.0033759 60.6144267 52.3904791 64.9336934 52.4128415 60.6144267"></polygon>
            <polygon id="Fill-41" fill="#C7DBE6" points="59.9519561 56.3230443 56.2950048 54.1773532 45.0480712 60.6264362 52.4097356 60.6144267"></polygon>
            <polygon id="Fill-43" fill="#648393" points="52.3953657 64.9336794 45.0436402 64.9476215 45.0480575 60.6264224 52.4177281 60.6144129"></polygon>
            <polygon id="Fill-45" fill="#FFFFFF" points="41.2888186 51.9979802 37.5113586 54.1576135 37.5113586 58.4768799 41.227667 58.4768799 44.9922894 58.4768799 41.227667 56.3042709"></polygon>
        </g>
    </g>
</svg>