<?xml version="1.0" encoding="UTF-8"?>
<svg width="16px" height="19px" viewBox="0 0 16 19" version="1.1" xmlns="http://www.w3.org/2000/svg" xmlns:xlink="http://www.w3.org/1999/xlink">
    <!-- Generator: Sketch 50.2 (55047) - http://www.bohemiancoding.com/sketch -->
    <title>paperfile@3x</title>
    <desc>Created with Sketch.</desc>
    <defs></defs>
    <g id="Page-1" stroke="none" stroke-width="1" fill="none" fill-rule="evenodd">
        <g id="Hover" transform="translate(-196.000000, -465.000000)" fill="#000000" fill-rule="nonzero">
            <g id="Group-9" transform="translate(186.531250, 457.125000)">
                <g id="paperfile" transform="translate(10.000000, 8.000000)">
                    <path d="M13.9968265,1.94594595 L13.4648305,1.94594595 L13.4648305,14.9506714 C13.4648305,15.8146081 12.7580358,16.5178529 11.8897613,16.5178529 L6.49948266,16.5178529 L2.21311475,16.5178529 L2.21311475,16.9999288 C2.21311475,17.5519719 2.66341138,18 3.21820723,18 L8.60656688,18 L13.9949265,18 C14.5497224,18 15,17.5519719 15,16.9999288 L15,2.94601714 C15.000019,2.39399297 14.5516224,1.94594595 13.9968265,1.94594595 Z" id="Shape"></path>
                    <path d="M6.39249249,16.0540541 L11.7816449,16.0540541 C12.3365224,16.0540541 12.7868852,15.6060259 12.7868852,15.0540207 L12.7868852,2.04929523 L12.7868852,1.0000712 C12.7868852,0.44804702 12.3365224,0 11.7816449,0 L6.39249249,0 L4.60054231,0 L4.60054231,0.330836407 C4.60432383,0.364865295 4.6062431,0.400784676 4.6062431,0.436704057 L4.6062431,2.61644336 L4.6062431,3.17602951 C4.6062431,3.95302244 3.97155449,4.58444735 3.19054545,4.58444735 L2.62806692,4.58444735 L0.43706102,4.58444735 C0.408557041,4.58444735 0.378152796,4.58255686 0.349648816,4.58066637 L0,4.58066637 L0,15.0540207 C0,15.6060259 0.450362878,16.0540541 1.00524035,16.0540541 L2.10739422,16.0540541 L6.39249249,16.0540541 Z M6.59582088,12.6549652 L3.08223033,12.6549652 C2.81999371,12.6549652 2.607164,12.443211 2.607164,12.1823418 C2.607164,11.9214347 2.81999371,11.7097183 3.08223033,11.7097183 L6.59772114,11.7097183 C6.85995776,11.7097183 7.07278747,11.9214347 7.07278747,12.1823418 C7.07278747,12.443211 6.85805749,12.6549652 6.59582088,12.6549652 Z M10.1113117,10.2427141 L3.08223033,10.2427141 C2.81999371,10.2427141 2.607164,10.0309599 2.607164,9.77009063 C2.607164,9.50918358 2.81999371,9.29746719 3.08223033,9.29746719 L10.1113117,9.29746719 C10.3735483,9.29746719 10.586378,9.50918358 10.586378,9.77009063 C10.586378,10.0309599 10.3735483,10.2427141 10.1113117,10.2427141 Z M3.08223033,6.73582925 L10.1113117,6.73582925 C10.3735483,6.73582925 10.586378,6.94756455 10.586378,7.20845268 C10.586378,7.46934082 10.3735483,7.68107612 10.1113117,7.68107612 L3.08223033,7.68107612 C2.81999371,7.68107612 2.607164,7.46934082 2.607164,7.20845268 C2.607164,6.94756455 2.81999371,6.73582925 3.08223033,6.73582925 Z" id="Shape"></path>
                    <path d="M0.415537803,3.89189189 L3.1090768,3.89189189 C3.1109357,3.89189189 3.11465349,3.89189189 3.11651239,3.89189189 C3.566365,3.88821509 3.93070844,3.52788878 3.93442623,3.08299608 C3.93442623,3.08115768 3.93442623,3.07748088 3.93442623,3.07564248 L3.93442623,0.409963104 C3.93442623,0.163617562 3.72994777,0 3.51805232,0 C3.41581309,0 3.31357385,0.0367679914 3.22806468,0.121334372 L0.121832377,3.19330005 C-0.138412937,3.45067599 0.0456176779,3.89189189 0.415537803,3.89189189 Z" id="Shape"></path>
                </g>
            </g>
        </g>
    </g>
</svg>