<?xml version="1.0" encoding="UTF-8"?>
<svg width="117px" height="95px" viewBox="0 0 117 95" version="1.1" xmlns="http://www.w3.org/2000/svg" xmlns:xlink="http://www.w3.org/1999/xlink">
    <!-- Generator: Sketch 50.2 (55047) - http://www.bohemiancoding.com/sketch -->
    <title>Combined Shape</title>
    <desc>Created with Sketch.</desc>
    <defs></defs>
    <g id="Page-1" stroke="none" stroke-width="1" fill="none" fill-rule="evenodd">
        <path d="M75.074315,82.9507635 C65.8603415,82.9507635 55.4876831,79.4062554 45.8574156,72.9689825 C45.0595188,72.435738 44.6362866,71.5539675 44.9103468,71.0032966 C45.1809379,70.456111 46.048217,70.4386847 46.849583,70.9719293 C55.7201139,76.9073249 65.2844681,80.1730123 73.7733963,80.1730123 C80.8087646,80.1730123 86.4668936,77.9529025 90.1337498,73.7531657 C93.7312236,69.6335899 95.1154011,63.9944413 94.130172,57.4456402 C94.0191603,56.7137358 94.6089101,56.3094458 95.4484363,56.5429582 C96.2810243,56.7764705 97.047699,57.5571684 97.1587107,58.2890728 C98.2237295,65.3955153 96.7285403,71.5156296 92.8257842,75.9837313 C88.8467076,80.5424497 82.7063713,82.9507635 75.074315,82.9507635 Z M94.6522741,53.3190938 C93.8509081,53.2215066 92.9905672,52.5244548 92.7338526,51.7646684 C92.2585837,50.3601092 91.6792412,48.9276678 91.0131708,47.502197 C90.6523827,46.7319548 90.9819488,46.1115788 91.7451544,46.1115788 C92.50836,46.1115788 93.4172686,46.7319548 93.7780567,47.502197 C94.4996329,49.0461666 95.127543,50.600592 95.6409723,52.1236501 C95.8768722,52.8207018 95.5195532,53.3295496 94.8396063,53.3295496 C94.7771622,53.3295496 94.7181873,53.3260644 94.6522741,53.3190938 Z M22.9102506,37.9417838 C23.0073858,38.5412483 22.6396595,38.9246268 22.0464406,38.9246268 C21.9146141,38.9246268 21.7689112,38.9037152 21.6162701,38.8653774 C20.780213,38.6388356 20.0066001,37.8651081 19.885181,37.1297185 C18.7230269,30.023276 20.1974015,23.6347967 24.0446517,19.1457835 C28.0202592,14.5034189 34.1952866,12.0497967 41.9071327,12.0497967 C51.5443383,12.0497967 62.340229,15.8800961 72.3035316,22.8401577 C73.0910211,23.3908286 73.4899695,24.2691138 73.1916254,24.8023584 C72.8932814,25.335603 72.0121258,25.321662 71.2211672,24.7709911 C62.0384158,18.358115 52.0889896,14.8275479 43.2045822,14.8275479 C36.0998316,14.8275479 30.4070114,17.0894808 26.7401552,21.3658933 C23.1981873,25.5063807 21.8382936,31.3929827 22.9102506,37.9417838 Z M22.3277859,41.6807694 C23.1291518,41.7783566 23.9894927,42.4754084 24.2462074,43.2351948 C24.7214763,44.639754 25.3008188,46.0756806 25.9668892,47.5011514 C26.3276773,48.2679084 25.9981112,48.8882844 25.2349056,48.8882844 C24.4716999,48.8882844 23.5627914,48.2679084 23.2020033,47.5011514 C22.480427,45.9571818 21.852517,44.3992712 21.3390877,42.8796984 C21.0823731,42.1164267 21.52642,41.5831821 22.3277859,41.6807694 Z M34.7406317,9.33826544 C34.0676231,9.33826544 33.2454425,8.8433587 32.8222103,8.15327747 C32.3538796,7.39697632 32.544681,6.6894688 33.2454425,6.57794052 C35.1118272,6.27820827 37.0926927,6.12485689 39.1360024,6.12485689 C39.899208,6.12485689 40.8081165,6.7487182 41.1689047,7.51547512 C41.5262237,8.28223204 41.1966576,8.90260809 40.433452,8.90260809 C38.528907,8.90260809 36.6798679,9.0455037 34.9383714,9.3243244 C34.8759273,9.33478018 34.8100141,9.33826544 34.7406317,9.33826544 Z M14.0393727,22.2940177 C16.1381882,15.2433393 21.3488012,10.0468185 28.7102665,7.65941631 C29.3520531,7.45030078 30.3129983,7.88247287 30.868057,8.62134772 C31.4161774,9.36022257 31.3467951,10.1234942 30.7084776,10.3326098 C23.843096,12.5596901 18.9828638,17.407685 17.0228129,23.9878534 C14.9968489,30.7806227 16.0549294,38.9082461 20.0721664,47.4994088 C24.9254604,57.8785093 33.5254002,67.6163222 44.2831306,74.9249097 C45.0775582,75.4616396 45.4903831,76.3399248 45.2093847,76.8871104 C45.0671509,77.1589606 44.7757451,77.2983709 44.4218952,77.2983709 C44.0680453,77.2983709 43.6552205,77.1624458 43.2597412,76.8975662 C31.7283979,69.0661898 22.5109553,58.6243547 17.3072805,47.4994088 C12.9986378,38.2913553 11.8711749,29.5747232 14.0393727,22.2940177 Z M82.0427293,85.6769329 C82.7434909,85.5619194 83.6940288,86.0881934 84.1588904,86.8444946 C84.6272211,87.604281 84.4329506,88.3083032 83.7321891,88.4233168 C81.8692735,88.723049 79.8849388,88.8729152 77.8450983,88.8729152 C77.0818927,88.8729152 76.1729842,88.2525391 75.8121961,87.4857822 C75.4548771,86.7190253 75.780974,86.0986492 76.5476488,86.0986492 C78.4521937,86.0986492 80.3012328,85.9557536 82.0427293,85.6769329 Z M103.065922,72.2736734 C101.133624,79.2302498 96.2040099,84.4685937 89.182518,87.0267736 C89.0645681,87.0685967 88.9362108,87.0895083 88.8009152,87.0895083 C88.2111654,87.0895083 87.4861201,86.7096151 87.0247276,86.1136358 C86.4557924,85.3782462 86.500891,84.6010335 87.1218628,84.3744917 C93.6715548,81.9905748 98.2750724,77.1007568 100.075544,70.6077197 C101.93499,63.8985967 100.842219,55.9068984 96.9082405,47.5004544 C92.0549465,37.1213539 83.4584758,27.383541 72.7007454,20.0784387 C71.9063178,19.5417089 71.4900238,18.6599384 71.7744913,18.1162381 C72.0554898,17.5725377 72.9297071,17.5690524 73.7241348,18.1057823 C85.252009,25.9371586 94.4659825,36.3755085 99.6696573,47.5004544 C103.888103,56.5133335 105.060664,65.0800994 103.065922,72.2736734 Z M14.1781374,47.5008029 C18.5492242,56.8412963 25.5776543,65.7809849 34.5036911,73.3509669 C35.2391438,73.9783135 35.5027966,74.8426576 35.0899718,75.2887707 C34.9269233,75.4630337 34.6875543,75.5466799 34.4100249,75.5466799 C33.9798545,75.5466799 33.459487,75.3480201 33.011971,74.9681269 C23.5239373,66.9206645 16.0583985,57.4233345 11.4132515,47.5008029 C11.0559325,46.734046 11.3820295,46.1136699 12.1487042,46.1136699 C12.9084407,46.1136699 13.8173493,46.734046 14.1781374,47.5008029 Z M47.795611,82.6834442 C48.6177916,83.1539541 49.13469,84.0252688 48.9508268,84.6317038 C48.8432842,84.9837149 48.5206564,85.1684337 48.1113006,85.1684337 C47.8129566,85.1684337 47.4695141,85.0743317 47.1260715,84.8756719 C44.1461005,83.1748657 41.2077588,81.2649439 38.3908361,79.205156 C37.6102849,78.6370588 37.2460277,77.7587736 37.5721246,77.2429553 C37.8947525,76.7306223 38.7932537,76.7759306 39.5703358,77.3440278 C42.2242099,79.2818317 44.9890958,81.0802252 47.795611,82.6834442 Z M79.3156568,92.0180126 C80.0788625,92.0180126 80.987771,92.6383887 81.34509,93.4051456 C81.7058781,94.1753878 81.376312,94.7957638 80.6165755,94.7957638 C72.0305121,94.7957638 62.5320711,92.4501847 53.1446418,88.0169356 C52.3051156,87.6196161 51.6980202,86.7657277 51.7847481,86.1104991 C51.871476,85.4552705 52.6242743,85.2426697 53.4603314,85.6399892 C62.2927021,89.8118439 71.2326153,92.0180126 79.3156568,92.0180126 Z M90.2683515,29.1265189 C85.1271208,23.5361639 79.2330919,18.6010376 72.745844,14.4675207 C71.9375398,13.9517024 71.4830855,13.0769025 71.7293928,12.50532 C71.9757001,11.9372229 72.8291028,11.8953998 73.6374069,12.4077328 C80.5236032,16.7991588 86.7888276,22.0375027 92.249217,27.9763835 C97.9004078,34.1278652 102.382506,40.6940926 105.567155,47.5008029 C105.924474,48.2675598 105.594908,48.8879359 104.831703,48.8879359 C104.071966,48.8879359 103.159588,48.2675598 102.802269,47.5008029 C99.8049528,41.0948974 95.5865071,34.9120484 90.2683515,29.1265189 Z M59.913582,7.76920196 C59.0705866,7.42067608 58.4079854,6.58769925 58.4322692,5.90110328 C58.4600221,5.21799257 59.1607837,4.94614239 60.003779,5.291183 C62.6125546,6.36464269 65.2421449,7.61236531 67.8162294,8.99601303 C68.6453482,9.43864089 69.1934686,10.3064703 69.0442966,10.9303316 C68.9506305,11.3102248 68.6210644,11.5123698 68.190894,11.5123698 C67.9098955,11.5123698 67.5907368,11.4287236 67.2646399,11.2544607 C64.8431965,9.95097392 62.3697164,8.77992699 59.913582,7.76920196 Z M37.6644031,2.9821991 C36.9011975,2.9821991 35.992289,2.36182304 35.63497,1.59506612 C35.2741819,0.828309203 35.6037479,0.207933149 36.3669536,0.207933149 C41.5671592,0.207933149 47.069178,1.05136576 52.7273071,2.72080469 C53.5668333,2.96825806 54.3231007,3.75592653 54.4167668,4.48434561 C54.4896183,5.0594133 54.125361,5.42536546 53.5494877,5.42536546 C53.4003157,5.42536546 53.2372672,5.40096865 53.0672805,5.34868977 C47.7421866,3.78032334 42.5627957,2.9821991 37.6644031,2.9821991 Z M2.75641816,15.9989434 C1.93770666,15.5144924 1.43815388,14.6431777 1.63589352,14.0437132 C3.59941347,8.2372722 7.12750497,3.56354025 12.1230328,0.154957217 C12.6399311,-0.197053915 13.5974073,0.0713110071 14.2634777,0.750936459 C14.9330171,1.43404717 15.0579053,2.27050926 14.5444761,2.6225204 C9.80566293,5.85335523 6.4614346,10.2866043 4.60198815,15.7933131 C4.49097642,16.1313832 4.1718177,16.3091314 3.76940018,16.3091314 C3.46411793,16.3091314 3.11026804,16.2080589 2.75641816,15.9989434 Z M1.45862167,24.6441277 C0.615626354,24.2886313 -0.036567552,23.4486839 0.00159272971,22.7690585 C0.0813824097,21.3540434 0.237492653,19.9529694 0.476861693,18.6076595 C0.591342538,17.9628867 1.36148641,17.778168 2.19754349,18.196399 C3.03360057,18.6146301 3.61641214,19.4720037 3.5019313,20.1167766 C3.27643873,21.3923813 3.1237976,22.7202648 3.05094615,24.0620895 C3.02666234,24.5360846 2.67281245,24.8044496 2.17672879,24.8044496 C1.95817445,24.8044496 1.71533629,24.7521707 1.45862167,24.6441277 Z M114.223642,79.0026624 C115.042353,79.4836281 115.541906,80.3584281 115.344166,80.9544073 C113.380646,86.7643336 109.852555,91.4380656 104.857027,94.8466486 C104.700917,94.9512064 104.510116,95 104.298499,95 C103.795478,95 103.181444,94.7281498 102.716582,94.2506694 C102.047043,93.5675587 101.922155,92.7276113 102.435584,92.3790854 C107.174397,89.1447653 110.518625,84.7150015 112.378072,79.2082927 C112.579281,78.6123135 113.40493,78.5182115 114.223642,79.0026624 Z M115.52803,69.9608557 C116.371025,70.3128669 117.030157,71.149329 116.998935,71.8324397 C116.929553,73.3868651 116.763035,74.9203789 116.502851,76.3911581 C116.43,76.8024186 116.090027,77.0254752 115.639041,77.0254752 C115.382327,77.0254752 115.087452,76.9522847 114.78217,76.8024186 C113.946112,76.3876728 113.359832,75.5268139 113.477782,74.8820411 C113.72062,73.4879376 113.880199,72.0345847 113.946112,70.5603202 C113.977335,69.8772095 114.685034,69.6088446 115.52803,69.9608557 Z M9.58780241,21.7443924 C9.30333486,21.7443924 8.9772379,21.6572609 8.64420272,21.4725422 C7.81855299,21.0194586 7.27737081,20.1516292 7.44041928,19.5347384 C8.46727777,15.6417044 10.2712184,12.215695 12.8106117,9.35778288 C13.2130292,8.90121399 14.1392833,9.03713908 14.8816742,9.65402988 C15.620596,10.2709207 15.8946562,11.1422354 15.4922387,11.595319 C13.1020174,14.2859387 11.4021504,17.509803 10.437736,21.1762952 C10.3406007,21.5457327 10.0145037,21.7443924 9.58780241,21.7443924 Z M106.543365,73.8239165 C106.706413,73.2070257 107.507779,73.0711006 108.336898,73.5276695 C109.162548,73.9807531 109.70373,74.8485826 109.540681,75.4689586 C108.468724,79.5327703 106.550303,83.0772784 103.840923,86.008381 C103.677875,86.1826439 103.435036,86.2662902 103.157507,86.2662902 C102.727337,86.2662902 102.206969,86.0641452 101.762922,85.6842519 C101.027469,85.0603906 100.763817,84.1960465 101.176641,83.7499334 C103.729911,80.9896084 105.533852,77.6507306 106.543365,73.8239165 Z M72.3035316,77.0268693 C56.0958192,77.0268693 36.7173343,63.7828861 29.0991545,47.4997573 C21.4844437,31.2201138 28.4747135,17.9726454 44.6789568,17.9726454 C60.8832,17.9726454 80.265154,31.2201138 87.8798648,47.4997573 C95.4945755,63.7828861 88.5077749,77.0268693 72.3035316,77.0268693 Z M45.9764063,20.7503966 C31.2951052,20.7503966 24.9639676,32.7501424 31.8640403,47.4997573 C38.7641131,62.2493723 56.3213118,74.2491181 71.0026129,74.2491181 C85.683914,74.2491181 92.0150517,62.2493723 85.1149789,47.4997573 C78.2149062,32.7501424 60.6577074,20.7503966 45.9764063,20.7503966 Z" id="Combined-Shape" fill="#FFFFFF" style="mix-blend-mode: color-burn;"></path>
    </g>
</svg>