<?xml version="1.0" encoding="utf-8"?>
<!-- Generator: Adobe Illustrator 19.0.0, SVG Export Plug-In . SVG Version: 6.00 Build 0)  -->
<svg version="1.1" id="Layer_1" xmlns="http://www.w3.org/2000/svg" xmlns:xlink="http://www.w3.org/1999/xlink" x="0px" y="0px"
	 viewBox="0 0 1136.2 314.4" enable-background="new 0 0 1136.2 314.4" xml:space="preserve">
<g id="XMLID_6_">
	<g id="XMLID_93_">
		<g id="XMLID_94_">
			<g id="XMLID_95_">
				<g id="XMLID_99_">
					<g id="XMLID_103_">
						<path id="XMLID_69_" fill="#FFFFFF" d="M151.2,217.9V113.6l99.5,45.5L151.2,217.9z M156.2,121.4v87.7l83.7-49.5L156.2,121.4z"
							/>
					</g>
					<g id="XMLID_102_">
						<path id="XMLID_66_" fill="#FFFFFF" d="M245,161.9l-93.8-42.7V-2.4l98.5,162.6L245,161.9z M156.2,115.9l84,38.3l-84-138.7
							V115.9z"/>
					</g>
					<g id="XMLID_101_">
						<path id="XMLID_63_" fill="#FFFFFF" d="M156.2,217.9l-99.5-58.8l99.5-45.5V217.9z M67.5,159.7l83.7,49.5v-87.7L67.5,159.7z"/>
					</g>
					<g id="XMLID_100_">
						<path id="XMLID_60_" fill="#FFFFFF" d="M62.2,162.2l-2.9-3L156.2-2.5v121.6L62.2,162.2z M151.2,15.6L68.4,153.9l82.8-37.9
							V15.6z"/>
					</g>
				</g>
				<g id="XMLID_96_">
					<g id="XMLID_98_">
						<path id="XMLID_57_" fill="#FFFFFF" d="M151.2,314.4v-85.8l103.2-60.4L151.2,314.4z M156.2,231.5v67.2L237,184.2L156.2,231.5z
							"/>
					</g>
					<g id="XMLID_97_">
						<path id="XMLID_5_" fill="#FFFFFF" d="M156.2,314.4L53,168.2l103.2,60.4V314.4z M70.4,184.2l80.8,114.5v-67.2L70.4,184.2z"/>
					</g>
				</g>
			</g>
		</g>
	</g>
	<g id="XMLID_4_">
		<g id="XMLID_52_">
			<path id="XMLID_49_" fill="#00BCD6" d="M236.7,22.8c4,2.7,9.5,6.4,13.3,9.3c5.5,4.5,20.1,16.4-20.4,21.8
				c-36.2,4.9-70.1-5.4-84.7-9.8c-23.4-7.1-38.9-11.8-55.8-9.1c-51.7,8.2-72.4,48.6-74.6,53.2c2.4-4.6,5.6-10.7,8.2-15.1
				c4.2-6.6,27.1-39.8,71.4-46.7c14.6-2.3,30.6,2,44.7,5.8c35.8,9.6,44.2,11.9,69.2,12c0.6,0,60.4-1.5,27.4-22.2L236.7,22.8"/>
			<path id="XMLID_45_" fill="#00BCD6" d="M287,73.3l2.1,3.6c16.9,32.1-50.8,37.4-113.6,17.9c-58.2-18-75.8-23.5-123.8-9.8
				C29.1,91.5,4.3,112.5,0,144.9l0.4-4.8l0.4-4c5-34.7,32-56.1,80.3-63.6c55.5-8.6,104,25.1,157.8,26.6c14.7,0.4,61.3-0.5,45.6-29.8
				L287,73.3"/>
			<path id="XMLID_21_" fill="#00BCD6" d="M300.2,208.5c-5.1,11.1-10.5,19.3-33.3,23.5c-48.8,9-89.4-23.3-135.6-27.2
				C85,200.9,5.3,220,47.4,266.4c-3.2-3.3-7.5-7.7-10.6-11.2l-1.3-1.5c-39.9-55.2,60.9-68.9,110.9-62.4c38,5,70.8,29.3,110.1,29.4
				c39.1,0.1,45.6-19.5,48.8-29C304,196.8,302,203.5,300.2,208.5"/>
			<path id="XMLID_19_" fill="#00BCD6" d="M274.4,253.2l-5.1,5.9c-13,14-24.1,16-28.8,16.9c-10.9,2-17-0.2-29.7-5.4
				c-27.2-11-34.5-14-60-15.7c-49-3.2-109.8,18.7-54.9,43l-1.8-0.8l-6-2.7c-19.3-10.3-31.1-26.2-0.7-36.7
				c18.2-6.3,66.4-18.4,120.1,5.2c19.9,8.7,42.4,18.7,67.6-10.6L274.4,253.2"/>
			<path id="XMLID_17_" fill="#00BCD6" d="M192.7,304.8c-0.2,0,3.7-1.2,3.5-2.4c-1.2-10.7-49.4-8.8-60.5,0.1c-1.1,0.9-1,2.5,0.2,3.2
				c3.2,1.9,7.9,3,14,3.5c4.6,0.4,3.1,0.3,0,0.3c-3.1,0-5.2-0.2-9.4-0.6l-2.7-0.3c-18.5-2.1-32.6-8.4-23.2-14.7
				c14.1-9.6,74.2-15.1,89.5-0.5c2.3,2.2,2.1,5.8-0.2,7.9C201.6,303.5,197.9,305.6,192.7,304.8z"/>
			<path id="XMLID_16_" fill="#00BCD6" d="M193,4.1l5.8,1.6c10.4,3.1,10.9,5.3,11.3,6.8c-1.7,2-2.9,3.4-13.4,5.4
				c-11.6,2.2-23.5,2.5-35.2,1.7c-9.6-0.7-19-2.6-28.3-5.1c-7.6-2-15.5-3.8-23.4-3.3c-8.4,0.6-16.3,2.7-24.3,4.8
				c7.1-2.5,13.9-5.9,21.2-7.7c7.3-1.7,14.9-2.3,22.3-1.1c11.9,1.8,23.6,3.7,35.7,3.6c4.6,0,19.7,0.8,21.2-5.7
				c0.1-0.4-0.1-1.1-0.5-1.4C183.4,2.1,169.1,0,169.1,0"/>
		</g>
		<g id="XMLID_34_">
			<path id="XMLID_35_" fill="#00BCD6" d="M357.5,89.6h71.8v18.7h-51.1v19.3h44.9v18.7h-44.9v20h51.7v18.7h-72.4V89.6z"/>
			<path id="XMLID_37_" fill="#00BCD6" d="M470.9,108.9h-29V89.6h79v19.3h-29v76h-21V108.9z"/>
			<path id="XMLID_39_" fill="#00BCD6" d="M536.9,89.6h21v37.7h38.7V89.6h21v95.3h-21v-38.3h-38.7v38.3h-21V89.6z"/>
			<path id="XMLID_41_" fill="#00BCD6" d="M640.4,89.6h71.8v18.7h-51.1v19.3H706v18.7h-44.9v20h51.7v18.7h-72.4V89.6z"/>
			<path id="XMLID_43_" fill="#00BCD6" d="M731.6,89.6h43.6c12.1,0,21.3,3.2,27.8,9.7c5.4,5.4,8.2,12.7,8.2,21.8v0.3
				c0,7.7-1.9,14-5.7,18.9c-3.8,4.9-8.7,8.4-14.8,10.7l23.3,34h-24.5l-20.4-30.5h-16.5v30.5h-21V89.6z M773.8,135.9
				c5.2,0,9.1-1.2,11.9-3.7c2.8-2.4,4.2-5.7,4.2-9.8v-0.3c0-4.5-1.5-7.9-4.4-10.2c-2.9-2.3-6.9-3.4-12.1-3.4h-20.8v27.2H773.8z"/>
			<path id="XMLID_47_" fill="#00BCD6" d="M830.1,89.6h71.8v18.7h-51.1v19.3h44.9v18.7h-44.9v20h51.7v18.7h-72.4V89.6z"/>
			<path id="XMLID_50_" fill="#00BCD6" d="M961,186.4c-12.8,0-22.9-3.5-30.2-10.6s-11-17.7-11-31.7V89.6h21v53.9
				c0,7.8,1.8,13.7,5.4,17.6c3.6,3.9,8.7,5.9,15.1,5.9c6.4,0,11.5-1.9,15.1-5.7c3.6-3.8,5.4-9.5,5.4-17.2V89.6h21v53.8
				c0,7.3-1,13.6-2.9,18.9c-2,5.4-4.7,9.8-8.4,13.4c-3.6,3.6-8,6.3-13.2,8C973.2,185.5,967.4,186.4,961,186.4z"/>
			<path id="XMLID_53_" fill="#00BCD6" d="M1024.2,89.6h22.6l25,40.3l25-40.3h22.6v95.3h-20.7v-62.2l-26.8,40.7h-0.5l-26.5-40.3
				v61.8h-20.7V89.6z"/>
		</g>
	</g>
	<g id="XMLID_7_">
		<path id="XMLID_8_" fill="#FFFFFF" d="M348.8,217.7h5.3l8.8,27l9-27.1h4.2l9.1,27.1l8.8-27h5.2l-11.8,33.9h-4.4l-9-26.5l-9.1,26.5
			h-4.4L348.8,217.7z"/>
		<path id="XMLID_10_" fill="#FFFFFF" d="M468.1,252.1c-2.5,0-4.8-0.5-7-1.4s-4-2.2-5.5-3.8c-1.6-1.6-2.8-3.4-3.6-5.5
			c-0.9-2.1-1.3-4.3-1.3-6.7v-0.1c0-2.4,0.4-4.6,1.3-6.8s2.1-4,3.6-5.6c1.6-1.6,3.4-2.9,5.6-3.8c2.1-0.9,4.5-1.4,7.1-1.4
			c2.5,0,4.8,0.5,7,1.4c2.1,0.9,4,2.2,5.6,3.8c1.6,1.6,2.8,3.4,3.6,5.5c0.9,2.1,1.3,4.3,1.3,6.7v0.1c0,2.4-0.4,4.6-1.3,6.8
			c-0.9,2.1-2.1,4-3.7,5.6c-1.6,1.6-3.4,2.9-5.6,3.8C472.9,251.7,470.6,252.1,468.1,252.1z M468.2,247.6c1.8,0,3.5-0.3,5-1
			c1.5-0.7,2.8-1.6,3.9-2.8c1.1-1.2,1.9-2.5,2.5-4.1c0.6-1.6,0.9-3.2,0.9-5v-0.1c0-1.8-0.3-3.5-0.9-5.1c-0.6-1.6-1.5-3-2.6-4.2
			c-1.1-1.2-2.4-2.1-4-2.8c-1.5-0.7-3.2-1-4.9-1c-1.8,0-3.5,0.3-5,1c-1.5,0.7-2.8,1.6-3.9,2.8c-1.1,1.2-1.9,2.5-2.5,4.1
			c-0.6,1.6-0.9,3.3-0.9,5v0.1c0,1.8,0.3,3.5,0.9,5.1c0.6,1.6,1.5,3,2.6,4.1s2.4,2.1,3.9,2.8C464.8,247.3,466.4,247.6,468.2,247.6z"
			/>
		<path id="XMLID_13_" fill="#FFFFFF" d="M541.5,217.7h5v8.8c0.6-1.4,1.4-2.7,2.3-3.8s2-2.2,3.1-3c1.2-0.8,2.4-1.5,3.8-1.9
			c1.4-0.4,2.9-0.6,4.5-0.6v5.4h-0.4c-1.8,0-3.5,0.3-5.2,1c-1.6,0.6-3,1.6-4.3,2.9c-1.2,1.3-2.2,2.9-2.9,4.8c-0.7,1.9-1,4.2-1,6.7
			v13.4h-5V217.7z"/>
		<path id="XMLID_18_" fill="#FFFFFF" d="M615.1,203.9h5v47.5h-5V203.9z"/>
		<path id="XMLID_22_" fill="#FFFFFF" d="M692.7,252.1c-2,0-4-0.4-5.9-1.2c-1.9-0.8-3.6-1.9-5.1-3.4s-2.7-3.3-3.6-5.5
			c-0.9-2.1-1.4-4.6-1.4-7.4v-0.1c0-2.7,0.5-5.2,1.4-7.3c0.9-2.2,2.1-4,3.6-5.5c1.5-1.5,3.2-2.6,5.1-3.4c1.9-0.8,3.9-1.2,5.9-1.2
			c1.6,0,3,0.2,4.3,0.6c1.3,0.4,2.5,0.9,3.5,1.6s2,1.4,2.8,2.3c0.8,0.9,1.6,1.8,2.2,2.7v-20.3h5v47.5h-5v-6.8c-0.7,1-1.5,2-2.3,2.9
			c-0.8,0.9-1.8,1.7-2.8,2.4c-1,0.7-2.2,1.2-3.5,1.6C695.6,251.9,694.2,252.1,692.7,252.1z M693.6,247.6c1.6,0,3.1-0.3,4.5-0.9
			s2.8-1.5,3.9-2.7c1.1-1.1,2.1-2.5,2.7-4.1c0.7-1.6,1-3.3,1-5.3v-0.1c0-2-0.3-3.7-1-5.3c-0.7-1.6-1.6-2.9-2.7-4.1
			c-1.1-1.1-2.4-2-3.9-2.6c-1.5-0.6-3-0.9-4.5-0.9c-1.6,0-3.2,0.3-4.6,0.9c-1.4,0.6-2.7,1.4-3.7,2.5c-1.1,1.1-1.9,2.5-2.5,4.1
			c-0.6,1.6-0.9,3.4-0.9,5.5v0.1c0,2,0.3,3.8,1,5.4c0.7,1.6,1.5,3,2.6,4.1s2.3,2,3.8,2.6C690.5,247.3,692,247.6,693.6,247.6z"/>
		<path id="XMLID_25_" fill="#FFFFFF" d="M834.8,217.7h5v5.8c1.1-1.8,2.6-3.4,4.4-4.6c1.8-1.3,4.2-1.9,7.1-1.9c2,0,3.8,0.3,5.4,1
			c1.6,0.7,2.9,1.6,4,2.8c1.1,1.2,2,2.6,2.5,4.3c0.6,1.6,0.9,3.5,0.9,5.5v20.9h-5v-19.7c0-3.1-0.8-5.6-2.4-7.4s-3.9-2.7-6.9-2.7
			c-1.4,0-2.8,0.2-4,0.8c-1.2,0.5-2.3,1.2-3.2,2.1c-0.9,0.9-1.6,2.1-2.1,3.4c-0.5,1.3-0.7,2.7-0.7,4.3v19.3h-5V217.7z"/>
		<path id="XMLID_27_" fill="#FFFFFF" d="M936.4,252.1c-2.3,0-4.5-0.4-6.5-1.3c-2-0.8-3.8-2-5.3-3.6c-1.5-1.5-2.7-3.4-3.6-5.5
			c-0.9-2.1-1.3-4.5-1.3-7.1v-0.1c0-2.4,0.4-4.7,1.2-6.8c0.8-2.1,1.9-4,3.4-5.6c1.4-1.6,3.1-2.8,5.1-3.7c2-0.9,4.1-1.4,6.5-1.4
			c2.5,0,4.7,0.5,6.6,1.4s3.6,2.2,5,3.8c1.3,1.6,2.4,3.5,3.1,5.6c0.7,2.1,1,4.5,1,6.9c0,0.3,0,0.6,0,0.8s0,0.5-0.1,0.8h-26.7
			c0.2,1.8,0.6,3.4,1.3,4.8c0.7,1.4,1.6,2.6,2.6,3.6s2.3,1.7,3.6,2.2c1.3,0.5,2.8,0.7,4.3,0.7c2.3,0,4.3-0.4,6-1.3
			c1.7-0.9,3.2-2,4.6-3.4l3.1,2.8c-1.7,1.9-3.6,3.4-5.8,4.6C942.3,251.6,939.6,252.1,936.4,252.1z M946.3,232.7
			c-0.1-1.5-0.4-3-0.9-4.4c-0.5-1.4-1.2-2.6-2.1-3.6s-2-1.9-3.2-2.5c-1.3-0.6-2.8-0.9-4.4-0.9c-1.5,0-2.8,0.3-4.1,0.9
			c-1.3,0.6-2.4,1.4-3.3,2.4c-1,1-1.7,2.2-2.3,3.6c-0.6,1.4-1,2.9-1.2,4.6H946.3z"/>
		<path id="XMLID_30_" fill="#FFFFFF" d="M1002.5,217.7h5.3l8.8,27l9-27.1h4.2l9.1,27.1l8.8-27h5.2l-11.8,33.9h-4.4l-9-26.5
			l-9.1,26.5h-4.4L1002.5,217.7z"/>
		<path id="XMLID_32_" fill="#FFFFFF" d="M1118.2,252c-2.4,0-4.9-0.4-7.3-1.3c-2.5-0.9-4.7-2.1-6.6-3.6l2.5-3.6
			c1.8,1.4,3.7,2.4,5.7,3.2c2,0.7,4,1.1,5.9,1.1c2,0,3.7-0.5,5-1.4c1.3-1,2-2.3,2-3.9v-0.1c0-0.8-0.2-1.5-0.7-2.1
			c-0.5-0.6-1.1-1.1-1.9-1.6c-0.8-0.5-1.7-0.9-2.7-1.2c-1-0.3-2.1-0.7-3.2-1c-1.3-0.4-2.6-0.8-3.9-1.3c-1.3-0.5-2.5-1-3.6-1.7
			c-1.1-0.7-1.9-1.6-2.6-2.6c-0.7-1-1-2.3-1-3.9v-0.1c0-1.4,0.3-2.7,0.8-3.9c0.6-1.2,1.4-2.2,2.4-3.1c1-0.8,2.2-1.5,3.6-1.9
			c1.4-0.5,2.9-0.7,4.6-0.7c2.1,0,4.2,0.3,6.3,1c2.1,0.7,4.1,1.6,5.8,2.7l-2.3,3.8c-1.6-1-3.2-1.8-4.9-2.4c-1.7-0.6-3.4-0.9-5-0.9
			c-2,0-3.6,0.5-4.7,1.4c-1.2,0.9-1.8,2.1-1.8,3.5v0.1c0,0.8,0.2,1.5,0.7,2c0.5,0.6,1.1,1.1,1.9,1.5c0.8,0.4,1.7,0.8,2.8,1.2
			c1,0.3,2.1,0.7,3.2,1c1.3,0.4,2.6,0.8,3.9,1.3c1.3,0.5,2.4,1.1,3.5,1.8c1,0.7,1.9,1.6,2.5,2.7c0.6,1,0.9,2.3,0.9,3.8v0.1
			c0,1.6-0.3,3-0.9,4.3c-0.6,1.2-1.5,2.3-2.5,3.2c-1.1,0.9-2.3,1.5-3.8,2C1121.5,251.8,1119.9,252,1118.2,252z"/>
	</g>
</g>
</svg>
