<?xml version="1.0" encoding="UTF-8"?>
<svg width="89px" height="54px" viewBox="0 0 89 54" version="1.1" xmlns="http://www.w3.org/2000/svg" xmlns:xlink="http://www.w3.org/1999/xlink">
    <!-- Generator: Sketch 50.2 (55047) - http://www.bohemiancoding.com/sketch -->
    <title>AWS@2x</title>
    <desc>Created with Sketch.</desc>
    <defs>
        <polygon id="path-1" points="0 0.0857564113 88.2323046 0.0857564113 88.2323046 19.9546904 0 19.9546904"></polygon>
    </defs>
    <g id="Official-Landing-page" stroke="none" stroke-width="1" fill="none" fill-rule="evenodd">
        <g id="Landing-Page-1366" transform="translate(-348.000000, -4414.000000)">
            <g id="Comparison" transform="translate(226.569531, 3625.008394)">
                <g id="amazon" transform="translate(12.564570, 789.081954)">
                    <g id="AWS" transform="translate(108.918001, 0.691969)">
                        <path d="M74.2828975,27.6429978 C72.7569506,27.6429978 71.2310037,27.466927 69.7637471,27.1147854 C68.2964904,26.7626438 67.1520303,26.3811571 66.3890568,25.9409801 C65.9195347,25.6768739 65.5964448,25.3834226 65.4793577,25.1193164 C65.3619771,24.8552102 65.3029934,24.5617589 65.3029934,24.2979461 L65.3029934,22.8010509 C65.3029934,22.1848031 65.5380479,21.8913518 65.9782249,21.8913518 C66.1542957,21.8913518 66.3300731,21.9206969 66.5064373,21.9793872 C66.6825081,22.0380774 66.9466143,22.155458 67.2400657,22.2728385 C68.2375067,22.7130155 69.3235701,23.0651571 70.4680303,23.2999181 C71.6418356,23.5346792 72.7860023,23.6520597 73.9598076,23.6520597 C75.8088445,23.6520597 77.246756,23.3292633 78.2444905,22.6839638 C79.2419316,22.0380774 79.7704374,21.0990332 79.7704374,19.8961762 C79.7704374,19.074219 79.5063312,18.399281 78.9781188,17.8420169 C78.4499064,17.2841659 77.4521719,16.7852986 76.0139669,16.3157765 L71.7589227,14.9952455 C69.6170214,14.3206009 68.0323842,13.322573 67.0637014,12.002042 C66.0956055,10.7108561 65.5964448,9.27294462 65.5964448,7.74699771 C65.5964448,6.51479558 65.8608444,5.42873221 66.3890568,4.48998141 C66.9169757,3.5506437 67.6215524,2.72927343 68.5019064,2.08338706 C69.3822604,1.40874245 70.3799949,0.909581739 71.5538002,0.557440145 C72.7276055,0.205592001 73.9598076,0.0588663366 75.2512869,0.0588663366 C75.8968799,0.0588663366 76.5718179,0.0882114695 77.2174108,0.175953417 C77.8923489,0.263988816 78.5083032,0.381662799 79.1248445,0.49904333 C79.7117471,0.645768995 80.2690112,0.792494659 80.7975171,0.968565457 C81.3257294,1.1443428 81.7365613,1.3204136 82.0300126,1.4964844 C82.4408445,1.73124546 82.7342958,1.96629998 82.9103666,2.23011272 C83.0864374,2.46487378 83.1744728,2.78767025 83.1744728,3.19850211 L83.1744728,4.57772335 C83.1744728,5.19426459 82.9397118,5.51706106 82.4995348,5.51706106 C82.2647737,5.51706106 81.883287,5.39938707 81.3844197,5.16462601 C79.7117471,4.40165256 77.8336586,4.02045928 75.7501542,4.02045928 C74.0774816,4.02045928 72.7569506,4.28427202 71.8472515,4.84182955 C70.9375524,5.39938707 70.4680303,6.25068938 70.4680303,7.45354638 C70.4680303,8.27550355 70.7614816,8.97949329 71.3483843,9.53705081 C71.9352869,10.0946083 73.0210568,10.6524593 74.5763489,11.1510331 L78.7433577,12.4715641 C80.8562073,13.1467956 82.3821542,14.0855464 83.2918533,15.2886969 C84.2015525,16.4918473 84.6417295,17.8710686 84.6417295,19.3970155 C84.6417295,20.6588562 84.3776233,21.8036098 83.878756,22.8010509 C83.3505436,23.7987854 82.6462604,24.6791394 81.7365613,25.3834226 C80.8268622,26.1170509 79.7410923,26.6455567 78.4792516,27.02675 C77.1587206,27.4378753 75.7794993,27.6429978 74.2828975,27.6429978 Z M36.5744018,26.8509727 C36.0461894,26.8509727 35.6940478,26.7626438 35.4592867,26.5572279 C35.2245257,26.3811571 35.0191097,25.9703252 34.8430389,25.4127677 L27.9469327,2.72927343 C27.7708619,2.14237077 27.6828265,1.76059059 27.6828265,1.55546811 C27.6828265,1.08594599 27.9175876,0.821839792 28.3871097,0.821839792 L31.2629327,0.821839792 C31.8204902,0.821839792 32.201977,0.909581739 32.4073929,1.11529112 C32.642154,1.29106847 32.8182248,1.70219378 32.9942956,2.2597513 L37.9242779,21.6859358 L42.5021186,2.2597513 C42.6488443,1.67284865 42.8249151,1.29106847 43.0596761,1.11529112 C43.2944372,0.939220324 43.7052691,0.821839792 44.2334815,0.821839792 L46.5810921,0.821839792 C47.1386496,0.821839792 47.5201363,0.909581739 47.7548974,1.11529112 C47.989365,1.29106847 48.1950744,1.70219378 48.3124549,2.2597513 L52.9489859,21.9206969 L58.0256939,2.2597513 C58.2017647,1.67284865 58.4068872,1.29106847 58.6125966,1.11529112 C58.8470642,0.939220324 59.2288444,0.821839792 59.7570568,0.821839792 L62.4861541,0.821839792 C62.9553828,0.821839792 63.2197824,1.0563074 63.2197824,1.55546811 C63.2197824,1.70219378 63.1904373,1.84891944 63.1610922,2.02469679 C63.131747,2.20076759 63.0730568,2.4358221 62.9553828,2.75832511 L55.8834992,25.4421128 C55.7074284,26.0290155 55.5020125,26.4105022 55.2672514,26.586573 C55.0321969,26.7626438 54.6510036,26.8800244 54.1518429,26.8800244 L51.6284549,26.8800244 C51.070604,26.8800244 50.6894107,26.7922824 50.4546496,26.586573 C50.2198886,26.3811571 50.0144726,25.9996704 49.8967987,25.4127677 L45.3483031,6.48515699 L40.829446,25.3834226 C40.6827204,25.9703252 40.5066496,26.3521054 40.2718885,26.5572279 C40.0371274,26.7626438 39.6262956,26.8509727 39.0980832,26.8509727 L36.5744018,26.8509727 Z M13.01026,23.6814049 C13.9786494,23.6814049 14.9763839,23.5053341 16.0328087,23.1531925 C17.0892335,22.8010509 18.0282778,22.155458 18.8205964,21.275104 C19.2901185,20.7175464 19.6422601,20.1012987 19.8183309,19.3970155 C19.9944017,18.6927323 20.1117822,17.8420169 20.1117822,16.8439889 L20.1117822,15.6114933 C19.2607734,15.4060774 18.3510742,15.2300066 17.41203,15.1126261 C16.4729857,14.9952455 15.5632866,14.9365553 14.6535875,14.9365553 C12.6874636,14.9365553 11.2495521,15.318042 10.2811627,16.1103606 C9.3127733,16.9026792 8.84325117,18.0177942 8.84325117,19.4850509 C8.84325117,20.8642721 9.19539277,21.8913518 9.92902109,22.595635 C10.6333043,23.3292633 11.6603839,23.6814049 13.01026,23.6814049 Z M24.924384,19.2209447 C24.924384,20.3067146 25.0417645,21.1870686 25.2471805,21.8326615 C25.4819415,22.4782544 25.7753929,23.1825376 26.1862247,23.9455111 C26.3329504,24.1802721 26.3916406,24.4150332 26.3916406,24.6204491 C26.3916406,24.9139005 26.2155699,25.2073518 25.8340831,25.5008031 L23.9853398,26.7332987 C23.7212336,26.9093695 23.4571274,26.9976983 23.2223663,26.9976983 C22.928915,26.9976983 22.6354636,26.8509727 22.3420123,26.586573 C21.9311804,26.146396 21.5790389,25.6768739 21.2855875,25.2073518 C20.9921362,24.7084845 20.6986849,24.1512205 20.3758884,23.4759889 C18.086968,26.1757412 15.211145,27.5259107 11.7484193,27.5259107 C9.28342817,27.5259107 7.31730426,26.8213341 5.87939275,25.4127677 C4.44148124,24.0044948 3.70785291,22.1261128 3.70785291,19.7785022 C3.70785291,17.2841659 4.5882069,15.2593517 6.37826001,13.7336983 C8.16831312,12.2074579 10.5452689,11.4444845 13.5678176,11.4444845 C14.5655521,11.4444845 15.5926317,11.5328133 16.6784017,11.679539 C17.7641716,11.8262646 18.8792866,12.0607322 20.0530919,12.3248384 L20.0530919,10.1829372 C20.0530919,7.95241364 19.5835698,6.39741504 18.6738707,5.48771592 C17.7348264,4.57772335 16.1501893,4.13754636 13.890614,4.13754636 C12.8635344,4.13754636 11.8071096,4.25492689 10.7213397,4.51903309 C9.63556976,4.78343273 8.57914498,5.10593574 7.55206532,5.51706106 C7.0825432,5.72218354 6.7304016,5.83956407 6.52498567,5.89825433 C6.31956974,5.95723805 6.17284408,5.98628973 6.05546355,5.98628973 C5.64463169,5.98628973 5.43921576,5.6928384 5.43921576,5.07688406 L5.43921576,3.6386791 C5.43921576,3.16945042 5.49790602,2.81701538 5.64463169,2.61159945 C5.79135735,2.40647697 6.05546355,2.20076759 6.46629541,1.99564511 C7.49337506,1.46713926 8.72587064,1.02696227 10.1637822,0.675114128 C11.6016937,0.293333949 13.1276406,0.117263151 14.7416229,0.117263151 C18.2336937,0.117263151 20.7867203,0.909581739 22.4300477,2.49421892 C24.04403,4.07885609 24.8656937,6.48515699 24.8656937,9.71312161 L24.8656937,19.2209447 L24.924384,19.2209447 Z" id="Fill-1" fill="#11EBD4"></path>
                        <g id="Group-5" transform="translate(0.059607, 32.866549)">
                            <mask id="mask-2" fill="white">
                                <use xlink:href="#path-1"></use>
                            </mask>
                            <g id="Clip-4"></g>
                            <path d="M83.7896862,4.46034282 C82.5571906,2.8759991 75.6317392,3.69736937 72.49181,4.07885609 C71.5527658,4.19653008 71.4060401,3.37486635 72.257049,2.75832511 C77.7739339,-1.11523243 86.84158,0.000176070797 87.8980048,1.29106847 C88.954723,2.61159945 87.6045535,11.679539 82.4398101,16.0223252 C81.6474915,16.6972632 80.8848115,16.3451216 81.2366596,15.4647677 C82.4104649,12.559893 85.0221818,6.01592832 83.7896862,4.46034282 M79.769403,9.03847701 C70.1148543,16.1690508 56.0881742,19.9548664 44.0270311,19.9548664 C27.1242346,19.9548664 11.8941106,13.7040597 0.39081848,3.31617609 C-0.51888064,2.49451237 0.302783081,1.37910387 1.388553,2.02469679 C13.8308893,9.24389294 29.1783939,13.6160243 45.0541108,13.6160243 C55.7650843,13.6160243 67.532776,11.3860876 78.3608366,6.80795345 C79.9748189,6.07432513 81.3540402,7.86467169 79.769403,9.03847701" id="Fill-3" fill="#11EBD4" mask="url(#mask-2)"></path>
                        </g>
                    </g>
                </g>
            </g>
        </g>
    </g>
</svg>