<?xml version="1.0" encoding="UTF-8"?>
<svg width="121px" height="55px" viewBox="0 0 121 55" version="1.1" xmlns="http://www.w3.org/2000/svg" xmlns:xlink="http://www.w3.org/1999/xlink">
    <!-- Generator: Sketch 50.2 (55047) - http://www.bohemiancoding.com/sketch -->
    <title>cloudflare@2x</title>
    <desc>Created with Sketch.</desc>
    <defs></defs>
    <g id="Official-Landing-page" stroke="none" stroke-width="1" fill="none" fill-rule="evenodd">
        <g id="Landing-Page-1366" transform="translate(-335.000000, -4857.000000)" fill-rule="nonzero">
            <g id="Comparison" transform="translate(226.569531, 3625.008394)">
                <g id="CDN" transform="translate(0.564570, 1093.000000)">
                    <g id="cloudflare" transform="translate(108.420410, 139.696387)">
                        <g id="Group">
                            <polygon id="Shape" fill="#FFFFFF" points="109.872812 32.1442019 94.8183771 23.5115887 92.2215748 22.3886471 30.6352491 22.8448421 30.6352491 54.076654 109.872812 54.1117459"></polygon>
                            <path d="M82.46602,51.2342082 C83.2029504,48.7075897 82.922215,46.3915228 81.6939977,44.6720185 C80.5710562,43.092882 78.6760923,42.180492 76.3951173,42.0752162 L33.1969596,41.5137454 C32.9162242,41.5137454 32.6705807,41.3733777 32.530213,41.1628262 C32.3898453,40.9522746 32.3547534,40.6715392 32.4249372,40.3908039 C32.5653049,39.9697008 32.986408,39.6538735 33.442603,39.6187815 L77.0267719,39.0573108 C82.1852847,38.8116673 87.7999924,34.6357284 89.7651401,29.5123076 L92.2566667,23.0203018 C92.3619424,22.7395664 92.3970344,22.458831 92.3268505,22.1780956 C89.5194967,9.47481932 78.1848054,4.26325641e-14 64.6393229,4.26325641e-14 C52.1465982,4.26325641e-14 41.5488373,8.07114239 37.7589096,19.265466 C35.302475,17.4406859 32.1792938,16.4581121 28.8104691,16.7739394 C22.8097502,17.3705021 18.0021567,22.1780956 17.405594,28.1788145 C17.2652263,29.7228591 17.3705021,31.2318118 17.7214213,32.6354888 C7.93077469,32.9162242 0.10527577,40.9171827 0.10527577,50.7780132 C0.10527577,51.6553113 0.175459617,52.5326094 0.280735387,53.4099074 C0.350919234,53.8310105 0.701838468,54.1468378 1.12294155,54.1468378 L80.8517916,54.1468378 C81.3079866,54.1468378 81.7290897,53.8310105 81.8694573,53.3748155 L82.46602,51.2342082 Z" id="Shape" fill="#11EBD4"></path>
                            <path d="M96.222054,23.4764968 C95.8360429,23.4764968 95.4149398,23.4764968 95.0289286,23.5115887 C94.7481932,23.5115887 94.5025498,23.7221402 94.397274,24.0028756 L92.7128617,29.8632268 C91.9759313,32.3898453 92.2566667,34.7059123 93.484884,36.4254165 C94.6078255,38.0045531 96.5027894,38.9169431 98.7837644,39.0222188 L107.977848,39.5836896 C108.258584,39.5836896 108.504227,39.7240573 108.644595,39.9346089 C108.784963,40.1451604 108.820055,40.4609877 108.749871,40.7066312 C108.609503,41.1277343 108.1884,41.4435616 107.732205,41.4786535 L98.1521098,42.0401243 C92.9585051,42.2857677 87.3788893,46.4617066 85.4137416,51.5851274 L84.7119031,53.3748155 C84.5715354,53.7257348 84.8171789,54.076654 85.2031901,54.076654 L118.119414,54.076654 C118.505425,54.076654 118.856345,53.8310105 118.96162,53.4449994 C119.523091,51.4096678 119.838918,49.2690605 119.838918,47.0582693 C119.838918,34.0391657 109.27625,23.4764968 96.222054,23.4764968" id="Shape" fill="#11EBD4"></path>
                        </g>
                    </g>
                </g>
            </g>
        </g>
    </g>
</svg>