<?xml version="1.0" encoding="UTF-8"?>
<svg width="63px" height="62px" viewBox="0 0 63 62" version="1.1" xmlns="http://www.w3.org/2000/svg" xmlns:xlink="http://www.w3.org/1999/xlink">
    <!-- Generator: Sketch 50.2 (55047) - http://www.bohemiancoding.com/sketch -->
    <title>facebook@2x</title>
    <desc>Created with Sketch.</desc>
    <defs></defs>
    <g id="Official-Landing-page" stroke="none" stroke-width="1" fill="none" fill-rule="evenodd">
        <g id="Landing-Page-1366" transform="translate(-361.000000, -4850.000000)" fill="#11EBD4" fill-rule="nonzero">
            <g id="Comparison" transform="translate(226.569531, 3625.008394)">
                <g id="facebook" transform="translate(0.564570, 1189.855132)">
                    <g transform="translate(134.607985, 35.465613)" id="Shape">
                        <path d="M58.1753912,0 L3.40301731,0 C1.52358275,-1.15082176e-16 2.30164353e-16,1.52358275 0,3.40301731 L0,58.1753912 C2.30164353e-16,60.0548258 1.52358275,61.5784086 3.40301731,61.5784086 L32.895834,61.5784086 L32.895834,37.8113035 L24.847428,37.8113035 L24.847428,28.4449035 L32.8526211,28.4449035 L32.8526211,21.6064591 C32.8526211,13.6444789 37.7032712,9.31238389 44.800993,9.31238389 C47.2121384,9.31954772 49.6211474,9.45658716 52.0175504,9.72290661 L52.0175504,18.0305902 L47.1128842,18.0305902 C43.2561312,18.0305902 42.5107084,19.856336 42.5107084,22.5463401 L42.5107084,28.4881164 L51.7474696,28.4881164 L50.5483112,37.8113035 L42.5107084,37.8113035 L42.5107084,61.5784086 L58.1753912,61.5784086 C60.0548258,61.5784086 61.5784086,60.0548258 61.5784086,58.1753912 L61.5784086,3.40301731 C61.5784086,1.52358275 60.0548258,1.15082176e-16 58.1753912,0 Z"></path>
                    </g>
                </g>
            </g>
        </g>
    </g>
</svg>