<?xml version="1.0" encoding="UTF-8"?>
<svg width="68px" height="100px" viewBox="0 0 68 100" version="1.1" xmlns="http://www.w3.org/2000/svg" xmlns:xlink="http://www.w3.org/1999/xlink">
    <!-- Generator: Sketch 50.2 (55047) - http://www.bohemiancoding.com/sketch -->
    <title>godaddy@2x</title>
    <desc>Created with Sketch.</desc>
    <defs></defs>
    <g id="Official-Landing-page" stroke="none" stroke-width="1" fill="none" fill-rule="evenodd">
        <g id="Landing-Page-1366" transform="translate(-360.000000, -3938.000000)" fill-rule="nonzero">
            <g id="Comparison" transform="translate(226.569531, 3625.008394)">
                <g id="godaddy" transform="translate(11.000000, 312.091060)">
                    <g id="Group-30-Copy-4" transform="translate(0.962703, 0.808878)">
                        <g id="godaddy" transform="translate(122.016389, 0.502897)">
                            <path d="M58.6039412,50.0604194 C56.432963,43.6412328 53.1083785,36.714053 47.6128159,32.3730203 C42.2096156,28.1705312 35.6985284,26.4618269 29.1403364,26.4618269 C22.6287874,26.4618269 16.0710572,28.12435 10.2060449,30.7566783 C9.00533375,31.3108527 8.35879697,32.6501075 8.68206536,33.9431811 L23.5524113,96.8419737 C23.7371361,97.6732353 24.3374917,98.4116727 25.1225721,98.7354029 C25.4920217,98.8739465 25.8614713,98.9663089 26.2309209,98.9663089 C26.6927329,98.9663089 27.1545448,98.8739465 27.5697138,98.6430405 C30.6638541,96.9805173 33.2961825,95.1332694 34.2198064,94.4867326 C35.2362546,93.7940146 35.9289726,93.655471 36.8525966,93.6097516 C38.8379263,93.471208 41.9787096,95.1794506 46.4116429,95.2722748 C47.3814481,95.2722748 48.3978963,95.1799124 49.459602,94.9490064 C52.4151987,94.3029314 54.4476333,92.4556835 55.4631579,90.5617925 C56.479606,88.6683634 56.6176878,86.8672966 56.6176878,85.7127666 C56.6176878,85.2509547 56.5715066,84.8815051 56.5715066,84.6505991 C56.5253254,83.0809001 56.0635134,81.7411835 55.5088772,80.3557476 C54.6323581,78.2775936 53.4778281,76.1532585 52.5999235,74.3060106 C51.8610244,72.8282122 51.3525694,71.3961332 51.2144876,70.7500583 C51.4915748,70.6115147 51.9072056,70.4267899 52.3690175,70.2882463 C53.7082723,69.8264343 55.5088772,69.4108035 57.0333186,68.9951727 C57.8179372,68.8104479 58.5106552,68.5795419 59.2033731,68.3024547 C59.5732845,68.1634493 59.8960911,67.9791863 60.3579031,67.6559179 C60.5888091,67.4711931 60.8668199,67.2402871 61.0977259,66.8708376 C61.3748131,66.4556686 61.6057191,65.8548512 61.6057191,65.1621332 C61.6057191,62.3446183 60.7282763,56.5257872 58.6039412,50.0604194 Z" id="Shape" fill="#11EBD4"></path>
                            <path d="M45.2575747,35.559523 C40.7313555,32.0497519 35.1438922,30.5257724 29.27888,30.5257724 C23.8294985,30.5257724 18.1953923,31.8188459 13.0692792,34.0355435 L27.3392696,94.1634642 C29.5559672,92.8699288 31.3570339,91.6234983 32.0959331,91.1150433 C33.7584563,89.9605133 35.4676224,89.4987013 37.0839644,89.4987013 C40.5475543,89.5453443 43.456508,91.1616863 46.6430107,91.1150433 C47.3357287,91.1150433 48.0284467,91.0226809 48.7673458,90.8841373 C50.660775,90.4223253 51.4920366,89.5453443 52.046211,88.5750773 C52.6008472,87.559091 52.6927477,86.404561 52.6927477,85.6656618 C52.6927477,85.4347558 52.6927477,85.250031 52.6465665,85.1114874 L52.6465665,84.6496754 C52.6927477,83.4027831 51.4458554,80.6780924 50.1066006,78.045764 C48.7673458,75.3672545 47.2895475,72.7811074 47.2438281,70.379685 C47.2438281,69.5022423 47.5209153,68.4857941 48.3055339,67.7930761 C49.6447886,66.6851891 51.5848608,66.1767341 53.5701905,65.6225598 C55.2327137,65.2073908 56.9418798,64.7912982 57.6803172,64.4680298 C57.5413118,62.0670693 56.710512,56.7562314 54.8632641,51.3063882 C52.8774725,45.3037559 49.6909698,38.9769317 45.2575747,35.559523 Z" id="Shape" fill="#3442B0"></path>
                            <path d="M52.32376,85.5737612 C47.2438281,84.8810432 43.7331334,83.4032449 41.0093663,81.1403662 C38.2384944,78.8774874 36.252241,75.9680719 33.8969999,72.504482 C33.4813691,71.9041264 33.6199127,71.0728648 34.2202683,70.657234 C34.8206238,70.2416033 35.6514236,70.3801469 36.0675162,70.9805024 C38.4694003,74.4440923 40.3628295,77.1226019 42.7176088,79.0622122 C45.0723881,81.0018226 47.9822655,82.2948961 52.7384671,82.9409711 C53.4782899,83.0333335 53.9858213,83.7260515 53.8929971,84.4187694 C53.8010965,85.1114874 53.2473839,85.5732994 52.554666,85.5732994 L52.32376,85.5737612 Z M11.4529373,35.7442478 C10.1136825,36.5755094 9.28242094,37.637677 8.45115937,38.2380325 C7.57371659,38.9769317 7.43517299,39.7620121 7.3889918,40.5470925 C7.3889918,40.8703609 7.43517299,41.1936293 7.61989779,41.5630788 C7.75844139,41.9325284 8.17407217,42.4405216 8.86679015,42.6252464 C10.0213201,42.9023336 11.0834877,43.0408772 12.0994741,43.0408772 L12.6074673,43.0408772 L11.4529373,35.7442478 Z" id="Shape" fill="#11EBD4"></path>
                            <path d="M24.0142233,38.6998445 C25.1225721,38.0533077 26.5541893,37.5453146 27.8472628,36.9911402 C28.12435,36.8987778 28.355256,36.3446034 28.2624318,35.8827914 C28.2162506,35.6057042 28.0315258,35.2362546 27.8929822,35.1900734 C26.8308146,34.9591674 26.0919155,34.866805 24.7526607,34.7282614 C23.2748623,34.5435366 22.4436008,34.635899 21.2428896,34.0817247 C20.7348964,33.8508187 20.6887152,33.0195571 20.5501716,32.4653827 C19.9959972,30.3872288 19.3494605,28.355256 18.4720177,26.6003705 C18.3334741,26.2771021 17.8254809,26.0923773 17.5022125,26.4156457 C17.1789441,26.6927329 16.9480381,27.2469072 17.0865817,27.8472628 C17.5022125,29.9254168 16.4862261,32.0035707 16.0244141,33.8969999 L15.3783392,34.9591674 C14.408534,35.790429 13.3925476,36.3907846 12.3303801,37.0373214 C11.3143937,37.637677 10.4831321,38.6536633 9.46714574,39.4387437 C8.95915255,39.8081933 8.86679015,40.9165421 9.32860214,41.0550857 C11.0373065,41.5168977 12.6998296,41.4707165 14.3161716,41.2398105 C14.3623528,43.2717832 13.6234536,45.2113935 12.9307356,46.9200979 C12.792192,47.2895475 12.6536484,47.4280911 12.5612861,47.7051783 C12.2841989,48.3517151 13.069741,49.1367954 13.5772724,49.044433 C15.101252,48.7673458 16.1172384,46.9200979 17.5488555,45.2113935 C18.2877547,44.3339508 19.2113787,42.8561524 19.8117343,42.9023336 C20.5506334,42.9023336 22.9058746,44.5648568 24.7531225,45.7655679 C25.8152901,46.4582859 26.6927329,47.1971851 27.893444,47.0124603 C28.2167124,47.0124603 28.4014372,46.5506483 28.6323432,46.0888363 C28.8632492,45.5346619 27.0621825,43.1794208 27.0621825,43.1794208 C26.2309209,42.071072 24.6145789,40.0390993 24.0604045,39.2540189 C23.8294985,38.9769317 23.7371361,38.8845693 24.0142233,38.6998445 Z" id="Shape" fill="#11EBD4"></path>
                            <path d="M11.3143937,39.5772873 C11.4529373,40.0390993 14.408534,39.4387437 14.4547152,39.3925625 C15.5168828,39.2540189 15.8401512,39.0692941 15.7016076,39.7158309 C15.6092452,40.1776429 15.563064,40.8241797 15.4707016,41.2398105 C15.1474332,42.6252464 14.870346,43.5950516 14.5008964,44.7957628 C14.4547152,44.9343064 14.63944,44.9804876 14.7779836,44.7495816 C15.6092452,43.8259576 16.1172384,43.1332396 16.8561375,42.2096156 C17.6412179,41.1936293 18.5648419,39.8543745 19.5346471,40.5932737 C21.104346,41.7939848 21.6589822,42.1172532 22.998237,43.225602 C23.2753242,43.5026892 24.8454849,44.4263132 25.0297479,44.2877696 C25.4453787,43.9645012 22.5821444,40.7779985 21.4737956,39.5311061 C20.6887152,38.6536633 20.8272588,38.0071265 21.566158,37.6838582 C22.3512384,37.3605898 25.0763909,36.5755094 25.0297479,36.3446034 C24.9835667,36.021335 22.8592316,36.1598786 21.9356076,36.1136974 C21.4276144,36.0675162 19.949816,36.1598786 19.6265476,35.9289726 C19.3494605,35.7442478 19.1647357,35.6518854 18.8876485,34.6820802 L17.7792997,30.1563228 C17.6407561,29.740692 17.4560313,29.509786 17.2713065,30.3410476 C17.1327629,31.1261279 16.9018569,33.4351879 16.8094945,33.9431811 C16.7171321,34.404993 15.9782329,35.8827914 15.9782329,35.8827914 C15.9782329,35.8827914 14.130985,37.2682274 13.669173,37.637677 C13.1154604,38.0994889 11.2220313,39.2540189 11.3143937,39.5772873 Z" id="Shape" fill="#11EBD4"></path>
                            <path d="M6.23446183,30.9414031 C6.32682422,31.4955775 6.51154902,32.4192015 7.43517299,33.3890067 C8.31261577,34.3126306 9.55950814,34.5897178 10.2060449,34.5897178 L10.3445885,34.5897178 C11.0834877,34.5897178 11.4067561,34.4511742 11.5914809,34.404993 L11.7300245,34.404993 C13.715816,34.404993 15.5168828,33.5275503 16.6714127,32.4192015 C17.6412179,31.4955775 18.2877547,30.3872288 18.7033855,29.2326988 C19.0728351,29.27888 19.3961035,29.3250612 19.7193719,29.3250612 C20.5506334,29.3250612 21.3357138,29.1865176 22.1207942,28.9094304 C22.767331,28.6785244 23.460049,28.3090748 24.1065857,27.7087192 C24.3374917,28.0781688 24.5683977,28.4014372 24.7993037,28.6785244 C25.5386647,29.4636048 26.3232833,29.8792356 27.0160013,30.1563228 L27.1083636,30.1563228 C27.893444,30.43341 28.7247056,30.5719536 29.509786,30.5719536 C31.0337655,30.5719536 32.3730203,30.0639604 33.4351879,29.4174236 C34.3126306,28.8632492 35.0515298,28.12435 35.6514236,27.3392696 C35.9751538,28.3090748 36.5750476,29.1403364 37.2677656,29.6483296 C38.3303949,30.4795912 39.5306443,30.8028595 40.6851743,30.8028595 C41.9787096,30.8028595 43.409865,30.3410476 44.564395,29.1865176 C46.8734549,26.8312765 48.2127097,24.2913105 48.2127097,21.612801 C48.2127097,19.996459 47.7047165,18.5648419 47.1500803,17.5026743 C46.5963677,16.4405067 45.9955503,15.6554264 45.5337383,15.0088896 C44.6562955,13.7619972 44.1944836,13.0692792 43.8712152,12.5612861 C43.5484086,12.0532929 43.3175026,11.6376621 42.8556906,10.7140381 C42.8095094,10.6216757 42.76379,10.5754945 42.76379,10.5293133 C44.0573254,9.09769615 44.2420502,7.71226019 44.2882314,6.46536782 C44.2420502,4.89520706 43.8726006,3.14032151 42.117715,1.61634196 L41.9791714,1.47779836 L41.7939848,1.38543596 C40.8241797,0.73889918 39.6239303,0.184724795 38.1913895,0.184724795 C36.714053,0.184724795 35.328617,0.877442776 34.4968936,1.61634196 C34.35835,1.75488555 34.2659876,1.89342915 34.127444,2.03197274 C33.5732697,1.61634196 33.0652765,1.43161716 32.6496457,1.29307356 C32.0035707,1.10834877 31.4493963,1.01598637 30.8490407,1.01598637 C29.9254168,1.01598637 29.0017928,1.15452997 28.0315258,1.61634196 C27.1079018,1.98579154 26.0457343,2.67850953 25.2606539,3.83303949 C24.8912043,2.95559672 24.2908487,2.21669754 23.7366743,1.89342915 L23.5981307,1.80106675 L23.4595871,1.70870435 C22.0741512,0.877442776 20.5039904,0.554174385 19.0723733,0.554174385 C16.9018569,0.554174385 14.8698842,1.24689237 13.1611798,2.40142233 C11.8681063,3.27886511 10.7135763,4.47957628 9.97467711,6.00355583 C9.78995232,5.91119344 9.65140872,5.77264984 9.46668393,5.72646864 C8.63542235,5.35701905 7.98888557,5.31083785 7.43471118,5.26465665 C5.95691282,5.31083785 4.94092645,5.72646864 3.78639648,6.41918662 C2.72422891,7.1119046 1.52351775,8.22025337 1.06170576,10.1136825 L1.01552456,10.3445885 L0.969343361,10.5754945 C0.830799765,11.9147493 0.368987778,13.8081784 0.322806579,16.0710572 C0.322806579,17.0870435 0.415168977,18.2415735 0.876980964,19.3961035 C1.24643055,20.5044522 1.98532973,21.6589822 3.0013161,22.536425 C4.61765806,24.2451293 6.14163762,25.4458405 7.43471118,26.7389141 C7.34234878,26.8774577 7.24998639,27.0621825 7.15762399,27.2930884 C6.8343556,27.9396252 6.46490601,28.4014372 6.23400002,29.7868732 C6.18828063,30.1563228 6.18828063,30.8490407 6.23446183,30.9414031 Z" id="Shape" fill="#11EBD4"></path>
                            <path d="M42.994696,16.9484999 C41.2402723,14.4547152 41.0093663,14.0852656 40.0857423,12.1918365 C39.8548363,11.7300245 39.4392055,11.0834877 39.4392055,10.2984073 C39.4392055,9.69805173 39.6701115,9.05151495 40.5009113,8.26643457 C40.9627233,7.80462258 41.1474481,7.1580858 41.1474481,6.46536782 C41.1474481,5.63410624 40.8703609,4.75666347 40.1776429,4.20248908 C39.5311061,3.6944959 38.9769317,3.5559523 38.4222955,3.5559523 C37.2677656,3.5559523 36.5288664,4.47957628 36.021335,5.49556265 C35.4676224,6.55773022 35.0515298,7.94316618 34.635899,9.19005855 C34.4511742,9.69805173 34.404993,10.2060449 34.404993,10.7140381 C34.4511742,14.5470776 38.6074821,17.5488555 39.4849249,21.1048078 C39.5768255,21.4742574 39.6239303,21.843707 39.6239303,22.1669754 C39.6239303,22.998237 39.3459195,23.8756797 38.9773935,24.8454849 C38.8899435,25.0982095 38.8430284,25.3631785 38.8383881,25.6305653 C38.8383881,26.7850953 39.9010175,27.431632 40.8246415,27.431632 C41.3326347,27.431632 41.9329903,27.2469072 42.301978,26.8312765 C44.2420502,24.8454849 44.9809494,23.1367806 44.9809494,21.612801 C45.07285,19.7655531 43.91832,18.2877547 42.994696,16.9484999 Z M32.7886511,5.63410624 C32.7424699,8.12789097 30.6181348,10.4831321 30.664316,12.6998296 C30.664316,12.8383732 30.664316,13.023098 30.7104971,13.1616416 C31.0799467,16.1634196 34.0817247,19.1190163 34.1279059,22.4902438 C34.1279059,23.3676866 33.8969999,24.2451293 33.3890067,25.1225721 C32.6962887,26.2309209 31.3108527,27.2469072 29.740692,27.2469072 C29.3250612,27.2469072 28.9094304,27.200726 28.4476184,27.0160013 C27.662538,26.6927329 27.0160013,26.1847397 26.9698201,25.2611157 C26.9698201,25.0763909 26.9698201,24.9840285 27.0621825,24.7993037 C27.6163568,23.9218609 28.6323432,23.9680421 28.7708868,23.7371361 C29.27888,23.1367806 29.6021484,22.536425 29.6021484,21.8898882 C29.6021484,21.5666198 29.509786,21.1971702 29.3712424,20.8277206 C28.4014372,18.6572043 27.1545448,16.8561375 26.2771021,14.8241648 C25.8152901,14.0852656 25.6305653,13.3463664 25.6305653,12.6074673 C25.6305653,10.2522261 27.0160013,8.12789097 28.355256,5.77264984 C29.1865176,4.43339508 30.1101416,4.15630788 31.0799467,4.11012669 C31.8650271,4.06394549 32.7424699,4.47957628 32.7886511,5.63410624 Z M17.5026743,8.72824656 C17.7335803,11.3143937 20.0426402,13.1616416 21.612801,15.79397 C22.5826062,17.3641307 23.460049,19.3037411 23.460049,21.2895326 C23.460049,22.536425 23.0905994,23.8294985 22.1669754,25.0302097 C21.612801,25.6305653 20.689177,25.9076525 19.8579154,25.9076525 C19.3961035,25.9076525 18.9804727,25.8152901 18.6110231,25.5843841 C18.2415735,25.3534781 17.9644863,24.9378473 18.0106675,24.4298541 C18.0106675,24.2451293 18.0568487,24.0604045 18.1030299,23.8756797 C18.3805789,22.9520558 18.6114849,22.1669754 18.6114849,21.381895 C18.6114849,20.9662642 18.5648419,20.5506334 18.3805789,20.0888214 C17.2255871,16.4866879 12.7460108,13.6696348 12.6998296,9.69805173 C12.6998296,9.28242094 12.7460108,8.86679015 12.8383732,8.45115937 C13.5310912,5.72646864 16.5328691,3.87922069 19.3499223,3.87922069 C20.2735462,3.87922069 21.1971702,4.11012669 22.074613,4.61811987 C22.3517002,4.80284467 22.536425,5.12611306 22.536425,5.40320025 C22.489782,6.09591823 21.9822506,6.41918662 21.4742574,6.74245501 C20.9662642,7.0657234 20.3659086,7.2966294 19.9040966,7.43517299 C19.1651975,7.71226019 18.1492111,7.89698498 17.7797615,8.12789097 C17.5950367,8.22025337 17.4103119,8.26643457 17.5026743,8.72824656 Z M4.52575747,10.9449441 C4.24867028,12.3765613 4.01776429,14.2238092 3.87922069,16.1172384 C3.7868583,17.6412179 4.24867028,19.1190163 5.54174385,20.1811838 C7.0657234,21.843707 8.86679015,23.1367806 10.4831321,24.9378473 C10.9915871,25.5382029 11.1758501,26.0461961 11.1758501,26.6465517 C11.1758501,27.0160013 11.0834877,27.431632 10.8987629,27.8472628 C10.5754945,28.355256 9.69805173,29.509786 9.65187053,30.3410476 C9.55950814,30.8952219 10.0213201,31.2646715 10.3445885,31.3108527 C10.7140381,31.4032151 11.3605749,31.3570339 11.9147493,31.2646715 C13.8081784,30.8952219 15.3316962,29.3712424 15.7016076,27.7549004 C15.79397,27.3854508 15.79397,27.0160013 15.79397,26.6927329 C15.7016076,22.3978814 10.7140381,20.4120898 9.19005855,17.2255871 C8.86679015,16.5328691 8.72824656,15.7477888 8.72824656,14.870346 C8.72824656,13.715816 8.82060896,12.4689237 8.91297135,11.2682125 C9.05151495,9.83659533 8.82060896,7.89698498 7.0657234,7.94316618 C4.98756946,8.03552858 4.61811987,10.3445885 4.52575747,10.9449441 Z" id="Shape" fill="#3442B0"></path>
                            <path d="M43.456508,51.4920366 C43.5026892,51.4920366 44.9809494,50.9840434 46.3663853,50.9840434 C46.8281973,50.9840434 47.2900093,51.0302246 47.7518213,51.2611306 C48.2598145,51.4920366 48.7673458,52.1847546 48.7216265,52.8312913 L48.5369017,52.8312913 L46.8743785,52.8774725 L46.6896537,53.2007409 C46.6896537,53.2007409 46.6434725,53.2007409 46.5977531,53.1540979 L46.3206659,53.1540979 C45.9050352,53.1540979 45.3042178,53.2464603 44.8424058,53.3388227 C44.3805938,53.4311851 44.0577872,53.5235475 44.0577872,53.5235475 L43.456508,51.4920366 Z" id="Shape" fill="#11EBD4"></path>
                            <path d="M56.9875992,57.7264984 C62.1137123,57.7264984 66.3157396,55.5559821 66.3157396,52.8774725 C66.3157396,50.198963 62.1594317,48.0284467 56.9875992,48.0284467 C51.8614862,48.0284467 47.6585353,49.9218758 47.6585353,52.8774725 C47.6585353,55.8330693 51.8148432,57.7264984 56.9875992,57.7264984 Z" id="Shape" fill-opacity="0.99000001" fill="#11EBD4"></path>
                            <path d="M64.0999656,48.4440775 C62.2056129,47.4742723 59.7127518,46.9200979 56.988061,46.9200979 C54.2633703,46.9200979 51.815305,47.3819099 49.9218758,48.3517151 C48.0284467,49.275339 46.5972913,50.845038 46.5972913,52.8774725 C46.5972913,54.9556265 48.0746279,56.479606 49.9218758,57.40323 C51.815305,58.326854 54.3090897,58.835309 56.988061,58.835309 C59.7127518,58.835309 62.2060747,58.2811346 64.0999656,57.3108676 C65.9472136,56.3410624 67.3788307,54.8632641 67.4245501,52.8774725 C67.3783689,50.891681 65.9472136,49.4138826 64.0999656,48.4440775 Z M63.0373363,55.3250761 C61.5599997,56.1101564 59.3890216,56.6181496 56.9418798,56.6181496 C54.4938145,56.6181496 52.32376,56.1563376 50.8454998,55.4174385 C49.3681632,54.6323581 48.7211647,53.7549153 48.7211647,52.8774725 C48.7211647,51.9538486 49.321982,51.0764058 50.8454998,50.3375066 C52.32376,49.5986074 54.4938145,49.1367954 56.9418798,49.1367954 C59.3428404,49.1367954 61.5599997,49.6447886 63.0373363,50.429869 C64.5617776,51.2149494 65.2073908,52.1847546 65.1616714,52.8774725 C65.2073908,53.5701905 64.5617776,54.5399957 63.0373363,55.3250761 Z" id="Shape" fill="#11EBD4"></path>
                            <path d="M35.4676224,59.2966592 C40.0857423,59.2966592 43.8264194,56.2482382 43.8264194,52.5080229 C43.8264194,48.7673458 40.0857423,45.7193867 35.4676224,45.7193867 C30.8495026,45.7193867 27.1550067,48.7673458 27.1550067,52.5080229 C27.1545448,56.2487 30.8490407,59.2966592 35.4676224,59.2966592 Z" id="Shape" fill-opacity="0.99000001" fill="#11EBD4"></path>
                            <path d="M35.4676224,44.6572192 C30.43341,44.6572192 26.0461961,47.9822655 26.0004767,52.5080229 C26.0466579,57.0337804 30.3876906,60.3588267 35.4676224,60.4050079 C40.5004495,60.4050079 44.8876633,57.0799616 44.9347682,52.5080229 C44.8876633,47.9822655 40.5004495,44.6572192 35.4676224,44.6572192 Z M40.6856361,56.4334248 C39.3930243,57.4955924 37.5457764,58.1421292 35.4676224,58.1421292 C33.3894685,58.1421292 31.5422205,57.4494112 30.2486852,56.4334248 C28.9556116,55.3712573 28.2167124,53.9858213 28.2167124,52.5080229 C28.2167124,51.0302246 28.9556116,49.6447886 30.2486852,48.5826211 C31.5417587,47.5204535 33.3890067,46.8277355 35.4676224,46.8277355 C37.5457764,46.8277355 39.3930243,47.5204535 40.6856361,48.5826211 C41.9791714,49.6447886 42.7176088,51.0302246 42.7176088,52.5080229 C42.7176088,53.9858213 41.9787096,55.3712573 40.6856361,56.4334248 Z" id="Shape" fill="#11EBD4"></path>
                            <path d="M10.9911253,63.8685978 C10.6678569,63.1758799 10.5293133,62.3446183 10.5293133,61.5595379 C10.5293133,60.1279207 10.8987629,58.604403 11.8223869,57.449873 C13.4387288,55.2793567 16.7637751,52.1852164 26.1847397,51.8157668 L26.2771021,54.0324643 C17.2255871,54.4942763 15.0088896,57.0342422 13.5772724,58.7891278 C13.0692792,59.3894834 12.7460108,60.5901945 12.7460108,61.5599997 C12.7460108,62.1141741 12.8383732,62.6221673 12.9769168,62.9454357 C13.1154604,63.2687041 13.2078228,63.2687041 13.254004,63.2687041 L12.792192,65.4392204 C11.9147493,65.2540338 11.3143937,64.5613158 10.9911253,63.8685978 Z" id="Shape" fill="#11EBD4"></path>
                            <path d="M18.0568487,73.6128308 L15.0550708,60.9591823 C15.0550708,60.9591823 10.2060449,62.4369807 11.5452997,68.3019929 C12.8845544,74.1208239 17.5026743,72.2273948 18.0568487,73.6128308 Z" id="Shape" fill="#3442B0"></path>
                            <path d="M13.8081784,72.6430256 C12.1456553,71.7194016 10.8064005,70.1030597 10.6678569,67.9325433 C10.6216757,67.5169125 10.6216757,67.1474629 10.6216757,66.7780134 C10.6216757,65.0231278 11.0373065,63.3144234 12.3303801,61.9289875 C13.5772724,60.4973703 15.563064,59.3890216 18.4724795,58.373497 L19.2113787,60.4978321 C16.4866879,61.4676373 14.870346,62.4374425 14.0390844,63.4072477 C13.2078228,64.3775146 12.9307356,65.346858 12.8845544,66.7784752 C12.8845544,67.0560242 12.8845544,67.3792926 12.9307356,67.7487421 C13.0692792,69.0418157 13.715816,69.9654397 14.9627084,70.6581577 C16.1634196,71.3508756 17.9183051,71.7203252 19.7655531,71.7203252 L20.7815394,71.7203252 L20.920083,73.983204 C20.5506334,74.0293852 20.1350026,74.0293852 19.7655531,74.0293852 C17.5488555,74.0284615 15.4707016,73.5666496 13.8081784,72.6430256 Z" id="Shape" fill="#11EBD4"></path>
                        </g>
                    </g>
                </g>
            </g>
        </g>
    </g>
</svg>