<?xml version="1.0" encoding="UTF-8"?>
<svg width="157px" height="20px" viewBox="0 0 157 20" version="1.1" xmlns="http://www.w3.org/2000/svg" xmlns:xlink="http://www.w3.org/1999/xlink">
    <!-- Generator: Sketch 50.2 (55047) - http://www.bohemiancoding.com/sketch -->
    <title>oracle@2x</title>
    <desc>Created with Sketch.</desc>
    <defs>
        <polygon id="path-1" points="0.217238902 0.00932815589 27.2793574 0.00932815589 27.2793574 19.583812 0.217238902 19.583812"></polygon>
        <polygon id="path-3" points="0 0.465309017 31.8024384 0.465309017 31.8024384 20.0468894 0 20.0468894"></polygon>
        <polygon id="path-5" points="0.0367501433 0.222252107 3.57941532 0.222252107 3.57941532 3.71871224 0.0367501433 3.71871224"></polygon>
    </defs>
    <g id="Official-Landing-page" stroke="none" stroke-width="1" fill="none" fill-rule="evenodd">
        <g id="Landing-Page-1366" transform="translate(-314.000000, -4663.000000)">
            <g id="Comparison" transform="translate(226.569531, 3625.008394)">
                <g id="oracle" transform="translate(12.664570, 1037.468543)">
                    <g transform="translate(74.488614, 0.017764)">
                        <polygon id="Fill-1" fill="#11EBD4" points="112.954246 0.904401115 112.954246 20.4968435 125.169756 20.4968435 126.82495 17.2959118 115.556099 17.2959118 115.556099 0.904401115"></polygon>
                        <g id="Group-19" transform="translate(0.300000, 0.444440)"></g>
                        <g id="Group-4" transform="translate(57.116328, 0.913449)">
                            <mask id="mask-2" fill="white">
                                <use xlink:href="#path-1"></use>
                            </mask>
                            <g id="Clip-3"></g>
                            <path d="M11.9539884,0.961090682 L0.217238902,19.5843133 L4.09745991,19.5843133 L7.63761848,13.9578258 L15.203381,13.9578258 L17.1919525,10.7568941 L9.62618996,10.7568941 L13.7478804,4.30656977 L23.3991364,19.5843133 L27.2793574,19.5843133 L15.4456859,0.912629696 C14.7187711,-0.299730484 12.7778251,-0.299730484 11.9539884,0.961090682" id="Fill-2" fill="#11EBD4" mask="url(#mask-2)"></path>
                        </g>
                        <path d="M91.8148954,4.09965115 L105.272845,4.09965115 L107.258075,0.901226085 L91.7179734,0.910416962 C86.3112314,0.910416962 82.7518555,5.29362958 82.7518555,10.7003716 C82.7518555,16.1079492 86.3112314,20.4919974 91.7179734,20.4919974 L104.863434,20.4761222 L106.92219,17.3019277 L91.8148954,17.3019277 C88.1694595,17.3019277 86.0380117,14.3466431 86.0380117,10.7003716 C86.0380117,7.05493575 88.1694595,4.09965115 91.8148954,4.09965115" id="Fill-5" fill="#11EBD4"></path>
                        <g id="Group-9" transform="translate(0.300000, 0.444440)">
                            <mask id="mask-4" fill="white">
                                <use xlink:href="#path-3"></use>
                            </mask>
                            <g id="Clip-8"></g>
                            <path d="M22.8363205,16.8576552 L8.96561659,16.8576552 C5.32018071,16.8576552 3.18873287,13.9023706 3.18873287,10.2569348 C3.18873287,6.61066334 5.32018071,3.65537874 8.96561659,3.65537874 L22.8363205,3.65537874 C26.4817564,3.65537874 28.6132042,6.61066334 28.6132042,10.2569348 C28.6132042,13.9023706 26.4817564,16.8576552 22.8363205,16.8576552 M22.8363205,0.465309017 L8.96561659,0.465309017 C3.55887454,0.465309017 -0.000501320543,4.84935717 -0.000501320543,10.2569348 C-0.000501320543,15.6628413 3.55887454,20.0468894 8.96561659,20.0468894 L22.8363205,20.0468894 C28.2438981,20.0468894 31.8024384,15.6628413 31.8024384,10.2569348 C31.8024384,4.84935717 28.2438981,0.465309017 22.8363205,0.465309017" id="Fill-7" fill="#11EBD4" mask="url(#mask-4)"></path>
                        </g>
                        <path d="M135.974217,4.09965115 L149.432167,4.09965115 L151.417396,0.901226085 L135.87813,0.910416962 C130.470553,0.910416962 126.911177,5.29362958 126.911177,10.7003716 C126.911177,16.1079492 130.470553,20.4919974 135.87813,20.4919974 L149.023591,20.4761222 L151.081511,17.3019277 L135.974217,17.3019277 C132.862687,17.3019277 130.870774,15.150427 130.3494,12.2527943 L147.299048,12.2527943 L149.335245,9.05186258 L130.3494,9.05186258 C130.904195,6.21522384 132.906135,4.09965115 135.974217,4.09965115" id="Fill-10" fill="#11EBD4"></path>
                        <path d="M50.3429864,12.5369594 C53.5531089,12.5369594 56.1557981,9.93427029 56.1557981,6.72414775 C56.1557981,3.5140252 53.5531089,0.91133605 50.3429864,0.91133605 L34.0233316,0.904651776 L34.0233316,20.4970941 L37.6119512,20.4970941 L37.6119512,4.10057024 L50.3429864,4.10057024 C51.7918027,4.10057024 52.9665639,5.27533138 52.9665639,6.72414775 C52.9665639,8.17296412 51.7918027,9.34772526 50.3429864,9.34772526 L40.134429,9.34772526 L51.6497619,20.4753702 L56.2836348,20.4753702 L48.0394185,12.5436437 L50.3429864,12.5369594 Z" id="Fill-12" fill="#11EBD4"></path>
                        <g id="Group-16" transform="translate(153.037343, 0.444440)">
                            <mask id="mask-6" fill="white">
                                <use xlink:href="#path-5"></use>
                            </mask>
                            <g id="Clip-15"></g>
                            <path d="M1.81309593,3.42711079 C1.01265413,3.42711079 0.388510058,2.80797992 0.388510058,1.9657614 C0.388510058,1.13774697 1.01265413,0.513602896 1.81309593,0.513602896 C2.60351132,0.513602896 3.22849093,1.13774697 3.22849093,1.9657614 C3.22849093,2.80797992 2.60351132,3.42711079 1.81309593,3.42711079 M1.81309593,0.222001447 C0.851396026,0.222001447 0.0367501433,0.962284783 0.0367501433,1.9657614 C0.0367501433,2.9784289 0.851396026,3.71871224 1.81309593,3.71871224 C2.7664405,3.71871224 3.57941532,2.9784289 3.57941532,1.9657614 C3.57941532,0.962284783 2.7664405,0.222001447 1.81309593,0.222001447" id="Fill-14" fill="#11EBD4" mask="url(#mask-6)"></path>
                        </g>
                        <path d="M154.480799,2.2902182 L154.480799,1.66523859 L154.896895,1.66523859 C155.109956,1.66523859 155.336386,1.71202851 155.336386,1.96101771 C155.336386,2.27183645 155.104943,2.2902182 154.845927,2.2902182 L154.480799,2.2902182 Z M155.132516,2.53502974 C155.42913,2.49826623 155.65556,2.34118579 155.65556,1.980235 C155.65556,1.58168517 155.419939,1.40622298 154.943685,1.40622298 L154.175829,1.40622298 L154.175829,3.42320263 L154.480799,3.42320263 L154.480799,2.54923382 L154.832559,2.54923382 L155.364794,3.42320263 L155.706528,3.42320263 L155.132516,2.53502974 Z" id="Fill-17" fill="#11EBD4"></path>
                    </g>
                </g>
            </g>
        </g>
    </g>
</svg>