<?xml version="1.0" encoding="UTF-8"?>
<svg width="89px" height="91px" viewBox="0 0 89 91" version="1.1" xmlns="http://www.w3.org/2000/svg" xmlns:xlink="http://www.w3.org/1999/xlink">
    <!-- Generator: Sketch 50.2 (55047) - http://www.bohemiancoding.com/sketch -->
    <title>bluzelle@2x</title>
    <desc>Created with Sketch.</desc>
    <defs></defs>
    <g id="Official-Landing-page" stroke="none" stroke-width="1" fill="none" fill-rule="evenodd">
        <g id="Landing-Page-1366" transform="translate(-957.000000, -4604.000000)" fill="#FFFFFF">
            <g id="Comparison" transform="translate(226.569531, 3625.008394)">
                <g id="bluzelle" transform="translate(605.935265, 967.275186)">
                    <g id="Group-60">
                        <g id="bluzelle" transform="translate(125.469769, 11.851987)">
                            <path d="M12.5748379,64.7743018 C9.51768875,67.8314148 9.53127463,72.7908045 12.5884238,75.8479898 C15.6455729,78.905139 20.5777909,78.8915531 23.63494,75.8344039 C26.6920892,72.7772187 26.6920892,67.8314148 23.63494,64.7743018 C20.5777909,61.7171527 15.631987,61.7171527 12.5748379,64.7743018" id="Fill-1"></path>
                            <path d="M77.0789793,25.1175105 C80.1360923,22.0603613 80.1360923,17.1145575 77.0789793,14.0574083 C74.0218302,11.0002592 69.0760263,11.0002592 66.0188411,14.0574083 C62.9752778,17.1009716 62.9888998,22.0603613 66.0188411,25.1175105 C69.0760263,28.1746596 74.0218302,28.1746596 77.0789793,25.1175105" id="Fill-3"></path>
                            <path d="M33.4380154,56.167879 C31.9841452,54.7140449 30.8835801,53.0156287 30.1498701,51.1949034 L22.6088733,58.763072 L30.8564084,67.010607 L38.410991,59.4560243 C36.6038517,58.7359002 34.9190213,57.6489211 33.4380154,56.167879" id="Fill-5"></path>
                            <path d="M56.3990233,33.6385048 C57.8664434,35.1059248 58.9534586,36.7907913 59.6735828,38.5978945 L67.2281654,31.0433118 L58.9806304,22.7958129 L51.4260477,30.3503956 C53.2331871,31.0704836 54.9180174,32.1574989 56.3990233,33.6385048" id="Fill-7"></path>
                            <path d="M65.7556904,64.3850987 C62.6985774,67.4422479 62.6985413,72.3880517 65.7556904,75.4452009 C68.7992537,78.4887641 73.7722293,78.4887641 76.8157926,75.4452009 C79.8729417,72.3880517 79.8729417,67.4422479 76.8157926,64.3850987 C73.7586434,61.3279496 68.8128396,61.3279496 65.7556904,64.3850987" id="Fill-9"></path>
                            <path d="M24.4318388,24.4023365 C27.488988,21.3451874 27.488988,16.3993835 24.4318388,13.3422344 C21.3746897,10.2850852 16.4288859,10.2850852 13.3717367,13.3422344 C10.3145876,16.3993835 10.3145876,21.3451874 13.3717367,24.4023365 C16.4288859,27.4594857 21.3746897,27.4594857 24.4318388,24.4023365" id="Fill-11"></path>
                            <path d="M59.0490946,50.885839 C58.3289704,52.6929784 57.2419552,54.3778087 55.7609493,55.8588146 C54.3071151,57.3126849 52.6086989,58.4132499 50.7879737,59.1469599 L58.3561422,66.6879567 L66.6036411,58.4404217 L59.0490946,50.885839 Z" id="Fill-13"></path>
                            <path d="M30.7890029,38.1665391 C31.509127,36.3594358 32.5961061,34.6746055 34.0771482,33.1935635 C35.5309823,31.7397293 37.2293985,30.6391643 39.0365379,29.9190402 L39.0365379,29.919004 L31.4819552,22.3644575 L23.2344202,30.6119564 L30.7890029,38.1665391 Z" id="Fill-15"></path>
                            <path d="M45.0224893,15.6774275 C49.3459441,15.6774275 52.843153,12.1802185 52.843153,7.85676381 C52.843153,3.53327296 49.3459441,0.0360640187 45.0224893,0.0360640187 C40.6990346,0.0360640187 37.2018257,3.53327296 37.2018257,7.85676381 C37.2018257,12.1802185 40.6990346,15.6774275 45.0224893,15.6774275" id="Fill-17"></path>
                            <path d="M45.0224893,74.7333331 C40.6990346,74.7333331 37.2018257,78.230542 37.2018257,82.5539967 C37.2018257,86.8774876 40.6990346,90.3746965 45.0224893,90.3746965 C49.3459441,90.3746965 52.843153,86.8774876 52.843153,82.5539967 C52.843153,78.230542 49.3459441,74.7333331 45.0224893,74.7333331" id="Fill-20"></path>
                            <path d="M47.867901,29.455458 L47.867901,19.7708905 L42.9487631,19.7708905 L42.9487631,29.455458 C43.7557863,29.3209361 44.5628456,29.2440819 45.4083501,29.2440819 C46.2538185,29.2440819 47.0608778,29.3209361 47.867901,29.455458" id="Fill-23"></path>
                            <path d="M42.9487595,71.0687612 L47.8678974,71.0687612 L47.8678974,61.3841937 C47.0608742,61.5186795 46.2538149,61.5955337 45.4083465,61.5955337 C44.562842,61.5955337 43.7557827,61.5186795 42.9487595,61.3841937 L42.9487595,71.0687612 Z" id="Fill-25"></path>
                            <path d="M79.6164178,35.2517888 C75.292927,35.2517888 71.7957542,38.7489977 71.7957542,43.0724525 C71.7957542,47.3959433 75.292927,50.8931522 79.6164178,50.8931522 C83.9398364,50.8931522 87.4370453,47.3959433 87.4370453,43.0724525 C87.4370453,38.7489977 83.9398364,35.2517888 79.6164178,35.2517888" id="Fill-27"></path>
                            <path d="M15.6413526,44.39833 C15.6413526,40.0748752 12.1441437,36.5776663 7.82068896,36.5776663 C3.4971981,36.5776663 -1.08398012e-05,40.0748752 -1.08398012e-05,44.39833 C-1.08398012e-05,48.7217847 3.4971981,52.2189936 7.82068896,52.2189936 C12.1441437,52.2189936 15.6413526,48.7217847 15.6413526,44.39833" id="Fill-29"></path>
                            <path d="M69.4124323,46.8596225 L69.4124323,41.9404845 L59.7278649,41.9404845 C59.8623507,42.7475439 59.9392049,43.5545671 59.9392049,44.4000716 C59.9392049,45.2455399 59.8623507,46.0525993 59.7278649,46.8596225 L69.4124323,46.8596225 Z" id="Fill-32"></path>
                            <path d="M19.9594344,41.9402858 L19.9594344,46.8594599 L29.6440019,46.8594599 C29.5095161,46.0524005 29.4326258,45.2453412 29.4326258,44.3998728 C29.4326258,43.5543683 29.5095161,42.7473451 29.6440019,41.9402858 L19.9594344,41.9402858 Z" id="Fill-34"></path>
                            <path d="M55.8746046,44.9701728 C55.8746046,38.8596685 50.9170215,33.8828989 44.7872946,33.8828989 C38.6575676,33.8828989 33.6999845,38.8404459 33.6999845,44.9701728 C33.6999845,51.0998998 38.6575676,56.0574829 44.7872946,56.0574829 C50.9170215,56.0574829 55.8746046,51.0806772 55.8746046,44.9701728" id="Fill-36"></path>
                        </g>
                    </g>
                </g>
            </g>
        </g>
    </g>
</svg>