<?xml version="1.0" encoding="UTF-8"?>
<svg width="75px" height="86px" viewBox="0 0 75 86" version="1.1" xmlns="http://www.w3.org/2000/svg" xmlns:xlink="http://www.w3.org/1999/xlink">
    <!-- Generator: Sketch 50.2 (55047) - http://www.bohemiancoding.com/sketch -->
    <title>ipfs@2x</title>
    <desc>Created with Sketch.</desc>
    <defs></defs>
    <g id="Official-Landing-page" stroke="none" stroke-width="1" fill="none" fill-rule="evenodd">
        <g id="Landing-Page-1366" transform="translate(-965.000000, -4394.000000)">
            <g id="Comparison" transform="translate(226.569531, 3625.008394)">
                <g id="ipfs" transform="translate(606.835265, 747.081954)">
                    <g transform="translate(132.381855, 22.208299)">
                        <polygon id="Shape" fill="#FFFFFF" fill-rule="nonzero" points="0.0364705853 64.2498356 37.0953556 85.6460344 74.1542405 64.2498356 74.1542405 21.4574379 37.0953556 0.062910716 0.0364705853 21.4591095"></polygon>
                        <path d="M33.2699492,5.21638579 L6.40100394,20.7296329 C6.45470506,21.2067514 6.45470339,21.6883163 6.40100394,22.1654181 L33.2716208,37.6786652 C35.5372777,36.00692 38.6278583,36.00692 40.8935152,37.6786652 L67.764132,22.1652509 C67.7104309,21.6881324 67.7101518,21.2068015 67.7639649,20.7296997 L40.8950196,5.21645265 C38.6293627,6.88819784 35.5386149,6.88819784 33.2727909,5.21645265 L33.2699492,5.21638579 Z" id="Path" fill="#3442B0"></path>
                        <path d="M70.3438784,26.4504415 L43.4448447,42.1365298 C43.75977,44.9345842 42.2143794,47.611115 39.633814,48.7374243 L39.664006,79.5914116 C40.1040489,79.7834592 40.5209739,80.0241163 40.9073257,80.3091872 L67.7779426,64.7961073 C67.4630173,61.9980528 69.0084079,59.3213549 71.5889734,58.1950456 L71.5889734,27.1688858 C71.1489304,26.9768382 70.7317714,26.7361811 70.3454196,26.4511102 L70.3438784,26.4504415 Z" id="Path" fill="#3442B0"></path>
                        <path d="M3.84683271,26.6228648 C3.46049759,26.9079357 3.0435726,27.1488268 2.60351297,27.3408744 L2.60351297,58.3670343 C5.18409513,59.4933101 6.72946903,62.1698743 6.41454372,64.9679288 L33.283489,80.4811759 C33.6698241,80.1961049 34.0869999,79.9552138 34.5270428,79.7631662 L34.5270428,48.7370064 C31.9464606,47.6107305 30.4010867,44.9341664 30.716012,42.1361119 L3.84706673,26.6221962 L3.84683271,26.6228648 Z" id="Path" fill="#3442B0"></path>
                    </g>
                </g>
            </g>
        </g>
    </g>
</svg>