<?xml version="1.0" encoding="UTF-8"?>
<svg width="100px" height="70px" viewBox="0 0 100 70" version="1.1" xmlns="http://www.w3.org/2000/svg" xmlns:xlink="http://www.w3.org/1999/xlink">
    <!-- Generator: Sketch 50.2 (55047) - http://www.bohemiancoding.com/sketch -->
    <title>noia@2x</title>
    <desc>Created with Sketch.</desc>
    <defs></defs>
    <g id="Official-Landing-page" stroke="none" stroke-width="1" fill="none" fill-rule="evenodd">
        <g id="Landing-Page-1366" transform="translate(-953.000000, -4850.000000)" fill="#FFFFFF">
            <g id="Comparison" transform="translate(226.569531, 3625.008394)">
                <g id="CDN" transform="translate(0.564570, 1093.000000)">
                    <g id="noia" transform="translate(726.270695, 132.196387)">
                        <polygon id="Fill-7" points="4.18916607 65.027058 6.23067002 65.027058 6.23067002 33.766529 4.18916607 33.766529"></polygon>
                        <polygon id="Fill-8" points="92.6546771 37.0839729 94.6961811 37.0839729 94.6961811 5.32327526 92.6546771 5.32327526"></polygon>
                        <polygon id="Fill-9" points="48.7194708 50.623227 80.6179699 50.623227 80.6179699 48.581723 48.7194708 48.581723"></polygon>
                        <polygon id="Fill-10" points="5.20991805 50.623227 21.2867616 50.623227 21.2867616 48.581723 5.20991805 48.581723"></polygon>
                        <polygon id="Fill-11" points="5.20991805 35.8794856 93.6754291 35.8794856 93.6754291 33.8379816 5.20991805 33.8379816"></polygon>
                        <polygon id="Fill-12" points="78.4488719 21.1347233 93.6754291 21.1347233 93.6754291 19.0932193 78.4488719 19.0932193"></polygon>
                        <polygon id="Fill-13" points="19.7556336 21.1347233 52.9300725 21.1347233 52.9300725 19.0932193 19.7556336 19.0932193"></polygon>
                        <polygon id="Fill-14" points="77.9099149 50.3537484 79.9514189 50.3537484 79.9514189 17.5620914 77.9099149 17.5620914"></polygon>
                        <polygon id="Fill-15" points="63.1661734 64.3462165 65.2076774 64.3462165 65.2076774 32.873371 63.1661734 32.873371"></polygon>
                        <polygon id="Fill-16" points="48.422432 51.7572823 50.463936 51.7572823 50.463936 18.5828433 48.422432 18.5828433"></polygon>
                        <polygon id="Fill-17" points="33.6776698 35.6804388 35.7191738 35.6804388 35.7191738 2.76118781 33.6776698 2.76118781"></polygon>
                        <polygon id="Fill-18" points="18.9339283 51.4388078 20.9754322 51.4388078 20.9754322 18.4552493 18.9339283 18.4552493"></polygon>
                        <path d="M10.4629118,49.5033599 C10.4629118,46.6136111 8.12028607,44.2720062 5.231558,44.2720062 C2.34180917,44.2720062 0.000204150394,46.6136111 0.000204150394,49.5033599 C0.000204150394,52.3931087 2.34180917,54.7347138 5.231558,54.7347138 C8.12028607,54.7347138 10.4629118,52.3931087 10.4629118,49.5033599" id="Fill-19"></path>
                        <path d="M25.2034889,49.5033599 C25.2034889,46.6136111 22.861884,44.2720062 19.9721351,44.2720062 C17.0823863,44.2720062 14.7407813,46.6136111 14.7407813,49.5033599 C14.7407813,52.3931087 17.0823863,54.7347138 19.9721351,54.7347138 C22.861884,54.7347138 25.2034889,52.3931087 25.2034889,49.5033599" id="Fill-20"></path>
                        <path d="M54.6847453,49.5033599 C54.6847453,46.6136111 52.3431402,44.2720062 49.4533914,44.2720062 C46.5646633,44.2720062 44.2220377,46.6136111 44.2220377,49.5033599 C44.2220377,52.3931087 46.5646633,54.7347138 49.4533914,54.7347138 C52.3431402,54.7347138 54.6847453,52.3931087 54.6847453,49.5033599" id="Fill-21"></path>
                        <path d="M69.4258327,49.5033599 C69.4258327,46.6136111 67.0842278,44.2720062 64.1944789,44.2720062 C61.3047301,44.2720062 58.963125,46.6136111 58.963125,49.5033599 C58.963125,52.3931087 61.3047301,54.7347138 64.1944789,54.7347138 C67.0842278,54.7347138 69.4258327,52.3931087 69.4258327,49.5033599" id="Fill-22"></path>
                        <path d="M84.1664099,49.5033599 C84.1664099,46.6136111 81.8248048,44.2720062 78.935056,44.2720062 C76.0453072,44.2720062 73.7037023,46.6136111 73.7037023,49.5033599 C73.7037023,52.3931087 76.0453072,54.7347138 78.935056,54.7347138 C81.8248048,54.7347138 84.1664099,52.3931087 84.1664099,49.5033599" id="Fill-23"></path>
                        <path d="M10.4629118,64.2299528 C10.4629118,61.3402039 8.12028607,58.9985988 5.231558,58.9985988 C2.34180917,58.9985988 0.000204150394,61.3402039 0.000204150394,64.2299528 C0.000204150394,67.1197016 2.34180917,69.4613065 5.231558,69.4613065 C8.12028607,69.4613065 10.4629118,67.1197016 10.4629118,64.2299528" id="Fill-24"></path>
                        <path d="M69.4258327,64.2299528 C69.4258327,61.3402039 67.0842278,58.9985988 64.1944789,58.9985988 C61.3047301,58.9985988 58.963125,61.3402039 58.963125,64.2299528 C58.963125,67.1197016 61.3047301,69.4613065 64.1944789,69.4613065 C67.0842278,69.4613065 69.4258327,67.1197016 69.4258327,64.2299528" id="Fill-25"></path>
                        <path d="M10.4629118,34.7766649 C10.4629118,31.8879369 8.12028607,29.5453112 5.231558,29.5453112 C2.34180917,29.5453112 0.000204150394,31.8879369 0.000204150394,34.7766649 C0.000204150394,37.6664138 2.34180917,40.0080189 5.231558,40.0080189 C8.12028607,40.0080189 10.4629118,37.6664138 10.4629118,34.7766649" id="Fill-26"></path>
                        <path d="M25.2034889,34.7766649 C25.2034889,31.8879369 22.861884,29.5453112 19.9721351,29.5453112 C17.0823863,29.5453112 14.7407813,31.8879369 14.7407813,34.7766649 C14.7407813,37.6664138 17.0823863,40.0080189 19.9721351,40.0080189 C22.861884,40.0080189 25.2034889,37.6664138 25.2034889,34.7766649" id="Fill-27"></path>
                        <path d="M39.9441681,34.7766649 C39.9441681,31.8879369 37.6025632,29.5453112 34.7128143,29.5453112 C31.8230655,29.5453112 29.4814604,31.8879369 29.4814604,34.7766649 C29.4814604,37.6664138 31.8230655,40.0080189 34.7128143,40.0080189 C37.6025632,40.0080189 39.9441681,37.6664138 39.9441681,34.7766649" id="Fill-28"></path>
                        <path d="M54.6847453,34.7766649 C54.6847453,31.8879369 52.3431402,29.5453112 49.4533914,29.5453112 C46.5646633,29.5453112 44.2220377,31.8879369 44.2220377,34.7766649 C44.2220377,37.6664138 46.5646633,40.0080189 49.4533914,40.0080189 C52.3431402,40.0080189 54.6847453,37.6664138 54.6847453,34.7766649" id="Fill-29"></path>
                        <path d="M69.4258327,34.7766649 C69.4258327,31.8879369 67.0842278,29.5453112 64.1944789,29.5453112 C61.3047301,29.5453112 58.963125,31.8879369 58.963125,34.7766649 C58.963125,37.6664138 61.3047301,40.0080189 64.1944789,40.0080189 C67.0842278,40.0080189 69.4258327,37.6664138 69.4258327,34.7766649" id="Fill-30"></path>
                        <path d="M84.1664099,34.7766649 C84.1664099,31.8879369 81.8248048,29.5453112 78.935056,29.5453112 C76.0453072,29.5453112 73.7037023,31.8879369 73.7037023,34.7766649 C73.7037023,37.6664138 76.0453072,40.0080189 78.935056,40.0080189 C81.8248048,40.0080189 84.1664099,37.6664138 84.1664099,34.7766649" id="Fill-31"></path>
                        <path d="M98.906987,34.7766649 C98.906987,31.8879369 96.5653819,29.5453112 93.675633,29.5453112 C90.786905,29.5453112 88.4442793,31.8879369 88.4442793,34.7766649 C88.4442793,37.6664138 90.786905,40.0080189 93.675633,40.0080189 C96.5653819,40.0080189 98.906987,37.6664138 98.906987,34.7766649" id="Fill-32"></path>
                        <path d="M25.2034889,20.0505826 C25.2034889,17.1608338 22.861884,14.8192287 19.9721351,14.8192287 C17.0823863,14.8192287 14.7407813,17.1608338 14.7407813,20.0505826 C14.7407813,22.9403314 17.0823863,25.2819365 19.9721351,25.2819365 C22.861884,25.2819365 25.2034889,22.9403314 25.2034889,20.0505826" id="Fill-33"></path>
                        <path d="M39.9441681,20.0505826 C39.9441681,17.1608338 37.6025632,14.8192287 34.7128143,14.8192287 C31.8230655,14.8192287 29.4814604,17.1608338 29.4814604,20.0505826 C29.4814604,22.9403314 31.8230655,25.2819365 34.7128143,25.2819365 C37.6025632,25.2819365 39.9441681,22.9403314 39.9441681,20.0505826" id="Fill-34"></path>
                        <path d="M54.6847453,20.0505826 C54.6847453,17.1608338 52.3431402,14.8192287 49.4533914,14.8192287 C46.5646633,14.8192287 44.2220377,17.1608338 44.2220377,20.0505826 C44.2220377,22.9403314 46.5646633,25.2819365 49.4533914,25.2819365 C52.3431402,25.2819365 54.6847453,22.9403314 54.6847453,20.0505826" id="Fill-35"></path>
                        <g id="Fill-36-Clipped" transform="translate(73.404270, 14.492235)">
                            <path d="M10.7621399,5.55834759 C10.7621399,2.66859876 8.4205348,0.326993738 5.53078597,0.326993738 C2.64103714,0.326993738 0.299432255,2.66859876 0.299432255,5.55834759 C0.299432255,8.44809637 2.64103714,10.7897015 5.53078597,10.7897015 C8.4205348,10.7897015 10.7621399,8.44809637 10.7621399,5.55834759" id="Fill-36"></path>
                        </g>
                        <g id="Fill-37-Clipped" transform="translate(87.896505, 14.492235)">
                            <path d="M11.010482,5.55834759 C11.010482,2.66859876 8.66887684,0.326993738 5.77912801,0.326993738 C2.89039995,0.326993738 0.547774297,2.66859876 0.547774297,5.55834759 C0.547774297,8.44809637 2.89039995,10.7897015 5.77912801,10.7897015 C8.66887684,10.7897015 11.010482,8.44809637 11.010482,5.55834759" id="Fill-37"></path>
                        </g>
                        <g id="Fill-38-Clipped" transform="translate(28.916834, 0.000000)">
                            <path d="M11.0273344,5.32388772 C11.0273344,2.43413889 8.68572952,0.0925338677 5.7959807,0.0925338677 C2.90623187,0.0925338677 0.564626757,2.43413889 0.564626757,5.32388772 C0.564626757,8.21363655 2.90623187,10.5552415 5.7959807,10.5552415 C8.68572952,10.5552415 11.0273344,8.21363655 11.0273344,5.32388772" id="Fill-38"></path>
                        </g>
                        <path d="M98.906987,5.32388772 C98.906987,2.43413889 96.5653819,0.0925338677 93.675633,0.0925338677 C90.786905,0.0925338677 88.4442793,2.43413889 88.4442793,5.32388772 C88.4442793,8.21363655 90.786905,10.5552415 93.675633,10.5552415 C96.5653819,10.5552415 98.906987,8.21363655 98.906987,5.32388772" id="Fill-39"></path>
                    </g>
                </g>
            </g>
        </g>
    </g>
</svg>