<?xml version="1.0" encoding="UTF-8"?>
<svg width="105px" height="86px" viewBox="0 0 105 86" version="1.1" xmlns="http://www.w3.org/2000/svg" xmlns:xlink="http://www.w3.org/1999/xlink">
    <!-- Generator: Sketch 50.2 (55047) - http://www.bohemiancoding.com/sketch -->
    <title>pnlogo@2x</title>
    <desc>Created with Sketch.</desc>
    <defs></defs>
    <g id="Official-Landing-page" stroke="none" stroke-width="1" fill="none" fill-rule="evenodd">
        <g id="Landing-Page-1366" transform="translate(-943.000000, -3954.000000)" fill="#FFFFFF">
            <g id="Comparison" transform="translate(226.569531, 3625.008394)">
                <g id="portalnetwork" transform="translate(619.835265, 329.362272)">
                    <g id="pnlogo" transform="translate(96.739885, 0.468543)">
                        <path d="M66.8534512,73.5252038 C73.6496987,73.5252038 79.1175888,71.3905642 82.6609051,67.346797 C86.1362589,63.3864382 87.4677056,57.9648862 86.5193201,51.6660004 C86.4204656,51.0172677 85.7377517,50.3252861 84.9963429,50.1183095 C84.2487556,49.9113329 83.723591,50.2696805 83.8224456,50.9184132 C84.6997793,56.7230264 83.4671872,61.7213575 80.2636832,65.372796 C76.9983952,69.0952861 71.9599044,71.0631087 65.6949999,71.0631087 C58.1357191,71.0631087 49.6187853,68.1685251 41.7196922,62.9076117 C41.0060862,62.4349635 40.2337853,62.4504095 39.9928275,62.9354145 C39.7487804,63.4235086 40.1256632,64.2019879 40.83618,64.6777252 C49.4118087,70.3803947 58.6485269,73.5252038 66.8534512,73.5252038" id="Fill-1"></path>
                        <path d="M84.2873707,47.2611053 C84.3460655,47.2672837 84.398582,47.2703729 84.4541877,47.2703729 C85.0596715,47.2703729 85.3778595,46.8193492 85.1677936,46.2015085 C84.7105915,44.8515266 84.1514457,43.4706527 83.5088914,42.1021356 C83.1876143,41.4225108 82.378243,40.8726326 81.6986182,40.8726326 C81.0189935,40.8726326 80.7255191,41.4225108 81.0467963,42.1021356 C81.6399233,43.3656197 82.1558203,44.6383716 82.5790412,45.8833205 C82.8076422,46.5567669 83.5737647,47.1746076 84.2873707,47.2611053" id="Fill-3"></path>
                        <path d="M20.4020261,33.6312309 C19.4474623,27.8266176 20.65843,22.6058639 23.8125067,18.9389794 C27.0777947,15.1485268 32.1471775,13.1436338 38.4738661,13.1436338 C46.3853161,13.1436338 55.2451515,16.2729968 63.4222729,21.9571311 C64.1266113,22.4452253 64.911269,22.4575821 65.1769405,21.984934 C65.442612,21.5122858 65.0873536,20.7338066 64.3861044,20.2457124 C55.5139122,14.0765732 45.9003112,10.6815387 37.3185041,10.6815387 C30.4512049,10.6815387 24.9524228,12.8563379 21.4121957,16.9711568 C17.9862691,20.9500508 16.6733576,26.6125607 17.7082408,32.9114465 C17.8163629,33.5632684 18.5052552,34.2490715 19.2497533,34.4498698 C19.3856782,34.483851 19.5154248,34.5023862 19.6328145,34.5023862 C20.1610683,34.5023862 20.4885238,34.1594846 20.4020261,33.6312309" id="Fill-5"></path>
                        <path d="M19.8833489,36.9450194 C19.1697429,36.8554325 18.7743249,37.3311698 19.0029259,38.0046161 C19.460128,39.354598 20.0192738,40.735472 20.6618281,42.1008999 C20.9831053,42.7836138 21.7924766,43.333492 22.4721013,43.333492 C23.1517261,43.333492 23.4452004,42.7836138 23.1239233,42.1008999 C22.5307962,40.8405049 22.0148992,39.5677531 21.5916784,38.3228041 C21.3630773,37.6493577 20.5969549,37.0315171 19.8833489,36.9450194" id="Fill-7"></path>
                        <path d="M30.9368276,8.27782948 C30.9986117,8.27782948 31.0573066,8.27474028 31.1129122,8.26547267 C32.6636923,8.01833639 34.3102378,7.89167905 36.0062104,7.89167905 C36.6858352,7.89167905 36.9793095,7.34180084 36.6611216,6.66217609 C36.3398444,5.98255134 35.5304731,5.42958393 34.8508484,5.42958393 C33.0313076,5.42958393 31.2673724,5.56550888 29.605381,5.83118037 C28.9813619,5.93003488 28.8114557,6.55405397 29.2284981,7.22750032 C29.605381,7.83916259 30.3375222,8.27782948 30.9368276,8.27782948" id="Fill-9"></path>
                        <path d="M12.5026241,19.7613253 C10.5718719,26.2146713 11.5758631,33.940769 15.4126537,42.1024445 C20.0464588,51.9631818 28.2544723,61.215346 38.5229845,68.1598753 C38.8751537,68.3946548 39.2427689,68.5151337 39.5578676,68.5151337 C39.8729664,68.5151337 40.1324595,68.3915656 40.2591168,68.1506077 C40.5093423,67.6656028 40.1417271,66.8871235 39.4342995,66.408297 C29.8546797,59.9333266 22.1965444,51.3020923 17.8747488,42.1024445 C14.2974513,34.487558 13.3552442,27.2835357 15.159339,21.2626782 C16.9047389,15.4302622 21.2327129,11.1331802 27.3462465,9.15917922 C27.9146599,8.97382701 27.976444,8.29729146 27.4883499,7.64238034 C26.9940773,6.98746921 26.138368,6.60440799 25.5668653,6.78667099 C19.0115757,8.90586454 14.3715921,13.5118668 12.5026241,19.7613253" id="Fill-11"></path>
                        <path d="M73.0587341,75.940343 C71.507954,76.1905685 69.8614085,76.3141367 68.1654359,76.3141367 C67.4827219,76.3141367 67.1923368,76.8640149 67.5105247,77.5436396 C67.8318019,78.2232644 68.6411732,78.7731426 69.320798,78.7731426 C71.1372496,78.7731426 72.9042739,78.6403068 74.5631762,78.3746353 C75.1871952,78.2757808 75.3601906,77.6486725 74.9431482,76.9783154 C74.5291949,76.304869 73.6827532,75.8414885 73.0587341,75.940343" id="Fill-13"></path>
                        <path d="M91.7796157,64.0614291 C93.5559077,57.6853133 92.5117569,50.0920513 88.7552856,42.1033712 C84.1214805,32.2426339 75.9165562,22.9904697 65.6511332,16.0490296 C64.9437056,15.5732923 64.1652264,15.5763815 63.9150009,16.0582972 C63.6616862,16.5402129 64.0323906,17.3217814 64.7398182,17.7975187 C74.319438,24.2724891 81.9744841,32.9037235 86.2962797,42.1033712 C89.7994363,49.5545299 90.7725354,56.6380733 89.1167224,62.5847899 C87.5134258,68.3399759 83.4140529,72.6741283 77.5816368,74.7871434 C77.0286694,74.9879416 76.9885098,75.676834 77.4951391,76.3255667 C77.9060032,76.8538205 78.5516467,77.1936329 79.0768113,77.1936329 C79.1972902,77.1936329 79.3115907,77.1750976 79.4166236,77.1380272 C85.6691714,74.8705519 90.0589294,70.2274792 91.7796157,64.0614291" id="Fill-15"></path>
                        <path d="M12.6261922,42.1021356 C12.3049151,41.4225108 11.4955438,40.8726326 10.8190082,40.8726326 C10.1362943,40.8726326 9.84590914,41.4225108 10.1640971,42.1021356 C14.3005405,50.8970977 20.9485062,59.315177 29.3974776,66.4481477 C29.7959848,66.7848709 30.2593653,66.9640447 30.6424265,66.9640447 C30.8895628,66.9640447 31.1027179,66.8899038 31.2479104,66.7354436 C31.6155256,66.3400256 31.3807462,65.5708139 30.725835,65.0178465 C22.7773146,58.3050075 16.5185885,50.3812007 12.6261922,42.1021356" id="Fill-17"></path>
                        <path d="M42.5621179,73.2885708 C40.0629524,71.8675372 37.6008572,70.2735083 35.2376166,68.5559112 C34.5456351,68.0492818 33.7455314,68.0122114 33.4582355,68.4663243 C33.1678503,68.9235264 33.4922167,69.7020057 34.1872875,70.2055458 C36.6957206,72.031265 39.3122759,73.7241485 41.9659017,75.2316798 C42.2717328,75.4077644 42.577564,75.4911729 42.8432355,75.4911729 C43.2077615,75.4911729 43.4950574,75.3274451 43.5908227,75.0154355 C43.7545505,74.4779141 43.2942592,73.7056133 42.5621179,73.2885708" id="Fill-19"></path>
                        <path d="M70.6303113,81.5620754 C63.4324673,81.5620754 55.4715901,79.6066097 47.6064782,75.905744 C46.8619802,75.556664 46.191623,75.7420162 46.114393,76.3258756 C46.0371629,76.9066459 46.5777735,77.6635007 47.3253607,78.0156699 C55.6847451,81.9451366 64.1429841,84.0210813 71.7887626,84.0210813 C72.4652981,84.0210813 72.7587724,83.4712031 72.4374953,82.7915784 C72.1193073,82.1119536 71.309936,81.5620754 70.6303113,81.5620754" id="Fill-21"></path>
                        <path d="M80.3835443,25.816164 C85.1192932,30.9442417 88.8757645,36.4244886 91.5448363,42.1024445 C91.8630242,42.7820692 92.6754847,43.3319474 93.3520203,43.3319474 C94.031645,43.3319474 94.3251193,42.7820692 94.0069314,42.1024445 C91.1710427,36.0723194 87.1797918,30.249171 82.1474795,24.7998161 C77.2850733,19.5358135 71.7059719,14.8927408 65.5739031,11.0003445 C64.8541187,10.5431423 64.0941747,10.583302 63.8748412,11.0868421 C63.6555078,11.5903823 64.0601935,12.3688616 64.7799778,12.8229745 C70.5567882,16.4898589 75.8053448,20.8610818 80.3835443,25.816164" id="Fill-23"></path>
                        <path d="M53.3530144,6.8855255 C55.5401704,7.78139449 57.7427725,8.81936684 59.8990364,9.97472892 C60.1894216,10.1291891 60.4736283,10.20333 60.7238538,10.20333 C61.106915,10.20333 61.4003893,10.0241562 61.4837978,9.6905222 C61.6166335,9.13755479 61.1285394,8.36525394 60.3902198,7.9729251 C58.0980309,6.74651135 55.7564147,5.64366573 53.4333337,4.69219107 C52.6826573,4.38327073 52.0586382,4.6273178 52.0339245,5.23280167 C52.0123001,5.83828554 52.602338,6.57969436 53.3530144,6.8855255" id="Fill-25"></path>
                        <path d="M33.5404083,2.64404921 C37.9023635,2.64404921 42.5145442,3.35147679 47.2564715,4.74161833 C47.4078424,4.78795638 47.553035,4.8095808 47.6858707,4.8095808 C48.1986785,4.8095808 48.5230449,4.48521444 48.4581716,3.97549588 C48.3747631,3.32985236 47.7013167,2.63169239 46.9537295,2.41235895 C41.9152387,0.932630512 37.0157621,0.181954081 32.3850462,0.181954081 C31.7054214,0.181954081 31.4119471,0.734921493 31.7332243,1.41454625 C32.0514122,2.094171 32.8607835,2.64404921 33.5404083,2.64404921" id="Fill-27"></path>
                        <path d="M2.45529888,14.1819151 C2.77039763,14.3672673 3.08549637,14.453765 3.35734628,14.453765 C3.71569387,14.453765 3.99990059,14.2993048 4.0987551,13.9996521 C5.75456813,9.11871065 8.73256022,5.1892439 12.9524121,2.32555233 C13.4096142,2.01354279 13.2984029,1.27213397 12.7021866,0.666650098 C12.1090596,0.0642554311 11.2564394,-0.173613232 10.7961481,0.138396313 C6.34769518,3.15963726 3.20597531,7.30225904 1.45748617,12.4488719 C1.28140158,12.9771257 1.72624687,13.7525158 2.45529888,14.1819151" id="Fill-29"></path>
                        <path d="M1.29962788,21.8443752 C1.52822893,21.9401405 1.74447317,21.9864786 1.93909299,21.9864786 C2.38084907,21.9864786 2.69594782,21.7455207 2.71757225,21.3284782 C2.78244552,20.1391349 2.91837047,18.9621484 3.11916869,17.8315 C3.2211124,17.2599973 2.70212623,16.5000533 1.95762821,16.1293489 C1.21313018,15.7586445 0.527327024,15.9223723 0.425383311,16.4938749 C0.212228275,17.6863074 0.073214121,18.9281672 0.00216244239,20.1823838 C-0.0318187952,20.7847784 0.548951447,21.5292765 1.29962788,21.8443752" id="Fill-31"></path>
                        <path d="M101.715421,70.0242096 C100.986369,69.5978995 100.251138,69.6782188 100.071964,70.2064726 C98.4161514,75.087414 95.4381593,79.0168807 91.2183075,81.8805723 C90.7611054,82.1925818 90.8723167,82.9339907 91.4685329,83.5394745 C91.8824862,83.9626954 92.4292752,84.2067425 92.8772097,84.2067425 C93.0656511,84.2067425 93.2355573,84.1634936 93.3745714,84.0677283 C97.8230244,81.0464874 100.964744,76.9038656 102.713233,71.7572527 C102.889318,71.2289989 102.444473,70.4536088 101.715421,70.0242096" id="Fill-33"></path>
                        <path d="M102.876961,62.0117427 C102.126285,61.6997331 101.496087,61.9376018 101.468284,62.5430857 C101.40959,63.8498187 101.267486,65.1380165 101.051242,66.3736979 C100.946209,66.9452005 101.468284,67.7051446 102.212782,68.075849 C102.484632,68.2086847 102.747215,68.273558 102.975816,68.273558 C103.377412,68.273558 103.680154,68.075849 103.745027,67.711323 C103.976718,66.4076791 104.124999,65.0484296 104.186783,63.6706449 C104.214586,63.065161 103.627638,62.3237522 102.876961,62.0117427" id="Fill-36"></path>
                        <path d="M40.9421397,18.3931172 C54.0156485,18.3931172 69.650107,29.0292445 75.7945326,42.1027534 C81.9389582,55.1762623 76.301162,65.8123896 63.2276531,65.8123896 C50.1541443,65.8123896 34.5196858,55.1762623 28.3752602,42.1027534 C22.2308346,29.0292445 27.8686308,18.3931172 40.9421397,18.3931172 M64.3861044,68.2744848 C78.8157736,68.2744848 85.0374293,56.5324226 78.2566278,42.1027534 C71.4758263,27.669995 54.2164468,15.931022 39.7867776,15.931022 C25.3571084,15.931022 19.1323635,27.669995 25.913165,42.1027534 C32.6970557,56.5324226 49.953346,68.2744848 64.3861044,68.2744848" id="Fill-39"></path>
                        <path d="M8.53855825,19.2726134 C8.91853027,19.2726134 9.20891539,19.099618 9.29541309,18.7690732 C10.1542116,15.5223204 11.6679213,12.6648073 13.7963825,10.276853 C14.1547301,9.87525657 13.910683,9.10604492 13.2526827,8.55616671 C12.5915931,8.0093777 11.7667758,7.89198797 11.4084282,8.29358442 C9.14713132,10.8298204 7.54074554,13.8634182 6.62634133,17.3140584 C6.48114877,17.8608474 6.96306451,18.6300591 7.69829492,19.0347447 C7.99485845,19.1953833 8.28524357,19.2726134 8.53855825,19.2726134" id="Fill-41"></path>
                        <path d="M94.8762332,65.4358157 C93.977275,68.8277611 92.3708893,71.787218 90.0972355,74.2307779 C89.7296203,74.6261959 89.9643998,75.3954076 90.6193109,75.948375 C91.014729,76.2850981 91.4781095,76.4642719 91.8611707,76.4642719 C92.108307,76.4642719 92.3245512,76.3901311 92.4697438,76.2356709 C94.8824116,73.6376508 96.5907411,70.4928417 97.545305,66.8908305 C97.6904975,66.3440415 97.2085818,65.5748299 96.4733514,65.1732334 C95.7350318,64.7685478 95.0214258,64.8859375 94.8762332,65.4358157" id="Fill-43"></path>
                    </g>
                </g>
            </g>
        </g>
    </g>
</svg>