<?xml version="1.0" encoding="UTF-8"?>
<svg width="85px" height="77px" viewBox="0 0 85 77" version="1.1" xmlns="http://www.w3.org/2000/svg" xmlns:xlink="http://www.w3.org/1999/xlink">
    <!-- Generator: Sketch 50.2 (55047) - http://www.bohemiancoding.com/sketch -->
    <title>qtu@2x</title>
    <desc>Created with Sketch.</desc>
    <defs></defs>
    <g id="Official-Landing-page" stroke="none" stroke-width="1" fill="none" fill-rule="evenodd">
        <g id="Landing-Page-1366" transform="translate(-963.000000, -4169.000000)" fill="#FFFFFF">
            <g id="Comparison" transform="translate(226.569531, 3625.008394)">
                <g id="OSwqe" transform="translate(619.835265, 544.184292)">
                    <path d="M123.050305,39.0034427 L125.805671,39.0034427 C126.07794,39.8674441 126.735536,40.5577117 127.576718,40.8792488 L126.582027,54.9693174 L121.936853,40.528151 C122.457017,40.1583833 122.854271,39.6262912 123.050305,39.0034427 Z M126.598104,21.2032504 L127.529525,35.3612566 C126.711161,35.6900543 126.072754,36.3720242 125.805671,37.2199488 L123.050305,37.2199488 C122.854271,36.5971002 122.457017,36.0650081 121.936853,35.6947218 L126.598104,21.2032504 Z M190.174294,37.2199488 L187.563102,37.2199488 C187.289795,36.3517985 186.627014,35.6589378 185.780645,35.3394751 L186.530553,21.7503821 L191.07045,35.8648253 C190.657119,36.2205906 190.342324,36.6868194 190.174294,37.2199488 Z M175.473305,57.8066234 C175.580657,57.8180328 175.689565,57.8252933 175.800547,57.8252933 C176.655732,57.8252933 177.42431,57.4612303 177.965737,56.8819448 L184.077535,59.799635 L170.041402,70.1002329 L175.473305,57.8066234 Z M147.733467,71.188273 L155.741297,60.2544545 C156.039497,60.3550645 156.35896,60.41263 156.691387,60.41263 C157.01448,60.41263 157.324608,60.3592134 157.615547,60.2637894 L165.439791,71.1649357 C165.241682,71.4294259 165.085063,71.7260698 164.982897,72.0481256 L148.172728,72.0481256 C148.074192,71.7354048 147.922759,71.44654 147.733467,71.188273 Z M130.144348,59.2452428 L135.385403,56.8461608 C135.928386,57.4461906 136.710447,57.8252933 137.582746,57.8252933 C137.682838,57.8252933 137.781373,57.8201072 137.87939,57.8102536 L143.266693,70.3616114 L129.930163,60.5739172 C130.073817,60.2254124 130.154201,59.8442353 130.154201,59.4443883 C130.154201,59.3769693 130.148497,59.311106 130.144348,59.2452428 Z M129.330651,41.3548126 L135.461639,52.7901254 C134.939919,53.3242919 134.617344,54.0539738 134.617344,54.8598911 C134.617344,54.9838385 134.627198,55.1051928 134.642237,55.2249913 L129.494532,57.5810288 C129.168846,57.1791073 128.739957,56.8658679 128.248316,56.6776131 L129.330651,41.3548126 Z M129.414147,18.553162 L134.636014,20.8563014 C134.624086,20.9631347 134.617344,21.0715239 134.617344,21.1814688 C134.617344,21.9920536 134.943549,22.7258843 135.470455,23.2610881 L129.287607,34.9188838 L128.264393,19.3585607 C128.709877,19.1843083 129.102982,18.9063343 129.414147,18.553162 Z M137.889763,18.2321435 C137.789153,18.2217713 137.686468,18.2160666 137.582746,18.2160666 C136.695926,18.2160666 135.901418,18.6076159 135.357917,19.2252784 L130.135531,16.9221389 C130.147459,16.8153056 130.154201,16.7069165 130.154201,16.5969715 C130.154201,16.2505412 130.09145,15.9196691 129.982542,15.6110972 L143.248542,5.87526379 L137.889763,18.2321435 Z M165.430456,5.04445331 L157.631106,15.7832751 C157.335499,15.6847396 157.020185,15.6287299 156.691387,15.6287299 C156.352736,15.6287299 156.028606,15.6883698 155.725739,15.7931287 L147.742801,5.02163455 C147.928463,4.76647927 148.075748,4.48228193 148.172728,4.17474721 L164.982897,4.17474721 C165.083507,4.49161688 165.237015,4.78359335 165.430456,5.04445331 Z M182.979642,16.951181 L178.00567,19.2034968 C177.462687,18.5987995 176.676995,18.2160666 175.800547,18.2160666 C175.685935,18.2160666 175.573397,18.2238458 175.462414,18.236811 L170.062665,6.1381982 L183.094254,15.7023723 C183.005053,15.9844952 182.956823,16.285288 182.956823,16.5969715 C182.956823,16.7167701 182.965639,16.8344941 182.979642,16.951181 Z M184.021526,34.8499089 L177.908171,23.2657555 C178.438189,22.7300332 178.765949,21.994128 178.765949,21.1814688 C178.765949,21.0616703 178.756614,20.9439462 178.742612,20.827778 L183.716584,18.5749436 C184.031379,18.9255228 184.427596,19.1993479 184.876192,19.3689329 L184.021526,34.8499089 Z M177.917506,52.7859765 L184.004412,41.3760756 L184.841445,58.1878005 L178.733796,55.2721847 C178.752465,55.1368279 178.765949,55.0004339 178.765949,54.8598911 C178.765949,54.052418 178.441819,53.3206617 177.917506,52.7859765 Z M131.46265,39.0034427 L142.515749,39.0034427 C142.674961,39.5075299 142.966419,39.9514586 143.347596,40.2994448 L137.961849,51.9214565 C137.837383,51.9053797 137.71188,51.8944889 137.582746,51.8944889 C137.39501,51.8944889 137.211942,51.914196 137.03354,51.9473869 L130.736598,40.202465 C131.066433,39.8705557 131.317958,39.4608552 131.46265,39.0034427 Z M137.046506,24.0960474 C137.220758,24.1276825 137.399678,24.146871 137.582746,24.146871 C137.707731,24.146871 137.829085,24.1364988 137.949403,24.1219778 L143.356413,35.9156489 C142.971087,36.2646723 142.675998,36.7117126 142.515749,37.2199488 L131.46265,37.2199488 C131.316921,36.7578688 131.061766,36.3450566 130.727264,36.0110728 L137.046506,24.0960474 Z M181.906122,37.2199488 L170.640395,37.2199488 C170.483775,36.7220848 170.196985,36.2833422 169.823068,35.9374305 L175.401219,24.1167917 C175.531908,24.1344244 175.664672,24.146871 175.800547,24.146871 C175.981541,24.146871 176.158387,24.1276825 176.330565,24.096566 L182.626469,36.0271497 C182.299228,36.3580218 182.049777,36.7651293 181.906122,37.2199488 Z M156.041571,21.4858919 C156.251608,21.5325666 156.468386,21.5595343 156.691387,21.5595343 C156.906091,21.5595343 157.11509,21.5356783 157.31631,21.4921152 L165.638418,36.0987176 C165.344367,36.4166245 165.116698,36.7967644 164.982897,37.2199488 L148.172728,37.2199488 C148.042038,36.8050621 147.821111,36.4316642 147.53484,36.1179061 L156.041571,21.4858919 Z M157.328238,54.5518378 C157.12287,54.5072374 156.91024,54.4818256 156.691387,54.4818256 C156.464237,54.4818256 156.24331,54.5098305 156.030162,54.5585797 L147.543137,40.0961503 C147.824742,39.7839481 148.043076,39.4141804 148.172728,39.0034427 L164.983415,39.0034427 C165.115142,39.4229968 165.340218,39.7995064 165.63012,40.1158574 L157.328238,54.5518378 Z M172.880782,21.6860747 C172.993839,22.3415956 173.320562,22.9224368 173.788347,23.3554748 L168.210715,35.1761135 C168.080025,35.1584808 167.947262,35.1460342 167.811905,35.1460342 C167.597201,35.1460342 167.388202,35.1698902 167.186463,35.2134533 L158.864875,20.6068508 C159.069725,20.3859237 159.240866,20.1333615 159.371555,19.8569433 L172.880782,21.6860747 Z M140.501993,21.6860747 L154.01122,19.8569433 C154.13776,20.1255823 154.303715,20.3708841 154.501305,20.5881809 L145.994054,35.2196766 C145.784537,35.1730018 145.567758,35.1460342 145.344238,35.1460342 C145.219772,35.1460342 145.097899,35.1564064 144.977063,35.1709274 L139.570572,23.3772563 C140.051322,22.9416254 140.387899,22.3530049 140.501993,21.6860747 Z M140.501993,54.3552852 C140.388417,53.6930224 140.055471,53.1069951 139.579907,52.6724013 L144.965654,41.049871 C145.09012,41.0659478 145.215623,41.0768386 145.344238,41.0768386 C145.571907,41.0768386 145.792834,41.0488337 146.005982,41.0000846 L154.492488,55.4625139 C154.299047,55.6772177 154.136204,55.9199264 154.01122,56.1844166 L140.501993,54.3552852 Z M159.371555,56.1844166 C159.24294,55.9116287 159.074393,55.6626967 158.872654,55.4428068 L167.175054,41.0068265 C167.380423,41.0514268 167.593052,41.0768386 167.811905,41.0768386 C167.951411,41.0768386 168.088323,41.0638734 168.223161,41.0452035 L173.779012,52.6941829 C173.316413,53.1261836 172.992802,53.7039132 172.880782,54.3552852 L159.371555,56.1844166 Z M176.344049,51.9468683 C176.167203,51.914196 175.986209,51.8944889 175.800547,51.8944889 C175.660004,51.8944889 175.524129,51.9074541 175.389291,51.926124 L169.832403,40.2776632 C170.202171,39.9327887 170.484812,39.4971577 170.640395,39.0034427 L181.906122,39.0034427 C182.048221,39.4535946 182.295079,39.8570719 182.617653,40.1858696 L176.344049,51.9468683 Z M166.872187,6.09411649 C167.167794,6.19265207 167.483107,6.24866176 167.811905,6.24866176 C167.925999,6.24866176 168.038537,6.24036403 168.149519,6.22791743 L173.835022,18.964937 C173.536303,19.2299458 173.292557,19.5535574 173.120379,19.9186576 L159.610634,18.0895262 C159.530768,17.623816 159.342513,17.1970013 159.072837,16.8329383 L166.872187,6.09411649 Z M145.344238,6.24866176 C145.683408,6.24866176 146.007538,6.18902181 146.310924,6.08426293 L154.292824,16.8552385 C154.031964,17.214634 153.850451,17.6336695 153.772141,18.0895262 L140.262914,19.9186576 C140.086069,19.5442225 139.834025,19.2128318 139.525453,18.9441927 L145.037222,6.2325849 C145.138351,6.24295707 145.240516,6.24866176 145.344238,6.24866176 Z M146.294847,70.1329052 C145.996129,70.0317766 145.677185,69.9747296 145.344238,69.9747296 C145.244665,69.9747296 145.145611,69.9793971 145.048631,69.9897693 L139.517155,57.1044277 C139.829876,56.8347514 140.084513,56.5007677 140.262914,56.1227023 L153.772141,57.9518337 C153.851488,58.4128765 154.036632,58.837098 154.303196,59.1990866 L146.294847,70.1329052 Z M167.811905,69.9747296 C167.488812,69.9747296 167.178684,70.0276277 166.887226,70.1235702 L159.062465,59.2219054 C159.338364,58.8552493 159.529731,58.42273 159.610634,57.9518337 L173.120379,56.1227023 C173.294113,56.4914328 173.540452,56.8176374 173.842801,57.0836834 L168.13811,69.9933995 C168.030758,69.9814716 167.922369,69.9747296 167.811905,69.9747296 Z M186.454317,54.7105319 L185.766124,40.8891024 C186.619235,40.5717141 187.288239,39.8762604 187.563102,39.0034427 L190.174294,39.0034427 C190.342324,39.5360534 190.657119,40.0022822 191.07045,40.3580475 L186.454317,54.7105319 Z M197.314493,64.8985917 C196.319284,64.8985917 195.406015,65.2429476 194.681519,65.8160098 L186.840162,59.3344434 L192.717549,41.0623176 C192.811936,41.0716525 192.906323,41.0768386 193.002784,41.0768386 C194.640549,41.0768386 195.968186,39.7492014 195.968186,38.1114364 C195.968186,36.4736714 194.640549,35.1460342 193.002784,35.1460342 C192.906323,35.1460342 192.811418,35.1517389 192.717549,35.1605552 L187.544432,19.077475 C188.352423,18.5479759 188.887109,17.635744 188.887109,16.5969715 C188.887109,14.9592066 187.55999,13.6315694 185.921706,13.6315694 C185.244404,13.6315694 184.622074,13.8618314 184.122654,14.2440457 L170.589571,4.31269702 C170.708851,3.99167849 170.776789,3.64576676 170.776789,3.28325957 C170.776789,1.64549459 169.44967,0.317857373 167.811905,0.317857373 C166.484786,0.317857373 165.361999,1.1891193 164.982897,2.39125331 L148.172728,2.39125331 C147.794144,1.1891193 146.671357,0.317857373 145.344238,0.317857373 C143.706473,0.317857373 142.379355,1.64549459 142.379355,3.28325957 C142.379355,3.60116645 142.430178,3.90766395 142.523009,4.19497294 L128.91006,14.185443 C128.424124,13.8384941 127.831355,13.6315694 127.188281,13.6315694 C125.551034,13.6315694 124.223397,14.9592066 124.223397,16.5969715 C124.223397,17.578697 124.702591,18.4463287 125.437459,18.9861999 L120.238929,35.1465528 C120.233225,35.1465528 120.228039,35.1460342 120.222334,35.1460342 C118.584569,35.1460342 117.256413,36.4736714 117.256413,38.1114364 C117.256413,39.7492014 118.584569,41.0768386 120.222334,41.0768386 C120.228039,41.0768386 120.233225,41.07632 120.238929,41.07632 L125.390266,57.0904253 C124.681847,57.632371 124.223397,58.4839258 124.223397,59.4443883 C124.223397,61.0821533 125.551034,62.4097905 127.188281,62.4097905 C127.775345,62.4097905 128.320921,62.237094 128.781445,61.9430431 L142.523009,72.0278999 C142.430178,72.3152089 142.379355,72.6217063 142.379355,72.9401318 C142.379355,74.5778968 143.706473,75.905534 145.344238,75.905534 C146.671357,75.905534 147.794144,75.0337535 148.172728,73.8316195 L164.982897,73.8316195 C165.361999,75.0337535 166.484786,75.905534 167.811905,75.905534 C169.44967,75.905534 170.776789,74.5778968 170.776789,72.9401318 C170.776789,72.577106 170.708851,72.2311943 170.589571,71.9101758 L185.773384,60.7668395 L193.544211,67.1903217 C193.238751,67.7768677 193.062943,68.4427608 193.062943,69.1496239 C193.062943,71.4978822 194.966754,73.4011746 197.314493,73.4011746 C199.662752,73.4011746 201.566044,71.4978822 201.566044,69.1496239 C201.566044,66.8018841 199.662752,64.8985917 197.314493,64.8985917 Z" id="qtu"></path>
                </g>
            </g>
        </g>
    </g>
</svg>