<?xml version="1.0" encoding="UTF-8"?>
<svg width="44px" height="44px" viewBox="0 0 44 44" version="1.1" xmlns="http://www.w3.org/2000/svg" xmlns:xlink="http://www.w3.org/1999/xlink">
    <!-- Generator: Sketch 52.1 (67048) - http://www.bohemiancoding.com/sketch -->
    <title>gi</title>
    <desc>Created with Sketch.</desc>
    <g id="Landing-page-2018-Aug" stroke="none" stroke-width="1" fill="none" fill-rule="evenodd">
        <g id="Menu" transform="translate(-284.000000, -491.000000)">
            <g id="Group-6" transform="translate(284.190382, 490.510742)">
                <g id="gi" transform="translate(0.500000, 0.292513)">
                    <g id="g">
                        <path d="M21.1600558,0.960201178 C32.758151,0.960201178 42.1600558,10.3630583 42.1600558,21.9611536 C42.1600558,33.5592488 32.758151,42.9611536 21.1600558,42.9611536 C9.56196054,42.9611536 0.160055781,33.5592488 0.160055781,21.9611536 C0.160055781,10.3630583 9.56196054,0.960201178 21.1600558,0.960201178" id="Fill-23-Copy-2" stroke="#19F4E4" stroke-width="1.13512001"></path>
                        <path d="M28.6753483,23.1477262 C28.521377,23.6852385 28.2689197,24.1894597 27.9297668,24.6340343 C27.6100337,25.0210432 27.2160892,25.3407763 26.7715145,25.5738139 C26.3546824,25.8172549 25.9059464,26.0010494 25.4384841,26.1203425 C24.9564569,26.2382484 24.4674942,26.326331 23.97437,26.3825097 C24.5153501,26.9137799 24.7879208,27.660055 24.7171773,28.4153465 L24.7171773,31.4268023 C24.7171773,31.5509503 24.7553233,31.6723241 24.8267604,31.7735844 C23.8529963,32.0482359 22.845941,32.1876423 21.8333372,32.189723 C20.9115904,32.1973522 19.9933114,32.0808334 19.1020813,31.8429409 C19.212358,31.7326642 19.2754724,31.5828543 19.2768595,31.4268023 L19.2768595,29.3946592 L18.9488036,29.4605478 C18.688717,29.4993874 18.4258562,29.5146458 18.1623018,29.5042423 C17.8321652,29.5000809 17.5020287,29.463322 17.1788277,29.3946592 C16.8271907,29.3322384 16.4963605,29.1817349 16.2175477,28.9577137 C15.929025,28.7316118 15.7098587,28.4285242 15.58363,28.0838228 L15.4303523,27.7557669 C15.3159142,27.497761 15.1688786,27.2557071 14.9934069,27.0344601 C14.8366613,26.8055839 14.6265114,26.6183216 14.3816832,26.4879315 L14.2721001,26.4227365 C14.2034372,26.3748805 14.1444843,26.3159276 14.0973219,26.2479583 C14.0390625,26.1931667 13.9939808,26.1251974 13.9662382,26.0502925 C13.9461249,25.9837103 13.9759481,25.9115796 14.0369818,25.8782885 C14.168759,25.823497 14.3109397,25.8006094 14.4531203,25.8123999 L14.7374817,25.8560945 C14.9906326,25.9261445 15.2278316,26.0440504 15.4365944,26.2028766 C15.7181815,26.4005424 15.9553804,26.6536933 16.1357071,26.9456839 C16.3264373,27.3000952 16.5955402,27.6073442 16.922209,27.8417689 C17.1989411,28.0338862 17.5256098,28.1400015 17.8619885,28.1476307 C18.1331721,28.1510985 18.4036621,28.129598 18.6706844,28.0817421 C18.8919314,28.0422089 19.1055491,27.9686911 19.3046021,27.8632694 C19.3538451,27.3070308 19.6021411,26.7875512 20.0037148,26.3991553 C19.5022679,26.3554607 19.0049823,26.2673781 18.5181002,26.136988 C18.0541058,26.0079851 17.6067569,25.8241905 17.1850698,25.5904594 C16.7460437,25.3497926 16.3597284,25.0224303 16.0490116,24.6298729 C15.7161008,24.1832176 15.4650305,23.6810771 15.3068979,23.1477262 C15.10299,22.4527748 15.0072781,21.7307745 15.0225366,21.0066934 C14.9941004,19.9191847 15.4026098,18.8642735 16.1558205,18.0791588 C15.8007156,17.1352179 15.8402488,16.087936 16.2654036,15.1731247 C16.6836229,15.1051555 17.1129391,15.1745119 17.4888509,15.370097 C17.8959731,15.5199069 18.2906112,15.7030078 18.6679101,15.9166256 C18.9300774,16.0699033 19.1270496,16.2009869 19.2796338,16.3105701 C20.1694767,16.0657419 21.0877557,15.9402068 22.0108897,15.9381261 C22.9333301,15.9381261 23.8509156,16.0622741 24.7393713,16.3077958 L25.2858999,15.9610137 C25.7055063,15.7147984 26.1438389,15.5025678 26.5967363,15.327096 C26.955309,15.14885 27.3624312,15.0954456 27.7549886,15.1731247 C28.1801434,16.087936 28.2203702,17.1352179 27.8645717,18.0791588 C28.5817171,18.8843869 28.9721938,19.9282011 28.9597096,21.0066934 C28.9645646,21.7300809 28.8688527,22.4506942 28.6753483,23.1477262 Z" id="Fill-16" fill="#19F4E4"></path>
                    </g>
                </g>
            </g>
        </g>
    </g>
</svg>