<?xml version="1.0" encoding="UTF-8"?>
<svg width="232px" height="233px" viewBox="0 0 232 233" version="1.1" xmlns="http://www.w3.org/2000/svg" xmlns:xlink="http://www.w3.org/1999/xlink">
    <!-- Generator: Sketch 51.2 (57519) - http://www.bohemiancoding.com/sketch -->
    <title>logo (1)</title>
    <desc>Created with Sketch.</desc>
    <defs></defs>
    <g id="Page-1" stroke="none" stroke-width="1" fill="none" fill-rule="evenodd">
        <g id="logo-(1)" fill="#FFFFFF" fill-rule="nonzero">
            <path d="M201.7,60.4 C203.9,60.2 206.2,60.2 208.4,59.7 C224.6,55.9 235,40.1 230.6,22.5 C226.4,6 206.6,-5.1 189.9,3.2 C185.7,5.3 182,8.4 178.3,11.3 C170.2,17.8 161.3,20 151.2,17.4 C145.9,16 141.5,13.2 137.6,9.4 C131.8,3.6 124.7,0.7 116.6,0.3 C111.6,0.1 106.8,1.5 102.6,4 C98.4,6.5 94.7,9.8 90.8,12.7 C83.3,18.1 75.1,19.6 66.2,17.5 C60.3,16.2 55.8,13 51.5,9 C43.9,2 35.2,-1.2 24.8,1.1 C16.9,2.9 10.6,6.8 6.1,13.4 C2,19.7 -0.4,26.6 0.8,34 C2,41.4 5.5,47.6 10.9,53.1 C19,61.4 21.3,71.4 17.7,82.6 C16.1,87.6 12.8,91.4 9.4,95.2 C1.4,104 -1.6,114.1 2.4,125.8 C4.2,131 7.4,135.1 11.1,139 C18.8,147.3 21.2,156.9 17.8,167.9 C16.2,173.2 13,177.3 9.2,181.1 C3.6,186.8 0.8,193.9 0.7,201.8 C0.7,205.3 1.6,208.9 2.7,212.2 C7.4,226.4 24.6,235.7 39.4,230.5 C44.7,228.6 49.1,225.6 53.1,221.7 C61.5,213.7 71.4,211.2 82.6,214.8 C87.7,216.4 91.6,219.7 95.3,223.3 C103.7,231.5 116.3,234.5 127.8,229.4 C142.7,222.7 149.7,206.4 144,191.1 C138.7,176.8 122.6,168.8 108,173 C102.4,174.6 97.9,177.9 93.6,181.7 C89.5,185.4 84.8,188.2 79.4,189.2 C62.9,192.4 50.2,183.1 44.4,169.1 C41.8,162.7 41.8,156.2 44,149.5 C45.7,144.2 49.2,140.2 52.7,136 C61.1,126.1 62.8,115 57.3,103.2 C55.3,98.9 51.8,95.3 49,91.5 C44,84.7 41.6,77.1 43,68.4 C44.3,60.3 48.6,54.1 54.7,48.9 C62.2,42.5 70.8,40.5 80.4,42.8 C86.4,44.2 91.1,47.6 95.3,51.9 C99.7,56.3 104.9,59.1 111,60 C121.7,61.5 130.8,58.5 138.4,50.6 C143.7,45.1 150.3,42.2 158,42 C166.8,41.8 174.1,45.1 180.1,51.3 C186.1,57.3 193.2,60.3 201.7,60.4 Z M201.7,192.3 C195.8,192.3 191.5,196.6 191.5,202.6 C191.5,208.4 196,213 201.7,213 C207.3,213 212,208.3 212.1,202.6 C212.2,197 207.4,192.3 201.7,192.3 Z M191.5,118.3 C191.5,124.2 195.8,128.8 201.5,128.9 C207.2,129 212,124.2 212,118.4 C212,112.8 207.4,108.3 201.8,108.2 C196,108.2 191.6,112.4 191.5,118.3 Z M126.4,119.2 C126.4,113.4 122,108.9 116.2,108.9 C110.5,108.9 105.8,113.6 105.8,119.2 C105.8,124.8 110.5,129.5 116.2,129.5 C122,129.6 126.5,125 126.4,119.2 Z" id="Shape"></path>
            <path d="M201.7,60.4 C193.2,60.3 186.1,57.3 180.2,51.2 C174.2,45 166.9,41.7 158.1,41.9 C150.4,42.1 143.8,45 138.5,50.5 C130.9,58.4 121.7,61.4 111.1,59.9 C105,59 99.7,56.2 95.4,51.8 C91.1,47.6 86.5,44.1 80.5,42.7 C70.9,40.5 62.3,42.5 54.8,48.8 C48.7,54.1 44.4,60.3 43,68.4 C41.6,77.1 44,84.7 49.1,91.6 C52,95.5 55.4,99.1 57.4,103.3 C62.9,115 61.2,126.2 52.8,136.1 C49.3,140.2 45.8,144.3 44.1,149.6 C42,156.2 41.9,162.8 44.5,169.2 C50.2,183.2 63,192.5 79.5,189.3 C84.9,188.2 89.6,185.4 93.7,181.8 C98,178 102.5,174.8 108.1,173.1 C122.7,168.9 138.8,176.9 144.1,191.2 C149.8,206.5 142.8,222.8 127.9,229.5 C116.4,234.6 103.8,231.6 95.4,223.4 C91.6,219.8 87.7,216.5 82.7,214.9 C71.5,211.3 61.6,213.8 53.2,221.8 C49.2,225.7 44.8,228.7 39.5,230.6 C24.7,235.8 7.5,226.5 2.8,212.3 C1.7,209 0.8,205.4 0.8,201.9 C0.8,194 3.6,186.9 9.3,181.2 C13.1,177.4 16.3,173.2 17.9,168 C21.2,157.1 18.9,147.4 11.2,139.1 C7.5,135.2 4.3,131.1 2.5,125.9 C-1.6,114.2 1.5,104.1 9.5,95.3 C13,91.5 16.2,87.7 17.8,82.7 C21.4,71.5 19.1,61.5 11,53.2 C5.5,47.6 2,41.4 0.8,34 C-0.4,26.6 1.9,19.6 6.1,13.5 C10.6,6.9 16.9,2.9 24.8,1.2 C35.3,-1.1 44,2.2 51.5,9.1 C55.7,13 60.3,16.2 66,17.6 C74.9,19.7 83.2,18.3 90.6,12.8 C94.6,9.9 98.3,6.6 102.4,4.1 C106.6,1.5 111.4,0.2 116.4,0.4 C124.5,0.7 131.6,3.7 137.4,9.5 C141.3,13.3 145.7,16.2 151,17.5 C161.1,20.1 170,17.8 178.1,11.4 C181.8,8.5 185.5,5.4 189.7,3.3 C206.4,-5 226.3,6.1 230.4,22.6 C234.9,40.2 224.4,56 208.2,59.8 C206.2,60.2 203.9,60.2 201.7,60.4 Z" id="Shape"></path>
            <path d="M201.7,192.3 C207.4,192.3 212.1,197 212.1,202.6 C212,208.3 207.3,213 201.7,213 C196,213 191.5,208.4 191.5,202.6 C191.5,196.6 195.9,192.3 201.7,192.3 Z" id="Shape"></path>
            <path d="M191.5,118.3 C191.5,112.4 195.9,108.2 201.9,108.2 C207.5,108.3 212.1,112.8 212.1,118.4 C212.1,124.1 207.2,129 201.6,128.9 C195.9,128.8 191.5,124.2 191.5,118.3 Z" id="Shape"></path>
            <path d="M126.4,119.2 C126.4,125 121.9,129.6 116.2,129.6 C110.5,129.6 105.8,124.9 105.8,119.3 C105.8,113.7 110.5,109 116.2,109 C122,108.8 126.4,113.3 126.4,119.2 Z" id="Shape"></path>
        </g>
    </g>
</svg>