<?xml version="1.0" encoding="UTF-8"?>
<svg width="21px" height="20px" viewBox="0 0 21 20" version="1.1" xmlns="http://www.w3.org/2000/svg" xmlns:xlink="http://www.w3.org/1999/xlink">
    <!-- Generator: Sketch 51.2 (57519) - http://www.bohemiancoding.com/sketch -->
    <title>link</title>
    <desc>Created with Sketch.</desc>
    <defs>
        <path d="M10.0062054,19.7384336 C4.6411535,19.7384336 0.291919643,15.3891998 0.291919643,10.0241479 C0.291919643,4.65909605 4.6411535,0.309862195 10.0062054,0.309862195 C15.3712572,0.309862195 19.7204911,4.65909605 19.7204911,10.0241479 C19.7204911,15.3891998 15.3712572,19.7384336 10.0062054,19.7384336 Z M15.0736306,9.46118627 C16.3170636,8.2174699 16.3170636,6.20073688 15.0736306,4.95699426 C13.8295937,3.71319913 11.813167,3.71319913 10.5691301,4.95699426 L8.86268852,6.66337584 C9.54425689,6.56349623 10.2443887,6.63152674 10.8942391,6.88456032 L11.6950386,6.08289785 C12.3163481,5.46203741 13.3264388,5.46203741 13.9470132,6.08289785 C14.5684015,6.70375828 14.5684015,7.71387085 13.9470132,8.33520391 L11.6950386,10.5870899 C11.0744905,11.2076352 10.0641372,11.2085017 9.44322156,10.5870899 C9.24879156,10.3926345 9.12247115,10.1585843 9.050108,9.91135341 C8.99139829,9.94522425 8.92995788,9.97397508 8.88020166,10.0241512 L7.83350925,11.0707603 C7.96807424,11.2977212 8.12130765,11.5178029 8.31718176,11.7131247 C9.56069351,12.9571562 11.5776454,12.9571562 12.8209471,11.7131247 L15.0736306,9.46118627 Z M9.11853266,13.1641359 L8.3171555,13.9657984 C7.69629235,14.5863437 6.68588654,14.5863437 6.06491836,13.9657984 C5.44400269,13.3443866 5.44400269,12.334274 6.06491836,11.7131247 L8.3171555,9.46118627 C8.93851753,8.83990573 9.94824067,8.83990573 10.5691038,9.46118627 C10.7630875,9.65522156 10.8895392,9.8892192 10.962585,10.136135 C11.021636,10.1018178 11.082315,10.0739335 11.132045,10.0241249 L12.1786586,8.97793598 C12.0449601,8.75008235 11.890939,8.53078833 11.6949861,8.33525642 C10.4517894,7.09146129 8.43465371,7.09146129 7.19085313,8.33525642 L4.93895733,10.5872211 C3.69528803,11.8313839 3.69528803,13.8475392 4.93895733,15.0915969 C6.1827579,16.3349982 8.19942098,16.3349982 9.4431953,15.0915969 L11.1500832,13.3848478 C10.4681473,13.485305 9.76783169,13.4166969 9.11853266,13.1641359 Z" id="path-1"></path>
    </defs>
    <g id="Landing-page-2018-Aug" stroke="none" stroke-width="1" fill="none" fill-rule="evenodd">
        <g id="Landing-Page-0.3-x1366" transform="translate(-546.000000, -1744.000000)">
            <g id="Group-14" transform="translate(247.000000, 1434.398438)">
                <g id="link" transform="translate(299.617285, 309.542259)">
                    <mask id="mask-2" fill="white">
                        <use xlink:href="#path-1"></use>
                    </mask>
                    <use fill="#FFFFFF" xlink:href="#path-1"></use>
                </g>
            </g>
        </g>
    </g>
</svg>