<?xml version="1.0" encoding="utf-8"?>
<!-- Generator: Adobe Illustrator 22.0.1, SVG Export Plug-In . SVG Version: 6.00 Build 0)  -->
<svg version="1.1" id="圖層_1" xmlns="http://www.w3.org/2000/svg" xmlns:xlink="http://www.w3.org/1999/xlink" x="0px" y="0px"
	 viewBox="0 0 60 60" style="enable-background:new 0 0 60 60;" xml:space="preserve">
<style type="text/css">
	.st0{fill:none;stroke:#3442B0;stroke-miterlimit:10;}
</style>
<title>NEM</title>
<desc>Created with Sketch.</desc>
<g id="NEM">
	<g id="Group-9" transform="translate(10.000000, 10.000000)">
		<path id="Stroke-1" class="st0" d="M29,4.1c-0.9,0-2.1,0.2-3.2,0.6c-3.1,1.2-5.1,4.2-5.2,7.5c0,0.9,0.1,1.7,0.5,2.5
			c0.4,0.8,0.9,1.5,1.6,2.1c0.8,0.7,1.7,1.4,2.6,1.9c0.5,0.3,1,0.6,1.5,1c1.7,1.6,2.6,3.6,2.8,5.9c0.1,0.7,0,1.4-0.1,2.2
			c-0.1,0.7-0.2,1.4-0.5,2.1c0,0.1,0,0.1-0.1,0.2c0,0,0,0.1,0,0.1c0,0,0.1,0,0.1,0c0.1-0.1,0.2-0.1,0.2-0.2c1-1.3,2-2.6,2.8-4
			c1.5-2.4,2.8-4.9,3.7-7.6c0.6-1.6,1-3.3,1.3-4.9c0.2-1,0.4-2.1,0.4-3.2c0.1-0.7,0.1-1.4,0.1-2c0-0.2,0-0.4-0.1-0.6
			c-0.2-0.5-0.5-0.8-0.9-1c-0.8-0.4-1.7-0.8-2.5-1.2c-0.9-0.4-1.8-0.8-2.8-1.1C30.8,4.2,30,4.1,29,4.1z M28.4,28
			c0-0.7-0.1-1.3-0.2-1.9c-0.5-2.1-1.7-3.8-3.5-5c-0.5-0.3-1-0.6-1.6-0.7c-1-0.2-1.9-0.3-2.9-0.1c-1,0.1-1.9,0.4-2.8,0.8
			c-0.4,0.2-0.8,0.5-1.2,0.7c-1.1,0.6-2.2,1-3.4,1.1c-0.7,0.1-1.3,0-2-0.1c-1.1-0.2-2-0.6-3-1.1c-1.1-0.7-2-1.5-2.8-2.5
			c-0.1-0.1-0.2-0.2-0.3-0.3c-0.1-0.1-0.1,0-0.1,0.1c0,0.1,0,0.3,0.1,0.4c0.7,2.1,1.6,4.1,2.7,6.1c1.5,2.7,3.3,5.1,5.5,7.2
			c1.7,1.8,3.7,3.3,5.7,4.7c0.4,0.3,0.8,0.5,1.3,0.5c0.4,0,0.7,0,1-0.1c0.3-0.1,0.5-0.3,0.8-0.4c1.4-0.9,2.8-2,4.1-3.1
			C27.5,32.4,28.4,30.4,28.4,28z M2.3,8.4c0,0.5,0.1,1,0.1,1.5c0.1,0.6,0.1,1.2,0.2,1.8c0.1,0.8,0.2,1.7,0.4,2.5
			c0.4,1.9,1.5,3.5,3,4.7c1.4,1.1,3,1.6,4.7,1.7c0.6,0,1.2,0,1.7-0.1c0.9-0.2,1.8-0.5,2.6-0.9c1.2-0.7,2.1-1.6,2.6-2.9
			c0.4-1,0.5-2,0.6-3c0-0.5,0-0.9,0-1.4c0-0.3,0-0.6,0.1-0.9c0.1-0.8,0.4-1.6,0.8-2.4c0.6-1.2,1.5-2.2,2.5-3.1c1.4-1.2,3.1-2,5-2.2
			c0.1,0,0.2-0.1,0.3-0.1c0.1,0,0.1-0.1,0-0.2c-0.1,0-0.2-0.1-0.2-0.1c-1-0.2-2-0.4-3-0.5c-0.7-0.1-1.5-0.2-2.2-0.2
			c-0.6,0-1.2-0.1-1.9-0.1c-0.4,0-0.7,0-1.1,0c-0.4,0-0.9,0-1.3,0.1c-0.7,0.1-1.3,0.1-2,0.2c-0.7,0.1-1.5,0.2-2.2,0.3
			c-1.2,0.2-2.5,0.5-3.7,0.9C7.3,4.8,5.2,5.7,3.3,6.7C3.1,6.8,2.9,7,2.7,7.1C2.4,7.5,2.3,7.9,2.3,8.4z M20.3,0.8c0.9,0,2,0,3,0.1
			c1.4,0.1,2.8,0.3,4.2,0.6C30.3,2,33,2.9,35.5,4c1,0.4,1.9,0.9,2.8,1.4c0.7,0.3,1.1,0.9,1.4,1.6c0.1,0.4,0.1,0.8,0.1,1.2
			c-0.1,0.9-0.1,1.8-0.2,2.7c-0.2,1.6-0.4,3.2-0.8,4.7c-0.9,3.9-2.4,7.6-4.5,11c-1.8,2.9-3.9,5.6-6.3,8c-1.9,1.8-3.9,3.4-6.1,4.8
			c-0.6,0.4-1.3,0.5-2,0.5c-0.7,0-1.3-0.3-1.9-0.7c-2.7-1.8-5.2-3.9-7.4-6.2c-3.3-3.5-5.8-7.5-7.6-12c-0.9-2.2-1.6-4.5-2-6.9
			c-0.2-1.1-0.4-2.1-0.5-3.2c-0.1-1-0.2-2.1-0.2-3.1c0-0.9,0.4-1.7,1.2-2.2c0.7-0.4,1.4-0.7,2.1-1.1C5,3.8,6.5,3.2,8,2.7
			c1.1-0.4,2.3-0.7,3.4-1c1.2-0.3,2.3-0.5,3.5-0.6C16.6,0.9,18.4,0.8,20.3,0.8z"/>
		<path id="Stroke-3" class="st0" d="M2.3,8.4c0-0.5,0.1-0.9,0.4-1.2C2.9,7,3.1,6.8,3.3,6.7c2-1.1,4.1-1.9,6.2-2.6
			c1.2-0.4,2.4-0.7,3.7-0.9c0.7-0.1,1.4-0.2,2.2-0.3c0.7-0.1,1.3-0.1,2-0.2c0.4,0,0.9,0,1.3-0.1c0.4,0,0.7,0,1.1,0
			c0.6,0,1.3,0,1.9,0.1c0.7,0.1,1.5,0.1,2.2,0.2c1,0.1,2,0.3,3,0.5c0.1,0,0.2,0,0.2,0.1c0.1,0,0.1,0.1,0,0.2c-0.1,0-0.2,0.1-0.3,0.1
			c-1.9,0.2-3.5,1-5,2.2c-1,0.9-1.9,1.9-2.5,3.1c-0.4,0.8-0.6,1.5-0.8,2.4c0,0.3-0.1,0.6-0.1,0.9c0,0.5,0,0.9,0,1.4
			c-0.1,1-0.2,2-0.6,3c-0.5,1.3-1.4,2.3-2.6,2.9c-0.8,0.4-1.7,0.7-2.6,0.9c-0.6,0.1-1.2,0.1-1.7,0.1C9.1,20.6,7.5,20,6.1,19
			c-1.6-1.2-2.6-2.8-3-4.7c-0.2-0.8-0.3-1.7-0.4-2.5c-0.1-0.6-0.1-1.2-0.2-1.8C2.4,9.4,2.4,8.9,2.3,8.4z"/>
		<path id="Stroke-5" class="st0" d="M28.4,28c0,2.4-0.9,4.5-2.6,6.1c-1.3,1.2-2.6,2.2-4.1,3.1c-0.2,0.2-0.5,0.3-0.8,0.4
			c-0.3,0.1-0.7,0.1-1,0.1c-0.5,0-0.9-0.3-1.3-0.5c-2.1-1.4-4-2.9-5.7-4.7c-2.1-2.2-4-4.6-5.5-7.2c-1.1-1.9-2-4-2.7-6.1
			c0-0.1-0.1-0.3-0.1-0.4c0-0.1,0-0.1,0.1-0.1C4.8,18.9,4.9,19,5,19.1c0.8,1,1.7,1.9,2.8,2.5c0.9,0.5,1.9,0.9,3,1.1
			c0.7,0.1,1.3,0.1,2,0.1c1.2-0.1,2.3-0.5,3.4-1.1c0.4-0.2,0.8-0.5,1.2-0.7c0.9-0.4,1.8-0.7,2.8-0.8c1-0.1,1.9-0.1,2.9,0.1
			c0.6,0.1,1.1,0.4,1.6,0.7c1.8,1.2,3,2.9,3.5,5C28.3,26.7,28.4,27.3,28.4,28z"/>
		<path id="Stroke-7" class="st0" d="M29,4.1c1,0,1.8,0.1,2.6,0.3c0.9,0.3,1.9,0.7,2.8,1.1c0.8,0.4,1.7,0.8,2.5,1.2
			c0.4,0.2,0.7,0.5,0.9,1c0.1,0.2,0.1,0.4,0.1,0.6c0,0.7-0.1,1.4-0.1,2c-0.1,1.1-0.2,2.1-0.4,3.2c-0.3,1.7-0.8,3.3-1.3,4.9
			c-0.9,2.7-2.2,5.2-3.7,7.6c-0.9,1.4-1.8,2.7-2.8,4c-0.1,0.1-0.1,0.1-0.2,0.2c0,0-0.1,0-0.1,0c0,0-0.1-0.1,0-0.1
			c0-0.1,0-0.2,0.1-0.2c0.3-0.7,0.4-1.4,0.5-2.1c0.1-0.7,0.1-1.4,0.1-2.2c-0.2-2.3-1.1-4.3-2.8-5.9c-0.4-0.4-1-0.7-1.5-1
			c-0.9-0.6-1.8-1.2-2.6-1.9c-0.6-0.6-1.2-1.3-1.6-2.1c-0.4-0.8-0.5-1.6-0.5-2.5c0.1-3.3,2.1-6.2,5.2-7.5C26.9,4.3,28.1,4.1,29,4.1z
			"/>
	</g>
</g>
</svg>
