<?xml version="1.0" encoding="utf-8"?>
<!-- Generator: Adobe Illustrator 16.0.0, SVG Export Plug-In . SVG Version: 6.00 Build 0)  -->
<!DOCTYPE svg PUBLIC "-//W3C//DTD SVG 1.1//EN" "http://www.w3.org/Graphics/SVG/1.1/DTD/svg11.dtd">
<svg version="1.1" id="Layer_1" xmlns="http://www.w3.org/2000/svg" xmlns:xlink="http://www.w3.org/1999/xlink" x="0px" y="0px"
	 width="298.5px" height="74.542px" viewBox="0 0 298.5 74.542" enable-background="new 0 0 298.5 74.542" xml:space="preserve">
<g>
	<defs>
		<polygon id="SVGID_1_" points="-6,0 328.109,3.132 318.006,74.542 -5.292,74.542 		"/>
	</defs>
	<clipPath id="SVGID_2_">
		<use xlink:href="#SVGID_1_"  overflow="visible"/>
	</clipPath>
	<path clip-path="url(#SVGID_2_)" fill="#FFFFFF" d="M94.069,27.696h8.424c0.44,0,0.86,0.104,1.258,0.309
		c0.398,0.207,0.747,0.484,1.045,0.832c0.298,0.349,0.537,0.764,0.714,1.248s0.267,1.002,0.267,1.557
		c0,0.498-0.085,0.97-0.256,1.418c-0.17,0.448-0.405,0.846-0.704,1.194c-0.299,0.349-0.644,0.626-1.035,0.832
		s-0.807,0.309-1.247,0.309h-2.24v-1.343h1.983c0.341,0,0.632-0.078,0.875-0.235c0.242-0.156,0.444-0.355,0.608-0.597
		c0.163-0.242,0.28-0.504,0.352-0.789c0.071-0.284,0.107-0.554,0.107-0.811c0-0.284-0.046-0.579-0.139-0.885
		c-0.093-0.306-0.224-0.583-0.395-0.832c-0.171-0.248-0.38-0.455-0.629-0.618c-0.249-0.163-0.53-0.245-0.842-0.245h-6.654v11.964
		h-1.493V27.696z"/>
	<path clip-path="url(#SVGID_2_)" fill="#FFFFFF" d="M108.528,31.737c0.355-0.818,0.835-1.528,1.439-2.133
		c0.604-0.604,1.319-1.084,2.144-1.439c0.824-0.355,1.706-0.533,2.644-0.533c0.938,0,1.82,0.178,2.645,0.533
		c0.825,0.355,1.539,0.835,2.144,1.439c0.604,0.604,1.083,1.315,1.439,2.133c0.355,0.817,0.533,1.688,0.533,2.612
		c0,0.924-0.178,1.795-0.533,2.612c-0.355,0.818-0.835,1.528-1.439,2.133c-0.604,0.604-1.319,1.084-2.144,1.439
		s-1.706,0.533-2.645,0.533c-0.938,0-1.82-0.177-2.644-0.533c-0.825-0.355-1.539-0.835-2.144-1.439
		c-0.604-0.604-1.084-1.315-1.439-2.133c-0.355-0.817-0.533-1.688-0.533-2.612C107.995,33.426,108.173,32.555,108.528,31.737
		 M109.851,36.386c0.284,0.633,0.668,1.191,1.151,1.674c0.483,0.483,1.049,0.868,1.696,1.152c0.647,0.285,1.333,0.426,2.058,0.426
		s1.411-0.142,2.058-0.426c0.647-0.284,1.216-0.668,1.706-1.152c0.49-0.483,0.878-1.041,1.162-1.674
		c0.284-0.632,0.427-1.304,0.427-2.016c0-0.696-0.143-1.368-0.427-2.015c-0.284-0.646-0.668-1.212-1.151-1.695
		c-0.483-0.483-1.049-0.871-1.695-1.162c-0.647-0.292-1.333-0.438-2.058-0.438s-1.415,0.146-2.068,0.438
		c-0.654,0.292-1.223,0.679-1.707,1.162s-0.867,1.049-1.151,1.695c-0.284,0.647-0.427,1.319-0.427,2.015
		C109.424,35.082,109.566,35.754,109.851,36.386"/>
	<path clip-path="url(#SVGID_2_)" fill="#FFFFFF" d="M130.387,34.051h2.049c0.34,0,0.633-0.078,0.873-0.235
		c0.242-0.156,0.445-0.355,0.609-0.597c0.162-0.242,0.279-0.504,0.352-0.789c0.07-0.284,0.105-0.554,0.105-0.811
		c0-0.284-0.045-0.579-0.139-0.885c-0.092-0.306-0.223-0.583-0.395-0.832c-0.17-0.248-0.379-0.455-0.629-0.618
		c-0.248-0.163-0.529-0.245-0.842-0.245h-6.654v11.964h-1.493V27.696h8.424c0.439,0,0.859,0.104,1.258,0.309
		c0.398,0.207,0.746,0.484,1.045,0.832c0.299,0.349,0.537,0.764,0.715,1.248s0.266,1.002,0.266,1.557
		c0,0.498-0.084,0.97-0.256,1.418c-0.17,0.448-0.4,0.846-0.693,1.194c-0.291,0.349-0.633,0.626-1.023,0.832
		s-0.807,0.309-1.246,0.309l2.836,5.609h-1.6L130.387,34.051z"/>
	<polygon clip-path="url(#SVGID_2_)" fill="#FFFFFF" points="149.986,27.696 149.986,29.04 144.91,29.04 144.91,41.003 
		143.418,41.003 143.418,29.04 138.363,29.04 138.363,27.696 	"/>
	<polygon clip-path="url(#SVGID_2_)" fill="#FFFFFF" points="163.123,41.003 161.459,41.003 156.086,30.191 151.457,39.66 
		157.727,39.66 158.645,41.003 149.111,41.003 156.086,26.992 	"/>
	<polygon clip-path="url(#SVGID_2_)" fill="#FFFFFF" points="165.512,41.003 165.512,27.696 167.004,27.696 167.004,39.66 
		175.641,39.66 175.641,41.003 	"/>
	<polygon clip-path="url(#SVGID_2_)" fill="#FFFFFF" points="186.111,41.003 186.111,27.696 188.607,27.696 197.031,39.745 
		197.031,27.696 198.523,27.696 198.523,41.003 196.178,41.003 187.604,28.933 187.604,41.003 	"/>
	<path clip-path="url(#SVGID_2_)" fill="#FFFFFF" d="M201.508,41.003V27.696h10.131v1.344h-8.637v10.62h8.637v1.344H201.508z
		 M211.467,35.395h-6.375v-1.344h6.375V35.395z"/>
	<polygon clip-path="url(#SVGID_2_)" fill="#FFFFFF" points="226.182,27.696 226.182,29.04 221.107,29.04 221.107,41.003 
		219.613,41.003 219.613,29.04 214.561,29.04 214.561,27.696 	"/>
	<polygon clip-path="url(#SVGID_2_)" fill="#FFFFFF" points="230.596,27.696 230.596,39.788 236.973,26.992 243.455,39.894 
		243.455,27.696 244.949,27.696 244.949,41.003 242.348,41.003 236.973,30.127 231.662,41.003 229.104,41.003 229.104,27.696 	"/>
	<path clip-path="url(#SVGID_2_)" fill="#FFFFFF" d="M248.189,31.737c0.355-0.818,0.836-1.528,1.439-2.133
		c0.605-0.604,1.32-1.084,2.145-1.439c0.824-0.355,1.705-0.533,2.645-0.533c0.938,0,1.818,0.178,2.645,0.533
		c0.824,0.355,1.539,0.835,2.143,1.439c0.604,0.604,1.084,1.315,1.439,2.133c0.355,0.817,0.533,1.688,0.533,2.612
		c0,0.924-0.178,1.795-0.533,2.612c-0.355,0.818-0.836,1.528-1.439,2.133c-0.604,0.604-1.318,1.084-2.143,1.439
		c-0.826,0.355-1.707,0.533-2.645,0.533c-0.939,0-1.82-0.177-2.645-0.533s-1.539-0.835-2.145-1.439
		c-0.604-0.604-1.084-1.315-1.439-2.133c-0.355-0.817-0.533-1.688-0.533-2.612C247.656,33.426,247.834,32.555,248.189,31.737
		 M249.512,36.386c0.285,0.633,0.668,1.191,1.152,1.674c0.482,0.483,1.049,0.868,1.695,1.152c0.646,0.285,1.332,0.426,2.059,0.426
		c0.725,0,1.41-0.142,2.057-0.426c0.648-0.284,1.217-0.668,1.707-1.152c0.49-0.483,0.877-1.041,1.162-1.674
		c0.283-0.632,0.426-1.304,0.426-2.016c0-0.696-0.143-1.368-0.426-2.015c-0.285-0.646-0.668-1.212-1.152-1.695
		c-0.482-0.483-1.049-0.871-1.695-1.162s-1.332-0.438-2.057-0.438c-0.727,0-1.416,0.146-2.068,0.438
		c-0.654,0.292-1.225,0.679-1.707,1.162c-0.484,0.483-0.867,1.049-1.152,1.695c-0.283,0.647-0.426,1.319-0.426,2.015
		C249.086,35.082,249.229,35.754,249.512,36.386"/>
	<path clip-path="url(#SVGID_2_)" fill="#FFFFFF" d="M270.049,34.051h2.047c0.342,0,0.633-0.078,0.875-0.235
		c0.242-0.156,0.443-0.355,0.607-0.597c0.164-0.242,0.281-0.504,0.352-0.789c0.072-0.284,0.107-0.554,0.107-0.811
		c0-0.284-0.047-0.579-0.139-0.885c-0.094-0.306-0.225-0.583-0.395-0.832c-0.17-0.248-0.381-0.455-0.629-0.618
		c-0.25-0.163-0.529-0.245-0.842-0.245h-6.654v11.964h-1.492V27.696h8.422c0.441,0,0.861,0.104,1.26,0.309
		c0.396,0.207,0.746,0.484,1.045,0.832c0.299,0.349,0.535,0.764,0.713,1.248s0.268,1.002,0.268,1.557
		c0,0.498-0.086,0.97-0.256,1.418c-0.17,0.448-0.402,0.846-0.693,1.194c-0.291,0.349-0.633,0.626-1.023,0.832
		s-0.807,0.309-1.248,0.309l2.836,5.609h-1.6L270.049,34.051z"/>
	<path clip-path="url(#SVGID_2_)" fill="#FFFFFF" d="M278.408,41.003V27.696h1.494v6.035h4.52v1.344h-4.52v5.929H278.408z
		 M291.311,27.696l-3.262,6.718l3.262,6.59h-1.621l-3.305-6.59l3.305-6.718H291.311z"/>
	<path clip-path="url(#SVGID_2_)" fill="#FCFCFC" d="M45.967,59.554c5.097,0,9.195-1.602,11.852-4.63
		c2.604-2.97,3.605-7.036,2.893-11.758c-0.073-0.485-0.584-1.004-1.143-1.159c-0.558-0.155-0.952,0.113-0.878,0.599
		c0.657,4.352-0.266,8.1-2.667,10.837c-2.448,2.792-6.226,4.267-10.923,4.267c-5.669,0-12.053-2.171-17.978-6.114
		c-0.532-0.354-1.112-0.345-1.294,0.021c-0.183,0.366,0.101,0.95,0.634,1.305C32.889,57.198,39.816,59.554,45.967,59.554"/>
	<path clip-path="url(#SVGID_2_)" fill="#FCFCFC" d="M59.038,39.863c0.043,0.005,0.084,0.008,0.124,0.008
		c0.457,0,0.694-0.338,0.536-0.804c-0.344-1.011-0.762-2.044-1.245-3.072c-0.239-0.509-0.847-0.922-1.356-0.922
		c-0.51,0-0.729,0.413-0.489,0.922c0.445,0.948,0.832,1.901,1.148,2.834C57.928,39.334,58.502,39.797,59.038,39.863"/>
	<path clip-path="url(#SVGID_2_)" fill="#FCFCFC" d="M11.141,29.644c-0.716-4.353,0.192-8.266,2.559-11.016
		c2.446-2.843,6.247-4.345,10.992-4.345c5.931,0,12.574,2.347,18.705,6.609c0.526,0.366,1.115,0.375,1.314,0.021
		c0.199-0.354-0.066-0.938-0.592-1.304c-6.652-4.624-13.859-7.171-20.295-7.171c-5.148,0-9.272,1.631-11.926,4.716
		c-2.566,2.983-3.552,7.228-2.774,11.952c0.08,0.487,0.597,1.003,1.154,1.152c0.103,0.028,0.2,0.041,0.289,0.041
		C10.961,30.297,11.206,30.042,11.141,29.644"/>
	<path clip-path="url(#SVGID_2_)" fill="#FCFCFC" d="M10.752,32.128c-0.537-0.066-0.832,0.291-0.66,0.796
		c0.344,1.011,0.763,2.045,1.245,3.071c0.24,0.51,0.847,0.923,1.356,0.923c0.509,0,0.729-0.413,0.489-0.923
		c-0.445-0.947-0.832-1.9-1.148-2.833C11.862,32.657,11.288,32.194,10.752,32.128"/>
	<path clip-path="url(#SVGID_2_)" fill="#FCFCFC" d="M19.039,10.636c0.045,0,0.089-0.003,0.132-0.01
		c1.162-0.186,2.397-0.28,3.669-0.28c0.51,0,0.729-0.413,0.489-0.922c-0.24-0.51-0.847-0.923-1.356-0.923
		c-1.363,0-2.686,0.101-3.931,0.299c-0.469,0.075-0.596,0.544-0.285,1.048C18.041,10.307,18.589,10.636,19.039,10.636"/>
	<path clip-path="url(#SVGID_2_)" fill="#FCFCFC" d="M5.218,19.246C3.77,24.084,4.524,29.876,7.4,35.996
		c3.475,7.393,9.628,14.331,17.327,19.534c0.264,0.178,0.54,0.267,0.775,0.267c0.237,0,0.432-0.091,0.527-0.273
		c0.188-0.362-0.089-0.946-0.619-1.305c-7.182-4.854-12.922-11.326-16.164-18.223c-2.683-5.709-3.387-11.112-2.037-15.625
		c1.309-4.372,4.554-7.595,9.139-9.075c0.426-0.138,0.473-0.647,0.105-1.138c-0.368-0.491-1.012-0.776-1.438-0.639
		C10.1,11.106,6.62,14.56,5.218,19.246"/>
	<path clip-path="url(#SVGID_2_)" fill="#FCFCFC" d="M50.62,61.366c-1.163,0.186-2.397,0.279-3.67,0.279
		c-0.51,0-0.729,0.413-0.489,0.923c0.24,0.509,0.847,0.922,1.356,0.922c1.363,0,2.686-0.101,3.932-0.299
		c0.469-0.075,0.596-0.544,0.284-1.048S51.088,61.291,50.62,61.366"/>
	<path clip-path="url(#SVGID_2_)" fill="#FCFCFC" d="M64.655,52.459c1.333-4.781,0.549-10.474-2.266-16.463
		c-3.474-7.393-9.627-14.329-17.324-19.533c-0.53-0.358-1.113-0.356-1.302,0.006c-0.188,0.362,0.089,0.946,0.619,1.305
		c7.181,4.854,12.92,11.326,16.162,18.222c2.626,5.587,3.357,10.898,2.114,15.357c-1.202,4.313-4.273,7.562-8.646,9.147
		c-0.416,0.151-0.445,0.668-0.066,1.155c0.309,0.396,0.793,0.649,1.187,0.649c0.091,0,0.176-0.013,0.254-0.042
		C60.075,60.563,63.367,57.082,64.655,52.459"/>
	<path clip-path="url(#SVGID_2_)" fill="#FCFCFC" d="M5.311,35.996c-0.24-0.509-0.847-0.922-1.356-0.922
		c-0.51,0-0.729,0.413-0.489,0.922c3.099,6.594,8.085,12.906,14.419,18.253c0.299,0.252,0.646,0.386,0.933,0.386
		c0.186,0,0.347-0.056,0.455-0.172c0.275-0.296,0.101-0.873-0.39-1.287C12.921,48.144,8.228,42.203,5.311,35.996"/>
	<path clip-path="url(#SVGID_2_)" fill="#FCFCFC" d="M27.755,59.376c-1.874-1.065-3.721-2.259-5.493-3.549
		c-0.519-0.378-1.117-0.407-1.334-0.065s0.027,0.925,0.547,1.303c1.881,1.369,3.843,2.638,5.833,3.769
		c0.229,0.131,0.458,0.194,0.656,0.194c0.275,0,0.49-0.123,0.562-0.357C28.65,60.269,28.305,59.689,27.755,59.376"/>
	<path clip-path="url(#SVGID_2_)" fill="#FCFCFC" d="M48.799,65.58c-5.396,0-11.364-1.466-17.261-4.239
		c-0.56-0.264-1.061-0.124-1.12,0.313c-0.058,0.436,0.348,1.003,0.909,1.267c6.266,2.947,12.607,4.505,18.339,4.505
		c0.509,0,0.729-0.413,0.489-0.923C49.916,65.993,49.308,65.58,48.799,65.58"/>
	<path clip-path="url(#SVGID_2_)" fill="#FCFCFC" d="M56.111,23.786c3.552,3.845,6.367,7.953,8.368,12.21
		c0.239,0.51,0.847,0.923,1.356,0.923c0.51,0,0.729-0.413,0.489-0.923c-2.125-4.522-5.117-8.887-8.891-12.973
		c-3.646-3.947-7.827-7.429-12.427-10.347c-0.539-0.342-1.108-0.313-1.272,0.065s0.14,0.961,0.678,1.303
		C48.743,16.792,52.679,20.07,56.111,23.786"/>
	<path clip-path="url(#SVGID_2_)" fill="#FCFCFC" d="M35.845,9.592c1.64,0.671,3.292,1.451,4.909,2.316
		c0.218,0.116,0.431,0.172,0.617,0.172c0.288,0,0.508-0.134,0.57-0.386c0.102-0.415-0.265-0.991-0.819-1.287
		c-1.718-0.919-3.473-1.747-5.215-2.46c-0.563-0.23-1.033-0.049-1.049,0.405C34.84,8.807,35.283,9.362,35.845,9.592"/>
	<path clip-path="url(#SVGID_2_)" fill="#FCFCFC" d="M20.992,6.412c3.269,0,6.728,0.529,10.283,1.573
		c0.114,0.034,0.222,0.049,0.32,0.049c0.384,0,0.629-0.242,0.58-0.625c-0.063-0.482-0.566-1.006-1.126-1.17
		c-3.777-1.109-7.453-1.672-10.924-1.672c-0.509,0-0.728,0.414-0.489,0.923S20.482,6.412,20.992,6.412"/>
	<path clip-path="url(#SVGID_2_)" fill="#FCFCFC" d="M-2.315,15.062c0.236,0.138,0.472,0.205,0.676,0.205
		c0.269,0,0.48-0.117,0.557-0.342c1.241-3.659,3.474-6.604,6.637-8.752c0.343-0.233,0.26-0.79-0.186-1.242
		c-0.446-0.453-1.086-0.631-1.43-0.398c-3.336,2.266-5.692,5.372-7.001,9.232C-3.196,14.161-2.862,14.741-2.315,15.062"/>
	<path clip-path="url(#SVGID_2_)" fill="#FCFCFC" d="M-3.182,20.807c0.171,0.072,0.334,0.106,0.479,0.106
		c0.332,0,0.568-0.18,0.585-0.494c0.05-0.892,0.151-1.774,0.302-2.622c0.076-0.428-0.314-0.999-0.873-1.276
		c-0.558-0.277-1.072-0.155-1.147,0.273c-0.159,0.894-0.266,1.825-0.318,2.767C-4.18,20.012-3.744,20.57-3.182,20.807"/>
	<path clip-path="url(#SVGID_2_)" fill="#FCFCFC" d="M72.105,56.93c-0.547-0.32-1.099-0.259-1.233,0.137
		c-1.241,3.66-3.475,6.604-6.637,8.752c-0.343,0.233-0.26,0.79,0.186,1.243c0.313,0.318,0.722,0.5,1.056,0.5
		c0.142,0,0.271-0.033,0.374-0.103c3.337-2.266,5.692-5.373,7.001-9.232C72.986,57.832,72.652,57.25,72.105,56.93"/>
	<path clip-path="url(#SVGID_2_)" fill="#FCFCFC" d="M72.976,50.922c-0.563-0.233-1.035-0.055-1.056,0.397
		c-0.044,0.98-0.149,1.947-0.314,2.873c-0.076,0.428,0.315,0.999,0.873,1.276c0.203,0.101,0.399,0.148,0.571,0.148
		c0.302,0,0.528-0.148,0.577-0.421c0.174-0.978,0.285-1.998,0.332-3.032C73.978,51.711,73.539,51.155,72.976,50.922"/>
	<path clip-path="url(#SVGID_2_)" fill="#FCFCFC" d="M44.117,55.617c10.819,0,15.485-8.802,10.4-19.622
		c-5.084-10.819-18.023-19.621-28.843-19.621c-10.819,0-15.484,8.802-10.4,19.621C20.358,46.815,33.297,55.617,44.117,55.617
		 M26.541,18.22c9.802,0,21.524,7.974,26.13,17.776s0.38,17.776-9.422,17.776c-9.802,0-21.524-7.975-26.13-17.776
		C12.512,26.194,16.739,18.22,26.541,18.22"/>
	<path clip-path="url(#SVGID_2_)" fill="#FCFCFC" d="M2.246,18.879c0.283,0,0.502-0.13,0.567-0.376
		c0.644-2.437,1.78-4.579,3.375-6.368c0.269-0.302,0.086-0.879-0.409-1.29s-1.113-0.499-1.382-0.198
		c-1.694,1.9-2.9,4.175-3.584,6.763c-0.109,0.411,0.251,0.988,0.803,1.29C1.838,18.821,2.056,18.879,2.246,18.879"/>
	<path clip-path="url(#SVGID_2_)" fill="#FCFCFC" d="M66.977,53.489c-0.672,2.543-1.878,4.762-3.583,6.595
		c-0.275,0.296-0.1,0.873,0.391,1.287c0.298,0.252,0.645,0.386,0.933,0.386c0.186,0,0.347-0.056,0.455-0.172
		c1.81-1.947,3.09-4.304,3.805-7.004c0.108-0.411-0.251-0.988-0.804-1.29C67.621,52.99,67.085,53.078,66.977,53.489"/>
</g>
</svg>
