<?xml version="1.0" encoding="UTF-8"?>
<svg width="28px" height="28px" viewBox="0 0 28 28" version="1.1" xmlns="http://www.w3.org/2000/svg" xmlns:xlink="http://www.w3.org/1999/xlink">
    <!-- Generator: sketchtool 52.1 (67048) - http://www.bohemiancoding.com/sketch -->
    <title>8D0DB4DE-35B5-4EFB-BB31-5F1C63525481</title>
    <desc>Created with sketchtool.</desc>
    <g id="Landing-page-2018-Aug" stroke="none" stroke-width="1" fill="none" fill-rule="evenodd">
        <g id="Menu" transform="translate(-239.000000, -393.000000)" fill="#FFFFFF">
            <g id="Group-30" transform="translate(213.000000, 377.004883)">
                <path d="M30.6072077,28.6236836 L35.0985474,30.5782637 C35.4225936,30.7201283 35.6688294,31.0320055 35.7584592,31.4148149 L36.3287411,33.883936 C36.3533647,33.5968289 36.4676181,33.3288623 36.6498325,33.1295762 L47.8781818,20.7625786 L30.6072077,28.6236836 Z M36.5070158,34.7159836 L37.3087593,38.2198161 L39.0550631,36.7944138 L36.7739353,35.0222312 C36.6675615,34.9411656 36.5779317,34.8387078 36.5070158,34.7171095 L36.5070158,34.7159836 Z M41.5509085,35.7551987 L47.5935333,40.4412369 L50.8556643,20.8605328 L39.0737771,33.8411514 L41.5154506,35.7349323 C41.5331795,35.7349323 41.5331795,35.7563246 41.5509085,35.7563246 L41.5509085,35.7551987 Z M48.34209,43.7221392 C48.1263875,43.7266429 47.9156097,43.6557105 47.7363501,43.5183495 L40.9451686,38.2614748 L37.3087593,41.2563959 C36.831062,41.6504645 36.1632707,41.5288662 35.8185407,40.9827997 C35.7407302,40.8612014 35.6845885,40.7249663 35.6511004,40.5808498 L33.8161517,32.6375534 L27.2751458,29.784497 C26.7235777,29.5345449 26.4546883,28.8195919 26.6743306,28.1890822 C26.7836593,27.8760792 27.0013316,27.627253 27.2751458,27.5034029 L52.120331,16.1958869 C52.2335995,16.1407173 52.3537625,16.10694 52.4768804,16.094555 L52.5999982,16.094555 C52.8541135,16.1159473 53.0944396,16.2375456 53.277639,16.4413353 L53.3308259,16.5010085 C53.4864469,16.6980428 53.5810014,16.9491208 53.5977454,17.2148356 L53.5977454,17.4186253 C53.5977454,17.4591581 53.5800164,17.5199573 53.5800164,17.5616159 L49.394009,42.7437233 C49.3270329,43.147925 49.0867068,43.486824 48.7528112,43.6444514 C48.6227987,43.7029988 48.4829368,43.7300206 48.3430749,43.725517 L48.34209,43.7221392 Z" id="Telegram"></path>
            </g>
        </g>
    </g>
</svg>