<?xml version="1.0" encoding="UTF-8"?>
<svg width="194px" height="107px" viewBox="0 0 194 107" version="1.1" xmlns="http://www.w3.org/2000/svg" xmlns:xlink="http://www.w3.org/1999/xlink">
    <!-- Generator: Sketch 50 (54983) - http://www.bohemiancoding.com/sketch -->
    <title>app icon@3x</title>
    <desc>Created with Sketch.</desc>
    <defs></defs>
    <g id="LP3" stroke="none" stroke-width="1" fill="none" fill-rule="evenodd">
        <g id="LP3-1366" transform="translate(-892.000000, -3685.000000)">
            <g id="Product" transform="translate(237.000000, 3534.000000)">
                <g id="products" transform="translate(0.000000, 99.000000)">
                    <g id="app" transform="translate(621.000000, 0.000000)">
                        <g id="app-icon" transform="translate(34.000000, 51.000000)">
                            <polygon id="Fill-1" fill="#FFFFFF" points="161.5234 93.24 91.2514 103.216 48.1334 65.074 118.4034 55.098"></polygon>
                            <polygon id="Fill-2" fill="#3889C9" points="118.4044 55.0974 118.4044 3.2254 48.1324 12.9394 48.1324 65.0734"></polygon>
                            <polygon id="Fill-3" fill="#3250A3" points="118.4044 3.2264 118.4044 55.0984 161.5244 93.2404 161.5244 34.1504"></polygon>
                            <polygon id="Fill-4" fill="#3250A3" points="48.1374 69.8742 91.2794 108.0042 91.2534 103.2182 48.1274 65.0882"></polygon>
                            <polygon id="Fill-5" fill="#3889C9" points="91.2528 103.2174 91.2808 108.0034 161.5228 98.0274 161.5228 93.2394"></polygon>
                            <g id="Group-76" transform="translate(0.000000, 0.003600)">
                                <path d="M65.4532,51.2696 C65.4532,51.4116 65.3812,51.5416 65.2232,51.6436 L62.9292,53.2476 C62.7572,53.3776 62.5292,53.4196 62.2992,53.3916 C62.1432,53.3916 61.9852,53.3336 61.8692,53.2476 L60.5372,52.3296 L60.5232,52.3296 C59.6352,52.7176 58.6172,53.0036 57.5992,53.1756 L57.5992,54.4796 C57.5992,54.7816 57.2992,55.0096 56.8832,55.0096 L53.6292,55.0096 C53.2132,55.0096 52.7552,54.7816 52.7552,54.4796 L52.7552,53.1756 C51.9952,53.0036 50.8212,52.7296 49.9032,52.3436 L48.6432,53.2616 C48.3412,53.4636 47.8692,53.4636 47.5812,53.2616 L45.2732,51.6556 C45.1452,51.5576 45.0752,51.4416 45.0752,51.3256 L45.0752,48.0736 C45.0872,48.2036 45.1452,48.3036 45.2732,48.3896 L45.7472,48.7196 L47.5812,49.9936 C47.7672,50.1376 48.0112,50.1796 48.2552,50.1236 L48.2692,50.1236 C48.3992,50.1236 48.5412,50.0796 48.6432,49.9936 L49.9032,49.0756 C50.8212,49.4636 51.9952,49.7496 52.7552,49.9076 L52.7552,51.2276 C52.7552,51.5136 53.2132,51.7576 53.6292,51.7576 L56.8832,51.7576 C57.2992,51.7576 57.5992,51.5136 57.5992,51.2276 L57.5992,49.9216 C58.6172,49.7356 59.6352,49.4496 60.5232,49.0616 L60.5372,49.0616 L61.8692,49.9936 C61.9972,50.0796 62.1432,50.1236 62.3152,50.1236 C62.3872,50.1516 62.4432,50.1516 62.5152,50.1236 C62.5852,50.1236 62.6592,50.1096 62.7152,50.0936 C62.8012,50.0656 62.8732,50.0376 62.9292,49.9936 L64.7372,48.7316 C64.8352,48.5616 64.9212,48.3896 64.9952,48.2036 L65.4232,47.8876 L65.4532,51.2696 Z" id="Fill-6" fill="#3250A3"></path>
                                <path d="M64.9942,48.2032 C64.9222,48.3892 64.8362,48.5612 64.7362,48.7332 L62.9302,49.9952 C62.7742,50.1092 62.5302,50.1532 62.3142,50.1232 L64.9942,48.2032 Z" id="Fill-8" fill="#49505A"></path>
                                <polygon id="Fill-10" fill="#49505A" points="67.7892 44.1466 67.7892 47.4146 65.2232 47.6446 65.1092 44.6346"></polygon>
                                <path d="M59.791,47.1134 C59.763,47.1714 59.749,47.2134 59.721,47.2714 C59.691,47.3414 59.649,47.4294 59.605,47.4994 C59.577,47.5434 59.549,47.6014 59.519,47.6454 C59.505,47.6714 59.477,47.7014 59.463,47.7434 C59.419,47.8014 59.361,47.8594 59.319,47.9294 C59.275,47.9734 59.233,48.0154 59.205,48.0594 L59.103,48.1594 C59.077,48.1874 59.033,48.2334 59.003,48.2594 C58.991,48.2754 58.961,48.3034 58.931,48.3174 C58.889,48.3614 58.845,48.4034 58.789,48.4314 C58.773,48.4614 58.747,48.4754 58.717,48.5034 C58.673,48.5334 58.617,48.5754 58.559,48.6034 C58.545,48.6334 58.515,48.6474 58.489,48.6614 C58.373,48.7334 58.257,48.8054 58.145,48.8774 C58.115,48.8914 58.085,48.9054 58.059,48.9194 C57.999,48.9474 57.929,48.9774 57.871,49.0054 C57.815,49.0334 57.743,49.0634 57.685,49.0914 C57.657,49.1054 57.613,49.1194 57.583,49.1354 C57.527,49.1614 57.455,49.1914 57.385,49.2054 C56.753,49.4354 56.023,49.5654 55.263,49.5654 C54.633,49.5654 54.045,49.4794 53.515,49.3354 C53.457,49.3214 53.415,49.3074 53.357,49.2914 C53.315,49.2774 53.271,49.2634 53.229,49.2474 C53.083,49.2054 52.955,49.1494 52.827,49.0914 C52.769,49.0634 52.697,49.0334 52.641,49.0054 C52.583,48.9774 52.511,48.9474 52.455,48.9194 C52.425,48.9054 52.397,48.8914 52.369,48.8774 C52.197,48.7754 52.039,48.6754 51.881,48.5614 C51.739,48.4614 51.593,48.3454 51.465,48.2174 L51.323,48.0734 C51.179,47.9154 51.051,47.7574 50.949,47.5854 C50.705,47.1854 50.577,46.7554 50.577,46.2974 C50.577,45.7094 50.807,45.1514 51.193,44.6614 C51.437,44.3774 51.751,44.1034 52.109,43.8754 C52.197,43.8174 52.283,43.7734 52.369,43.7174 C52.397,43.7034 52.425,43.6874 52.455,43.6734 C52.511,43.6454 52.583,43.6174 52.641,43.5874 C52.827,43.5014 53.027,43.4154 53.229,43.3434 C53.299,43.3294 53.371,43.3014 53.429,43.2874 C53.989,43.1154 54.603,43.0294 55.263,43.0294 C56.023,43.0294 56.753,43.1574 57.385,43.3874 C57.455,43.4034 57.527,43.4294 57.583,43.4594 C57.685,43.5014 57.785,43.5454 57.871,43.5874 C57.929,43.6174 57.999,43.6454 58.059,43.6734 C58.085,43.6874 58.115,43.7034 58.145,43.7174 C58.201,43.7594 58.257,43.7894 58.317,43.8174 C58.403,43.8754 58.489,43.9314 58.559,43.9894 C58.617,44.0174 58.673,44.0614 58.717,44.1034 C58.845,44.1894 58.961,44.2914 59.077,44.4054 L59.205,44.5334 C59.233,44.5754 59.275,44.6194 59.319,44.6614 C59.377,44.7354 59.419,44.8074 59.477,44.8774 C59.777,45.3094 59.935,45.7954 59.935,46.2974 C59.935,46.5834 59.877,46.8554 59.791,47.1134 M67.331,44.5914 C67.231,44.5334 67.101,44.5054 66.987,44.5054 L65.109,44.5054 C64.865,43.9754 64.435,43.1574 63.905,42.5434 L65.223,41.6394 C65.381,41.5234 65.453,41.3814 65.423,41.2374 L65.453,37.9974 L62.615,37.7834 L62.701,39.2034 C62.429,39.1014 62.083,39.1454 61.855,39.3034 L60.523,40.2214 C59.605,39.8334 58.617,39.5614 57.599,39.3894 L57.599,38.0834 C57.599,37.7834 57.283,37.5554 56.869,37.5554 L53.615,37.5554 C53.199,37.5554 52.755,37.7834 52.755,38.0834 L52.755,39.3894 C51.997,39.5614 50.807,39.8474 49.917,40.2354 L49.903,40.2354 L48.613,39.3194 C48.369,39.1314 47.999,39.1014 47.711,39.2454 L47.925,38.6714 L45.075,38.1434 L45.059,41.2374 C45.031,41.3814 45.101,41.5394 45.259,41.6674 L46.579,42.5274 C46.205,42.9574 45.905,43.4734 45.689,43.9174 C45.561,44.1334 45.461,44.3334 45.389,44.5054 L43.511,44.5054 C43.383,44.5054 43.283,44.5334 43.181,44.5914 C43.283,44.6194 43.383,44.6354 43.511,44.6354 L45.389,44.6354 C45.633,45.3354 46.049,46.0694 46.607,46.6974 L46.593,46.7134 L46.565,46.7274 L45.273,47.6454 C45.173,47.7154 45.117,47.7874 45.101,47.8874 L45.389,47.8874 C45.447,48.0594 45.517,48.2334 45.589,48.4034 C45.633,48.5034 45.689,48.6034 45.749,48.7194 L47.583,49.9934 C47.767,50.1374 48.011,50.1794 48.255,50.1234 L48.269,50.1234 C48.399,50.1234 48.541,50.0794 48.643,49.9934 L49.903,49.0754 C50.821,49.4634 51.997,49.7494 52.755,49.9074 L52.755,51.2274 C52.755,51.5134 53.213,51.7574 53.629,51.7574 L56.883,51.7574 C57.299,51.7574 57.599,51.5134 57.599,51.2274 L57.599,49.9214 C58.617,49.7374 59.635,49.4494 60.523,49.0634 L60.537,49.0634 L61.869,49.9934 C61.999,50.0794 62.143,50.1234 62.315,50.1234 C62.529,50.1534 62.773,50.1094 62.929,49.9934 L64.737,48.7334 C64.835,48.5614 64.921,48.3894 64.995,48.2034 C65.037,48.1014 65.067,47.9874 65.109,47.8874 L66.987,47.8874 C67.403,47.8874 67.789,47.7014 67.789,47.4134 L67.789,45.1374 C67.789,44.9354 67.587,44.7054 67.331,44.5914" id="Fill-12" fill="#3250A3"></path>
                                <path d="M46.6074,46.6974 L46.5934,46.7134 L46.5654,46.7274 L45.2734,47.6454 C45.1734,47.7154 45.1174,47.7874 45.1014,47.8874 L43.5114,47.8874 C43.0954,47.8874 42.8234,47.7154 42.8234,47.4294 L42.8234,44.1614 C42.8234,44.3614 42.9534,44.5194 43.1814,44.5914 C43.2834,44.6194 43.3834,44.6354 43.5114,44.6354 L45.3894,44.6354 C45.6334,45.3354 46.0494,46.0694 46.6074,46.6974" id="Fill-14" fill="#3250A3"></path>
                                <path d="M59.791,43.8614 C59.763,43.9034 59.749,43.9614 59.721,44.0034 C59.691,44.0894 59.649,44.1614 59.605,44.2334 C59.577,44.2914 59.549,44.3334 59.519,44.3914 C59.505,44.4194 59.477,44.4474 59.463,44.4774 C59.419,44.5494 59.361,44.6054 59.319,44.6614 C59.275,44.7054 59.233,44.7634 59.205,44.8074 C59.163,44.8334 59.133,44.8634 59.103,44.9054 C59.077,44.9354 59.033,44.9654 59.003,44.9914 C58.991,45.0214 58.961,45.0354 58.931,45.0654 C58.889,45.0934 58.845,45.1374 58.789,45.1794 C58.773,45.1934 58.747,45.2234 58.717,45.2354 C58.673,45.2794 58.617,45.3094 58.559,45.3514 C58.545,45.3654 58.515,45.3954 58.489,45.4074 C58.373,45.4814 58.257,45.5514 58.145,45.6094 C58.115,45.6234 58.085,45.6374 58.059,45.6654 C57.999,45.6954 57.929,45.7234 57.871,45.7514 C57.815,45.7814 57.743,45.8094 57.685,45.8374 C57.657,45.8514 57.613,45.8674 57.583,45.8814 C57.527,45.8954 57.455,45.9234 57.385,45.9534 C56.753,46.1814 56.023,46.3114 55.263,46.3114 C54.633,46.3114 54.045,46.2254 53.515,46.0694 C53.457,46.0534 53.415,46.0394 53.357,46.0254 C53.315,46.0094 53.271,45.9954 53.229,45.9814 C53.083,45.9374 52.955,45.8954 52.827,45.8374 C52.769,45.8094 52.697,45.7814 52.641,45.7514 C52.583,45.7234 52.511,45.6954 52.455,45.6654 C52.425,45.6374 52.397,45.6234 52.369,45.6094 C52.197,45.5234 52.039,45.4214 51.881,45.3094 C51.739,45.1934 51.593,45.0774 51.465,44.9654 C51.421,44.9054 51.365,44.8634 51.323,44.8074 C51.279,44.7634 51.237,44.7214 51.193,44.6614 C51.107,44.5494 51.021,44.4334 50.949,44.3194 C50.705,43.9314 50.577,43.4874 50.577,43.0434 C50.577,42.0834 51.165,41.2094 52.109,40.6214 C52.197,40.5654 52.283,40.5054 52.369,40.4654 C52.397,40.4494 52.425,40.4354 52.455,40.4194 C52.511,40.3794 52.583,40.3494 52.641,40.3194 C52.827,40.2354 53.027,40.1614 53.229,40.0914 C53.299,40.0634 53.371,40.0494 53.429,40.0194 C53.989,39.8614 54.603,39.7614 55.263,39.7614 C56.023,39.7614 56.753,39.8914 57.385,40.1194 C57.455,40.1494 57.527,40.1774 57.583,40.2054 C57.685,40.2354 57.785,40.2774 57.871,40.3194 C57.929,40.3494 57.999,40.3794 58.059,40.4194 C58.085,40.4354 58.115,40.4494 58.145,40.4654 C58.201,40.4914 58.257,40.5354 58.317,40.5654 C58.403,40.6214 58.489,40.6634 58.559,40.7234 C58.617,40.7654 58.673,40.7934 58.717,40.8354 C58.845,40.9374 58.961,41.0374 59.077,41.1374 C59.119,41.1794 59.163,41.2234 59.205,41.2814 C59.233,41.3234 59.275,41.3674 59.319,41.4094 C59.377,41.4814 59.419,41.5534 59.477,41.6254 C59.777,42.0554 59.935,42.5274 59.935,43.0434 C59.935,43.3174 59.877,43.5874 59.791,43.8614 M66.987,41.2374 L65.109,41.2374 C65.023,41.0514 64.921,40.8354 64.779,40.6074 C64.565,40.1774 64.249,39.6894 63.905,39.2754 L65.223,38.3874 C65.509,38.1714 65.509,37.8414 65.223,37.6414 L62.915,36.0354 C62.629,35.8354 62.157,35.8354 61.855,36.0354 L60.523,36.9674 C59.605,36.5794 58.617,36.2934 57.599,36.1374 L57.599,34.8174 C57.599,34.5314 57.283,34.3014 56.869,34.3014 L53.615,34.3014 C53.199,34.3014 52.755,34.5314 52.755,34.8174 L52.755,36.1214 C51.997,36.3094 50.807,36.5934 49.917,36.9814 L49.903,36.9814 L48.613,36.0514 C48.327,35.8494 47.853,35.8494 47.553,36.0514 L45.259,37.6534 C44.973,37.8694 44.973,38.1994 45.259,38.4014 L46.579,39.2594 C46.221,39.6894 45.919,40.1774 45.705,40.6074 C45.577,40.8354 45.475,41.0514 45.389,41.2374 L43.511,41.2374 C43.095,41.2374 42.825,41.5954 42.825,41.8974 L42.825,44.1614 C42.825,44.3614 42.953,44.5194 43.181,44.5914 C43.283,44.6194 43.383,44.6354 43.511,44.6354 L45.389,44.6354 C45.633,45.3354 46.049,46.0694 46.607,46.6974 L46.593,46.7134 L46.565,46.7274 L45.273,47.6454 C45.173,47.7154 45.117,47.7874 45.101,47.8874 C45.059,47.9454 45.059,48.0154 45.075,48.0734 C45.087,48.2034 45.145,48.3034 45.273,48.3894 L45.749,48.7194 L47.583,49.9934 C47.767,50.1374 48.011,50.1794 48.255,50.1234 L48.269,50.1234 C48.399,50.1234 48.541,50.0794 48.643,49.9934 L49.903,49.0754 C50.821,49.4634 51.997,49.7494 52.755,49.9074 L52.755,51.2274 C52.755,51.5134 53.213,51.7574 53.629,51.7574 L56.883,51.7574 C57.299,51.7574 57.599,51.5134 57.599,51.2274 L57.599,49.9214 C58.617,49.7374 59.635,49.4494 60.523,49.0634 L60.537,49.0634 L61.869,49.9934 C62.157,50.1954 62.645,50.1954 62.929,49.9934 L64.737,48.7334 L65.223,48.3894 C65.423,48.2594 65.497,48.0594 65.423,47.8874 C65.395,47.7874 65.325,47.7154 65.223,47.6454 L63.905,46.6974 C64.463,46.0534 64.865,45.3354 65.109,44.6354 L66.987,44.6354 C67.101,44.6354 67.231,44.6194 67.331,44.5914 C67.587,44.5194 67.789,44.3614 67.789,44.1474 L67.789,41.8834 C67.789,41.5954 67.403,41.2374 66.987,41.2374" id="Fill-16" fill="#1B243B"></path>
                                <path d="M134.086,87.6994 C134.086,87.9014 133.986,88.0814 133.764,88.2234 L130.538,90.4834 C130.294,90.6614 129.972,90.7234 129.65,90.6834 C129.428,90.6834 129.208,90.6014 129.044,90.4834 L127.17,89.1914 L127.15,89.1914 C125.9,89.7354 124.468,90.1394 123.038,90.3814 L123.038,92.2154 C123.038,92.6394 122.614,92.9614 122.028,92.9614 L117.452,92.9614 C116.868,92.9614 116.22,92.6394 116.22,92.2154 L116.22,90.3814 C115.152,90.1394 113.498,89.7554 112.21,89.2114 L110.434,90.5014 C110.01,90.7834 109.346,90.7834 108.942,90.5014 L105.696,88.2414 C105.514,88.1014 105.412,87.9414 105.412,87.7794 L105.412,83.2014 C105.434,83.3834 105.514,83.5254 105.696,83.6474 L106.362,84.1094 L108.942,85.9054 C109.204,86.1054 109.546,86.1654 109.888,86.0854 L109.91,86.0854 C110.092,86.0854 110.294,86.0254 110.434,85.9054 L112.21,84.6134 C113.498,85.1574 115.152,85.5614 116.22,85.7834 L116.22,87.6394 C116.22,88.0414 116.868,88.3854 117.452,88.3854 L122.028,88.3854 C122.614,88.3854 123.038,88.0414 123.038,87.6394 L123.038,85.8034 C124.468,85.5414 125.9,85.1394 127.15,84.5934 L127.17,84.5934 L129.044,85.9054 C129.226,86.0254 129.428,86.0854 129.67,86.0854 C129.772,86.1274 129.852,86.1274 129.954,86.0854 C130.054,86.0854 130.154,86.0674 130.234,86.0454 C130.356,86.0054 130.458,85.9654 130.538,85.9054 L133.078,84.1294 C133.218,83.8894 133.34,83.6474 133.442,83.3834 L134.046,82.9394 L134.086,87.6994 Z" id="Fill-18" fill="#3250A3"></path>
                                <path d="M133.4414,83.383 C133.3394,83.647 133.2194,83.889 133.0774,84.129 L130.5374,85.905 C130.3174,86.067 129.9734,86.127 129.6694,86.087 L133.4414,83.383 Z" id="Fill-20" fill="#49505A"></path>
                                <polygon id="Fill-22" fill="#49505A" points="137.3732 77.6778 137.3732 82.2758 133.7632 82.5978 133.6032 78.3638"></polygon>
                                <path d="M126.1212,81.8516 C126.0812,81.9316 126.0612,81.9916 126.0212,82.0716 C125.9812,82.1736 125.9192,82.2956 125.8592,82.3956 C125.8192,82.4576 125.7792,82.5376 125.7392,82.5976 C125.7192,82.6376 125.6772,82.6776 125.6592,82.7376 C125.5972,82.8176 125.5172,82.8996 125.4572,82.9996 C125.3972,83.0596 125.3352,83.1216 125.2952,83.1816 L125.1552,83.3216 C125.1132,83.3636 125.0532,83.4236 125.0132,83.4656 C124.9932,83.4836 124.9532,83.5256 124.9132,83.5456 C124.8512,83.6056 124.7912,83.6656 124.7112,83.7076 C124.6892,83.7456 124.6512,83.7676 124.6092,83.8076 C124.5492,83.8476 124.4692,83.9076 124.3872,83.9496 C124.3672,83.9876 124.3272,84.0076 124.2872,84.0296 C124.1252,84.1296 123.9652,84.2296 123.8032,84.3316 C123.7612,84.3516 123.7232,84.3716 123.6812,84.3936 C123.6012,84.4316 123.4992,84.4736 123.4192,84.5136 C123.3392,84.5536 123.2392,84.5936 123.1592,84.6356 C123.1172,84.6536 123.0572,84.6736 123.0152,84.6936 C122.9352,84.7336 122.8332,84.7756 122.7352,84.7956 C121.8472,85.1176 120.8192,85.2996 119.7492,85.2996 C118.8632,85.2996 118.0352,85.1776 117.2892,84.9756 C117.2092,84.9576 117.1492,84.9356 117.0692,84.9156 C117.0072,84.8956 116.9472,84.8756 116.8872,84.8556 C116.6852,84.7956 116.5032,84.7156 116.3232,84.6356 C116.2412,84.5936 116.1412,84.5536 116.0612,84.5136 C115.9792,84.4736 115.8792,84.4316 115.7972,84.3936 C115.7572,84.3716 115.7172,84.3516 115.6752,84.3316 C115.4352,84.1896 115.2132,84.0496 114.9912,83.8896 C114.7892,83.7456 114.5872,83.5856 114.4072,83.4036 C114.3452,83.3436 114.2652,83.2616 114.2052,83.2016 C114.0032,82.9796 113.8232,82.7576 113.6792,82.5156 C113.3372,81.9516 113.1572,81.3476 113.1572,80.7016 C113.1572,79.8756 113.4792,79.0876 114.0232,78.4016 C114.3652,77.9996 114.8092,77.6176 115.3152,77.2956 C115.4352,77.2136 115.5552,77.1516 115.6752,77.0716 C115.7172,77.0536 115.7572,77.0316 115.7972,77.0116 C115.8792,76.9716 115.9792,76.9316 116.0612,76.8916 C116.3232,76.7696 116.6032,76.6476 116.8872,76.5496 C116.9872,76.5276 117.0872,76.4876 117.1672,76.4676 C117.9552,76.2256 118.8232,76.1036 119.7492,76.1036 C120.8192,76.1036 121.8472,76.2856 122.7352,76.6076 C122.8332,76.6296 122.9352,76.6676 123.0152,76.7096 C123.1592,76.7696 123.2992,76.8296 123.4192,76.8916 C123.4992,76.9316 123.6012,76.9716 123.6812,77.0116 C123.7232,77.0316 123.7612,77.0536 123.8032,77.0716 C123.8832,77.1336 123.9652,77.1736 124.0452,77.2136 C124.1652,77.2956 124.2872,77.3756 124.3872,77.4556 C124.4692,77.4956 124.5492,77.5576 124.6092,77.6176 C124.7912,77.7376 124.9532,77.8796 125.1132,78.0416 L125.2952,78.2216 C125.3352,78.2816 125.3972,78.3416 125.4572,78.4016 C125.5372,78.5036 125.5972,78.6056 125.6772,78.7056 C126.1012,79.3096 126.3252,79.9956 126.3252,80.7016 C126.3252,81.1056 126.2432,81.4876 126.1212,81.8516 M136.7292,78.3036 C136.5872,78.2216 136.4072,78.1816 136.2452,78.1816 L133.6032,78.1816 C133.2592,77.4356 132.6552,76.2856 131.9092,75.4176 L133.7632,74.1476 C133.9872,73.9856 134.0852,73.7856 134.0472,73.5836 L134.0852,69.0276 L130.0932,68.7256 L130.2152,70.7216 C129.8312,70.5796 129.3472,70.6416 129.0252,70.8616 L127.1512,72.1516 C125.8592,71.6076 124.4692,71.2256 123.0372,70.9816 L123.0372,69.1476 C123.0372,68.7256 122.5932,68.4016 122.0072,68.4016 L117.4312,68.4016 C116.8452,68.4016 116.2212,68.7256 116.2212,69.1476 L116.2212,70.9816 C115.1532,71.2256 113.4792,71.6276 112.2292,72.1716 L112.2092,72.1716 L110.3952,70.8836 C110.0512,70.6196 109.5272,70.5796 109.1232,70.7816 L109.4252,69.9756 L105.4132,69.2276 L105.3932,73.5836 C105.3512,73.7856 105.4532,74.0076 105.6752,74.1896 L107.5292,75.3976 C107.0052,76.0036 106.5812,76.7276 106.2792,77.3556 C106.0972,77.6556 105.9572,77.9396 105.8572,78.1816 L103.2152,78.1816 C103.0332,78.1816 102.8932,78.2216 102.7512,78.3036 C102.8932,78.3416 103.0332,78.3636 103.2152,78.3636 L105.8572,78.3636 C106.1992,79.3516 106.7832,80.3796 107.5712,81.2656 L107.5512,81.2876 L107.5092,81.3076 L105.6952,82.5976 C105.5552,82.6976 105.4732,82.7996 105.4532,82.9396 L105.8572,82.9396 C105.9372,83.1816 106.0372,83.4236 106.1392,83.6656 C106.1992,83.8076 106.2792,83.9496 106.3612,84.1096 L108.9412,85.9036 C109.2032,86.1056 109.5472,86.1656 109.8892,86.0856 L109.9112,86.0856 C110.0912,86.0856 110.2932,86.0256 110.4332,85.9036 L112.2092,84.6136 C113.4972,85.1576 115.1532,85.5596 116.2212,85.7836 L116.2212,87.6396 C116.2212,88.0416 116.8672,88.3856 117.4512,88.3856 L122.0272,88.3856 C122.6132,88.3856 123.0372,88.0416 123.0372,87.6396 L123.0372,85.8036 C124.4692,85.5416 125.9012,85.1396 127.1512,84.5936 L127.1692,84.5936 L129.0452,85.9036 C129.2272,86.0256 129.4272,86.0856 129.6692,86.0856 C129.9732,86.1276 130.3172,86.0656 130.5372,85.9036 L133.0792,84.1296 C133.2192,83.8896 133.3392,83.6456 133.4412,83.3836 C133.5012,83.2416 133.5432,83.0816 133.6032,82.9396 L136.2452,82.9396 C136.8292,82.9396 137.3732,82.6776 137.3732,82.2756 L137.3732,79.0676 C137.3732,78.7876 137.0912,78.4636 136.7292,78.3036" id="Fill-24" fill="#3250A3"></path>
                                <path d="M107.5704,81.2658 L107.5504,81.2878 L107.5104,81.3078 L105.6964,82.5978 C105.5544,82.6978 105.4724,82.7998 105.4524,82.9398 L103.2144,82.9398 C102.6304,82.9398 102.2484,82.6978 102.2484,82.2958 L102.2484,77.6978 C102.2484,77.9798 102.4284,78.2018 102.7524,78.3038 C102.8924,78.3418 103.0324,78.3638 103.2144,78.3638 L105.8584,78.3638 C106.1984,79.3518 106.7824,80.3798 107.5704,81.2658" id="Fill-26" fill="#3250A3"></path>
                                <path d="M126.1212,77.2736 C126.0812,77.3336 126.0612,77.4156 126.0212,77.4756 C125.9812,77.5956 125.9192,77.6976 125.8592,77.7996 C125.8192,77.8796 125.7792,77.9396 125.7392,78.0196 C125.7192,78.0616 125.6772,78.0996 125.6592,78.1416 C125.5972,78.2416 125.5172,78.3216 125.4572,78.4016 C125.3972,78.4636 125.3352,78.5456 125.2952,78.6056 C125.2352,78.6456 125.1932,78.6856 125.1552,78.7456 C125.1132,78.7876 125.0532,78.8256 125.0132,78.8676 C124.9932,78.9076 124.9532,78.9276 124.9132,78.9676 C124.8512,79.0076 124.7912,79.0676 124.7112,79.1296 C124.6892,79.1476 124.6512,79.1896 124.6092,79.2096 C124.5492,79.2696 124.4692,79.3116 124.3872,79.3716 C124.3672,79.3916 124.3272,79.4316 124.2872,79.4516 C124.1252,79.5536 123.9652,79.6516 123.8032,79.7336 C123.7612,79.7536 123.7232,79.7736 123.6812,79.8156 C123.6012,79.8556 123.4992,79.8956 123.4192,79.9356 C123.3392,79.9776 123.2392,80.0156 123.1592,80.0576 C123.1172,80.0756 123.0572,80.0976 123.0152,80.1176 C122.9352,80.1376 122.8332,80.1776 122.7352,80.2176 C121.8472,80.5416 120.8192,80.7236 119.7492,80.7236 C118.8632,80.7236 118.0352,80.6016 117.2892,80.3796 C117.2092,80.3596 117.1492,80.3376 117.0692,80.3176 C117.0072,80.2996 116.9472,80.2776 116.8872,80.2576 C116.6852,80.1976 116.5032,80.1376 116.3232,80.0576 C116.2412,80.0156 116.1412,79.9776 116.0612,79.9356 C115.9792,79.8956 115.8792,79.8556 115.7972,79.8156 C115.7572,79.7736 115.7172,79.7536 115.6752,79.7336 C115.4352,79.6136 115.2132,79.4736 114.9912,79.3116 C114.7892,79.1476 114.5872,78.9876 114.4072,78.8256 C114.3452,78.7456 114.2652,78.6856 114.2052,78.6056 C114.1452,78.5456 114.0832,78.4836 114.0232,78.4016 C113.9032,78.2416 113.7812,78.0796 113.6792,77.9196 C113.3372,77.3756 113.1572,76.7496 113.1572,76.1256 C113.1572,74.7736 113.9832,73.5436 115.3152,72.7176 C115.4352,72.6376 115.5552,72.5556 115.6752,72.4936 C115.7172,72.4756 115.7572,72.4556 115.7972,72.4336 C115.8792,72.3756 115.9792,72.3336 116.0612,72.2936 C116.3232,72.1716 116.6032,72.0716 116.8872,71.9716 C116.9872,71.9296 117.0872,71.9096 117.1672,71.8696 C117.9552,71.6476 118.8232,71.5076 119.7492,71.5076 C120.8192,71.5076 121.8472,71.6876 122.7352,72.0116 C122.8332,72.0516 122.9352,72.0916 123.0152,72.1336 C123.1592,72.1716 123.2992,72.2316 123.4192,72.2936 C123.4992,72.3336 123.6012,72.3756 123.6812,72.4336 C123.7232,72.4556 123.7612,72.4756 123.8032,72.4936 C123.8832,72.5356 123.9652,72.5956 124.0452,72.6376 C124.1652,72.7176 124.2872,72.7776 124.3872,72.8576 C124.4692,72.9176 124.5492,72.9596 124.6092,73.0196 C124.7912,73.1596 124.9532,73.3016 125.1132,73.4436 C125.1732,73.5036 125.2352,73.5636 125.2952,73.6456 C125.3352,73.7056 125.3972,73.7656 125.4572,73.8256 C125.5372,73.9256 125.5972,74.0276 125.6772,74.1296 C126.1012,74.7316 126.3252,75.3996 126.3252,76.1256 C126.3252,76.5076 126.2432,76.8916 126.1212,77.2736 M136.2452,73.5836 L133.6032,73.5836 C133.4832,73.3216 133.3392,73.0196 133.1392,72.6976 C132.8352,72.0916 132.3932,71.4056 131.9092,70.8216 L133.7632,69.5696 C134.1672,69.2696 134.1672,68.8056 133.7632,68.5216 L130.5172,66.2636 C130.1132,65.9816 129.4492,65.9816 129.0252,66.2636 L127.1512,67.5736 C125.8592,67.0296 124.4692,66.6276 123.0372,66.4036 L123.0372,64.5516 C123.0372,64.1476 122.5932,63.8236 122.0072,63.8236 L117.4312,63.8236 C116.8452,63.8236 116.2212,64.1476 116.2212,64.5516 L116.2212,66.3856 C115.1532,66.6476 113.4792,67.0516 112.2292,67.5956 L112.2092,67.5956 L110.3952,66.2856 C109.9912,66.0016 109.3252,66.0016 108.9032,66.2856 L105.6752,68.5436 C105.2712,68.8456 105.2712,69.3096 105.6752,69.5916 L107.5292,70.8016 C107.0252,71.4056 106.6032,72.0916 106.3012,72.6976 C106.1192,73.0196 105.9792,73.3216 105.8572,73.5836 L103.2152,73.5836 C102.6312,73.5836 102.2472,74.0876 102.2472,74.5116 L102.2472,77.6976 C102.2472,77.9816 102.4272,78.2016 102.7512,78.3036 C102.8932,78.3416 103.0332,78.3636 103.2152,78.3636 L105.8572,78.3636 C106.1992,79.3516 106.7832,80.3796 107.5712,81.2656 L107.5512,81.2876 L107.5092,81.3076 L105.6952,82.5976 C105.5552,82.6976 105.4732,82.7996 105.4532,82.9396 C105.3932,83.0216 105.3932,83.1216 105.4132,83.2016 C105.4332,83.3836 105.5132,83.5256 105.6952,83.6476 L106.3612,84.1096 L108.9412,85.9036 C109.2032,86.1056 109.5472,86.1656 109.8892,86.0856 L109.9112,86.0856 C110.0912,86.0856 110.2932,86.0256 110.4332,85.9036 L112.2092,84.6136 C113.4972,85.1576 115.1532,85.5616 116.2212,85.7836 L116.2212,87.6396 C116.2212,88.0416 116.8672,88.3856 117.4512,88.3856 L122.0272,88.3856 C122.6132,88.3856 123.0372,88.0416 123.0372,87.6396 L123.0372,85.8036 C124.4692,85.5416 125.9012,85.1396 127.1512,84.5936 L127.1692,84.5936 L129.0452,85.9036 C129.4492,86.1856 130.1352,86.1856 130.5372,85.9036 L133.0792,84.1296 L133.7632,83.6476 C134.0472,83.4656 134.1472,83.1816 134.0472,82.9396 C134.0052,82.7996 133.9052,82.6976 133.7632,82.5976 L131.9092,81.2656 C132.6952,80.3596 133.2592,79.3516 133.6032,78.3636 L136.2452,78.3636 C136.4072,78.3636 136.5872,78.3416 136.7292,78.3036 C137.0912,78.2016 137.3732,77.9816 137.3732,77.6776 L137.3732,74.4896 C137.3732,74.0876 136.8292,73.5836 136.2452,73.5836" id="Fill-28" fill="#1B243B"></path>
                                <path d="M114.4238,17.965 C114.4238,18.107 114.3518,18.237 114.1958,18.337 L111.9018,19.941 C111.7298,20.071 111.4998,20.113 111.2718,20.087 C111.1138,20.087 110.9558,20.027 110.8418,19.941 L109.5078,19.025 L109.4938,19.025 C108.6058,19.413 107.5878,19.699 106.5698,19.871 L106.5698,21.173 C106.5698,21.475 106.2698,21.705 105.8538,21.705 L102.6018,21.705 C102.1858,21.705 101.7258,21.475 101.7258,21.173 L101.7258,19.871 C100.9658,19.699 99.7918,19.425 98.8758,19.039 L97.6138,19.957 C97.3118,20.157 96.8398,20.157 96.5518,19.957 L94.2458,18.351 C94.1178,18.251 94.0458,18.137 94.0458,18.021 L94.0458,14.767 C94.0578,14.897 94.1178,14.999 94.2458,15.085 L94.7178,15.415 L96.5518,16.689 C96.7378,16.833 96.9818,16.875 97.2258,16.819 L97.2398,16.819 C97.3698,16.819 97.5138,16.775 97.6138,16.689 L98.8758,15.771 C99.7918,16.159 100.9658,16.445 101.7258,16.603 L101.7258,17.923 C101.7258,18.207 102.1858,18.451 102.6018,18.451 L105.8538,18.451 C106.2698,18.451 106.5698,18.207 106.5698,17.923 L106.5698,16.617 C107.5878,16.431 108.6058,16.145 109.4938,15.757 L109.5078,15.757 L110.8418,16.689 C110.9698,16.775 111.1138,16.819 111.2858,16.819 C111.3578,16.845 111.4138,16.845 111.4858,16.819 C111.5578,16.819 111.6298,16.803 111.6878,16.789 C111.7738,16.759 111.8438,16.733 111.9018,16.689 L113.7078,15.427 C113.8078,15.257 113.8938,15.085 113.9658,14.897 L114.3938,14.583 L114.4238,17.965 Z" id="Fill-30" fill="#3250A3"></path>
                                <path d="M113.965,14.8966 C113.895,15.0846 113.809,15.2566 113.707,15.4286 L111.903,16.6886 C111.745,16.8026 111.501,16.8466 111.285,16.8186 L113.965,14.8966 Z" id="Fill-32" fill="#49505A"></path>
                                <polygon id="Fill-34" fill="#49505A" points="116.7598 10.842 116.7598 14.11 114.1958 14.338 114.0798 11.328"></polygon>
                                <path d="M108.7638,13.8088 C108.7338,13.8648 108.7218,13.9088 108.6918,13.9668 C108.6618,14.0368 108.6198,14.1228 108.5758,14.1948 C108.5498,14.2388 108.5198,14.2948 108.4898,14.3388 C108.4758,14.3668 108.4478,14.3968 108.4338,14.4388 C108.3898,14.4968 108.3338,14.5528 108.2918,14.6248 C108.2478,14.6688 108.2058,14.7108 108.1758,14.7548 L108.0758,14.8528 L107.9738,14.9548 C107.9618,14.9688 107.9318,14.9988 107.9018,15.0128 C107.8598,15.0548 107.8158,15.0988 107.7598,15.1268 C107.7458,15.1568 107.7178,15.1708 107.6878,15.1988 C107.6438,15.2268 107.5878,15.2688 107.5318,15.2988 C107.5158,15.3288 107.4878,15.3428 107.4598,15.3548 C107.3438,15.4288 107.2298,15.5008 107.1158,15.5708 C107.0858,15.5868 107.0578,15.6008 107.0298,15.6128 C106.9718,15.6428 106.8998,15.6728 106.8418,15.6988 C106.7858,15.7288 106.7138,15.7588 106.6558,15.7848 C106.6278,15.8008 106.5838,15.8148 106.5558,15.8288 C106.4978,15.8568 106.4278,15.8868 106.3558,15.9008 C105.7238,16.1308 104.9938,16.2608 104.2338,16.2608 C103.6038,16.2608 103.0158,16.1728 102.4858,16.0288 C102.4298,16.0168 102.3858,16.0028 102.3278,15.9868 C102.2858,15.9728 102.2418,15.9568 102.1998,15.9428 C102.0558,15.9008 101.9278,15.8448 101.7998,15.7848 C101.7398,15.7588 101.6698,15.7288 101.6118,15.6988 C101.5558,15.6728 101.4818,15.6428 101.4258,15.6128 C101.3958,15.6008 101.3678,15.5868 101.3398,15.5708 C101.1678,15.4708 101.0098,15.3708 100.8518,15.2568 C100.7098,15.1568 100.5658,15.0408 100.4378,14.9128 L100.2938,14.7668 C100.1498,14.6108 100.0218,14.4528 99.9198,14.2808 C99.6778,13.8808 99.5498,13.4488 99.5498,12.9928 C99.5498,12.4048 99.7778,11.8468 100.1638,11.3568 C100.4078,11.0708 100.7218,10.7988 101.0818,10.5708 C101.1678,10.5128 101.2538,10.4688 101.3398,10.4128 C101.3678,10.3968 101.3958,10.3828 101.4258,10.3688 C101.4818,10.3408 101.5558,10.3128 101.6118,10.2828 C101.7998,10.1968 101.9978,10.1108 102.1998,10.0388 C102.2718,10.0248 102.3418,9.9968 102.3998,9.9828 C102.9598,9.8108 103.5758,9.7248 104.2338,9.7248 C104.9938,9.7248 105.7238,9.8528 106.3558,10.0828 C106.4278,10.0968 106.4978,10.1248 106.5558,10.1548 C106.6558,10.1968 106.7558,10.2408 106.8418,10.2828 C106.8998,10.3128 106.9718,10.3408 107.0298,10.3688 C107.0578,10.3828 107.0858,10.3968 107.1158,10.4128 C107.1718,10.4548 107.2298,10.4828 107.2878,10.5128 C107.3738,10.5708 107.4598,10.6268 107.5318,10.6848 C107.5878,10.7128 107.6438,10.7568 107.6878,10.7988 C107.8158,10.8848 107.9318,10.9848 108.0478,11.1008 L108.1758,11.2288 C108.2058,11.2708 108.2478,11.3148 108.2918,11.3568 C108.3478,11.4308 108.3898,11.5008 108.4478,11.5728 C108.7478,12.0028 108.9058,12.4908 108.9058,12.9928 C108.9058,13.2768 108.8498,13.5508 108.7638,13.8088 M116.3018,11.2848 C116.2018,11.2288 116.0718,11.1988 115.9578,11.1988 L114.0798,11.1988 C113.8358,10.6708 113.4058,9.8528 112.8778,9.2368 L114.1958,8.3348 C114.3518,8.2188 114.4238,8.0768 114.3938,7.9328 L114.4238,4.6928 L111.5858,4.4788 L111.6718,5.8968 C111.3998,5.7968 111.0558,5.8408 110.8258,5.9988 L109.4938,6.9148 C108.5758,6.5268 107.5878,6.2568 106.5698,6.0848 L106.5698,4.7788 C106.5698,4.4788 106.2558,4.2508 105.8398,4.2508 L102.5858,4.2508 C102.1698,4.2508 101.7258,4.4788 101.7258,4.7788 L101.7258,6.0848 C100.9678,6.2568 99.7778,6.5428 98.8898,6.9308 L98.8758,6.9308 L97.5838,6.0128 C97.3418,5.8268 96.9698,5.7968 96.6818,5.9408 L96.8958,5.3668 L94.0458,4.8388 L94.0318,7.9328 C94.0018,8.0768 94.0738,8.2348 94.2298,8.3628 L95.5498,9.2228 C95.1778,9.6528 94.8778,10.1688 94.6618,10.6128 C94.5338,10.8288 94.4318,11.0268 94.3598,11.1988 L92.4818,11.1988 C92.3538,11.1988 92.2538,11.2288 92.1518,11.2848 C92.2538,11.3148 92.3538,11.3288 92.4818,11.3288 L94.3598,11.3288 C94.6038,12.0308 95.0198,12.7628 95.5778,13.3928 L95.5638,13.4068 L95.5358,13.4228 L94.2458,14.3388 C94.1438,14.4108 94.0878,14.4828 94.0738,14.5828 L94.3598,14.5828 C94.4178,14.7548 94.4878,14.9268 94.5598,15.0988 C94.6038,15.1988 94.6618,15.2988 94.7198,15.4148 L96.5538,16.6888 C96.7378,16.8328 96.9818,16.8748 97.2258,16.8188 L97.2398,16.8188 C97.3698,16.8188 97.5138,16.7748 97.6138,16.6888 L98.8758,15.7708 C99.7918,16.1588 100.9678,16.4448 101.7258,16.6028 L101.7258,17.9228 C101.7258,18.2068 102.1858,18.4508 102.6018,18.4508 L105.8538,18.4508 C106.2698,18.4508 106.5698,18.2068 106.5698,17.9228 L106.5698,16.6168 C107.5878,16.4328 108.6058,16.1448 109.4938,15.7588 L109.5078,15.7588 L110.8418,16.6888 C110.9718,16.7748 111.1138,16.8188 111.2858,16.8188 C111.4998,16.8468 111.7438,16.8028 111.9018,16.6888 L113.7078,15.4288 C113.8078,15.2568 113.8938,15.0848 113.9658,14.8968 C114.0078,14.7968 114.0378,14.6828 114.0798,14.5828 L115.9578,14.5828 C116.3738,14.5828 116.7598,14.3968 116.7598,14.1088 L116.7598,11.8308 C116.7598,11.6308 116.5578,11.4008 116.3018,11.2848" id="Fill-36" fill="#3250A3"></path>
                                <path d="M95.5782,13.3928 L95.5642,13.4068 L95.5362,13.4228 L94.2462,14.3388 C94.1442,14.4108 94.0882,14.4828 94.0742,14.5828 L92.4822,14.5828 C92.0662,14.5828 91.7942,14.4108 91.7942,14.1228 L91.7942,10.8548 C91.7942,11.0568 91.9242,11.2148 92.1522,11.2848 C92.2542,11.3148 92.3542,11.3288 92.4822,11.3288 L94.3602,11.3288 C94.6042,12.0308 95.0202,12.7628 95.5782,13.3928" id="Fill-38" fill="#3250A3"></path>
                                <path d="M108.7638,10.5548 C108.7338,10.5968 108.7218,10.6568 108.6918,10.6988 C108.6618,10.7848 108.6198,10.8548 108.5758,10.9288 C108.5498,10.9848 108.5198,11.0268 108.4898,11.0868 C108.4758,11.1128 108.4478,11.1428 108.4338,11.1728 C108.3898,11.2428 108.3338,11.3008 108.2918,11.3568 C108.2478,11.4008 108.2058,11.4568 108.1758,11.5008 C108.1338,11.5288 108.1038,11.5588 108.0758,11.6008 C108.0478,11.6308 108.0038,11.6588 107.9738,11.6868 C107.9618,11.7168 107.9318,11.7308 107.9018,11.7608 C107.8598,11.7868 107.8158,11.8308 107.7598,11.8728 C107.7458,11.8888 107.7178,11.9168 107.6878,11.9308 C107.6438,11.9748 107.5878,12.0028 107.5318,12.0448 C107.5158,12.0608 107.4878,12.0888 107.4598,12.1028 C107.3438,12.1748 107.2298,12.2468 107.1158,12.3028 C107.0858,12.3188 107.0578,12.3328 107.0298,12.3608 C106.9718,12.3888 106.8998,12.4188 106.8418,12.4468 C106.7858,12.4748 106.7138,12.5048 106.6558,12.5328 C106.6278,12.5468 106.5838,12.5608 106.5558,12.5768 C106.4978,12.5908 106.4278,12.6188 106.3558,12.6468 C105.7238,12.8768 104.9938,13.0068 104.2338,13.0068 C103.6038,13.0068 103.0158,12.9208 102.4858,12.7628 C102.4298,12.7488 102.3858,12.7348 102.3278,12.7188 C102.2858,12.7048 102.2418,12.6888 102.1998,12.6768 C102.0558,12.6328 101.9278,12.5908 101.7998,12.5328 C101.7398,12.5048 101.6698,12.4748 101.6118,12.4468 C101.5558,12.4188 101.4818,12.3888 101.4258,12.3608 C101.3958,12.3328 101.3678,12.3188 101.3398,12.3028 C101.1678,12.2168 101.0098,12.1168 100.8518,12.0028 C100.7098,11.8888 100.5658,11.7728 100.4378,11.6588 C100.3938,11.6008 100.3358,11.5588 100.2938,11.5008 C100.2498,11.4568 100.2078,11.4148 100.1638,11.3568 C100.0778,11.2428 99.9918,11.1288 99.9198,11.0128 C99.6778,10.6268 99.5498,10.1808 99.5498,9.7388 C99.5498,8.7768 100.1358,7.9048 101.0818,7.3168 C101.1678,7.2608 101.2538,7.2008 101.3398,7.1588 C101.3678,7.1448 101.3958,7.1308 101.4258,7.1148 C101.4818,7.0728 101.5558,7.0448 101.6118,7.0148 C101.7998,6.9308 101.9978,6.8568 102.1998,6.7848 C102.2718,6.7588 102.3418,6.7428 102.3998,6.7148 C102.9598,6.5568 103.5758,6.4568 104.2338,6.4568 C104.9938,6.4568 105.7238,6.5868 106.3558,6.8148 C106.4278,6.8448 106.4978,6.8708 106.5558,6.9008 C106.6558,6.9308 106.7558,6.9728 106.8418,7.0148 C106.8998,7.0448 106.9718,7.0728 107.0298,7.1148 C107.0578,7.1308 107.0858,7.1448 107.1158,7.1588 C107.1718,7.1868 107.2298,7.2308 107.2878,7.2608 C107.3738,7.3168 107.4598,7.3588 107.5318,7.4168 C107.5878,7.4588 107.6438,7.4888 107.6878,7.5308 C107.8158,7.6308 107.9318,7.7328 108.0478,7.8328 C108.0898,7.8748 108.1338,7.9188 108.1758,7.9748 C108.2058,8.0168 108.2478,8.0608 108.2918,8.1028 C108.3478,8.1768 108.3898,8.2488 108.4478,8.3188 C108.7478,8.7508 108.9058,9.2228 108.9058,9.7388 C108.9058,10.0108 108.8498,10.2828 108.7638,10.5548 M115.9578,7.9308 L114.0798,7.9308 C113.9938,7.7468 113.8938,7.5308 113.7498,7.3028 C113.5358,6.8708 113.2218,6.3848 112.8778,5.9688 L114.1958,5.0808 C114.4798,4.8648 114.4798,4.5348 114.1958,4.3368 L111.8878,2.7308 C111.6018,2.5288 111.1278,2.5288 110.8258,2.7308 L109.4938,3.6628 C108.5758,3.2748 107.5878,2.9888 106.5698,2.8308 L106.5698,1.5128 C106.5698,1.2248 106.2558,0.9968 105.8398,0.9968 L102.5858,0.9968 C102.1698,0.9968 101.7258,1.2248 101.7258,1.5128 L101.7258,2.8168 C100.9678,3.0028 99.7778,3.2888 98.8898,3.6768 L98.8758,3.6768 L97.5838,2.7448 C97.2998,2.5428 96.8238,2.5428 96.5238,2.7448 L94.2298,4.3488 C93.9458,4.5648 93.9458,4.8948 94.2298,5.0968 L95.5498,5.9548 C95.1918,6.3848 94.8898,6.8708 94.6758,7.3028 C94.5478,7.5308 94.4458,7.7468 94.3598,7.9308 L92.4818,7.9308 C92.0658,7.9308 91.7958,8.2908 91.7958,8.5928 L91.7958,10.8548 C91.7958,11.0568 91.9238,11.2148 92.1518,11.2848 C92.2538,11.3148 92.3538,11.3288 92.4818,11.3288 L94.3598,11.3288 C94.6038,12.0308 95.0198,12.7628 95.5778,13.3928 L95.5638,13.4068 L95.5358,13.4228 L94.2458,14.3388 C94.1438,14.4108 94.0878,14.4828 94.0738,14.5828 C94.0318,14.6388 94.0318,14.7108 94.0458,14.7668 C94.0578,14.8968 94.1178,14.9988 94.2458,15.0848 L94.7198,15.4148 L96.5538,16.6888 C96.7378,16.8328 96.9818,16.8748 97.2258,16.8188 L97.2398,16.8188 C97.3698,16.8188 97.5138,16.7748 97.6138,16.6888 L98.8758,15.7708 C99.7918,16.1588 100.9678,16.4448 101.7258,16.6028 L101.7258,17.9228 C101.7258,18.2068 102.1858,18.4508 102.6018,18.4508 L105.8538,18.4508 C106.2698,18.4508 106.5698,18.2068 106.5698,17.9228 L106.5698,16.6168 C107.5878,16.4308 108.6058,16.1448 109.4938,15.7588 L109.5078,15.7588 L110.8418,16.6888 C111.1278,16.8888 111.6158,16.8888 111.9018,16.6888 L113.7078,15.4288 L114.1958,15.0848 C114.3938,14.9548 114.4678,14.7548 114.3938,14.5828 C114.3678,14.4828 114.2958,14.4108 114.1958,14.3388 L112.8778,13.3928 C113.4358,12.7488 113.8358,12.0308 114.0798,11.3288 L115.9578,11.3288 C116.0718,11.3288 116.2018,11.3148 116.3018,11.2848 C116.5578,11.2148 116.7598,11.0568 116.7598,10.8428 L116.7598,8.5788 C116.7598,8.2908 116.3738,7.9308 115.9578,7.9308" id="Fill-40" fill="#1B243B"></path>
                                <path d="M86.3204,67.0294 L84.7764,69.0354 L83.5784,70.5634 L81.0204,69.7534 C80.0064,69.4394 78.6824,69.8254 78.0544,70.6374 L73.5824,76.4174 C72.4424,75.3674 71.7604,74.1174 71.5564,72.7374 C71.4844,72.4054 71.4644,72.0714 71.4644,71.7414 L71.4644,65.5374 C71.4644,66.5854 71.7224,67.5994 72.2384,68.5194 C72.5704,69.1274 73.0124,69.6974 73.5824,70.2134 L78.0544,64.4334 C78.6824,63.6414 80.0064,63.2374 81.0204,63.5694 L85.6044,65.0034 C86.6144,65.3174 86.9464,66.2194 86.3204,67.0294" id="Fill-42" fill="#1B243B"></path>
                                <path d="M121.8516,23.9142 L121.8516,30.1202 L120.1016,32.3662 L118.2796,31.7762 L118.0756,31.7202 C117.7456,31.6102 117.4876,31.4442 117.3036,31.2222 C117.2296,31.1302 117.1556,31.0202 117.1196,30.8922 C116.9736,30.5242 117.0476,30.1002 117.3596,29.6962 L121.8516,23.9142 Z" id="Fill-44" fill="#1B243B"></path>
                                <path d="M131.4414,34.3888 C130.8714,35.6028 129.9694,36.8008 128.7534,37.9248 C128.2934,38.4568 127.7234,38.8808 127.0774,39.2508 C126.0114,39.8568 124.7394,40.2248 123.5074,40.3168 C123.5074,40.3168 121.4994,40.4648 118.9974,40.8148 C116.4934,41.1808 114.3034,42.8568 114.3034,42.8568 L108.9454,47.4408 L105.5214,50.3688 L105.5034,50.3688 L97.9174,56.8848 L96.6314,57.9908 C96.6314,57.9908 95.8754,59.5548 95.8034,60.6788 C95.7654,61.2308 95.8034,62.0588 95.8754,62.7748 C95.8954,62.9408 95.8954,63.0908 95.9114,63.2368 C95.9854,63.4948 95.9674,63.7528 95.9854,64.0648 C95.9674,64.4888 95.8954,64.9308 95.6914,65.3708 C95.5074,65.7948 95.2494,66.2188 94.8814,66.6228 C94.8814,66.6428 94.8634,66.6428 94.8634,66.6428 C94.6974,66.8628 94.5134,67.0848 94.3114,67.3048 C93.9234,67.7468 93.4834,68.1708 93.0034,68.5948 C91.1614,70.1768 88.9154,71.3548 86.5614,72.0168 C86.4494,71.6848 86.1734,71.4288 85.7494,71.2808 C85.6954,71.2448 85.6574,71.2268 85.6034,71.2068 L83.5774,70.5628 L84.7754,69.0348 L86.3194,67.0288 C86.9474,66.2188 86.6154,65.3168 85.6034,65.0048 L81.0194,63.5688 C80.0054,63.2368 78.6814,63.6408 78.0554,64.4328 L73.5814,70.2128 C73.0114,69.6968 72.5694,69.1268 72.2374,68.5188 C72.7914,67.3048 73.6934,66.1068 74.9074,65.0048 L74.9074,64.9868 C75.3874,64.4708 75.9374,64.0468 76.5814,63.6788 C77.6494,63.0708 78.9194,62.6828 80.1534,62.6108 C80.1534,62.6108 82.1594,62.4448 84.6634,62.0968 C87.1674,61.7268 89.3594,60.0508 89.3594,60.0508 L98.1034,52.5208 L98.1214,52.5408 L99.9634,50.9568 L99.9814,50.9568 L102.8894,48.4528 L107.0314,44.9008 C107.0314,44.9008 107.8054,43.3368 107.8794,42.2328 C107.9134,41.5308 107.8414,40.4288 107.7674,39.6748 C107.6934,39.3968 107.7134,39.1388 107.6934,38.8448 C107.6934,38.4228 107.7854,37.9608 107.9874,37.5368 C108.1714,37.1128 108.4294,36.6728 108.7994,36.2668 C108.7994,36.2668 108.8154,36.2668 108.8154,36.2488 C109.3314,35.5868 109.9594,34.9248 110.6754,34.3168 C112.5174,32.7328 114.7814,31.5728 117.1194,30.8928 C117.1554,31.0188 117.2314,31.1308 117.3034,31.2228 C117.4874,31.4428 117.7454,31.6088 118.0754,31.7208 L118.2794,31.7748 L120.1014,32.3648 L118.5194,34.3888 L117.3594,35.8808 C116.7334,36.6888 117.0654,37.5928 118.0754,37.9068 L122.6594,39.3588 C123.6734,39.6748 124.9974,39.2868 125.6254,38.4768 L130.1174,32.7148 C130.6674,33.2308 131.1114,33.7808 131.4414,34.3888" id="Fill-46" fill="#2F363E"></path>
                                <path d="M132.215,31.168 C132.215,31.48 132.197,31.776 132.141,32.088 C132.049,32.844 131.811,33.618 131.441,34.388 C130.871,35.604 129.969,36.8 128.755,37.924 C128.293,38.458 127.723,38.88 127.079,39.25 C126.011,39.858 124.741,40.224 123.507,40.316 C123.507,40.316 121.501,40.464 118.999,40.814 C116.495,41.182 114.303,42.858 114.303,42.858 L108.945,47.442 L105.521,50.37 L105.505,50.37 L97.919,56.884 L96.631,57.99 C96.631,57.99 95.875,59.554 95.803,60.678 C95.765,61.23 95.803,62.058 95.875,62.776 C95.895,62.942 95.895,63.09 95.913,63.236 C95.987,63.494 95.967,63.752 95.987,64.064 C95.967,64.488 95.895,64.93 95.691,65.372 C95.507,65.794 95.251,66.218 94.881,66.624 C94.881,66.642 94.863,66.642 94.863,66.642 C94.697,66.864 94.513,67.084 94.311,67.304 C93.923,67.746 93.483,68.17 93.005,68.594 C91.163,70.176 88.917,71.356 86.561,72.018 L86.561,72.036 C84.997,72.496 83.413,72.754 81.847,72.792 L83.579,70.562 L84.775,69.036 L86.321,67.03 C86.947,66.218 86.615,65.316 85.603,65.004 L81.019,63.568 C80.007,63.236 78.681,63.64 78.055,64.434 L73.583,70.212 C73.011,69.698 72.571,69.126 72.239,68.52 C71.723,67.6 71.465,66.586 71.465,65.538 C71.465,65.242 71.485,64.93 71.539,64.618 C71.797,62.666 72.921,60.624 74.909,58.798 C75.387,58.266 75.937,57.842 76.583,57.474 C77.651,56.868 78.921,56.498 80.155,56.406 C80.155,56.406 82.161,56.26 84.665,55.89 C87.169,55.542 89.359,53.848 89.359,53.848 L98.103,46.318 L98.121,46.336 L107.031,38.714 C107.031,38.714 107.805,37.15 107.879,36.028 C107.915,35.346 107.841,34.242 107.767,33.468 C107.693,33.194 107.713,32.936 107.693,32.64 C107.693,32.216 107.785,31.776 107.989,31.334 C108.173,30.91 108.429,30.486 108.799,30.082 C108.799,30.062 108.817,30.062 108.817,30.062 C109.333,29.382 109.959,28.738 110.675,28.112 C113.751,25.498 117.929,24.026 121.851,23.914 L117.359,29.696 C117.047,30.1 116.973,30.524 117.119,30.892 C117.157,31.02 117.231,31.13 117.303,31.222 C117.489,31.444 117.747,31.61 118.077,31.72 L118.279,31.776 L120.101,32.366 L122.661,33.156 C123.673,33.468 124.999,33.082 125.625,32.292 L130.117,26.51 C131.221,27.542 131.903,28.776 132.123,30.12 L132.123,30.156 C132.197,30.486 132.215,30.818 132.215,31.168" id="Fill-48" fill="#EE6450"></path>
                                <path d="M71.465,71.7424 C71.465,72.0724 71.485,72.4044 71.557,72.7364 L71.465,72.7904 L71.465,71.7424 Z" id="Fill-50" fill="#6D6E71"></path>
                                <path d="M132.215,37.5196 L132.215,38.3276 L132.141,38.3656 C131.847,40.3156 130.725,42.3416 128.755,44.1276 C128.293,44.6436 127.723,45.0856 127.079,45.4536 C126.011,46.0616 124.741,46.4296 123.507,46.5016 C123.507,46.5016 121.501,46.6676 118.999,47.0176 C116.495,47.3676 114.303,49.0616 114.303,49.0616 L105.521,56.5716 L105.505,56.5556 L96.631,64.1936 C96.631,64.1936 95.875,65.7576 95.803,66.8816 C95.747,67.5616 95.839,68.6676 95.913,69.4216 C95.987,69.6976 95.967,69.9556 95.987,70.2496 C95.967,70.6736 95.895,71.1336 95.691,71.5576 C95.507,71.9996 95.251,72.4216 94.881,72.8276 L94.863,72.8456 C94.347,73.5076 93.721,74.1716 93.005,74.7976 C89.947,77.4116 85.769,78.8856 81.847,78.9936 L81.847,72.7916 C83.413,72.7536 84.997,72.4956 86.561,72.0356 L86.561,72.0176 C88.917,71.3556 91.163,70.1756 93.005,68.5936 C93.483,68.1696 93.923,67.7456 94.311,67.3056 C94.513,67.0836 94.697,66.8636 94.863,66.6436 C94.863,66.6436 94.881,66.6436 94.881,66.6236 C95.251,66.2196 95.507,65.7956 95.691,65.3716 C95.895,64.9296 95.967,64.4876 95.987,64.0636 C95.967,63.7516 95.987,63.4936 95.913,63.2356 C95.895,63.0896 95.895,62.9416 95.875,62.7756 C95.803,62.0596 95.765,61.2296 95.803,60.6776 C95.875,59.5556 96.631,57.9896 96.631,57.9896 L97.919,56.8856 L105.505,50.3696 L105.521,50.3696 L108.945,47.4416 L114.303,42.8576 C114.303,42.8576 116.495,41.1816 118.999,40.8136 C121.501,40.4656 123.507,40.3156 123.507,40.3156 C124.741,40.2256 126.011,39.8576 127.079,39.2496 C127.723,38.8816 128.293,38.4576 128.755,37.9236 C129.969,36.8016 130.871,35.6036 131.441,34.3896 C131.811,33.6176 132.049,32.8436 132.141,32.0876 L132.197,37.1336 L132.215,37.5196 Z" id="Fill-52" fill="#1B243B"></path>
                                <path d="M137.34,68.8166 L94.118,35.2146 C93.236,32.6886 90.808,28.7606 84.17,27.4806 L72.082,18.0826 L71.734,23.1366 C71.734,23.1366 74.356,43.0786 88.106,42.8046 L92.29,46.2486 L129.044,76.4946 C130.842,77.9746 133.758,77.9746 135.554,76.4946 C136.192,75.9706 136.59,75.3306 136.778,74.6586 L136.944,74.6646 L137.34,68.8166 Z" id="Fill-54" fill="#1B243B"></path>
                                <path d="M135.9024,71.4396 C134.1044,72.9196 131.1884,72.9196 129.3904,71.4396 L88.4524,37.7496 L94.9644,32.3916 L135.9024,66.0796 C137.7004,67.5616 137.7004,69.9616 135.9024,71.4396" id="Fill-56" fill="#EE6450"></path>
                                <path d="M88.4532,37.7502 C74.7012,38.0242 72.0812,18.0822 72.0812,18.0822 C72.0812,18.0822 77.5332,21.3502 83.6972,22.2842 C94.5572,23.9282 94.9652,32.3902 94.9652,32.3902 L88.4532,37.7502 Z" id="Fill-58" fill="#EE6450"></path>
                                <path d="M83.6974,22.2834 C77.5334,21.3494 72.0814,18.0814 72.0814,18.0814 C75.5034,28.8014 94.9654,32.3914 94.9654,32.3914 C94.9654,32.3914 94.5574,23.9274 83.6974,22.2834" id="Fill-60" fill="#803024"></path>
                                <polygon id="Fill-62" fill="#3250A3" points="99.1484 35.8342 92.6364 41.1942 88.4524 37.7502 94.9644 32.3902"></polygon>
                                <polygon id="Fill-64" fill="#3889C9" points="19.34 42.3282 7.356 44.0322 0 37.5262 11.986 35.8222"></polygon>
                                <polygon id="Fill-66" fill="#1B243B" points="11.9864 35.8224 11.9864 26.9764 0.0004 28.6324 0.0004 37.5264"></polygon>
                                <polygon id="Fill-68" fill="#EE6450" points="11.9864 26.9766 11.9864 35.8226 19.3404 42.3286 19.3404 32.2506"></polygon>
                                <polygon id="Fill-70" fill="#EE6450" points="193.6914 66.4338 181.7054 68.1358 174.3514 61.6298 186.3374 59.9278"></polygon>
                                <polygon id="Fill-72" fill="#3889C9" points="186.338 59.9278 186.338 51.0798 174.352 52.7358 174.352 61.6298"></polygon>
                                <polygon id="Fill-74" fill="#1B243B" points="186.338 51.0802 186.338 59.9282 193.692 66.4342 193.692 56.3542"></polygon>
                            </g>
                        </g>
                    </g>
                </g>
            </g>
        </g>
    </g>
</svg>