<?xml version="1.0" encoding="UTF-8"?>
<svg width="184px" height="115px" viewBox="0 0 184 115" version="1.1" xmlns="http://www.w3.org/2000/svg" xmlns:xlink="http://www.w3.org/1999/xlink">
    <!-- Generator: Sketch 50 (54983) - http://www.bohemiancoding.com/sketch -->
    <title>id icon@3x</title>
    <desc>Created with Sketch.</desc>
    <defs>
        <path d="M1.704,12.368 C1.704,18.448 6.632,23.376 12.714,23.376 C18.794,23.376 23.72,18.448 23.72,12.368 C23.72,6.286 18.794,1.36 12.714,1.36 C6.632,1.36 1.704,6.286 1.704,12.368" id="path-1"></path>
        <polygon id="path-3" points="0.2872 1.3652 19.628 1.3652 19.628 9.5732 0.2872 9.5732"></polygon>
        <polygon id="path-5" points="0.2736 0.5178 7.628 0.5178 7.628 15.8718 0.2736 15.8718"></polygon>
        <polygon id="path-7" points="0.3086 0.793 19.6506 0.793 19.6506 9 0.3086 9"></polygon>
    </defs>
    <g id="LP3" stroke="none" stroke-width="1" fill="none" fill-rule="evenodd">
        <g id="LP3-1366" transform="translate(-301.000000, -3677.000000)">
            <g id="Product" transform="translate(237.000000, 3534.000000)">
                <g id="products" transform="translate(0.000000, 99.000000)">
                    <g id="id" transform="translate(12.000000, 0.000000)">
                        <g id="id-icon" transform="translate(52.000000, 43.000000)">
                            <polygon id="Fill-1" fill="#FFFFFF" points="34.0036 72.6938 77.1216 110.8358 147.3956 100.8598 104.2756 62.7158"></polygon>
                            <polygon id="Fill-2" fill="#3250A3" points="34.0036 20.5586 34.0036 72.6946 104.2756 62.7166 104.2756 10.8466"></polygon>
                            <polygon id="Fill-3" fill="#3889C9" points="104.2756 10.846 104.2756 62.718 147.3976 100.86 147.3976 41.77"></polygon>
                            <polygon id="Fill-4" fill="#3889C9" points="34.0108 77.4944 77.1508 115.6244 77.1228 110.8364 34.0008 72.7084"></polygon>
                            <polygon id="Fill-5" fill="#3250A3" points="147.3966 105.647 77.1506 115.623 77.1226 110.837 147.3966 100.859"></polygon>
                            <g id="Group-16" transform="translate(43.000000, 3.269800)">
                                <path d="M25.5138,57.3536 L22.9178,56.7396 C23.8558,56.7396 24.7338,56.9656 25.5138,57.3536 Z" id="Stroke-6" stroke="#939598" stroke-width="0.72"></path>
                                <path d="M27.049,74.0178 C25.653,80.1338 22.333,84.6758 22.333,84.6758 C22.333,84.6758 58.109,82.9298 58.147,82.9278 C56.075,83.0298 54.551,74.6118 54.371,73.5718 C52.493,62.7218 51.939,53.3918 54.137,42.6418 C55.717,34.9258 56.751,25.2998 56.751,21.9578 C56.751,9.2738 51.365,0.9698 39.475,0.9698 L25.653,2.7378 C16.957,2.7378 9.007,6.7538 5.759,15.3618 C3.895,20.2998 4.361,25.6998 5.019,30.8178 C5.857,37.3438 5.571,43.8218 5.589,50.3798 C5.597,54.0598 6.395,57.8778 9.035,60.6018 C11.545,63.1958 14.119,63.9538 17.441,65.1078 C20.421,66.1438 23.757,66.7178 27.145,66.8558 C27.409,69.0418 27.557,71.8038 27.049,74.0178" id="Fill-8" fill="#EF8B7C"></path>
                                <path d="M55.1292,42.293 C55.2272,41.747 55.3112,41.315 55.3792,40.993 C55.2972,41.453 55.2132,41.887 55.1292,42.293" id="Fill-10" fill="#EF8B7C"></path>
                                <path d="M55.5198,40.293 L55.4778,40.503 L55.5198,40.293 Z" id="Fill-12" fill="#EF8B7C"></path>
                                <path d="M0.7698,43.0256 L6.7258,43.0256 L6.7258,29.3676 L0.1798,42.0596 C-0.0482,42.4996 0.2718,43.0256 0.7698,43.0256" id="Fill-14" fill="#EF8B7C"></path>
                            </g>
                            <g id="Group-19" transform="translate(54.000000, 36.269800)">
                                <mask id="mask-2" fill="white">
                                    <use xlink:href="#path-1"></use>
                                </mask>
                                <g id="Clip-18"></g>
                                <path d="M1.704,12.368 C1.704,18.448 6.632,23.376 12.714,23.376 C18.794,23.376 23.72,18.448 23.72,12.368 C23.72,6.286 18.794,1.36 12.714,1.36 C6.632,1.36 1.704,6.286 1.704,12.368" id="Fill-17" mask="url(#mask-2)"></path>
                            </g>
                            <g id="Group-49" transform="translate(0.000000, 0.269800)">
                                <path d="M102.4182,27.2442 C101.6782,32.6702 100.1722,37.9842 98.5282,43.1902 C97.9262,45.1082 97.2682,46.9982 96.6662,48.9442 C96.4462,49.6842 95.8442,50.9442 96.0362,51.7662 C93.6802,50.0942 91.4862,48.2022 89.1862,46.4502 C88.4722,45.9022 85.5962,42.8622 84.6122,43.2442 C87.2942,42.1202 91.0482,38.2302 89.5682,34.9982 C88.9302,33.6302 87.3222,33.2122 85.9322,33.4002 C84.1142,33.6462 83.1322,34.7422 82.2542,36.2582 L82.2542,38.6702 L80.6382,38.6702 L80.6382,32.5582 C80.4202,31.1442 80.5162,29.1442 78.7802,28.9702 C76.7302,28.7642 75.3842,27.2242 74.3642,25.5462 C72.5842,22.6422 74.5842,18.6982 74.5842,18.6982 L48.7482,18.3682 L48.5022,19.0802 C48.1182,18.9442 47.7902,18.7522 47.4342,18.5342 C44.0082,16.4242 42.9942,11.5202 44.2842,7.8742 C45.6262,4.0122 49.6262,4.6982 52.8302,5.5742 C58.3382,7.1362 63.8722,3.9022 69.0762,2.5062 C73.2122,1.3562 77.6802,0.5882 81.9802,0.7522 C83.2682,0.7802 84.5002,0.9702 85.6262,1.2442 C91.1302,2.5602 96.4182,6.2322 99.7342,10.7802 C103.1582,15.4922 103.1862,21.7102 102.4182,27.2442" id="Fill-20" fill="#1B243B"></path>
                                <path d="M120.7952,57.4592 C124.1412,61.5012 123.5752,67.4892 119.5332,70.8332 C115.4912,74.1792 109.5032,73.6132 106.1592,69.5732 C102.8132,65.5292 103.3772,59.5412 107.4212,56.1972 C111.4612,52.8512 117.4492,53.4172 120.7952,57.4592 Z" id="Stroke-22" stroke="#EE6450" stroke-width="6"></path>
                                <path d="M125.9124,98.9278 L101.9544,98.9278 C98.3704,98.9278 95.4404,95.9958 95.4404,92.4138 L95.4404,68.4558 C95.4404,64.8738 98.3704,61.9418 101.9544,61.9418 L125.9124,61.9418 C129.4964,61.9418 132.4284,64.8738 132.4284,68.4558 L132.4284,92.4138 C132.4284,95.9958 129.4964,98.9278 125.9124,98.9278" id="Fill-24" fill="#344570"></path>
                                <path d="M109.1662,73.0098 L109.1662,89.2798 C106.3802,87.6418 104.5062,84.6118 104.5062,81.1398 C104.5062,77.6698 106.3802,74.6378 109.1662,73.0098" id="Fill-26" fill="#B84231"></path>
                                <path d="M123.3634,81.1408 C123.3634,84.6108 121.4874,87.6428 118.6934,89.2788 L118.6934,73.0108 C121.4874,74.6388 123.3634,77.6708 123.3634,81.1408" id="Fill-28" fill="#B84231"></path>
                                <path d="M118.6936,73.0098 L118.6936,89.2798 C117.2976,90.1018 115.6676,90.5738 113.9296,90.5738 C112.1896,90.5738 110.5636,90.1018 109.1656,89.2798 L109.1656,73.0098 C110.5636,72.1878 112.1896,71.7178 113.9296,71.7178 C115.6676,71.7178 117.2976,72.1878 118.6936,73.0098" id="Fill-30" fill="#BCBEC0"></path>
                                <polygon id="Fill-32" fill="#1B243B" points="115.1624 85.9298 112.7044 85.9298 112.7044 81.6118 113.4264 80.8618 112.8544 80.1818 113.4964 79.4338 112.7044 78.7758 112.7044 76.9338 115.1624 76.9338"></polygon>
                                <g id="Group-9" transform="translate(164.000000, 66.000000)">
                                    <g id="Group-36" transform="translate(0.000000, 8.000000)">
                                        <mask id="mask-4" fill="white">
                                            <use xlink:href="#path-3"></use>
                                        </mask>
                                        <g id="Clip-35"></g>
                                        <polygon id="Fill-34" fill="#3889C9" mask="url(#mask-4)" points="19.6292 7.8712 7.6432 9.5732 0.2872 3.0672 12.2732 1.3652"></polygon>
                                    </g>
                                    <polygon id="Fill-37" fill="#1B243B" points="12.2736 9.3654 12.2736 0.5174 0.2876 2.1734 0.2876 11.0674"></polygon>
                                    <g id="Group-41" transform="translate(12.000000, 0.000000)">
                                        <mask id="mask-6" fill="white">
                                            <use xlink:href="#path-5"></use>
                                        </mask>
                                        <g id="Clip-40"></g>
                                        <polygon id="Fill-39" fill="#EE6450" mask="url(#mask-6)" points="0.2736 0.5178 0.2736 9.3658 7.6296 15.8718 7.6296 5.7938"></polygon>
                                    </g>
                                </g>
                                <g id="Group-8" transform="translate(0.000000, 50.000000)">
                                    <g id="Group-44" transform="translate(0.000000, 9.000000)">
                                        <mask id="mask-8" fill="white">
                                            <use xlink:href="#path-7"></use>
                                        </mask>
                                        <g id="Clip-43"></g>
                                        <polygon id="Fill-42" fill="#EE6450" mask="url(#mask-8)" points="19.6506 7.299 7.6646 9.001 0.3086 2.495 12.2946 0.793"></polygon>
                                    </g>
                                    <polygon id="Fill-45" fill="#3889C9" points="12.2952 9.7932 12.2952 0.9452 0.3092 2.6012 0.3092 11.4952"></polygon>
                                    <polygon id="Fill-47" fill="#1B243B" points="12.2952 0.9454 12.2952 9.7934 19.6512 16.2994 19.6512 6.2194"></polygon>
                                </g>
                            </g>
                        </g>
                    </g>
                </g>
            </g>
        </g>
    </g>
</svg>