<?xml version="1.0" encoding="UTF-8"?>
<svg width="194px" height="116px" viewBox="0 0 194 116" version="1.1" xmlns="http://www.w3.org/2000/svg" xmlns:xlink="http://www.w3.org/1999/xlink">
    <!-- Generator: Sketch 50 (54983) - http://www.bohemiancoding.com/sketch -->
    <title>storage icon@3x</title>
    <desc>Created with Sketch.</desc>
    <defs>
        <polygon id="path-1" points="0.0002 0.0114 19.34 0.0114 19.34 8.2214 0.0002 8.2214"></polygon>
        <polygon id="path-3" points="0.9866 0.1658 8.34 0.1658 8.34 15.5178 0.9866 15.5178"></polygon>
    </defs>
    <g id="LP3" stroke="none" stroke-width="1" fill="none" fill-rule="evenodd">
        <g id="LP3-1366" transform="translate(-590.000000, -3677.000000)">
            <g id="Product" transform="translate(237.000000, 3534.000000)">
                <g id="products" transform="translate(0.000000, 99.000000)">
                    <g id="storage" transform="translate(312.000000, 0.000000)">
                        <g id="storage-icon" transform="translate(41.000000, 43.000000)">
                            <polygon id="Fill-1" fill="#FFFFFF" points="159.266 102.172 88.994 112.148 45.876 74.006 116.146 64.03"></polygon>
                            <polygon id="Fill-2" fill="#3889C9" points="116.1468 64.0294 116.1468 12.1594 45.8748 21.8714 45.8748 74.0054"></polygon>
                            <polygon id="Fill-3" fill="#3250A3" points="116.1468 12.1602 116.1468 64.0302 159.2668 102.1722 159.2668 43.0822"></polygon>
                            <polygon id="Fill-4" fill="#3250A3" points="45.8784 78.8064 89.0184 116.9364 88.9944 112.1484 45.8704 74.0204"></polygon>
                            <polygon id="Fill-5" fill="#3889C9" points="88.9938 112.1478 89.0198 116.9358 159.2658 106.9578 159.2658 102.1718"></polygon>
                            <g id="Group-44" transform="translate(0.000000, 0.935800)">
                                <path d="M135.8578,69.1834 C134.5858,68.7174 132.9438,69.3954 131.5038,69.6114 L128.4498,70.0674 L88.0198,76.1894 C83.9738,76.7974 80.9558,80.2454 80.8978,84.3294 C80.8898,84.3854 80.8898,84.4314 80.8898,84.4874 L80.8978,87.7294 C80.8978,89.0394 81.1978,90.2634 81.7218,91.3474 L71.6378,83.2454 L71.6198,83.2354 L71.1058,82.8154 L71.0858,82.8074 C69.3378,81.2834 68.2278,79.0414 68.2178,76.5074 L68.2178,73.2654 C68.2078,69.1154 71.2358,65.5814 75.3378,64.9674 L118.8218,58.3874 C120.8798,58.0774 122.8498,58.5374 124.4678,59.5374 L135.8578,69.1834 Z" id="Fill-6" fill="#EE6450"></path>
                                <path d="M139.8714,76.3318 L139.8714,79.5758 C139.8714,83.7138 136.8434,87.2378 132.7434,87.8658 L89.2574,94.4358 C85.4914,95.0058 81.9954,92.9758 80.4534,89.7818 C79.9294,88.6978 79.6314,87.4718 79.6314,86.1638 L79.6214,82.9218 C79.6214,82.8658 79.6214,82.8178 79.6314,82.7618 C79.6874,78.6778 82.7054,75.2298 86.7514,74.6238 L127.1814,68.5018 L130.2374,68.0418 C131.6754,67.8278 133.0794,67.9878 134.3494,68.4558 C137.5354,69.6138 139.8714,72.6598 139.8714,76.3318" id="Fill-8" fill="#1B243B"></path>
                                <path d="M134.3656,78.3162 C134.3656,79.1842 133.6616,79.8862 132.7956,79.8862 C131.9276,79.8862 131.2276,79.1842 131.2276,78.3162 C131.2276,77.4482 131.9276,76.7482 132.7956,76.7482 C133.6616,76.7482 134.3656,77.4482 134.3656,78.3162" id="Fill-10" fill="#FFFFFF"></path>
                                <path d="M86.4144,85.7146 L111.8824,81.8706" id="Stroke-12" stroke="#FFFFFF" stroke-width="2.804" stroke-linecap="round"></path>
                                <path d="M135.8578,40.6892 C134.5858,40.2232 132.9438,40.9012 131.5038,41.1172 L128.4498,41.5732 L88.0198,47.6952 C83.9738,48.3032 80.9558,51.7512 80.8978,55.8352 C80.8898,55.8912 80.8898,55.9372 80.8898,55.9932 L80.8978,59.2352 C80.8978,60.5452 81.1978,61.7692 81.7218,62.8532 L71.6378,54.7512 L71.6198,54.7412 L71.1058,54.3212 L71.0858,54.3132 C69.3378,52.7892 68.2278,50.5452 68.2178,48.0132 L68.2178,44.7692 C68.2078,40.6212 71.2358,37.0872 75.3378,36.4732 L118.8218,29.8932 C120.8798,29.5832 122.8498,30.0432 124.4678,31.0432 L135.8578,40.6892 Z" id="Fill-14" fill="#EE6450"></path>
                                <path d="M139.8714,47.8378 L139.8714,51.0818 C139.8714,55.2198 136.8434,58.7438 132.7434,59.3718 L89.2574,65.9418 C85.4914,66.5118 81.9954,64.4818 80.4534,61.2878 C79.9294,60.2038 79.6314,58.9778 79.6314,57.6698 L79.6214,54.4278 C79.6214,54.3718 79.6214,54.3238 79.6314,54.2678 C79.6874,50.1838 82.7054,46.7358 86.7514,46.1298 L127.1814,40.0078 L130.2374,39.5478 C131.6754,39.3338 133.0794,39.4938 134.3494,39.9618 C137.5354,41.1198 139.8714,44.1658 139.8714,47.8378" id="Fill-16" fill="#1B243B"></path>
                                <path d="M134.3656,49.822 C134.3656,50.69 133.6616,51.392 132.7956,51.392 C131.9276,51.392 131.2276,50.69 131.2276,49.822 C131.2276,48.954 131.9276,48.254 132.7956,48.254 C133.6616,48.254 134.3656,48.954 134.3656,49.822" id="Fill-18" fill="#FFFFFF"></path>
                                <path d="M86.4144,57.2206 L111.8824,53.3766" id="Stroke-20" stroke="#FFFFFF" stroke-width="2.804" stroke-linecap="round"></path>
                                <path d="M135.8578,10.9568 C134.5858,10.4908 132.9438,11.1668 131.5038,11.3828 L128.4498,11.8408 L88.0198,17.9628 C83.9738,18.5708 80.9558,22.0168 80.8978,26.1008 C80.8898,26.1588 80.8898,26.2048 80.8898,26.2608 L80.8978,29.5028 C80.8978,30.8128 81.1978,32.0368 81.7218,33.1208 L71.6378,25.0168 L71.6198,25.0088 L71.1058,24.5868 L71.0858,24.5788 C69.3378,23.0568 68.2278,20.8128 68.2178,18.2788 L68.2178,15.0368 C68.2078,10.8888 71.2358,7.3548 75.3378,6.7388 L118.8218,0.1608 C120.8798,-0.1492 122.8498,0.3088 124.4678,1.3088 L135.8578,10.9568 Z" id="Fill-22" fill="#EE6450"></path>
                                <path d="M139.8714,18.1052 L139.8714,21.3472 C139.8714,25.4872 136.8434,29.0112 132.7434,29.6392 L89.2574,36.2072 C85.4914,36.7772 81.9954,34.7492 80.4534,31.5552 C79.9294,30.4692 79.6314,29.2452 79.6314,27.9372 L79.6214,24.6932 C79.6214,24.6392 79.6214,24.5912 79.6314,24.5352 C79.6874,20.4512 82.7054,17.0032 86.7514,16.3952 L127.1814,10.2732 L130.2374,9.8152 C131.6754,9.6012 133.0794,9.7592 134.3494,10.2272 C137.5354,11.3872 139.8714,14.4332 139.8714,18.1052" id="Fill-24" fill="#1B243B"></path>
                                <path d="M134.3656,20.0896 C134.3656,20.9576 133.6616,21.6596 132.7956,21.6596 C131.9276,21.6596 131.2276,20.9576 131.2276,20.0896 C131.2276,19.2216 131.9276,18.5196 132.7956,18.5196 C133.6616,18.5196 134.3656,19.2216 134.3656,20.0896" id="Fill-26" fill="#FFFFFF"></path>
                                <path d="M86.4144,27.488 L111.8824,23.644" id="Stroke-28" stroke="#FFFFFF" stroke-width="2.804" stroke-linecap="round"></path>
                                <g id="Group-32" transform="translate(174.000000, 70.000000)">
                                    <mask id="mask-2" fill="white">
                                        <use xlink:href="#path-1"></use>
                                    </mask>
                                    <g id="Clip-31"></g>
                                    <polygon id="Fill-30" fill="#3889C9" mask="url(#mask-2)" points="19.3402 6.5174 7.3542 8.2214 0.0002 1.7154 11.9862 0.0114"></polygon>
                                </g>
                                <polygon id="Fill-33" fill="#1B243B" points="185.9866 70.0116 185.9866 61.1656 174.0006 62.8216 174.0006 71.7156"></polygon>
                                <g id="Group-37" transform="translate(185.000000, 61.000000)">
                                    <mask id="mask-4" fill="white">
                                        <use xlink:href="#path-3"></use>
                                    </mask>
                                    <g id="Clip-36"></g>
                                    <polygon id="Fill-35" fill="#EE6450" mask="url(#mask-4)" points="0.9866 0.1658 0.9866 9.0118 8.3406 15.5178 8.3406 5.4398"></polygon>
                                </g>
                                <polygon id="Fill-38" fill="#EE6450" points="19.3402 58.5174 7.3542 60.2214 0.0002 53.7154 11.9862 52.0114"></polygon>
                                <polygon id="Fill-40" fill="#3889C9" points="11.9866 52.0116 11.9866 43.1656 0.0006 44.8216 0.0006 53.7156"></polygon>
                                <polygon id="Fill-42" fill="#1B243B" points="11.9866 43.1658 11.9866 52.0118 19.3406 58.5178 19.3406 48.4398"></polygon>
                            </g>
                        </g>
                    </g>
                </g>
            </g>
        </g>
    </g>
</svg>