<?xml version="1.0" encoding="UTF-8"?>
<svg width="236px" height="138px" viewBox="0 0 236 138" version="1.1" xmlns="http://www.w3.org/2000/svg" xmlns:xlink="http://www.w3.org/1999/xlink">
    <!-- Generator: Sketch 50.2 (55047) - http://www.bohemiancoding.com/sketch -->
    <title>app_web@2x</title>
    <desc>Created with Sketch.</desc>
    <defs></defs>
    <g id="Official-Landing-page" stroke="none" stroke-width="1" fill="none" fill-rule="evenodd">
        <g id="Landing-Page-1366" transform="translate(-574.000000, -4816.000000)">
            <g id="Comparison" transform="translate(226.569531, 3625.008394)">
                <g id="app_web" transform="translate(336.678665, 1189.840854)">
                    <g id="Group-26-Copy-3" transform="translate(9.926224, 108.751862)" stroke-dasharray="0.7822847664356232,3.911423778533936" stroke-linecap="round" stroke-width="1.56456954">
                        <path d="M119.102536,0.0285739939 L119.102536,0.0285739939 C119.102536,16.3132623 105.901188,29.5146105 89.6164997,29.5146105 L0.505246259,29.5146105" id="Path-5" stroke="#11EBD4"></path>
                        <path d="M237.699826,0.0285739939 L237.699826,0.0285739939 C237.699826,16.3132623 224.498478,29.5146105 208.21379,29.5146105 L119.102536,29.5146105" id="Path-5" stroke="#FFFFFF" transform="translate(178.401181, 14.771592) scale(-1, 1) translate(-178.401181, -14.771592) "></path>
                    </g>
                    <g id="grid-world" opacity="0.4" transform="translate(101.950600, 1.900618)" fill="#11EBD4" fill-rule="nonzero">
                        <path d="M65.3683501,30.5418803 C64.2950212,14.2063375 51.2405489,1.14750207 34.9050061,0.0741731379 L34.9050061,0 L32.7234432,0 L30.5418803,0 L30.5418803,0.0741731379 C14.2063375,1.14750207 1.14750207,14.2063375 0.0741731379,30.5418803 L0,30.5418803 L0,32.7234432 L0,34.9050061 L0.0741731379,34.9050061 C1.14750207,51.2405489 14.2063375,64.2950212 30.5418803,65.3683501 L30.5418803,65.4468864 L32.7234432,65.4468864 L34.9050061,65.4468864 L34.9050061,65.3683501 C51.2405489,64.2950212 64.2950212,51.2405489 65.3683501,34.9050061 L65.4468864,34.9050061 L65.4468864,32.7234432 L65.4468864,30.5418803 L65.3683501,30.5418803 Z M20.4848754,7.13371061 C18.3774857,9.93483735 16.6278723,13.4471536 15.3538395,17.452503 L8.81787716,17.452503 C11.6626351,13.0152041 15.7028896,9.42435164 20.4848754,7.13371061 Z M6.53596238,21.8156288 L14.2063375,21.8156288 C13.6216786,24.5731243 13.2508129,27.5007816 13.1330085,30.5418803 L4.44602515,30.5418803 C4.67727081,27.4702398 5.40154969,24.5338561 6.53596238,21.8156288 Z M4.44602515,34.9050061 L13.1330085,34.9050061 C13.2508129,37.9461047 13.6216786,40.8737621 14.2063375,43.6312576 L6.53596238,43.6312576 C5.40154969,40.9130302 4.67727081,37.9766466 4.44602515,34.9050061 Z M8.81787716,47.9943833 L15.3494764,47.9943833 C16.6235091,51.9997328 18.3731226,55.512049 20.4848754,58.3131757 C15.7028896,56.0225347 11.6626351,52.4360453 8.81787716,47.9943833 Z M30.5418803,60.8045206 C26.056587,59.604661 22.1952207,54.7877701 19.8522222,47.9943833 L30.5418803,47.9943833 L30.5418803,60.8045206 Z M30.5418803,43.6312576 L18.6261839,43.6312576 C18.0109831,40.9130302 17.6226649,37.9766466 17.4961343,34.9050061 L30.5418803,34.9050061 L30.5418803,43.6312576 Z M30.5418803,30.5418803 L17.4961343,30.5418803 C17.6226649,27.4702398 18.0109831,24.5338561 18.6261839,21.8156288 L30.5418803,21.8156288 L30.5418803,30.5418803 Z M30.5418803,17.452503 L19.8522222,17.452503 C22.1952207,10.6591162 26.056587,5.84222539 30.5418803,4.64672893 L30.5418803,17.452503 Z M56.6290092,17.452503 L50.1017731,17.452503 C48.8233772,13.4471536 47.0781269,9.93483735 44.9620109,7.13371061 C49.7396336,9.42435164 53.7842512,13.0152041 56.6290092,17.452503 Z M34.9050061,4.64672893 C39.3859362,5.84222539 43.2516656,10.6591162 45.5946642,17.452503 L34.9050061,17.452503 L34.9050061,4.64672893 Z M34.9050061,21.8156288 L46.8163394,21.8156288 C47.4359032,24.5338561 47.8154952,27.4702398 47.9507521,30.5418803 L34.9050061,30.5418803 L34.9050061,21.8156288 Z M34.9050061,34.9050061 L47.9507521,34.9050061 C47.8242214,37.9766466 47.4359032,40.9130302 46.8163394,43.6312576 L34.9050061,43.6312576 L34.9050061,34.9050061 Z M34.9050061,60.8045206 L34.9050061,47.9943833 L45.5946642,47.9943833 C43.2516656,54.7877701 39.3859362,59.604661 34.9050061,60.8045206 Z M44.9620109,58.3131757 C47.0694007,55.5076859 48.8233772,51.9997328 50.1017731,47.9943833 L56.6290092,47.9943833 C53.7842512,52.4360453 49.7396336,56.0225347 44.9620109,58.3131757 Z M58.910924,43.6312576 L51.2405489,43.6312576 C51.8252077,40.8737621 52.1960734,37.9461047 52.3138778,34.9050061 L60.9964981,34.9050061 C60.7696155,37.9766466 60.0453367,40.9130302 58.910924,43.6312576 Z M52.3138778,30.5418803 C52.1960734,27.5007816 51.8252077,24.5731243 51.2405489,21.8156288 L58.910924,21.8156288 C60.0453367,24.5338561 60.7696155,27.4702398 61.0008612,30.5418803 L52.3138778,30.5418803 Z" id="Shape"></path>
                    </g>
                    <g id="app-store-apple-symbol" transform="translate(131.339113, 16.761490)" fill="#FFFFFF" fill-rule="nonzero">
                        <path d="M0,21.9208169 L0,16.539044 C0,16.0461036 0.404974584,15.642881 0.901050008,15.642881 L10.4111294,15.642881 L6.27065154,22.8181786 L0.901050008,22.8181786 C0.404974584,22.8181786 0,22.4157858 0,21.9208169 Z M6.77438017,32.9409757 L3.73937597,34.9971991 C3.33098972,35.2747431 3.04219637,35.0990882 3.09881167,34.6090062 L3.50378625,31.09102 C3.56012493,30.6009381 3.95753851,30.400756 4.38731687,30.6456586 L6.73611413,31.9874597 C7.16515482,32.233561 7.18276642,32.6642615 6.77438017,32.9409757 Z M7.50318689,30.9579649 L5.15438963,29.6157028 C4.7249801,29.3704313 4.57366787,28.8204146 4.82345753,28.3926648 L15.6996807,9.53912469 C15.9464275,9.11072944 16.5026221,8.9605237 16.931755,9.20902245 L19.2805522,10.5477806 C19.7102384,10.7962794 19.8576779,11.3467571 19.6114843,11.7735849 L8.73544562,30.6284159 C8.48906764,31.0561657 7.932412,31.2028675 7.50318689,30.9579649 Z M15.7807309,22.8181786 L19.9212088,15.642881 L22.3053214,15.642881 L25.6674772,22.8181786 L15.7807309,22.8181786 Z M29.2660526,24.9594172 C28.3258145,24.4898974 23.6428809,13.7329906 22.4430792,10.9263839 C21.2419865,8.11968508 17.6152879,0.648770759 18.7884417,0.0674035566 C19.6228258,-0.349373565 22.6190108,5.53354616 24.8650891,9.06536344 C27.1079401,12.5973651 31.798158,21.7040374 32.3752837,22.7410933 C32.9494587,23.7808231 31.8227774,24.647572 31.1962286,24.9070434 C30.5690344,25.1665148 30.2059219,25.4251564 29.2660526,24.9594172 Z M32.34338,29.9037585 L30.9284585,27.6784268 C30.6357925,27.2153616 30.7877501,26.6438606 31.2623413,26.39988 L32.6110578,25.7092471 C33.086571,25.4673873 33.6817693,25.6636045 33.9347862,26.1477852 L35.0509559,28.2852433 C35.3048949,28.7685019 35.131914,29.3891494 34.6740124,29.6623597 L33.7096159,30.2365347 C33.2518066,30.5130645 32.6359538,30.3623977 32.34338,29.9037585 Z M37.550881,35.740759 C37.2552643,34.7978468 34.9981211,34.7355147 33.987621,33.3157984 C32.9738015,31.9007848 33.8116895,31.1717937 34.1636448,30.8353291 C38.2622605,28.5368771 37.550881,35.740759 37.550881,35.740759 Z M39.6599392,21.9208169 C39.6599392,22.4156936 39.2550568,22.8180864 38.7588892,22.8180864 L33.9985015,22.8180864 C33.9460355,22.5413722 33.860836,22.264658 33.7169925,22.0051866 C33.5930659,21.78435 33.2798376,21.1887829 32.8434203,20.3587325 C32.2133676,19.1606827 31.3084449,17.4472862 30.3397147,15.642881 L38.7584282,15.642881 C39.254688,15.642881 39.6595704,16.0461036 39.6595704,16.539044 L39.6595704,21.9208169 L39.6599392,21.9208169 Z" id="App_Store"></path>
                    </g>
                    <rect id="Rectangle-5-Copy-4" x="0.268354789" y="0.0142789194" width="261.283113" height="150.198675"></rect>
                </g>
            </g>
        </g>
    </g>
</svg>