<?xml version="1.0" encoding="UTF-8"?>
<svg width="236px" height="134px" viewBox="0 0 236 134" version="1.1" xmlns="http://www.w3.org/2000/svg" xmlns:xlink="http://www.w3.org/1999/xlink">
    <!-- Generator: Sketch 50.2 (55047) - http://www.bohemiancoding.com/sketch -->
    <title>CDN@2x</title>
    <desc>Created with Sketch.</desc>
    <defs></defs>
    <g id="Official-Landing-page" stroke="none" stroke-width="1" fill="none" fill-rule="evenodd">
        <g id="Landing-Page-1366" transform="translate(-574.000000, -4820.000000)">
            <g id="Comparison" transform="translate(226.569531, 3625.008394)">
                <g id="CDN" transform="translate(336.678665, 1189.840854)">
                    <g id="Group-26-Copy-3" transform="translate(9.926224, 108.751862)" stroke-dasharray="0.7822847664356232,3.911423778533936" stroke-linecap="round" stroke-width="1.56456954">
                        <path d="M119.102536,0.0285739939 L119.102536,0.0285739939 C119.102536,16.3132623 105.901188,29.5146105 89.6164997,29.5146105 L0.505246259,29.5146105" id="Path-5" stroke="#11EBD4"></path>
                        <path d="M237.699826,0.0285739939 L237.699826,0.0285739939 C237.699826,16.3132623 224.498478,29.5146105 208.21379,29.5146105 L119.102536,29.5146105" id="Path-5" stroke="#FFFFFF" transform="translate(178.401181, 14.771592) scale(-1, 1) translate(-178.401181, -14.771592) "></path>
                    </g>
                    <g id="cloud" opacity="0.5" transform="translate(84.366373, 5.920620)" fill="#11EBD4" fill-rule="nonzero">
                        <path d="M76.7029179,21.8496832 C75.8996686,9.72520018 65.9852848,0.13121734 53.8760974,0.13121734 C42.6979111,0.13121734 33.4005373,8.30054853 31.4314546,19.0800807 C31.1766367,19.0701181 30.9122179,19.0601555 30.657498,19.0601555 C22.3301171,19.0601555 15.3057264,24.6690987 13.0132474,32.3701877 C12.6605583,32.3403996 12.2980724,32.3203747 11.9355864,32.3203747 C5.36185391,32.3203747 0.0225332166,37.7400286 0.0225332166,44.4348951 C0.0225332166,51.1298613 5.35205699,56.5495151 11.9257894,56.5495151 C12.0237586,56.5495151 76.693219,56.5495151 76.693219,56.5495151 C86.1179527,56.5495151 93.7496544,48.7786879 93.7496544,39.204431 C93.7495565,29.630473 86.1276517,21.8496832 76.7029179,21.8496832 Z" id="Shape"></path>
                    </g>
                    <g id="network" transform="translate(129.240545, 14.027409)" fill="#FFFFFF" fill-rule="nonzero">
                        <path d="M43.2144068,0 C40.2961114,0 37.9228468,2.37326467 37.9228468,5.29156001 C37.9228468,6.20435412 38.1547935,7.06335069 38.5631255,7.81387029 L29.8946683,16.4823275 C28.6996577,15.5518949 27.20391,14.9927534 25.5758734,14.9927534 C23.9478368,14.9927534 22.4520891,15.5518949 21.2561966,16.4814456 L14.492701,9.71794997 C14.8031391,9.1932036 14.9927534,8.58996576 14.9927534,7.93734002 C14.9927534,5.99180979 13.4105769,4.40963335 11.4650467,4.40963335 C9.51951647,4.40963335 7.93734002,5.99180979 7.93734002,7.93734002 C7.93734002,9.88287025 9.51951647,11.4650467 11.4650467,11.4650467 C12.1176724,11.4650467 12.7209103,11.2754325 13.2456566,10.9649943 L20.0091523,17.7284899 C19.0796016,18.9243825 18.5204601,20.4201301 18.5204601,22.0481667 C18.5204601,23.6762034 19.0796016,25.171951 20.0091523,26.3669616 L8.84043293,37.5365629 C7.9002991,36.6837398 6.65766442,36.1589934 5.29156001,36.1589934 C2.37326467,36.1589934 0,38.5322581 0,41.4505534 C0,44.3688488 2.37326467,46.7421135 5.29156001,46.7421135 C8.20985536,46.7421135 10.58312,44.3688488 10.58312,41.4505534 C10.58312,40.5377593 10.3511733,39.6787628 9.94284127,38.9282432 L21.2570785,27.6140059 C22.2324894,28.3724629 23.4089796,28.8804526 24.6948287,29.0418452 L24.6948287,38.0022202 C22.1963304,38.4237811 20.2851953,40.5968484 20.2851953,43.2144068 C20.2851953,46.1327021 22.65846,48.5059668 25.5767553,48.5059668 C28.4950507,48.5059668 30.8683153,46.1327021 30.8683153,43.2144068 C30.8683153,40.5977304 28.9571803,38.424663 26.458682,38.0022202 L26.458682,29.0418452 C27.7445311,28.8804526 28.9210213,28.3724629 29.8964322,27.6140059 L36.6599278,34.3775016 C36.3486077,34.9031299 36.1589934,35.5063677 36.1589934,36.1589934 C36.1589934,38.1045237 37.7411699,39.6867001 39.6867001,39.6867001 C41.6322303,39.6867001 43.2144068,38.1045237 43.2144068,36.1589934 C43.2144068,34.2134632 41.6322303,32.6312868 39.6867001,32.6312868 C39.0340744,32.6312868 38.4308365,32.820901 37.9060902,33.1313392 L31.1425945,26.3678436 C32.0721452,25.171951 32.6312868,23.6762034 32.6312868,22.0481667 C32.6312868,20.4201301 32.0721452,18.9243825 31.1425945,17.7293718 L39.6664158,9.20555057 C40.6056677,10.0583737 41.8483024,10.58312 43.2144068,10.58312 C46.1327021,10.58312 48.5059668,8.20985536 48.5059668,5.29156001 C48.5059668,2.37326467 46.1327021,0 43.2144068,0 Z M9.70119336,7.93734002 C9.70119336,6.96457491 10.4922816,6.17348668 11.4650467,6.17348668 C12.4378118,6.17348668 13.2289,6.96457491 13.2289,7.93734002 C13.2289,8.91010514 12.4378118,9.70119336 11.4650467,9.70119336 C10.4922816,9.70119336 9.70119336,8.91010514 9.70119336,7.93734002 Z M5.29156001,44.9782601 C3.34602978,44.9782601 1.76385334,43.3960837 1.76385334,41.4505534 C1.76385334,39.5050232 3.34602978,37.9228468 5.29156001,37.9228468 C7.23709025,37.9228468 8.81926669,39.5050232 8.81926669,41.4505534 C8.81926669,43.3960837 7.23709025,44.9782601 5.29156001,44.9782601 Z M29.1035801,43.2144068 C29.1035801,45.159937 27.5214036,46.7421135 25.5758734,46.7421135 C23.6303432,46.7421135 22.0481667,45.159937 22.0481667,43.2144068 C22.0481667,41.2688766 23.6303432,39.6867001 25.5758734,39.6867001 C27.5214036,39.6867001 29.1035801,41.2688766 29.1035801,43.2144068 Z M25.5758734,27.3397267 C22.6575781,27.3397267 20.2843134,24.9664621 20.2843134,22.0481667 C20.2843134,19.1298714 22.6575781,16.7566067 25.5758734,16.7566067 C28.4941688,16.7566067 30.8674334,19.1298714 30.8674334,22.0481667 C30.8674334,24.9664621 28.4941688,27.3397267 25.5758734,27.3397267 Z M41.4505534,36.1589934 C41.4505534,37.1317585 40.6594652,37.9228468 39.6867001,37.9228468 C38.713935,37.9228468 37.9228468,37.1317585 37.9228468,36.1589934 C37.9228468,35.1862283 38.713935,34.3951401 39.6867001,34.3951401 C40.6594652,34.3951401 41.4505534,35.1862283 41.4505534,36.1589934 Z M43.2144068,8.81926669 C41.2688766,8.81926669 39.6867001,7.23709025 39.6867001,5.29156001 C39.6867001,3.34602978 41.2688766,1.76385334 43.2144068,1.76385334 C45.159937,1.76385334 46.7421135,3.34602978 46.7421135,5.29156001 C46.7421135,7.23709025 45.159937,8.81926669 43.2144068,8.81926669 Z" id="Shape"></path>
                    </g>
                    <rect id="Rectangle-5-Copy-4" x="0.268354789" y="0.0142789194" width="261.283113" height="150.198675"></rect>
                </g>
            </g>
        </g>
    </g>
</svg>