<?xml version="1.0" encoding="UTF-8"?>
<svg width="147px" height="153px" viewBox="0 0 147 153" version="1.1" xmlns="http://www.w3.org/2000/svg" xmlns:xlink="http://www.w3.org/1999/xlink">
    <!-- Generator: Sketch 50.2 (55047) - http://www.bohemiancoding.com/sketch -->
    <title>Centralized@1x</title>
    <desc>Created with Sketch.</desc>
    <defs></defs>
    <g id="Official-Landing-page" stroke="none" stroke-width="1" fill="none" fill-rule="evenodd">
        <g id="Landing-Page-1366" transform="translate(-324.000000, -3626.000000)">
            <g id="Comparison" transform="translate(225.569531, 3625.008394)">
                <g id="Centralized" transform="translate(62.637786, 0.678388)">
                    <g id="Group-7" transform="translate(35.985099, 62.331839)" fill="#11EBD4">
                        <polygon id="Stroke-2" points="18.6686939 5.53456708 9.33445486 10.8990028 0.107694457 5.53456708 9.33445486 0.170131344"></polygon>
                        <polygon id="Stroke-5" fill-opacity="0.6" points="9.33445486 21.6277448 9.33445486 10.8990891 18.6686939 5.53465341 18.6686939 16.2635249"></polygon>
                        <polygon id="Stroke-8" fill-opacity="0.8" points="0.107694457 5.53456708 0.107694457 16.2634386 9.33445486 21.6276585 9.33445486 10.8990028"></polygon>
                    </g>
                    <g id="Group-7-Copy" transform="translate(163.685265, 63.169495)" fill="#11EBD4">
                        <polygon id="Stroke-2" points="18.6686939 5.53456708 9.33445486 10.8990028 0.107694457 5.53456708 9.33445486 0.170131344"></polygon>
                        <polygon id="Stroke-5" fill-opacity="0.6" points="9.33445486 21.6277448 9.33445486 10.8990891 18.6686939 5.53465341 18.6686939 16.2635249"></polygon>
                        <polygon id="Stroke-8" fill-opacity="0.8" points="0.107694457 5.53456708 0.107694457 16.2634386 9.33445486 21.6276585 9.33445486 10.8990028"></polygon>
                    </g>
                    <g id="Group-7-Copy-4" transform="translate(91.796274, 54.651758)" fill="#FFFFFF">
                        <polygon id="Stroke-2" points="35.0038011 10.3773133 17.5021029 20.4356303 0.201927108 10.3773133 17.5021029 0.31899627"></polygon>
                        <polygon id="Stroke-5" fill-opacity="0.6" points="17.5021029 40.5520215 17.5021029 20.4357921 35.0038011 10.3774751 35.0038011 30.4941091"></polygon>
                        <polygon id="Stroke-8" opacity="0.8" points="0.201927108 10.3773133 0.201927108 30.4939473 17.5021029 40.5518596 17.5021029 20.4356303"></polygon>
                    </g>
                    <g id="Group-7-Copy-2" transform="translate(100.229304, 1.055313)" fill="#11EBD4">
                        <polygon id="Stroke-2" points="18.6686939 5.53456708 9.33445486 10.8990028 0.107694457 5.53456708 9.33445486 0.170131344"></polygon>
                        <polygon id="Stroke-5" fill-opacity="0.6" points="9.33445486 21.6277448 9.33445486 10.8990891 18.6686939 5.53465341 18.6686939 16.2635249"></polygon>
                        <polygon id="Stroke-8" fill-opacity="0.8" points="0.107694457 5.53456708 0.107694457 16.2634386 9.33445486 21.6276585 9.33445486 10.8990028"></polygon>
                    </g>
                    <g id="Group-7-Copy-12" transform="translate(163.685265, 5.343005)" fill="#11EBD4">
                        <polygon id="Stroke-2" points="18.6686939 5.53456708 9.33445486 10.8990028 0.107694457 5.53456708 9.33445486 0.170131344"></polygon>
                        <polygon id="Stroke-5" fill-opacity="0.6" points="9.33445486 21.6277448 9.33445486 10.8990891 18.6686939 5.53465341 18.6686939 16.2635249"></polygon>
                        <polygon id="Stroke-8" fill-opacity="0.8" points="0.107694457 5.53456708 0.107694457 16.2634386 9.33445486 21.6276585 9.33445486 10.8990028"></polygon>
                    </g>
                    <g id="Group-7-Copy-13" transform="translate(40.803974, 124.911320)" fill="#11EBD4">
                        <polygon id="Stroke-2" points="18.6686939 5.53456708 9.33445486 10.8990028 0.107694457 5.53456708 9.33445486 0.170131344"></polygon>
                        <polygon id="Stroke-5" fill-opacity="0.6" points="9.33445486 21.6277448 9.33445486 10.8990891 18.6686939 5.53465341 18.6686939 16.2635249"></polygon>
                        <polygon id="Stroke-8" fill-opacity="0.8" points="0.107694457 5.53456708 0.107694457 16.2634386 9.33445486 21.6276585 9.33445486 10.8990028"></polygon>
                    </g>
                    <g id="Group-7-Copy-3" transform="translate(100.229304, 130.996090)" fill="#11EBD4">
                        <polygon id="Stroke-2" points="18.6686939 5.53456708 9.33445486 10.8990028 0.107694457 5.53456708 9.33445486 0.170131344"></polygon>
                        <polygon id="Stroke-5" fill-opacity="0.6" points="9.33445486 21.6277448 9.33445486 10.8990891 18.6686939 5.53465341 18.6686939 16.2635249"></polygon>
                        <polygon id="Stroke-8" fill-opacity="0.8" points="0.107694457 5.53456708 0.107694457 16.2634386 9.33445486 21.6276585 9.33445486 10.8990028"></polygon>
                    </g>
                    <path d="M109.264693,28.3038345 L109.264693,52.3982054" id="Line-8" stroke="#00D5BF" stroke-width="1.20471854" stroke-linecap="round" stroke-linejoin="round" stroke-dasharray="1.204718470573425,3.614155626296997"></path>
                    <path d="M159.46875,28.2326573 L127.543709,57.0335482" id="Line-8-Copy-4" stroke="#00D5BF" stroke-width="1.20471854" stroke-linecap="round" stroke-linejoin="round" stroke-dasharray="1.204718470573425,3.614155626296997"></path>
                    <path d="M94.4223175,95.329833 L62.3067744,127.445376" id="Line-8-Copy-7" stroke="#00D5BF" stroke-width="1.20471854" stroke-linecap="round" stroke-linejoin="round" stroke-dasharray="1.204718470573425,3.614155626296997"></path>
                    <path d="M155.043998,74.9813839 L130.949627,74.9813839" id="Line-8-Copy-2" stroke="#00D5BF" stroke-width="1.20471854" stroke-linecap="round" stroke-linejoin="round" stroke-dasharray="1.204718470573425,3.614155626296997"></path>
                    <path d="M109.264693,102.925207 L109.264693,127.019578" id="Line-8-Copy" stroke="#00D5BF" stroke-width="1.20471854" stroke-linecap="round" stroke-linejoin="round" stroke-dasharray="1.204718470573425,3.614155626296997"></path>
                    <path d="M85.7726814,74.9813839 L61.6783105,74.9813839" id="Line-8-Copy-3" stroke="#00D5BF" stroke-width="1.20471854" stroke-linecap="round" stroke-linejoin="round" stroke-dasharray="1.204718470573425,3.614155626296997"></path>
                    <rect id="Rectangle-12-Copy-2" x="0.72728037" y="0.103897196" width="207.354356" height="163.680865"></rect>
                </g>
            </g>
        </g>
    </g>
</svg>