<?xml version="1.0" encoding="UTF-8"?>
<svg width="236px" height="134px" viewBox="0 0 236 134" version="1.1" xmlns="http://www.w3.org/2000/svg" xmlns:xlink="http://www.w3.org/1999/xlink">
    <!-- Generator: Sketch 50.2 (55047) - http://www.bohemiancoding.com/sketch -->
    <title>data@2x</title>
    <desc>Created with Sketch.</desc>
    <defs></defs>
    <g id="Official-Landing-page" stroke="none" stroke-width="1" fill="none" fill-rule="evenodd">
        <g id="Landing-Page-1366" transform="translate(-574.000000, -4595.000000)">
            <g id="Comparison" transform="translate(226.569531, 3625.008394)">
                <g id="data" transform="translate(336.679736, 968.468543)">
                    <g id="archive-(1)" transform="translate(103.418552, 18.041230)"></g>
                    <path d="M159.203025,2.39553429 L103.506454,2.39553429 C102.163906,2.39553429 101.071698,3.48774266 101.071698,4.83029084 L101.071698,16.5276204 L161.637781,16.5276204 L161.637781,4.83029084 C161.637781,3.48774266 160.545573,2.39553429 159.203025,2.39553429 Z" id="Shape" fill="#11EBD4" fill-rule="nonzero" opacity="0.5"></path>
                    <path d="M104.100002,58.5100105 C104.100002,60.9639463 106.097673,62.9616176 108.551609,62.9616176 L154.15787,62.9616176 C156.612815,62.9616176 158.609477,60.9639463 158.609477,58.5100105 L158.609477,18.5464898 L104.100002,18.5464898 L104.100002,58.5100105 Z M156.590607,50.8484009 L156.590607,57.5005757 C156.590607,59.4013413 155.049201,60.9427482 153.148435,60.9427482 L146.49626,60.9427482 C146.49626,55.3676402 151.0155,50.8484009 156.590607,50.8484009 Z M122.269827,30.6597065 C122.269827,30.1014891 122.721044,29.6502718 123.279262,29.6502718 C123.837479,29.6502718 124.288696,30.1014891 124.288696,30.6597065 L124.288696,32.1688114 C124.288696,33.0066422 124.970065,33.6880107 125.807896,33.6880107 L136.901583,33.6880107 C137.739414,33.6880107 138.420782,33.0066422 138.420782,32.1688114 L138.420782,30.6597065 C138.420782,30.1014891 138.872,29.6502718 139.430217,29.6502718 C139.988435,29.6502718 140.439652,30.1014891 140.439652,30.6597065 L140.439652,32.1688114 C140.439652,34.1200487 138.852821,35.7068801 136.901583,35.7068801 L125.807896,35.7068801 C123.856658,35.7068801 122.269827,34.1200487 122.269827,32.1688114 L122.269827,30.6597065 Z M106.118871,50.8484009 C111.693979,50.8484009 116.213219,55.3676402 116.213219,60.9427482 L109.561044,60.9427482 C107.660278,60.9427482 106.118871,59.4013413 106.118871,57.5005757 L106.118871,50.8484009 Z" id="Shape" fill="#11EBD4" fill-rule="nonzero" opacity="0.5"></path>
                    <g id="server-(1)" transform="translate(142.873281, 31.815496)" fill="#FFFFFF" fill-rule="nonzero">
                        <path d="M5.08727084,3.1492629 C3.88522141,3.1492629 2.90701191,4.12747241 2.90701191,5.32952183 C2.90701191,6.53157125 3.88522141,7.50978076 5.08727084,7.50978076 C6.28932026,7.50978076 7.26752977,6.53157125 7.26752977,5.32952183 C7.26752977,4.12747241 6.28932026,3.1492629 5.08727084,3.1492629 Z M5.08727084,6.54077679 C4.4196271,6.54077679 3.87601588,5.99765007 3.87601588,5.32952183 C3.87601588,4.66139359 4.4196271,4.11826687 5.08727084,4.11826687 C5.75491457,4.11826687 6.2985258,4.66139359 6.2985258,5.32952183 C6.2985258,5.99765007 5.75491457,6.54077679 5.08727084,6.54077679 Z" id="Shape"></path>
                        <circle id="Oval" cx="24.2250992" cy="4.60276885" r="1"></circle>
                        <circle id="Oval" cx="22.2870913" cy="4.60276885" r="1"></circle>
                        <circle id="Oval" cx="25.1941032" cy="6.05627481" r="1"></circle>
                        <circle id="Oval" cx="23.2560953" cy="6.05627481" r="1"></circle>
                        <circle id="Oval" cx="20.3490834" cy="4.60276885" r="1"></circle>
                        <circle id="Oval" cx="21.3180873" cy="6.05627481" r="1"></circle>
                        <circle id="Oval" cx="18.4110754" cy="4.60276885" r="1"></circle>
                        <circle id="Oval" cx="19.3800794" cy="6.05627481" r="1"></circle>
                        <circle id="Oval" cx="16.4730675" cy="4.60276885" r="1"></circle>
                        <circle id="Oval" cx="17.4420714" cy="6.05627481" r="1"></circle>
                        <path d="M29.0701191,8.18420752 L29.0701191,2.47483614 C29.0701191,1.24371659 28.0686535,0.242250992 26.8375339,0.242250992 L2.23258514,0.242250992 C1.0014656,0.242250992 0,1.24371659 0,2.47483614 L0,8.18372302 C0,8.89545644 0.340604895,9.52288651 0.860960027,9.93180618 C0.340604895,10.3412104 0,10.9691249 0,11.6803738 L0,17.3892607 C0,18.1009941 0.340604895,18.7284242 0.860960027,19.1373439 C0.340604895,19.5467481 0,20.1746626 0,20.8859116 L0,26.5947984 C0,27.8264025 1.0014656,28.8278681 2.23258514,28.8278681 L26.8370494,28.8278681 C28.068169,28.8278681 29.0696346,27.8264025 29.0696346,26.5952829 L29.0696346,20.8859116 C29.0696346,20.1741781 28.7290297,19.5467481 28.2086745,19.1378284 C28.7295142,18.7289087 29.0701191,18.1009941 29.0701191,17.3897452 L29.0701191,11.6803738 C29.0701191,10.9686404 28.7295142,10.3412104 28.209159,9.93229068 C28.7295142,9.52337101 29.0701191,8.89545644 29.0701191,8.18420752 Z M28.1011151,20.8859116 L28.1011151,26.5947984 C28.1011151,27.2915123 27.5342478,27.8583796 26.8375339,27.8583796 L2.23258514,27.8583796 C1.53587129,27.8588641 0.969003969,27.2919968 0.969003969,26.5952829 L0.969003969,20.8859116 C0.969003969,20.1891977 1.53587129,19.6223304 2.23258514,19.6223304 L26.8370494,19.6223304 C27.5342478,19.6223304 28.1011151,20.1891977 28.1011151,20.8859116 Z M28.1011151,11.6803738 L28.1011151,17.3892607 C28.1011151,18.0859746 27.5342478,18.6528419 26.8375339,18.6528419 L2.23258514,18.6528419 C1.53587129,18.6533264 0.969003969,18.0864591 0.969003969,17.3897452 L0.969003969,11.6803738 C0.969003969,10.98366 1.53587129,10.4167927 2.23258514,10.4167927 L26.8370494,10.4167927 C27.5342478,10.4167927 28.1011151,10.98366 28.1011151,11.6803738 Z M2.23258514,9.4477887 C1.53587129,9.4477887 0.969003969,8.88092138 0.969003969,8.18420752 L0.969003969,2.47483614 C0.969003969,1.77812228 1.53587129,1.21125496 2.23258514,1.21125496 L26.8370494,1.21125496 C27.5342478,1.21125496 28.1011151,1.77812228 28.1011151,2.47483614 L28.1011151,8.18372302 C28.1011151,8.88043688 27.5342478,9.4473042 26.8375339,9.4473042 L2.23258514,9.4473042 L2.23258514,9.4477887 Z" id="Shape"></path>
                        <path d="M5.08727084,16.7153185 C6.28932026,16.7153185 7.26752977,15.737109 7.26752977,14.5350595 C7.26752977,13.3330101 6.28932026,12.3548006 5.08727084,12.3548006 C3.88522141,12.3548006 2.90701191,13.3330101 2.90701191,14.5350595 C2.90701191,15.737109 3.88522141,16.7153185 5.08727084,16.7153185 Z M5.08727084,13.3238046 C5.75491457,13.3238046 6.2985258,13.8669313 6.2985258,14.5350595 C6.2985258,15.2031878 5.75491457,15.7463145 5.08727084,15.7463145 C4.4196271,15.7463145 3.87601588,15.2031878 3.87601588,14.5350595 C3.87601588,13.8669313 4.4196271,13.3238046 5.08727084,13.3238046 Z" id="Shape"></path>
                        <circle id="Oval" cx="24.2250992" cy="13.8083066" r="1"></circle>
                        <circle id="Oval" cx="22.2870913" cy="13.8083066" r="1"></circle>
                        <circle id="Oval" cx="25.1941032" cy="15.2618125" r="1"></circle>
                        <circle id="Oval" cx="23.2560953" cy="15.2618125" r="1"></circle>
                        <circle id="Oval" cx="20.3490834" cy="13.8083066" r="1"></circle>
                        <circle id="Oval" cx="21.3180873" cy="15.2618125" r="1"></circle>
                        <circle id="Oval" cx="18.4110754" cy="13.8083066" r="1"></circle>
                        <circle id="Oval" cx="19.3800794" cy="15.2618125" r="1"></circle>
                        <circle id="Oval" cx="16.4730675" cy="13.8083066" r="1"></circle>
                        <circle id="Oval" cx="17.4420714" cy="15.2618125" r="1"></circle>
                        <path d="M5.08727084,25.9208562 C6.28932026,25.9208562 7.26752977,24.9426467 7.26752977,23.7405972 C7.26752977,22.5385478 6.28932026,21.5603383 5.08727084,21.5603383 C3.88522141,21.5603383 2.90701191,22.5385478 2.90701191,23.7405972 C2.90701191,24.9426467 3.88522141,25.9208562 5.08727084,25.9208562 Z M5.08727084,22.5293423 C5.75491457,22.5293423 6.2985258,23.072469 6.2985258,23.7405972 C6.2985258,24.4087255 5.75491457,24.9518522 5.08727084,24.9518522 C4.4196271,24.9518522 3.87601588,24.4087255 3.87601588,23.7405972 C3.87601588,23.072469 4.4196271,22.5293423 5.08727084,22.5293423 Z" id="Shape"></path>
                        <circle id="Oval" cx="24.2250992" cy="23.0138443" r="1"></circle>
                        <circle id="Oval" cx="22.2870913" cy="23.0138443" r="1"></circle>
                        <circle id="Oval" cx="25.1941032" cy="24.4673502" r="1"></circle>
                        <circle id="Oval" cx="23.2560953" cy="24.4673502" r="1"></circle>
                        <circle id="Oval" cx="20.3490834" cy="23.0138443" r="1"></circle>
                        <circle id="Oval" cx="21.3180873" cy="24.4673502" r="1"></circle>
                        <circle id="Oval" cx="18.4110754" cy="23.0138443" r="1"></circle>
                        <circle id="Oval" cx="19.3800794" cy="24.4673502" r="1"></circle>
                        <circle id="Oval" cx="16.4730675" cy="23.0138443" r="1"></circle>
                        <circle id="Oval" cx="17.4420714" cy="24.4673502" r="1"></circle>
                    </g>
                    <g id="Group-26-Copy-2" transform="translate(9.925153, 104.826159)" stroke-dasharray="0.7822847664356232,3.911423778533936" stroke-linecap="round" stroke-width="1.56456954">
                        <path d="M119.102536,0.0285739939 L119.102536,0.0285739939 C119.102536,16.3132623 105.901188,29.5146105 89.6164997,29.5146105 L0.505246259,29.5146105" id="Path-5" stroke="#11EBD4"></path>
                        <path d="M237.699826,0.0285739939 L237.699826,0.0285739939 C237.699826,16.3132623 224.498478,29.5146105 208.21379,29.5146105 L119.102536,29.5146105" id="Path-5" stroke="#FFFFFF" transform="translate(178.401181, 14.771592) scale(-1, 1) translate(-178.401181, -14.771592) "></path>
                    </g>
                    <rect id="Rectangle-5-Copy-3" x="0.267284267" y="0" width="261.283113" height="150.198675"></rect>
                </g>
            </g>
        </g>
    </g>
</svg>