<?xml version="1.0" encoding="UTF-8"?>
<svg width="195px" height="153px" viewBox="0 0 195 153" version="1.1" xmlns="http://www.w3.org/2000/svg" xmlns:xlink="http://www.w3.org/1999/xlink">
    <!-- Generator: Sketch 50.2 (55047) - http://www.bohemiancoding.com/sketch -->
    <title>Decentralized@2x</title>
    <desc>Created with Sketch.</desc>
    <defs></defs>
    <g id="Official-Landing-page" stroke="none" stroke-width="1" fill="none" fill-rule="evenodd">
        <g id="Landing-Page-1366" transform="translate(-892.000000, -3635.000000)">
            <g id="Comparison" transform="translate(225.569531, 3625.008394)">
                <g id="Decentralized" transform="translate(659.466060, 0.678388)">
                    <g id="Group-7-Copy-5" transform="translate(7.392198, 69.990407)" fill="#11EBD4">
                        <polygon id="Stroke-2" points="18.6686939 5.53456708 9.33445486 10.8990028 0.107694457 5.53456708 9.33445486 0.170131344"></polygon>
                        <polygon id="Stroke-5" fill-opacity="0.6" points="9.33445486 21.6277448 9.33445486 10.8990891 18.6686939 5.53465341 18.6686939 16.2635249"></polygon>
                        <polygon id="Stroke-8" fill-opacity="0.8" points="0.107694457 5.53456708 0.107694457 16.2634386 9.33445486 21.6276585 9.33445486 10.8990028"></polygon>
                    </g>
                    <g id="Group-7-Copy-6" transform="translate(179.666950, 112.692032)" fill="#11EBD4">
                        <polygon id="Stroke-2" points="18.6686939 5.53456708 9.33445486 10.8990028 0.107694457 5.53456708 9.33445486 0.170131344"></polygon>
                        <polygon id="Stroke-5" fill-opacity="0.6" points="9.33445486 21.6277448 9.33445486 10.8990891 18.6686939 5.53465341 18.6686939 16.2635249"></polygon>
                        <polygon id="Stroke-8" fill-opacity="0.8" points="0.107694457 5.53456708 0.107694457 16.2634386 9.33445486 21.6276585 9.33445486 10.8990028"></polygon>
                    </g>
                    <g id="Group-7-Copy-7" transform="translate(118.226304, 9.647696)" fill="#11EBD4">
                        <polygon id="Stroke-2" points="18.6686939 5.53456708 9.33445486 10.8990028 0.107694457 5.53456708 9.33445486 0.170131344"></polygon>
                        <polygon id="Stroke-5" fill-opacity="0.6" points="9.33445486 21.6277448 9.33445486 10.8990891 18.6686939 5.53465341 18.6686939 16.2635249"></polygon>
                        <polygon id="Stroke-8" fill-opacity="0.8" points="0.107694457 5.53456708 0.107694457 16.2634386 9.33445486 21.6276585 9.33445486 10.8990028"></polygon>
                    </g>
                    <g id="Group-7-Copy-8" transform="translate(76.061155, 60.955018)" fill="#11EBD4">
                        <polygon id="Stroke-2" points="18.6686939 5.53456708 9.33445486 10.8990028 0.107694457 5.53456708 9.33445486 0.170131344"></polygon>
                        <polygon id="Stroke-5" fill-opacity="0.6" points="9.33445486 21.6277448 9.33445486 10.8990891 18.6686939 5.53465341 18.6686939 16.2635249"></polygon>
                        <polygon id="Stroke-8" fill-opacity="0.8" points="0.107694457 5.53456708 0.107694457 16.2634386 9.33445486 21.6276585 9.33445486 10.8990028"></polygon>
                    </g>
                    <g id="Group-7-Copy-10" transform="translate(8.596916, 140.359658)" fill="#11EBD4">
                        <polygon id="Stroke-2" points="18.6686939 5.53456708 9.33445486 10.8990028 0.107694457 5.53456708 9.33445486 0.170131344"></polygon>
                        <polygon id="Stroke-5" fill-opacity="0.6" points="9.33445486 21.6277448 9.33445486 10.8990891 18.6686939 5.53465341 18.6686939 16.2635249"></polygon>
                        <polygon id="Stroke-8" fill-opacity="0.8" points="0.107694457 5.53456708 0.107694457 16.2634386 9.33445486 21.6276585 9.33445486 10.8990028"></polygon>
                    </g>
                    <g id="Group-7-Copy-11" transform="translate(183.281105, 24.813462)" fill="#11EBD4">
                        <polygon id="Stroke-2" points="18.6686939 5.53456708 9.33445486 10.8990028 0.107694457 5.53456708 9.33445486 0.170131344"></polygon>
                        <polygon id="Stroke-5" fill-opacity="0.6" points="9.33445486 21.6277448 9.33445486 10.8990891 18.6686939 5.53465341 18.6686939 16.2635249"></polygon>
                        <polygon id="Stroke-8" fill-opacity="0.8" points="0.107694457 5.53456708 0.107694457 16.2634386 9.33445486 21.6276585 9.33445486 10.8990028"></polygon>
                    </g>
                    <g id="Group-7-Copy-9" transform="translate(125.454615, 98.536589)" fill="#11EBD4">
                        <polygon id="Stroke-2" points="18.6686939 5.53456708 9.33445486 10.8990028 0.107694457 5.53456708 9.33445486 0.170131344"></polygon>
                        <polygon id="Stroke-5" fill-opacity="0.6" points="9.33445486 21.6277448 9.33445486 10.8990891 18.6686939 5.53465341 18.6686939 16.2635249"></polygon>
                        <polygon id="Stroke-8" fill-opacity="0.8" points="0.107694457 5.53456708 0.107694457 16.2634386 9.33445486 21.6276585 9.33445486 10.8990028"></polygon>
                    </g>
                    <path d="M111.906237,28.4558529 L31.0206815,74.3175114" id="Line-8-Copy-5" stroke="#00D5BF" stroke-width="1.20471854" stroke-linecap="round" stroke-linejoin="round" stroke-dasharray="1.204718470573425,3.614155626296997"></path>
                    <path d="M173.040998,124.438038 L151.356064,118.414445" id="Line-8-Copy-6" stroke="#00D5BF" stroke-width="1.20471854" stroke-linecap="round" stroke-linejoin="round" stroke-dasharray="1.204718470573425,3.614155626296997"></path>
                    <path d="M121.2381,36.4935844 L99.5531664,66.611548" id="Line-8-Copy-10" stroke="#00D5BF" stroke-width="1.20471854" stroke-linecap="round" stroke-linejoin="round" stroke-dasharray="1.204718470573425,3.614155626296997"></path>
                    <path d="M126.659334,36.4935844 L129.67113,95.524793" id="Line-8-Copy-17" stroke="#00D5BF" stroke-width="1.20471854" stroke-linecap="round" stroke-linejoin="round" stroke-dasharray="1.204718470573425,3.614155626296997"></path>
                    <path d="M92.3248551,84.4470296 L122.442819,97.9342301" id="Line-8-Copy-18" stroke="#00D5BF" stroke-width="1.20471854" stroke-linecap="round" stroke-linejoin="round" stroke-dasharray="1.204718470573425,3.614155626296997"></path>
                    <path d="M140.513597,28.0605546 L175.450435,32.8794288" id="Line-8-Copy-15" stroke="#00D5BF" stroke-width="1.20471854" stroke-linecap="round" stroke-linejoin="round" stroke-dasharray="1.204718470573425,3.614155626296997"></path>
                    <path d="M191.111776,108.776697 L191.111776,53.359644" id="Line-8-Copy-16" stroke="#00D5BF" stroke-width="1.20471854" stroke-linecap="round" stroke-linejoin="round" stroke-dasharray="1.204718470573425,3.614155626296997"></path>
                    <path d="M76.6635141,83.4776076 L27.2700538,89.5012003" id="Line-8-Copy-11" stroke="#00D5BF" stroke-width="1.20471854" stroke-linecap="round" stroke-linejoin="round" stroke-dasharray="1.204718470573425,3.614155626296997"></path>
                    <path d="M182.678746,108.776697 L134.490004,36.4935844" id="Line-8-Copy-9" stroke="#00D5BF" stroke-width="1.20471854" stroke-linecap="round" stroke-linejoin="round" stroke-dasharray="1.204718470573425,3.614155626296997"></path>
                    <path d="M120.033382,107.571978 L24.2582575,95.7600896" id="Line-8-Copy-12" stroke="#00D5BF" stroke-width="1.20471854" stroke-linecap="round" stroke-linejoin="round" stroke-dasharray="1.204718470573425,3.614155626296997"></path>
                    <path d="M16.4275869,131.271051 L20.0417426,98.7436504" id="Line-8-Copy-14" stroke="#00D5BF" stroke-width="1.20471854" stroke-linecap="round" stroke-linejoin="round" stroke-dasharray="1.204718470573425,3.614155626296997"></path>
                    <path d="M30.8842094,159.374876 L123.647537,119.619164" id="Line-8-Copy-13" stroke="#00D5BF" stroke-width="1.20471854" stroke-linecap="round" stroke-linejoin="round" stroke-dasharray="1.204718470573425,3.614155626296997"></path>
                    <rect id="Path" x="0.635606374" y="0.103897196" width="207.354356" height="163.680865"></rect>
                </g>
            </g>
        </g>
    </g>
</svg>