<?xml version="1.0" encoding="UTF-8"?>
<svg width="236px" height="136px" viewBox="0 0 236 136" version="1.1" xmlns="http://www.w3.org/2000/svg" xmlns:xlink="http://www.w3.org/1999/xlink">
    <!-- Generator: Sketch 50.2 (55047) - http://www.bohemiancoding.com/sketch -->
    <title>domainregister@2x</title>
    <desc>Created with Sketch.</desc>
    <defs></defs>
    <g id="Official-Landing-page" stroke="none" stroke-width="1" fill="none" fill-rule="evenodd">
        <g id="Landing-Page-1366" transform="translate(-574.000000, -3932.000000)">
            <g id="Comparison" transform="translate(226.569531, 3625.008394)">
                <g id="domainregister" transform="translate(336.659576, 304.904656)">
                    <g id="Group-38" transform="translate(97.008292, 2.115857)">
                        <g id="Group-40" opacity="0.5" transform="translate(0.218849, 0.378727)" fill="#11EBD4">
                            <path d="M3.99936352,-1.77635684e-15 L73.4634566,-2.22044605e-15 C75.5478791,-2.60334826e-15 77.2376375,1.68975835 77.2376375,3.7741809 L77.2376375,5.62956541 L49.9711892,5.62956541 L0.225182616,5.62956541 L0.225182616,3.7741809 C0.225182616,1.68975835 1.91494096,-1.39345463e-15 3.99936352,-1.77635684e-15 Z" id="Rectangle-7"></path>
                            <rect id="Rectangle-8" x="0.225182616" y="6.75547849" width="77.0124548" height="48.6394452"></rect>
                        </g>
                        <circle id="Oval-4" fill="#FFFFFF" cx="4.38010912" cy="3.35733865" r="1"></circle>
                        <circle id="Oval-4-Copy" fill="#FFFFFF" cx="7.25074767" cy="3.35733865" r="1"></circle>
                        <circle id="Oval-4-Copy-2" fill="#FFFFFF" cx="9.95293907" cy="3.35733865" r="1"></circle>
                    </g>
                    <g id="world-wide-web" transform="translate(144.439054, 36.293906)" fill="#FFFFFF" fill-rule="nonzero">
                        <path d="M30.6188047,21.1746051 C31.1858566,19.5514039 31.4952671,17.8082611 31.4952671,15.9939358 C31.4952671,14.1796105 31.1858566,12.4364677 30.6188047,10.8132666 C30.6049595,10.7645074 30.5885559,10.7169521 30.5686911,10.6712027 C28.3814479,4.59962388 22.5638987,0.246507309 15.7479891,0.246507309 C8.93207944,0.246507309 3.11437978,4.59962388 0.927287098,10.6712027 C0.907422222,10.7171026 0.89086816,10.7645074 0.877173435,10.8132666 C0.310121536,12.4364677 0.000711052069,14.1796105 0.000711052069,15.9939358 C0.000711052069,17.8082611 0.310121536,19.5514039 0.877173435,21.1746051 C0.891018651,21.2233643 0.907422222,21.2709196 0.927287098,21.316669 C3.11453028,27.3883983 8.93207944,31.7413644 15.7479891,31.7413644 C22.5638987,31.7413644 28.3814479,27.3882478 30.5686911,21.316669 C30.5885559,21.2709196 30.6049595,21.2235148 30.6188047,21.1746051 Z M15.7479891,29.4841426 C15.1482805,29.4841426 14.1813728,28.3987981 13.3732335,25.9740794 C12.9831596,24.8040081 12.6708898,23.4589152 12.4433467,21.9956866 L19.0526315,21.9956866 C18.8250884,23.4589152 18.5128186,24.8038576 18.1228951,25.9740794 C17.3146054,28.3987981 16.3476976,29.4841426 15.7479891,29.4841426 Z M12.1694522,19.7383144 C12.0609478,18.5346835 12.0036106,17.2789826 12.0036106,15.9939358 C12.0036106,14.7088891 12.0609478,13.4531882 12.1694522,12.2495573 L19.3263755,12.2495573 C19.4348799,13.4531882 19.4922171,14.7088891 19.4922171,15.9939358 C19.4922171,17.2789826 19.4348799,18.5346835 19.3263755,19.7383144 L12.1694522,19.7383144 Z M2.25793277,15.9940863 C2.25793277,14.6953448 2.4428868,13.439042 2.78706081,12.2497078 L9.90530784,12.2497078 C9.79981332,13.4781698 9.74623835,14.7371815 9.74623835,15.9940863 C9.74623835,17.2509912 9.79966283,18.5100029 9.90530784,19.7384649 L2.78706081,19.7384649 C2.4428868,18.5489802 2.25793277,17.2928278 2.25793277,15.9940863 Z M15.7479891,2.50387952 C16.3476976,2.50387952 17.3147559,3.58922408 18.1228951,6.01394281 C18.5128186,7.18401407 18.8252389,8.52910692 19.0526315,9.9921851 L12.4431962,9.9921851 C12.6707393,8.52895643 12.9830091,7.18401407 13.373083,6.01394281 C14.1813728,3.58922408 15.1482805,2.50387952 15.7479891,2.50387952 Z M21.5905198,12.2497078 L28.7087669,12.2497078 C29.0529409,13.439042 29.2378949,14.6953448 29.2378949,15.9940863 C29.2378949,17.2928278 29.0529409,18.5491307 28.7087669,19.7384649 L21.5905198,19.7384649 C21.6960144,18.5100029 21.7495893,17.2509912 21.7495893,15.9940863 C21.7495893,14.7371815 21.6960144,13.4781698 21.5905198,12.2497078 Z M27.8267363,9.99233559 L21.331524,9.99233559 C20.9300127,7.22374382 20.2412132,4.73988194 19.2749074,2.97281097 C23.0213928,3.98847797 26.1252796,6.58159667 27.8267363,9.99233559 Z M12.2209203,2.97266048 C11.2546145,4.73973144 10.565815,7.22359333 10.1643037,9.99233559 L3.66909138,9.99233559 C5.37069855,6.58159667 8.47443485,3.98847797 12.2209203,2.97266048 Z M3.66909138,21.9956866 L10.1643037,21.9956866 C10.565815,24.7642783 11.2546145,27.2481402 12.2209203,29.0153617 C8.47443485,27.9995442 5.37069855,25.406576 3.66909138,21.9956866 Z M19.2749074,29.0153617 C20.2412132,27.2482907 20.9300127,24.7644288 21.331524,21.9956866 L27.8267363,21.9956866 C26.1252796,25.406576 23.0213928,27.9995442 19.2749074,29.0153617 Z" id="Shape"></path>
                    </g>
                    <g id="line" transform="translate(9.945313, 107.359417)" stroke-dasharray="0.7822847664356232,3.911423778533936" stroke-linecap="round" stroke-width="1.56456954">
                        <path d="M119.102536,0.0285739939 L119.102536,0.0285739939 C119.102536,16.3132623 105.901188,29.5146105 89.6164997,29.5146105 L0.505246259,29.5146105" id="Path-5" stroke="#11EBD4"></path>
                        <path d="M237.699826,0.0285739939 L237.699826,0.0285739939 C237.699826,16.3132623 224.498478,29.5146105 208.21379,29.5146105 L119.102536,29.5146105" id="Path-5" stroke="#FFFFFF" transform="translate(178.401181, 14.771592) scale(-1, 1) translate(-178.401181, -14.771592) "></path>
                    </g>
                    <path d="M106.424693,18.5073705 L139.970559,18.5073705" id="Line" stroke="#FFFFFF" stroke-width="1.50967236" stroke-linecap="round"></path>
                    <path d="M106.424693,24.7849714 L131.186341,24.7849714" id="Line-Copy-2" stroke="#FFFFFF" stroke-width="1.50967236" stroke-linecap="round"></path>
                    <rect id="Rectangle-9" stroke="#FFFFFF" stroke-width="1.50967236" x="106.830774" y="32.8636753" width="29.180821" height="8.25548461"></rect>
                    <rect id="Rectangle-5" x="0.287443617" y="0.186403792" width="261.283113" height="150.198675"></rect>
                </g>
            </g>
        </g>
    </g>
</svg>