<?xml version="1.0" encoding="UTF-8"?>
<svg width="236px" height="134px" viewBox="0 0 236 134" version="1.1" xmlns="http://www.w3.org/2000/svg" xmlns:xlink="http://www.w3.org/1999/xlink">
    <!-- Generator: Sketch 50.2 (55047) - http://www.bohemiancoding.com/sketch -->
    <title>filestorage@2x</title>
    <desc>Created with Sketch.</desc>
    <defs></defs>
    <g id="Official-Landing-page" stroke="none" stroke-width="1" fill="none" fill-rule="evenodd">
        <g id="Landing-Page-1366" transform="translate(-574.000000, -4374.000000)">
            <g id="Comparison" transform="translate(226.569531, 3625.008394)">
                <g id="filestorage" transform="translate(336.947020, 746.377286)">
                    <g id="Group-26-Copy" transform="translate(9.657869, 105.626211)" stroke-dasharray="0.7822847664356232,3.911423778533936" stroke-linecap="round" stroke-width="1.56456954">
                        <path d="M119.102536,0.0285739939 L119.102536,0.0285739939 C119.102536,16.3132623 105.901188,29.5146105 89.6164997,29.5146105 L0.505246259,29.5146105" id="Path-5" stroke="#11EBD4"></path>
                        <path d="M237.699826,0.0285739939 L237.699826,0.0285739939 C237.699826,16.3132623 224.498478,29.5146105 208.21379,29.5146105 L119.102536,29.5146105" id="Path-5" stroke="#FFFFFF" transform="translate(178.401181, 14.771592) scale(-1, 1) translate(-178.401181, -14.771592) "></path>
                    </g>
                    <g id="folder-(1)" transform="translate(97.126020, 2.346854)" fill="#11EBD4" fill-opacity="0.5" fill-rule="nonzero">
                        <path d="M67.4231502,22.7551564 L67.4231502,10.2696191 L64.9247941,10.2696191 L64.9247941,5.27540415 L31.2138433,5.27540415 L28.7167359,0.28118922 L26.2196284,0.28118922 L3.4110488,0.28118922 C1.53072688,0.28118922 0,1.8119161 0,3.69348657 L0,60.2117684 L0.00124855373,60.2092713 L0.00124855373,60.2117684 C0.00124855373,61.1282069 -0.0574334717,61.4603222 0.706681413,61.4603222 L56.590698,61.4603222 C58.0340261,61.4603222 59.3050538,60.4876988 59.6496546,59.1966942 L72.4173651,24.0037102 C72.4173651,24.0037102 72.4173651,23.2233641 72.4173651,22.7551564 L67.4231502,22.7551564 Z M62.4276867,7.77251162 L62.4276867,10.2696191 L32.4636456,10.2696191 L31.2138433,10.2696191 L8.73987614,10.2696191 L8.73987614,12.7667266 L6.24276867,12.7667266 L6.24276867,7.77251162 L62.4276867,7.77251162 Z M9.98967842,14.5321815 L9.98967842,17.7609415 L6.76091847,17.7609415 L9.98967842,14.5321815 Z M64.9260427,21.5066027 L54.9376128,21.5066027 L54.9376128,17.7609415 C54.9376128,17.0704913 54.3782608,16.5123878 53.6890591,16.5123878 C52.9998574,16.5123878 52.4405054,17.0704913 52.4405054,17.7609415 L52.4405054,21.5066027 L46.1977367,21.5066027 L46.1977367,17.7609415 C46.1977367,17.0704913 45.6383846,16.5123878 44.949183,16.5123878 C44.2599813,16.5123878 43.7006292,17.0704913 43.7006292,17.7609415 L43.7006292,21.5066027 L37.4578606,21.5066027 L37.4578606,17.7609415 C37.4578606,17.0704913 36.8985085,16.5123878 36.2093068,16.5123878 C35.5201052,16.5123878 34.9607531,17.0704913 34.9607531,17.7609415 L34.9607531,21.5066027 L28.7179844,21.5066027 L28.7179844,17.7609415 C28.7179844,17.0704913 28.1586324,16.5123878 27.4694307,16.5123878 C26.780229,16.5123878 26.220877,17.0704913 26.220877,17.7609415 L26.220877,21.5066027 L19.9781083,21.5066027 L19.9781083,17.7609415 C19.9781083,17.0704913 19.4187562,16.5123878 18.7295546,16.5123878 C18.0403529,16.5123878 17.4810008,17.0704913 17.4810008,17.7609415 L17.4810008,21.5066027 L14.6480324,21.5066027 C13.2034557,21.5066027 11.932428,22.479226 11.5890758,23.7702306 L4.99546349,41.8492887 L4.99546349,20.258049 L12.4867859,20.258049 L12.4867859,12.7667266 L64.9260427,12.7667266 L64.9260427,21.5066027 Z" id="Shape"></path>
                    </g>
                    <g id="database" transform="translate(140.243475, 25.809463)" fill="#FFFFFF" fill-rule="nonzero">
                        <circle id="Oval" cx="3.76232227" cy="19.8376993" r="1"></circle>
                        <circle id="Oval" cx="3.76232227" cy="23.9420508" r="1"></circle>
                        <circle id="Oval" cx="5.81449806" cy="21.8898751" r="1"></circle>
                        <circle id="Oval" cx="9.91884963" cy="21.8898751" r="1"></circle>
                        <circle id="Oval" cx="7.86667385" cy="23.9420508" r="1"></circle>
                        <circle id="Oval" cx="11.9710254" cy="23.9420508" r="1"></circle>
                        <circle id="Oval" cx="14.0232012" cy="21.8898751" r="1"></circle>
                        <circle id="Oval" cx="18.1275528" cy="21.8898751" r="1"></circle>
                        <circle id="Oval" cx="16.075377" cy="23.9420508" r="1"></circle>
                        <circle id="Oval" cx="20.1797286" cy="23.9420508" r="1"></circle>
                        <circle id="Oval" cx="22.2319044" cy="21.8898751" r="1"></circle>
                        <circle id="Oval" cx="26.3362559" cy="21.8898751" r="1"></circle>
                        <circle id="Oval" cx="24.2840801" cy="23.9420508" r="1"></circle>
                        <circle id="Oval" cx="28.3884317" cy="23.9420508" r="1"></circle>
                        <circle id="Oval" cx="30.4406075" cy="21.8898751" r="1"></circle>
                        <circle id="Oval" cx="32.4927833" cy="19.8376993" r="1"></circle>
                        <circle id="Oval" cx="9.91884963" cy="25.9942266" r="1"></circle>
                        <circle id="Oval" cx="14.0232012" cy="25.9942266" r="1"></circle>
                        <circle id="Oval" cx="18.1275528" cy="25.9942266" r="1"></circle>
                        <circle id="Oval" cx="22.2319044" cy="25.9942266" r="1"></circle>
                        <circle id="Oval" cx="26.3362559" cy="25.9942266" r="1"></circle>
                        <path d="M34.497075,5.91847497 C34.4909184,5.9013735 34.4847619,5.8849561 34.4772373,5.86922275 C34.4703967,5.85485752 34.4669764,5.83912417 34.4594517,5.825443 C33.6255843,2.48928923 26.4094502,0 17.4434942,0 C8.47753817,0 1.26140405,2.48928923 0.427536622,5.825443 C0.420011978,5.83912417 0.416591685,5.85485752 0.409751099,5.86922275 C0.402226454,5.88564016 0.396069927,5.9013735 0.389913399,5.91847497 C0.361866997,5.99303735 0.342029298,6.07170409 0.342029298,6.15652736 L0.342029298,6.49855666 L0.342029298,22.5739336 L0.342029298,22.9159629 L0.342029298,31.4666954 C0.342029298,31.5775129 0.371443817,31.6821738 0.422064153,31.7752058 C1.22993735,35.1236726 8.45770047,37.6232227 17.4434942,37.6232227 C26.4087661,37.6232227 33.6249003,35.1339335 34.4594517,31.7977797 C34.5141764,31.6999594 34.5449591,31.5870897 34.5449591,31.4666954 L34.5449591,22.9159629 L34.5449591,22.5739336 L34.5449591,6.49855666 L34.5449591,6.15652736 C34.5449591,6.07170409 34.5251214,5.99303735 34.497075,5.91847497 Z M30.8729325,25.4763943 C30.7545904,25.3772058 30.6075178,25.310168 30.4406075,25.310168 C30.0630072,25.310168 29.7565489,25.6166263 29.7565489,25.9942266 C29.7565489,26.0017513 29.7606533,26.0079078 29.7606533,26.0154324 C28.3891158,26.5948301 26.6365576,27.0907726 24.6001152,27.4499033 C24.504347,27.3985989 24.4003701,27.3623438 24.2840801,27.3623438 C24.0829669,27.3623438 23.9071639,27.4526396 23.7819811,27.5901353 C22.8537136,27.7310514 21.8700374,27.842553 20.838477,27.9198516 C20.7775958,27.6051846 20.5128651,27.3623438 20.1797286,27.3623438 C19.8199137,27.3623438 19.5332932,27.6428078 19.5059308,27.9957821 C18.8335012,28.0258807 18.1501267,28.0464024 17.4434942,28.0464024 C17.2102302,28.0464024 16.986543,28.0375097 16.7566994,28.0340894 C16.7498588,27.6619615 16.448873,27.3623438 16.075377,27.3623438 C15.7148781,27.3623438 15.4282576,27.6434919 15.4015793,27.9971502 C14.4315842,27.9540545 13.4937399,27.8849646 12.6030956,27.7857761 C12.4998027,27.5374628 12.2562779,27.3623438 11.9710254,27.3623438 C11.7507586,27.3623438 11.5640106,27.4731613 11.4388278,27.6345991 C9.47421155,27.3548192 7.74491142,26.9484884 6.31044054,26.4593865 C6.42536239,26.33694 6.49855666,26.1748181 6.49855666,25.9942266 C6.49855666,25.6166263 6.19209841,25.310168 5.81449806,25.310168 C5.43689772,25.310168 5.13043947,25.6166263 5.13043947,25.9942266 C5.13043947,26.0031194 5.13522788,26.00996 5.13522788,26.0188527 C2.95513313,25.0987939 1.71014649,23.9810422 1.71014649,22.9159629 C1.71014649,22.8386643 1.71903925,22.7613657 1.73135231,22.6847511 C1.73750883,22.6464439 1.72519578,22.6088206 1.72519578,22.5705134 C2.09595554,22.5623047 2.39420508,22.2620029 2.39420508,21.8898751 C2.39420508,21.5122747 2.08774683,21.2058165 1.71014649,21.2058165 L1.71014649,18.4695821 C2.07064537,18.4695821 2.35726592,18.188434 2.38394421,17.8347757 C3.56599746,18.6713794 5.20979026,19.391009 7.20450513,19.9478327 C7.25922981,20.2707084 7.52806484,20.5217579 7.86667385,20.5217579 C8.0855726,20.5217579 8.27095248,20.4123085 8.3961352,20.2529228 C11.0112912,20.8589988 14.1046042,21.2058165 17.4434942,21.2058165 C21.3248427,21.2058165 24.8744227,20.7372363 27.7242108,19.9375718 C27.7748312,20.2659199 28.0457184,20.5217579 28.3884317,20.5217579 C28.7660321,20.5217579 29.0724903,20.2152996 29.0724903,19.8376993 C29.0724903,19.7309861 29.0430758,19.6331657 28.9999801,19.5435541 C30.7922136,18.9285854 32.2164236,18.165176 33.1768419,17.3005259 L33.1768419,19.8376993 L33.1768419,22.3803451 C33.1481114,22.4781654 33.1385346,22.5814583 33.1556361,22.6847511 C33.1686332,22.7613657 33.1768419,22.8386643 33.1768419,22.9159629 C33.1768419,23.1198124 33.1152766,23.325714 33.0256649,23.5316157 C32.9011663,23.3694938 32.7137342,23.2579922 32.4927833,23.2579922 C32.1151829,23.2579922 31.8087247,23.5644505 31.8087247,23.9420508 C31.8087247,24.2211467 31.9770031,24.4591991 32.2164236,24.5652282 C31.8607131,24.8785271 31.4119707,25.1836172 30.8729325,25.4763943 Z M33.1768419,14.8762223 C33.1713694,14.8974281 33.1583723,14.9158977 33.154952,14.9384716 C32.7670908,17.3046303 26.360882,19.8376993 17.4434942,19.8376993 C8.52610633,19.8376993 2.11989759,17.3046303 1.73203636,14.9384716 C1.72861607,14.9158977 1.71561896,14.8981121 1.71014649,14.8762223 L1.71014649,9.07608944 C4.05715153,11.2397668 9.40170134,12.9971133 17.4434942,12.9971133 C25.485287,12.9971133 30.8298368,11.2397668 33.1768419,9.07608944 L33.1768419,14.8762223 Z M17.4434942,1.36811719 C26.3622502,1.36811719 32.7677748,3.90118617 33.154952,6.26666079 L33.1556361,6.27076514 C33.1679491,6.34669565 33.1768419,6.42194209 33.1768419,6.49855666 C33.1768419,8.92559655 26.7159084,11.6289961 17.4434942,11.6289961 C8.17107992,11.6289961 1.71014649,8.92559655 1.71014649,6.49855666 C1.71014649,6.42194209 1.71903925,6.34669565 1.73135231,6.27076514 L1.73203636,6.26666079 C2.11921353,3.90118617 8.52473822,1.36811719 17.4434942,1.36811719 Z M33.154952,31.3558779 C32.7670908,33.7220366 26.360882,36.2551056 17.4434942,36.2551056 C8.52610633,36.2551056 2.11989759,33.7220366 1.73203636,31.3558779 C1.72656389,31.3250953 1.71903925,31.2949967 1.71014649,31.2662662 L1.71014649,25.4934957 C4.05715153,27.6571731 9.40170134,29.4145196 17.4434942,29.4145196 C25.485287,29.4145196 30.8298368,27.6571731 33.1768419,25.4934957 L33.1768419,31.26353 C33.1672651,31.2936286 33.1604245,31.3244112 33.154952,31.3558779 Z" id="Shape"></path>
                    </g>
                    <rect id="Rectangle-5-Copy-2" x="0" y="0.704667451" width="261.283113" height="150.198675"></rect>
                </g>
            </g>
        </g>
    </g>
</svg>