<?xml version="1.0" encoding="UTF-8"?>
<svg width="236px" height="140px" viewBox="0 0 236 140" version="1.1" xmlns="http://www.w3.org/2000/svg" xmlns:xlink="http://www.w3.org/1999/xlink">
    <!-- Generator: Sketch 50.2 (55047) - http://www.bohemiancoding.com/sketch -->
    <title>OS@2x</title>
    <desc>Created with Sketch.</desc>
    <defs></defs>
    <g id="Official-Landing-page" stroke="none" stroke-width="1" fill="none" fill-rule="evenodd">
        <g id="Landing-Page-1366" transform="translate(-574.000000, -4152.000000)">
            <g id="Comparison" transform="translate(226.569531, 3625.008394)">
                <g id="OS" transform="translate(336.947020, 525.556871)">
                    <g id="cloud" opacity="0.5" transform="translate(89.278907, 2.077944)" fill="#11EBD4" fill-rule="nonzero">
                        <path d="M76.7029179,21.8496832 C75.8996686,9.72520018 65.9852848,0.13121734 53.8760974,0.13121734 C42.6979111,0.13121734 33.4005373,8.30054853 31.4314546,19.0800807 C31.1766367,19.0701181 30.9122179,19.0601555 30.657498,19.0601555 C22.3301171,19.0601555 15.3057264,24.6690987 13.0132474,32.3701877 C12.6605583,32.3403996 12.2980724,32.3203747 11.9355864,32.3203747 C5.36185391,32.3203747 0.0225332166,37.7400286 0.0225332166,44.4348951 C0.0225332166,51.1298613 5.35205699,56.5495151 11.9257894,56.5495151 C12.0237586,56.5495151 76.693219,56.5495151 76.693219,56.5495151 C86.1179527,56.5495151 93.7496544,48.7786879 93.7496544,39.204431 C93.7495565,29.630473 86.1276517,21.8496832 76.7029179,21.8496832 Z" id="Shape"></path>
                    </g>
                    <g id="tools-and-utensils" transform="translate(128.565154, 15.188718)" fill="#FFFFFF" fill-rule="nonzero">
                        <path d="M28.0473261,14.2969255 C26.2457251,11.0761345 22.8362864,9.07523724 19.1494615,9.07523724 C18.0433618,9.07523724 16.9554275,9.25156591 15.9155163,9.59931655 C15.499698,9.73837505 15.2753461,10.1881228 15.4144046,10.6038367 C15.5534631,11.0195506 16.0032108,11.2440069 16.4189248,11.1049484 C17.2961834,10.8115893 18.2147838,10.6628217 19.1493571,10.6628217 C22.2618872,10.6629261 25.1403563,12.3524033 26.6615435,15.0720827 C26.8069702,15.3321388 27.0769442,15.4785051 27.3551656,15.4785051 C27.4862898,15.4785051 27.6193976,15.4459329 27.7419612,15.3773432 C28.1246852,15.1633268 28.2612381,14.6795452 28.0473261,14.2969255 Z" id="Shape"></path>
                        <path d="M15.2058169,26.915962 C12.3314193,25.4300615 10.5457913,22.4991844 10.5457913,19.2669096 C10.5456869,16.2685913 12.0687532,13.5335654 14.6199338,11.95047 C14.9925312,11.7193322 15.1070561,11.2299131 14.8759183,10.8574201 C14.6447806,10.4849271 14.1553615,10.3702978 13.7828684,10.6015399 C10.7617913,12.4762197 8.95810238,15.715698 8.95810238,19.267014 C8.95810238,23.0954029 11.0727937,26.5666454 14.4766993,28.3263827 C14.5933122,28.3866205 14.7178593,28.4152256 14.8406317,28.4152256 C15.1280401,28.4152256 15.4054264,28.2586282 15.5464684,27.9858355 C15.7477483,27.5961168 15.5952224,27.1172419 15.2058169,26.915962 Z" id="Shape"></path>
                        <path d="M19.1491483,16.0313984 C17.3650863,16.0313984 15.9136371,17.4828475 15.9136371,19.2669096 C15.9136371,21.051076 17.3650863,22.5024208 19.1491483,22.5024208 C20.9332104,22.5024208 22.3846595,21.0509716 22.3846595,19.2669096 C22.3846595,17.4828475 20.9332104,16.0313984 19.1491483,16.0313984 Z M19.1491483,20.9148363 C18.2404658,20.9148363 17.5012216,20.1755921 17.5012216,19.2669096 C17.5012216,18.358227 18.2404658,17.6189829 19.1491483,17.6189829 C20.0578309,17.6189829 20.797075,18.358227 20.797075,19.2669096 C20.797075,20.1756965 20.0578309,20.9148363 19.1491483,20.9148363 Z" id="Shape"></path>
                        <path d="M35.9582094,16.0104143 L33.58294,15.66851 C33.2252715,14.2264567 32.6564053,12.8569602 31.8863637,11.5838233 L34.3316844,8.31542662 C34.5681465,7.99941306 34.5366182,7.55770398 34.2574572,7.278543 L31.1225859,4.14367174 C30.843425,3.86451077 30.4017159,3.83298249 30.0855979,4.06934018 L26.8127121,6.518106 C25.5399928,5.75119631 24.1727931,5.18494009 22.7347069,4.82946398 L22.1518514,0.782882629 C22.0955807,0.392224301 21.7608799,0.102205907 21.36615,0.102205907 L16.932773,0.102205907 C16.5380432,0.102205907 16.2033423,0.392224301 16.1470717,0.782882629 L15.5642161,4.82925519 C14.1263387,5.18608847 12.7519355,5.75892178 11.4884033,6.51956758 L8.21311632,4.06944457 C7.89710276,3.83298249 7.45539367,3.86461517 7.1762327,4.14377614 L4.04125704,7.2786474 C3.76209607,7.55780838 3.73046339,7.99941306 3.96692547,8.31553102 L6.41329014,11.5852848 C5.64857281,12.8546634 5.07803626,14.2321986 4.719637,15.667466 L0.680676722,16.249382 C0.290018395,16.3056526 0,16.6403535 0,17.0350834 L0,21.4684603 C0,21.8631902 0.290018395,22.197891 0.680676722,22.2541617 L4.70460365,22.8337809 C5.0638381,24.2993238 5.64001215,25.6796777 6.3976304,26.9391385 L3.96713427,30.1880126 C3.73067219,30.5040262 3.76230486,30.9457353 4.04146584,31.2248962 L7.1763371,34.3597675 C7.33022015,34.5136506 7.53348358,34.5922625 7.737791,34.5922625 C7.90420184,34.5922625 8.07134347,34.5401677 8.21311632,34.4339947 L11.4560398,32.0075701 C12.7148741,32.7675895 14.0968984,33.3472087 15.5684965,33.7088443 L16.0331732,36.9332893 C16.0901746,37.3288543 16.4296778,37.613966 16.8179349,37.613966 C16.8556227,37.6141748 16.8937281,37.6114604 16.9321467,37.6059273 C17.3661303,37.5433928 17.6671105,37.1409374 17.6046803,36.7069538 L17.2168407,34.0157752 C17.6184609,34.0676611 18.0249877,34.1045137 18.4365257,34.1239318 C18.4493667,34.1245582 18.4618945,34.1248714 18.4746311,34.1248714 C18.8957737,34.1248714 19.2468651,33.7937201 19.267014,33.3685059 C19.2876848,32.9305552 18.9494344,32.5587929 18.5114837,32.5380177 C11.4189784,32.2028992 5.86311126,26.3734042 5.86311126,19.2665964 C5.86311126,16.1941553 6.93632547,13.1981337 8.88502359,10.830381 C10.8079353,8.49394767 13.4885697,6.87045017 16.4327053,6.2587807 C18.2107123,5.8907768 20.0860184,5.890568 21.8648605,6.2586763 C23.4906548,6.59609151 25.0224906,7.230311 26.4178779,8.14369147 C27.9579612,9.15270075 29.2509338,10.443481 30.2608826,11.9802235 C31.1772906,13.3746712 31.8143289,14.9084906 32.154354,16.5384608 C32.2301472,16.9018712 32.2913246,17.2727982 32.3363202,17.6410109 C32.3893546,18.0762473 32.7870076,18.3856838 33.2204692,18.3328582 C33.6557056,18.2797195 33.9653508,17.8838413 33.9123165,17.4486049 C33.9069922,17.4047576 33.9005195,17.3610148 33.894882,17.3171675 L35.7321872,17.5817127 C35.7705013,17.5872458 35.8086067,17.5898558 35.8462945,17.5898558 C36.2345516,17.5898558 36.5740548,17.3046397 36.6310563,16.9090746 C36.6932776,16.4751954 36.3919842,16.0728445 35.9582094,16.0104143 Z M4.39840352,21.1856454 L1.58768889,20.7807889 L1.58768889,17.7227548 L4.40477182,17.3168543 C4.31926964,17.9608872 4.27552676,18.6123324 4.27552676,19.2667008 C4.27542236,19.9167888 4.31780806,20.5571678 4.39840352,21.1856454 Z M10.0714055,31.0608866 L7.81254016,32.7508858 L5.65013878,30.5884844 L7.34233035,28.3264871 C8.12897131,29.3518869 9.04652771,30.2715312 10.0714055,31.0608866 Z M7.6590747,9.82158047 C7.55676439,9.94581441 7.45737724,10.0722407 7.35945166,10.1995022 L5.65013878,7.91495486 L7.81254016,5.75255349 L10.101159,7.46468512 C9.20510868,8.15152134 8.38370309,8.94108546 7.6590747,9.82158047 Z M17.2127692,4.51971431 L17.6203401,1.6901036 C17.6203401,1.6901036 20.6783742,1.6901036 20.6783742,1.6901036 L21.085945,4.51981871 C19.8037255,4.35403426 18.49478,4.35403426 17.2127692,4.51971431 Z M28.2000608,7.46301475 L30.4860697,5.75255349 L32.6484711,7.91495486 L30.939889,10.1985626 C30.1484457,9.16888248 29.2317245,8.25351845 28.2000608,7.46301475 Z" id="Shape"></path>
                        <path d="M43.2770502,28.3026843 C43.0434068,27.9315484 42.5534657,27.8201555 42.1823299,28.05359 C41.811194,28.2871289 41.6998011,28.7772788 41.9332356,29.1482059 C43.3655799,31.4240881 43.6572687,34.1755046 42.7332396,36.697036 C41.1007638,41.151397 36.1488407,43.4470105 31.6946885,41.814848 C27.2403275,40.1824766 24.9446095,35.2306579 26.5768765,30.7762969 C28.2091434,26.3220403 33.1608578,24.0260091 37.6154276,25.6584849 C38.7063895,26.0582258 39.6860629,26.6594555 40.5270953,27.4452613 C40.8472848,27.7446755 41.3498581,27.7275542 41.6490635,27.4072603 C41.9483734,27.086862 41.9312521,26.5844975 41.6109582,26.2851877 C40.6137459,25.3535375 39.4532547,24.6412281 38.1618481,24.1678864 C32.8853507,22.2344304 27.0199427,24.9537965 25.086278,30.2299807 C23.1527176,35.5061649 25.8721881,41.3718861 31.1483723,43.3054465 C32.30166,43.7280507 33.4824044,43.9282866 34.6447748,43.9282866 C38.8003479,43.9280778 42.7129863,41.366353 44.2240469,37.2432477 C45.3185583,34.256622 44.9733133,30.99783 43.2770502,28.3026843 Z" id="Shape"></path>
                        <path d="M35.7685178,30.6988334 C34.9567168,30.4014027 34.078101,30.4378377 33.2941744,30.8013525 C32.510039,31.1649716 31.9144468,31.8119277 31.6171205,32.6234155 C31.3196899,33.4349032 31.3561249,34.3136235 31.7196396,35.0977589 C32.0832588,35.8818943 32.7303193,36.4774864 33.5417027,36.7747083 C33.9078274,36.9089645 34.2827216,36.9724386 34.6516651,36.9724386 C35.9710504,36.9724386 37.213181,36.1590717 37.6929955,34.8500218 C38.3069617,33.1750559 37.443588,31.3126952 35.7685178,30.6988334 Z M36.2025014,34.3039144 C35.8898286,35.1572659 34.9415791,35.5966782 34.0880188,35.2842142 C33.6748105,35.1327323 33.3451207,34.8293509 33.1600226,34.4300275 C32.9749244,34.0307042 32.9562372,33.5831488 33.1078234,33.169836 C33.2593053,32.7565233 33.5626867,32.4269379 33.9619057,32.2418398 C34.1826036,32.1396339 34.4180217,32.0881655 34.6541706,32.0881655 C34.8455327,32.0881655 35.0372079,32.1218862 35.2220972,32.1896407 C36.0752399,32.5022091 36.5151742,33.4506674 36.2025014,34.3039144 Z" id="Shape"></path>
                        <path d="M53.0345301,37.2583855 L49.444378,35.3234679 C49.6043161,33.8315123 49.5339517,32.3445677 49.2533291,30.9086739 L52.6788452,28.6781004 C53.0095789,28.4627268 53.1318293,28.0370951 52.9659404,27.679009 L51.1011785,23.6568568 C50.9351853,23.2987708 50.531164,23.116909 50.1531378,23.2302855 L46.2319388,24.4049748 C45.3175143,23.2667205 44.2293712,22.2557277 42.9891197,21.4165744 L43.8346413,17.4146755 C43.9162808,17.0285063 43.7017423,16.6410843 43.3311285,16.5052621 L39.1683518,14.9797946 C38.7971116,14.8438681 38.3834856,15.0010919 38.1962995,15.3485293 L36.2581457,18.9446321 C34.7845641,18.7822928 33.2994987,18.843157 31.8441868,19.1258675 L29.6160145,15.7043186 C29.4006409,15.3735849 28.9745915,15.2513345 28.6169231,15.4173278 L24.5947709,17.2820897 C24.2366848,17.4480829 24.0549274,17.8519998 24.1681996,18.2301304 L25.3382954,22.136296 C24.1783262,23.0643967 23.1684817,24.1593257 22.3374715,25.3904945 L18.3523807,24.5487313 C17.9662115,24.4670918 17.5787895,24.6816303 17.4429674,25.0523485 L15.9173955,29.2150207 C15.7815733,29.5855302 15.9386927,29.9997825 16.2861302,30.1869686 L19.8654249,32.1160399 C19.6997448,33.6050724 19.762697,35.099638 20.0424843,36.5525488 L16.6417107,38.7671493 C16.3109769,38.9825229 16.1887266,39.4081547 16.3547198,39.7662407 L18.2194817,43.7883929 C18.3522763,44.0749661 18.637388,44.2484761 18.939621,44.2484761 C19.0152053,44.2484761 19.0918337,44.2376186 19.1675224,44.2149642 L23.0557316,43.0501927 C23.259517,43.3037761 23.4715499,43.5525572 23.693605,43.7947612 C23.9898873,44.1179782 24.4919386,44.1400063 24.81526,43.8438284 C25.1384771,43.5476505 25.1605051,43.0455992 24.8643272,42.7222777 C21.4928895,39.0422387 20.4643577,33.847694 22.1803521,29.1654316 C23.4014987,25.833352 25.8470281,23.1763116 29.0665664,21.6836251 C32.2861047,20.1910431 35.8941089,20.0413359 39.2262929,21.2624825 C46.1046773,23.7831787 49.6500426,31.4300388 47.1293463,38.3085277 C44.6086501,45.1869121 36.9621032,48.7323818 30.0831968,46.2114767 C28.7360415,45.7177773 27.4892129,45.0188309 26.3774758,44.1340556 C26.0343186,43.8609497 25.5350861,43.9178467 25.2619802,44.2608995 C24.9889788,44.6039522 25.0458758,45.1032891 25.3888241,45.376395 C25.6918923,45.6176594 26.0042519,45.845874 26.3244414,46.0620828 L25.4861233,50.0306787 C25.4044839,50.4168479 25.6190223,50.8042698 25.9896362,50.940092 L30.1523084,52.4656639 C30.2420909,52.4985494 30.334379,52.5142091 30.4253099,52.5142091 C30.7101084,52.5142091 30.9824835,52.3602217 31.1242563,52.0968248 L33.049256,48.5252556 C33.5807476,48.5829878 34.1115084,48.6112798 34.6396593,48.6112798 C35.6015849,48.6112798 36.5545323,48.5165905 37.4859737,48.3342068 L39.7043326,51.7411399 C39.8550837,51.9724865 40.1085627,52.1018359 40.3699759,52.1018359 C40.4823085,52.1018359 40.5959982,52.0779287 40.703424,52.0280264 L44.7255762,50.1632645 C45.0837666,49.9972712 45.265524,49.5933543 45.1521475,49.2152238 L43.9839308,45.315844 C45.1279271,44.397348 46.1429915,43.3027321 46.9847547,42.0551728 L50.9676531,42.8966229 C51.0227754,42.9083155 51.0777933,42.9138486 51.1322892,42.9138486 C51.459369,42.9138486 51.7607668,42.7107939 51.8771709,42.39311 L53.4027428,38.2304378 C53.5390869,37.8598239 53.3819675,37.445676 53.0345301,37.2583855 Z M22.0798166,41.6850809 L19.3709946,42.4965687 L18.084808,39.7221847 L20.4535003,38.1797002 C20.8370596,39.4037699 21.3810789,40.5824264 22.0798166,41.6850809 Z M20.6899624,28.6191154 C20.4670721,29.2274441 20.2872983,29.8434983 20.146465,30.4636241 L17.6451868,29.1155292 L18.697417,26.2441592 L21.4799441,26.8319214 C21.1807387,27.4054855 20.916089,28.0015997 20.6899624,28.6191154 Z M28.3989395,20.2431378 C27.8101332,20.5161393 27.2450254,20.8245318 26.7046599,21.1646613 L25.8864907,18.4332894 L28.6608747,17.1469983 L30.2184969,19.5389715 C29.6024427,19.7327347 28.994636,19.9669 28.3989395,20.2431378 Z M41.548006,20.5562282 C40.9811234,20.2602591 40.3890808,19.9972799 39.7729222,19.7714664 C39.1598956,19.5469057 38.5383083,19.364522 37.9118143,19.2225403 L39.2674258,16.707064 L42.1389002,17.7592942 L41.548006,20.5562282 Z M30.0533389,50.7379769 L27.1819688,49.6856424 L27.7665991,46.9181486 C28.3372401,47.2154749 28.9276123,47.4784541 29.5372982,47.7019708 C30.1520996,47.9273667 30.7724341,48.1088109 31.3947522,48.2491222 L30.0533389,50.7379769 Z M40.6600987,50.2983558 L39.1114548,47.9200588 C40.3455467,47.5307577 41.5256648,46.9830844 42.6192367,46.2910282 L43.4344827,49.0121691 L40.6600987,50.2983558 Z M47.2069142,25.7703998 L49.9499788,24.9485766 L51.2361655,27.7229607 L48.8389724,29.2838192 C48.4492537,28.0475349 47.9003276,26.8656421 47.2069142,25.7703998 Z M50.6236608,41.2010906 L47.8422821,40.6134327 C48.1349105,40.0511436 48.3966369,39.4653649 48.6204668,38.854635 C48.8478463,38.2341961 49.0305432,37.6080153 49.1712721,36.9798509 L51.6760998,38.3298249 L50.6236608,41.2010906 Z" id="Shape"></path>
                    </g>
                    <g id="Group-26" transform="translate(9.657869, 110.440646)" stroke-dasharray="0.7822847664356232,3.911423778533936" stroke-linecap="round" stroke-width="1.56456954">
                        <path d="M119.102536,0.0285739939 L119.102536,0.0285739939 C119.102536,16.3132623 105.901188,29.5146105 89.6164997,29.5146105 L0.505246259,29.5146105" id="Path-5" stroke="#11EBD4"></path>
                        <path d="M237.699826,0.0285739939 L237.699826,0.0285739939 C237.699826,16.3132623 224.498478,29.5146105 208.21379,29.5146105 L119.102536,29.5146105" id="Path-5" stroke="#FFFFFF" transform="translate(178.401181, 14.771592) scale(-1, 1) translate(-178.401181, -14.771592) "></path>
                    </g>
                    <rect id="Rectangle-5-Copy" x="0" y="0.138493216" width="261.283113" height="150.198675"></rect>
                </g>
            </g>
        </g>
    </g>
</svg>