<?xml version="1.0" encoding="UTF-8"?>
<svg width="93px" height="108px" viewBox="0 0 93 108" version="1.1" xmlns="http://www.w3.org/2000/svg" xmlns:xlink="http://www.w3.org/1999/xlink">
    <!-- Generator: Sketch 50 (54983) - http://www.bohemiancoding.com/sketch -->
    <title>Metamask@3x</title>
    <desc>Created with Sketch.</desc>
    <defs></defs>
    <g id="LP3" stroke="none" stroke-width="1" fill="none" fill-rule="evenodd">
        <g id="LP3-1366" transform="translate(-792.000000, -4353.000000)">
            <g id="Partnership" transform="translate(460.000000, 4249.000000)">
                <g id="Metamask" transform="translate(330.000000, 104.000000)">
                    <g id="metamask-recreated-faux-shadow" transform="translate(2.520257, 0.000000)">
                        <polygon id="Path-16" fill="#CDBDB2" points="26.4627 74.8294911 38.27835 77.9535484 38.27835 73.8682427 39.2428929 72.9069943 45.9946929 72.9069943 45.9946929 77.7132363 45.9946929 81.0776057 38.7606214 81.0776057 29.8386 77.2326121"></polygon>
                        <polygon id="Path-16-Copy" fill="#CDBDB2" transform="translate(55.760689, 76.992300) scale(-1, 1) translate(-55.760689, -76.992300) " points="45.9946929 74.8294911 57.7138886 77.9535484 57.7138886 73.8682427 58.6904882 72.9069943 65.5266857 72.9069943 65.5266857 77.7132363 65.5266857 81.0776057 58.2021884 81.0776057 49.1686417 77.2326121"></polygon>
                        <polygon id="Path-17" fill="#393939" points="39.3940194 65.9768603 38.4339214 74.1640114 39.6340439 73.1716295 52.1153173 73.1716295 53.5554643 74.1640114 52.5953663 65.9768603 50.6751704 64.7363829 41.0741908 64.9844783"></polygon>
                        <polygon id="Path-20" fill="#F89C35" points="32.7633429 11.9416629 38.6439429 25.6023971 41.3392179 65.3648914 50.8951929 65.3648914 53.8354929 25.6023971 59.2260429 11.9416629"></polygon>
                        <g id="face/left">
                            <polygon id="Path-15" fill="#F89D35" points="7.05547235 41.582576 0.24329215 61.2795857 17.2737426 60.3068939 28.2218894 60.3068939 28.2218894 51.7958403 27.7353051 34.2873872 25.3023836 36.2327709"></polygon>
                            <polygon id="Path-8" fill="#D87C30" points="19.9499563 43.7711327 39.8999126 44.2574786 37.7102832 54.4707429 28.2218894 52.0390133"></polygon>
                            <polygon id="Path-9" fill="#EA8D3A" points="19.9499563 44.0143056 28.2218894 51.7958403 28.2218894 59.577375"></polygon>
                            <polygon id="Path-10" fill="#F89D35" points="28.2218894 52.0390133 37.9535754 54.4707429 41.1163733 64.9271801 38.926744 66.1430449 28.2218894 59.820548"></polygon>
                            <polygon id="Path-11" fill="#EB8F35" points="28.2218894 59.820548 26.2755522 74.8972714 39.1700361 65.8998719"></polygon>
                            <polygon id="Path-12" fill="#EA8E3A" points="39.8999126 44.2574786 41.1163733 64.9271801 37.4669911 54.3491564"></polygon>
                            <polygon id="Path-13" fill="#D87C30" points="17.0304505 60.0637209 28.2218894 59.820548 26.2755522 74.8972714"></polygon>
                            <polygon id="Path-14" fill="#D87C30" points="5.59571945 81.4629413 26.2755522 74.8972714 17.0304505 60.0637209 0.24329215 61.2795857"></polygon>
                            <polygon id="Path-7" fill="#E8821E" points="38.4401597 25.2899878 27.9785972 34.0442143 19.9499563 43.7711327 39.8999126 44.5006515"></polygon>
                            <polygon id="Path-18" fill="#DFCEC3" points="26.2755522 74.8972714 39.1700361 65.8998719 38.1968675 73.6814066 38.1968675 78.0585199 29.4383501 76.3563092"></polygon>
                            <polygon id="Path-18-Copy" fill="#DFCEC3" transform="translate(58.876700, 71.979196) scale(-1, 1) translate(-58.876700, -71.979196) " points="52.5511044 74.8972714 65.2022962 65.8998719 64.2291276 73.6814066 64.2291276 78.0585199 55.4706102 76.3563092"></polygon>
                            <polygon id="Path-19-Copy" fill="#393939" transform="translate(32.479502, 51.431081) scale(-1, 1) translate(-32.479502, -51.431081) " points="30.4115187 48.6345918 27.7353051 54.2275699 37.2236989 51.7958403"></polygon>
                            <polygon id="Path-21" fill="#E88F35" points="5.3524273 0.243172959 38.4401597 25.2899878 32.8444402 11.672302"></polygon>
                            <path d="M5.3524273,0.243172959 L0.9731686,13.6176857 L3.4060901,28.2080633 L1.70304505,29.1807551 L4.13596655,31.3693117 L2.18962935,33.0715224 L4.865843,35.503252 L3.16279795,36.9622898 L7.05547235,41.825749 L25.3023836,36.2327709 C34.2230958,29.0996974 38.6023545,25.4521031 38.4401597,25.2899878 C38.2779649,25.1278724 27.2487208,16.7789342 5.3524273,0.243172959 Z" id="Path-22" fill="#8E5A30"></path>
                        </g>
                        <g id="face/left-copy" transform="translate(71.197264, 40.853057) scale(-1, 1) translate(-71.197264, -40.853057) translate(50.405143, 0.000000)">
                            <polygon id="Path-15" fill="#F89D35" points="7.06607252 41.582576 0.243657673 61.2795857 17.2996948 60.3068939 28.2642901 60.3068939 28.2642901 51.7958403 27.7769747 34.2873872 25.340398 36.2327709"></polygon>
                            <polygon id="Path-8" fill="#D87C30" points="19.9799292 43.7711327 39.9598584 44.2574786 37.7669393 54.4707429 28.2642901 52.0390133"></polygon>
                            <polygon id="Path-9" fill="#EA8D3A" points="19.9799292 44.0143056 28.2642901 51.7958403 28.2642901 59.577375"></polygon>
                            <polygon id="Path-10" fill="#F89D35" points="28.2642901 52.0390133 38.010597 54.4707429 41.1781467 64.9271801 38.9852277 66.1430449 28.2642901 59.820548"></polygon>
                            <polygon id="Path-11" fill="#EB8F35" points="28.2642901 59.820548 26.3150287 74.8972714 38.9852277 66.1430449"></polygon>
                            <polygon id="Path-12" fill="#EA8E3A" points="39.9598584 44.2574786 41.1781467 64.9271801 37.5232816 54.3491564"></polygon>
                            <polygon id="Path-13" fill="#D87C30" points="17.0560371 60.0637209 28.2642901 59.820548 26.3150287 74.8972714"></polygon>
                            <polygon id="Path-14" fill="#D87C30" points="5.60412648 81.4629413 26.3150287 74.8972714 17.0560371 60.0637209 0.243657673 61.2795857"></polygon>
                            <polygon id="Path-7" fill="#E8821E" points="38.4979123 25.2899878 28.0206324 34.0442143 19.9799292 43.7711327 39.9598584 44.5006515"></polygon>
                            <polygon id="Path-19-Copy" fill="#393939" transform="translate(32.528299, 51.431081) scale(-1, 1) translate(-32.528299, -51.431081) " points="30.4572091 48.6345918 27.7769747 54.2275699 37.279624 51.7958403"></polygon>
                            <polygon id="Path-21" fill="#E88F35" points="5.36046881 0.243172959 38.4979123 25.2899878 32.8937859 11.672302"></polygon>
                            <path d="M5.36046881,0.243172959 L0.974630692,13.6176857 L3.41120742,28.2080633 L1.70560371,29.1807551 L4.14218044,31.3693117 L2.19291906,33.0715224 L4.87315346,35.503252 L3.16754975,36.9622898 L7.06607252,41.825749 L25.340398,36.2327709 C34.2745127,29.0996974 38.6603508,25.4521031 38.4979123,25.2899878 C38.3354739,25.1278724 27.2896594,16.7789342 5.36046881,0.243172959 Z" id="Path-22" fill="#8E5A30"></path>
                        </g>
                    </g>
                    <text id="METAMASK" font-family=".SFNSDisplay, .SF NS Display" font-size="14.8191122" font-weight="normal" letter-spacing="0.35283598" fill="#75787B">
                        <tspan x="9.3778426" y="106.39076">METAMAS</tspan>
                        <tspan x="79.322412" y="106.39076">K</tspan>
                    </text>
                </g>
            </g>
        </g>
    </g>
</svg>