<?xml version="1.0" encoding="UTF-8"?>
<svg width="259px" height="212px" viewBox="0 0 259 212" version="1.1" xmlns="http://www.w3.org/2000/svg" xmlns:xlink="http://www.w3.org/1999/xlink">
    <!-- Generator: Sketch 50 (54983) - http://www.bohemiancoding.com/sketch -->
    <title>data files@3x</title>
    <desc>Created with Sketch.</desc>
    <defs>
        <polygon id="path-1" points="0 0.509809091 69.0925926 0.509809091 69.0925926 60.1115138 0 60.1115138"></polygon>
        <polygon id="path-3" points="0 0.508860759 69.0526316 0.508860759 69.0526316 59.9996962 0 59.9996962"></polygon>
        <polygon id="path-5" points="0 0.508860759 69.0526316 0.508860759 69.0526316 59.9996962 0 59.9996962"></polygon>
    </defs>
    <g id="LP3" stroke="none" stroke-width="1" fill="none" fill-rule="evenodd">
        <g id="LP3-1366" transform="translate(-779.000000, -2584.000000)">
            <g id="how-it-works" transform="translate(264.000000, 1932.000000)">
                <g id="info" transform="translate(34.000000, 87.000000)">
                    <g id="data-files" transform="translate(481.000000, 565.000000)">
                        <path d="M33.5,76.5 L152.5,168.5" id="Line" stroke="#1B243D" stroke-width="3" stroke-linecap="square"></path>
                        <path d="M178.5,167.5 L230.5,69.5" id="Line-2" stroke="#1B243D" stroke-width="3" stroke-linecap="square"></path>
                        <path d="M208.456954,43.55 L45.5430464,53.45" id="Line-3" stroke="#1B243D" stroke-width="3" stroke-linecap="square"></path>
                        <path d="M251.475855,54.6422434 C249.94396,55.313876 249.02689,56.9073829 249.214179,58.5747953 L233.262322,67.8194692 C233.0337,67.6496161 232.785704,67.5069914 232.524791,67.3915951 L232.506708,49.0059745 C234.038603,48.3356384 234.955673,46.7395383 234.768384,45.0721259 L250.737032,35.7250216 L250.738324,35.7250216 C250.966946,35.8948747 251.214942,36.038796 251.475855,36.1528957 L251.475855,54.6422434 Z M228.729928,42.4154167 L212.778071,33.1707429 C212.810363,32.8880866 212.810363,32.6002441 212.778071,32.3162912 L228.728636,23.0716174 L228.73122,23.0716174 C230.075826,24.0673972 231.911258,24.0673972 233.255864,23.0716174 L249.205137,32.3162912 C249.174138,32.6002441 249.174138,32.8880866 249.205137,33.1707429 L233.254572,42.4154167 C231.909966,41.419637 230.075826,41.419637 228.729928,42.4154167 Z M229.475209,67.4940255 C229.214296,67.6081253 228.9663,67.7520466 228.737678,67.9218996 L212.787113,58.6772258 C212.97311,57.0098134 212.05604,55.4163065 210.524145,54.7446738 L210.524145,36.2553262 C210.785058,36.1412264 211.033054,35.9973051 211.261676,35.8274521 L227.212241,45.0721259 C227.024952,46.7395383 227.943314,48.3343418 229.475209,49.0046779 L229.475209,67.4940255 Z M230.999354,20 L209,32.7506483 L209,58.2493517 L230.999354,71 L253,58.2493517 L253,32.7493517 L230.999354,20 Z" id="IPFS-LOGO" fill="#1A233D"></path>
                        <path d="M42.475855,66.6422434 C40.9439601,67.313876 40.0268898,68.9073829 40.2141788,70.5747953 L24.262322,79.8194692 C24.0337003,79.6496161 23.7857038,79.5069914 23.5247908,79.3915951 L23.5067078,61.0059745 C25.0386027,60.3356384 25.955673,58.7395383 25.768384,57.0721259 L41.7370321,47.7250216 L41.7383238,47.7250216 C41.9669455,47.8948747 42.214942,48.038796 42.475855,48.1528957 L42.475855,66.6422434 Z M19.7299281,54.4154167 L3.77807133,45.1707429 C3.81036254,44.8880866 3.81036254,44.6002441 3.77807133,44.3162912 L19.7286364,35.0716174 L19.7312197,35.0716174 C21.0758256,36.0673972 22.9112579,36.0673972 24.2558638,35.0716174 L40.2051372,44.3162912 C40.1741377,44.6002441 40.1741377,44.8880866 40.2051372,45.1707429 L24.2545721,54.4154167 C22.9099662,53.419637 21.0758256,53.419637 19.7299281,54.4154167 Z M20.4752092,79.4940255 C20.2142962,79.6081253 19.9662997,79.7520466 19.737678,79.9218996 L3.78711287,70.6772258 C3.97311023,69.0098134 3.05603992,67.4163065 1.52414502,66.7446738 L1.52414502,48.2553262 C1.78505798,48.1412264 2.03305445,47.9973051 2.26167621,47.8274521 L18.2122413,57.0721259 C18.0249523,58.7395383 18.9433143,60.3343418 20.4752092,61.0046779 L20.4752092,79.4940255 Z M21.9993542,32 L0,44.7506483 L0,70.2493517 L21.9993542,83 L44,70.2493517 L44,44.7493517 L21.9993542,32 Z" id="IPFS-LOGO-Copy" fill="#1A233D"></path>
                        <path d="M187.475855,195.642243 C185.94396,196.313876 185.02689,197.907383 185.214179,199.574795 L169.262322,208.819469 C169.0337,208.649616 168.785704,208.506991 168.524791,208.391595 L168.506708,190.005974 C170.038603,189.335638 170.955673,187.739538 170.768384,186.072126 L186.737032,176.725022 L186.738324,176.725022 C186.966946,176.894875 187.214942,177.038796 187.475855,177.152896 L187.475855,195.642243 Z M164.729928,183.415417 L148.778071,174.170743 C148.810363,173.888087 148.810363,173.600244 148.778071,173.316291 L164.728636,164.071617 L164.73122,164.071617 C166.075826,165.067397 167.911258,165.067397 169.255864,164.071617 L185.205137,173.316291 C185.174138,173.600244 185.174138,173.888087 185.205137,174.170743 L169.254572,183.415417 C167.909966,182.419637 166.075826,182.419637 164.729928,183.415417 Z M165.475209,208.494026 C165.214296,208.608125 164.9663,208.752047 164.737678,208.9219 L148.787113,199.677226 C148.97311,198.009813 148.05604,196.416307 146.524145,195.744674 L146.524145,177.255326 C146.785058,177.141226 147.033054,176.997305 147.261676,176.827452 L163.212241,186.072126 C163.024952,187.739538 163.943314,189.334342 165.475209,190.004678 L165.475209,208.494026 Z M166.999354,161 L145,173.750648 L145,199.249352 L166.999354,212 L189,199.249352 L189,173.749352 L166.999354,161 Z" id="IPFS-LOGO-Copy-2" fill="#1A233D"></path>
                        <g id="Page-1-Copy-2" transform="translate(177.000000, 88.000000)">
                            <g id="Group-3" transform="translate(0.000000, 0.251100)">
                                <mask id="mask-2" fill="white">
                                    <use xlink:href="#path-1"></use>
                                </mask>
                                <g id="Clip-2"></g>
                                <path d="M69.0925926,11.5426865 L69.0925926,12.1742411 L37.0138889,12.1742411 L34.1666667,7.60878655 L17.462963,7.60878655 L17.462963,12.1742411 L12.9074074,12.1742411 L12.9074074,53.012232 L12.877037,53.012232 C12.8998148,53.2252865 12.9074074,53.4314929 12.9074074,53.6437865 C12.9074074,57.2132111 10.0146296,60.1115138 6.4537037,60.1115138 C2.89277778,60.1115138 0,57.2132111 0,53.6437865 C0,53.4314929 0.00759259259,53.2252865 0.0303703704,53.012232 L0,53.012232 L0,5.07495927 L4.55555556,5.07495927 L4.55555556,0.509504727 L21.2592593,0.509504727 L24.1064815,5.07495927 L62.6388889,5.07495927 C66.1998148,5.07495927 69.0925926,7.96717473 69.0925926,11.5426865" id="Fill-1" fill="#1A233D" mask="url(#mask-2)"></path>
                            </g>
                            <path d="M82,18.8931445 L82,60.3626899 L6.4537037,60.3626899 C10.0146296,60.3626899 12.9074074,57.4636263 12.9074074,53.8949626 L12.9074074,12.4254172 L17.462963,12.4254172 L17.462963,7.85996264 L34.1666667,7.85996264 L37.0138889,12.4254172 L75.6753704,12.4254172 C75.7437037,12.4254172 75.812037,12.4337872 75.8803704,12.4337872 C79.2818519,12.6080354 82,15.4386172 82,18.8931445" id="Fill-4" fill="#FFFFFF"></path>
                        </g>
                        <g id="Page-1-Copy-2" transform="translate(35.000000, 101.000000)">
                            <g id="Group-3">
                                <mask id="mask-4" fill="white">
                                    <use xlink:href="#path-3"></use>
                                </mask>
                                <g id="Clip-2"></g>
                                <path d="M69.0526316,11.5212152 L69.0526316,12.1515949 L36.9924812,12.1515949 L34.1469057,7.59463291 L17.4528629,7.59463291 L17.4528629,12.1515949 L12.8999422,12.1515949 L12.8999422,52.9136203 L12.8695894,52.9136203 C12.892354,53.1262785 12.8999422,53.3321013 12.8999422,53.544 C12.8999422,57.1067848 10.0088375,59.9996962 6.44997108,59.9996962 C2.89110468,59.9996962 0,57.1067848 0,53.544 C0,53.3321013 0.00758820127,53.1262785 0.0303528051,52.9136203 L0,52.9136203 L0,5.06551899 L4.55292076,5.06551899 L4.55292076,0.508556962 L21.2469636,0.508556962 L24.092539,5.06551899 L62.6026605,5.06551899 C66.1615269,5.06551899 69.0526316,7.95235443 69.0526316,11.5212152" id="Fill-1" fill="#1A233D" mask="url(#mask-4)"></path>
                            </g>
                            <path d="M82,18.6403162 L82,60 L6.47368421,60 C10.0336683,60 12.925681,57.1086166 12.925681,53.5494071 L12.925681,12.1897233 L17.4800317,12.1897233 L17.4800317,7.63636364 L34.1793176,7.63636364 L37.0257868,12.1897233 L75.6770431,12.1897233 C75.7453584,12.1897233 75.8136736,12.1980711 75.8819889,12.1980711 C79.2825707,12.3718577 82,15.1949407 82,18.6403162" id="Fill-4" fill="#FFFFFF"></path>
                        </g>
                        <g id="Page-1-Copy-2" transform="translate(85.000000, 0.000000)">
                            <g id="Group-3">
                                <mask id="mask-6" fill="white">
                                    <use xlink:href="#path-5"></use>
                                </mask>
                                <g id="Clip-2"></g>
                                <path d="M69.0526316,11.5212152 L69.0526316,12.1515949 L36.9924812,12.1515949 L34.1469057,7.59463291 L17.4528629,7.59463291 L17.4528629,12.1515949 L12.8999422,12.1515949 L12.8999422,52.9136203 L12.8695894,52.9136203 C12.892354,53.1262785 12.8999422,53.3321013 12.8999422,53.544 C12.8999422,57.1067848 10.0088375,59.9996962 6.44997108,59.9996962 C2.89110468,59.9996962 0,57.1067848 0,53.544 C0,53.3321013 0.00758820127,53.1262785 0.0303528051,52.9136203 L0,52.9136203 L0,5.06551899 L4.55292076,5.06551899 L4.55292076,0.508556962 L21.2469636,0.508556962 L24.092539,5.06551899 L62.6026605,5.06551899 C66.1615269,5.06551899 69.0526316,7.95235443 69.0526316,11.5212152" id="Fill-1" fill="#1A233D" mask="url(#mask-6)"></path>
                            </g>
                            <path d="M82,18.6403162 L82,60 L6.47368421,60 C10.0336683,60 12.925681,57.1086166 12.925681,53.5494071 L12.925681,12.1897233 L17.4800317,12.1897233 L17.4800317,7.63636364 L34.1793176,7.63636364 L37.0257868,12.1897233 L75.6770431,12.1897233 C75.7453584,12.1897233 75.8136736,12.1980711 75.8819889,12.1980711 C79.2825707,12.3718577 82,15.1949407 82,18.6403162" id="Fill-4" fill="#FFFFFF"></path>
                        </g>
                    </g>
                </g>
            </g>
        </g>
    </g>
</svg>