<?xml version="1.0" encoding="UTF-8"?>
<svg width="436px" height="235px" viewBox="0 0 436 235" version="1.1" xmlns="http://www.w3.org/2000/svg" xmlns:xlink="http://www.w3.org/1999/xlink">
    <!-- Generator: Sketch 50 (54983) - http://www.bohemiancoding.com/sketch -->
    <title>Decentralized Web@3x</title>
    <desc>Created with Sketch.</desc>
    <defs>
        <polygon id="path-1" points="0.997548214 0.419458333 86.3226429 0.419458333 86.3226429 16.724625 0.997548214 16.724625"></polygon>
        <polygon id="path-3" points="0.997548214 0.419458333 86.3226429 0.419458333 86.3226429 16.724625 0.997548214 16.724625"></polygon>
        <polygon id="path-5" points="0.997548214 0.419458333 86.3226429 0.419458333 86.3226429 16.724625 0.997548214 16.724625"></polygon>
        <polygon id="path-7" points="0.0005 0.924 166.5215 0.924 166.5215 120.3558 0.0005 120.3558"></polygon>
        <polygon id="path-9" points="0.7612 0.2503 49.7612 0.2503 49.7612 1 0.7612 1"></polygon>
        <polygon id="path-11" points="0.918693418 1.484 8.5678432 1.484 8.5678432 10.8426 0.918693418 10.8426"></polygon>
        <polygon id="path-13" points="1.41349766 1.54153175 3.452 1.54153175 3.452 5.6844 1.41349766 5.6844"></polygon>
    </defs>
    <g id="LP3" stroke="none" stroke-width="1" fill="none" fill-rule="evenodd">
        <g id="LP3-1366" transform="translate(-698.000000, -3062.000000)">
            <g id="how-it-works" transform="translate(264.000000, 1932.000000)">
                <g id="info" transform="translate(34.000000, 87.000000)">
                    <g id="Decentralized-Web" transform="translate(400.000000, 1043.000000)">
                        <g id="cloud" transform="translate(0.000000, 155.000000)">
                            <path d="M0,42.9642151 C0,47.362946 3.55959474,50.9284303 7.95105977,50.9284303 L40.9501387,50.9284303 C44.4629992,50.9284303 47.310675,53.782378 47.310675,57.3010507 C47.310675,60.8197233 44.4629992,63.6721107 40.9501387,63.6721107 L29.0235491,63.6721107 C24.6320841,63.6721107 21.0709315,67.2391553 21.0709315,71.6363258 L21.0709315,72.0357849 C21.0709315,76.4345158 24.6320841,80 29.0235491,80 L129.050498,80 C133.440405,80 137,76.4345158 137,72.0357849 L137,71.6363258 C137,67.2391553 133.440405,63.6721107 129.050498,63.6721107 L92.1382016,63.6721107 C88.6253411,63.6721107 85.7776653,60.8197233 85.7776653,57.3010507 C85.7776653,53.782378 88.6253411,50.9284303 92.1382016,50.9284303 L103.990016,50.9284303 C108.379924,50.9284303 111.941076,47.362946 111.941076,42.9642151 C111.941076,38.5654842 108.379924,35 103.990016,35 L7.95105977,35 C3.55959474,35 0,38.5654842 0,42.9642151" id="Fill-1" fill="#FFFFFF"></path>
                            <path d="M142.949912,51 L126.048511,51 C121.603929,51 118,47.4184953 118,43 C118,38.5815047 121.603929,35 126.048511,35 L142.949912,35 C147.396071,35 151,38.5815047 151,43 C151,47.4184953 147.396071,51 142.949912,51" id="Fill-3" fill="#FFFFFF"></path>
                            <g id="Group-7" transform="translate(86.000000, 0.000000)">
                                <mask id="mask-2" fill="white">
                                    <use xlink:href="#path-1"></use>
                                </mask>
                                <g id="Clip-6"></g>
                                <path d="M78.3234589,16.724625 L8.99533393,16.724625 C4.57697679,16.724625 0.997548214,13.0750417 0.997548214,8.57204167 C0.997548214,4.06904167 4.57697679,0.419458333 8.99533393,0.419458333 L78.3234589,0.419458333 C82.7418161,0.419458333 86.3227982,4.06904167 86.3227982,8.57204167 C86.3227982,13.0750417 82.7418161,16.724625 78.3234589,16.724625" id="Fill-5" fill="#FFFFFF" mask="url(#mask-2)"></path>
                            </g>
                        </g>
                        <g id="cloud-copy" transform="translate(152.000000, 0.000000)">
                            <path d="M0,42.9642151 C0,47.362946 3.55959474,50.9284303 7.95105977,50.9284303 L40.9501387,50.9284303 C44.4629992,50.9284303 47.310675,53.782378 47.310675,57.3010507 C47.310675,60.8197233 44.4629992,63.6721107 40.9501387,63.6721107 L29.0235491,63.6721107 C24.6320841,63.6721107 21.0709315,67.2391553 21.0709315,71.6363258 L21.0709315,72.0357849 C21.0709315,76.4345158 24.6320841,80 29.0235491,80 L129.050498,80 C133.440405,80 137,76.4345158 137,72.0357849 L137,71.6363258 C137,67.2391553 133.440405,63.6721107 129.050498,63.6721107 L92.1382016,63.6721107 C88.6253411,63.6721107 85.7776653,60.8197233 85.7776653,57.3010507 C85.7776653,53.782378 88.6253411,50.9284303 92.1382016,50.9284303 L103.990016,50.9284303 C108.379924,50.9284303 111.941076,47.362946 111.941076,42.9642151 C111.941076,38.5654842 108.379924,35 103.990016,35 L7.95105977,35 C3.55959474,35 0,38.5654842 0,42.9642151" id="Fill-1" fill="#FFFFFF"></path>
                            <path d="M142.949912,51 L126.048511,51 C121.603929,51 118,47.4184953 118,43 C118,38.5815047 121.603929,35 126.048511,35 L142.949912,35 C147.396071,35 151,38.5815047 151,43 C151,47.4184953 147.396071,51 142.949912,51" id="Fill-3" fill="#FFFFFF"></path>
                            <g id="Group-7" transform="translate(86.000000, 0.000000)">
                                <mask id="mask-4" fill="white">
                                    <use xlink:href="#path-3"></use>
                                </mask>
                                <g id="Clip-6"></g>
                                <path d="M78.3234589,16.724625 L8.99533393,16.724625 C4.57697679,16.724625 0.997548214,13.0750417 0.997548214,8.57204167 C0.997548214,4.06904167 4.57697679,0.419458333 8.99533393,0.419458333 L78.3234589,0.419458333 C82.7418161,0.419458333 86.3227982,4.06904167 86.3227982,8.57204167 C86.3227982,13.0750417 82.7418161,16.724625 78.3234589,16.724625" id="Fill-5" fill="#FFFFFF" mask="url(#mask-4)"></path>
                            </g>
                        </g>
                        <g id="cloud-copy-2" transform="translate(263.000000, 115.000000)">
                            <path d="M0,42.9642151 C0,47.362946 3.55959474,50.9284303 7.95105977,50.9284303 L40.9501387,50.9284303 C44.4629992,50.9284303 47.310675,53.782378 47.310675,57.3010507 C47.310675,60.8197233 44.4629992,63.6721107 40.9501387,63.6721107 L29.0235491,63.6721107 C24.6320841,63.6721107 21.0709315,67.2391553 21.0709315,71.6363258 L21.0709315,72.0357849 C21.0709315,76.4345158 24.6320841,80 29.0235491,80 L129.050498,80 C133.440405,80 137,76.4345158 137,72.0357849 L137,71.6363258 C137,67.2391553 133.440405,63.6721107 129.050498,63.6721107 L92.1382016,63.6721107 C88.6253411,63.6721107 85.7776653,60.8197233 85.7776653,57.3010507 C85.7776653,53.782378 88.6253411,50.9284303 92.1382016,50.9284303 L103.990016,50.9284303 C108.379924,50.9284303 111.941076,47.362946 111.941076,42.9642151 C111.941076,38.5654842 108.379924,35 103.990016,35 L7.95105977,35 C3.55959474,35 0,38.5654842 0,42.9642151" id="Fill-1" fill="#FFFFFF"></path>
                            <path d="M142.949912,51 L126.048511,51 C121.603929,51 118,47.4184953 118,43 C118,38.5815047 121.603929,35 126.048511,35 L142.949912,35 C147.396071,35 151,38.5815047 151,43 C151,47.4184953 147.396071,51 142.949912,51" id="Fill-3" fill="#FFFFFF"></path>
                            <g id="Group-7" transform="translate(86.000000, 0.000000)">
                                <mask id="mask-6" fill="white">
                                    <use xlink:href="#path-5"></use>
                                </mask>
                                <g id="Clip-6"></g>
                                <path d="M78.3234589,16.724625 L8.99533393,16.724625 C4.57697679,16.724625 0.997548214,13.0750417 0.997548214,8.57204167 C0.997548214,4.06904167 4.57697679,0.419458333 8.99533393,0.419458333 L78.3234589,0.419458333 C82.7418161,0.419458333 86.3227982,4.06904167 86.3227982,8.57204167 C86.3227982,13.0750417 82.7418161,16.724625 78.3234589,16.724625" id="Fill-5" fill="#FFFFFF" mask="url(#mask-6)"></path>
                            </g>
                        </g>
                        <g id="computer" transform="translate(136.000000, 64.000000)">
                            <g id="Group-3" transform="translate(0.000000, 0.076000)">
                                <mask id="mask-8" fill="white">
                                    <use xlink:href="#path-7"></use>
                                </mask>
                                <g id="Clip-2"></g>
                                <path d="M160.0815,120.3558 L6.4405,120.3558 C2.8835,120.3558 0.0005,117.4718 0.0005,113.9158 L0.0005,7.3648 C0.0005,3.8078 2.8835,0.9238 6.4405,0.9238 L160.0815,0.9238 C163.6385,0.9238 166.5215,3.8078 166.5215,7.3648 L166.5215,113.9158 C166.5215,117.4718 163.6385,120.3558 160.0815,120.3558" id="Fill-1" fill="#1A233D" mask="url(#mask-8)"></path>
                            </g>
                            <path d="M158.3324,18.7443 L158.3324,104.4283 C158.3324,105.3483 157.5814,106.0993 156.6604,106.0993 L9.8614,106.0993 C8.9394,106.0993 8.1894,105.3483 8.1894,104.4283 L8.1894,18.7443 L158.3324,18.7443 Z" id="Fill-4" fill="#32549E"></path>
                            <polygon id="Fill-6" fill="#1A233D" points="103.3227 140.2238 63.1997 140.2238 66.1997 120.4318 100.3227 120.4318"></polygon>
                            <path d="M158.4155,12.2267 L158.4155,18.7447 L8.2725,18.7447 L8.2725,12.2267 C8.2725,11.3057 9.0235,10.5547 9.9445,10.5547 L156.7435,10.5547 C157.6645,10.5547 158.4155,11.3057 158.4155,12.2267" id="Fill-8" fill="#D1B554"></path>
                            <path d="M16.9174,14.9904 C16.9174,15.8074 16.2554,16.4694 15.4384,16.4694 C14.6224,16.4694 13.9604,15.8074 13.9604,14.9904 C13.9604,14.1744 14.6224,13.5114 15.4384,13.5114 C16.2554,13.5114 16.9174,14.1744 16.9174,14.9904" id="Fill-10" fill="#1A233D"></path>
                            <path d="M23.06,14.9904 C23.06,15.8074 22.398,16.4694 21.581,16.4694 C20.764,16.4694 20.102,15.8074 20.102,14.9904 C20.102,14.1744 20.764,13.5114 21.581,13.5114 C22.398,13.5114 23.06,14.1744 23.06,14.9904" id="Fill-12" fill="#1A233D"></path>
                            <path d="M29.2016,14.9904 C29.2016,15.8074 28.5396,16.4694 27.7226,16.4694 C26.9066,16.4694 26.2446,15.8074 26.2446,14.9904 C26.2446,14.1744 26.9066,13.5114 27.7226,13.5114 C28.5396,13.5114 29.2016,14.1744 29.2016,14.9904" id="Fill-14" fill="#1A233D"></path>
                            <g id="Group-24" transform="translate(58.000000, 140.076000)">
                                <mask id="mask-10" fill="white">
                                    <use xlink:href="#path-9"></use>
                                </mask>
                                <g id="Clip-23"></g>
                                <path d="M0.7612,0.2503 L49.7612,0.2503" id="Stroke-22" stroke="#1A233D" stroke-width="1.5" mask="url(#mask-10)"></path>
                            </g>
                        </g>
                        <g id="logo" transform="translate(184.000000, 95.000000)">
                            <path d="M43.282,49.6012 C47.682,49.6012 51.222,48.2192 53.516,45.6032 C55.766,43.0392 56.628,39.5272 56.014,35.4492 C55.95,35.0292 55.508,34.5812 55.028,34.4472 C54.544,34.3132 54.204,34.5452 54.268,34.9652 C54.836,38.7232 54.038,41.9592 51.964,44.3232 C49.85,46.7332 46.588,48.0072 42.532,48.0072 C37.638,48.0072 32.124,46.1332 27.01,42.7272 C26.548,42.4212 26.048,42.4312 25.892,42.7452 C25.734,43.0612 25.978,43.5672 26.438,43.8732 C31.99,47.5672 37.97,49.6012 43.282,49.6012" id="Fill-1" fill="#FFFFFF"></path>
                            <path d="M54.569,32.5972 C54.607,32.6012 54.641,32.6032 54.677,32.6032 C55.069,32.6032 55.275,32.3112 55.139,31.9112 C54.843,31.0372 54.481,30.1452 54.065,29.2592 C53.857,28.8172 53.333,28.4612 52.893,28.4612 C52.453,28.4612 52.263,28.8172 52.471,29.2592 C52.855,30.0772 53.189,30.8992 53.463,31.7052 C53.611,32.1412 54.107,32.5412 54.569,32.5972" id="Fill-3" fill="#FFFFFF"></path>
                            <path d="M13.2086,23.773 C12.5906,20.015 13.3746,16.637 15.4166,14.261 C17.5306,11.807 20.8126,10.509 24.9086,10.509 C30.0306,10.509 35.7666,12.535 41.0606,16.215 C41.5166,16.531 42.0246,16.539 42.1966,16.233 C42.3686,15.927 42.1386,15.423 41.6846,15.107 C35.9406,11.113 29.7166,8.915 24.1606,8.915 C19.7146,8.915 16.1546,10.323 13.8626,12.987 C11.6446,15.563 10.7946,19.229 11.4646,23.307 C11.5346,23.729 11.9806,24.173 12.4626,24.303 C12.5506,24.325 12.6346,24.337 12.7106,24.337 C13.0526,24.337 13.2646,24.117 13.2086,23.773" id="Fill-5" fill="#FFFFFF"></path>
                            <path d="M12.8728,25.9186 C12.4108,25.8626 12.1548,26.1686 12.3028,26.6066 C12.5988,27.4786 12.9608,28.3726 13.3768,29.2586 C13.5848,29.6986 14.1088,30.0546 14.5488,30.0546 C14.9888,30.0546 15.1788,29.6986 14.9708,29.2586 C14.5868,28.4406 14.2528,27.6166 13.9788,26.8106 C13.8308,26.3746 13.3348,25.9746 12.8728,25.9186" id="Fill-7" fill="#FFFFFF"></path>
                            <path d="M20.029,7.359 C20.069,7.359 20.107,7.357 20.143,7.351 C21.147,7.191 22.213,7.109 23.311,7.109 C23.751,7.109 23.941,6.753 23.735,6.313 C23.527,5.873 23.003,5.515 22.563,5.515 C21.385,5.515 20.243,5.603 19.167,5.775 C18.763,5.839 18.653,6.245 18.923,6.679 C19.167,7.075 19.641,7.359 20.029,7.359" id="Fill-9" fill="#FFFFFF"></path>
                            <path d="M8.0944,14.7936 C6.8444,18.9716 7.4944,23.9736 9.9784,29.2576 C12.9784,35.6416 18.2924,41.6336 24.9404,46.1276 C25.1684,46.2796 25.4064,46.3576 25.6104,46.3576 C25.8144,46.3576 25.9824,46.2776 26.0644,46.1216 C26.2264,45.8076 25.9884,45.3036 25.5304,44.9956 C19.3284,40.8016 14.3704,35.2136 11.5724,29.2576 C9.2564,24.3276 8.6464,19.6636 9.8144,15.7656 C10.9444,11.9896 13.7464,9.2076 17.7044,7.9296 C18.0724,7.8096 18.1124,7.3716 17.7964,6.9476 C17.4764,6.5236 16.9224,6.2756 16.5524,6.3956 C12.3084,7.7656 9.3044,10.7476 8.0944,14.7936" id="Fill-11" fill="#FFFFFF"></path>
                            <path d="M47.2994,51.1656 C46.2954,51.3256 45.2294,51.4076 44.1314,51.4076 C43.6894,51.4076 43.5014,51.7636 43.7074,52.2036 C43.9154,52.6436 44.4394,52.9996 44.8794,52.9996 C46.0554,52.9996 47.1994,52.9136 48.2734,52.7416 C48.6774,52.6756 48.7894,52.2716 48.5194,51.8356 C48.2514,51.4016 47.7034,51.0996 47.2994,51.1656" id="Fill-13" fill="#FFFFFF"></path>
                            <path d="M59.4196,43.4742 C60.5696,39.3462 59.8936,34.4302 57.4616,29.2582 C54.4616,22.8742 49.1496,16.8842 42.5036,12.3902 C42.0456,12.0822 41.5416,12.0842 41.3796,12.3962 C41.2156,12.7082 41.4556,13.2142 41.9136,13.5222 C48.1156,17.7142 53.0716,23.3022 55.8696,29.2582 C58.1376,34.0822 58.7676,38.6682 57.6956,42.5182 C56.6576,46.2442 54.0036,49.0502 50.2276,50.4182 C49.8696,50.5482 49.8436,50.9942 50.1716,51.4162 C50.4376,51.7582 50.8556,51.9762 51.1956,51.9762 C51.2736,51.9762 51.3476,51.9642 51.4156,51.9402 C55.4636,50.4722 58.3056,47.4662 59.4196,43.4742" id="Fill-15" fill="#FFFFFF"></path>
                            <path d="M8.1744,29.2584 C7.9664,28.8184 7.4424,28.4624 7.0044,28.4624 C6.5624,28.4624 6.3744,28.8184 6.5804,29.2584 C9.2584,34.9524 13.5624,40.4024 19.0324,45.0204 C19.2904,45.2384 19.5904,45.3524 19.8384,45.3524 C19.9984,45.3524 20.1364,45.3044 20.2304,45.2044 C20.4684,44.9484 20.3164,44.4524 19.8924,44.0924 C14.7464,39.7484 10.6944,34.6184 8.1744,29.2584" id="Fill-17" fill="#FFFFFF"></path>
                            <path d="M27.5554,49.4478 C25.9374,48.5278 24.3434,47.4958 22.8134,46.3838 C22.3654,46.0578 21.8474,46.0318 21.6614,46.3258 C21.4734,46.6218 21.6834,47.1258 22.1334,47.4518 C23.7574,48.6338 25.4514,49.7298 27.1694,50.7058 C27.3674,50.8198 27.5654,50.8738 27.7374,50.8738 C27.9734,50.8738 28.1594,50.7678 28.2214,50.5658 C28.3274,50.2178 28.0294,49.7178 27.5554,49.4478" id="Fill-19" fill="#FFFFFF"></path>
                            <path d="M45.7272,54.8044 C41.0672,54.8044 35.9132,53.5384 30.8212,51.1444 C30.3392,50.9164 29.9052,51.0384 29.8552,51.4144 C29.8052,51.7904 30.1552,52.2804 30.6392,52.5084 C36.0512,55.0524 41.5272,56.3984 46.4772,56.3984 C46.9152,56.3984 47.1052,56.0424 46.8972,55.6004 C46.6912,55.1604 46.1672,54.8044 45.7272,54.8044" id="Fill-21" fill="#FFFFFF"></path>
                            <path d="M52.0416,18.7144 C55.1076,22.0344 57.5396,25.5824 59.2676,29.2584 C59.4736,29.6984 59.9996,30.0544 60.4376,30.0544 C60.8776,30.0544 61.0676,29.6984 60.8616,29.2584 C59.0256,25.3524 56.4416,21.5844 53.1836,18.0544 C50.0356,14.6464 46.4236,11.6404 42.4536,9.1204 C41.9876,8.8264 41.4956,8.8504 41.3536,9.1764 C41.2116,9.5044 41.4736,10.0064 41.9396,10.3024 C45.6796,12.6744 49.0776,15.5064 52.0416,18.7144" id="Fill-23" fill="#FFFFFF"></path>
                            <path d="M34.5416,6.4586 C35.9576,7.0386 37.3836,7.7106 38.7796,8.4586 C38.9676,8.5586 39.1516,8.6066 39.3136,8.6066 C39.5616,8.6066 39.7516,8.4906 39.8056,8.2726 C39.8916,7.9146 39.5756,7.4166 39.0976,7.1626 C37.6136,6.3686 36.0976,5.6526 34.5936,5.0366 C34.1076,4.8386 33.7036,4.9946 33.6876,5.3866 C33.6736,5.7806 34.0556,6.2586 34.5416,6.4586" id="Fill-25" fill="#FFFFFF"></path>
                            <path d="M21.7146,3.7116 C24.5386,3.7116 27.5246,4.1696 30.5946,5.0696 C30.6926,5.0996 30.7866,5.1136 30.8726,5.1136 C31.2046,5.1136 31.4146,4.9036 31.3726,4.5736 C31.3186,4.1556 30.8826,3.7036 30.3986,3.5616 C27.1366,2.6036 23.9646,2.1196 20.9666,2.1196 C20.5266,2.1196 20.3366,2.4756 20.5446,2.9156 C20.7506,3.3556 21.2746,3.7116 21.7146,3.7116" id="Fill-27" fill="#FFFFFF"></path>
                            <g id="Group-31" transform="translate(0.000000, 0.516600)">
                                <mask id="mask-12" fill="white">
                                    <use xlink:href="#path-11"></use>
                                </mask>
                                <g id="Clip-30"></g>
                                <path d="M1.5896,10.6646 C1.7936,10.7846 1.9976,10.8426 2.1736,10.8426 C2.4056,10.8426 2.5896,10.7406 2.6536,10.5466 C3.7256,7.3866 5.6536,4.8426 8.3856,2.9886 C8.6816,2.7866 8.6096,2.3066 8.2236,1.9146 C7.8396,1.5246 7.2876,1.3706 6.9896,1.5726 C4.1096,3.5286 2.0756,6.2106 0.9436,9.5426 C0.8296,9.8866 1.1176,10.3866 1.5896,10.6646" id="Fill-29" fill="#FFFFFF" mask="url(#mask-12)"></path>
                            </g>
                            <path d="M0.8414,16.1422 C0.9894,16.2042 1.1294,16.2342 1.2554,16.2342 C1.5414,16.2342 1.7454,16.0802 1.7594,15.8082 C1.8014,15.0382 1.8894,14.2762 2.0194,13.5442 C2.0854,13.1742 1.7494,12.6822 1.2674,12.4422 C0.7854,12.2022 0.3414,12.3082 0.2754,12.6782 C0.1374,13.4502 0.0474,14.2542 0.0014,15.0662 C-0.0206,15.4562 0.3554,15.9382 0.8414,16.1422" id="Fill-32" fill="#FFFFFF"></path>
                            <path d="M65.8522,47.3356 C65.3802,47.0576 64.9042,47.1116 64.7882,47.4536 C63.7162,50.6136 61.7882,53.1556 59.0562,55.0116 C58.7602,55.2116 58.8322,55.6936 59.2182,56.0856 C59.4862,56.3596 59.8402,56.5156 60.1302,56.5156 C60.2522,56.5156 60.3622,56.4876 60.4522,56.4276 C63.3322,54.4716 65.3662,51.7896 66.4982,48.4556 C66.6122,48.1136 66.3242,47.6116 65.8522,47.3356" id="Fill-34" fill="#FFFFFF"></path>
                            <g id="Group-38" transform="translate(64.000000, 40.516600)">
                                <mask id="mask-14" fill="white">
                                    <use xlink:href="#path-13"></use>
                                </mask>
                                <g id="Clip-37"></g>
                                <path d="M2.6042,1.6304 C2.1182,1.4284 1.7102,1.5824 1.6922,1.9744 C1.6542,2.8204 1.5622,3.6544 1.4222,4.4544 C1.3542,4.8244 1.6922,5.3184 2.1742,5.5564 C2.3502,5.6424 2.5202,5.6844 2.6682,5.6844 C2.9282,5.6844 3.1242,5.5564 3.1662,5.3204 C3.3162,4.4764 3.4122,3.5964 3.4522,2.7044 C3.4702,2.3124 3.0902,1.8324 2.6042,1.6304" id="Fill-36" fill="#FFFFFF" mask="url(#mask-14)"></path>
                            </g>
                            <path d="M26.5066,13.9078 C34.9706,13.9078 45.0926,20.7938 49.0706,29.2578 C53.0486,37.7218 49.3986,44.6078 40.9346,44.6078 C32.4706,44.6078 22.3486,37.7218 18.3706,29.2578 C14.3926,20.7938 18.0426,13.9078 26.5066,13.9078 M41.6846,46.2018 C51.0266,46.2018 55.0546,38.6018 50.6646,29.2578 C46.2746,19.9158 35.1006,12.3138 25.7586,12.3138 C16.4166,12.3138 12.3866,19.9158 16.7766,29.2578 C21.1686,38.6018 32.3406,46.2018 41.6846,46.2018" id="Fill-39" fill="#FFFFFF"></path>
                            <path d="M5.528,14.4782 C5.774,14.4782 5.962,14.3642 6.018,14.1522 C6.574,12.0482 7.554,10.1982 8.932,8.6542 C9.164,8.3942 9.006,7.8942 8.58,7.5402 C8.152,7.1862 7.618,7.1082 7.386,7.3702 C5.922,9.0102 4.882,10.9762 4.29,13.2102 C4.196,13.5642 4.508,14.0622 4.984,14.3222 C5.176,14.4282 5.364,14.4782 5.528,14.4782" id="Fill-41" fill="#FFFFFF"></path>
                            <path d="M61.4244,44.3638 C60.8424,46.5598 59.8024,48.4758 58.3304,50.0598 C58.0924,50.3158 58.2444,50.8118 58.6684,51.1698 C58.9244,51.3878 59.2244,51.5038 59.4724,51.5038 C59.6324,51.5038 59.7724,51.4558 59.8664,51.3558 C61.4284,49.6738 62.5344,47.6398 63.1524,45.3078 C63.2464,44.9518 62.9344,44.4538 62.4584,44.1938 C61.9804,43.9318 61.5184,44.0098 61.4244,44.3638" id="Fill-43" fill="#FFFFFF"></path>
                        </g>
                    </g>
                </g>
            </g>
        </g>
    </g>
</svg>