<?xml version="1.0" encoding="UTF-8"?>
<svg width="268px" height="48px" viewBox="0 0 268 48" version="1.1" xmlns="http://www.w3.org/2000/svg" xmlns:xlink="http://www.w3.org/1999/xlink">
    <!-- Generator: Sketch 50 (54983) - http://www.bohemiancoding.com/sketch -->
    <title>Search bar@3x</title>
    <desc>Created with Sketch.</desc>
    <defs></defs>
    <g id="LP3" stroke="none" stroke-width="1" fill="none" fill-rule="evenodd">
        <g id="LP3-1366" transform="translate(-778.000000, -2136.000000)">
            <g id="how-it-works" transform="translate(264.000000, 1932.000000)">
                <g id="info" transform="translate(34.000000, 87.000000)">
                    <g id="Search-bar" transform="translate(480.000000, 117.000000)">
                        <path d="M249.210484,47.224 L18.7920935,47.224 C8.41390853,47.224 0,37.5081262 0,25.5236769 L0,21.9243231 C0,9.93987382 8.41390853,0.224 18.7920935,0.224 L249.210484,0.224 C259.588669,0.224 268,9.93987382 268,21.9243231 L268,25.5236769 C268,37.5081262 259.588669,47.224 249.210484,47.224" id="search-bar" fill="#FFFFFF"></path>
                        <text id="domainname.eth" font-family="Gotham-Book, Gotham" font-size="20.38515" font-weight="300" fill="#1A233D">
                            <tspan x="23" y="31">domainnam</tspan>
                            <tspan x="142.558905" y="31" letter-spacing="-0.203851506">e</tspan>
                            <tspan x="154.219211" y="31" letter-spacing="-0.407703012">.</tspan>
                            <tspan x="158.398166" y="31">eth</tspan>
                        </text>
                        <g id="search" transform="translate(223.000000, 10.224000)">
                            <path d="M18.0435,3.096 C22.1715,7.224 22.1715,13.917 18.0435,18.0435 C13.9155,22.1715 7.224,22.1715 3.096,18.0435 C-1.032,13.917 -1.032,7.224 3.096,3.096 C7.224,-1.032 13.9155,-1.032 18.0435,3.096" id="Fill-4" fill="#FEFEFE"></path>
                            <path d="M18.0435,3.096 C22.1715,7.224 22.1715,13.917 18.0435,18.0435 C13.9155,22.1715 7.224,22.1715 3.096,18.0435 C-1.032,13.917 -1.032,7.224 3.096,3.096 C7.224,-1.032 13.9155,-1.032 18.0435,3.096 Z" id="Stroke-6" stroke="#1A233D" stroke-width="2"></path>
                            <g id="Group-11" transform="translate(17.000000, 16.000000)">
                                <path d="M2.406,0.39975 L10.581,8.57325 C10.932,8.92425 10.728,9.69675 10.1265,10.29825 C9.528,10.89825 8.754,11.10225 8.403,10.74975 L0.2295,2.57625" id="Fill-8" fill="#FEFEFE"></path>
                                <path d="M2.406,0.39975 L10.581,8.57325 C10.932,8.92425 10.728,9.69675 10.1265,10.29825 C9.528,10.89825 8.754,11.10225 8.403,10.74975 L0.2295,2.57625" id="Stroke-10" stroke="#1A233D" stroke-width="2"></path>
                            </g>
                        </g>
                    </g>
                </g>
            </g>
        </g>
    </g>
</svg>