<?xml version="1.0" encoding="UTF-8"?>
<svg width="274px" height="171px" viewBox="0 0 274 171" version="1.1" xmlns="http://www.w3.org/2000/svg" xmlns:xlink="http://www.w3.org/1999/xlink">
    <!-- Generator: Sketch 50 (54983) - http://www.bohemiancoding.com/sketch -->
    <title>smartcontract@3x</title>
    <desc>Created with Sketch.</desc>
    <defs>
        <polygon id="path-1" points="0.0716 0.4529 58.26 0.4529 58.26 17.4999 0.0716 17.4999"></polygon>
        <polygon id="path-3" points="0.5232 0.7184 62.2362 0.7184 62.2362 73 0.5232 73"></polygon>
        <polygon id="path-5" points="0 0.1872 17.0477 0.1872 17.0477 17.2342 0 17.2342"></polygon>
    </defs>
    <g id="LP3" stroke="none" stroke-width="1" fill="none" fill-rule="evenodd">
        <g id="LP3-1366" transform="translate(-315.000000, -2291.000000)">
            <g id="how-it-works" transform="translate(264.000000, 1932.000000)">
                <g id="info" transform="translate(34.000000, 87.000000)">
                    <g id="smartcontract" transform="translate(17.000000, 273.000000)">
                        <g id="smart-contracts" transform="translate(0.000000, 56.000000)">
                            <path d="M206.5477,26.5242 L206.5477,35.0472 L198.0237,35.0472 C197.9077,35.0472 197.7917,35.0472 197.6827,35.0342 C193.1347,34.8632 189.4997,31.1132 189.4997,26.5242 C189.4997,21.9342 193.1347,18.1842 197.6827,18.0132 C197.7917,18.0002 197.9077,18.0002 198.0237,18.0002 C202.7297,18.0002 206.5477,21.8192 206.5477,26.5242" id="Fill-1" fill="#1A233D"></path>
                            <path d="M215.0712,73.2654 C214.9552,73.2654 214.8402,73.2654 214.7302,73.2794 L214.7302,73.2654 L215.0712,73.2654 Z" id="Stroke-3" stroke="#1A233D" stroke-width="1.5" stroke-linecap="round" stroke-linejoin="round"></path>
                            <g id="Group-7" transform="translate(215.000000, 72.813000)">
                                <mask id="mask-2" fill="white">
                                    <use xlink:href="#path-1"></use>
                                </mask>
                                <g id="Clip-6"></g>
                                <path d="M58.2606,8.9759 C58.2606,13.5659 54.6256,17.3159 50.0766,17.4869 C49.9686,17.4999 49.8526,17.4999 49.7366,17.4999 L0.0716,17.4999 C4.7766,17.4999 8.5956,13.6809 8.5956,8.9759 C8.5956,4.2709 4.7766,0.4529 0.0716,0.4529 L49.7366,0.4529 C49.8526,0.4529 49.9686,0.4529 50.0766,0.4659 C54.6256,0.6369 58.2606,4.3869 58.2606,8.9759" id="Fill-5" fill="#1A233D" mask="url(#mask-2)"></path>
                            </g>
                            <path d="M259.7362,73.2654 L214.7302,73.2654 C214.8402,73.2654 214.9552,73.2654 215.0712,73.2654 C219.7762,73.2654 223.5952,77.0834 223.5952,81.7884 C223.5952,86.4944 219.7762,90.3134 215.0712,90.3134 C214.9552,90.3134 214.8402,90.3134 214.7302,90.2994 C210.1822,90.1284 206.5482,86.3784 206.5482,81.7884 L206.5482,26.5554 C206.5482,21.8504 202.7292,18.0314 198.0232,18.0314 L251.2122,18.0314 C255.9172,18.0314 259.7362,21.8504 259.7362,26.5554 L259.7362,73.2654 Z" id="Fill-8" fill="#FFFFFF"></path>
                            <path d="M216.3212,36.4432 L250.6432,36.4432" id="Stroke-10" stroke="#1A233D" stroke-width="1.5" stroke-linecap="round" stroke-linejoin="round"></path>
                            <path d="M216.3212,44.1707 L250.6432,44.1707" id="Stroke-12" stroke="#1A233D" stroke-width="1.5" stroke-linecap="round" stroke-linejoin="round"></path>
                            <path d="M216.3212,51.8992 L250.6432,51.8992" id="Stroke-14" stroke="#1A233D" stroke-width="1.5" stroke-linecap="round" stroke-linejoin="round"></path>
                            <path d="M229.0507,63.0369 C229.0507,66.8029 225.9967,69.8559 222.2317,69.8559 C218.4657,69.8559 215.4117,66.8029 215.4117,63.0369 C215.4117,59.2709 218.4657,56.2179 222.2317,56.2179 C225.9967,56.2179 229.0507,59.2709 229.0507,63.0369" id="Fill-16" fill="#FEFEFE"></path>
                            <path d="M116.0477,50.0242 L116.0477,58.5472 L107.5237,58.5472 C107.4077,58.5472 107.2917,58.5472 107.1827,58.5342 C102.6347,58.3632 98.9997,54.6132 98.9997,50.0242 C98.9997,45.4342 102.6347,41.6842 107.1827,41.5132 C107.2917,41.5002 107.4077,41.5002 107.5237,41.5002 C112.2297,41.5002 116.0477,45.3192 116.0477,50.0242" id="Fill-18" fill="#1A233D"></path>
                            <path d="M124.5712,96.7654 C124.4552,96.7654 124.3402,96.7654 124.2302,96.7794 L124.2302,96.7654 L124.5712,96.7654 Z" id="Stroke-20" stroke="#1A233D" stroke-width="1.5" stroke-linecap="round" stroke-linejoin="round"></path>
                            <path d="M182.7606,105.2889 C182.7606,109.8789 179.1256,113.6289 174.5766,113.7999 C174.4686,113.8129 174.3526,113.8129 174.2366,113.8129 L124.5716,113.8129 C129.2766,113.8129 133.0956,109.9939 133.0956,105.2889 C133.0956,100.5839 129.2766,96.7659 124.5716,96.7659 L174.2366,96.7659 C174.3526,96.7659 174.4686,96.7659 174.5766,96.7789 C179.1256,96.9499 182.7606,100.6999 182.7606,105.2889" id="Fill-22" fill="#1A233D"></path>
                            <g id="Group-26" transform="translate(107.000000, 40.813000)">
                                <mask id="mask-4" fill="white">
                                    <use xlink:href="#path-3"></use>
                                </mask>
                                <g id="Clip-25"></g>
                                <path d="M62.2362,55.9524 L17.2302,55.9524 L17.2302,55.9664 C17.3402,55.9524 17.4552,55.9524 17.5712,55.9524 C22.2762,55.9524 26.0952,59.7704 26.0952,64.4754 C26.0952,69.1814 22.2762,73.0004 17.5712,73.0004 C17.4552,73.0004 17.3402,73.0004 17.2302,72.9864 C12.6822,72.8154 9.0482,69.0654 9.0482,64.4754 L9.0482,9.2424 C9.0482,4.5374 5.2292,0.7184 0.5232,0.7184 L53.7122,0.7184 C58.4172,0.7184 62.2362,4.5374 62.2362,9.2424 L62.2362,55.9524 Z" id="Fill-24" fill="#FFFFFF" mask="url(#mask-4)"></path>
                            </g>
                            <path d="M125.8212,59.9432 L160.1432,59.9432" id="Stroke-27" stroke="#1A233D" stroke-width="1.5" stroke-linecap="round" stroke-linejoin="round"></path>
                            <path d="M125.8212,67.6707 L160.1432,67.6707" id="Stroke-29" stroke="#1A233D" stroke-width="1.5" stroke-linecap="round" stroke-linejoin="round"></path>
                            <path d="M125.8212,75.3992 L160.1432,75.3992" id="Stroke-31" stroke="#1A233D" stroke-width="1.5" stroke-linecap="round" stroke-linejoin="round"></path>
                            <path d="M138.5507,86.5369 C138.5507,90.3029 135.4967,93.3559 131.7317,93.3559 C127.9657,93.3559 124.9117,90.3029 124.9117,86.5369 C124.9117,82.7709 127.9657,79.7179 131.7317,79.7179 C135.4967,79.7179 138.5507,82.7709 138.5507,86.5369" id="Fill-33" fill="#FEFEFE"></path>
                            <g id="Group-37" transform="translate(0.000000, 0.813000)">
                                <mask id="mask-6" fill="white">
                                    <use xlink:href="#path-5"></use>
                                </mask>
                                <g id="Clip-36"></g>
                                <path d="M17.0477,8.7112 L17.0477,17.2342 L8.5237,17.2342 C8.4077,17.2342 8.2917,17.2342 8.1827,17.2212 C3.6347,17.0502 -0.0003,13.3002 -0.0003,8.7112 C-0.0003,4.1212 3.6347,0.3712 8.1827,0.2002 C8.2917,0.1872 8.4077,0.1872 8.5237,0.1872 C13.2297,0.1872 17.0477,4.0062 17.0477,8.7112" id="Fill-35" fill="#1A233D" mask="url(#mask-6)"></path>
                            </g>
                            <path d="M25.5712,56.2654 C25.4552,56.2654 25.3402,56.2654 25.2302,56.2794 L25.2302,56.2654 L25.5712,56.2654 Z" id="Stroke-38" stroke="#1A233D" stroke-width="1.5" stroke-linecap="round" stroke-linejoin="round"></path>
                            <path d="M83.7606,64.7889 C83.7606,69.3789 80.1256,73.1289 75.5766,73.2999 C75.4686,73.3129 75.3526,73.3129 75.2366,73.3129 L25.5716,73.3129 C30.2766,73.3129 34.0956,69.4939 34.0956,64.7889 C34.0956,60.0839 30.2766,56.2659 25.5716,56.2659 L75.2366,56.2659 C75.3526,56.2659 75.4686,56.2659 75.5766,56.2789 C80.1256,56.4499 83.7606,60.1999 83.7606,64.7889" id="Fill-40" fill="#1A233D"></path>
                            <path d="M70.2362,56.2654 L25.2302,56.2654 L25.2302,56.2794 C25.3402,56.2654 25.4552,56.2654 25.5712,56.2654 C30.2762,56.2654 34.0952,60.0834 34.0952,64.7884 C34.0952,69.4944 30.2762,73.3134 25.5712,73.3134 C25.4552,73.3134 25.3402,73.3134 25.2302,73.2994 C20.6822,73.1284 17.0482,69.3784 17.0482,64.7884 L17.0482,9.5554 C17.0482,4.8504 13.2292,1.0314 8.5232,1.0314 L61.7122,1.0314 C66.4172,1.0314 70.2362,4.8504 70.2362,9.5554 L70.2362,56.2654 Z" id="Fill-42" fill="#FFFFFF"></path>
                            <path d="M26.8212,19.4432 L61.1432,19.4432" id="Stroke-44" stroke="#1A233D" stroke-width="1.5" stroke-linecap="round" stroke-linejoin="round"></path>
                            <path d="M26.8212,27.1707 L61.1432,27.1707" id="Stroke-46" stroke="#1A233D" stroke-width="1.5" stroke-linecap="round" stroke-linejoin="round"></path>
                            <path d="M26.8212,34.8992 L61.1432,34.8992" id="Stroke-48" stroke="#1A233D" stroke-width="1.5" stroke-linecap="round" stroke-linejoin="round"></path>
                            <path d="M39.5507,46.0369 C39.5507,49.8029 36.4967,52.8559 32.7317,52.8559 C28.9657,52.8559 25.9117,49.8029 25.9117,46.0369 C25.9117,42.2709 28.9657,39.2179 32.7317,39.2179 C36.4967,39.2179 39.5507,42.2709 39.5507,46.0369" id="Fill-50" fill="#FEFEFE"></path>
                        </g>
                        <g id="checking" transform="translate(148.000000, 0.000000)">
                            <polygon id="Fill-1" fill="#1A233D" points="18 5 33 5 33 2 18 2"></polygon>
                            <polygon id="Fill-2" fill="#1A233D" points="18 14 30 14 30 11 18 11"></polygon>
                            <polygon id="Fill-3" fill="#1A233D" points="0 22 30 22 30 19 0 19"></polygon>
                            <polygon id="Fill-4" fill="#1A233D" points="0 30 30 30 30 27 0 27"></polygon>
                            <polygon id="Fill-5" fill="#1A233D" points="0 38 33 38 33 35 0 35"></polygon>
                            <polygon id="Fill-6" fill="#1A233D" points="0 46 44 46 44 43 0 43"></polygon>
                            <path d="M7.06492868,0 L1,14 L4.17265125,14 L5.46753566,10.8818429 L11.4513035,10.8818429 L12.7443433,14 L16,14 L9.93691589,0 L7.06492868,0 Z M8.45941958,3.67438851 L10.3408756,8.18040637 L6.57980817,8.18040637 L8.45941958,3.67438851 Z" id="Fill-7" fill="#1A233D"></path>
                            <g id="Group-16" transform="translate(37.000000, 1.000000)">
                                <path d="M36.29976,6.30675 C44.54856,14.4064167 44.54856,27.54225 36.29976,35.6419167 C28.05096,43.7434167 14.67816,43.7434167 6.42936,35.6419167 C-1.81757333,27.54225 -1.81757333,14.4064167 6.42936,6.30675 C14.67816,-1.79475 28.05096,-1.79475 36.29976,6.30675" id="Fill-8" fill="#FEFEFE"></path>
                                <path d="M36.29976,6.30675 C44.54856,14.4064167 44.54856,27.54225 36.29976,35.6419167 C28.05096,43.7434167 14.67816,43.7434167 6.42936,35.6419167 C-1.81757333,27.54225 -1.81757333,14.4064167 6.42936,6.30675 C14.67816,-1.79475 28.05096,-1.79475 36.29976,6.30675 Z" id="Stroke-10" stroke="#1A233D" stroke-width="2.8908"></path>
                                <g id="Group-15" transform="translate(33.600000, 32.000000)">
                                    <path d="M4.87442667,0.973316667 L21.2096267,17.0149833 C21.9096267,17.7024833 21.5026933,19.2223167 20.3042933,20.3993167 C19.1058933,21.57815 17.5602933,21.9759833 16.8584267,21.2884833 L0.525093333,5.24681667" id="Fill-12" fill="#FEFEFE"></path>
                                    <path d="M4.87442667,0.973316667 L21.2096267,17.0149833 C21.9096267,17.7024833 21.5026933,19.2223167 20.3042933,20.3993167 C19.1058933,21.57815 17.5602933,21.9759833 16.8584267,21.2884833 L0.525093333,5.24681667" id="Stroke-14" stroke="#1A233D" stroke-width="2.8908"></path>
                                </g>
                            </g>
                        </g>
                    </g>
                </g>
            </g>
        </g>
    </g>
</svg>