<?xml version="1.0" encoding="UTF-8"?>
<svg width="278px" height="235px" viewBox="0 0 278 235" version="1.1" xmlns="http://www.w3.org/2000/svg" xmlns:xlink="http://www.w3.org/1999/xlink">
    <!-- Generator: Sketch 50 (54983) - http://www.bohemiancoding.com/sketch -->
    <title>Storage Files@3x</title>
    <desc>Created with Sketch.</desc>
    <defs>
        <polygon id="path-1" points="0 0.145125191 73.26257 0.145125191 73.26257 61.8091603 0 61.8091603"></polygon>
        <polygon id="path-3" points="0 0.124476336 73.262713 0.124476336 73.262713 26.8297893 0 26.8297893"></polygon>
        <polygon id="path-5" points="0 0.952129771 67.8053812 0.952129771 67.8053812 48.5343511 0 48.5343511"></polygon>
        <polygon id="path-7" points="0 0.952129771 67.8053812 0.952129771 67.8053812 24.1975859 0 24.1975859"></polygon>
        <polygon id="path-9" points="0 0.459648855 43.6370543 0.459648855 43.6370543 24.2671756 0 24.2671756"></polygon>
        <polygon id="path-11" points="0 25.2347221 43.6371973 25.2347221 43.6371973 1.42719542 0 1.42719542"></polygon>
        <polygon id="path-13" points="0 0.145125191 73.26257 0.145125191 73.26257 61.8091603 0 61.8091603"></polygon>
        <polygon id="path-15" points="0 0.124476336 73.262713 0.124476336 73.262713 26.8297893 0 26.8297893"></polygon>
    </defs>
    <g id="LP3" stroke="none" stroke-width="1" fill="none" fill-rule="evenodd">
        <g id="LP3-1366" transform="translate(-313.000000, -2813.000000)">
            <g id="how-it-works" transform="translate(264.000000, 1932.000000)">
                <g id="info" transform="translate(34.000000, 87.000000)">
                    <g id="Storage-Files" transform="translate(15.000000, 794.000000)">
                        <g id="Line" transform="translate(33.000000, 32.000000)" stroke="#1B243D" stroke-linecap="square" stroke-width="3">
                            <path d="M0.5,93.5 L164.5,0.5" id="Line-4"></path>
                            <path d="M178.5,5.5 L161.5,163.5" id="Line-5"></path>
                            <path d="M144.5,182.5 L0.549261084,118.54918" id="Line-6"></path>
                        </g>
                        <g id="Bluzelle" transform="translate(191.000000, 0.000000)" fill="#1A233D">
                            <path d="M6.15788889,28.7145556 C7.499,27.3734444 9.66788889,27.3734444 11.009,28.7145556 C12.3501111,30.0556667 12.3501111,32.2256667 11.009,33.5667778 C9.66788889,34.9078889 7.50455556,34.9134444 6.16344444,33.5723333 C4.82233333,32.2312222 4.81677778,30.0556667 6.15788889,28.7145556" id="Fill-5"></path>
                            <path d="M29.6018889,6.46633333 C30.943,5.12522222 33.113,5.12522222 34.4541111,6.46633333 C35.7952222,7.80744444 35.7952222,9.97633333 34.4541111,11.3174444 C33.113,12.6585556 30.943,12.6585556 29.6018889,11.3174444 C28.273,9.97633333 28.2674444,7.80077778 29.6018889,6.46633333" id="Fill-7"></path>
                            <path d="M10.5588889,26.0777778 L14.1777778,29.6955556 L17.4911111,26.3811111 C16.6977778,26.0655556 15.9588889,25.5888889 15.3088889,24.94 C14.6722222,24.3011111 14.19,23.5555556 13.8677778,22.7577778 L10.5588889,26.0777778 Z" id="Fill-9"></path>
                            <path d="M26.8186667,17.2312222 L30.132,13.9178889 L26.5153333,10.3001111 L23.2008889,13.6134444 C23.9931111,13.929 24.732,14.4067778 25.382,15.0556667 C26.0253333,15.7001111 26.5031111,16.439 26.8186667,17.2312222" id="Fill-11"></path>
                            <path d="M29.4867778,33.3955556 C28.1456667,32.0544444 28.1456667,29.8855556 29.4867778,28.5444444 C30.8278889,27.2033333 32.9967778,27.2033333 34.3378889,28.5444444 C35.679,29.8855556 35.679,32.0544444 34.3378889,33.3955556 C33.0034444,34.7311111 30.8212222,34.7311111 29.4867778,33.3955556" id="Fill-13"></path>
                            <path d="M6.50722222,11.004 C5.16611111,9.66288889 5.16611111,7.494 6.50722222,6.15288889 C7.84833333,4.81177778 10.0172222,4.81177778 11.3583333,6.15288889 C12.6994444,7.494 12.6994444,9.66288889 11.3583333,11.004 C10.0172222,12.3451111 7.84833333,12.3451111 6.50722222,11.004" id="Fill-15"></path>
                            <path d="M26.2403333,29.5544444 L29.8592222,25.9355556 L26.5447778,22.6222222 C26.2281111,23.4155556 25.7525556,24.1544444 25.1025556,24.8044444 C24.4636667,25.4411111 23.7192222,25.9233333 22.9214444,26.2455556 L26.2403333,29.5544444 Z" id="Fill-17"></path>
                            <path d="M17.7658889,13.4248889 L14.4525556,10.1104444 L10.8336667,13.7282222 L14.147,17.0426667 C14.4636667,16.2493333 14.9403333,15.5104444 15.5903333,14.8604444 C16.2281111,14.2237778 16.9725556,13.7404444 17.7658889,13.4248889" id="Fill-19"></path>
                            <path d="M23.8227778,3.746 C23.8227778,5.64266667 22.2883333,7.17711111 20.3916667,7.17711111 C18.495,7.17711111 16.9605556,5.64266667 16.9605556,3.746 C16.9605556,1.84933333 18.495,0.314888889 20.3916667,0.314888889 C22.2883333,0.314888889 23.8227778,1.84933333 23.8227778,3.746" id="Fill-21"></path>
                            <path d="M23.8227778,36.514 C23.8227778,38.4106667 22.2883333,39.9451111 20.3916667,39.9451111 C18.495,39.9451111 16.9605556,38.4106667 16.9605556,36.514 C16.9605556,34.6173333 18.495,33.0828889 20.3916667,33.0828889 C22.2883333,33.0828889 23.8227778,34.6173333 23.8227778,36.514" id="Fill-23"></path>
                            <path d="M21.6395556,8.97277778 L19.4817778,8.97277778 L19.4817778,13.2205556 C19.8362222,13.1627778 20.1895556,13.1283333 20.5606667,13.1283333 C20.9317778,13.1283333 21.2862222,13.1627778 21.6395556,13.2205556 L21.6395556,8.97277778 Z" id="Fill-25"></path>
                            <path d="M21.6395556,27.228 C21.2862222,27.2868889 20.9317778,27.3202222 20.5606667,27.3202222 C20.1895556,27.3202222 19.8362222,27.2868889 19.4817778,27.228 L19.4817778,31.4757778 L21.6395556,31.4757778 L21.6395556,27.228 Z" id="Fill-27"></path>
                            <path d="M35.5675556,22.6251111 C33.6708889,22.6251111 32.1364444,21.0906667 32.1364444,19.194 C32.1364444,17.2973333 33.6708889,15.764 35.5675556,15.764 C37.4642222,15.764 38.9975556,17.2973333 38.9975556,19.194 C38.9975556,21.0906667 37.4642222,22.6251111 35.5675556,22.6251111" id="Fill-29"></path>
                            <path d="M4.07233333,23.2067778 C2.17566667,23.2067778 0.641222222,21.6723333 0.641222222,19.7756667 C0.641222222,17.879 2.17566667,16.3456667 4.07233333,16.3456667 C5.969,16.3456667 7.50233333,17.879 7.50233333,19.7756667 C7.50233333,21.6723333 5.969,23.2067778 4.07233333,23.2067778" id="Fill-31"></path>
                            <path d="M26.8425556,20.8554444 L31.0903333,20.8554444 L31.0903333,18.6987778 L26.8425556,18.6987778 C26.9014444,19.0521111 26.9347778,19.4054444 26.9347778,19.7765556 C26.9347778,20.1476667 26.9014444,20.5021111 26.8425556,20.8554444" id="Fill-33"></path>
                            <path d="M13.6447778,20.8554444 C13.5858889,20.5021111 13.5525556,20.1476667 13.5525556,19.7765556 C13.5525556,19.4054444 13.5858889,19.0521111 13.6447778,18.6987778 L9.397,18.6987778 L9.397,20.8554444 L13.6447778,20.8554444 Z" id="Fill-35"></path>
                            <path d="M25.152,20.0274444 C25.152,22.7074444 22.9775556,24.8907778 20.2886667,24.8907778 C17.5997778,24.8907778 15.4242222,22.7163333 15.4242222,20.0274444 C15.4242222,17.3374444 17.5997778,15.163 20.2886667,15.163 C22.9775556,15.163 25.152,17.3463333 25.152,20.0274444" id="Fill-37"></path>
                        </g>
                        <g id="Bluzelle-Copy" transform="translate(0.000000, 118.000000)" fill="#1A233D">
                            <path d="M6.15788889,28.7145556 C7.499,27.3734444 9.66788889,27.3734444 11.009,28.7145556 C12.3501111,30.0556667 12.3501111,32.2256667 11.009,33.5667778 C9.66788889,34.9078889 7.50455556,34.9134444 6.16344444,33.5723333 C4.82233333,32.2312222 4.81677778,30.0556667 6.15788889,28.7145556" id="Fill-5"></path>
                            <path d="M29.6018889,6.46633333 C30.943,5.12522222 33.113,5.12522222 34.4541111,6.46633333 C35.7952222,7.80744444 35.7952222,9.97633333 34.4541111,11.3174444 C33.113,12.6585556 30.943,12.6585556 29.6018889,11.3174444 C28.273,9.97633333 28.2674444,7.80077778 29.6018889,6.46633333" id="Fill-7"></path>
                            <path d="M10.5588889,26.0777778 L14.1777778,29.6955556 L17.4911111,26.3811111 C16.6977778,26.0655556 15.9588889,25.5888889 15.3088889,24.94 C14.6722222,24.3011111 14.19,23.5555556 13.8677778,22.7577778 L10.5588889,26.0777778 Z" id="Fill-9"></path>
                            <path d="M26.8186667,17.2312222 L30.132,13.9178889 L26.5153333,10.3001111 L23.2008889,13.6134444 C23.9931111,13.929 24.732,14.4067778 25.382,15.0556667 C26.0253333,15.7001111 26.5031111,16.439 26.8186667,17.2312222" id="Fill-11"></path>
                            <path d="M29.4867778,33.3955556 C28.1456667,32.0544444 28.1456667,29.8855556 29.4867778,28.5444444 C30.8278889,27.2033333 32.9967778,27.2033333 34.3378889,28.5444444 C35.679,29.8855556 35.679,32.0544444 34.3378889,33.3955556 C33.0034444,34.7311111 30.8212222,34.7311111 29.4867778,33.3955556" id="Fill-13"></path>
                            <path d="M6.50722222,11.004 C5.16611111,9.66288889 5.16611111,7.494 6.50722222,6.15288889 C7.84833333,4.81177778 10.0172222,4.81177778 11.3583333,6.15288889 C12.6994444,7.494 12.6994444,9.66288889 11.3583333,11.004 C10.0172222,12.3451111 7.84833333,12.3451111 6.50722222,11.004" id="Fill-15"></path>
                            <path d="M26.2403333,29.5544444 L29.8592222,25.9355556 L26.5447778,22.6222222 C26.2281111,23.4155556 25.7525556,24.1544444 25.1025556,24.8044444 C24.4636667,25.4411111 23.7192222,25.9233333 22.9214444,26.2455556 L26.2403333,29.5544444 Z" id="Fill-17"></path>
                            <path d="M17.7658889,13.4248889 L14.4525556,10.1104444 L10.8336667,13.7282222 L14.147,17.0426667 C14.4636667,16.2493333 14.9403333,15.5104444 15.5903333,14.8604444 C16.2281111,14.2237778 16.9725556,13.7404444 17.7658889,13.4248889" id="Fill-19"></path>
                            <path d="M23.8227778,3.746 C23.8227778,5.64266667 22.2883333,7.17711111 20.3916667,7.17711111 C18.495,7.17711111 16.9605556,5.64266667 16.9605556,3.746 C16.9605556,1.84933333 18.495,0.314888889 20.3916667,0.314888889 C22.2883333,0.314888889 23.8227778,1.84933333 23.8227778,3.746" id="Fill-21"></path>
                            <path d="M23.8227778,36.514 C23.8227778,38.4106667 22.2883333,39.9451111 20.3916667,39.9451111 C18.495,39.9451111 16.9605556,38.4106667 16.9605556,36.514 C16.9605556,34.6173333 18.495,33.0828889 20.3916667,33.0828889 C22.2883333,33.0828889 23.8227778,34.6173333 23.8227778,36.514" id="Fill-23"></path>
                            <path d="M21.6395556,8.97277778 L19.4817778,8.97277778 L19.4817778,13.2205556 C19.8362222,13.1627778 20.1895556,13.1283333 20.5606667,13.1283333 C20.9317778,13.1283333 21.2862222,13.1627778 21.6395556,13.2205556 L21.6395556,8.97277778 Z" id="Fill-25"></path>
                            <path d="M21.6395556,27.228 C21.2862222,27.2868889 20.9317778,27.3202222 20.5606667,27.3202222 C20.1895556,27.3202222 19.8362222,27.2868889 19.4817778,27.228 L19.4817778,31.4757778 L21.6395556,31.4757778 L21.6395556,27.228 Z" id="Fill-27"></path>
                            <path d="M35.5675556,22.6251111 C33.6708889,22.6251111 32.1364444,21.0906667 32.1364444,19.194 C32.1364444,17.2973333 33.6708889,15.764 35.5675556,15.764 C37.4642222,15.764 38.9975556,17.2973333 38.9975556,19.194 C38.9975556,21.0906667 37.4642222,22.6251111 35.5675556,22.6251111" id="Fill-29"></path>
                            <path d="M4.07233333,23.2067778 C2.17566667,23.2067778 0.641222222,21.6723333 0.641222222,19.7756667 C0.641222222,17.879 2.17566667,16.3456667 4.07233333,16.3456667 C5.969,16.3456667 7.50233333,17.879 7.50233333,19.7756667 C7.50233333,21.6723333 5.969,23.2067778 4.07233333,23.2067778" id="Fill-31"></path>
                            <path d="M26.8425556,20.8554444 L31.0903333,20.8554444 L31.0903333,18.6987778 L26.8425556,18.6987778 C26.9014444,19.0521111 26.9347778,19.4054444 26.9347778,19.7765556 C26.9347778,20.1476667 26.9014444,20.5021111 26.8425556,20.8554444" id="Fill-33"></path>
                            <path d="M13.6447778,20.8554444 C13.5858889,20.5021111 13.5525556,20.1476667 13.5525556,19.7765556 C13.5525556,19.4054444 13.5858889,19.0521111 13.6447778,18.6987778 L9.397,18.6987778 L9.397,20.8554444 L13.6447778,20.8554444 Z" id="Fill-35"></path>
                            <path d="M25.152,20.0274444 C25.152,22.7074444 22.9775556,24.8907778 20.2886667,24.8907778 C17.5997778,24.8907778 15.4242222,22.7163333 15.4242222,20.0274444 C15.4242222,17.3374444 17.5997778,15.163 20.2886667,15.163 C22.9775556,15.163 25.152,17.3463333 25.152,20.0274444" id="Fill-37"></path>
                        </g>
                        <g id="Bluzelle-Copy-2" transform="translate(174.000000, 195.000000)" fill="#1A233D">
                            <path d="M6.15788889,28.7145556 C7.499,27.3734444 9.66788889,27.3734444 11.009,28.7145556 C12.3501111,30.0556667 12.3501111,32.2256667 11.009,33.5667778 C9.66788889,34.9078889 7.50455556,34.9134444 6.16344444,33.5723333 C4.82233333,32.2312222 4.81677778,30.0556667 6.15788889,28.7145556" id="Fill-5"></path>
                            <path d="M29.6018889,6.46633333 C30.943,5.12522222 33.113,5.12522222 34.4541111,6.46633333 C35.7952222,7.80744444 35.7952222,9.97633333 34.4541111,11.3174444 C33.113,12.6585556 30.943,12.6585556 29.6018889,11.3174444 C28.273,9.97633333 28.2674444,7.80077778 29.6018889,6.46633333" id="Fill-7"></path>
                            <path d="M10.5588889,26.0777778 L14.1777778,29.6955556 L17.4911111,26.3811111 C16.6977778,26.0655556 15.9588889,25.5888889 15.3088889,24.94 C14.6722222,24.3011111 14.19,23.5555556 13.8677778,22.7577778 L10.5588889,26.0777778 Z" id="Fill-9"></path>
                            <path d="M26.8186667,17.2312222 L30.132,13.9178889 L26.5153333,10.3001111 L23.2008889,13.6134444 C23.9931111,13.929 24.732,14.4067778 25.382,15.0556667 C26.0253333,15.7001111 26.5031111,16.439 26.8186667,17.2312222" id="Fill-11"></path>
                            <path d="M29.4867778,33.3955556 C28.1456667,32.0544444 28.1456667,29.8855556 29.4867778,28.5444444 C30.8278889,27.2033333 32.9967778,27.2033333 34.3378889,28.5444444 C35.679,29.8855556 35.679,32.0544444 34.3378889,33.3955556 C33.0034444,34.7311111 30.8212222,34.7311111 29.4867778,33.3955556" id="Fill-13"></path>
                            <path d="M6.50722222,11.004 C5.16611111,9.66288889 5.16611111,7.494 6.50722222,6.15288889 C7.84833333,4.81177778 10.0172222,4.81177778 11.3583333,6.15288889 C12.6994444,7.494 12.6994444,9.66288889 11.3583333,11.004 C10.0172222,12.3451111 7.84833333,12.3451111 6.50722222,11.004" id="Fill-15"></path>
                            <path d="M26.2403333,29.5544444 L29.8592222,25.9355556 L26.5447778,22.6222222 C26.2281111,23.4155556 25.7525556,24.1544444 25.1025556,24.8044444 C24.4636667,25.4411111 23.7192222,25.9233333 22.9214444,26.2455556 L26.2403333,29.5544444 Z" id="Fill-17"></path>
                            <path d="M17.7658889,13.4248889 L14.4525556,10.1104444 L10.8336667,13.7282222 L14.147,17.0426667 C14.4636667,16.2493333 14.9403333,15.5104444 15.5903333,14.8604444 C16.2281111,14.2237778 16.9725556,13.7404444 17.7658889,13.4248889" id="Fill-19"></path>
                            <path d="M23.8227778,3.746 C23.8227778,5.64266667 22.2883333,7.17711111 20.3916667,7.17711111 C18.495,7.17711111 16.9605556,5.64266667 16.9605556,3.746 C16.9605556,1.84933333 18.495,0.314888889 20.3916667,0.314888889 C22.2883333,0.314888889 23.8227778,1.84933333 23.8227778,3.746" id="Fill-21"></path>
                            <path d="M23.8227778,36.514 C23.8227778,38.4106667 22.2883333,39.9451111 20.3916667,39.9451111 C18.495,39.9451111 16.9605556,38.4106667 16.9605556,36.514 C16.9605556,34.6173333 18.495,33.0828889 20.3916667,33.0828889 C22.2883333,33.0828889 23.8227778,34.6173333 23.8227778,36.514" id="Fill-23"></path>
                            <path d="M21.6395556,8.97277778 L19.4817778,8.97277778 L19.4817778,13.2205556 C19.8362222,13.1627778 20.1895556,13.1283333 20.5606667,13.1283333 C20.9317778,13.1283333 21.2862222,13.1627778 21.6395556,13.2205556 L21.6395556,8.97277778 Z" id="Fill-25"></path>
                            <path d="M21.6395556,27.228 C21.2862222,27.2868889 20.9317778,27.3202222 20.5606667,27.3202222 C20.1895556,27.3202222 19.8362222,27.2868889 19.4817778,27.228 L19.4817778,31.4757778 L21.6395556,31.4757778 L21.6395556,27.228 Z" id="Fill-27"></path>
                            <path d="M35.5675556,22.6251111 C33.6708889,22.6251111 32.1364444,21.0906667 32.1364444,19.194 C32.1364444,17.2973333 33.6708889,15.764 35.5675556,15.764 C37.4642222,15.764 38.9975556,17.2973333 38.9975556,19.194 C38.9975556,21.0906667 37.4642222,22.6251111 35.5675556,22.6251111" id="Fill-29"></path>
                            <path d="M4.07233333,23.2067778 C2.17566667,23.2067778 0.641222222,21.6723333 0.641222222,19.7756667 C0.641222222,17.879 2.17566667,16.3456667 4.07233333,16.3456667 C5.969,16.3456667 7.50233333,17.879 7.50233333,19.7756667 C7.50233333,21.6723333 5.969,23.2067778 4.07233333,23.2067778" id="Fill-31"></path>
                            <path d="M26.8425556,20.8554444 L31.0903333,20.8554444 L31.0903333,18.6987778 L26.8425556,18.6987778 C26.9014444,19.0521111 26.9347778,19.4054444 26.9347778,19.7765556 C26.9347778,20.1476667 26.9014444,20.5021111 26.8425556,20.8554444" id="Fill-33"></path>
                            <path d="M13.6447778,20.8554444 C13.5858889,20.5021111 13.5525556,20.1476667 13.5525556,19.7765556 C13.5525556,19.4054444 13.5858889,19.0521111 13.6447778,18.6987778 L9.397,18.6987778 L9.397,20.8554444 L13.6447778,20.8554444 Z" id="Fill-35"></path>
                            <path d="M25.152,20.0274444 C25.152,22.7074444 22.9775556,24.8907778 20.2886667,24.8907778 C17.5997778,24.8907778 15.4242222,22.7163333 15.4242222,20.0274444 C15.4242222,17.3374444 17.5997778,15.163 20.2886667,15.163 C22.9775556,15.163 25.152,17.3463333 25.152,20.0274444" id="Fill-37"></path>
                        </g>
                        <g id="Group" transform="translate(15.000000, 11.000000)">
                            <g id="photos" transform="translate(147.239584, 58.829857) rotate(19.000000) translate(-147.239584, -58.829857) translate(110.239584, 27.329857)">
                                <g id="Group-3" transform="translate(0.000000, 0.282641)">
                                    <mask id="mask-2" fill="white">
                                        <use xlink:href="#path-1"></use>
                                    </mask>
                                    <g id="Clip-2"></g>
                                    <path d="M69.5962157,61.8094458 L3.66621121,61.8094458 C1.64206323,61.8094458 -0.000143049327,60.1721252 -0.000143049327,58.1508122 L-0.000143049327,3.80375878 C-0.000143049327,1.7824458 1.64206323,0.145125191 3.66621121,0.145125191 L69.5962157,0.145125191 C71.6217942,0.145125191 73.26257,1.7824458 73.26257,3.80375878 L73.26257,58.1508122 C73.26257,60.1721252 71.6217942,61.8094458 69.5962157,61.8094458" id="Fill-1" fill="#FFFFFF" mask="url(#mask-2)"></path>
                                </g>
                                <g id="Group-6" transform="translate(0.000000, 20.694855)">
                                    <mask id="mask-4" fill="white">
                                        <use xlink:href="#path-3"></use>
                                    </mask>
                                    <g id="Clip-5"></g>
                                    <polygon id="Fill-4" fill="#32549E" mask="url(#mask-4)" points="73.2632852 21.4738809 56.0072448 5.74589618 42.3646305 16.1864916 23.2403659 0.124476336 -0.000858295964 17.7267435 -0.000858295964 26.8297893 73.2632852 26.8297893"></polygon>
                                </g>
                                <path d="M48.2631265,12.6265901 C48.2631265,16.1681702 45.384974,19.0402618 41.8359202,19.0402618 C38.2854359,19.0402618 35.4087139,16.1681702 35.4087139,12.6265901 C35.4087139,9.08358244 38.2854359,6.21149084 41.8359202,6.21149084 C45.384974,6.21149084 48.2631265,9.08358244 48.2631265,12.6265901" id="Fill-7" fill="#D1B554"></path>
                            </g>
                            <g id="email" transform="translate(218.700933, 92.524021) rotate(21.000000) translate(-218.700933, -92.524021) translate(184.700933, 67.524021)">
                                <g id="Group-3" transform="translate(0.000000, 0.475637)">
                                    <mask id="mask-6" fill="white">
                                        <use xlink:href="#path-5"></use>
                                    </mask>
                                    <g id="Clip-2"></g>
                                    <path d="M2.22684888,48.5350649 L65.5791045,48.5350649 C66.8078982,48.5350649 67.8063825,47.5401107 67.8063825,46.3124771 L67.8063825,3.17400382 C67.8063825,1.94637023 66.8078982,0.951416031 65.5791045,0.951416031 L2.22684888,0.951416031 C0.996624664,0.951416031 -0.000429147982,1.94637023 -0.000429147982,3.17400382 L-0.000429147982,46.3124771 C-0.000429147982,47.5401107 0.996624664,48.5350649 2.22684888,48.5350649" id="Fill-1" fill="#FEFEFE" mask="url(#mask-6)"></path>
                                </g>
                                <g id="Group-6" transform="translate(0.000000, 0.475637)">
                                    <mask id="mask-8" fill="white">
                                        <use xlink:href="#path-7"></use>
                                    </mask>
                                    <g id="Clip-5"></g>
                                    <path d="M0,0.951416031 L32.4893632,23.7511412 C33.3376457,24.3464008 34.4691659,24.3464008 35.3160179,23.7511412 L67.8053812,0.951416031 L0,0.951416031 Z" id="Fill-4" fill="#1A233D" mask="url(#mask-8)"></path>
                                </g>
                            </g>
                            <g id="Page-1" transform="translate(238.839537, 132.864139) rotate(-17.000000) translate(-238.839537, -132.864139) translate(216.839537, 119.864139)">
                                <g id="Group-3" transform="translate(0.000000, 0.967547)">
                                    <mask id="mask-10" fill="white">
                                        <use xlink:href="#path-9"></use>
                                    </mask>
                                    <g id="Clip-2"></g>
                                    <path d="M43.6370543,22.6675405 L43.6370543,2.05899847 C43.6370543,1.17538779 42.9189466,0.458792366 42.0334713,0.458792366 L1.60200942,0.458792366 C0.717964574,0.458792366 -0.000143049327,1.17538779 -0.000143049327,2.05899847 L-0.000143049327,22.6675405 C-0.000143049327,23.5511511 0.717964574,24.2677466 1.60200942,24.2677466 L42.0334713,24.2677466 C42.9189466,24.2677466 43.6370543,23.5511511 43.6370543,22.6675405" id="Fill-1" fill="#FEFEFE" mask="url(#mask-10)"></path>
                                </g>
                                <mask id="mask-12" fill="white">
                                    <use xlink:href="#path-11"></use>
                                </mask>
                                <g id="Clip-5"></g>
                                <polygon id="Fill-4" fill="#D1B554" mask="url(#mask-12)" points="0 14.7969817 43.6371973 14.7969817 43.6371973 6.40053893 0 6.40053893"></polygon>
                            </g>
                            <g id="photos-copy" transform="translate(81.968610, 63.381679)">
                                <g id="Group-3" transform="translate(0.000000, 0.282641)">
                                    <mask id="mask-14" fill="white">
                                        <use xlink:href="#path-13"></use>
                                    </mask>
                                    <g id="Clip-2"></g>
                                    <path d="M69.5962157,61.8094458 L3.66621121,61.8094458 C1.64206323,61.8094458 -0.000143049327,60.1721252 -0.000143049327,58.1508122 L-0.000143049327,3.80375878 C-0.000143049327,1.7824458 1.64206323,0.145125191 3.66621121,0.145125191 L69.5962157,0.145125191 C71.6217942,0.145125191 73.26257,1.7824458 73.26257,3.80375878 L73.26257,58.1508122 C73.26257,60.1721252 71.6217942,61.8094458 69.5962157,61.8094458" id="Fill-1" fill="#FFFFFF" mask="url(#mask-14)"></path>
                                </g>
                                <g id="Group-6" transform="translate(0.000000, 20.694855)">
                                    <mask id="mask-16" fill="white">
                                        <use xlink:href="#path-15"></use>
                                    </mask>
                                    <g id="Clip-5"></g>
                                    <polygon id="Fill-4" fill="#32549E" mask="url(#mask-16)" points="73.2632852 21.4738809 56.0072448 5.74589618 42.3646305 16.1864916 23.2403659 0.124476336 -0.000858295964 17.7267435 -0.000858295964 26.8297893 73.2632852 26.8297893"></polygon>
                                </g>
                                <path d="M48.2631265,12.6265901 C48.2631265,16.1681702 45.384974,19.0402618 41.8359202,19.0402618 C38.2854359,19.0402618 35.4087139,16.1681702 35.4087139,12.6265901 C35.4087139,9.08358244 38.2854359,6.21149084 41.8359202,6.21149084 C45.384974,6.21149084 48.2631265,9.08358244 48.2631265,12.6265901" id="Fill-7" fill="#D1B554"></path>
                            </g>
                            <polygon id="Fill-1" fill="#32549E" transform="translate(75.817346, 49.317331) rotate(-29.000000) translate(-75.817346, -49.317331) " points="-5.00552409 59.7750559 156.640216 59.7750559 156.640216 38.8596056 -5.00552409 38.8596056"></polygon>
                            <polygon id="Fill-2" fill="#16178D" points="30.470852 187.119244 174.950673 187.119244 174.950673 100.923664 30.470852 100.923664"></polygon>
                            <path d="M121.680534,118.908496 L82.3977578,118.908496 C79.7913991,118.908496 77.67713,116.800107 77.67713,114.199237 C77.67713,111.598366 79.7913991,109.48855 82.3977578,109.48855 L121.680534,109.48855 C124.286892,109.48855 126.401161,111.598366 126.401161,114.199237 C126.401161,116.800107 124.286892,118.908496 121.680534,118.908496" id="Fill-3" fill="#FFFFFF"></path>
                        </g>
                    </g>
                </g>
            </g>
        </g>
    </g>
</svg>